<?xml version="1.0" encoding="UTF-8"?>
<svg id="Layer_2" data-name="Layer 2" xmlns="http://www.w3.org/2000/svg" viewBox="0 0 1200.64 1636.92">
  <defs>
    <style>
      .cls-1 {
        fill: #ea382f;
      }
    </style>
  </defs>
  <g id="Layer_1-2" data-name="Layer 1">
    <g>
      <polygon class="cls-1" points="464.4 707.39 468.6 704.87 472.75 701.43 477.79 699.43 482.06 696.08 486.9 693.77 492.04 692.12 496.74 689.48 501.83 687.78 506.94 686.18 512.06 684.59 517.35 683.7 522.62 682.77 527.87 681.77 533.12 680.68 538.43 679.92 543.84 679.14 549.31 678.51 554.69 677.27 559.79 675.19 564.75 672.81 569.71 670.44 574.27 667.35 578.88 664.38 583.61 661.56 587.63 657.77 592.08 654.53 596.15 650.83 599.73 646.64 604.01 643.14 607.86 639.21 611.28 634.88 614.42 630.35 618.31 626.43 621.52 621.96 624.58 617.39 628.04 613.12 631.56 608.87 634.28 604.07 637.56 599.65 640.54 595.02 643.53 590.41 646.28 585.64 649.21 580.98 651.6 576.01 653.88 570.99 657.27 566.58 659.44 561.51 661.65 556.46 664.32 551.65 666.75 546.72 669.4 541.9 671.64 536.88 674.32 532.06 676.3 526.92 679.03 522.12 680.6 516.8 683.38 512.02 685.87 507.1 687.49 501.81 689.63 496.75 692.2 491.86 693.96 486.64 695.98 481.52 698.18 476.49 699.85 471.24 702.08 466.21 703.9 461.03 703.73 455.33 704.27 449.65 704.45 443.96 704.38 438.27 704.63 432.59 704.79 426.9 704.2 421.21 704.59 415.53 703.99 409.85 703.84 404.16 704.53 398.46 703.43 392.81 703.23 387.14 702.83 381.47 702.62 375.79 702.52 370.07 701.34 364.5 700.02 358.95 698.25 353.73 696.94 348.37 695.36 343.08 693.28 337.96 691.6 332.71 689.42 327.63 688.08 322.27 686.53 316.97 684.24 311.94 682.22 306.81 680.83 301.46 679.2 296.18 677.26 291.02 674.67 286.11 672.59 281 671.33 275.59 669.25 270.48 667.22 265.35 665.11 260.25 663.54 254.95 661.48 249.84 658.93 244.91 656.84 239.81 655.21 234.53 653.36 229.34 651.66 224.09 649.36 219.07 647.65 213.82 645.92 208.59 643.36 203.66 641.8 198.36 639.82 193.22 637.73 188.12 636.02 182.88 634.7 177.51 632.75 172.36 630.88 167.17 629.33 161.89 626.96 156.86 625.46 151.56 623.89 146.28 622.8 140.85 621.3 135.56 619.61 130.32 617.69 125.13 616.28 119.81 614.73 114.51 613.54 109.13 612.5 103.72 610.93 98.42 609.62 93.07 608.98 87.57 607.54 82.24 607 76.74 605.74 71.36 605.01 65.9 604.2 60.45 603.38 55 602.99 49.5 602.85 43.97 601.62 38.56 601.26 33.06 601.02 27.55 600.54 22.06 600.86 16.53 600.25 11.04 599.83 5.53 599.76 0 600.18 1.97 599.75 .03 599.93 5.51 600.17 11.01 599.6 16.49 599.78 22.01 599.3 27.49 599.09 32.98 598.25 38.43 597.45 43.87 597.47 49.4 596.22 54.78 596.34 60.35 595.36 65.76 593.9 71.09 593.14 76.54 591.95 81.9 591.82 87.47 590.54 92.82 588.71 98.05 588.25 103.58 586.98 108.93 585.11 114.13 583.56 119.4 582.44 124.79 581.28 130.17 579.66 135.42 578.27 140.74 576.71 146.01 574.73 151.15 572.74 156.29 571.76 161.74 569.56 166.8 567.93 172.05 566.02 177.21 564.01 182.32 562.95 187.78 560.61 192.78 558.99 198.03 557.11 203.2 554.7 208.17 553.33 213.52 551.45 218.68 549.34 223.75 547.25 228.84 545.31 233.98 543.12 239.02 540.95 244.07 539.75 249.49 536.95 254.3 535.44 259.61 533.81 264.88 531.54 269.89 529.89 275.15 527.19 280.12 528.7 285.51 529.31 290.91 530.24 296.27 531.23 301.62 532.25 306.96 532.97 312.37 534.62 317.58 535.93 322.85 536.37 328.33 537.61 333.63 538.82 338.93 540.98 343.98 542.19 349.42 544.19 354.63 545.87 359.94 547.27 365.34 548.9 370.66 551.04 375.82 551.93 381.38 554.16 386.51 555.84 391.82 557.12 397.25 559.38 402.37 560.68 407.8 562.92 412.92 564.15 418.37 566.18 423.57 567.61 428.96 569.54 434.18 570.75 439.63 572.14 445.02 573.91 450.3 575.08 455.74 577.23 460.93 578.65 466.3 579.93 471.72 580.58 477.27 581.98 482.65 582.56 488.18 582.23 493.75 582.59 499.36 581.95 504.92 581.22 510.46 581.01 516.05 580.2 521.59 579.85 527.17 579.35 532.73 578.66 538.28 578.02 543.84 577.67 549.43 576.8 554.97 575.56 560.45 575.38 566.06 574.8 571.62 573.83 577.28 574.47 571.64 574.12 566.1 574.06 560.59 574.24 555.08 574.91 549.55 574.46 544.04 574.42 538.52 574.04 533.01 573.62 527.5 572.68 522.04 572.02 516.57 571.15 511.12 570.59 505.63 569.72 500.19 568.54 494.79 568.26 489.23 566.34 484 565.12 478.62 564.42 473.1 562.83 467.8 560.61 462.7 559.37 457.3 557.64 452.06 555.85 446.83 553.67 441.75 551.39 436.72 548.99 431.74 546.87 426.73 545.02 421.58 542.66 416.67 540.18 411.82 537.67 406.99 535.68 401.91 533.58 396.88 530.68 392.23 528.74 387.12 526.28 382.26 523.63 377.48 521.41 372.5 519.58 367.35 517.05 362.51 514.95 357.47 512.79 352.46 511.56 347.09 509.76 341.95 507.5 336.85 505.89 342.52 503.67 347.88 501.97 353.41 500.4 358.97 499.68 364.46 498.4 369.82 497.47 375.26 496.89 380.75 496.85 386.28 496.85 391.8 496.73 397.31 495.92 402.8 496.43 408.33 495.88 413.84 495.74 419.35 495.76 424.86 496.39 430.37 496.12 435.89 496.51 441.39 496.45 446.91 496.44 452.43 495.99 457.95 496.07 463.47 496.73 468.97 497.02 474.48 496.96 480 496.86 485.53 497.14 491.04 497.87 496.54 497.72 502.07 497.98 507.59 497.84 513.11 497.59 518.64 498.37 524.14 498.1 529.67 498.05 535.19 498.08 540.71 498.68 546.23 498.4 551.75 498.17 557.27 498.82 562.79 498.93 568.31 498.43 573.83 498.5 579.35 498.82 584.88 498.41 590.39 498.25 595.9 497.67 601.4 497.02 606.88 496.91 612.41 496.7 617.95 495.51 623.36 493.94 628.65 492.65 633.97 491.22 639.45 488.85 644.62 487.62 650.18 485.61 655.47 483.32 660.65 481.79 666.12 479.35 671.25 477.45 676.57 475.03 681.69 473.34 687.11 470.84 692.19 468.69 697.42 466.41 702.59 464.4 707.39"/>
      <polygon class="cls-1" points="996.78 433.19 1002.05 435.67 1006.41 439.57 1011.59 442.26 1016.17 445.81 1020.71 449.4 1025.32 452.92 1029.42 457.04 1034.14 460.13 1039.4 459.33 1041.8 454.5 1042.42 448.98 1042.32 443.37 1041.65 437.8 1040.18 432.37 1038.77 426.95 1037.02 421.63 1035.77 416.14 1033.68 410.94 1031.67 405.7 1029.19 400.65 1029.13 400.77 1026.99 395.63 1025.41 390.26 1022.92 385.27 1020.82 380.12 1019.14 374.79 1017.18 369.58 1014.9 364.5 1012.15 359.61 1010.71 354.18 1008.03 349.26 1006.74 343.78 1003.85 338.94 1001.88 333.73 1000.4 328.32 997.75 323.38 995.86 318.13 993.88 312.93 991.74 307.78 990.08 302.45 988.22 297.2 986.1 292.04 983.72 286.99 981.5 281.87 979.38 276.72 977.83 271.34 976.11 266.04 973.92 260.91 971.78 255.76 969.95 250.5 967.65 245.41 965.73 240.18 964.24 234.79 961.83 229.74 960.29 224.37 958.36 219.15 955.96 214.09 954.65 208.64 952.9 203.36 950.73 198.22 948.37 193.15 947.04 187.71 945 182.53 942.89 177.37 941.34 172.02 939.95 166.61 937.74 161.49 936.24 156.12 934.48 150.83 932.82 145.52 930.95 140.28 929.36 134.94 927.25 129.77 925.08 124.62 924.19 119.06 922.05 113.9 920.01 108.71 918.53 103.34 916.84 98.04 915.46 92.64 913.7 87.36 912.47 81.92 910.55 76.68 909.49 71.19 907.26 66.04 906.37 60.51 905.24 55.06 903.25 49.83 901.88 44.44 901.03 38.92 899.4 33.6 898.12 28.19 898.85 33.71 900.13 39.13 900.83 44.65 901.94 50.09 903.25 55.5 903.86 61.04 904.83 66.51 906.04 71.93 906.94 77.42 907.92 82.89 909.62 88.21 910.35 93.74 912.01 99.07 913.21 104.5 913.55 110.11 915.58 115.35 916.68 120.8 917.87 126.23 918.77 131.73 919.39 137.28 920.84 142.66 922.02 148.09 923.4 153.48 924.28 158.98 925.42 164.42 927.03 169.75 928.23 175.18 929.91 180.5 930.69 186.02 931.68 191.5 933.41 196.81 934.85 202.19 935.61 207.72 936.61 213.2 937.91 218.61 939.87 223.86 941.3 229.24 941.85 234.82 943.25 240.2 944.58 245.59 946 250.97 946.85 256.48 948.2 261.87 950.07 267.15 951.46 272.54 952.37 278.04 953.51 283.48 954.51 288.95 956.13 294.28 957.15 299.75 958.21 305.22 960.14 310.48 961.04 315.98 962.4 321.38 963.89 326.75 965.01 332.2 965.76 337.74 967.17 343.13 968.53 348.53 969.6 354 971.53 359.27 972.6 364.74 973.78 370.18 974.51 375.72 975.69 381.16 977.11 386.53 978.95 391.95 980.39 397.46 982.1 402.89 983.62 408.38 985.21 413.85 987.61 419.01 990.17 424.06 992.81 429.07 996.78 433.19"/>
      <polygon class="cls-1" points="45.93 863.66 50.25 867.1 54.92 870.04 58.81 873.94 61.88 878.52 65.38 882.8 67.37 887.97 70.23 892.69 72.29 897.79 74.04 903 76.08 908.12 76.74 913.64 78.57 918.85 79.33 924.3 80.65 929.64 81.42 935.09 82.47 940.49 82.76 946 83.41 951.46 84.15 956.91 84.68 962.38 85.49 967.83 86.13 973.29 87.38 978.67 88.2 984.09 88.66 989.58 90.22 994.83 90.96 1000.17 91.87 1005.52 90.52 1010.88 95.55 1009.44 100.18 1006.75 104.74 1003.92 109.21 1000.91 113.99 998.46 119.05 996.58 123.54 993.55 128.62 991.72 133.62 988.96 138.74 986.44 144.28 984.82 149.16 981.82 154.44 979.65 159.26 976.55 164.51 974.28 169.32 971.21 174.35 968.52 178.92 965.1 183.35 961.53 187.89 958.06 191.49 953.63 194.95 949.14 198.09 944.42 201.03 939.52 202.96 934.14 201.61 928.79 199.87 923.54 198.89 918.12 198.25 912.63 197.23 907.22 196.11 901.81 195.72 896.31 195.11 890.84 194.63 885.35 195.06 879.81 194.16 874.34 194.5 868.82 194.52 863.32 194.64 857.82 194.53 852.31 194.68 846.81 195.21 841.32 194.68 835.8 195.46 830.31 194.94 824.8 195.11 819.3 195.52 813.81 195.25 808.31 195.58 802.8 195.25 797.31 195.15 791.8 194.65 786.31 193.81 780.86 192.75 775.46 192.17 769.97 191.01 764.58 189.2 759.37 187.81 754.04 186.21 748.76 184.08 743.68 181.38 738.86 179.34 733.72 176.52 728.96 175.72 723.46 173.78 718.27 173.05 712.81 172.5 707.34 171.92 701.87 172.17 696.35 172.1 690.87 171.75 685.37 171.83 679.88 172.15 674.39 172.65 668.92 173.14 663.44 173.21 657.95 173.65 652.48 173.98 646.99 175.05 641.59 175.42 636.1 176.06 630.65 176.33 625.14 176.93 619.68 177.68 614.23 179.03 608.87 179.44 603.38 180.28 597.96 181.59 592.6 182.62 587.21 183.31 581.75 183.52 576.22 185.14 570.92 185.45 565.39 187.25 560.13 187.36 554.57 188.45 549.18 190.08 543.89 190.46 538.37 191.66 532.99 192.77 527.61 192.65 522.03 192.92 516.44 192.85 510.85 192.41 505.28 191.6 499.74 190.88 494.2 190.2 488.66 190.08 483.05 189.71 477.47 188.82 471.95 187.94 466.43 187.38 460.87 186.32 455.38 185.67 449.83 185.49 444.23 184.38 438.73 184.24 433.14 183.78 427.58 182.91 422.03 183.35 416.43 183.51 410.86 183.48 405.28 183.59 399.66 185.26 394.3 186.83 388.95 188.68 383.76 191.05 378.78 192.81 374.27 192.17 379.72 190.81 385.07 189.88 390.5 189 395.95 188.49 401.44 187.86 406.92 187.94 412.45 188.26 417.97 187.43 423.49 188.13 428.89 188.96 434.24 189.46 439.63 190.41 444.95 191.3 450.29 192.8 455.49 194.01 460.78 196.11 465.79 197.6 471.02 200.41 475.71 202.27 480.95 203.82 475.52 204.38 470 205.54 464.61 207.18 459.32 208.01 453.86 209.15 448.46 210.52 443.11 211.36 437.65 212.83 432.32 213.89 426.91 214.8 421.46 216.42 416.17 217.71 410.8 218.77 405.38 220.16 400.05 221.49 394.69 222.12 389.18 223.74 383.9 224.44 378.4 225.62 373.01 227.66 367.82 228.03 362.24 229.34 356.88 230.57 351.5 232.1 346.19 233.91 340.95 234.91 335.51 236.19 330.14 237.28 324.72 238.86 319.42 240.2 314.06 241.07 308.59 242.36 303.23 243.18 297.74 244.89 292.47 246.41 287.16 247.18 281.66 248.25 276.24 250 270.98 251.52 265.66 252.73 260.27 253.28 254.73 254.38 249.32 256.35 244.1 257.47 238.69 258.65 233.3 259.76 227.89 261.42 222.6 262.59 217.2 263.23 211.69 264.36 206.28 265.96 200.98 267.32 195.63 268.83 190.32 269.71 184.85 271.18 179.53 272.62 174.2 273.18 168.67 274.76 163.36 275.87 157.96 276.85 152.52 278.2 147.16 279.91 141.89 280.94 136.46 282.02 131.05 283.39 125.7 283.88 120.15 285.22 114.8 286.43 109.41 288.09 104.12 289.28 98.74 290.22 93.29 290.87 87.79 291.99 82.38 292.89 76.93 294.1 71.55 295.39 66.18 296.08 60.7 296.94 55.24 298.42 49.91 299.01 44.41 300.41 39.06 301.01 33.57 302.2 28.38 301.21 33.62 300 39.01 298.42 44.3 296.61 49.54 295.89 55.05 294.36 60.36 292.76 65.64 291.43 71.01 289.38 76.16 288.26 81.58 287 86.96 284.61 92.01 283.15 97.33 282.21 102.82 279.98 107.91 278.66 113.28 276.6 118.41 275.32 123.8 273.47 129 271.92 134.3 269.81 139.42 267.81 144.57 266.63 149.99 264.29 155.03 263.32 160.53 261.34 165.69 258.96 170.7 257.3 175.97 255.26 181.1 254.3 186.62 252.28 191.76 249.77 196.72 248.64 202.18 246.77 207.36 244.35 212.36 242.28 217.47 240.67 222.76 239.06 228.05 237.04 233.18 235.27 238.42 233.37 243.6 231.08 248.64 228.82 253.69 227.57 259.12 225.15 264.11 223.31 269.32 221.22 274.42 219.05 279.5 217.84 284.94 215.37 289.91 213.62 295.15 211.64 300.3 209.13 305.25 207.67 310.61 205.7 315.77 203.51 320.84 201.33 325.92 199.31 331.06 197.03 336.1 194.77 341.15 193.47 346.58 190.57 351.37 188.95 356.67 187.2 361.93 184.8 366.92 182.99 372.15 180.16 376.96 178.78 382.37 176.48 387.4 174.39 392.52 172.28 397.63 170.14 402.72 167.66 407.67 166.01 412.97 163.98 418.12 161.09 422.9 158.91 427.98 156.65 433.02 155.25 438.42 152.63 443.31 150.76 448.52 148.57 453.58 146.72 458.84 145.13 464.21 144.07 469.73 141.78 474.9 140.86 480.45 139.41 485.86 137.57 491.17 136.77 496.74 135 502.07 134.24 507.64 132.48 512.97 131.59 518.51 130.12 523.92 129.23 529.45 127.68 534.85 126.39 540.31 125.59 545.86 124.28 551.32 124.11 556.97 123.33 562.51 122.59 568.06 121.41 573.57 121.24 579.18 121.17 584.78 121.05 590.41 122.36 595.88 123.9 601.21 126.28 606.15 129.08 610.87 131.29 615.9 133.84 620.75 136.19 625.71 138.27 630.78 140.3 635.88 142.49 640.92 144.05 646.2 145.09 651.61 146.97 656.78 148.26 662.13 149.02 667.57 149.08 673.08 149.82 678.54 149.7 684.06 148.65 689.49 146.31 694.37 144.48 699.4 142.02 704.17 139.77 709.04 137.55 713.93 135.87 719.05 134.05 724.09 132.58 729.24 130.99 734.35 129.92 739.61 129.29 744.94 127.81 750.17 128.01 755.6 127.5 760.95 126.41 766.26 126.21 771.64 126.59 777.05 125.87 782.4 125.56 787.77 125.19 793.14 125.1 798.52 124.92 803.89 124.65 809.27 123.87 814.6 122.46 819.81 121.07 824.96 119.37 830.19 118.26 831.58 119.78 826.29 121.05 820.93 121.29 815.4 122.43 810.01 122.81 804.52 122.79 799.02 123.03 793.54 123.47 788.05 122.86 782.58 122.46 777.11 121.68 771.69 121.53 766.14 120.74 760.56 119.95 754.96 119.58 749.3 120.37 743.67 120.97 738.05 121.79 732.46 122.37 726.78 124.09 721.37 125.84 715.97 127.49 710.54 128.76 705.01 130.05 699.49 131.43 694 133.36 688.64 133.77 682.97 134.89 677.41 135.12 671.73 134.58 666.08 132.74 660.71 131.39 655.28 129.36 650.07 127.65 644.76 125.78 639.49 124.14 634.11 121.74 629.03 118.39 624.51 114.47 620.67 109.48 620.94 106.23 625.48 104.49 630.81 103.72 636.36 102.37 641.78 101.63 647.31 100.61 652.81 100.42 651.55 99.89 646.07 100.57 640.63 101.09 635.2 101.57 629.76 101.51 624.27 102.33 618.86 103.11 613.45 103.01 607.95 103.44 602.5 104.45 597.11 104.88 591.65 105.03 586.17 105.86 580.76 106.41 575.32 107.3 569.91 108.21 564.51 108.47 559.04 108.69 553.56 109.73 548.18 110.9 542.82 111.38 537.39 111.29 537.16 108.51 541.91 106.85 547.19 104.47 552.13 101.84 556.95 99.97 562.13 97.24 566.9 95.07 571.94 92.42 576.75 90.52 581.92 87.86 586.72 85.58 591.71 83.2 596.65 80.58 601.47 78.15 606.38 75.74 611.31 73.29 616.22 71.46 621.44 68.47 626.07 66.04 630.98 63.45 635.81 61.12 640.78 58.53 645.61 56.48 650.72 53.82 655.51 50.66 660.04 48.23 664.95 45.74 669.84 43.15 674.66 40.92 679.7 37.52 684.06 35.15 689.02 32.18 693.63 29.2 698.22 26.63 703.07 23.84 707.72 21.31 712.51 18.51 717.18 16.69 722.31 14.6 727.31 11.85 732.08 10.83 737.48 8.63 742.49 7.38 747.79 6.17 753.09 5.34 758.46 4.08 763.76 3.39 769.15 2.23 774.48 1.97 779.92 1.03 785.29 1.25 790.76 .73 796.17 .44 801.6 0 807.06 2.5 812.32 4.32 817.77 6.73 822.98 9.53 828 12.36 833 15.5 837.83 19.11 842.32 23.19 846.38 27.1 850.6 31.26 854.6 35.99 857.9 41.02 860.7 45.93 863.66"/>
      <polygon class="cls-1" points="435.37 976.08 439.32 980.02 443.46 983.77 447.7 987.39 452.53 990.3 456.89 993.77 460.83 997.78 465.54 1000.81 470.24 1003.81 474.42 1007.55 479.28 1010.32 483.48 1014.05 488.32 1016.85 492.9 1020.03 497.3 1023.46 501.9 1026.61 506.73 1029.42 511.4 1032.47 515.97 1035.66 520.26 1039.25 525.16 1041.97 529.69 1045.21 533.82 1049.01 538.74 1051.73 543.02 1055.31 547.66 1058.42 551.87 1062.1 555.7 1066.21 560.3 1069.41 564.55 1073.01 568.43 1077.04 572.44 1080.91 576.58 1084.65 580.36 1088.76 584.48 1092.56 588.88 1096.09 593.96 1098.65 599.63 1099.47 604.99 1097.72 609.49 1094.51 613.36 1090.57 616.77 1086.18 619.75 1081.48 622.92 1076.85 625.53 1071.9 628.18 1066.96 630.03 1061.64 632.97 1056.84 635.03 1051.63 637.5 1046.61 640.03 1041.62 642.08 1036.4 644.87 1031.54 647.48 1026.6 649.72 1021.45 652.56 1016.62 655.16 1011.64 658.93 1007.42 661.94 1002.7 665.43 998.32 669.27 994.25 673.16 990.22 677.23 986.34 682.16 983.62 686.87 980.62 691.83 978.03 697.19 976.39 702.57 974.79 708.21 974.09 713.31 971.56 718.36 969.1 723.46 966.65 727.77 962.97 732.66 960.06 736.48 955.85 740.46 951.86 744.29 947.72 747.52 943.09 751.55 939.06 754.28 934.08 757.62 929.52 760.21 924.5 763.02 919.6 765.33 914.45 768.1 909.5 770.32 904.3 772.26 898.99 774.19 893.67 775.68 888.21 777.16 882.76 777.9 877.14 778.99 871.61 780.45 866.15 780.98 860.53 782.09 854.99 782.07 849.32 783.47 843.78 783.6 838.13 783.93 832.49 783.88 826.84 783.41 821.2 783.4 815.57 783.83 809.91 782.81 804.31 782.96 798.65 782.12 793.07 781.45 787.48 781.65 781.65 777.62 777.63 774.5 773.04 770.73 768.95 767.9 764.17 764.55 759.76 761.82 754.93 758.68 750.36 755.72 745.68 753.33 740.67 750.25 736.05 747.57 731.2 745.1 726.25 742.97 721.13 740.36 716.24 738.01 711.23 735.24 706.42 733.08 701.32 731.18 696.1 728.84 691.08 726.34 686.13 724.45 680.92 722.27 675.82 720.16 670.7 718.84 665.27 716.23 660.34 714.73 654.99 712.89 649.76 711.13 644.51 709.12 639.34 707.35 634.09 706.23 628.58 704.49 623.19 704.32 617.54 703.07 612.03 702.67 606.41 702.68 600.78 702.15 595.18 702.38 589.55 702.12 583.94 702.25 578.31 702.17 572.7 701.94 567.08 701.69 561.46 702.14 555.84 702.22 550.22 701.86 544.6 702.18 538.99 702.52 533.37 702.54 527.75 702.17 522.12 702.77 516.51 702.22 510.87 703.2 505.27 702.57 499.63 702.85 494.01 703.05 488.39 703.03 482.76 703.55 476.99 701.78 482.34 700.58 487.68 699.05 492.92 697.37 498.12 695.57 503.29 693.83 508.47 692.54 513.79 690.94 519.02 689.47 524.29 687.32 529.34 685.85 534.61 684.16 539.81 682.81 545.12 681.17 550.34 679.4 555.52 677.04 560.49 675.58 565.77 673.7 570.91 671.36 575.87 669.27 580.92 667.48 586.08 666.11 591.42 663.38 596.21 661.82 601.49 658.81 606.13 657.28 611.44 654.73 616.29 651.57 620.79 649.31 625.8 646.02 630.18 642.27 634.16 639.86 639.14 638.67 644.7 638.39 650.39 638.76 656.06 639.66 661.68 640.57 667.27 641.51 672.86 641.95 678.54 642.68 684.18 643.97 689.71 645.29 695.23 646.35 700.81 647.96 706.26 649.23 711.79 650.12 717.4 652.01 722.76 653.26 728.1 654.92 733.32 657.08 738.38 658.14 743.78 659.66 749.04 661.62 754.17 663.79 759.22 664.92 764.61 666.8 769.75 668.74 774.88 670.13 780.18 671.36 785.53 673.43 790.61 674.78 795.93 676.38 801.16 677.89 806.42 679.58 811.62 680.97 816.91 682.85 822.06 684.75 827.22 685.3 832.72 687.08 837.91 688.7 843.15 689.68 848.53 690.18 853.94 689.88 859.33 689.78 864.72 689.06 870.07 688.99 875.48 688.02 880.8 688.23 886.24 687.05 891.53 686.13 896.85 686.1 902.28 685.45 907.64 684.29 912.93 683.96 918.32 683.3 923.68 682.41 929 682.04 934.38 681.22 940.75 680.61 947.13 679.91 953.52 679.76 951.61 680.6 945.88 681.21 940.12 682.17 934.39 682.62 928.76 682.24 923.1 682.75 917.47 682.21 911.84 682.05 906.21 682.67 900.55 681.46 894.98 681.11 889.36 680.57 883.76 680.22 878.14 680.06 872.47 678.96 866.93 678.03 861.37 676.79 855.87 675.94 850.28 674.73 844.77 672.94 839.4 671.45 833.96 669.37 828.7 668.06 823.2 666.43 817.79 663.96 812.7 661.67 807.55 659.88 802.17 657.8 796.93 655.39 791.83 652.35 787.04 649.79 782.02 648.02 776.62 645.47 771.6 642.99 766.54 640.45 761.51 638.45 756.23 636.03 751.14 633.17 746.25 630.8 741.13 628.94 735.8 626.94 730.53 625.14 725.19 622.82 720.04 621.17 714.65 619.58 709.25 617.24 704.08 616 698.57 614.42 693.16 612.83 687.74 611.73 682.21 610.69 676.67 607.8 671.78 602.86 669.17 597.27 670.02 592.69 673.28 588.05 676.35 583.65 679.79 579.04 682.98 574.77 686.58 570.64 690.34 566.65 694.27 562.26 697.75 557.89 701.24 553.19 704.3 548.31 707.03 543.54 709.98 538.45 712.38 532.97 713.69 527.56 715.23 521.93 715.22 516.32 715.19 510.85 713.86 505.41 712.77 499.86 712.67 494.31 713.04 488.75 713.92 483.7 716.44 478.58 718.63 473.59 721.14 468.91 724.19 463.97 726.87 459.73 730.55 455.56 734.28 450.75 737.26 446.65 741.15 444.49 746.28 441.13 750.65 438.52 755.48 435.19 759.85 432.46 764.61 429.16 768.98 426.03 773.48 422.35 777.55 418.68 781.61 415.59 786.16 411.5 789.84 408.4 794.45 404.49 798.28 400.27 801.82 396.66 805.95 392.93 809.99 390.47 814.96 387.66 819.6 385.04 824.47 384.57 829.98 383.97 835.38 383.29 840.83 383.34 846.32 384.16 851.75 385.19 857.13 385.92 862.55 387.06 867.89 388.15 873.25 388.92 878.68 389.78 884.1 391.76 889.25 392.56 894.69 394 899.96 395.21 905.3 396.38 910.66 398.56 915.74 399.47 921.17 401.15 926.39 402.58 931.65 404.74 936.76 408.03 941.28 411.01 945.95 413.94 950.66 417.04 955.26 420.45 959.64 423.8 964.08 427.34 968.38 431.77 971.82 435.37 976.08"/>
      <polygon class="cls-1" points="31.32 886.35 26.13 885.06 21.01 883.91 15.74 883.95 10.74 885.71 6.87 889.07 7.51 894.42 8.84 899.77 9.68 905.21 10.55 910.64 11.31 916.1 12.58 921.46 13.61 926.87 15.36 932.12 16.45 937.51 17.81 942.84 18.72 948.29 20.46 953.52 21.49 958.94 22.6 964.34 24.38 969.56 26 974.82 27.65 980.07 28.78 985.48 30.12 990.82 31.89 996.04 33.56 1001.29 35 1006.61 36.62 1011.87 38.33 1017.1 40.87 1022.06 42.64 1027.27 43.72 1032.72 45.93 1037.78 48.12 1042.84 49.42 1048.22 51.83 1053.2 53.12 1058.59 55.47 1063.59 57.38 1068.75 59.02 1074.02 61.01 1079.16 63.4 1084.13 65.57 1089.2 67.61 1094.31 69.26 1099.59 71.96 1104.43 74.14 1109.49 75.74 1114.79 78.66 1119.53 80.68 1124.65 83.32 1129.5 85.41 1134.6 87.08 1139.89 89.93 1144.64 92.39 1149.56 94.44 1154.68 96.8 1159.66 99.4 1164.51 101.66 1169.54 104.18 1174.43 106.48 1179.44 108.93 1184.38 111.55 1189.22 114.56 1193.86 117.41 1198.58 120.07 1203.4 122.66 1208.25 125.36 1213.05 127.64 1218.08 130.35 1222.87 132.93 1227.74 136.24 1232.18 138.5 1237.24 141.61 1241.8 144.38 1246.56 147.14 1251.33 150.44 1255.76 153.14 1260.56 156.12 1265.2 159.59 1269.5 162.66 1274.07 166.12 1278.36 168.65 1283.3 172.15 1287.56 175.41 1291.97 174.27 1286.47 172.76 1281.05 170.97 1275.71 170 1270.12 168.09 1264.82 165.99 1259.59 164.19 1254.25 161.75 1249.17 160.07 1243.75 157.03 1238.96 154.38 1234 151.99 1228.88 148.54 1224.4 146.45 1219.26 143.6 1214.54 141.61 1209.41 139.97 1204.16 138.05 1198.99 137.49 1193.46 135.72 1188.22 134.97 1182.76 133.59 1177.43 132.67 1172 131.39 1166.65 130.75 1161.17 129.65 1155.78 128.35 1150.42 127.13 1145.05 125.54 1139.78 123.99 1134.49 121.77 1129.42 119.91 1124.26 118.39 1118.95 115.96 1114.01 114.02 1108.85 110.99 1104.22 109.14 1098.96 106.08 1094.36 103.1 1089.72 99.9 1085.37 96.5 1081.14 93.63 1076.55 91.31 1071.63 87.93 1067.35 85.75 1062.38 82.89 1057.77 80.39 1052.97 78.96 1047.69 76.32 1042.94 74.77 1037.75 72.55 1032.8 71.54 1027.46 70.09 1022.25 69.55 1016.86 68.74 1011.52 68.37 1006.13 68.89 1000.74 68.84 995.32 69.45 989.95 70.05 984.55 70.49 979.09 70.03 973.63 69.56 968.19 68.36 962.84 67.62 957.44 66.92 952.01 65.57 946.71 63.84 941.52 62.54 936.22 60.77 931.06 58.85 925.95 57.5 920.61 54.64 915.91 52.61 910.83 49.97 906.04 47.08 901.4 43.6 897.18 39.92 893.16 35.97 889.34 31.32 886.35"/>
      <polygon class="cls-1" points="1160.98 999.25 1159.43 993.88 1157.47 988.64 1156.26 983.15 1153.89 978.06 1151.62 972.96 1149.27 967.9 1146.76 962.88 1142.73 958.92 1137.67 959.7 1134.86 964.33 1132.76 969.47 1131.03 974.8 1130.07 980.31 1129.11 985.82 1128.57 991.39 1127.94 990.14 1127.81 984.66 1128.72 979.23 1128.46 973.74 1129.33 968.33 1130.09 962.91 1130.62 957.47 1130.96 952.02 1130.94 946.53 1131.48 941.09 1132.52 935.7 1133.17 930.27 1133.93 924.86 1134.12 919.38 1134.24 913.89 1134.88 908.45 1136.21 903.1 1136.16 897.59 1137.64 892.26 1137.74 886.77 1138.85 881.4 1138.95 875.87 1141.02 870.87 1143.65 866.14 1145.31 860.97 1147.54 856.05 1150.42 851.42 1152 846.23 1154.18 841.29 1156.93 836.61 1159.17 831.7 1161.25 826.72 1163.37 821.76 1165.57 816.83 1167.74 811.88 1169.62 806.81 1171.71 801.83 1174.35 797.09 1176.66 792.22 1174.43 797.34 1173.62 802.93 1171.77 808.23 1170.56 813.69 1168.81 819.02 1167.29 824.41 1165.91 829.84 1164.49 835.25 1163.77 840.84 1162 846.17 1161.08 851.69 1159.05 856.97 1158.4 862.56 1157.11 868.01 1156.02 873.51 1154.89 878.99 1154.18 884.55 1152.46 889.94 1152.02 895.54 1151.08 901.06 1150.14 906.59 1149.36 912.15 1149.69 917.79 1148.94 923.38 1149.02 929.01 1149.75 934.6 1152.34 939.58 1154.9 944.38 1157.05 949.39 1159.23 954.37 1161.44 959.33 1163.92 964.17 1165.94 969.21 1168.31 974.12 1169.63 979.43 1171.83 984.75 1173.54 979.14 1175.05 973.79 1176.65 968.46 1178.1 963.1 1179.37 957.68 1180.98 952.35 1181.58 946.78 1182.78 941.35 1184.11 935.96 1186.02 930.69 1186.82 925.17 1187.82 919.7 1189.53 914.38 1190.3 908.86 1191.74 903.48 1192.07 897.89 1192.91 892.39 1194.34 886.99 1194.86 881.45 1196.06 876 1196.74 870.48 1196.9 864.9 1198.19 859.45 1198.01 853.85 1198.5 848.32 1199.33 842.81 1199.4 837.24 1199.76 831.7 1200.25 826.15 1200.21 820.59 1200.64 815.03 1199.87 809.47 1200.28 803.9 1200.03 798.35 1199.89 792.78 1198.68 787.3 1199.03 781.69 1198.53 776.15 1197.76 770.64 1196.48 765.21 1195.06 759.82 1194.53 754.26 1193.39 748.81 1191.57 743.54 1190.48 738.06 1187.85 733.08 1186.57 727.64 1184.32 722.56 1181.93 717.54 1179.16 712.73 1176.73 707.74 1174.21 702.77 1170.94 698.33 1168.14 693.59 1165.09 689 1162.41 684.2 1159.98 679.25 1157.47 674.35 1154.21 669.86 1152.09 664.75 1149.16 660.08 1146.88 655.06 1144.33 650.19 1141.34 645.54 1139.37 640.36 1136.14 635.83 1134.41 630.54 1131.51 625.84 1129.35 620.77 1126.32 616.13 1124.14 611.08 1122.12 605.94 1119.4 601.15 1117.3 596.06 1114.89 591.11 1112.29 586.26 1110.14 581.19 1107.68 576.27 1105.25 571.33 1103.13 566.25 1100.22 561.54 1098.21 556.4 1096.03 551.35 1093.38 546.51 1090.88 541.6 1089.08 536.37 1086.86 531.34 1084.74 526.25 1081.59 521.63 1080.01 516.31 1077.43 511.43 1074.99 506.5 1072.6 501.54 1071.04 496.21 1068.26 491.42 1066.24 486.29 1064.19 481.18 1061.99 476.13 1059.37 471.27 1057.25 466.19 1054.89 461.2 1053.1 456.14 1051.47 461.23 1050.11 466.58 1049.51 472.06 1048.51 477.51 1049.06 483.06 1049.08 488.55 1048.93 494.05 1048.94 499.56 1049.02 505.08 1050.31 510.49 1050.86 515.96 1051.21 521.48 1052.16 526.91 1053.05 532.35 1054.24 537.74 1055.6 543.08 1056.73 548.47 1057.75 553.9 1059.77 559.07 1061.01 564.44 1062.41 569.78 1063.61 575.17 1064.99 580.51 1066.91 585.69 1068.47 590.97 1069.93 596.29 1071.9 601.45 1073.8 606.62 1075.38 611.9 1077.22 617.1 1079.59 622.09 1081.23 627.36 1083.65 632.32 1085.48 637.93 1083.66 632.21 1081.15 627.22 1079.16 621.99 1076.7 616.97 1074.16 611.99 1072.39 606.67 1070.05 601.6 1067.65 596.55 1065.13 591.55 1062.98 586.41 1060.83 581.25 1058.8 576.04 1056.61 570.9 1055.32 565.41 1053.07 560.28 1050.38 555.33 1049.29 549.77 1047.14 544.61 1044.8 539.51 1042.93 534.24 1041.68 528.76 1039.97 523.45 1037.63 518.32 1036.57 512.81 1034.87 507.48 1034.1 501.93 1032.96 496.46 1032.82 490.79 1031.49 485.98 1028.5 481.57 1024.64 477.85 1021.42 473.51 1017.36 470 1013.47 466.32 1009.29 462.94 1005.38 459.28 1001.41 455.66 997.23 452.31 993.01 449.03 991.35 447.47 992.64 452.71 993.67 458.18 994.64 463.65 995.79 469.09 996.48 474.63 997.76 480.04 999.08 485.45 1000.02 490.93 1001.67 496.27 1002.76 501.72 1003.24 507.3 1004.67 512.68 1006.16 518.06 1006.6 523.64 1007.93 529.04 1009.01 534.5 1010.32 539.91 1011.1 545.43 1012.26 550.87 1012.78 556.43 1014.27 561.81 1014.78 567.37 1015.55 572.88 1016.98 578.27 1017.47 583.83 1018.01 589.37 1019.55 594.75 1020.28 600.26 1020.91 605.79 1021.68 611.3 1022.84 616.75 1023.31 622.3 1024.4 627.77 1024.93 633.31 1025.4 638.86 1025.67 644.42 1026.37 649.94 1026.73 655.48 1027.74 660.98 1027.98 666.54 1028.38 672.09 1028.2 677.66 1028.76 683.2 1028.46 688.76 1028.09 694.31 1028.25 699.88 1028.05 705.43 1027.66 710.98 1026.46 716.43 1025.14 721.85 1025.61 727.48 1026.17 733.05 1026.65 738.63 1027.45 744.18 1028.46 749.69 1030.41 755 1031.66 760.44 1032.26 766.05 1034.08 771.36 1035.93 776.64 1036.93 782.18 1039.08 787.37 1040.14 792.9 1042.3 798.08 1044.05 803.4 1045.56 808.8 1047.43 814.08 1049.73 819.2 1051.82 824.39 1053.8 829.62 1055.4 835.01 1058.07 839.97 1060.22 845.13 1061.82 850.53 1064.74 855.36 1066.77 860.57 1069.44 865.5 1071.58 870.66 1073.29 875.94 1070.75 871.25 1068.13 866.45 1066.03 861.39 1063.7 856.45 1061.17 851.61 1059.04 846.57 1056.69 841.64 1054.61 836.58 1052.42 831.58 1050.09 826.64 1047.39 821.86 1044.89 816.98 1042.64 812 1040.49 806.98 1038.27 801.97 1036.53 796.76 1034.38 791.73 1032.41 786.63 1029.71 781.83 1028.18 776.54 1025.79 771.62 1023.83 766.51 1021.94 761.38 1019.52 756.46 1017.85 751.25 1015.52 745.86 1013.68 751.48 1011.92 756.71 1010.8 762.13 1008.74 767.31 1007.98 772.8 1007.1 778.25 1006.25 783.72 1005.85 789.23 1005.77 794.76 1004.83 800.24 1004.85 805.77 1005.03 811.29 1004.82 816.82 1005.21 822.34 1004.65 827.88 1005.44 833.38 1005.64 838.9 1005.32 844.43 1006.02 849.94 1005.33 855.48 1005.94 860.99 1005.91 866.51 1005.74 872.03 1006.01 877.57 1004.95 883.05 1005.17 888.59 1004.33 894.06 1004.06 899.59 1003.22 905.05 1002.62 910.54 1001.22 915.89 1000.1 921.29 998.97 926.69 997.55 932.01 996.25 937.38 994.66 942.66 993.47 948.09 991.65 953.32 989.21 958.3 987.38 963.52 984.76 968.41 982.95 973.67 979.63 978.19 977.24 983.16 974.47 987.94 971.83 992.79 969.37 997.76 966.34 1002.39 962.77 1006.66 960.25 1011.63 956.61 1015.82 953.62 1020.49 950.35 1024.96 946.18 1028.82 944.65 1034.75 942.22 1040.27 940.65 1046.11 938.05 1051.56 936.07 1057.26 933.72 1062.4 932.19 1067.83 930.76 1073.28 928.97 1078.64 928.15 1084.23 927.06 1089.76 925.84 1095.26 924.33 1100.71 923.36 1106.27 922.1 1111.76 921.24 1117.36 919.62 1122.77 917.62 1128.06 915.93 1133.44 914.23 1138.84 911.74 1143.92 910.06 1149.03 911.07 1153.75 915.79 1156.06 921.22 1155.24 926.69 1155.02 932.09 1154.23 937.5 1153.44 942.88 1152.42 948.31 1151.77 953.78 1151.7 959.24 1150.86 964.67 1151.77 970.18 1152 975.42 1153.75 980.06 1156.71 984.3 1160.18 988.16 1164.07 993.15 1166.44 998.39 1168.18 1003.86 1168.97 1009.37 1169.05 1014.85 1168.66 1020.36 1168.65 1025.82 1168 1031.17 1166.68 1036.6 1165.85 1042.02 1164.87 1047.33 1163.44 1052.5 1161.51 1057.9 1160.4 1062.93 1158.1 1068.41 1157.17 1073.34 1154.63 1078.54 1152.87 1083.68 1150.96 1088.71 1148.77 1093.74 1147.04 1089.25 1149.96 1084.81 1153.25 1080.09 1156.13 1075.23 1158.75 1070.25 1161.14 1065.24 1163.47 1060.37 1166.09 1055.31 1168.3 1050.23 1170.5 1044.86 1171.89 1039.69 1173.82 1034.38 1175.36 1029.12 1177.11 1023.73 1178.38 1018.27 1179.33 1012.71 1179.48 1007.24 1180.36 1001.71 1180.61 996.18 1180.14 990.69 1179.71 985.19 1179.36 979.62 1179.24 974.34 1177.43 968.83 1176.64 963.84 1174.13 958.37 1172.97 953.35 1170.6 948.44 1167.9 942.9 1167.03 937.46 1165.91 931.92 1165.38 926.36 1165.44 920.78 1165.35 915.2 1165.8 909.7 1166.78 904.32 1168.27 898.96 1169.8 893.63 1171.4 888.17 1172.57 882.79 1174.08 877.62 1176.17 872.49 1178.34 867.28 1180.3 862.3 1182.83 857.21 1185.07 851.96 1186.98 847.16 1189.85 841.99 1191.97 837.03 1194.52 832.35 1197.59 827.16 1199.69 822.21 1202.27 817.51 1205.28 812.95 1208.52 807.87 1210.87 803.2 1213.92 798.6 1217.07 793.71 1219.77 788.76 1222.37 784.31 1225.75 779.47 1228.53 774.81 1231.59 770.12 1234.61 765.57 1237.84 760.89 1240.88 756.55 1244.4 752.28 1248.01 747.25 1250.57 743.03 1254.23 738.77 1257.85 734.21 1261.04 729.8 1264.44 725.24 1267.64 720.69 1271.16 725.19 1267.62 729.19 1263.78 733.75 1260.61 737.53 1256.49 742.18 1253.45 746.65 1250.2 750.56 1246.24 754.86 1242.76 759.47 1239.67 763.57 1235.94 767.87 1232.46 772.31 1229.17 776.44 1225.47 780.96 1222.27 785.24 1218.76 789.43 1215.13 794.08 1212.09 798.52 1208.79 802.84 1205.32 807.38 1202.15 811.89 1198.93 815.98 1195.16 820.7 1192.24 824.88 1188.57 829.38 1185.33 834.41 1182.87 838.49 1179.03 843.17 1176.04 847.83 1173.06 852.72 1170.42 857.81 1168.18 862.58 1165.4 867.62 1163.17 872.83 1161.42 877.48 1158.26 880.54 1153.5 882.58 1148.25 884.7 1143.06 886.15 1137.64 888.33 1132.47 890.21 1127.18 891.26 1121.65 892.53 1116.2 894.4 1110.9 895.98 1105.52 897.17 1100.07 898.18 1094.99 899.58 1090.03 901.63 1085.25 902.55 1080.16 903.01 1074.96 898.79 1078.53 894.17 1081.51 889.77 1084.77 885.58 1088.36 881.01 1091.42 876.13 1093.95 871.31 1096.57 866.36 1098.95 861.67 1101.81 856.66 1104.03 851.63 1106.21 846.95 1109.15 841.8 1111.1 836.85 1113.45 831.94 1115.92 826.9 1118.05 821.7 1119.88 816.84 1122.41 811.99 1124.99 807.08 1127.43 802.71 1130.8 798.02 1133.62 793.55 1136.77 788.81 1139.75 784.38 1143.14 780.12 1146.75 776.07 1150.6 771.76 1154.12 767.6 1157.84 763.28 1161.36 758.94 1164.86 755.06 1168.87 751.09 1172.78 746.75 1176.3 743.09 1180.51 738.89 1184.19 735.33 1188.49 731.51 1192.53 727.87 1196.75 724.36 1201.07 720.67 1205.25 716.89 1209.38 714.13 1214.27 710.81 1218.74 707.54 1223.25 704.6 1227.99 701.14 1232.39 698.6 1237.37 696.04 1242.33 692.56 1246.77 690.01 1251.73 688.05 1257 684.98 1261.68 682.84 1266.84 680.09 1271.71 678.16 1276.96 675.76 1281.99 673.73 1287.18 671.23 1292.19 668.9 1297.26 667.45 1302.69 665.41 1307.39 665.41 1302.31 666.26 1296.83 667.7 1291.46 668.55 1286.01 669.92 1280.65 670.31 1275.06 671.89 1269.75 674.07 1264.62 674.92 1259.11 676.61 1253.84 678.9 1248.78 680.9 1243.63 682.48 1238.33 684.12 1233.04 686.2 1227.92 688.07 1222.71 690.1 1217.56 692.53 1212.58 694.96 1207.6 696.41 1202.21 699.04 1197.32 701.11 1192.19 703.43 1187.17 705.85 1182.19 707.33 1176.8 710.04 1171.95 712.05 1166.79 714.3 1161.73 717.05 1156.9 718.78 1151.62 720.99 1146.55 723.42 1141.58 725.83 1136.6 728.07 1131.54 730.55 1126.6 733 1121.63 734.49 1116.24 737.54 1111.54 739.31 1106.27 741.2 1101.06 743.7 1096.11 745.59 1090.9 748.47 1086.11 749.87 1080.7 752.17 1075.66 754.23 1070.53 756.27 1065.38 758.31 1060.24 760.66 1055.21 762.12 1049.85 763.93 1044.62 766.57 1039.69 768.44 1034.48 770.34 1029.28 771.31 1023.76 773.48 1018.65 774.81 1013.27 776.41 1007.98 778.24 1002.75 779.82 997.38 780.9 991.86 783.24 986.7 784.23 981.16 785.76 975.77 787.71 970.5 788.65 964.95 790.56 959.67 791.51 954.12 793.48 948.85 794.6 943.35 796.33 938.01 797.51 932.53 799.38 927.23 801.03 921.87 802.24 916.4 803.99 911.06 804.68 905.45 806.02 900.01 807.4 894.59 809.31 889.29 810.35 883.78 811.47 878.29 812.91 872.87 813.4 867.26 814.64 861.8 815.8 856.31 816.2 850.71 816.95 845.15 816.9 839.53 816.57 833.95 815.86 828.4 814.38 823 811.84 818.04 809.07 813.21 806.06 808.46 801.95 804.62 798.01 800.65 794.23 796.53 790.75 792.12 786.55 788.38 783.15 784.44 784.37 789.37 784.54 794.95 785.6 800.37 786.03 805.88 786.58 811.37 786.97 816.87 787.65 822.37 787.83 827.9 788.01 833.43 787.64 838.96 787.35 844.49 787.15 850.02 785.8 855.44 785.87 861.02 784.99 866.48 783.32 871.8 782.32 877.23 781.7 882.76 779.82 887.99 778.19 893.27 776.35 898.48 774.66 903.74 772.79 908.95 770.77 914.11 768.29 919.07 765.35 923.78 762.74 928.64 760.08 933.49 757.27 938.26 753.84 942.61 750.38 946.92 747.49 951.67 743.65 955.67 740.14 959.94 736.66 964.27 732.75 968.19 728.46 971.72 724.63 975.73 720.4 979.32 716.15 982.88 711.27 985.6 706.72 988.73 702.33 992.1 697.85 995.36 692.93 998.06 688.44 1001.4 684.17 1005.02 680.39 1009.16 676.1 1012.74 672.02 1016.57 668.22 1020.67 664.89 1025.18 661.69 1029.75 658.48 1034.3 654.79 1038.54 652.31 1043.58 649.04 1048.13 646.23 1052.97 643.69 1057.94 641.83 1063.24 639.28 1068.21 637.46 1073.49 635.37 1078.66 633.47 1083.91 631.27 1089.08 629.73 1094.46 628.9 1100.01 627.86 1105.5 626.63 1110.95 625.51 1116.43 624.93 1121.99 624.96 1127.6 624.27 1133.15 624.11 1138.72 623.64 1144.29 623.13 1149.86 623.74 1155.45 623.38 1161.03 623.31 1166.61 623.39 1172.19 624.12 1177.75 624.05 1183.34 624.1 1188.93 625.11 1194.46 625.65 1200.01 625.66 1205.61 626.33 1211.16 627.33 1216.66 627.7 1222.24 628.4 1227.77 628.81 1233.35 629.26 1238.92 630.39 1244.4 631.6 1249.86 632.05 1255.44 632.41 1261.04 633.5 1266.52 634.86 1271.95 635.31 1277.55 637.01 1282.91 637.97 1288.41 638.69 1293.96 640.28 1299.34 640.98 1304.89 642.31 1310.32 643.17 1315.85 644.86 1321.19 645.78 1326.71 647.14 1332.13 648.43 1337.56 649.49 1343.05 650.8 1348.48 652.17 1353.9 653.52 1359.31 655.59 1364.55 656.42 1370.11 657.91 1375.49 659.26 1380.91 660.93 1386.24 662.36 1391.64 664.41 1396.86 665.85 1402.26 666.78 1407.8 668.55 1413.09 670.3 1418.39 671.98 1423.71 674.24 1428.89 675.25 1434.48 677.44 1439.68 679.02 1445.08 680.66 1450.46 682.83 1455.66 684.68 1460.98 686.59 1466.27 688.01 1471.73 690.27 1476.9 692.08 1482.22 693.05 1487.83 695.6 1492.9 697.01 1497.94 695.44 1492.94 693.45 1487.68 691.26 1482.49 689.64 1477.1 687.61 1471.86 686.18 1466.4 684.01 1461.2 682.61 1455.74 680.24 1450.6 678.67 1445.2 677 1439.83 675.58 1434.38 673.26 1429.2 671.94 1423.72 670.26 1418.49 668.47 1413.29 666.95 1408 665.42 1402.72 663.68 1397.51 661.67 1392.38 660.24 1387.07 658.86 1381.74 656.99 1376.57 654.94 1371.45 654.05 1365.97 651.91 1360.88 650.45 1355.58 648.71 1350.36 646.79 1345.2 645.84 1339.75 643.79 1334.62 642.37 1329.31 640.72 1324.06 639.14 1318.79 637.7 1313.48 636.51 1308.1 635.01 1302.8 633.74 1297.45 631.96 1292.23 630.91 1286.82 629.11 1281.6 627.26 1276.41 626.1 1271.02 624.89 1265.65 623.72 1260.28 622.41 1254.93 620.54 1249.73 619.37 1244.35 618.06 1239 617.14 1233.56 615.41 1228.31 614.71 1222.83 613.07 1217.55 611.87 1212.18 610.77 1206.79 610.45 1201.26 609.21 1195.89 608.62 1190.42 607.34 1185.05 606.86 1179.56 605.92 1174.13 605.77 1168.62 605.92 1163.11 606.13 1157.64 606.58 1152.2 607.15 1146.74 606.82 1141.28 603.78 1136.6 601.12 1131.64 597.34 1127.49 593.65 1123.28 589.64 1119.37 585.25 1115.88 580.98 1112.27 576.92 1108.43 572.91 1104.52 568.31 1101.3 564.08 1097.64 559.77 1094.07 555.19 1090.85 551.19 1086.88 546.84 1083.34 542.32 1080.04 537.45 1077.21 532.97 1073.86 528.83 1070.03 523.97 1067.2 519.47 1063.88 514.88 1060.68 510.42 1057.3 505.99 1053.87 501.41 1050.71 497.21 1047.18 492.38 1044.37 488.19 1040.8 484.32 1036.81 479.46 1034.09 475.28 1030.47 470.74 1027.35 465.86 1024.77 461.32 1021.65 456.53 1018.94 451.5 1016.73 446.32 1014.95 441.09 1013.02 435.65 1014.05 430.41 1015.62 427.11 1020.35 428.96 1025.69 431.33 1030.69 432.88 1035.97 434.34 1041.29 436.3 1046.43 438.23 1051.58 440 1056.79 442.1 1061.88 444.35 1066.9 446.51 1071.96 448.52 1077.08 451.13 1081.95 452.37 1087.39 454.74 1092.36 457.36 1097.22 459.19 1102.42 461.61 1107.36 463.86 1112.38 465.98 1117.46 467.79 1122.67 470.34 1127.56 472.96 1132.41 474.91 1137.57 477.31 1142.52 479.42 1147.6 481.97 1152.49 483.62 1157.78 486.08 1162.7 488.9 1167.46 491.01 1172.54 493.1 1177.63 495.13 1182.74 497.38 1187.77 499.71 1192.75 501.49 1197.97 503.91 1202.92 505.66 1208.15 508.01 1213.13 510.62 1218.01 512.33 1223.25 514.7 1228.23 516.25 1233.52 518.36 1238.6 520.07 1243.83 521.71 1249.08 523.44 1254.3 524.88 1259.61 526.56 1264.85 528.7 1269.95 529.58 1275.41 531.03 1280.71 532.55 1286.01 532.91 1291.54 533.63 1296.98 534.82 1302.37 534.96 1307.47 533.23 1302.57 531.05 1297.43 528.6 1292.41 527.19 1286.96 524.42 1282.08 522.6 1276.78 519.69 1271.98 517.51 1266.85 515.6 1261.57 512.67 1256.81 510.16 1251.82 507.21 1247.09 504.44 1242.25 501.62 1237.45 498.51 1232.83 496.06 1227.78 492.76 1223.29 489.49 1218.77 486.81 1213.83 482.82 1209.85 479.6 1205.3 475.86 1201.16 472.83 1196.43 469.12 1192.27 465.41 1188.11 461.56 1184.08 457.59 1180.16 453.68 1176.19 449.36 1172.65 445.22 1168.92 441.48 1164.76 437 1161.42 432.75 1157.83 428.7 1153.99 424.24 1150.64 420.34 1146.61 415.93 1143.2 410.99 1140.47 407 1136.52 402.6 1133.04 397.76 1130.2 392.88 1127.46 387.95 1124.82 382.96 1122.31 377.75 1120.25 372.67 1117.93 367.8 1115.14 362.82 1112.59 357.46 1110.89 352.51 1108.27 347.45 1105.9 342.47 1103.38 337.44 1100.95 332.57 1098.2 327.34 1096.11 322.7 1092.97 318.16 1089.68 313.51 1086.6 308.94 1083.4 304.03 1080.64 299.57 1077.26 295.58 1073.31 291.45 1069.55 287.33 1065.78 282.91 1062.29 279.61 1057.91 275.51 1054.31 271.74 1050.39 268.4 1046.08 264.55 1042.22 261.47 1037.7 257.98 1033.54 254.16 1029.64 250.84 1025.34 247.42 1021.1 244.15 1016.75 241.28 1012.11 237.74 1007.95 234.87 1003.33 232.27 998.54 229.24 994.03 226.12 989.56 223.45 984.82 220.98 979.97 218.56 975.1 216.56 970.03 213.8 965.32 211.47 960.4 209.53 955.31 207.84 950.13 206.2 944.95 204.52 940.26 202.42 944.95 200 950 196.93 954.71 194.37 959.68 191.44 964.44 188.38 969.11 185 973.57 182.05 978.35 178.37 982.58 175.12 987.17 170.89 990.91 167.13 995.06 163.03 998.63 158.71 1001.97 154.15 1005.03 149.04 1007.04 144.27 1009.75 139.24 1011.91 134.02 1013.6 128.94 1015.63 123.57 1016.82 118.65 1019.4 113.35 1020.8 108.07 1022.25 102.92 1024.12 97.66 1025.63 95.49 1029.89 97.91 1034.77 100.48 1039.47 102.69 1044.4 105.36 1049.08 108.77 1053.28 111.88 1057.67 114.65 1062.3 117.18 1067.08 120.41 1071.4 123.32 1075.94 126.01 1080.61 127.75 1085.72 129.2 1091.12 130.77 1096.49 132.75 1101.75 133.79 1107.27 135.44 1112.61 137.17 1117.93 138.24 1123.43 140.17 1128.71 141.31 1134.19 142.39 1139.7 144.34 1144.97 145.25 1150.51 146.83 1155.88 148.91 1161.11 149.6 1166.72 151.77 1171.93 152.62 1177.5 154.13 1182.89 155.26 1188.38 156.63 1193.81 158.14 1199.2 159.94 1204.52 161.55 1209.89 162.57 1215.41 163.56 1220.93 164.86 1226.39 166.61 1231.73 168.12 1237.12 168.74 1242.73 169.79 1248.23 171.17 1253.65 172.68 1259.05 173.81 1264.54 174.55 1270.08 175.1 1276.16 175.88 1282.21 177 1288.23 177.58 1294.23 179.43 1296.61 182.39 1301.25 186.27 1305.16 189.49 1309.62 193.3 1313.58 197.19 1317.45 200.56 1321.82 204.6 1325.54 208.29 1329.62 212.48 1333.18 216.8 1336.58 220.92 1340.21 225.07 1343.79 229.25 1347.35 233.63 1350.65 237.74 1354.29 242.01 1357.74 246.48 1360.92 250.63 1364.54 254.99 1367.87 259.48 1371.03 263.82 1374.4 268.46 1377.35 272.86 1380.64 277.58 1383.46 282.25 1386.35 286.82 1389.4 291.17 1392.3 294.89 1388.84 297.34 1384.08 299.33 1379.13 299.81 1373.82 300.13 1368.55 300.05 1362.9 299.76 1357.24 299.95 1351.58 300.03 1345.92 299.89 1340.27 299.47 1334.61 299.66 1329.06 298.18 1323.64 298.09 1318.07 297.36 1312.57 297.04 1307.03 296.11 1301.55 295.29 1296.06 294.79 1290.53 294.3 1285.01 294.22 1279.44 293.59 1273.93 293.16 1268.4 291.74 1262.97 291.24 1257.44 291.56 1251.83 290.38 1246.38 290.24 1240.82 289.79 1235.28 289.04 1229.78 288.39 1224.26 287.9 1218.74 287.5 1213.2 287.17 1207.65 286.28 1202.16 286.56 1196.56 286.09 1191.02 284.92 1185.69 284.78 1180.21 283.24 1174.98 281.45 1169.84 279.95 1164.63 278.5 1159.39 276.8 1154.22 274.7 1149.2 272.18 1144.37 269.68 1139.55 267.57 1134.54 264.5 1130.02 262.21 1125.09 259.94 1120.14 256.97 1115.56 260.23 1120.06 264.55 1123.59 267.68 1128.22 271.72 1132.03 275 1136.48 278.26 1140.96 280.55 1146.01 283.65 1150.65 285.55 1155.86 286.87 1161.25 288.87 1166.42 289.81 1171.88 291.57 1177.15 292.41 1182.62 293.02 1188.12 294.12 1193.54 294.34 1199.08 295.67 1204.49 295.8 1210.04 295.98 1215.57 296.9 1221.16 298.15 1226.69 298.5 1232.34 299.06 1237.97 300.69 1243.41 301.71 1248.97 302.66 1254.54 304.21 1259.98 305.67 1265.43 307.04 1270.91 308.14 1276.46 310.28 1281.73 311.32 1287.3 312.49 1292.84 314.58 1298.12 315.59 1303.69 316.89 1309.19 318.92 1314.5 320.24 1319.99 321.07 1325.59 322.28 1331.1 323.08 1336.68 324.05 1342.33 325.31 1347.95 325.96 1353.67 326.08 1359.43 326.85 1365.15 326.62 1370.9 326.42 1376.65 326.02 1382.38 326.43 1388.14 326.08 1393.88 326.8 1399.59 327.29 1405.28 328.93 1409.89 330.42 1414.55 333.12 1418.53 337.79 1421.57 342.65 1424.44 347.37 1427.53 352.46 1430.01 357.27 1432.96 361.91 1436.27 367.63 1436.86 373.26 1437.57 378.93 1438.04 384.59 1438.66 390.29 1438.68 395.94 1439.49 401.62 1439.71 407.26 1440.39 412.88 1441.13 418.39 1442.46 423.19 1445.39 426.96 1449.59 430.43 1453.72 435.27 1456.47 440.53 1458.22 445.86 1459.68 451.26 1460.86 456.58 1462.35 461.9 1463.84 467.26 1465.2 472.74 1465.98 478.19 1466.93 483.61 1467.96 489.07 1468.85 494.57 1469.38 499.98 1470.54 505.41 1471.55 510.87 1472.39 516.39 1472.87 521.82 1473.91 527.3 1474.69 532.83 1474.94 538.34 1475.4 543.76 1476.64 549.25 1477.28 554.79 1477.5 560.3 1477.95 565.75 1478.99 571.26 1479.41 576.77 1479.84 582.24 1480.73 587.77 1481.04 593.28 1481.45 598.77 1482.1 604.3 1482.31 609.83 1482.44 615.13 1483.04 620.39 1484.11 625.71 1484.54 631.09 1484.16 636.39 1484.74 641.66 1485.8 647 1485.97 652.35 1485.88 657.63 1486.7 662.93 1487.33 668.27 1487.35 673.59 1487.71 679.28 1487.86 674 1490.76 668.51 1491.69 662.98 1492.43 657.42 1493.14 651.83 1492.52 646.24 1492.7 640.68 1492.18 635.07 1492.46 629.51 1491.92 623.92 1491.89 618.41 1490.77 612.85 1490.35 607.27 1490.06 601.71 1489.55 596.12 1489.34 590.64 1488.06 585.05 1487.85 579.49 1487.3 573.95 1486.58 568.43 1485.78 562.88 1485.12 557.41 1483.89 551.82 1483.6 546.28 1482.94 540.78 1481.94 535.21 1481.44 529.71 1480.47 524.17 1479.75 518.6 1479.18 513.06 1478.47 507.47 1478.09 501.93 1477.36 496.47 1476.06 490.91 1475.5 485.42 1474.42 479.79 1474.39 474.35 1472.98 468.85 1471.96 463.3 1471.32 457.69 1471.18 452.2 1470.05 446.66 1469.35 441.07 1469.09 435.51 1468.51 429.97 1467.84 424.41 1467.34 418.93 1466.09 413.74 1465.99 418.26 1468.45 422.67 1471.86 427.41 1474.71 432.41 1477.11 436.93 1480.32 441.78 1482.99 446.84 1485.31 451.11 1488.92 456.19 1491.21 460.77 1494.32 465.57 1497.08 469.94 1500.51 474.74 1503.27 479.2 1506.54 483.9 1509.46 488.49 1512.54 493.36 1515.21 498.05 1518.15 502.22 1521.82 506.69 1525.08 511.18 1528.3 515.96 1531.13 519.99 1534.96 524.25 1538.48 529.04 1541.35 532.67 1545.63 537.4 1548.6 541.11 1552.75 545.48 1556.17 549.15 1560.32 553.07 1564.21 557.21 1567.91 560.39 1572.48 563.98 1576.67 567.55 1580.89 570.6 1585.49 573.4 1590.25 576.78 1594.66 579.22 1599.62 581.35 1604.72 583.8 1609.68 585.79 1614.87 586.62 1620.37 587.47 1625.81 588.41 1631.26 589 1636.78 588.57 1636.32 594.37 1636.92 600.17 1636.91 605.98 1636.36 611.8 1636.57 611.51 1636.78 612.28 1631.22 612.22 1625.58 613.58 1620.13 614.96 1614.7 617 1609.49 618.78 1604.18 621.25 1599.16 623.99 1594.29 626.61 1589.33 629.7 1584.66 632.95 1580.1 636.55 1575.81 639.93 1571.33 644 1567.47 647.85 1563.42 651.96 1559.62 655.54 1555.28 659.59 1551.42 663.95 1547.9 668.48 1544.59 672.46 1540.64 676.8 1537.12 681.5 1534.05 685.83 1530.5 690.22 1527.04 694.65 1523.62 699.17 1520.32 704.13 1517.66 708.41 1514.01 713.26 1511.2 718.04 1508.3 722.67 1505.17 727.48 1502.31 731.78 1498.66 736.9 1496.29 741.35 1492.85 746.03 1489.79 751.03 1487.24 755.61 1484.01 760.65 1481.53 765.24 1478.31 770.12 1475.57 774.87 1472.69 779.28 1468.35 782.91 1463.29 787.03 1458.64 789.56 1452.99 787.38 1447.84 785.45 1442.58 783.67 1437.26 781.11 1432.25 779.09 1427.02 777.15 1421.77 774.91 1416.63 772.89 1411.4 770.52 1406.32 768.58 1401.07 766.53 1395.85 764.59 1390.59 762.74 1385.3 760.33 1380.23 758.37 1374.97 755.64 1370.04 753.79 1364.74 751.78 1359.5 749.01 1354.7 746.13 1350.01 743.15 1345.37 739.64 1341.11 736.58 1336.46 732.6 1332.61 728.75 1328.64 724.78 1324.82 720.71 1321.17 725.63 1323.92 730.29 1327.06 735.08 1329.98 739.36 1333.62 742.9 1337.97 747.04 1341.87 749.54 1346.97 752.85 1351.54 755.21 1356.65 757.89 1361.59 760.01 1366.81 762.01 1372.07 764.58 1376.83 766.81 1381.75 769.2 1386.59 772.26 1391.06 775.07 1395.66 778.16 1400.09 780.66 1404.89 783.93 1409.21 786.86 1413.74 789.41 1418.52 792.01 1423.26 795 1427.74 798.04 1432.21 800.83 1436.83 804.33 1441.01 809.71 1442.4 815.2 1442.25 820.65 1441.85 826.09 1441.15 831.45 1439.99 836.17 1437.08 841 1434.32 845.71 1431.35 850.74 1428.94 855.66 1426.32 860.28 1423.2 865.02 1420.29 870.03 1417.83 874.75 1414.88 879.18 1411.46 883.96 1408.62 888.88 1406 893.52 1402.93 898.06 1399.7 902.75 1396.71 907.24 1393.41 912.41 1391.15 916.63 1387.44 921.22 1384.3 926.09 1381.58 930.75 1378.52 935.2 1375.18 939.94 1372.25 944.25 1368.71 948.45 1365.03 953.11 1361.98 957.81 1358.96 961.96 1355.24 966.15 1351.56 970.55 1348.16 974.86 1344.65 979.32 1341.29 983.06 1337.12 987.32 1333.53 991.29 1329.64 995.5 1326 999.48 1322.11 1003.34 1318.1 1007.18 1314.07 1010.58 1309.65 1014.22 1305.46 1017.63 1301.07 1021.56 1297.08 1024.35 1292.31 1027.86 1288.08 1030.92 1283.53 1034.45 1279.3 1037.48 1274.72 1040.24 1269.96 1043.6 1265.61 1046.59 1261.01 1049.48 1256.34 1052.72 1251.89 1055.63 1247.23 1057.96 1242.22 1060.67 1237.45 1063.91 1232.99 1066.47 1228.13 1069.3 1223.42 1071.91 1218.59 1075.29 1214.19 1077.92 1209.37 1080 1204.24 1082.43 1199.32 1085.86 1194.92 1087.73 1189.7 1090.73 1185.07 1093.3 1180.21 1095.56 1175.19 1097.78 1170.17 1100.33 1165.3 1102.8 1160.4 1105.21 1155.46 1107.76 1150.59 1110.48 1145.8 1112.43 1140.65 1114.75 1135.67 1117.23 1130.77 1119.34 1125.7 1121.4 1120.6 1123.58 1115.56 1126.37 1110.78 1127.66 1105.36 1130.64 1100.65 1132.64 1095.53 1134.48 1090.35 1136.66 1085.3 1138.94 1080.29 1140.26 1074.91 1142.33 1069.82 1144.15 1064.64 1146.51 1059.66 1148.52 1054.54 1150.58 1049.44 1152.6 1044.33 1153.88 1038.95 1155.69 1033.76 1158.16 1028.8 1159.95 1023.6 1161.13 1018.2 1162.66 1012.96 1163.2 1008.33 1162.32 1003.71 1160.98 999.25"/>
    </g>
  </g>
</svg>