<?xml version="1.0" encoding="UTF-8" standalone="no"?>
<svg
   viewBox="0 0 1032.1465 418.91116"
   version="1.1"
   id="svg1"
   sodipodi:docname="foil.svg"
   width="1032.1465"
   height="418.91116"
   inkscape:version="1.4 (86a8ad7, 2024-10-11)"
   xmlns:inkscape="http://www.inkscape.org/namespaces/inkscape"
   xmlns:sodipodi="http://sodipodi.sourceforge.net/DTD/sodipodi-0.dtd"
   xmlns="http://www.w3.org/2000/svg"
   xmlns:svg="http://www.w3.org/2000/svg">
  <defs
     id="defs1" />
  <sodipodi:namedview
     id="namedview1"
     pagecolor="#505050"
     bordercolor="#eeeeee"
     borderopacity="1"
     inkscape:showpageshadow="0"
     inkscape:pageopacity="0"
     inkscape:pagecheckerboard="0"
     inkscape:deskcolor="#d1d1d1"
     inkscape:zoom="0.80585314"
     inkscape:cx="578.8896"
     inkscape:cy="303.40516"
     inkscape:window-width="2560"
     inkscape:window-height="1369"
     inkscape:window-x="1912"
     inkscape:window-y="-8"
     inkscape:window-maximized="1"
     inkscape:current-layer="svg1" />
  <path
     d="m 283.22342,121.42687 c 0,0 124.892,-65.304002 281.136,-65.304002 210.033,0 425.863,116.408002 462.78798,312.323002 0,0 -110.77498,-283.943002 -451.49898,-283.943002 -153.271,0 -241.3,65.304002 -241.3,65.304002 l 124.892,2.889 -167.472,39.67 102.229,107.885 -130.609,-73.788 31.208,147.637 -68.134,-124.892 -90.856,164.707 53.932,-184.542 -184.5419997,42.498 173.1689997,-85.139 -110.691,-96.596002 133.436,56.842002 -17.007,-113.601002 53.932,107.947002 73.767,-136.3270018 -28.38,116.4290018 z"
     id="path1"
     style="fill:#ffffff;fill-opacity:1;stroke:#ffffff;stroke-width:10;stroke-linejoin:round;stroke-dasharray:none;stroke-opacity:1" />
</svg>
