<svg xmlns="http://www.w3.org/2000/svg" width="600" height="470.41" xmlns:v="https://vecta.io/nano" fill="#333"><path d="M219.06 468.583c-82.1-7.902-162.795-28.983-196.566-51.352-35.43-23.47-29.968-47.962 23.264-104.284 47.797-50.572 69.786-92.95 100.818-194.298 20.38-66.56 39.187-108.4 51.9-115.47 19.634-10.914 33.197 4.883 59.186 68.934 27.624 68.08 51.284 109.37 80.49 140.463 8.817 9.386 17.4 15.774 21.172 15.774 7.472 0 18.422-13.086 38.063-45.49 15.9-26.232 28.052-34.478 46.56-31.593 17.14 2.67 30.08 19.694 45.29 59.576 7.138 18.717 17.377 42.82 22.754 53.56 10.088 20.15 35.724 57.038 39.718 57.15 4.604.13 39.132 34.82 43.896 44.105 14.445 28.15-6.89 53.008-61.484 71.642-65.618 22.396-124.916 31.36-217.512 32.883-38.008.625-81.905-.096-97.55-1.6z"/></svg>