<svg version="1.1" id="Calque_1" xmlns="http://www.w3.org/2000/svg" xmlns:xlink="http://www.w3.org/1999/xlink" x="0px" y="0px" viewBox="232.96875 343.73046875 125.3359375 153.296875" style="enable-background:new 0 0 595.28 841.89;" xml:space="preserve"><style type="text/css">	.st0{fill:#FFFFFF;}	.st1{fill:#FFFFFF;stroke:#FFFFFF;stroke-width:0;stroke-miterlimit:10;}	.st2{fill:#ffde38;stroke:#ffde38;stroke-width:0;stroke-miterlimit:10;}	.st3{fill:#FFFFFF;stroke:#FFFFFF;stroke-width:0;stroke-miterlimit:10;}</style><path class="st0" d="M356.74,491.18c7.28-14.06-13.17-40.51-13.17-40.51s-2.2-2.56-5.5-3.07c-3.29-0.51-32.76,12.28-32.76,12.28	l-11.61,29.17c0,0-1.83,4.78,1.42,6.99c3.25,2.22,59.2,0,59.2,0L356.74,491.18z"></path><path class="st1" d="M281.9,437.6c0-18.15,14.72-32.86,32.87-32.86c18.16,0,32.87,14.71,32.87,32.86	c0,18.16-14.71,32.87-32.87,32.87C296.62,470.47,281.9,455.76,281.9,437.6z"></path><g>	<path class="st2" d="M317.45,383.51l-44.76,28.53c-0.95,0.6-1.23,1.87-0.62,2.82l2.19,3.44c0.6,0.95,1.87,1.23,2.82,0.62		l44.76-28.53c0.95-0.6,1.23-1.87,0.62-2.82l-2.19-3.44C319.66,383.19,318.4,382.91,317.45,383.51z M302.39,344.69		c-2.85,1.82-3.69,5.6-1.87,8.46c0.49,0.76,1.11,1.36,1.83,1.83l-4.81,9.63c-1.03,2.05-3.52,2.85-5.55,1.78l-18.55-9.76		c0.55-1.68,0.4-3.58-0.63-5.19c-1.82-2.85-5.6-3.69-8.46-1.87c-2.85,1.82-3.69,5.6-1.87,8.46c1.03,1.61,2.69,2.55,4.44,2.77		l1.01,20.93c0.11,2.29-1.68,4.22-3.96,4.28l-10.76,0.29c-0.12-0.83-0.4-1.67-0.88-2.43c-1.82-2.85-5.6-3.69-8.46-1.87		s-3.7,5.61-1.88,8.46c1.82,2.85,5.6,3.69,8.46,1.87c0.28-0.18,0.53-0.4,0.77-0.61l21,15.79l41.32-26.33l-5.44-25.7		c0.3-0.13,0.6-0.26,0.88-0.44c2.85-1.82,3.69-5.6,1.87-8.46C309.03,343.71,305.24,342.87,302.39,344.69z"></path></g><g>	<path class="st3" d="M282.44,419.42c-1.7-1.76-4.57-1.73-6.3,0l-6.73,6.73l-0.62-0.62l13.61-13.61c1.73-1.73,1.76-4.6,0-6.3		c-1.71-1.65-4.43-1.63-6.12,0.06l-13.67,13.67l-0.62-0.62l16.62-16.62c1.73-1.73,1.76-4.6,0-6.3c-1.71-1.65-4.43-1.63-6.12,0.06		l-16.68,16.68l-0.62-0.62l13.53-13.53c1.73-1.73,1.76-4.6,0-6.3c-1.71-1.65-4.43-1.63-6.12,0.06l-18.22,18.22l0.92-5.8		c0.38-2.38-1.25-4.62-3.63-5c-2.38-0.38-4.62,1.25-5,3.63l-3.64,23.03c-0.26,1.66,0.29,3.34,1.47,4.52l15.26,15.26		c1.72,1.72,4.4,2.03,6.47,0.75l10.75-6.65c1.37-0.85,2.65-1.86,3.79-3l11.61-11.61C284.07,423.85,284.09,421.13,282.44,419.42z"></path></g></svg>