<?xml version="1.0" encoding="UTF-8" standalone="no"?>
<!-- Created with Inkscape (http://www.inkscape.org/) -->

<svg
   xmlns:dc="http://purl.org/dc/elements/1.1/"
   xmlns:cc="http://creativecommons.org/ns#"
   xmlns:rdf="http://www.w3.org/1999/02/22-rdf-syntax-ns#"
   xmlns:svg="http://www.w3.org/2000/svg"
   xmlns="http://www.w3.org/2000/svg"
   xmlns:xlink="http://www.w3.org/1999/xlink"
   xmlns:sodipodi="http://sodipodi.sourceforge.net/DTD/sodipodi-0.dtd"
   xmlns:inkscape="http://www.inkscape.org/namespaces/inkscape"
   width="135.46841mm"
   height="118.53333mm"
   viewBox="0 0 135.46841 118.53333"
   version="1.1"
   id="svg8"
   inkscape:version="0.92.2 (5c3e80d, 2017-08-06)"
   sodipodi:docname="sort-type.svg">
  <defs
     id="defs2">
    <linearGradient
       inkscape:collect="always"
       id="linearGradient1531">
      <stop
         style="stop-color:#309f13;stop-opacity:1"
         offset="0"
         id="stop1527" />
      <stop
         style="stop-color:#3d5b19;stop-opacity:1"
         offset="1"
         id="stop1529" />
    </linearGradient>
    <linearGradient
       inkscape:collect="always"
       id="linearGradient1511">
      <stop
         style="stop-color:#e93404;stop-opacity:1"
         offset="0"
         id="stop1507" />
      <stop
         style="stop-color:#721b0f;stop-opacity:1"
         offset="1"
         id="stop1509" />
    </linearGradient>
    <radialGradient
       inkscape:collect="always"
       xlink:href="#linearGradient1511"
       id="radialGradient1517"
       cx="792.37701"
       cy="599.8421"
       fx="792.37701"
       fy="599.8421"
       r="112.36103"
       gradientTransform="matrix(1.2943687,0,0,1.1508689,-217.05066,-61.927577)"
       gradientUnits="userSpaceOnUse" />
    <radialGradient
       inkscape:collect="always"
       xlink:href="#linearGradient1531"
       id="radialGradient1533"
       cx="409.58005"
       cy="308.30093"
       fx="409.58005"
       fy="308.30093"
       r="300"
       gradientTransform="matrix(2.330696,-0.04908887,0.03293712,1.5638265,-207.29654,-426.46963)"
       gradientUnits="userSpaceOnUse" />
    <radialGradient
       inkscape:collect="always"
       xlink:href="#linearGradient1511"
       id="radialGradient1537"
       gradientUnits="userSpaceOnUse"
       gradientTransform="matrix(1.2943687,0,0,1.1508689,-217.05066,-61.927577)"
       cx="792.37701"
       cy="599.8421"
       fx="792.37701"
       fy="599.8421"
       r="112.36103" />
  </defs>
  <sodipodi:namedview
     id="base"
     pagecolor="#ffffff"
     bordercolor="#666666"
     borderopacity="1.0"
     inkscape:pageopacity="0.0"
     inkscape:pageshadow="2"
     inkscape:zoom="0.98994949"
     inkscape:cx="27.133631"
     inkscape:cy="197.13645"
     inkscape:document-units="mm"
     inkscape:current-layer="layer1-4"
     showgrid="false"
     inkscape:window-width="1920"
     inkscape:window-height="1057"
     inkscape:window-x="-8"
     inkscape:window-y="-8"
     inkscape:window-maximized="1"
     fit-margin-top="0"
     fit-margin-left="0"
     fit-margin-right="0"
     fit-margin-bottom="0"
     inkscape:pagecheckerboard="true" />
  <metadata
     id="metadata5">
    <rdf:RDF>
      <cc:Work
         rdf:about="">
        <dc:format>image/svg+xml</dc:format>
        <dc:type
           rdf:resource="http://purl.org/dc/dcmitype/StillImage" />
        <dc:title></dc:title>
      </cc:Work>
    </rdf:RDF>
  </metadata>
  <g
     inkscape:label="Layer 1"
     inkscape:groupmode="layer"
     id="layer1"
     transform="translate(-5.5931766,-6.4119045)">
    <path
       sodipodi:nodetypes="scsssscsccccs"
       id="path4526"
       d="M 9.8282491,40.278572 H 22.528248 v 80.433338 c 2e-6,2.338 1.89533,4.23333 4.233334,4.23333 h 8.466666 c 2.338004,0 4.233332,-1.89533 4.233334,-4.23333 V 40.278572 h 12.699997 c 3.75973,0 5.65679,-4.561416 2.99244,-7.225771 L 33.987352,7.6528005 c -1.652995,-1.6519117 -4.33188,-1.6519117 -5.984875,0 L 6.8358111,33.052801 c -2.656417,2.659063 -0.7725831,7.225771 2.992438,7.225771 z"
       inkscape:connector-curvature="0"
       style="fill:#ffffff;fill-opacity:1;stroke-width:0.26458332"
       inkscape:label="Arrow" />
    <g
       id="layer1-4"
       transform="matrix(0.26458333,0,0,0.26458333,-111.7826,-124.62145)">
      <path
         style="fill:url(#radialGradient1537);fill-opacity:1;stroke-width:0.48478866"
         d="m 879.30664,495.79883 c -20.5388,2.11575 -39.66584,11.04616 -58.41961,19.14828 -21.9322,10.19389 -42.89271,22.62693 -65.85969,30.45133 -22.78061,10.59641 -39.52008,30.2759 -56.56514,48.08378 -13.13663,15.59148 -29.24371,29.9617 -36.28447,49.6213 -2.33596,7.2477 -4.98303,18.20283 2.80274,23.08398 7.92551,6.10158 18.9241,7.95807 25.27148,15.95703 6.32459,12.36751 1.77215,26.13931 0.54688,39.0918 -0.86584,8.20158 5.75049,18.7049 14.96679,16.40625 8.86818,-2.86823 13.47969,-12.12154 19.96237,-18.16175 12.57922,-14.66723 25.02796,-29.35682 40.30717,-41.17224 27.5796,-23.5666 53.51609,-48.93592 80.03051,-73.66227 28.25501,-26.36089 63.40335,-42.8207 97.09487,-61.03083 3.54908,-2.54032 11.97669,-5.19155 9.51719,-11.02955 -5.08337,-4.48545 -12.85563,-0.78888 -18.69665,-0.0151 -26.21632,7.65507 -51.17777,19.10378 -76.14988,30.04541 -36.01251,16.98107 -67.80392,41.64413 -97.94463,67.37432 -12.88102,10.84884 -24.28285,23.67364 -37.77719,33.64808 0.3669,-6.6272 -4.21454,-11.91437 -5.70118,-17.98828 1.32091,-11.43833 10.63207,-19.80316 16.71485,-28.97851 15.49827,-21.21102 35.49709,-38.54972 56.62373,-53.9588 20.77299,-15.4923 39.62334,-34.77087 63.99405,-44.34459 10.81837,-5.48221 23.16826,-8.71109 32.73769,-16.33919 2.53905,-4.5088 -3.69232,-6.76477 -7.17188,-6.23047 z m 70.83789,111.76953 c -16.83738,2.68022 -32.27373,10.79871 -47.72729,17.63979 -27.41374,13.36797 -53.53256,29.26269 -79.42844,45.32685 -18.02001,12.58794 -35.48903,25.88826 -53.47434,38.51837 -10.23242,7.3906 -17.27561,19.9214 -16.50665,32.67905 1.81581,7.90851 8.74574,15.0573 16.79102,16.61328 10.79125,0.4447 17.7853,-9.94693 24.22265,-17.0664 20.09505,-25.1622 41.47558,-50.14664 68.55567,-67.94293 25.24037,-18.01985 51.17678,-35.11829 78.39355,-50.00434 4.74535,-3.70807 12.10516,-6.42797 13.73242,-12.75391 -0.044,-2.33088 -2.5834,-3.19768 -4.55859,-3.00976 z"
         id="path7130"
         inkscape:connector-curvature="0" />
      <g
         id="layer1-3"
         transform="matrix(0.17051031,0,0,0.17051031,620.92536,844.12034)">
        <path
           style="fill:url(#radialGradient1533);fill-opacity:1;stroke-width:2.15961528"
           id="path7169"
           inkscape:connector-curvature="0"
           d="M 582.66387,539.56118 C 405.35834,522.4966 231.08828,476.96973 158.15624,428.66142 81.637909,377.9778 93.437802,325.08207 208.39699,203.4473 311.61973,94.230223 359.10787,2.7108504 426.12501,-216.16152 c 44.01341,-143.74388 84.62933,-234.105 112.08724,-249.36827 42.40268,-23.57022 71.69329,10.54438 127.81903,148.87072 59.65645,147.02803 110.75262,236.194567 173.82969,303.345662 19.04122,20.2707313 37.55623,34.065424 45.72247,34.065424 16.1372,0 39.78438,-28.2606157 82.20058,-98.237697 34.33908,-56.651949 60.58138,-74.458689 100.55208,-68.229539 37.014,5.76811 64.9614,42.532 97.8069,128.660538 15.4151,40.421776 37.5285,92.473836 49.141,115.670673 21.7852,43.517819 77.1493,123.179939 85.7758,123.421489 9.9433,0.2779 84.5096,75.1994 94.7982,95.24888 31.1956,60.79262 -14.8774,114.47752 -132.7816,154.71865 -141.7096,48.36603 -269.77048,67.72611 -469.74201,71.01421 -82.08159,1.34994 -176.88334,-0.20667 -210.67052,-3.45804 z" />
      </g>
      <g
         id="layer1-2"
         transform="matrix(0.21347976,0,0,0.21347976,608.72853,718.50729)" />
    </g>
  </g>
</svg>
