<?xml version="1.0" encoding="UTF-8" standalone="no"?>
<svg
   viewBox="0 0 392.99989 408.99814"
   version="1.1"
   id="svg16"
   sodipodi:docname="tap-icon.svg"
   width="392.99988"
   height="408.99814"
   inkscape:version="1.2.1 (9c6d41e410, 2022-07-14)"
   xmlns:inkscape="http://www.inkscape.org/namespaces/inkscape"
   xmlns:sodipodi="http://sodipodi.sourceforge.net/DTD/sodipodi-0.dtd"
   xmlns="http://www.w3.org/2000/svg"
   xmlns:svg="http://www.w3.org/2000/svg">
  <defs
     id="defs20" />
  <sodipodi:namedview
     id="namedview18"
     pagecolor="#505050"
     bordercolor="#eeeeee"
     borderopacity="1"
     inkscape:showpageshadow="0"
     inkscape:pageopacity="0"
     inkscape:pagecheckerboard="0"
     inkscape:deskcolor="#505050"
     showgrid="false"
     inkscape:zoom="2"
     inkscape:cx="288.25"
     inkscape:cy="203.5"
     inkscape:window-width="2560"
     inkscape:window-height="1369"
     inkscape:window-x="1912"
     inkscape:window-y="-8"
     inkscape:window-maximized="1"
     inkscape:current-layer="svg16" />
  <path
     d="m 169.4,208.39851 79.1,-56.3 c -29.4,-23.3 -63.4,-35 -101.9,-35 -19.3,0 -32.5,3.7 -39.5,11 -7.1,7.4 -10.7,20.7 -10.7,39.9 0,53.2 27.4,110 82.2,170.4 l -62.3,63.1 c -72.5,-88.2 -108.8,-167.1 -108.8,-236.5 0,-41.6 12.5,-74.699998 37.6,-99.299998 25.1,-24.6 58.5,-36.9 100,-36.9 50.7,0 106,19.3 165.9,57.8 L 357.4,7.4985117 385.5,208.34851 Z"
     fill="#130c0e"
     id="path14"
     style="fill:#ffffff;fill-opacity:1;stroke:#000000;stroke-width:15;stroke-linejoin:round;stroke-dasharray:none;stroke-opacity:1"
     sodipodi:nodetypes="ccscsccssscccc" />
</svg>
