<svg xmlns="http://www.w3.org/2000/svg" viewBox="0 0 1024 1024"><path d="M731.47 82.802c0 .002 54.08 5.702 54.08 61.682l200.616 56s50.114 19.238 34.63 84.86L854.924 904.602s-34.746 46.358-75.24 34.722l-267.598-73.598-267.714 73.598c-40.496 11.636-75.242-34.722-75.242-34.722L3.166 285.344c-15.39-65.622 34.84-84.86 34.84-84.86l200.592-56c0-55.98 53.986-61.68 53.986-61.682H731.47zm-1.734 23.11H294.32c-2.464.446-10.158 2.182-17.504 7.038-10.252 6.876-15.108 16.87-15.108 31.534v17.594S48.8 221.46 45.702 222.304c-5.514 2.556-22.29 12.644-22.29 39.298 0 5.418.752 11.472 2.394 18.252.282 1.196 161.742 604.124 164.416 613.838 7.062 8.07 28.13 28.95 47.838 23.366l274.026-75.426 274.002 75.426c19.71 5.584 40.706-15.296 47.744-23.366 2.676-9.714 164.228-612.642 164.51-613.838 1.572-6.78 2.3-12.834 2.3-18.252 0-26.654-16.682-36.742-22.266-39.298-3.12-.844-216.03-60.226-216.03-60.226v-17.594c0-14.664-4.856-24.658-15.014-31.534-7.344-4.856-15.132-6.592-17.596-7.038zM257.11 193.986v595.492s5.044 38.686 36.014 38.686h167.184l-223.82 61.68s-12.81 6.406-19.332-7.696L52.646 271.15s-6.498-19.262 8.892-24.376l195.572-52.788zm509.928-1.29l195.48 52.788c15.39 5.138 8.986 24.376 8.986 24.376L806.806 880.858c-6.312 14.102-19.238 7.696-19.238 7.696L563.77 826.782h167.254c30.878 0 36.016-38.572 36.014-38.572V192.696zm-39.226-57.832c8.984 0 10.346 11.542 10.346 11.542V786.92c0 10.276-10.346 12.926-10.346 12.926H296.994c-9.078 0-9.078-12.926-9.078-12.926l-.002-640.514c.002-7.694 9.08-11.542 9.08-11.542h430.818zM573.34 207.03q-72.184 0-127.594 42.87-55.41 42.872-55.41 101.838 0 28.13 16.098 53.716t49.648 47.276q-68.796 25.078-100.652 61.17-31.856 36.094-31.856 85.912 0 48.462 38.294 80.318 38.296 31.856 106.076 31.856 85.062 0 144.2-46.09t59.138-110.48q0-32.196-19.996-59.138-19.994-26.942-64.39-48.292 55.918-23.724 84.724-59.816t28.806-77.776q0-44.396-34.398-73.88T573.34 207.03zm-95.568 257.562q30.162 12.878 54.222 25.078 24.062 12.2 39.99 25.078t23.724 27.45q7.794 14.574 7.794 33.212 0 45.752-33.89 78.456-33.89 32.702-89.13 32.702-41.684 0-65.576-24.908-23.892-24.91-23.892-64.222 0-42.7 22.028-77.268 22.028-34.566 64.73-55.578zm85.74-232.484q35.246 0 53.546 21.012t18.3 53.206q0 38.636-18.47 74.896-18.47 36.262-51.342 54.564-55.918-22.706-82.182-45.412-26.266-22.706-26.266-57.274 0-43.38 31.01-72.186 31.008-28.806 75.404-28.806z"/></svg>