<svg xmlns="http://www.w3.org/2000/svg" viewBox="0 0 704 1024"><path d="M680.381 421.522c-22.456-115.152-72.008-196.535-72.008-196.535l-152.136 433.12s11.117 3.265 26.161 10.554L680.38 421.522zm8.221 173.708c1.545-20.811 2.405-42.851 2.405-66.067 0-23.388-1.62-46.189-4.32-68.055L508.095 684.564c13.228 9.597 30.112 23.487 40.175 38.924L688.602 595.23zM343.885 839.965c-56.178 0-73.627 50.826-73.627 50.826-79.295-43.047-144.577-116.966-144.577-116.966.66-9.67 2.674-18.604 5.472-26.752L7.29 643.26c13.032 100.844 39.021 160.285 39.021 160.285s109.09 79.369 221.542 102.487c0 0-6.724 92.599 72.668 92.599h9.965c79.295 0 72.668-92.5 72.668-92.5 112.452-23.217 221.542-102.489 221.542-102.489s25.989-59.44 39.021-160.382L559.854 747.073c2.797 8.247 4.809 17.179 5.473 26.752 0 0-65.283 74.018-144.676 116.966 0 0-17.352-50.826-73.528-50.826h-3.239zM208.608 668.661c15.044-7.388 26.161-10.554 26.161-10.554L82.633 224.987s-49.551 81.382-72.006 196.535l197.98 247.139zm-65.871 54.827c10.063-15.51 26.947-29.327 40.175-38.924L4.417 461.108C1.62 482.974 0 505.775 0 529.163c0 23.216.86 45.256 2.405 66.067l140.332 128.258zm-50.14-604.252H598.41L409.926 687.829H281.081L92.597 119.236z"/></svg>