<svg xmlns="http://www.w3.org/2000/svg" viewBox="0 0 1024 1024"><path d="M949.036 243.19c42.604 79.135 66.982 170.926 66.982 268.81s-24.378 189.676-66.98 268.81H74.962C32.357 701.675 7.982 609.884 7.982 512s24.375-189.676 66.98-268.81h874.074zm-20.034 31.921H94.993l-8.487 18.763C55.583 362.223 39.902 435.611 39.9 512c.002 77.751 16.241 152.34 48.27 221.708l8.561 18.541h830.534l8.562-18.541c32.029-69.364 48.268-143.957 48.268-221.708 0-76.392-15.681-149.78-46.606-218.129l-8.487-18.76zm-20.595 31.922C936.448 369 952.173 438.535 952.173 512c0 74.803-16.323 145.514-45.327 208.328H117.151c-6.704-15.048-13.353-30.174-18.253-45.926 27.843-17.667 63.003-15.695 94.452-12.317v-21.84c-27.721-7.277-26.602-34.72-18.76-58.242 7.887-23.661 20.113-45.657 29.959-68.659 3.413-7.98 1.867-14.438-5.598-17.864-7.096-3.253-13.546-6.82-20.024-9.938-9.189-4.425-17.671 1.152-21.168 8.231-13.831 28-21.284 57.347-32.258 87.784-8.334 22.376-18.72 44.998-36.105 61.911C77.204 601.305 73.118 556.611 71.821 512c0-73.465 15.729-143 43.766-204.967h792.82zm-737.46 37.802c-7.559 7.98-13.44 17.64-15.677 28.279 27.018 3.36 46.901 6.583 37.239 31.642-5.262 13.652-10.94 26.441-16.8 38.921-3.34 7.107-2.594 14.979 5.601 20.442 5.497 3.663 17.362 9.644 23.521 12.041 8.259 3.219 13.356-.131 15.961-6.159 1.908-4.429 6.233-13.054 8.4-17.362 4.065-8.088 11.189-6.351 16.239.84 32.119 45.742 62.49 109.614 81.483 185.926 5.258 21.132 5.041 38.369-1.401 49.004 9.274 6.885 19.657 11.699 31.082 14.56 13.474-25.325 36.867-45.292 68.603-60.761-6.514-25.998-14.868-51.618-25.762-76.725-10.981-35.338-4.337-53.779 6.721-67.76 3.021-3.825 3.091-8.878 0-13.757-5.914-9.33-12.375-16.73-19.038-22.364-4.692-3.968-10.854-4.799-15.961.278-3.011 2.99-5.642 6.371-9.242 8.962-36.403-43.124-67.483-89.325-78.962-121.805l-112.007-4.2zm326.214-10.291c-12.882 12.812-64.123 13.09-90.793 0-6.197 10.627-12.44 18.867-18.693 26.46 16.681 7.057 30.027 15.249 39.892 23.777 6.593 5.695 6.731 11.855 2.41 18.722-8.421 13.384-16.539 24.074-25.779 32.055-4.825 4.164-4.079 11.199-1.12 16.8 6.479 12.262 16.498 19.997 26.6 25.202 8.359-8.368 16.72-11.22 21.562-1.963 17.831 34.091 31.177 68.651 47.319 100.524 14.111 27.858 10.464 47.058-5.318 59.921-11.028 8.989-21.652 16.437-30.242 25.201a303.612 303.612 0 0 0 22.96 21.562c37.057-30.227 93.237-28.602 161.568-6.721 2.649-8.12 6.204-15.961 10.638-23.52-23.939-21.492-48.927-26.694-57.679-47.604-4.627-11.051-6.932-33.413-12.575-47.652-18.511-46.71-35.869-81.712-64.708-141.071-12.94-26.633-10.013-52.519-3.36-66.924-9.663-4.127-17.143-9.083-22.682-14.771zm404.336 3.011l-150.647 4.478c-1 16.452-7.139 29.923-15.677 42.001 32.717-4.357 67.243-5.623 104.16-2.799l-85.683 73.644 10.363 18.76c45.937 4.163 91.61 8.595 106.684 44.242 1.328 10.453 1.338 20.907-.278 31.36-6.368 10.202-17.493 18.971-33.044 27.16-19.517 10.283-46.708-1.975-65.78-22.257-9.042-3.465-18.313-5.49-25.783-7.984l-8.4 18.202 87.084 55.163c23.525-21.695 49.055-40.388 78.123-53.762 3.535-19.529 5.538-39.549 5.601-60.203-14.283-35.282-45.083-51.804-84.564-60.761l77.843-107.245zm-195.871 0c-26.286 17.022-58.083 31.242-92.824 43.96v19.321h46.763v166.886l46.061-46.061V337.554zM98.746 673.944l.152.457-.154-.456.002-.002z"/></svg>