<svg xmlns="http://www.w3.org/2000/svg" viewBox="0 0 896 1024"><path d="M574.602 643.28c-68.094 72.156-107.805 133.171-131.014 178.685-23.209-45.513-62.918-106.528-131.012-178.685C203.424 527.677 40.523 473.834 0 473.834v437.159h887.178V473.834c-40.523 0-203.424 53.844-312.576 169.446zM128.275 443.011a367.687 367.687 0 0 1-.278-14.319c0-174.345 141.249-315.686 315.592-315.686 174.345 0 315.686 141.341 315.686 315.686 0 4.804-.184 9.515-.37 14.319-74.895 31.193-163.553 83.413-231.716 155.569-31.657 33.536-59.578 67.004-83.599 100.076-24.02-33.072-51.941-66.54-83.598-100.076-68.07-72.156-156.82-124.377-231.716-155.569z"/></svg>