<svg xmlns="http://www.w3.org/2000/svg" viewBox="0 0 597 1024"><path d="M102.084 556.678c-12.612 27.808 22.316 24.632 39.632 34.657 11.356 6.526 21.751 14.433 28.105 25.494 7.39 12.981 19.14 36.948 20.765 49.166 0 0 39.929-12.981 58.329-60.621 0 0 63.773 4.632 87.641-1.526 23.77-6.159 38.303-16.184 38.303-16.184-28.401 1.551-58.303-3.842-58.303-3.842s17.686-43.008 48.771-70.521c48.205-42.54 162.128-33.772 180.603 33.77 5.492 20.297-2.784 54.83-15.863 71.187-12.145 15.124-29.559 26.085-45.52 36.775-34.534 22.982-71.409 35.495-111.338 45.594-48.205 12.317-111.213 9.238-111.213 9.238s-64.56 30.691-123.752 50.323c-35.692 11.749-62.442 39.83-74.561 76.605 2.217 0 76.877-67.074 189.544-58.796 26.184 1.922 53.501 6.453 79.389.765 63.034-13.67 69.463-52.145 93.824-64.364 33.77-16.848 73.305-33.772 111.312-20.125 56.088 20.125 60.718 81.606 31.85 122.988-6.627 9.51-17.219 23.18-31.087 26.259 0 0 12.513 21.159 13.278 34.534 1.649 31.676-30.1 73.231-64.833 61.013-20.222-7.217-28.401-34.164-23.671-53.304 2.784-11.158 8.844-17.906 20.002-20.789 25.987-6.552 39.929 12.315 39.929 12.315-3.081-21.455 3.57-43.5-41.185-53.6-41.851-9.433-65.99 9.139-92.542 9.04-39.955-.079-64.488 0-107.397-5.27-45.027-5.69-110.746 6.823-133.825 16.06-14.928 5.961-43.107 18.08-48.502 37.047-11.947 41.849 78.503 5.492 90.056 2.883 50.224-11.061 97.469-11.824 148.949-12.317 27.145-.196 61.483 1.553 84.39 4.902 3.178 56.678 21.652 70.448 65.423 84.982-2.217 4.309-4.335 8.743-6.552 13.078-8.844 17.712-52.615-.393-64.561-4.04-27.414-8.375-56.284-14.237-84.857-15.887-43.87-2.586-86.212 1.823-130.181.763 0 0-29.829-.86-129.613 4.533-32.613 1.823-48.969-7.021-56.187-19.731-21.084-37.146 8.745-68.009 8.745-68.009-3.447-1.454-40.224-19.065-18.475-58.428 31.751-57.342 83.036-77.64 128.654-120.352 0 0 5.001-21.552-4.04-45.421-8.177-21.455-26.085-28.203-44.559-37.809-11.725-6.257-26.158-14.14-32.046-26.75-16.527-35.988 40.052-76.508 60.546-98.529 0 0-45.053-66.58-45.053-149.516 0-138.088 111.904-249.991 249.894-249.991 138.161 0 249.965 111.903 249.965 249.991 0 76.778-68.599 129.22-68.599 129.22-57.245-17.613-101.903-7.12-137.694 14.433-65.029 39.141-80.916 103.528-80.916 103.528-50.422-7.61-106.016-35.125-138.825-67.934 0 0-39.462 36.553-42.146 42.515z"/></svg>