<svg xmlns="http://www.w3.org/2000/svg" viewBox="0 0 901 1024"><path d="M284.302 193.847c85.513-32.362 180.529-38.624 269.73-18.756 98.577 21.808 190.003 76.739 253.517 155.513 57.254 70.253 90.854 159.771 91.776 250.561 2.162 97.147-33.347 193.818-96.003 267.824-10.267-24.32-22.825-47.812-38.528-69.079 21.012-68.599 42.947-136.916 64.341-205.42-44.791 43.931-89.581 87.897-134.436 131.765-9.156-6.961-18.533-13.638-28.165-19.9.285-21.33 2.543-42.598 4.832-63.8 8.265-70.572 19.169-140.795 30.612-210.922-49.558 75.308-98.927 150.712-149.408 225.386-12.621-3.18-25.431-5.468-38.243-7.726-25.24-103.632-43.964-208.727-63.642-313.503-19.487 104.841-38.274 209.935-63.642 313.568-12.619 2.256-25.144 5.023-37.542 8.359-51.372-79.536-96.29-162.982-142.512-245.538 10.619 100.2 24.001 200.24 28.134 300.979-7.789 5.944-15.355 12.143-22.793 18.533-48.638-51.625-92.315-107.638-137.329-162.41 22.06 81.22 44.218 162.41 66.248 243.632-13.542 21.171-24.827 43.773-33.664 67.328C49.092 795.71 11.073 712.454 3.538 625.479c-8.55-87.642 12.971-177.604 59.668-252.182 51.023-82.27 130.685-145.531 221.094-179.449z"/></svg>