<svg xmlns="http://www.w3.org/2000/svg" viewBox="0 0 1024 1024"><path d="M891.27 799.43c47.274-48.162 62.638-81.474 46.984-105.476-9.778-14.94-31.528-26.394-53.64-31.916-39.546-9.758-80.362-.824-118.618 14.528-61.858 24.858-116.986 66.462-157.874 117.914-9.288-29.256-25.378-55.99-47.418-79.312-18.63-19.676-41.648-36.922-66.81-41.676-25.086-4.736-52.37 2.932-77.874 10.884-15.528 4.754-30.33 9.704-44.788 16.352 3.538-8.74 6.022-17.532 8.218-26.806 4.462-19.624 7.31-41.622-.418-58.582-11.338-24.644-45.206-38.602-75.97-40.764-25.924-1.894-49.596 4.61-71.074 15.78 11.99-12.01 21.406-25.842 29.478-41.264 8.436-15.852 15.6-33.436 13.406-50.396-2.558-20.392-18.358-39.996-37.134-50.396-23.6-13.136-52.006-11.742-78.944-9.652-15.31 1.198-30.186 2.52-44.916 5.808 13.878-11.67 25.216-25.77 34.92-41.478 8.944-14.226 16.38-29.862 16.526-46.34.198-19.48-9.85-40.084-24.942-52.772-17.162-14.388-38.672-25.366-61.42-29.136-25.794-4.254-53.788-6.974-79.24-6.472 62.366-28.916 132.974-43.544 202.142-43.686 60.516-.144 120.824 15.976 177.584 38.368 111.326 44.052 212.572 129.972 284.914 210.804 20.97-19.82 38.632-42.548 60.328-54.432 18.194-9.9 37.404-17.102 57.958-19.194 35.208-3.628 74.464 7.328 112.94 29.184-107.064 26.592-160.558 93.966-167.434 136.41 28.698-5.79 61.858-5.666 98.066-4.324 66.12 2.358 142.436 8.506 178.498 61.01 16.162 23.52 24.234 56.402 15.31 82.154-7.8 22.554-28.626 39.656-49.668 54.382-25.232 17.746-50.664 31.918-79.09 40.496z"/></svg>