<svg xmlns="http://www.w3.org/2000/svg" viewBox="0 0 29 32"><path d="M2.223 5.818C3.945 3.199 6.376.968 9.321 0c.046.801-.025 1.606.048 2.407.375 1.373 1.613 2.284 2.009 3.644-2.462.888-4.826 2.867-5.303 5.662.936-1.392 1.873-2.869 3.29-3.778.69-.469 1.495-.718 2.305-.835.187 1.228.041 2.472.131 3.708.091.98 1.022 1.641 1.92 1.682 1.062.123 2.422-.041 2.933-1.171.407-1.37-.114-2.861.32-4.227a5.476 5.476 0 012.396.976c1.357.885 2.27 2.29 3.149 3.64-.416-2.013-1.827-3.623-3.464-4.693-.602-.361-1.236-.664-1.85-1.004.446-1.199 1.359-2.119 1.893-3.264.131-.897.023-1.81.061-2.714 1.029.103 1.926.704 2.812 1.209 2.243 1.611 4.297 3.694 5.374 6.344a14.907 14.907 0 011.276 6.114c-.728-.295-1.505-.63-2.3-.437-1.088.178-2.087 1.025-2.353 2.155-.106.859-.138 1.812.353 2.56.488.914 1.555 1.118 2.346 1.641-.629 1.751-1.516 3.416-2.656 4.865a16.195 16.195 0 01-3.703 3.238c-.277.171-.584.274-.886.381.415-2.907 2.1-5.397 3.891-7.586-1.556.897-2.696 2.39-3.594 3.956-.717 1.372-1.367 2.881-1.286 4.479.017.649.247 1.261.423 1.877-1.662 1.114-3.715 1.253-5.638 1.134-1.204-.131-2.459-.371-3.454-1.139.367-1.161.561-2.419.217-3.615-.529-1.71-1.324-3.351-2.45-4.722a6.114 6.114 0 00-1.928-1.675c.551 1.025 1.342 1.879 1.913 2.892.767 1.332 1.443 2.785 1.548 4.358a8.476 8.476 0 01-3.104-2.265c-1.815-1.698-3.28-3.866-3.985-6.311.823-.305 1.795-.542 2.283-1.373.556-.785.473-1.808.402-2.724-.189-.749-.738-1.356-1.322-1.81-1.025-.65-2.304-.407-3.3.178-.237-2.821.757-5.588 2.185-7.94zm4.956 9.432c-.148.794.418 1.465.987 1.9.75.588 1.755.397 2.613.248.503-.145.99.09 1.458.255a6.344 6.344 0 00.418-1.882 6.562 6.562 0 00-1.676-.978c-.854-.369-1.8-.259-2.701-.226-.426.034-1.02.159-1.1.683zm8.828.473c-.139.625.095 1.239.33 1.803 1.211-.509 2.509.385 3.695-.214.785-.29 1.344-1.087 1.389-1.95-.076-.449-.564-.618-.929-.744-1.553-.314-3.252.062-4.485 1.104zm-1.775 6.923c-.561-.19-1.005-.626-1.556-.837-.297-.048-.597.002-.893.021.056.245.1.554.398.588.722.147 1.445.35 2.18.395.773-.138 1.546-.29 2.318-.449l-.018-.6c-.919-.269-1.563.775-2.429.882zm-2.65 3.351c.236.34.4.804.818.944.692.242 1.433.228 2.155.233.551-.01 1.13-.005 1.634-.267.377-.183.581-.578.828-.902-.758-.593-1.75-.35-2.63-.399-.937.06-1.981-.204-2.806.392z"/></svg>
