<svg xmlns="http://www.w3.org/2000/svg" viewBox="0 0 600 600" version="1.1"><circle cx="300" cy="300" r="300" fill="#cbc2bf"/><path d="m544.2 291.7c0 33.1-12 55.7-36.1 67.7-7 3.5-29.1 8.3-66.2 14.3-24.1 4-36.1 13.3-36.1 27.8l0 60.9c0 2.5 0.8 10.3 2.3 23.3l2.3 24.1c0 7.5-1.8 19.8-5.3 36.9-9.5 2-20.6 4.3-33.1 6.8-4-15.1-6-25.3-6-30.9 0-2.5 0.6-6.3 1.9-11.3 1.2-5 1.9-8.8 1.9-11.3 0-3.5-3.1-13.3-9.4-29.3l-11.7 0c-1.5 2.5-2.1 5.8-1.6 9.8 2 8.5 2.8 15.8 2.3 21.8-8.5 6-20.3 14.1-35.4 24.1-3.5-1-4.8-1.5-3.8-1.5l0-53.4c-1-2.5-3.5-3.5-7.5-3l-9 0-9 70.7c-7 0.5-15.6 0.5-25.6 0-3.5-16.5-9.8-41.1-18.8-73.7l-6 0c-5.5 17.6-8.5 27.1-9 28.6 0 2 0.6 5.9 1.9 11.7 1.2 5.8 1.9 9.7 1.9 11.7 0 1.5-0.5 5.3-1.5 11.3l-2.3 18.1c-1 1-2.3 1.5-3.8 1.5-15 0-25.1-3.8-30.1-11.3-5-7.5-7-18.1-6-31.6l6-90.3c0-1.5 0.5-3.5 1.5-6 1-2.5 1.5-4.3 1.5-5.3 0-4-4.3-12-12.8-24.1-1.5-0.5-9.3-2.3-23.3-5.3-8.5-2-25.3-5.5-50.4-10.5-34.6-6.5-51.9-34.3-51.9-83.5 0-73.2 30.1-134.2 90.3-182.8 2.5 13.5 6.8 31.6 12.8 54.2 4.5 1 14.3 3.3 29.3 6.8 3 1 18.3 6.5 45.9 16.6-14.1-8.5-32.4-22.3-54.9-41.4-8.5-10-12.8-26.8-12.8-50.4 0-5.5 9.5-12 28.6-19.6 17-7 29.9-11 38.4-12 27.1-3.5 47.9-5.3 62.5-5.3 62.7 0 113.4 16.1 152 48.2-12.5 14.6-34.1 30.1-64.7 46.6 12.1 0.5 29.6-4.2 52.7-14.3 23.1-10 32.9-15 29.3-15 4 0 12.1 8 24.1 24.1 9 12 16.3 22.8 21.8 32.4 16 28.6 26.8 59.5 32.4 92.6 0 11.6 0.2 19.8 0.8 24.8l0 6 0 0zm-288.2 13.5c0-21.6-9.4-42-28.2-61.3-18.8-19.3-39-29-60.6-29-19.1 0-35.9 8.1-50.4 24.2-14.6 16.2-21.8 34.1-21.8 53.8 0 17.2 8.3 28.3 24.8 33.3 10.5 3 25.3 4.8 44.4 5.3l41.4 0c33.6 0.5 50.4-8.3 50.4-26.3m82 93.3 0-23.3c-3.5-6.5-7-13.3-10.5-20.3-3-10-8.5-24.1-16.6-42.1l-8.3 88c0 7-1.5 10.5-4.5 10.5-2 0-3.5-0.5-4.5-1.5-3.5-53.2-5.3-76.2-5.3-69.2l0-26.3c-1-1.5-2.2-2.3-3.7-2.3-17.1 17.6-25.6 45.9-25.6 85 0 21.6 2 34.9 6 39.9 4-1 8.5-2.8 13.5-5.3 2-1 7.8-1.5 17.3-1.5 9.5 0 21.1 3 34.6 9 5 0 7.5-13.5 7.5-40.6m170.1-104.8c0-20.2-7.5-38.2-22.6-54.1-15.1-15.9-32.4-23.8-51.9-23.8-21.1 0-40.8 9.6-59.1 29-18.3 19.3-27.5 39.5-27.5 60.6 0 17.6 8.5 26.3 25.6 26.3l86.5 0c32.6-0.5 48.9-13.1 48.9-37.9" fill="#130c0e"/></svg>