<svg xmlns="http://www.w3.org/2000/svg" viewBox="0 0 1024 1024"><path d="M731.15 83.188s54.03 5.768 54.03 61.624l200.53 55.952s50.068 19.222 34.598 84.784l-165.722 618.7s-34.714 46.318-75.172 34.69l-267.358-73.53-267.474 73.53c-40.458 11.628-75.172-34.69-75.172-34.69L3.688 285.546c-15.47-65.56 34.692-84.782 34.692-84.782l200.436-55.952c0-55.856 53.936-61.624 53.936-61.624H731.15zm-1.734 23.09H294.58c-2.556.444-10.244 2.18-17.58 7.054-10.244 6.846-15.096 16.83-15.096 31.48v17.58S49.186 221.744 46.092 222.564c-5.51 2.648-22.268 12.634-22.268 39.262 0 5.414.75 11.462 2.296 18.33.376 1.102 161.714 603.488 164.362 613.192 7.056 8.064 28.01 29.018 47.794 23.346l273.78-75.266 273.664 75.266c19.782 5.672 40.668-15.282 47.794-23.346 2.672-9.704 164.08-612.09 164.362-613.192 1.546-6.868 2.296-12.916 2.296-18.33 0-26.628-16.76-36.614-22.244-39.262-3.118-.82-215.906-60.172-215.906-60.172v-17.58c0-14.65-4.782-24.634-15.026-31.48-7.242-4.874-15.024-6.61-17.58-7.054zM257.31 194.272v594.954c0 .002 5.04 38.654 36.004 38.654H460.3l-223.594 61.624s-12.798 6.398-19.314-7.688L52.96 271.46s-6.424-19.338 8.954-24.448l195.396-52.74zm509.47-1.29l195.302 52.74c15.376 5.134 8.978 24.354 8.978 24.354l-164.55 610.45c-6.398 14.112-19.22 7.688-19.22 7.688l-223.596-61.718h167.104c30.754 0 35.982-38.534 35.982-38.534v-594.98zm-39.192-57.78c9.072 0 10.244 11.534 10.244 11.534l-.002 639.936c.002 10.36-10.242 12.916-10.242 12.916h-430.43c-9.072 0-9.072-12.916-9.072-12.916V146.734c0-7.688 9.072-11.532 9.072-11.532h430.43zM644.42 283.396c-8.43 0-20.794 1.19-37.092 3.572-16.298 2.38-25.638 4.118-28.018 5.214-2.382 1.096-3.572 2.56-3.572 4.394 0 2.202 3.938 7.056 11.814 14.562 7.874 7.506 12.636 14.28 14.286 20.322 1.648 6.042 2.656 10.896 3.026 14.564.37 3.666.554 8.796.554 15.392v11.536c0 8.418.274 18.398.822 29.938.546 11.542 1.644 25.922 3.294 43.136 1.648 17.214 2.472 34.246 2.474 51.09-.002 20.156-1.1 36.826-3.296 50.01-2.196 13.186-5.496 25.088-9.902 35.708-8.786 15.75-21.604 27.016-38.456 33.794-16.852 6.78-34.248 10.17-52.19 10.17-5.13 0-17.86-1.19-38.188-3.57-20.328-2.382-35.896-18.41-46.706-48.082-10.81-29.674-16.214-74.732-16.214-135.174 0-10.988.092-21.976.276-32.964s.276-22.162.276-33.52c.37-10.25.736-21.054 1.098-32.412.364-11.356.546-22.53.546-33.518s-1.556-17.214-4.67-18.68c-3.114-1.464-6.134-2.196-9.064-2.196a887.048 887.048 0 0 1-36.26 7.152c-12.458 2.196-27.658 3.294-45.6 3.294 0 7.692 5.77 14.65 17.306 20.876s18.402 14.194 20.598 23.902c2.196 9.71 3.48 17.218 3.848 22.528.37 5.31.554 20.786.554 46.43v60.984c0 51.276 2.748 88.638 8.242 112.084s14.286 41.03 26.374 52.752c12.09 11.72 23.904 20.054 35.44 25s23.9 7.42 37.09 7.42c20.512-2.93 39.376-5.494 56.59-7.696 17.216-2.202 33.24-8.98 48.074-20.332s28.476-22.706 40.93-34.064c5.5-1.094 10.72 3.942 15.66 15.108 4.942 11.168 11.442 19.498 19.502 24.992s14.196 8.884 18.41 10.17c4.214 1.286 8.888 1.928 14.018 1.928 8.786 0 16.386-2.198 22.796-6.598 6.41-4.398 10.164-8.978 11.26-13.74-23.072-7.322-37.722-19.684-43.948-37.082-6.228-17.4-9.34-44.778-9.34-82.138V324.04c0-23.81-1.19-36.536-3.572-38.18-2.38-1.642-5.404-2.464-9.07-2.464z"/></svg>