<svg xmlns="http://www.w3.org/2000/svg" viewBox="0 0 299 213"><path d="m149.5 0 60.954 62.217-86.02 87.644 25.066 25.427 25.067-25.427-19.296-19.657 18.034-18.395 37.15 38.052-60.955 62.216-61.134-62.216 86.2-87.644L149.5 36.789l-25.067 25.428 19.296 19.476-18.034 18.394-37.33-37.87L149.5 0ZM86.201 7.935c-4.207 6.612-4.628 13.405-1.262 20.378 3.366 6.011 8.416 9.438 15.148 10.28L76.824 62.216l42.92 43.822-42.92 43.641 23.263 23.805c-6.852.721-11.902 3.967-15.148 9.738-4.869 8.656-.721 18.034 1.262 20.92C46.407 188.993 17.673 165.43 0 133.45l36.428 12.443 39.314-39.854-39.314-40.035L0 78.627C18.875 45.926 47.61 22.362 86.201 7.935Zm126.598 0C251.39 22.362 280.125 45.926 299 78.627l-36.428-12.623-39.314 40.035 39.314 39.854L299 133.45c-17.673 31.98-46.407 55.544-86.201 70.692 1.983-2.885 6.131-12.263 1.262-20.919-3.246-5.77-8.296-9.017-15.148-9.738l23.263-23.805-42.92-43.641 42.92-43.822-23.263-23.625c6.732-.841 11.782-4.268 15.148-10.279 3.366-6.973 2.945-13.766-1.262-20.378Z" fill="#000" fill-rule="nonzero"/></svg>
