<svg xmlns="http://www.w3.org/2000/svg" viewBox="0 0 1073 613"><path d="M57.5 16.5V94H304L132.5 286.5l25 49c77-8 130.667 2.167 161 30.5s40.833 59.167 31.5 92.5c-16 46.333-51.333 72.833-106 79.5-82 10-142-39.5-186.5-98l-57 50C42.167 556.667 101 596 177 608c114 18 181.5-30 204.5-54s90-114.5 21.5-213.5c-38.333-48-87.667-74.167-148-78.5L425.5 69.5v-53h-368ZM760.205.035c172.551 0 312.431 137 312.431 306 0 168.999-139.88 306-312.43 306-172.551 0-312.431-137.001-312.431-306 0-169 139.88-306 312.43-306ZM761.5 39.5c-23 210.5-19 231.5-40 231.5-14 0-24.333-59.5-31-178.5C670 265 669 288.5 650 288.5c-12.667 0-22.833-50.167-30.5-150.5l-18 176c149.695 53.235 159.441 223.232 159.983 253.4l.007.445.005-.411c.392-29.627 9.16-195.14 154.606-251.593L921 314l-23-176c-1.333 100.333-10.833 150.667-28.5 151-17.667.333-30.333-65.167-38-196.5-16.5 153-13.5 180-29.5 180-18 1-31.5-76.667-40.5-233Z" fill="#000" fill-rule="nonzero"/></svg>
