<svg xmlns="http://www.w3.org/2000/svg" viewBox="0 0 1024 1024"><path d="M731.186 83.138s54.03 5.86 54.03 61.718l200.508 55.858s50.092 19.316 34.62 84.878L854.622 904.298s-34.714 46.318-75.174 34.692l-267.382-73.532-267.454 73.532c-40.458 11.626-75.172-34.692-75.172-34.692L3.622 285.592c-15.376-65.562 34.716-84.878 34.716-84.878l200.508-55.858c0-55.858 53.936-61.718 53.936-61.718h438.404zm-1.736 23.182H294.61c-2.554.446-10.244 2.18-17.58 7.032-10.244 6.868-15.096 16.854-15.096 31.504v17.58S49.214 221.764 46.12 222.608c-5.508 2.554-22.268 12.634-22.268 39.262 0 5.414.75 11.462 2.296 18.236.376 1.102 161.692 603.588 164.364 613.292 7.032 7.97 28.012 29.02 47.7 23.348l273.854-75.362 273.688 75.36c19.784 5.674 40.67-15.376 47.796-23.346 2.672-9.704 164.082-612.19 164.362-613.292 1.548-6.774 2.298-12.822 2.298-18.236 0-26.628-16.76-36.708-22.268-39.262-3.094-.844-215.816-60.172-215.816-60.172v-17.58c0-14.65-4.852-24.636-15.094-31.504-7.244-4.852-15.026-6.586-17.582-7.032zm-472.13 86.908V788.19s5.04 38.56 35.982 38.56h167.012l-223.598 61.718s-12.822 6.4-19.314-7.688L52.944 270.324s-6.398-19.244 8.978-24.354l195.398-52.742zm509.382-1.288l195.304 52.74c15.47 5.134 9.048 24.354 9.048 24.354L806.526 879.396c-6.398 14.182-19.22 7.782-19.22 7.782L563.708 825.46H730.72c30.848 0 35.982-38.536 35.982-38.536V191.94zm-39.098-57.78c8.976 0 10.242 11.532 10.242 11.532v639.944c0 10.242-10.242 12.822-10.242 12.822H297.146c-9.048 0-9.048-12.822-9.048-12.822V145.692c0-7.688 9.048-11.532 9.048-11.532h430.458zM538.246 294.778h-.002c-20.498 0-37.936 3.554-52.312 10.66-14.374 7.108-27.02 15.292-37.936 24.552h-28.75c-12.56 0-27.766-1.488-45.616-4.464-17.852-2.976-31.902-5.452-42.152-7.43-4.962 0-7.444 2.972-7.444 8.914 0 4.962 10.91 8.436 32.73 10.418 21.822 1.982 34.384 4.708 37.688 8.178 3.304 3.472 6.36 14.792 9.17 33.964 2.808 19.174 4.214 36.694 4.214 52.562v130.41c0 40.332-2.15 61.326-6.446 62.98-4.298 1.654-15.122 2.894-32.474 3.714-17.352.824-26.028 3.716-26.028 8.68 0 6.284 2.972 9.426 8.914 9.426l58.516-5.462h74.374l43.142 3.964h4.964c5.942 0 8.912-3.47 8.912-10.41 0-4.298-2.476-6.446-7.43-6.446h-38.178c-13.882 0-23.468-1.736-28.758-5.206-5.292-3.47-7.938-11.318-7.938-23.546V582.38c0-7.94.166-26.04.5-54.302.332-28.262 1.488-42.392 3.464-42.392 27.44 0 49.094 9.916 64.964 29.75 15.868 19.832 32.808 43.8 50.82 71.9 18.014 28.1 29.828 43.886 35.448 47.356s9.422 5.372 11.41 5.706h73.876c.332-.666.996-1.744 1.99-3.232.992-1.488 1.49-2.892 1.49-4.214 0-4.63-5.87-7.356-17.606-8.178-11.738-.824-21.244-6.854-28.518-18.092-15.858-21.488-31.144-42.562-45.858-63.222s-27.028-39.918-36.944-57.774c29.75-20.166 48.758-34.548 57.026-43.142 8.266-8.596 12.4-25.786 12.4-51.572 0-28.428-10.084-51.566-30.25-69.418-20.166-17.85-45.29-26.776-75.372-26.776zm-28.752 30.748c25.12 0 44.126 7.688 57.018 23.062s19.338 34.794 19.338 58.258c0 19.834-6.282 35.536-18.846 47.108-12.566 11.57-28.104 17.356-46.614 17.356-22.478 0-38.508-5.042-48.092-15.124-9.582-10.084-14.374-23.72-14.374-40.91v-38.678c0-19.168 4.628-32.472 13.884-39.912 9.254-7.44 21.818-11.16 37.686-11.16z"/></svg>