<svg xmlns="http://www.w3.org/2000/svg" viewBox="0 0 300 146"><path d="M176.182 127.09c-7.637 7.274-14 12.365-22.364 17.455-1.09.728-2.363 1.091-3.818 1.091l-.36-.007c-1.305-.056-2.458-.417-3.458-1.084-8.085-4.92-14.301-9.842-21.604-16.734l-.76-.72h52.364Zm-69.818-98.726c-1.091 8.363-.546 15.272 1.636 20.727 2.182 5.454 1.818 10.727-1.09 15.818-2.546 6.546-.728 14.546 5.454 24 2.181 3.273 6 4.91 11.454 4.91-.727 8 0 13.09 2.182 15.272 2.91 2.909 8.727 4.364 17.455 4.364h13.09c8.728 0 14.546-1.455 17.455-4.364 2.182-2.182 2.91-7.273 2.182-15.273 5.454 0 9.273-1.636 11.454-4.909 6.182-9.454 8-17.454 5.455-24-2.91-5.09-3.273-10.364-1.091-15.818 2.118-5.294 2.694-11.959 1.728-19.993l-.092-.734H300a322.554 322.554 0 0 1-11 15.083l-1 1.28h-34.364a91.28 91.28 0 0 1-4.772 5.31l-.682.69h35.454c-3.666 5-7.639 10-11.916 15l-1.175 1.364h-36c-1.666 2-3.333 3.694-5 5.083l-.454.371h36.545c-4.751 5.77-9.344 11.065-13.779 15.884l-.948 1.026h-37.636a99.587 99.587 0 0 1-5.728 5.31l-.818.69h38.728a226.25 226.25 0 0 1-14.459 15.083l-1.36 1.28h-35.454l-9.818 8.727h-68.728l-9.818-8.727H70.364a225.262 225.262 0 0 1-15.819-16.363h38.728a98.051 98.051 0 0 1-6.546-6H49.091c-4.727-5.091-9.636-10.728-14.727-16.91h36.545c-1.818-1.454-3.636-3.272-5.454-5.454h-36c-4.728-5.455-9.091-10.91-13.091-16.364h35.454a89.592 89.592 0 0 1-5.454-6H12c-4-5.09-8-10.545-12-16.363h106.364ZM150 0c8.727 0 15.818 1.455 21.273 4.364 4.363 2.181 10.909 7.636 14.182 13.09 2.181 3.819 3.272 6.546 3.818 13.091.727 6.546 0 12.728-2.182 18.546-1.818 6.545-1.818 11.454 0 14.727 2.545 4.364 2.727 9.273.545 14.727-1.818 4.364-3.818 7.273-6 8.728-2.181 1.09-4.545 1.272-7.09.545-2.546-.363-4.182.364-4.91 2.182-.545 1.636.546 3.273 1.091 4.91.546 1.635 1.091 2.726 1.091 4.908 0 2.182 0 6.546-4.363 7.637h-2.728v-3.819c0-1.09-.545-1.636-1.636-1.636-1.091 0-1.636.545-1.636 1.636v4.91c0 .727-.546 1.09-1.637 1.09h-6.545c-1.091 0-1.637-.363-1.637-1.09v-4.364c0-1.091-.545-1.637-1.636-1.637l-.187.006c-.906.057-1.387.538-1.444 1.444l-.005.187v4.363c0 .682-.48 1.044-1.439 1.087l-.198.004h-6.545c-1.023 0-1.566-.32-1.63-.958l-.007-.133v-4.909c0-1.09-.545-1.636-1.636-1.636-1.027 0-1.57.483-1.63 1.45l-.006.186v3.819h-2.728c-4.17-1.043-4.355-5.074-4.363-7.333v-.304c0-2.182.545-3.273 1.09-4.909.546-1.636 1.637-3.273 1.092-4.909-.728-1.818-2.364-2.545-4.91-2.182-2.545.727-4.909.546-7.09-.545-2.182-1.455-4.182-4.364-6-8.728-2.182-5.454-2-10.363.545-14.727 1.818-3.273 1.818-8.182 0-14.727-2.182-5.818-2.909-12-2.182-18.546.546-6.545 1.637-9.272 3.818-13.09 3.273-5.455 9.819-10.91 14.182-13.091 5.294-2.824 12.13-4.277 20.507-4.36L150 0Zm0 75.273c-4.364 3.818-7.09 10.909-7.09 12.545 0 1.091.545 1.455 1.635 1.091 2.444-2.094 4.217-3.184 5.32-3.267l.135-.006c1.09 0 2.91 1.091 5.455 3.273 1.09.364 1.636 0 1.636-1.09 0-1.602-2.613-8.429-6.815-12.298l-.276-.248Zm-31.09-6c0 3.272 2.726 7.636 7.09 8.727 5.818 1.455 12-1.09 18.545-7.636-4-.728-8.727-2.728-14.181-6-8.182-4.91-11.455 1.636-11.455 4.909Zm62.18 0c0-3.273-3.272-9.818-11.454-4.91-5.454 3.273-10.181 5.273-14.181 6C162 76.91 168.182 79.456 174 78c4.364-1.09 7.09-5.455 7.09-8.727ZM114 10.363c-3.273 3.637-5.455 7.273-6.545 10.91H22.909c-2.545-3.273-5.09-6.91-7.636-10.91H114Zm170.727 0c-2.333 3.667-4.666 7.028-7 10.084l-.636.826h-84.546c-1.043-3.479-3.085-6.957-6.124-10.435l-.421-.474h98.727Z" fill="#000" fill-rule="nonzero"/></svg>
