<svg xmlns="http://www.w3.org/2000/svg" viewBox="0 0 896 1024"><path d="M481.712 249.603s92.249 9.644 171.979 39.851c0 0 11.324-8.346 16.108-22.547 0 0-8.143 47.894-4.581 93.827 4.175 53.874 28.426 120.777 102.303 124.162 91.435 4.275 96.626-109.249 96.626-109.249s16.898 35.68 14.71 73.571c-1.195 22.064-13.539 44.025-25.168 62.222-24.533 38.477-60.032 64.307-74.156 109.554-14.404 46.316-23.438 94.235-28.324 142.333-3.181 30.333-4.963 60.948-4.861 91.46.183 29.926 2.29 58.556 6.463 84.004l-163.835 33.592s-2.19-71.357-65.198-75.633c0 0 0-149.127 37.866-266.824 0 0 102.989-27.332 105.076-145.031 0 0-121.974 27.332-199.718 42.042l-27.636 100.902-27.23-100.902c-77.846-14.71-199.718-42.042-199.718-42.042 2.086 117.699 105.074 145.031 105.074 145.031C355.36 747.623 355.36 896.75 355.36 896.75c-63.01 4.275-65.096 75.633-65.096 75.633l-163.939-33.592c4.175-25.448 6.185-54.077 6.362-84.004.102-30.512-1.577-61.128-4.657-91.46-5.064-48.097-14.022-96.017-28.425-142.333-14.124-45.247-49.625-71.078-74.259-109.554C13.717 493.244 1.477 471.282.178 449.218c-2.087-37.891 14.71-73.571 14.71-73.571s5.292 113.524 96.626 109.249c73.876-3.384 98.231-70.287 102.403-124.162 3.487-45.933-4.581-93.827-4.581-93.827 4.683 14.201 16.109 22.547 16.109 22.547 79.729-30.206 171.979-39.851 171.979-39.851 12.623-111.336 41.94-172.387 41.94-172.387s30.334 61.152 42.346 172.387z"/></svg>