<svg xmlns="http://www.w3.org/2000/svg" viewBox="0 0 704 1024"><path d="M671.088 96.078c-7.756-4.216-68.352-.122-86.728-.246s-45.818.106-78.818-1.132c-32.998-1.238-203.538-5.592-241.578-6.038-53.028-.62-111.802-9.328-111.802-9.328s-9.836 25.672-22.996 48.44C99.062 179.228 50.574 214.996 17.81 264.66 7.584 280.152-7.692 301.014 6.088 321.37c14.514 21.252 48.306 8.624 60.562-3.91 9.22-9.43 7.43-20.774 19.36-29.132 0 0 162.604-56.04 331.754-58.902 0 0-3.242 8.656-23.722 49.974-17.104 34.504-27.228 75.162-49.59 105.816-5.542 7.596-49.892 8.766-71.96 9.362-6.328.172-.566-22.654-21.976-22.534-8.07.044-18.722 16.736-21.672 22.97-5.37 11.344-9.71 25.82-12.208 37.204-2.684 12.186-11.254 53.16-.316 59.358 6.264 3.634 29.146 4.97 37.966-7.256 4.678-6.482 12.572-11.868 13.748-12.416 15.936-8.08 25.234-7.78 38.91-1.914l-3.908 15.956c-37.258 100.96-75.632 160.824-121.938 260.824-28.49 61.528-46.972 95.136-58.764 114.296-12.264 19.93-27.976 26.828-27.976 26.828-21.49 11.732-34.594 15.142-34.594 39.878 0 21.51 30.396 18.392 43.57 14.228 37.118-11.734 80.386-39.864 98.666-50.666 63.206-37.35 148.84-60.882 148.84-60.882s8.416-151.376 28.388-225.53c15.59-57.996 30.496-109.724 52.746-156.442 3.068-6.442 17.556-11.834 24.908-14.874 14.352-5.934 38.508-10.494 56.472-12.18 29.95-2.81 28.846-11.05 31.822-29.668 3.744-23.422-30.334-13.222-43.678-11.868-2.316.184-21.8 2.04-24.024 2.498 9.652-20.632 27.982-64.832 40.46-88.394 20.434-38.59 53.928-78.012 83.004-111.906 12.958-15.104 42.97-40.03 61.064-48.304 17.95-8.206 18.072-26.138 17.064-29.278-1.996-6.21-7.978-8.428-7.978-8.428z"/></svg>