<svg xmlns="http://www.w3.org/2000/svg" viewBox="0 0 1024 1024"><path d="M731.504 82.56s54.104 5.774 54.104 61.71l200.714 56.028c0 .002 50.138 19.248 34.74 84.902L855.11 904.758c0 .002-34.762 46.384-75.276 34.834l-267.73-73.728-267.846 73.728c-40.512 11.55-75.276-34.832-75.276-34.832L2.936 285.2C-12.46 219.546 37.7 200.3 37.7 200.3l200.784-56.03c0-55.936 54.012-61.71 54.012-61.71h439.008zm-1.738 23.12H294.232c-2.464.448-10.258 2.184-17.51 7.042-10.352 6.878-15.116 16.878-15.116 31.548l-.002 17.604c.002 0-212.99 59.41-216.112 60.254-5.608 2.56-22.274 12.746-22.274 39.318 0 5.422.726 11.478 2.276 18.262.282 1.198 161.938 604.418 164.496 614.136 7.16 8.076 28.144 28.966 47.862 23.38l274.158-75.466 274.232 75.464c19.716 5.588 40.63-15.302 47.79-23.378 2.652-9.718 164.214-612.94 164.566-614.136 1.574-6.784 2.3-12.84 2.3-18.262 0-26.572-16.782-36.758-22.274-39.318-3.122-.844-216.206-60.254-216.206-60.254l-.002-17.604c.002-14.67-4.764-24.67-15.044-31.548-7.324-4.858-15.046-6.594-17.606-7.04v-.002zm-472.832 88.21v595.688c0 .002 5.118 38.708 36.03 38.708h167.244l-223.812 61.708s-12.934 6.41-19.366-7.698L52.37 271.092s-6.432-19.364 8.99-24.482l195.574-52.72zm510.154-1.29l195.574 52.72c15.492 5.14 9.084 24.388 9.084 24.388L806.968 881.004c-6.408 14.108-19.248 7.7-19.248 7.7L563.816 826.9h167.242c30.89 0 36.03-38.588 36.03-38.588V192.6zm-39.152-57.954c8.99 0 10.258 11.548 10.258 11.548l-.002 640.826c.002 10.352-10.256 12.934-10.256 12.934H296.814c-8.99 0-8.99-12.934-8.99-12.934V146.194c0-7.698 8.99-11.548 8.99-11.548h431.122zM541.844 207.8q-68.53 0-120.11 56.37-51.582 56.372-51.582 132.27 0 53.792 31.686 87.32 31.686 33.526 81.792 33.526 10.316 0 20.264-1.474 9.948-1.472 20.264-4.42 14-4.422 28.37-12.528 14.37-8.104 31.316-21.368l1.474 2.21q-6.63 14-13.264 25.79-6.63 11.79-13.262 22.844-13.264 20.632-26.528 37.212t-30.948 32.79q-28.738 28.002-67.424 50.108t-79.214 35.37q-2.948.736-6.264 1.842t-7 1.106L361.31 707.4q115.688-11.054 211.114-104.268 95.424-93.214 108.688-202.272.738-7.368 1.106-14.368t.368-14.37q0-72.212-39.054-118.268Q604.478 207.8 541.844 207.8zm-.738 26.528q33.896 0 55.634 30.58t21.738 77.74q0 19.896-4.052 42.002-4.054 22.106-12.896 48.634v.736q-11.054 10.316-21.37 17.686-10.316 7.368-20.632 11.788-11.79 5.896-23.58 8.476-11.79 2.578-25.054 2.578-32.422 0-51.58-22.842-19.16-22.844-19.16-61.162 0-63.37 29.844-109.794 29.844-46.422 71.108-46.422z"/></svg>