<svg version="1.0" xmlns="http://www.w3.org/2000/svg" viewBox="0 0 800 800"><path d="M398.8 51.2c-26 67.5-141.8 359.2-146.3 368.3-9 18.5-17.1 30.3-28.9 42.1-18.4 18.4-36.8 26.4-60.4 26.4-15.1 0-33.8-5.1-47.9-13.1-2.9-1.6-5.5-2.9-5.8-2.9-.3 0 .3 1.7 1.4 3.8 6.3 12.4 12.5 36.9 14.2 56.7 1.9 21-1.2 45.9-8.2 65.4-1.6 4.7-3.3 9.4-3.6 10.3-.5 1.5-.1 1.5 3.9.4 12.1-3.7 24.9-2.5 37.4 3.3 9.2 4.3 14.7 8.3 25.5 18.6 42.9 40.9 110.1 73.1 181.7 86.9 7.2 1.4 13.8 2.6 14.5 2.5.6 0-5.6-2-13.8-4.4-39.7-11.5-71.1-27.7-91.5-47.2-11-10.4-17.7-19.2-22.9-29.8-9.8-20-11.5-42-5.1-66.9 1-3.9 16.2-44.2 33.9-89.6 17.6-45.4 52.5-135.3 77.4-199.8 25-64.5 45.7-116.7 46-116 .2.7 26.4 68.1 58 149.8 31.6 81.7 65.5 169 75.2 194 20.5 52.5 22.9 59.5 25 70.3 1.9 10.2 1.9 28.5 0 37.7-9.2 43.7-52.8 78.1-124.8 98.5-14.3 4.1-9.5 3.8 11.8-.6 17.4-3.6 31.5-7.6 51.9-14.6 50-17.2 90.6-41 125.2-73.4 10.5-9.9 19.8-15.6 31.4-19.5 6.8-2.2 20.4-2.3 27.5 0 2.7.8 5 1.4 5.2 1.2.2-.1-.9-3.2-2.3-6.7-7.2-17.5-11.1-42.5-10.1-64.8 1-23.6 5.3-41.5 15.4-65 .3-.7.2-1.2-.3-.9-.5.2-5.2 2.5-10.4 5.1-13.4 6.5-25 9.7-38.5 10.4-13 .7-21.1-.5-32.9-4.8-23.7-8.6-45.5-31.6-61.5-64.9-3.2-6.9-37.3-92.2-75.6-189.5-38.3-97.4-70-177.4-70.4-177.8-.5-.5-1.1-.2-1.3.5z"/><path d="M689.6 641.2c-36.4 36.6-80.3 67.8-121.6 86.4-41.2 18.4-81.4 27.2-112.5 24.5-14.7-1.3-23-3.3-33-8.1-9.9-4.8-15.7-9.7-19.7-16.7l-3.1-5.4-2.8 4.9c-12.2 21.4-46.2 30.1-91.4 23.6-28-4.1-56.2-13.6-88.5-30-37.7-19.1-70.6-43.2-105.4-77.3-15.2-14.8-16.3-15.7-10.5-8.6 8.6 10.7 39.8 41.9 53.4 53.5 65.1 55.5 137 87.1 210.8 93.1 30.8 2.4 78.8.3 104.2-4.7 72.4-14.2 141.8-53 202-112.9 13.1-13 33.5-35.6 33.5-37 0-.7.5-1.2-15.4 14.7z"/></svg>
