<svg xmlns="http://www.w3.org/2000/svg" viewBox="0 0 1024 1024"><path d="M250.828 150.185c30.43-20.744 68.748-28.678 105.09-24.362 31.172 4.09 62.098 17.664 83.066 41.6 13.486 15.238 21.306 35.96 18.43 56.366-2.81 23.914-18.384 43.534-33.712 61.02-14.518 14.496-32.454 24.856-49.49 36.048-67.76 42.792-136.376 86.662-190.54 146.558-51.444 55.354-76.638 133.408-69.782 208.406 4.45 50.344 26.878 98.53 61.288 135.366 30.566 32.97 72.458 56.77 117.766 60.366 12.698.742 27.082 2.854 37.96-5.372 8.518-5.798 10.744-17.058 9.53-26.7-2.36-19.71-14.474-37.06-29.734-49.242-21.622-17.416-47.108-29.216-72.818-39.218-19.644-7.956-39.6-16.204-56.39-29.396-9.686-7.664-18.406-17.89-20.338-30.476-1.574-12.832.674-25.912 5.192-37.96 7.078 11.462 17.798 22.498 32.092 23.172 10.856-.022 22.498-1.124 31.848-7.17 8.158-5.438 8.136-16.608 6-25.148-6.652-27.936-23.194-53.872-21.89-83.404.45-15.53 9.708-29.216 21.464-38.746 20.248-16.744 46.184-23.53 70.008-33.464 8.81-3.934 18.338-8.226 23.868-16.564 6.068-10.248 6.046-24.364-1.664-33.802-9.304-11.574-23.98-16.676-37.846-20.408 21.102-4.966 43.712-4.426 63.962 3.686 19.53 7.686 36.724 20.7 50.748 36.162 16.856 19.756 8.36 52.388-13.194 65.042-29.486 17.35-55.938 45.556-60.366 80.728-3.64 24.25 18.542 45.422 41.69 47.13-6.428-18.092-6.494-38.364.9-56.164 8.068-21.418 25.216-37.264 38.836-55.108 23.642-29.554 43.668-62.098 58.412-97 16.922-39.578 29.082-80.954 40.656-122.352 14.226 49.512 28.542 99.404 51.624 145.658 13.732 27.688 31.172 53.376 50.546 77.402 12.608 16.048 27.71 30.724 35.33 50.028 7.866 18.138 8.09 38.994 1.438 57.536 17.664-1.596 34.43-13.35 40.32-30.318 3.686-11.934.876-24.768-3.35-36.162-10.27-26.408-31.508-47.152-55.58-61.334-21.552-12.63-30.026-45.286-13.192-65.018 18.654-20.61 43.218-37.218 71.064-41.804 14.498-2.606 29.33-1.19 43.646 1.844-13.394 3.708-27.486 8.518-36.902 19.306-10.25 11.282-9.17 31.036 2.562 40.858 9.73 8.002 21.934 11.956 33.51 16.452 23.958 9.034 49.848 18.204 66.3 38.994 9.934 11.934 12.18 28.408 9.506 43.33-3.73 23.688-15.822 44.926-21.238 68.144-2 8.382-1.844 19.26 6.18 24.52 9.35 6 20.946 7.102 31.78 7.146 14.292-.606 25.08-11.642 32.092-23.148 4.564 12.068 6.9 25.17 5.304 38.048-2.156 13.642-12.18 24.386-22.878 32.32-21.846 16.09-47.916 24.564-72.616 35.104-20.07 8.9-39.734 19.352-56.546 33.6-13.552 11.44-24.116 27.194-26.97 44.904-1.28 8.36-.696 17.822 4.742 24.722 4.946 5.912 12.474 9.372 20.094 10.136 38.858 2.046 77.806-10.698 109.136-33.554 44.836-32.656 76.796-82.46 88.348-136.668 16.99-84.122-9.688-175.864-69.042-237.85-55.536-60.232-125.588-103.966-194.226-147.478-17.688-11.822-36.724-22.812-49.782-40.072-14.068-16.946-26.902-36.926-27.126-59.692-.876-25.396 14.338-48.524 33.914-63.492 47.984-36.902 118.644-37.352 169.368-5.64 18.834 12.158 35.42 29.846 41.916 51.714 5.484 17.844-5.462 36.544-20.092 46.342-17.868 11.508-40.634 10.586-60.548 5.71 9.778-8.452 20.116-18.654 21.33-32.252.382-13.238-11.71-22.632-23.014-26.812-16.88-6.518-39.668 1.348-45.444 19.35-4.226 19.104 8.876 36.41 21.958 48.77 36.004 33.06 78.728 57.602 121.114 81.426 51.468 26.61 100.012 60.682 137.5 105.27 24.34 29.06 43.4 63.178 51.782 100.35 16.16 75.066.786 155.48-39.128 220.79-38.184 62.772-93.786 115.116-159.278 148.602-33.398 16.722-70.908 28.678-108.664 24.228-35.174-3.528-70.548-16.362-96.124-41.442-12.316-11.934-16.924-30.23-13.396-46.816 4.652-23.418 19.06-43.712 35.848-60.142 12.564-12.562 28.7-20.428 42.454-31.442 26.274-20.316 51.85-47.556 54.524-82.346-15.89 10.382-34.026 16.54-52.052 22.024-23.26 7.282-46.118 17.508-64.636 33.668-16.16 13.934-28.138 32.07-37.084 51.286-13.732 29.218-22.542 60.368-31.778 91.202-10.496-32.88-22.52-66.658-19.396-101.742 1.506-18.34 7.484-35.982 15.35-52.522 14.63-31.69 25.666-66.886 20.474-102.126-5.73-32.048-28.678-57.108-50.95-79.312-22.092 22.362-45.106 47.308-50.838 79.38-5.236 35.78 6.226 71.47 21.15 103.586 9.102 19.102 15.102 39.936 15.148 61.22.268 31.6-10.25 61.85-19.89 91.54-8.9-29.892-17.532-60.008-30.476-88.438-8.72-19.262-20.228-37.6-35.96-51.916-17.958-16.542-40.476-27.15-63.49-34.68-19.194-5.91-38.68-12.068-55.626-23.192 2.024 28.542 20.318 52.612 40.95 71.042 12.652 11.642 27.082 21.058 41.352 30.564 21.89 16.026 40.118 38.208 48.614 64.21 6.046 18.048 3.438 39.714-10.226 53.67-25.6 25.98-61.67 39.15-97.45 42.724-38.926 4.562-77.494-8.248-111.722-25.822-60.276-31.578-111.946-79.134-149.232-135.972C22.664 731.221 3.45 674.675 2.034 617.029c-.766-34.32 2.944-69.336 16.068-101.316 21.98-54.39 64.12-98.08 111.002-132.106 19.756-14.34 40.568-27.24 62.278-38.454 34.97-19.104 69.492-39.308 101.45-63.2 13.036-9.978 26.004-20.362 36.454-33.126 7.866-9.866 13.89-22.566 11.71-35.488-2.248-10.81-11.98-18.542-22.116-21.644-14.654-4.674-31.352.968-41.286 12.384-4.652 5.282-6.81 12.834-4.764 19.666 2.988 11.506 11.888 20.048 20.542 27.622-19.89 4.898-42.612 5.776-60.48-5.664-14.676-9.822-25.688-28.544-20.114-46.41 6.022-20.362 20.99-37.038 38.05-49.108z"/></svg>