<svg width="13" height="15" xmlns="http://www.w3.org/2000/svg"><path d="M6.245.182l6 3.5v7l-6 3.5-6-3.5v-7l6-3.5zm-.64 1.397c-.442.758-.55 1.604-.322 2.538.69.504 1.116 1.056 1.276 1.655a3.807 3.807 0 00-1.707-1.35C3.78 3.978 2.937 2.763 2.937 2.763a2.315 2.315 0 00.277 1.67c-.446-.135-.953-.156-1.522-.063.525.228.81.532.857.913.046.38-.08.618-.376.712-.616.2-1.167.574-1.653 1.12 1.33-.096 1.832.559 1.51 1.963a3.87 3.87 0 012.295-1.393c-.182-.143-.482-.195-.903-.156.807-.97 1.906-1.304 3.297-1.004-.885.04-1.542.25-1.97.631.485-.003.848.131 1.088.402-.972.246-1.668.748-2.088 1.505 1.267-.148 2.117.115 2.551.787.638.989.026 1.62 0 1.644v.001c.25.033.454-.018.614-.154.002.572-.429.972-1.292 1.2 1.778.17 3.025-.35 3.741-1.562a.973.973 0 01-.916.175c-.493-.148-.395-.625-.211-.718-.36.077-.585.037-.673-.12a.485.485 0 01.174-.674c-.393.071-.613-.025-.659-.29-.069-.397.06-.674.36-.857-.365-.212-.76-.243-1.185-.094.595-.47 1.362-.556 2.3-.26.467.227.583.533.348.919 1.261-.144 1.83.269 1.708 1.238.916-.497 1.3-1.39 1.153-2.676-.13.441-.38.725-.75.853.044-.399-.125-.606-.508-.622.163-.879-.065-1.619-.685-2.22a39.508 39.508 0 00-1.993-1.802c-.625-.638-.923-1.255-.893-1.851-.33.736-.271 1.325.177 1.768.672.663 2.198 1.849 2.227 2.887-.594-.843-1.17-1.52-1.726-2.03-.834-.766-2.036-1.375-2.005-3.027zm2.429 5.007c-.09-.246-.063-.364.083-.353.623.315 1.002.752 1.136 1.31-.118.065-.276.065-.475 0-.415-.25-.609-.589-.744-.957z" fill="#000" fill-rule="nonzero"/></svg>
