<svg xmlns="http://www.w3.org/2000/svg" viewBox="0 0 944 1024"><path d="M163.798 402.925c102.624-119.296 205.386-238.49 308.08-357.752 103.39 120.554 207.096 240.828 310.312 361.554-103.426 62.51-206.608 125.402-309.928 188.052-102.834-63.94-205.632-127.914-308.464-191.854zm75.45-3.558c69.206 43.08 138.274 86.404 207.444 129.554.036-129.624.036-259.246.036-388.868-69.172 86.438-138.448 172.772-207.48 259.314zM67.418 689.971c26.616-29.684 53.196-59.368 79.81-89.018 99.764 60.59 199.528 121.146 299.256 181.736.07 46.01-.036 92.02.07 138.03-126.448-76.812-252.792-153.796-379.136-230.748zm-66.52 5.548c157.004 97.356 314.08 194.608 471.12 291.894 157.04-95.228 314.044-190.528 471.084-285.79-46.148-54.348-92.298-108.694-138.412-163.076l-332.986 201.97-331.208-205.842C93.964 588.325 47.396 641.869.898 695.519z"/></svg>