<svg xmlns="http://www.w3.org/2000/svg" viewBox="0 0 12 14"><g fill="#000" fill-rule="nonzero"><path d="M5.993 10.106L2.555 8.082c-.35-.24-.503-.513-.46-.816.02-.34.397-.785 1.127-1.333.824-.747 1.325-1.425 1.503-2.034.279-.85.264-2.15-.044-3.899.087 1.21-.249 2.407-1.009 3.589a5.39 5.39 0 01-.844.981c-.614.524-1.219.961-1.814 1.311-.582.403-.909.884-.98 1.445-.138.836.145 1.48.847 1.931l5.112 2.962 5.111-2.962c.703-.451.985-1.095.847-1.93-.07-.562-.398-1.043-.98-1.446-.595-.35-1.2-.787-1.814-1.31a5.39 5.39 0 01-.844-.982C7.553 2.407 7.217 1.21 7.303 0c-.307 1.75-.322 3.05-.042 3.899.177.609.678 1.287 1.502 2.034.73.548 1.106.992 1.127 1.333.043.303-.11.575-.46.816l-3.437 2.024"/><path d="M5.993 13.105L.865 10.002l-.541.63 5.669 3.364 5.668-3.365-.54-.63-5.128 3.104M5.993 4.064L3.086 7.43l2.907 1.734L8.899 7.43 5.993 4.064"/></g></svg>