<svg xmlns="http://www.w3.org/2000/svg" viewBox="0 0 1024 1024"><path d="M801.154 486.536l-22.036-1.886 25.738 60.679c-110.251-69.864-214.984-33.108-214.984-33.108-11.018-44.124 1.884-104.733 1.884-104.733 112.034-53.241 282.911 12.904 282.911 12.904-55.142 36.687-73.513 66.144-73.513 66.144zm-142.164 72.51l-26.827-13.716c12.834-11.018 27.571-9.185 27.571-9.185l-.744 22.902zm-89.322 13.784c-40.405-23.852-235.204-124.937-431.751-108.384 0 0 78.978-27.571 145.138-38.572 0 0-14.667-23.852-95.548-62.442 0 0 180.062 1.833 367.493 115.751 0 0 0 31.205 11.018 56.96 11.018 25.668 27.571 18.301 27.571 18.301s25.668 20.272 47.756 27.571c0 0-31.273 14.72-71.678-9.185zm268.242-18.386s-6.226-19.459-19.06-47.031c0 0 35.613-39.316 85.204-64.985L837.91 554.443zM978.379 317.89c-24.596 0-44.592 19.942-44.592 44.609 0 12.281 4.999 23.368 13.042 31.481l-8.786 14.927-27.105-1.072c-12.626-4.878-27.295-10.621-27.295-10.621-7.421-2.836-182.224-69.309-302.56-12.092l-11.087 5.277-2.56 11.952c-.346 1.556-4.861 23.782-6.349 51.753C417.505 368.639 276.084 346.482 216.825 340.6c-63.498-6.279-126.684-.138-126.684-.138 84.531 39.523 136.352 72.025 136.352 72.025s-77.559 10.604-225.466 83.181l138.981-6.487c207.097-17.435 408.573 99.995 417.084 104.994 34.335 20.342 68.514 20.946 88.042 12.834 47.498-19.528 38.849-78.442 38.849-78.442 31.619 3.251 69.05 13.319 107.571 37.707l27.087 17.626-82.697 142.838 31.22 22.036L960.06 434.573l-3.649-14.65 8.856-15.066c4.116 1.28 8.511 2.232 13.111 2.232 24.666 0 44.592-20.012 44.592-44.592 0-24.666-19.925-44.609-44.592-44.609z"/></svg>