<svg xmlns="http://www.w3.org/2000/svg" viewBox="0 0 752 1024"><path d="M745.301 533.333V792.07l-63.343-44.677-67.038-171.291h-74.477l89.824 267.754-95.427 42.935-63.271-310.688h-59.576l48.631 344.066-87.706 39.521-87.823-39.521 48.725-344.066h-59.67l-63.155 310.688-95.543-42.935 89.847-267.754h-74.501l-66.92 171.291L.511 792.07V274.501L63.878 319.2l66.92 171.291h74.501l-89.847-267.658 95.543-43.028 63.155 310.687h59.67l-48.725-344.064 87.823-39.451 87.706 39.451-48.631 344.064h59.576l63.271-310.687 95.427 43.028-89.824 267.658h74.477L681.958 319.2l63.343-44.699v258.831z"/></svg>