<svg xmlns="http://www.w3.org/2000/svg" viewBox="0 0 1024 1024"><path d="M1023.889 308.814c.002 0-11.926 77.647-67.229 127.901l22.025-.655c-51.581 56.294-85.514 45.609-85.514 45.609 11.339 11.273 27.645 8.772 27.645 8.772-38.915 33.364-96.77 32.71-96.77 32.71 10.032 6.289 27.645 10.013 27.645 10.013-43.496 19.526-73.05 23.987-91.72 23.4-55.639-1.71-81.707-24.641-81.707-24.641 7.532 17.63 21.354 29.556 21.354 29.556-226.248-22.678-325.263-98.546-325.263-98.546H285.32l-5.183 5.166v45.474s-.521 3.606 3.27 3.606h50.792s9.108.268 9.108 9.696v41.146s15.985 43.377-9.445 43.377c-25.479 0-9.426-45.204-9.426-45.204V539.59c0-4.06-3.473-3.54-3.473-3.54h-54.649c-10.551 0-9.762-10.283-9.762-10.283v-54.784l-5.637-6.608H111.357v28.297H97.198c-21.688 0-25.428-29.22-25.428-29.22h-9.428c.587 0-.72 14.611-.788 15.667-.788 8.504-.855 17.092-3.407 25.346-2.432 8.067-7.933 14.744-10.885 22.612-1.761 4.646.788 6.424 4.328 8.772 2.499 1.71 4.712 4.193 6.692 6.424 6.542 7.532 11.071 16.707 13.889 26.218 3.137 10.551 4.311 21.622 4.311 32.558 0 7.733-.319 15.667-1.309 23.4-1.106 8.387-2.751 17.159-6.743 24.69-3.673 6.944-9.376 12.061-15.196 17.178-5.905 5.166-11.071 11.271-16.456 16.957-32.826 34.806-11.523 74.578-11.523 74.578S-1.214 749.785.162 715.33c1.376-34.152 28.23-53.023 28.23-53.023S4.808 641.609 4.808 596.336c0-14.292 2.031-28.834 7.6-42.069 2.029-4.915 4.528-9.428 7.799-13.687 1.509-2.029 3.086-4.461 2.683-7.079-.452-2.818-3.203-4.596-4.913-6.692-2.55-3.137-4.328-6.811-5.955-10.602-4.849-11.742-6.106-24.506-5.905-37.088.201-11.926.855-24.253 3.992-35.779 1.712-6.49 4.461-12.983 8.069-18.736 9.107-14.493 24.054-23.919 40.492-27.795.451-.067 10.281-1.828 10.281-1.241v-19.794c16.976-13.233 32.039 0 32.039 0v24.508l4.729 5.635h145.195l6.559-8.455V362.54c0-4.262-3.606-4.714-3.606-4.714H233.94s-1.896 32.038-25.479 32.038c-23.601 0-29.222-27.324-29.222-39.569 0-12.262 7.532-35.847 28.298-35.847 20.698 0 24.825 22.68 24.825 22.68l38.932-.002c0 .002 9.762-.988 9.762 11.592v56.226h147.091s98.026 64.143 280.895 64.143c182.886 0 314.848-160.275 314.848-160.275zM38.81 550.14s-17.026 4.714-17.026 37.741c0 32.961 9.426 61.259 19.843 61.259 10.366 0 18.802-19.777 18.802-38.647s-4.712-60.353-21.62-60.353zm951.919-186.743c-32.759 29.421-82.091 66.509-143.485 91.803l-1.056.454c-40.945 16.707-87.006 28.247-137.144 28.247a744.935 744.935 0 0 1-68.403-3.152l-1.56-.135c-126.66-11.725-199.458-51.429-215.059-60.805h-82.879v14.223h19.458s11.59 10.417 23.852 17.949v-.002c11.003 6.76 100.19 65.988 282.539 90.093 0 0-7.866-11.977-3.808-32.29 0 0 20.582 12.177 38.011 18.871 12.177 4.646 31.384 12.245 59.228 13.167 10.685.319 27.643-1.644 51.043-9.108-7.666-4.712-23.064-22.929-23.064-22.929s35.779-1.442 35.845-1.442c1.309 0 32.224-.336 61.778-13.638l-.452-.973c-10.482-7.414-8.001-24.977-8.001-24.977 13.839.923 29.623-2.214 29.623-2.214 7.146-1.442 17.765-5.25 31.066-14.493-10.551.336-21.169.655-21.169.655l29.606-26.923c20.516-18.669 34.405-41.549 44.032-62.382zM35.941 436.062s-15.08 8.521-15.08 35.845 5.637 46.196 14.157 46.196c8.455 0 12.245-32.961 12.245-48.09 0-15.08-1.894-33.951-11.322-33.951zm236.663-24.508l-14.159 8.521v32.039l14.159 8.52v-49.08zm-65.067-84.842s-15.063 1.896-15.063 24.506c0 22.663 15.063 25.481 15.063 25.481s14.157-3.791 14.157-25.481c0-21.688-14.157-24.506-14.157-24.506z"/></svg>