<svg xmlns="http://www.w3.org/2000/svg" viewBox="0 0 1024 1024"><path d="M607.223 614.187l402.109-144.481-562.659-170.177L72.377 419.311l534.845 194.876zm-36.251 137.636c-3.816-13.198-6.634-28.568-6.687-45.266 0-19.816 3.886-38.965 11.745-57.153L13.231 444.411c-.613 1.085-1.225 2.328-1.838 3.623-4.586 9.646-9.994 24.752-9.994 41.975.07 16.28 4.586 31.456 13.81 46.23l555.762 215.583zm49.992 8.488c-5.951-12.515-12.918-31.805-12.865-53.808 0-18.205 4.516-34.956 13.757-51.077l380.72-136.692c-1.575 7.999-2.398 16.14-2.398 24.069 0 15.386 3.081 29.268 9.085 41.363 3.43 6.914 7.946 13.198 13.338 18.676L620.964 760.311z"/></svg>