<svg xmlns="http://www.w3.org/2000/svg" viewBox="0 0 1024 1024"><path d="M777.423 654.576c0-18.93-15.425-34.355-34.355-34.355s-34.273 15.425-34.273 34.355c0 18.929 15.343 34.273 34.273 34.273s34.355-15.345 34.355-34.273zm-162.059 0c0-18.93-15.345-34.355-34.275-34.355s-34.273 15.425-34.273 34.355c0 18.929 15.345 34.273 34.273 34.273 18.93 0 34.275-15.345 34.275-34.273zm408.771-119.169h-151.18c-38.562 0-69.791 31.208-69.791 69.791 0 38.581 31.229 69.811 69.791 69.811l24.66.22s31.529 9.856 31.529 61.658c0 51.722-31.229 62.459-31.229 62.459H399.562s-31.23-10.737-31.23-62.459c0-51.802 31.45-61.658 31.45-61.658l49.379-.22c39.984 0 72.375-32.492 72.375-72.395 0-39.984-32.391-72.376-72.375-72.376-189.822 0-193.509-56.108-193.509-56.108S36.484 461.931-.295 298.77h323.094l24.719-31.449h676.777l-.16 268.087z"/></svg>