<svg xmlns="http://www.w3.org/2000/svg" viewBox="0 0 631 1024"><path d="M308.437 78.711C415.534 224.53 522.914 370.162 629.886 516.106c-55.542-21.871-111.084-43.774-166.56-65.865-42.016 47.696-83.814 95.613-125.988 143.184-.094-81.085-.094-162.169 0-243.253-64.829 67.999-129.879 135.777-194.645 203.808-47.036-17.509-94.075-35.113-141.112-52.654C103.785 360.403 206.144 219.605 308.438 78.711zM168.141 616.395c41.735-47.259 83.47-94.515 125.391-141.583.096 81.021.159 162.041-.031 243.063 64.988-68.5 130.256-136.719 195.304-205.158 47.005 17.574 94.012 35.082 141.02 52.656-102.173 140.923-204.501 281.723-306.734 422.583C216.057 842.545 109.085 696.915 2.052 551.597c.282-.534.91-1.632 1.224-2.166 4.173 2.103 7.939 4.864 12.269 6.716 50.896 19.956 101.792 40.008 152.596 60.249z"/></svg>