<svg xmlns="http://www.w3.org/2000/svg" viewBox="0 0 942 1024"><path d="M757.528 636.458c75.312 90.837 178.904 125.449 178.904 125.449-161.544 102.218-312.088 5.569-312.088 5.569 81.758-24.218 63.109-150.518-68.759-150.518-131.895 0-100.408 135.624-100.408 135.624-128.136 76.163-211.789 236.034-211.789 236.034-102.218-187.708 0-321.524 0-321.524 24.218 66.949 139.382 100.383 139.382-46.378 0-146.786-141.219-105.977-141.219-105.977C176.523 373.546-.023 308.517-.023 308.517c169.167-100.381 319.576 1.81 319.576 1.81-48.326 14.893-61.271 126.437 68.786 126.437L492.368 306.68s107.758-20.46 209.979-228.628c0 0 113.354 165.438 3.756 319.603 0 0-20.46-55.732-70.596-55.732-50.163 0-76.19 65.056-76.19 92.894 0 27.866 26.027 126.437 98.46 126.437 0 0 25.918 3.621 40.922-22.297 0 0 15.441 45.226 58.83 97.502z"/></svg>