<svg xmlns="http://www.w3.org/2000/svg" viewBox="0 0 29 32"><path fill="#000" fill-rule="nonzero" d="M13.083 28.558a86.44 86.44 0 0 0-.023 3.339c-.769-.006-1.54-.006-2.309 0 .233-1.108.432-2.222.613-3.339H13.083ZM23.57 14.225c-2.018 2.455-4.079 4.873-6.12 7.309-.501-1.318-1.008-2.637-1.595-3.918 2.556-1.163 5.155-2.234 7.714-3.391h.001ZM28.8.103c-1.082 1.477-2.021 3.069-3.207 4.459-1.885.838-3.86 1.457-5.769 2.239a217.47 217.47 0 0 1-.599 3.302c1.831-.861 3.676-1.687 5.504-2.553-.017.21-.049.628-.063.838-1.805.855-3.662 1.609-5.432 2.53-.409.59-.317 1.436-.512 2.122 1.822-.887 3.685-1.684 5.504-2.582 0 .201.006.599.009.797-1.819.878-3.687 1.658-5.495 2.562-1.425 1.022-2.66 2.283-4.033 3.374-.046 4.888.003 9.778-.003 14.666 3.926-5.55 7.752-11.172 11.655-16.736.302-.443.659-.892.688-1.454.584-4.519 1.218-9.036 1.753-13.564Zm-1.793 16.92c-.245.282-.486.567-.702.872-3.103 4.499-6.218 8.99-9.344 13.475 2.833-1.523 5.705-2.974 8.558-4.462.461-3.299.921-6.6 1.488-9.885Zm-16.348 2.424c-.812.653-1.626 1.304-2.432 1.969.043 2.974.043 5.95.066 8.924.492.245.982.492 1.471.746.199-1.29.426-2.573.659-3.857.884.026 1.767.032 2.654.032.009-.458.02-.912.032-1.37a75.672 75.672 0 0 0-2.476.009c-.017-2.15-.012-4.301.026-6.451v-.002Zm-8.946-3.011c.291 3.886.553 7.775.864 11.658 1.419.576 2.838 1.154 4.257 1.727-.017-2.864.02-5.725-.009-8.587-.849-.461-1.693-.927-2.539-1.396-.184-.636-.296-1.304-.581-1.906-.605-.573-1.324-1.005-1.992-1.497v.001Zm9.133-3.587c.32 1.71.797 3.397 1.016 5.124-.003 2.202-.029 4.407-.003 6.609l1.232-.035c.014-3.644-.017-7.291.006-10.939-.748-.256-1.5-.512-2.251-.76v.001Zm-8.687-2.458c1.972.855 3.944 1.716 5.93 2.542.098.363.193.725.288 1.091-1.842-.855-3.736-1.589-5.582-2.432-.524-.155-.466-.789-.636-1.2v-.001Zm.437 2.427c1.952.93 3.964 1.716 5.933 2.602.078.337.153.671.23 1.008-1.98-.855-3.967-1.698-5.941-2.565-.072-.348-.147-.697-.222-1.045ZM0 6.724c.484 2.484.872 4.986 1.393 7.461 1.31 1.192 2.873 2.098 4.286 3.175a86.624 86.624 0 0 1 4.727.014c-.282-1.701-.653-3.385-.99-5.078-1.733-.714-3.469-1.428-5.199-2.156-.377-1.137-.743-2.277-1.128-3.414-1.031.006-2.058.003-3.089-.003v.001ZM19.358.44a115.208 115.208 0 0 1-3.247 5.256c-.461-.02-.924-.043-1.387-.066l-.003 1.675c.291-.02.872-.063 1.163-.084-.38 1.295-.846 2.568-1.134 3.889-.118 1.416-.014 2.841-.066 4.26.838-.746 1.808-1.362 2.556-2.202.777-4.229 1.413-8.486 2.119-12.729l-.001.001Zm-6.312 5.187c-2.867.023-5.786.417-8.391 1.681l.463 1.385c2.643 1.114 5.314 2.159 7.954 3.276.003-.556.003-1.114.003-1.67a27.901 27.901 0 0 1-3.063-2.409 31.482 31.482 0 0 1 3.06-.642c-.012-.541-.02-1.079-.026-1.621Z"/></svg>
