<svg xmlns="http://www.w3.org/2000/svg" viewBox="0 0 1024 1024"><path d="M817.636 218.652c41.884.18 78.418 11.784 108.602 27.298 61.844 31.784 97.046 79.982 97.044 79.982-93.866 4.5-106.914 64.29-107.344 82.13-.738 30.42 13.478 51.996 13.478 51.996l40.262 18.98v40.328l-40.262 18.98s-14.75 22.856-13.414 52.54c.802 17.828 13.414 77.086 107.28 81.586.002 0-32.614 46.026-91.542 77.784-31.04 16.728-69.382 29.496-114.104 29.496-129.626 0-236.906-62.588-292.796-165.386 0 0 86.084 63.672 201.214 63.672 87.152 0 114.946-47.66 114.946-77.838 0-30.126-27.794-74.118-96.018-74.118-68.17 0-108.362 22.328-108.362 22.328s-10.066-23.478-93.866-23.478H47.676l-22.414 10.064L.718 499.168l24.544-35.76 22.414 10.064h495.078c83.8 0 93.866-23.478 93.866-23.48 0 .002 40.192 22.346 108.362 22.346 68.224 0 96.018-37.96 96.018-68.138 0-30.196-27.794-83.834-114.946-83.834-115.13 0-201.214 63.74-201.214 63.74 55.89-102.848 163.172-166.014 292.796-165.454z"/></svg>