<svg xmlns="http://www.w3.org/2000/svg" viewBox="0 0 901 928"><path d="M450.5 928 80.628 580.977V289.339L.5 212.121 225.5 0h137.296c13.486 37.465 42.274 56.384 86.363 56.76l1.341.005c44.847 0 74.082-18.922 87.704-56.765H675.5l225 212.12-80.128 77.22v291.637L450.5 928Zm0-645.129c74.196 0 134.344 60.207 134.344 134.476 0 74.27-60.148 134.476-134.344 134.476s-134.344-60.207-134.344-134.476S376.304 282.871 450.5 282.871Zm0 36.574c-54.017 0-97.806 43.832-97.806 97.902s43.79 97.902 97.806 97.902c54.017 0 97.806-43.832 97.806-97.902s-43.79-97.902-97.806-97.902Zm0 60.672c20.542 0 37.194 16.668 37.194 37.23 0 20.562-16.652 37.23-37.194 37.23s-37.194-16.668-37.194-37.23c0-20.562 16.652-37.23 37.194-37.23Zm-54.184-237.4-4.592 76.298c-15.612 5.67-28.698 12.027-39.26 19.075l-62.22-48.032-70.484 68.716 49.592 66.647c-9.643 14.248-15.995 28.037-19.056 41.367l-76.225 5.285v95.834l75.995 6.894c7.653 19.918 15.46 33.707 23.419 41.367l-52.347 64.809 69.336 67.336 61.302-51.02c16.683 11.032 31.53 18.386 44.54 22.063l5.28 75.84h97.807l5.28-75.84c13.01-3.677 27.858-11.031 44.541-22.062l61.302 51.019 69.336-67.336-52.347-64.809c7.96-7.66 15.766-21.45 23.419-41.367l75.995-6.894v-95.834l-76.225-5.285c-3.061-13.33-9.413-27.119-19.056-41.367l49.592-66.647-70.485-68.716-62.22 48.032c-10.56-7.048-23.647-13.406-39.26-19.075l-4.591-76.299H396.316Z" fill="#000" fill-rule="evenodd"/></svg>
