<svg xmlns="http://www.w3.org/2000/svg" viewBox="0 0 1024 1024"><path d="M1022.624 526.148c0-25.755-11.047-40.556-11.047-40.556H808.765c-22.146 0-25.774 22.129-25.774 22.129H406.876s0-47.973-77.428-47.973v-66.33s-44.184 22.146-44.184 70.028h-55.301l-25.829-77.428-33.172 73.73h-44.256v33.244L1.375 529.847v.215l125.331 36.801v33.227h44.256l33.172 73.73 25.829-77.428h55.301c0 47.901 44.184 70.028 44.184 70.028v-66.33c77.428 0 77.428-47.973 77.428-47.973h376.115s3.628 22.146 25.774 22.146h202.812s11.047-14.746 11.047-40.573v-7.543z"/></svg>