<svg xmlns="http://www.w3.org/2000/svg" viewBox="0 0 789 1024"><path d="M387.719 76.496l-1.106.753L266.6 157.95v726.535l.222.22L387.719 990.17l1.195-1.017 119.924-104.668V157.95l-.309-.177-120.81-81.277zM213.094 190.23l-1.195 1.15L.793 392.978l.044.353c22.799 136.728 80.565 211.123 115.591 263.286 17.514 26.083 29.28 46.572 28.344 66.42-.934 19.847-14.529 39.354-48.242 63.587l-.531.399.353.529c37.263 61.479 78.915 81.719 115.9 88.088l.841.131V190.229zm345.225 0v685.542l.841-.131c36.985-6.369 78.636-26.607 115.9-88.088l.353-.529-.529-.399c-33.715-24.233-47.311-43.74-48.244-63.587-.935-19.849 10.831-40.337 28.344-66.418 35.026-52.164 92.791-126.56 115.591-263.287l.044-.353-.266-.265-212.035-202.484z"/></svg>