<svg xmlns="http://www.w3.org/2000/svg" viewBox="0 0 744 1024"><path d="M203.742 128.727c46.368-10.236 88.296-33.174 131.334-52.534 8.386 38.352 23.554 91.748-14.058 119.002-65.112 49.698-151.066 45.998-228.632 45.628 4.07 120.482-24.418 246.758 23.308 361.814 44.764 110.618 138.608 188.8 226.288 265.134 1.11 40.696 2.712 81.39 2.096 122.208-140.83-115.302-291.524-246.266-329.63-433.338C-7.994 423.087 8.9 286.573 2.61 151.787c66.838-9.988 135.65-4.192 201.132-23.06zm205.694-52.164c-6.658 38.228-22.814 90.022 14.058 117.768 64.99 50.808 152.052 46.862 229.99 46.122-4.44 114.192 20.594 232.33-16.648 343.07C595.4 703.265 496.5 788.479 402.778 867.649c-.988 40.94-2.59 81.76-1.974 122.824 57.96-49.08 116.782-97.174 169.44-152.052 94.46-95.94 165.616-222.218 170.424-359.224 1.358-109.138-.74-218.396.988-327.534-39.956-3.082-79.664-8.508-119.866-9.372-75.224-3.206-145.762-32.556-212.354-65.728zM134.808 282.997c4.438 112.59-18.622 233.318 34.158 338.138 39.338 73.744 96.066 141.816 170.056 182.634-12.578-70.414-7.03-142.432-18.744-212.846-4.316-101.122-17.512-201.378-19.608-302.5-55.37 5.55-111.11 4.564-165.862-5.426zm309.65 5.55c-4.932 172.522-31.446 343.688-31.568 516.332 70.414-52.164 134.54-117.398 170.302-198.542 43.778-102.108 21.458-215.436 26.636-322.97-54.63 9.372-110.246 10.606-165.37 5.18z"/></svg>