<svg xmlns="http://www.w3.org/2000/svg" viewBox="0 0 32.3 37.7"><path d="M.2 4.5l19.5 26s2.6 2.7-.3 5.4c0 0-1.4 1.3-3.7 1.8 0 0-10.1-3.7-14.9-10.6 0 0 2-4.1 2.2-9.2l10.8 10.8L3 15.3S3.3 9.2.2 4.5z"/><path d="M7.3 1.1c-.8 2.3.3 4.6 1.1 5.6L26 30.4c-.9.9-2.2 1.9-3.3 2.6-.1-2-1.3-3.6-1.5-3.8L1.4 2.7c1.9-1.1 4.3-1.5 5.9-1.6M8.9 0C8 0 3 .1 0 2.5l20.5 27.4s2.4 2.8.7 5.4c0 0 4.5-2.6 6.2-4.8L9.2 6.1S6.7 3 9 0h-.1z"/><path d="M11.2 7.2l16.9 22.5s1.8-1.8 2.4-3.5l-10-12.4 8.5 7.8S27.5 9.7 32.3 3.1c0 0-3-3.1-9.9-3 0-.1 4.1 9.2-11.2 7.1z"/></svg>
