<svg viewBox="0 0 13 14" xmlns="http://www.w3.org/2000/svg"><path d="M8.472 0c.056 1.216.424 1.976 1.102 2.279.598.3 1.227.258 1.886-.124l1.507 2.2c-1.005.569-1.507 1.488-1.507 2.759V9.99c-.958 1.887-2.626 3.224-5.003 4.01-2.377-.786-4.027-2.123-4.95-4.01V7.114c0-1.27-.502-2.19-1.507-2.759l1.507-2.2c.66.382 1.288.423 1.886.124C4.07 1.976 4.439 1.216 4.495 0h3.977zM5.33 10.253c-.557.654-1.135 1.144-1.735 1.47.356.362.864.63 1.524.805.303-.564.567-1.21.793-1.937l.015-.05a1.929 1.929 0 01-.597-.288zm2.254 0c-.178.128-.38.226-.597.288l.016.05.034.109c.218.683.47 1.293.758 1.828.66-.175 1.168-.443 1.524-.804-.6-.327-1.178-.817-1.735-1.47zM2.116 8.755c.042.662.207 1.235.494 1.72.796-.082 1.484-.272 2.066-.57a2.53 2.53 0 00.197-.112 1.927 1.927 0 01-.205-.369 3.509 3.509 0 00-.147-.009c-.9-.014-1.702-.234-2.405-.66zm8.683 0c-.703.426-1.505.646-2.406.66a3.509 3.509 0 00-.147.01 1.927 1.927 0 01-.205.368c.055.035.12.072.198.112.581.298 1.27.488 2.065.57.288-.485.452-1.058.495-1.72zm-7.9-4.001a6.487 6.487 0 00-.78 2.36 5.449 5.449 0 002.4 1.599 1.977 1.977 0 01.15-.787C3.8 7.208 3.21 6.15 2.899 4.754zm7.116 0c-.311 1.397-.901 2.454-1.77 3.172a1.932 1.932 0 01.15.787 5.449 5.449 0 002.4-1.6 6.487 6.487 0 00-.78-2.36zm-3.233-3.66v5.67l.054.01c.23.045.446.132.64.251l.044.028v.025-.035c.009-2.142.42-3.469 1.235-3.98l.027-.017c-.667-.794-1.333-1.444-2-1.952zm-.65 0c-.666.508-1.333 1.158-2 1.952.833.499 1.253 1.831 1.262 3.997v.01l.045-.028c.208-.129.442-.22.693-.261v-5.67z" fill="#000" fill-rule="nonzero"/></svg>
