<svg xmlns="http://www.w3.org/2000/svg" viewBox="0 0 32 32"><path d="M13.974 6.903a3.833 3.833 0 013.553-.265c1.147.492 1.991 1.546 2.343 2.729.931-.638 2.253-.638 3.146.07 1.113.818 1.464 2.423.904 3.668.77.208 1.403.869 1.496 1.673.125.764-.251 1.538-.87 1.985.655.51 1.068 1.34.96 2.18-.082 1.111-1.05 2.116-2.188 2.108-.896.031-1.684-.59-2.051-1.377-.877.071-1.879-.227-2.633.365-.571.372-.776 1.074-.827 1.719-.051.733-.176 1.535.208 2.205.265.505.74.907 1.312.998 1.139.247 2.313.215 3.47.254-.231.465-.662.83-1.188.89-.773.089-1.556-.019-2.331.055-.414.085-.333.764-.788.763-.306.044-.377-.301-.524-.49-.14-.301-.533-.337-.819-.267-.459.114-.443.732-.831.936-.274.085-.666.095-.833-.184-.195-.255-.269-.658-.618-.749-.29-.075-.692-.039-.831.267-.145.188-.213.526-.516.489-.462.007-.379-.689-.802-.765-.774-.071-1.555.035-2.327-.054-.526-.062-.956-.426-1.186-.89 1.191-.042 2.402-.003 3.571-.277.927-.204 1.515-1.19 1.479-2.1-.019-.634-.025-1.281-.216-1.892-.2-.658-.819-1.14-1.485-1.258-.606-.035-1.213-.001-1.818-.013-.365.786-1.151 1.405-2.043 1.377-1.14.011-2.112-.994-2.194-2.107-.107-.839.303-1.671.96-2.181-.829-.569-1.151-1.751-.662-2.642.252-.513.751-.853 1.286-1.018-.336-.803-.361-1.74.009-2.537.418-.962 1.402-1.671 2.463-1.673.565-.024 1.105.187 1.581.474.301-1.002.943-1.912 1.84-2.464zm-.962 6.974a7.216 7.216 0 011.9 1.873c-.005-.976.001-1.953-.004-2.929a4.973 4.973 0 00-1.896 1.056zm4.082-1.055c-.005.976.001 1.953-.003 2.929a7.235 7.235 0 011.899-1.875 5.016 5.016 0 00-1.896-1.054zm-5.044 2.331a5.996 5.996 0 00-.545 1.804c.916-.054 1.855.087 2.658.551-.49-.947-1.179-1.813-2.112-2.354zm5.79 2.353c.803-.463 1.74-.606 2.656-.548a5.914 5.914 0 00-.544-1.806c-.933.543-1.617 1.41-2.112 2.354zM5.254 8.891c-.5 1.232-.999 2.462-1.501 3.691 1.084.004 2.166.001 3.25.001-.224-1.342.223-2.792 1.253-3.701-1 .017-2.001.003-3.001.009zm18.493-.008c1.031.908 1.477 2.358 1.253 3.701 1.084-.001 2.167.001 3.251-.001-.502-1.23-1.003-2.46-1.503-3.692-1-.007-2.001.008-3.001-.008zM1.561 13.507c-.518 1.03-1.045 2.056-1.559 3.089.524 1.021 1.037 2.049 1.559 3.071l4.207.001a3.534 3.534 0 01.43-2.903 3.168 3.168 0 01-.064-3.261c-1.524.007-3.048 0-4.573.003zm24.307-.003a3.166 3.166 0 01-.062 3.261c.548.854.718 1.927.428 2.903h4.21c.518-1.027 1.039-2.052 1.558-3.078-.52-1.029-1.041-2.055-1.56-3.083-1.524-.003-3.05.004-4.574-.003zM3.754 20.6c.501 1.227 1 2.455 1.499 3.682 2.345-.048 4.706.134 7.037-.175a1.154 1.154 0 001.092-1.123c-.012-.641.023-1.323-.244-1.919-.406-.658-1.261-.436-1.902-.463-.62.894-1.707 1.479-2.808 1.354-.902-.079-1.695-.633-2.21-1.358-.821 0-1.642-.001-2.463.001zm15.222.32c-.368.457-.301 1.097-.355 1.646-.066.529.093 1.156.604 1.413.666.22 1.378.236 2.073.277 1.816.052 3.634.02 5.451.028.498-1.229.998-2.456 1.499-3.684-.821-.003-1.641-.001-2.462-.001-.517.724-1.309 1.279-2.212 1.358-1.101.125-2.188-.459-2.808-1.355-.598.043-1.329-.183-1.791.318z"/></svg>
