<svg xmlns="http://www.w3.org/2000/svg" viewBox="0 0 134 84"><path d="M89.411 8.71c-1.956 3.128-5 5.847-9.128 8.157 5.686-.84 9.86-2.69 12.52-5.55 11.27 13.336 11.85 24.36 11.85 30.965 0 4.403-2.31 7.677-6.93 9.82-3.785 1.197-7.024 1.956-9.718 2.276-2.694.321-3.944 1.704-3.751 4.15.496 12.3.744 19.181.744 20.643 0 1.461-.622 2.363-1.868 2.704-1.198.303-1.962.519-2.293.648-.497.195-1.526-.194-1.932-1.909-.142-.602-.18-1.814-.184-3.168v-.633l.001-.321.004-.645c.003-.51.007-1.014.008-1.491v-.468c-.003-1.216-.036-2.183-.166-2.468-.38-.833-1.032-1.67-2.39-1.905-.906-.157-1.465.154-1.677.934-.158 3.684-.237 5.86-.237 6.53 0 .668-.34 1.167-1.017 1.495-.93.464-1.876.79-2.842.979-.918.179-1.367-.24-1.35-1.257l.007-.166v-7.115c-.077-1.184-.736-1.776-1.977-1.776-1.178 0-1.82.535-1.922 1.603l-.012.173v7.115c0 1.543-.297 2.404-.891 2.584-.267.272-1.082.544-2.444.817-1.363.273-2.11-.48-2.238-2.26-.327-5.362-.491-8.27-.491-8.722 0-.68-.663-1.687-2.077-1.687-.888 0-1.462.498-1.723 1.494l-.046.193v11.426c-4.339 2.078-6.508 1.379-6.508-2.097 0-3.477.324-9.593.974-18.35.964-3.991-.702-6.341-4.999-7.05-6.445-1.063-17.107-3.037-15.484-17.53 1.082-9.663 5.758-18.79 14.03-27.384.167 4.45 1.088 7.47 2.765 9.061 1.677 1.592 5.34 2.43 10.99 2.515-3.735-1.236-6.17-2.87-7.302-4.902-1.699-3.048-1.699-8.828-1.421-10.307 5.61-3.755 27.148-9.93 41.125 2.88ZM46.02 58.529V73.62H22.947l-6.49-15.093H46.02Zm71.242 0-6.489 15.093H87.7V58.528h29.561ZM68.94 43.918l-.797 11.21c-.18 1.732-.532 2.742-1.058 3.03-.788.434-1.616-2.638-2.054-14.24-1.285 1.617-4.82 5.77-3.59 18.978 4.014-1.172 7.705-1.172 11.074 0 .97-7.856-.22-14.182-3.575-18.978Zm-42.265-14.01c-2.954 11.877-1.207 20.034 5.24 24.47H7.733L1 42.282l6.732-12.375h18.943Zm99.312 0 6.732 12.374-6.732 12.096h-24.184c6.353-4.37 8.142-12.354 5.368-23.949l-.127-.522h18.943Zm-88.26 5.347c-1.441 3.537-3.583 9.469 4.857 11.427h13.23c2.98.115 4.261-1.892 3.846-6.02-.738-4.25-5.046-10.755-10.328-11.681-5.906-1.074-9.376 1.688-11.605 6.274Zm58.573 0c-2.228-4.586-5.698-7.348-11.605-6.274-5.281.926-9.59 7.43-10.327 11.681-.416 4.128.866 6.135 3.846 6.02h13.23c8.44-1.958 6.297-7.89 4.856-11.427ZM36.828 10.92c-3.747 4.861-6.689 9.93-8.824 15.21H16.522l6.238-15.21h14.068Zm74.131 0 6.238 15.21h-11.482c-2.028-5.015-4.784-9.842-8.268-14.479l-.556-.73h14.068Z" stroke="#000" stroke-width="1.5" fill="#000" fill-rule="nonzero"/></svg>
