<svg xmlns="http://www.w3.org/2000/svg" viewBox="0 0 1024 1024"><path d="M730.875 83.744s53.955 5.852 53.955 61.631l200.224 55.779s50.021 19.287 34.572 84.756L854.137 903.742s-34.666 46.252-75.066 34.644l-267.006-73.429-267.075 73.428c-40.4 11.61-75.066-34.642-75.066-34.642L4.341 285.911c-15.355-65.469 34.666-84.756 34.666-84.756l200.224-55.779c0-55.779 53.859-61.631 53.859-61.631h437.784zm-1.732 23.15H294.824c-2.458.445-10.228 2.178-17.461 7.045-10.322 6.835-15.075 16.807-15.075 31.437v17.555S49.869 222.198 46.779 223.018c-5.594 2.551-22.236 12.616-22.236 39.207 0 5.407.749 11.445 2.294 18.304.282 1.007 161.463 602.641 164.13 612.332 7.023 8.052 27.972 28.977 47.729 23.407l273.37-75.254 273.302 75.254c19.756 5.571 40.612-15.355 47.727-23.407 2.669-9.69 163.85-611.325 164.132-612.332 1.545-6.859 2.294-12.897 2.294-18.304 0-26.592-16.736-36.656-22.236-39.207-3.091-.821-215.603-60.087-215.603-60.087l-.002-17.555c.002-14.63-4.751-24.602-14.979-31.437-7.233-4.867-15.005-6.6-17.555-7.045h-.002zM257.696 193.64v594.121s5.033 38.598 35.93 38.598h166.775L237.12 887.896s-12.803 6.39-19.287-7.678L53.609 270.626c0 .002-6.484-19.217 8.965-24.32l195.121-52.666zm508.754-1.287l194.935 52.666c15.449 5.127 9.035 24.32 9.035 24.32L806.124 878.931c-6.32 14.092-19.193 7.678-19.193 7.678L563.65 824.978h166.847c30.734 0 35.953-38.482 35.953-38.482V192.352zm-39.135-57.699c8.965 0 10.228 11.517 10.228 11.517V785.21c0 10.252-10.228 12.803-10.228 12.803h-429.85c-9.035 0-9.035-12.803-9.035-12.803V146.171c0-7.677 9.035-11.517 9.035-11.517h429.85zm-163.702 79.079c-3.84.213-2.251-.121-4.832.621q-10.31 5.156-16.201 15.095-5.891 9.941-10.677 22.828-2.21-1.104-10.126-2.393t-18.041-2.393q-10.126-1.106-20.251-1.841t-16.015-.737q-26.51.002-51.915 8.837-25.405 8.837-45.657 25.774-20.25 16.937-32.585 41.974t-12.334 57.438q0 35.347 11.23 60.568t29.455 41.236q18.225 16.017 41.789 23.564 23.566 7.549 48.234 7.549 6.26 0 13.807-.369l3.886-.167-1.432 3.028q-11.757 26.544-11.757 63.241 0 26.365 8.55 48.276 8.552 21.912 24.941 37.588 16.389 15.677 40.26 24.585t54.868 8.907q7.839 0 18.171-.534t20.664-1.425 19.417-1.425 14.43-.534q6.414 0 8.373 5.521 1.959 5.523 2.673 10.511.712 3.207 3.384 3.384t6.234-1.248q-1.78-6.057-2.493-14.964-.712-8.907-.712-18.169 0-11.402 1.78-20.309 1.07-4.632 2.138-8.55 0-1.782-1.959-2.85t-3.384-1.068q-.357 0-1.427 1.068-2.137 4.989-7.66 11.401-5.523 6.414-14.43 12.291-8.907 5.879-21.733 9.977-12.827 4.098-29.571 4.098-17.459 0-30.819-5.345t-22.98-14.43-16.034-20.664q-6.412-11.58-10.332-24.049-3.919-12.471-5.521-24.941-1.604-12.469-1.604-23.158 6.057-.357 20.844-.713 14.785-.355 39.013-.355 12.826 0 23.871.355 11.046.357 19.773 1.961 8.73 1.603 14.252 4.809t6.948 8.907q.712 2.493 4.096 3.919 3.386 1.425 4.098-2.137 0-8.907 1.425-17.103 1.425-8.194 3.564-14.964 2.137-6.769 3.919-11.935t2.493-8.373q-1.068-1.425-3.741-1.782-2.671-.357-4.096 1.782-2.85 2.85-9.62 5.344t-16.032 4.454-20.308 3.028q-11.046 1.07-22.446 1.07-4.989.355-14.964.177-9.977-.177-20.666-.534-10.687-.357-19.773-1.068-9.085-.713-11.935-1.427 1.068-18.883 6.769-36.519t15.321-31.353q9.619-13.716 22.803-22.089 13.182-8.373 29.215-8.373 14.251 0 25.653 3.741 11.401 3.741 19.596 9.443 8.194 5.7 13.182 11.935t6.769 11.223q1.425 4.989 5.166 5.166 3.741.179 4.454-2.673 1.425-10.687 3.384-19.239 1.959-8.55 3.741-13.182 4.275-15.321 9.798-26.187t13.716-17.28q4.989-3.562 2.495-5.7-2.495-2.137-8.552-3.919-4.987 0-8.55 6.591t-6.234 14.251q-2.673 7.661-4.454 14.073-1.782 6.414-3.562 6.057-2.85-.712-9.62-1.603t-15.676-1.782-18.884-1.425q-9.975-.534-18.526-.534-28.503 0-54.513 8.016-26.008 8.016-45.961 25.119c-9.4 8.554-18.178 18.009-24.175 29.331-11.889 1.966-6.518 1.493-16.063 1.881q-18.778 0-34.611-9.02-15.831-9.021-27.245-26.327-11.414-17.304-17.859-42.158-6.443-24.852-6.443-56.885 0-23.195 5.154-43.447 5.156-20.25 14.913-34.978 9.757-14.727 23.933-23.197 14.174-8.467 32.217-8.467 16.937 0 29.271 4.417 12.334 4.419 20.618 11.783t12.887 16.568q4.603 9.206 6.076 18.41 2.944 2.21 5.154 2.208 1.473.002 2.946-1.289 1.473-1.289 1.473-3.128 0-3.314.367-8.102.369-4.785 1.106-9.941.736-5.154 1.655-10.493.922-5.338 1.657-9.388 1.473-8.468 4.234-16.753t6.444-14.729q3.681-6.443 7.916-10.493t8.653-4.052q1.473.002 2.393-.736.92-.736 2.761-4.05 0-2.946-3.681-3.683l-1.795-.253z"/></svg>