<svg xmlns="http://www.w3.org/2000/svg" viewBox="0 0 727 1024"><path d="M405.779 844.199l-25.965-43.08c124.692-35.941 215.869-150.822 215.869-287.034 0-165.043-133.705-298.776-298.776-298.776-54.794 0-106.254 14.884-150.409 40.6l-9.895-50.275c48.014-24.97 102.615-39.194 160.304-39.194 191.751 0 347.672 155.894 347.672 347.645 0 153.66-100.244 284.361-238.8 330.114zM104.081 590.544c-35.198-88.282-23.345-218.68 125.657-277.996 30.153-12.071 89.687-24.446 143.406-21.856l38.973 97.543-12.486 4.961c-41.895-74.308-111.875-79.904-169.26-56.972-63.724 25.412-102.697 107.245-60.609 212.975 40.791 102.393 129.736 174.938 212.644 141.891 35.857-14.305 82.355-60.609 94.097-151.153l29.933 62.539c-33.819 61.493-79.022 97.241-130.287 117.583-165.789 66.094-248.366-70.202-272.068-129.516zM296.907 93.126c-66.094 0-129.958 15.186-187.535 43.935 0 0-50.19-18.964-77.752-76.983 0 0-38.118 84.065 32.082 128.331l23.704 113.804C33.687 356.043.612 430.324.612 512.377c0 163.113 131.142 295.634 293.815 297.894l56.532 82.493c16.812 53.499 1.516 106.998 1.516 106.998 45.865-16.896 83.212-88.172 83.212-88.172 59.011-20.562 113.171-54.354 158.814-100.024 79.573-79.544 123.397-185.165 123.397-297.481 0-232.131-188.858-420.96-420.989-420.96z"/></svg>