<svg xmlns="http://www.w3.org/2000/svg" version="1.0" viewBox="0 0 900 900"><path d="M484.5 31.1c-123.1 5.3-239.1 66.7-314.9 166.7C99.2 290.8 71 410 92 525.7c23.6 129.7 108.8 242.2 227.9 300.7 46.5 22.8 94.1 36.3 146.1 41.2 23 2.2 71.2 1.4 92.5-1.5 79.4-10.8 147.8-40 209-89.2C779.9 767 799 749.4 799 748c0-.8-158.6-148-159.4-148-.3 0-4.7 3.3-9.8 7.2-51.4 40.2-115 53.4-177.4 36.8-70.6-18.7-125.6-75.4-143.3-147.5-4-16.5-4.6-22.6-4.6-46.5s.6-30 4.6-46.5c5-20.4 14.1-42.2 24.7-59.2 32.9-52.9 88.4-87.7 150.7-94.4 13.5-1.4 39.5-.6 52 1.6 36.7 6.5 69.1 21.3 96.8 44.2l7.9 6.5 5.2-4.9c2.8-2.8 38.8-36.2 80-74.3l74.9-69.4-10.3-9.9c-19.9-19-53.3-43.7-78.5-57.9-70-39.6-147.2-58.1-228-54.7z"/></svg>
