<svg xmlns="http://www.w3.org/2000/svg" viewBox="0 0 740 1024"><path d="M473.256 657.203l114.678 133.138c-48.754 78.052-113.748 144.812-192.712 192.25-14.098 6.842-5.872 3.528-25.088 8.862-19.214-5.336-10.988-2.02-25.088-8.862-78.478-46.918-146.526-114.098-193.558-192.784L263.9 659.297c26.322 41.022 56.91 79.1 88.24 116.356 7.936 9.07 22.676 10.204 30.612 0 33.334-36.984 63.36-76.75 90.504-118.45zm266.102-348.558L574.892 431.181c-17.386 63.874-41.11 126.138-75.38 183.018l114.402 132.816c15.424-26.654 28.946-54.364 41.406-82.518 48.534-109.62 86.894-234.434 84.038-355.852zM.692 311.013c-2.878 99.742 25.944 202.728 60.486 294.96 18.664 48.012 38.572 95.74 64.378 140.45l111.61-129.574c-34.118-57.996-63.592-119.468-75.854-186.164L.69 311.013zm582.696-235.8l-426.508.002c-27.712 0-50.176 22.464-50.178 50.176 1.022 20.222 11.716 38.714 31.212 46.214 7.05 4.822 10.134 6.198 15.522 14.606 16.698 26.058-1.924 59.694-28.02 70.008l-40.988 3.046c-20.414 1.79-41.124 3.004-60.856 8.99l154.402 115.036c42.416-30.7 88.098-67.658 102.74-120.096 2.374-3.898 8.878-4.808 12.76-5.544 20-3.798 40.644-3.086 60.844-4 30.12.204 34.208-.114 63.748 1.402 4.656.24 36.232 1.16 41.782 5.876 15.63 51.994 56.31 91.29 99.454 122.062l154.836-115.362c-4.374-1.072-8.684-2.466-13.126-3.214-17.974-3.026-28.07-3.65-45.172-5.15l-40.968-3.044c-35.226-16.078-49.458-61.274-12.516-84.616 18.86-7.968 30.924-25.614 31.21-46.214 0-27.712-22.464-50.176-50.178-50.178z"/></svg>
