<svg xmlns="http://www.w3.org/2000/svg" viewBox="0 0 784 1024"><path d="M386.108 34.123c2.038-3.964 9.71-3.964 11.784 0 21.31 29.564 44.148 57.966 66.586 86.66 2.69 4.364 8.072 8.8 4.982 14.4-16.256 8.256-34.584 18.802-37.384 38.694.8 24.62 20.292 42.948 37.492 58.184 26.874 17.856 58.804 30.548 91.57 28.73 23.528 1.054 45.93-7.164 68.804-11.382 33.82-6.62 65.714-20.038 97.06-33.93-.764 4.092-.422 8.754-.756 12.884-.588 7.246-1.538 13.99-1.862 21.264-3.528 35.82-14.51 70.332-26.474 104.116-1.418 6.254-8.436 4.69-13.128 5.09-196.34-.218-392.68.036-589.018-.108-5.382 1.054-9.856-2.22-10.728-7.602-9.456-28.146-19.092-56.44-23.312-85.932-2.594-12.468-2.974-23.302-4.352-37.668-.368-3.84-.416-7.874-1.356-11.644 16.692 3.892 30.728 14.582 47.274 18.91 28.984 10.91 59.496 16.364 89.57 23.202 42.766 9.236 88.514-1.71 123.536-27.53 16.364-15.054 34.91-32.802 35.528-56.584-2.69-18.656-19.236-29.748-34.946-37.204-6.402-2.58-2.256-10.146.944-13.672 22.73-29.602 46.404-58.514 68.186-88.878zm-280.236 455.7c191.686-.364 383.37-.036 575.056-.182-18.548 42.404-35.748 85.388-53.786 127.972-2.072 57.422 1.128 115.134-1.49 172.484-51.386 58.148-117.282 102.916-189.504 131.026-18.11 4.8-36.22 16.51-55.458 10.874-85.35-25.566-162.264-76.55-222.342-141.9-2.218-44.258-.254-88.77-.908-133.136-.764-15.928 2.582-32.584-3.092-47.858-16.328-39.674-34.292-78.732-48.476-119.28zM.084 402.655c6.256 17.054 17.31 31.528 26.366 47.094 2.836 4.254 3.89 9.308 3.746 14.364.036 124.626-.218 249.216.108 373.804 14.584 9.674 26.476 22.438 39.384 34.076 51.314 41.13 105.534 79.532 165.32 107.388 45.822 24.292 95.06 41.53 145.028 55.058 12.764 2.546 25.892.328 38.002-4 30.366-8.328 60.04-18.946 89.06-31.056 69.568-30.876 136.626-68.55 195.03-117.754 18.438-13.09 32.548-31.238 51.568-43.674.364-116.08.072-232.198.108-348.278.4-11.636-1.346-23.564 1.274-34.984 8.908-17.746 22.11-33.164 28.838-52.038-261.29-.438-522.578-.438-783.832 0zm171.284 130.808c7.092 23.346 18.328 45.13 27.274 67.786 2.764 6.036 2.436 12.764 2.582 19.2-.326 46.186.036 92.334-.254 138.518.328 5.892-.91 13.092 4.582 17.128 30.11 31.312 65.35 57.422 103.06 78.914 19.856 13.384 43.022 20.184 64.842 29.64 8.218 3.126 17.274 7.272 26.146 3.818 69.46-22.074 133.536-62.404 182.412-116.554 2.69-53.712-.654-107.788 1.49-161.536 7.892-26.256 22.548-50.112 29.42-76.77-147.172-.618-294.382-.254-441.554-.144z"/></svg>