<svg xmlns="http://www.w3.org/2000/svg" viewBox="0 0 683 1024"><path d="M503.612 707.014c1.295 77.52 10.223 130.712 16.695 155.303l-183.258 140.288-202.281-116.864c-11.257-48.92-15.27-102.888-16.631-156.727l158.345 99.396 227.132-121.397zM383.507 64.061l278.639 174.908-49.696 353.963-334.029 178.403L.041 596.426l49.57-353.831L383.507 64.062zm-21.351 98.162c-138.604-.067-267.054 112.592-286.403 250.88-9.771 69.432 8.67 134.984 51.507 184.422 42.32 48.664 103.794 75.709 172.643 75.578 138.609 0 266.994-112.398 286.275-250.682 9.708-69.499-8.542-134.984-51.377-184.422-42.576-48.986-103.793-75.839-172.645-75.776zm-.003 67.424c48.923.002 92.02 18.83 121.658 52.608 29.766 34.43 42.448 80.893 35.589 130.912-15.014 106.127-113.369 192.514-219.496 192.447-49.05.126-92.146-18.572-121.653-52.352-29.894-34.555-42.643-81.147-35.589-131.038 14.882-106.122 113.242-192.509 219.491-192.575z"/></svg>