<svg xmlns="http://www.w3.org/2000/svg" viewBox="0 0 939 1024"><path d="M154.33 308.135c-37.751-6.424-69.053-25.911-92.495-53.415 0 0-61.594 54.054-61.594 161.893 0 43.566 12.532 86.39 30.053 124.539 87.026-61.167 131.415-144.768 124.035-233.016zM607.833 265.1C496.461 193.551 462.558 93.147 462.558 93.147S428.629 193.552 317.153 265.1c132.635 153.583 115.432 414.104 1.353 530.864 34.116 23.948 66.77 52.381 81.292 70.832 24.187 30.797 43.991 58.274 62.761 106.725 18.664-48.451 38.468-75.928 62.734-106.725 14.735-18.77 48.213-47.706 82.964-71.972-115.645-115.937-133.565-375.397-.425-529.724zm103.195 42.637c-14.205-2.389-29.152-6.557-44.602-12.452-124.035 113.123-116.151 364.723 1.78 464.068l3.424-1.539c47.391-19.806 101.309-52.806 138.743-91.38 14.522-14.92 34.964-39.61 54.557-70.513-123.716-82.645-172.353-170.602-153.902-288.184zm152.124-53.017c-23.31 27.505-54.637 46.884-92.283 53.415-8.098 89.177 35.468 171.105 124.034 232.724 17.417-38.071 29.868-80.787 29.868-124.247 0-107.839-61.619-161.893-61.619-161.893zM253.889 758c-.106 0-.292-.085-.505-.191-47.309-19.806-101.229-52.806-138.663-91.38-14.839-15.239-35.866-40.752-55.885-72.585 121.646-82.14 173.283-169.458 155.23-286.112 14.203-2.389 29.15-6.559 44.602-12.452 123.291 112.62 111.901 362.653-4.779 462.715z"/></svg>