<svg xmlns="http://www.w3.org/2000/svg" viewBox="0 0 1024 1024"><path d="M725.908 708.246s103.46 35.927 186.095-26.96c82.831-63.133 90.045-113.048 93.94-150.562 0 0-27.796 67.731-109.727 121.605-47.985 31.575-59.175 37.513-170.308 55.917zM933.026 688.5c-100.581 84.811-232.738 27.616-232.738 27.616 53.301-78.855 65.113-140.025 31.575-238.628a181.01 181.01 0 0 0-5.955-15.148L423.884 653.098l4.222 5.825s96.688 90.749 193.326 11.812c0 0 9.832 45.382-47.363 65.13-57.194 19.68-136.049-5.939-171.583-21.728-22.429-9.979-33.048-16.048-41.8-21.088l-57.521 36.287c.457 2.109.701 4.285.701 6.528 0 16.294-13.218 29.529-29.578 29.529-16.295 0-29.53-13.235-29.53-29.529 0-16.36 13.235-29.595 29.53-29.595 6.839 0 13.039 2.371 18.012 6.265l70.871-48.638c9.653-14.495 19.633-36.615 19.633-66.144 0-57.129-53.236-104.475-106.537-104.475-53.236 0-106.472 53.236-102.513 120.262 0 0-61.153-35.468-120.329-96.621C-5.749 455.83.191 416.336.191 404.507c0-11.827 3.958-67.043 43.387-100.581 39.427-33.49 74.962-19.698 90.749-7.869 0 0-102.56 0-102.56 92.663 0 37.514 31.558 88.769 92.662 88.769 76.942 0 187.373-130.176 282.015-130.176 86.791 0 108.452 72.982 112.41 98.603 0 0-148.074 19.369-107.943 185.211L706.62 428.344c-43.404-60.908-110.824-83.011-110.824-83.011 37.449-76.875 126.218-86.724 126.218-86.724s-10.16 51.06 39.755 131.91l68.695-47.101 3.959-15.787 41.866 10.356-2.439 41.407-15.787-.509-72.721 45.94c1.848 2.437 3.714 4.859 5.693 7.281 82.814 104.556 232.673 82.83 232.673 82.83s9.847 88.771-90.684 173.565z"/></svg>