<svg xmlns="http://www.w3.org/2000/svg" viewBox="0 0 928 1024"><path d="M496.432 127.321V896.68l282.911-278.016s-171.208-61.962-171.208-161.321V310.969s253.158 81.855 253.158 349.889c0 59.624-24.883 131.57-24.883 131.57s84.386-61.964 84.386-235.727c0-191.099-153.8-429.38-424.364-429.38zM0 467.323C0 293.56 84.386 231.501 84.386 231.501s-24.762 72.042-24.762 131.57c0 268.034 253.158 349.961 253.158 349.961V566.586c0-99.263-171.327-161.323-171.327-161.323L424.461 127.32v769.359C153.896 896.679-.001 658.422-.001 467.323z"/></svg>