<svg xmlns="http://www.w3.org/2000/svg" viewBox="0 0 976 1024"><path d="M702.722 199.805s97.838 97.923 97.838 257.954c0 167.612-122.673 351.084-319.237 353.807-196.671-2.724-319.239-186.196-319.239-353.807 0-160.031 97.754-257.954 97.754-257.954C51.785 299.461.153 550.235.153 550.235c37.357 0 53.364 12.459 92.474 65.823 39.173 53.28 60.546 92.476 144.108 184.95 72.096 79.763 204.822 92.052 240.131 93.954v.338s1.563 0 4.456-.169c2.807.169 4.456.169 4.456.169v-.338c35.308-1.901 168.033-14.191 240.046-93.954 83.647-92.474 104.934-131.669 144.108-184.95 39.11-53.364 55.117-65.823 92.474-65.823 0 0-51.548-250.774-259.685-350.43zM335.483 253.17c23.081 40.926 62.191 80.015 62.191 80.015v67.661C319.476 349.192 285.645 262.08 285.645 262.08c-31.993 39.11-44.454 115.663-44.454 115.663 58.644 103.119 156.483 151.119 156.483 151.119v71.105c-124.489-56.829-186.766-170.759-186.766-170.759 0 275.777 257.954 323.779 257.954 323.779V128.702c-92.474 40.905-133.379 124.469-133.379 124.469zm291.679 0c-23.188 40.926-62.276 80.015-62.276 80.015v67.661c78.283-51.654 112.029-138.766 112.029-138.766 32.079 39.11 44.537 115.663 44.537 115.663-58.728 103.119-156.566 151.119-156.566 151.119v71.105c124.467-56.829 186.766-170.759 186.766-170.759 0 275.777-257.871 323.779-257.871 323.779V128.702c92.476 40.905 133.381 124.469 133.381 124.469z"/></svg>