<svg xmlns="http://www.w3.org/2000/svg" viewBox="0 0 832 1024"><path d="M409.421 274.823v.096h-2.346v-.096c-18.889-1.126-31.986-16.544-31.986-47.237 0-32.058 33.207-75.848 33.207-75.848s33.208 43.79 33.208 75.848c0 30.693-13.193 46.111-32.082 47.237zM510.502 221.6c-2.418-23.654-3.543-47.404-14.198-80.515-10.677-33.207-44.435-72.376-86.883-72.376-42.641 0-75.848 39.17-86.501 72.376-10.679 33.111-11.899 56.861-14.222 80.515-2.347 23.774-16.473 129.261 100.913 129.261 117.267 0 103.236-105.487 100.89-129.261zm242.145 542.255c22.625-35.722 41.324-77.068 52.936-124.665 0 0-31.986-12.546-51.067-16.927-19.082-4.5-52.098-12.546-52.098-12.546-9.265 49.584-32.536 91.29-38.067 100.627l88.296 53.511zm-87.914-27.964c-30.669 127.848-166.202 219.401-166.202 219.401 17.956 0 152.269-47.788 241.021-172.093l-74.819-47.307zm146.26-122.056c4.861-26.551 7.494-54.994 7.494-85.183 0-30.024-2.538-57.892-7.014-83.988l-92.51 14.031v-26.097l85.398-21.045c-6.176-24.421-14.124-47.14-23.39-68.185l-31.22 12.162-15.442-14.222-1.125-18.889 28.539-17.19c-12.641-22.17-26.576-42.185-41.156-60.525l-43.119 36.2-13.095-17.765 41.155-36.487c-7.301-8.404-14.676-16.352-22.17-24.038-25.426-25.999-50.971-56.861-72.279-69.861-42.569-26.073-79.415-37.972-79.415-37.972 17.765 35.553 14.867 61.075 21.978 94.833 7.11 33.782 15.993 67.54-8.979 131.608-24.875 63.947-110.155 60.404-110.155 60.404v47.98c188.445 6.535 253.614 102.589 253.614 102.589.862 25.617-1.964 47.596-3.64 57.795 0 0 39.289 5.603 60.501 9.721 21.236 4.116 66.031 14.124 66.031 14.124zM434.488 472.34v401.765S551.85 577.181 646.036 532.746c0 0-56.861-60.406-211.548-60.406zM154.754 710.344c-5.41-9.337-28.704-51.043-37.97-100.627 0 0-33.015 8.045-52.098 12.546-19.057 4.381-51.043 16.927-51.043 16.927 11.587 47.597 30.287 88.943 52.91 124.665l88.201-53.511zm-75.199 72.854c88.847 124.305 223.063 172.093 241.114 172.093 0 0-135.509-91.552-166.202-219.401l-74.912 47.307zm-5.412-183.487c21.332-4.118 60.597-9.721 60.597-9.721-1.676-10.199-4.477-32.177-3.639-57.795 0 0 65.169-96.055 253.636-102.589v-47.98s-85.4 3.543-110.275-60.404c-24.875-64.068-15.993-97.826-8.883-131.608 7.112-33.758 4.118-59.279 21.978-94.833 0 0-36.845 11.899-79.389 37.972-21.429 13-46.855 43.861-72.4 69.861-7.375 7.687-14.771 15.635-22.17 24.038l41.155 36.487-13 17.765-43.215-36.2c-14.58 18.34-28.515 38.356-41.035 60.525l28.513 17.19-1.222 18.889-15.322 14.222-31.244-12.162c-9.265 21.045-17.309 43.764-23.487 68.185l85.495 21.045v26.097l-92.51-14.031C3.154 470.761.712 498.629.712 528.652c0 30.189 2.633 58.633 7.494 85.183 0 0 44.699-10.008 65.935-14.124zM384.737 472.34v401.765S267.351 577.181 173.189 532.746c0 0 56.861-60.406 211.548-60.406z"/></svg>