<svg xmlns="http://www.w3.org/2000/svg" viewBox="0 0 896 1024"><path d="M598.451 86.649s143.172 104.185 143.172 260.285-118.832 191.985-149.688 191.985c-30.855 0-87.873-45.604-87.873-136.685 0-65.019 50.502-97.568 50.502-97.568s6.414-56.916-16.338-99.185c-22.75-42.399-90.977-120.448-90.977-120.448s-68.432 78.049-91.182 120.448c-22.828 42.269-16.312 99.185-16.312 99.185s50.476 32.55 50.476 97.568c0 91.081-56.992 136.685-87.847 136.685-30.857 0-149.688-35.884-149.688-191.985L295.868 86.649S.596 191.655.596 506.344c0 271.625 229.432 387.942 229.432 387.942s-15.519-36.576-15.519-59.3c0-22.854 19.545-43.989 50.504-43.989 30.855 0 134.939 24.445 182.134 147.97 47.194-123.525 151.305-147.97 182.159-147.97 30.959 0 50.478 21.135 50.478 43.989 0 22.724-15.519 59.3-15.519 59.3s229.432-116.318 229.432-387.942c0-314.689-295.247-419.695-295.247-419.695z"/></svg>