<svg xmlns="http://www.w3.org/2000/svg" viewBox="0 0 864 1024"><path d="M429.227 938.076c222.251 0 394.076-81.882 393.288-252.957-.369-79.677-162.302-213.477-171.075-293.897-6.644-60.897 56.364-204.721 79.14-269.438 2.587-7.354-1.329-11.445-5.181-14.012-3.4-2.268-11.986-1.111-15.281 4.316C669.356 179.215 572.1 347.96 573.945 419.003c2.925 112.587 119.39 189.017 119.898 258.806.79 108.199-119.861 122.822-264.615 122.822-144.756 0-265.405-14.623-264.615-122.822.509-69.791 116.973-146.219 119.898-258.806 1.845-71.043-95.411-239.788-136.173-306.915-3.296-5.427-11.882-6.584-15.281-4.316-3.852 2.567-7.77 6.658-5.181 14.012 22.775 64.717 85.784 208.541 79.14 269.438-8.772 80.42-170.708 214.219-171.075 293.897-.788 171.075 171.037 252.957 393.288 252.957zm0-203.813s30.066.029 36.137.029c1.022 0 2.558-1.132 2.555-3.185-.055-22.125-.046-165.357-.046-212.099 0-2.734 1.707-4.149 4.289-4.175 7.11-.065 21.115-.169 27.218-.198 5.569-.027 17.166 1.423 21.226-6.755 3.779-7.608-.604-16.176-4.823-18.331-10.863-5.552-26.626-3.299-27.017-25.086-.254-14.239 13.061-22.284 20.657-22.284 5.468 0 8.141-2.896 8.288-9.972.316-15.092.817-50.181 7.252-70.769 21.231-75.756 85.728-197.671 105.079-222.136 2.19-2.768-.695-5.291-.695-5.291s-66.007-48.087-200.12-48.087-200.119 48.087-200.119 48.087-2.886 2.522-.695 5.291c19.352 24.465 83.849 146.381 105.079 222.136 6.432 20.588 6.934 55.677 7.25 70.77.147 7.076 2.821 9.972 8.289 9.972 7.596 0 20.91 8.044 20.656 22.282-.391 21.787-16.152 19.535-27.015 25.086-4.221 2.156-8.603 10.723-4.825 18.331 4.062 8.178 15.657 6.728 21.226 6.755 6.103.031 20.108.133 27.22.2 2.58.024 4.289 1.439 4.289 4.173 0 46.744.007 189.974-.046 212.099-.005 2.053 1.531 3.185 2.553 3.185 6.071 0 36.137-.029 36.137-.029zM.427 494.211c.505-131.622 79.625-236.81 103.799-261.576 1.055-1.21 2.449-.567 3.234 1.14 11.68 27.136 31.758 89.865 40.405 123.148.573 2.476.038 4.352-2.016 5.898-36.217 23.499-100.081 78.15-100.35 130.987-.051 2.01-1.217 3.739-3.697 3.698-12.419.049-26.633-.121-38.412-.254-1.469-.027-2.929-1.393-2.964-3.041zm857.6 0c-.505-131.622-79.625-236.81-103.798-261.576-1.056-1.21-2.451-.567-3.236 1.14-11.68 27.136-31.758 89.865-40.405 123.148-.573 2.476-.038 4.352 2.016 5.898 36.217 23.499 100.079 78.15 100.35 130.987.051 2.01 1.217 3.739 3.697 3.698 12.418.049 26.633-.121 38.412-.254 1.316-.053 2.975-1.597 2.964-3.041z"/></svg>