<svg xmlns="http://www.w3.org/2000/svg" viewBox="0 0 752 1024"><path d="M636.105 725.045c71.352-75.513 114.442-126.78 114.442-246.525 0-78.51-8.854-137.103-25.18-177.178-2.906 6.391-10.247 8.501-41.636-15.582-64.488-49.478-87.226-144.043-89.708-218.696-.939-28.199 14.024-51.898 28.066-67.065-52.799 21.738-116.535 96.259-116.535 215.31 0 39.985 11.769 80.925 33.729 109.747 66.058-8.603 93.507 33.249 93.507 55.339 0 23.018-21.632 35.572-51.289 23.598l57.569 72.195c0 81.615-45.614 148.371-94.867 148.371-28.817 0-50.063-6.272-57.779-32.109-5.192-17.386-6.673-35.915-8.201-54.53-3.27-39.878 23.497-71.958 78.155-96.957-29.087-5.443-54.381-15.478-72.223-34.528 14.131-26.156 35.415-53.54 58.443-76.556-15.527-1.744-50.592 9.066-71.875 20.753-15.307 8.404-26.168 12.206-43.556 16.507-7.212-8.368-7.765-27.356-1.398-43.013 13.611-33.464 30.703-64.408 28.611-98.819-19.12 19.29-35.806 33.297-47.217 38.83-51.575 25.001-75.597 48.13-94.415 73.064-45.396 28.312-77.169 79.886-116.705 146.164-11.95 20.031-11.252 48.166-2.784 66.898 12.87 28.46 32.934 65.905 83.466 73.286-14.201-9.912-25.001-27.529-24.25-47.143.601-15.628 9.9-25.946 35.821-24.875 21.803.901 37.216 15.128 37.216 40.922 0 33.244-30.297 50.968-70.248 51.616-66.367 1.082-144.447-67.082-144.447-167.881l57.569-72.195c-29.657 11.974-51.289-.58-51.289-23.598 0-22.089 27.445-63.942 93.507-55.339 21.958-28.822 33.727-69.762 33.727-109.747 0-119.05-63.734-193.572-116.536-215.31 14.044 15.171 29.005 38.866 28.066 67.065-2.481 74.653-25.216 169.218-89.708 218.696-31.391 24.083-38.729 21.973-41.638 15.582C8.186 341.413.381 400.01.381 478.52c0 141.368 31.838 138.948 144.973 254.72 58.392 59.752 107.423 111.691 110.836 181.948 2.792 57.431-12.793 108.812 2.792 108.812L391.1 883.253 523.218 1024c15.587 0 .526-51.359 2.792-108.812 2.261-57.068 42.631-118.752 110.09-190.143z"/></svg>