<svg xmlns="http://www.w3.org/2000/svg" viewBox="0 0 896 1024"><path d="M441.134 1024c-1.666-5.446-2.362-12.308-3.217-21.601-1.036-11.634-2.229-24.798-7.088-38.613a20.545 20.545 0 0 0-9.856-11.343c-13.996-7.313-32.561-18.744-47.367-30.174 17.505-32.314-6.234-62.039-22.03-81.256 4.68-4.116 10.192-7.965 15.616-11.723 11.993-8.371 24.414-17.012 30.017-30.602a20.568 20.568 0 0 0-2.272-19.734c-3.849-5.356-8.776-9.182-13.546-12.894-4.547-3.533-8.17-6.458-10.801-9.812 32.29-18.249 54.859-65.727 55.962-83.82.608-10.172-2.272-23.223-18.384-30.445.811-3.577 1.666-6.84 2.521-10.013 4.096-15.28 7.943-29.725-3.825-53.443a20.431 20.431 0 0 0-11.544-10.238c-12.826-4.523-48.29-11.701-88.928-11.701-34.541 0-66.133 4.949-93.856 14.739-48.829 17.236-60.778 52.227-67.934 73.131-.427 1.193-.855 2.499-1.328 3.802-7.764-8.325-18.497-28.824-23.064-37.511-4.096-7.786-7.943-15.143-11.701-20.791-4.14-6.257-8.327-11.522-12.039-16.157-9.136-11.453-12.872-16.493-12.872-26.26 0-6.164 2.138-8.82 11.228-17.417 8.079-7.649 19.173-18.137 25.631-35.553 9.766-26.394 18.451-39.513 23.581-45.116.428 1.103.833 2.205 1.193 3.195 6.458 17.551 17.282 46.894 60.486 70.409 31.548 17.169 70.095 17.328 133.932 17.62l5.828.022c9.653 0 18-6.705 20.048-16.133 2.092-9.452-2.744-19.06-11.544-23.066-104.656-47.614-131.995-148.512-156.119-237.53-23.221-85.733-47.23-174.415-145.722-174.415-15.819 0-32.966 2.295-51.845 6.909a67.554 67.554 0 0 1 3.354-3.871C22.033 72.929 54.12 60.711 87.378 60.711c24.369 0 48.379 6.525 69.419 18.901 76.643 45.049 102.497 115.277 125.292 177.225 22.007 59.788 42.754 116.246 106.998 122.074.608.044 1.237.089 1.845.089 5.67 0 11.116-2.34 15.008-6.525a20.5 20.5 0 0 0 5.243-17.26c-8.595-53.443 3.016-226.348 34.744-355.217 30.85 125.99 33.978 299.187 28.733 355.599-.539 5.963 1.509 11.882 5.693 16.179a20.514 20.514 0 0 0 14.739 6.255c.406 0 .811-.022 1.237-.044 69.869-4.253 90.977-63.456 113.321-126.102 23.671-66.425 50.517-141.739 138.906-183.615 14.244-6.752 30.129-10.172 47.186-10.172 34 0 68.745 13.906 88.545 35.396.945 1.034 1.935 2.137 2.881 3.33-19.869-5.13-37.78-7.651-54.095-7.651-95.206 0-116.741 82.043-139.513 168.9-23.83 90.841-50.831 193.789-162.915 243.878-8.753 3.915-13.59 13.344-11.723 22.75 1.845 9.383 9.969 16.246 19.555 16.493 12.308.338 23.828.519 34.248.519 84.337 0 114.333-11.23 142.978-33.326 20.454-15.797 30.242-35.779 37.354-50.36 1.304-2.656 2.879-5.873 4.275-8.46 3.847 4.41 10.329 15.369 19.779 42.281.27.765.563 1.507.945 2.251 5.175 10.598 12.781 19.036 20.163 27.182 8.707 9.653 16.224 18.002 16.358 26.124.203 12.827-4.861 18.519-16.292 30.131-5.513 5.625-11.745 11.948-17.282 20.004-6.502 9.518-10.89 20.634-14.761 30.467-2.362 6.054-6.48 16.471-9.743 20.792-.968-2.318-2.026-5.221-2.903-7.629-7.876-21.714-21.062-58.054-78.397-77.631-17.169-5.85-37.533-8.687-62.263-8.687-27.745 0-55.963 3.557-80.872 6.683-12.039 1.509-23.402 2.949-32.809 3.714a20.507 20.507 0 0 0-17.843 13.974c-6.233 18.743-4.006 35.62-2.183 49.234.72 5.603 1.845 14.041.877 16.268-.022 0-.968.879-3.802 2.004-10.508 4.118-15.729 15.932-11.701 26.462 11.25 29.321 28.105 42.732 42.957 54.589 5.67 4.5 11.138 8.888 16.449 14.155-1.485.36-3.016.382-4.816.382-3.465 0-8.055-.473-14.063-1.44a20.548 20.548 0 0 0-3.285-.27 20.522 20.522 0 0 0-13.457 5.018 20.458 20.458 0 0 0-7.066 15.932c1.891 93.136 4.186 207.109-40.189 262.441z"/></svg>