<svg xmlns="http://www.w3.org/2000/svg" viewBox="0 0 720 1024"><path d="M307.144 21.874l-2.801.468C158.42 45.409 49.749 156.053 13.382 287.942c-36.291 131.61-.348 284.406 142.058 392.566l.155.155 150.927 300.454v-10.424l.621-366.271v-1.867l-1.867-.466C196.02 573.28 136.191 481.107 133.5 386.435c-2.693-94.672 51.692-191.79 171.931-230.591l1.712-.468V21.875zm106.115 0v133.345l1.556.623c154.868 56.639 193.766 183.649 173.332 277.891-14.636 67.507-64.561 107.793-104.404 142.213-135.648 117.19-131.004 256.679-69.395 343.243 30.804 43.281 75.709 73.434 124.476 81.065 48.565 7.598 100.815-7.497 145.792-53.68h.155l.468-.468 14.781-15.249-17.894 11.515-.466.311c-70.033 44.583-147.558 18.045-183.759-38.743-36.284-56.919-31.287-144.374 66.439-222.655 138.918-111.278 178.019-262.142 144.237-392.1C674.795 159.229 568.171 50.151 416.215 22.341l-2.958-.468zm-52.434 206.009c-84.729 0-153.417 68.533-153.417 153.26s68.688 153.416 153.417 153.416c84.727 0 153.416-68.688 153.416-153.416s-68.688-153.26-153.416-153.26z"/></svg>