<svg xmlns="http://www.w3.org/2000/svg" viewBox="0 0 1024 1024"><path d="M745.576 620.151c4.007 0 8.088.123 12.268.37 27.31 1.608 47.225 2.579 65.705 2.579 20.948 0 40.052-1.249 66.016-4.246-12.377-17.841-21.299-28.95-38.654-43.262 61.03-6.419 94.56-16.949 141.387-41.462-22.685-14.343-36.579-24.001-66.19-35.081 39.707-21.212 71.917-42.377 95.843-66.079-26.385-12.892-51.06-18.466-81.55-25.672 35.465-34.591 62.341-73.993 81.55-131.519-108.919 12.01-154.622 50.446-190.548 51.038-30.473 0-60.604-47.507-87.026-75.414-77.996-82.383-162.413-108.426-232.376-108.426-69.96 0-154.383 26.044-232.38 108.426-26.419 27.907-56.55 75.414-87.026 75.414-35.922-.596-81.625-39.028-190.544-51.038 19.209 57.527 46.085 96.928 81.546 131.519-30.486 7.206-55.168 12.78-81.546 25.672 23.922 23.702 56.132 44.863 95.843 66.079-29.611 11.08-43.505 20.738-66.19 35.081 46.824 24.513 80.357 35.043 141.382 41.462-17.359 14.316-26.278 25.421-38.653 43.262 25.96 2.993 45.071 4.246 66.019 4.246 18.48 0 38.391-.976 65.705-2.579 4.171-.247 8.265-.37 12.268-.37 78.543 0 122.982 46.971 103.832 126.585l82.082 134.286V568.023c-137.907-19.767-189.046-124.066-189.046-180.917 0-7.752.62-15.389 1.812-22.895 24.129-27.993 62.57-51.082 109.764-65.993-8.388 17.106-13.087 36.202-13.087 56.358 0 73.226 61.882 132.584 138.214 132.584 76.329 0 138.209-59.358 138.209-132.584 0-20.156-4.698-39.252-13.082-56.358 47.191 14.911 85.635 38.004 109.759 65.993a145.273 145.273 0 0 1 1.818 22.895c0 56.851-51.147 161.147-189.046 180.917v312.999l82.077-134.286c-19.139-79.607 25.31-126.585 103.844-126.585z"/></svg>