<svg xmlns="http://www.w3.org/2000/svg" viewBox="0 0 1024 1024"><path d="M253.858 316.496c0-70.91-.48-141.821.28-212.692 50.336.319 100.714.08 151.05.119.2 16.7-.039 33.398.28 50.137 71.03-.119 142.022-.16 213.052 0 .399-16.7.08-33.437.44-50.137 50.336 0 100.673.119 151.009-.08.599 71.59.119 143.181.241 214.731-24.69 24.289-49.138 48.817-73.469 73.467-2.437 46.74 1.638 93.522-.599 140.303-.679 9.469.719 18.896 1.797 28.324 8.39-26.685 28.204-47.5 48.259-66.077 35.596-31.2 81.898-52.333 129.836-51.215 62.602-.358 121.368 44.225 141.384 102.912 13.582 41.907 4.273 89.766-23.291 124.044-19.296 24.769-45.783 43.385-74.827 55.009-27.964 11.107-62.52 5.074-83.773-16.618-17.978-17.379-24.33-45.065-17.579-68.913 5.393-23.571 24.569-42.586 47.101-50.417 19.417-6.313 41.228-2.917 58.568 7.59 10.027 5.434 17.777 14.102 27.884 19.417-1.758-30.921-25.487-59.206-55.729-66.077-26.527-6.513-54.291 2.836-76.663 17.138-51.296 35.475-61.402 118.41-18.336 164.154 17.857 20.813 44.104 30.44 68.193 41.827C788.348 841.676 691.788 893.41 587.4 913.027c-36.195 6.391-73.108 9.228-109.701 5.513-120.17-10.947-231.03-69.193-323.154-144.778 23.61-11.346 49.497-20.413 67.314-40.59 46.143-46.621 34.678-134.989-21.412-168.666-26.127-15.621-60.365-23.011-88.409-8.11-22.692 11.066-35.516 34.756-40.67 58.566 1.758-.28 5.313-.799 7.071-1.039 14.742-14.502 33.678-25.687 54.572-27.525 29.164-2.637 58.206 15.901 69.673 42.506 4.393 9.829 4.994 20.695 6.871 31.162-2.278 16.659-5.994 34.077-18.538 46.302-19.895 21.811-52.973 29.921-80.898 20.693-41.946-14.742-79.34-45.263-97.797-86.252-14.541-31.481-15.98-68.753-3.156-101.033 14.662-36.634 44.264-66.876 79.939-83.454 44.824-20.775 98.318-15.421 141.703 6.472 41.547 21.733 80.898 55.05 96.519 100.553 2.237-56.849.838-113.737.638-170.626-23.33-26.607-50.775-49.657-74.107-76.225zm244.653-68.753c-33.357 4.354-64.558 24.888-80.538 54.731-20.175 36.553-16.62 85.333 9.827 117.932 15.142 18.816 36.514 33.157 60.324 38.072 35.596 8.948 75.546-2.877 100.634-29.723 29.563-28.445 37.792-74.947 23.571-112.858-16.42-45.263-66.116-74.906-113.818-68.154zm-14.342 351.918c-22.931 6.192-43.426 20.374-57.767 39.229-26.726 34.756-28.525 86.451-4.195 122.926 23.33 37.393 71.95 56.569 114.616 45.822 30.442-7.031 57.168-28.285 71.11-56.248 21.333-42.348 11.226-98.398-25.528-128.998-26.206-24.17-64.278-29.923-98.236-22.731z"/></svg>