<svg xmlns="http://www.w3.org/2000/svg" viewBox="0 0 848 1024"><path d="M461.748 70.94c70.082 44.024 136.984 92.998 200.814 145.588 48.216 40.66 95.42 83.528 133.262 134.308 20.854 29.024 40.626 62.746 37.662 99.866-1.59 48.432-29.71 91.298-64.046 123.574-50.458 48.758-113.058 83.818-159.106 137.31-25.698 29.638-43.01 67.77-42.142 107.528.83 21.396 2.458 44.492 14.566 62.89 8.312 12.542 25.3 14.746 38.672 10.192 18.832-6.144 36.686-19.59 43.844-38.566 4.228-9.65-2.386-21.938-12.94-23.24-8.784-.794-17.494 1.194-26.132 2.35.796-8.748 6.252-16.156 15.072-18 15.578-4.156 36.614-6.506 47.782 7.844 13.59 17.638 12.614 42.468 4.156 62.13-11.24 26.312-30.976 50.746-58.264 61.3-28.986 10.336-62.78 9.722-90.286-4.662-29.89-16.808-49.59-46.806-63.288-77.456-12.794-30.614-23.71-63.938-18.036-97.516 8.096-49.192 34.662-93.756 67.914-130.19 30.832-34.842 75.324-54.432 104.202-91.226 12.976-15.976 21.65-37.12 16.808-57.866-3.506-13.554-10.12-27.83-22.844-34.986-13.12-6.904-28.806-3.47-41.854 1.806-28.914 12.29-51.866 34.372-75.72 54.144-17.278 14.132-33.434 29.528-50.06 44.384-.108-160.514-.036-320.992-.036-481.506zM280.56 132.348c16.662-14.89 32.168-31.046 49.77-44.854.868 187.224.108 374.484.362 561.744-.254 75.18.542 150.322-.398 225.5-4.41-5.422-8.638-10.988-12.578-16.698C212.864 701.756 106.854 546.266 2.218 389.836c92.89-85.732 185.562-171.682 278.342-257.488z"/></svg>