<svg xmlns="http://www.w3.org/2000/svg" viewBox="0 0 1024 1024"><path d="M659.316 107.01c71.4 11.962 141.86 31.89 207.518 62.682 61.18 29.074 120.696 69.44 155 129.412-31.22-9.198-64.424-13.276-96.824-9.038-25.346 3.568-51.39 17.004-61.932 41.52-2.922 7.912-8.448 17.112-4.076 25.426 18.936 42.002 32.132 86.902 36.37 132.874 11.668 134.294-47.93 272.854-154.304 355.92-40.554 30.55-87.544 52.57-136.976 64.184a425.22 425.22 0 0 1-66.706 7c.564-49.378.108-98.756.268-148.134 65.338.348 128.85-33.474 167.286-85.91 18.668-24.46 30.308-53.214 40.768-81.886 9.496-25.962 16.738-52.758 20.84-80.088-24.89 14.216-48.17 31.194-72.444 46.482-50.21 32.588-100.044 65.766-150.494 98.004 14.804-104.334 18.614-210.332 9.95-315.366-4.184-46.374-11.158-92.588-19.446-138.318 39.132 90.604 75.718 182.574 114.26 273.526 36.878-27.224 58.766-70.97 64.318-115.922 7.054-49.03-.376-98.892-12.124-146.606-10.138-39.75-24.032-78.534-41.252-115.762zM10.908 124.926c-2.6 91.328-5.632 182.628-8.742 273.954 43.852-46.508 87.49-93.23 131.398-139.658 4.022-2.924 10.058-1.664 14.75-.992 13.466 9.708 26.42 20.168 39.696 30.146-64.774 68.986-99.802 163.638-99.828 257.888.348 74.242 21.966 148.51 63.406 210.28 34.17 51.792 81.912 94.68 137.486 122.414 46.642 23.494 98.81 35.94 151.058 35.886.134-48.68.026-97.334.054-145.988-72.606.428-142.288-41.52-179.14-103.504-27.788-45.624-39.026-101.252-30.684-154.036 7.564-51.604 33.178-100.714 72.39-135.314 22.45 16.548 44.176 34.09 66.786 50.424-.134-66.678-.108-133.33-.026-199.98A137865.34 137865.34 0 0 1 250.21 125.034c-79.768-.296-159.534-.108-239.302-.108z"/></svg>