<svg xmlns="http://www.w3.org/2000/svg" viewBox="0 0 944 1024"><path d="M129.864 113.706c10.246-13.534 21.6-26.298 31.59-40.086 4.398 31.548.086 64.248 10.074 94.856.258 9.69 9.862 14.642 18.186 16.436 40.514 13.746 78.976 33.554 120.002 45.764-10.63 24.588-25.53 47-38.506 70.394-31.164 55.454-63.054 110.482-94.088 166.02-6.49 10.46-10.886 24.078-23.522 28.518-50.63 24.888-100.748 50.97-151.592 75.346.384-9.69-.256-19.808 3.97-28.772 5.72-12.508 3.202-26.938 8.71-39.488 5.548-12.552 2.604-27.066 8.152-39.574 8.326-18.014.172-41.836 17.418-55.752 45.764-40.172 90.246-81.666 133.746-124.27-11.27-24.034-25.356-46.702-37.652-70.268-12.038-15.196-8.324-35.346-7.726-53.234.896-15.282-1.238-30.736 1.238-45.89zM781.436 75.67c-2.092 25.442-2.518 51.014-4.44 76.498-2.262 11.784-4.568 26.512-17.502 30.994-42.562 14.258-82.99 34.492-125.806 47.812 47.598 87.344 98.014 173.15 146.894 259.81 53.49 27.278 107.024 54.94 161.41 80.298-.812-10.458-.47-21.388-4.91-31.12-6.574-13.362-2.39-29.286-8.708-42.69-6.618-13.234-2.604-29.028-9.094-42.306-4.908-11.482-3.458-24.332-6.274-36.286-26.382-29.412-57.504-53.96-86.062-81.152-20.322-17.034-38.038-36.884-58.058-54.302 14.684-27.322 30.352-54.174 44.61-81.666 3.116-29.198 1.708-58.996-.47-88.238-8.41-14.046-20.278-25.828-31.59-37.652zM459.854 186.918c-44.61 76.842-92.124 152.146-135.326 229.756 44.1-22.966 87.13-48.196 130.332-72.914 9.05-6.276 21.474-9.434 31.634-3.884 30.436 18.57 61.814 35.602 92.636 53.532 13.832 8.41 27.876 16.692 43.116 22.242-49.05-83.202-98.272-166.362-146.298-250.162-5.848 6.788-11.952 13.404-16.094 21.43zm-26.168 289.01c-44.312 23.948-89.434 46.318-133.79 70.138 7.088 22.54 18.486 43.458 26.98 65.528 46.66 109.714 93.406 219.512 140.022 329.266 2.392 2.006 7.172 6.104 9.564 8.112 12.38-39.36 31.078-76.5 45.976-115.006 29.37-71.464 59.21-142.712 88.624-214.174 10.842-24.248 18.912-49.776 31.888-73.042-54.514-32.018-111.718-59.382-167.428-89.222-15.54 1.28-27.706 12.764-41.836 18.4zm313.556 121.28c-11.186 29.286-26.426 56.778-38.848 85.508-35.476 78.164-71.718 155.946-107.492 233.94-4.142 9.262-9.776 18.142-9.904 28.644 1.536-.598 4.696-1.836 6.274-2.434 27.536-29.668 61.346-52.422 89.862-80.982 21.302-20.064 45.336-37.012 66.042-57.716 21.43-21.43 46.788-38.464 68.302-59.808 23.78-23.95 51.996-42.988 75.86-66.894l4.44-10.758c-35.518-17.76-70.01-37.482-105.102-56.01-13.618-7.684-28.644-13.234-40.47-23.692-2.988 3.372-6.104 6.66-8.964 10.202zm-572.81-1.45c-19.594 10.544-38.762 22.026-58.698 31.974-26.042 13.106-50.502 29.796-78.166 39.402 19.936 25.316 48.41 41.666 70.908 64.462 23.266 23.906 51.314 42.434 74.75 66.168 13.618 13.49 28.816 25.272 43.458 37.61 19.85 15.668 36.414 35.048 56.606 50.332 25.998 20.404 48.326 44.994 74.878 64.674-35.134-77.952-71.292-155.518-107.108-233.214-17.29-41.366-39.658-80.64-54.728-122.86-7.344-1.836-14.984-2.092-21.9 1.452z"/></svg>