<svg xmlns="http://www.w3.org/2000/svg" viewBox="0 0 1024 1024"><path d="M.046 535.552s89.368 139.822 116.36 149.134c9.866 3.402 64.492-48.19 132.236-118.018l60.012 75.942L191.72 759.06s93.304 98.934 114.544 80.608C410.358 749.854 505.15 656.25 586.546 566.146l79.514 80.574C547.156 790.73 402.362 939.124 319.896 944.972 167.098 955.81.046 715.004.046 715.004V535.552zm519.512-282.986l-.358.222c-8.86 17.342-20.91 31.416-31.786 45.224-37.108 47.114-76.678 92.248-116.626 136.952l67.446 79.128 73.108-73.568L830.094 758.27s-93.304 98.934-114.542 80.608c-31.002-26.748-61.532-54.268-91.27-82.106l-85.91 84.506c63.352 59.034 121.82 99.946 163.546 102.904 152.798 10.838 322.036-227.116 322.036-227.116V535.552S932.4 674.586 905.408 683.896c-26.99 9.31-380.356-399.788-384.868-428.482-.174-.942-.698-2.082-.982-2.848zM321.164 24.324c-19.444 1.066-38.732 12.83-54.736 22.89-48.032 30.19-88.664 72.828-114.188 123.624-20.006 41.152-29.696 77.69-16.496 136.138 3.614 16.01 10.224 34.694 17.158 51.044 17.388 41.002 124.604 195.214 251.986 342.54l79.422-82.86c-128.028-134.934-222.2-254.682-250.482-316.684-43.694-95.782 94.15-238.314 94.15-271.888-.338-3.742-3.452-4.704-6.814-4.804zm384.742-.696c-5.18.104-10.942.18-12.07 6.288 0 19.004 55.704 61.074 83.742 124.884 20.626 46.944 29.004 100.548 12.568 140.186-13.522 32.614-40.244 75.54-86.454 134.024l70.998 77.988c50.56-64.894 72.404-95.788 84.478-128.576 27.382-74.356 26.95-99.082 21.682-150.842-7.136-70.13-44.692-133.814-102.624-173.916-20.942-14.498-44.768-26.844-70.306-30.03l-2.014-.006z"/></svg>