<svg xmlns="http://www.w3.org/2000/svg" viewBox="0 0 924 1024"><path d="M390.776 57.286c65.994-.524 132.002-.858 198.008-1.286 1.846 28.232 3.704 56.464 5.574 84.698 12.58 4.252 24.66 9.838 36.476 15.866 42.968-11.686 85.782-24.122 128.678-36.094 47.364-13.354 94.704-26.72 142.068-40.05-25.398 90.224-50.926 180.414-76.276 270.662 6.218 11.77 11.674 23.956 15.998 36.548 28.234 1.87 56.466 3.728 84.698 5.586-.428 65.994-.786 131.99-1.274 197.996-27.948 1.966-55.894 3.932-83.84 5.92-6.552 27.376-17 53.868-31.33 78.11 18.154 21.216 36.392 42.36 54.536 63.6C824.328 777.236 784.54 815.594 744.8 854c13.784 10.244 30.674 15.986 47.794 16.868 19.988 1.072 40.096-3.526 58.156-12.008 7.624-3.656 14.998-8.028 21.192-13.842-11.388 33.32-34.106 62.826-63.78 81.874-34.236 21.918-77.144 29.34-116.884 21.168-44.41-8.838-84.196-35.606-111.632-71.296-2.096 21.074-4.252 42.146-6.36 63.22-63.564-1.632-127.13-3.312-190.694-5.004-2.002-28.018-4.002-56.024-6.016-84.03-21.93-6.444-43.468-14.378-64.052-24.324C260.05 879.064 207.598 931.55 155.124 984c.024-52.344-.13-104.698-.082-157.042-52.344 0-104.698-.118-157.042-.082 52.45-52.474 104.924-104.926 157.374-157.4-9.97-20.584-17.88-42.134-24.336-64.052-28.006-2.026-56.024-4.002-84.03-6.016-1.668-63.564-3.372-127.13-5.004-190.694 21.05-2.12 42.11-4.252 63.172-6.372-30.126-23.266-53.856-55.18-65.744-91.452-10.174-30.544-11.4-64.112-2.622-95.144 8.434-31.152 27.196-59.3 52.57-79.218 14.33-11.306 30.472-20.478 47.816-26.244-7.588 8.126-12.806 18.144-16.974 28.364-7.994 20.156-11.412 42.552-7.244 63.982 2.394 12.448 7.588 24.312 15.058 34.546 38.37-39.764 76.74-79.516 115.11-119.28 21.24 18.144 42.384 36.382 63.6 54.548 24.254-14.33 50.722-24.802 78.11-31.318 2-27.946 3.966-55.892 5.92-83.84zm24.194 25.756c-1.918 26.612-3.752 53.236-5.646 79.848-37.5 5.622-73.69 20.12-104.782 41.824-19.906-17.07-39.8-34.164-59.706-51.222-32.96 34.164-65.946 68.316-98.908 102.494 13.306 11.102 29.352 19.024 46.458 22.062 25.422 4.692 51.272-.37 76.074-6.124 31.734-7.422 63.694-15.7 96.514-15.868 29.328-.392 59.108 6.374 84.232 21.824 19.19 11.532 35.284 27.626 48.852 45.316 14.212 18.726 24.91 40.394 29.294 63.588 53.272-53.248 106.496-106.534 159.792-159.746-16.88-14.45-34.748-27.816-53.796-39.286-19.834-11.878-41.074-21.848-63.66-27.184-1.74-26.172-3.442-52.356-5.182-78.528-49.842.406-99.694.596-149.536 1.002zM595.002 454.78c31.972 5.908 60.622 23.764 83.614 46.28 16.724 16.01 30.066 35.666 37.988 57.452 8.41 22.836 10.72 47.544 9.078 71.714-1.896 29.172-9.376 57.536-15.94 85.912-5.254 22.932-9.696 46.696-6.158 70.248 2.608 18.26 10.684 35.522 22.442 49.662 34.166-32.95 68.33-65.924 102.482-98.896-17.082-19.906-34.164-39.8-51.234-59.706 21.704-31.08 36.19-67.27 41.824-104.758 26.612-1.93 53.236-3.752 79.86-5.67.394-49.842.596-99.682.99-149.524-26.172-1.752-52.344-3.442-78.516-5.194-10.934-44.35-37.344-83.006-66.482-117.444-53.332 53.284-106.628 106.616-159.948 159.924zM231.448 410.8c-12.818 7.218-22.098 20.214-24.946 34.628-21.334-3.55-42.276-9.816-61.824-19.13-1.954-.822-3.848-2.36-6.088-1.764-23.348 2.596-46.708 5.134-70.056 7.72 1.262 47.66 2.512 95.31 3.764 142.96 26.314 1.894 52.628 3.764 78.944 5.646 8.218 31.938 18.976 63.542 35.45 92.238 16.452 1.68 32.902 3.312 49.354 4.98 27.708-27.684 55.392-55.404 83.136-83.054-19.548-28.744-30.364-62.92-33.116-97.444 16.748-11.4 25.444-33.176 20.942-52.962-3.24-15.7-14.366-29.47-28.996-35.988-14.688-6.742-32.568-5.932-46.564 2.17zm238.89-4.956c-18.714 2.798-36.488 11.518-50.126 24.622-14.808 14.01-24.754 33.022-27.768 53.178-3.146 20.262.606 41.526 10.626 59.418 9.612 17.274 24.848 31.366 42.872 39.502 18.44 8.41 39.668 10.494 59.42 5.908 18.44-4.18 35.45-14.246 48.09-28.292 23.74-25.646 30.59-65.124 17.19-97.348-8.172-20.298-23.802-37.44-43.208-47.53-17.38-9.126-37.702-12.424-57.096-9.458zM303.91 745.882c1.656 16.476 3.3 32.95 4.992 49.426 28.696 16.462 60.3 27.22 92.238 35.438 1.87 26.316 3.74 52.63 5.646 78.944 47.65 1.252 95.3 2.514 142.96 3.764 2.49-22.598 4.944-45.206 7.47-67.792.012-1.87.918-3.908-.12-5.612-9.91-20.286-16.606-42.074-20.31-64.326 20.274-3.824 37.214-20.906 40.55-41.312 3.002-16.166-2.382-33.618-14.092-45.184-11.15-11.436-27.864-16.988-43.636-14.64-14.02 1.87-26.91 10.006-34.986 21.572-34.618-2.786-68.902-13.628-97.682-33.294-27.696 27.648-55.356 55.332-83.03 83.016z"/></svg>
