<svg xmlns="http://www.w3.org/2000/svg" viewBox="0 0 939 1024"><path d="M377.397 393.997c4.634-46.075 43.687-82.196 90.967-82.196 4.35 0 8.771.377 13.025.945l13.665-56.146-12.389-50.802c-4.704-.379-9.503-.544-14.302-.544-50.519 0-96.498 18.912-131.487 50.046l-91.063-53.569 33.333-26.691S163.451 93.789.452 119.462c0 0 22.813 130.376 183.211 218.01l7.117-42.197 87.728 51.63a198.322 198.322 0 0 0-8.132 56.24c0 41.914 13.027 80.708 35.178 112.645l46.641-112.645 25.201-9.149zm282.216-218.955l33.333 26.689-92.339 54.207c-12.293-11.087-26.146-20.685-41.18-28.438l-7.305 57.728-30.756 43.663c23.19 16.526 38.415 43.687 38.415 74.254 0 15.981-4.161 30.828-11.348 43.948l32.222 26.499h72.764a197.715 197.715 0 0 0 12.931-70.448c0-19.125-2.767-37.681-7.943-55.223l89.477-52.647 7.117 42.199c160.493-87.636 183.211-218.011 183.211-218.011-162.975-25.673-278.6 55.579-278.6 55.579zM548.338 525.035l45.698 31.039c-20.946 17.258-45.508 30.283-72.387 37.753v112.007l39.975-15.223c5.651 182.738-95.2 268.435-95.2 268.435-104.726-127.515-93.261-268.435-93.261-268.435l39.977 15.223v-112.55c-26.691-7.66-50.97-20.874-71.748-38.228l26.051-10.993 31.49-81.534c16.713 19.574 41.631 32.032 69.431 32.032 20.047 0 38.699-6.548 53.828-17.635l26.146 48.108z"/></svg>