<svg xmlns="http://www.w3.org/2000/svg" viewBox="0 0 1024 1024"><path d="M511.998 229.435l57.723 202.032 123.938-20.374C669.89 270.18 576.513 161.524 576.513 161.524c202.033 35.652 259.756 183.357 259.756 183.357s100.168-23.767 186.752 11.885C861.734 472.213 820.989 606.337 663.099 830.441l30.56-300.503-98.471 76.399L512 905.142l-84.89-295.409-96.77-79.795 30.56 300.503a12215.207 12215.207 0 0 1-30.479-47.143C175.505 542.486 104.759 415.842.978 356.766c62.817-27.163 186.752-11.885 186.752-11.885s50.932-139.216 259.756-183.357C369.389 237.923 330.34 411.093 330.34 411.093l123.938 20.374z"/></svg>