<svg xmlns="http://www.w3.org/2000/svg" viewBox="0 0 737 1024"><path d="M24.89 105.74l-6.885.657 83.35 238.184s30.947-134.647 32.78-142.45c22.395 0 56.822.283 94.819 3.761.447 7.989 17.529 631.438 17.529 631.438l28.269-2.749s12.573-194.688 13.23-203.971h89.672l13.489-50.852H287.794v-51.297h100.693L287.794 479.7V214.163c81.236 14.851 146.679 43.873 194.313 86.641 64.715 58.112 97.591 142.003 97.591 249.487 0 90.8-26.906 163.412-79.966 215.532-58.559 57.643-139.068 80.225-196.333 89.039-32.594 4.958-61.145 6.062-79.498 6.25 0 0-19.738-.633-27.163-.915V279.234s-32.217 201.76-33.792 209.563c-64.975.915-72.518 22.864-73.151 25.33l-2.398 11.116h70.238l-7.895 54.518H93.743l-16.896 50.852h65.35c-2.185 11.749-40.465 224.249-41.851 232.24-45.894 1.737-76.631-1.833-77.007-1.929l-4.958-.539-1.01 4.864L.217 951.256l5.78.727c1.012.094 100.318 11.02 222.957-.188 113.452-10.363 270.684-42.486 375.607-136.223 77.664-69.299 117.142-163.106 117.142-278.675 0-117.775-39.854-213.792-118.41-285.37-102.738-93.643-254.541-128.328-363.88-140.923-118.13-13.488-213.606-4.958-214.523-4.864z"/></svg>