<svg xmlns="http://www.w3.org/2000/svg" viewBox="0 0 266 300"><path d="M63.12 152.482c43.972 28.37 65.485 72.34 64.54 131.915V300c-39.717-22.222-61.939-37.352-66.667-45.39v-18.44l-3.546-1.418-21.986-21.277v-39.007c5.2-5.674 14.42-13.002 27.66-21.986Zm139.008 0c13.238 8.984 22.458 16.312 27.66 21.986v39.007L207.8 234.752l-3.546 1.418v18.44c-4.728 8.038-26.95 23.168-66.666 45.39v-15.603c-.946-59.574 20.567-103.546 64.539-131.915Zm-74.468-18.44v89.362c-11.82-34.515-29.788-59.338-53.901-74.468 10.875-8.038 28.841-13.002 53.9-14.893Zm9.929 0c25.059 1.892 43.026 6.856 53.9 14.894-24.113 15.13-42.08 39.953-53.9 74.468v-89.361ZM93.617 0c4.255 13.239 15.13 22.695 32.624 28.369l-7.801 14.893C94.8 46.1 77.778 59.102 67.376 82.27c-2.837-2.837-5.437-6.383-7.802-10.639-22.222 26.478-26.477 53.9-12.765 82.27-7.093 5.2-12.057 9.22-14.894 12.056A201.1 201.1 0 0 1 3.546 137.59L0 76.596c14.657-13.712 35.461-26.005 62.411-36.88V17.73L93.617 0Zm78.014 0 31.206 17.73v21.986c26.95 10.875 47.754 23.168 62.411 36.88l-3.546 60.993a201.1 201.1 0 0 1-28.369 28.368c-2.837-2.836-7.801-6.855-14.893-12.056 13.711-28.37 9.456-55.792-12.766-82.27-2.364 4.256-4.965 7.802-7.802 10.639C187.47 59.102 170.45 46.1 146.81 43.262l-7.802-14.893c17.494-5.674 28.369-15.13 32.624-28.369Zm-58.865 55.32c-14.184 28.368-9.22 46.098 14.894 53.19v15.603c-29.788 1.892-53.665 9.693-71.632 23.405-9.456-22.222-7.801-40.899 4.965-56.029 3.31 4.728 6.62 8.275 9.929 10.639 7.565-26.478 21.513-42.08 41.844-46.809Zm39.716 0c20.331 4.727 34.28 20.33 41.844 46.808 3.31-2.364 6.62-5.91 9.93-10.639 12.765 15.13 14.42 33.807 4.964 56.029-17.967-13.712-41.844-21.513-71.631-23.405v-15.602c24.113-7.093 29.078-24.823 14.893-53.192Zm-20.376 43.258c-11.475-.179-17.212-6.324-17.212-18.436 0-10.875 5.91-25.296 17.73-43.263 11.82 17.967 17.73 32.388 17.73 43.263 0 12.293-5.91 18.44-17.73 18.44l-.518-.004Z" fill="#000" fill-rule="nonzero"/></svg>
