<svg xmlns="http://www.w3.org/2000/svg" viewBox="0 0 321 221"><path d="m128 167.5-.5-94.5 33-22.5 33 22.5-.5 94.5c-14 17-24.833 34.833-32.5 53.5-7.667-18.667-18.5-36.5-32.5-53.5ZM35.5 123c48 10.667 83.667 34.5 107 71.5-30.333-18.333-73.167-26.667-128.5-25 2.333-20.333 9.5-35.833 21.5-46.5Zm250 0c12 10.667 19.167 26.167 21.5 46.5-55.333-1.667-98.167 6.667-128.5 25 23.333-37 59-60.833 107-71.5Zm-163-46.5v86C110.167 138.5 96 118.667 80 103l42.5-26.5Zm76 0L241 103c-16 15.667-30.167 35.5-42.5 59.5v-86ZM27 65c40.333 30.333 69 59.833 86 88.5C75.333 125.833 37.667 113.333 0 116c2.667-18.333 11.667-35.333 27-51Zm267 0c15.333 15.667 24.333 32.667 27 51-37.667-2.667-75.333 9.833-113 37.5 17-28.667 45.667-58.167 86-88.5ZM123 9c6 6 9 13.167 9 21.5V64L94 88.5c-8-12.333-19.5-24-34.5-35C77.5 34.833 98.667 20 123 9Zm75 0c24.333 11 45.5 25.833 63.5 44.5-15 11-26.5 22.667-34.5 35L189 64V30.5c0-8.333 3-15.5 9-21.5Zm-61.5 52.5V27c0-7-2.833-13.667-8.5-20 10-4 20.833-6.333 32.5-7l1.091.067C172.843.814 183.312 3.125 193 7c-5.667 6.333-8.5 13-8.5 20v34.5l-24-16.5-24 16.5Z" fill="#000" fill-rule="evenodd"/></svg>
