<svg xmlns="http://www.w3.org/2000/svg" viewBox="0 0 270 300"><path d="M46.092 154.953c49.056 25.943 76.415 74.292 82.075 145.047-26.887-11.32-47.406-25.472-61.556-42.453 5.188-33.49-11.557-62.264-50.236-86.32 8.962-6.604 18.868-12.029 29.717-16.274Zm176.886 0c10.85 4.245 20.755 9.67 29.717 16.273-38.679 24.057-55.424 52.83-50.235 86.321-14.151 16.981-34.67 31.132-61.557 42.453 5.66-70.755 33.019-119.104 82.075-145.047Zm-94.81-16.274v96.934c-12.265-37.736-34.435-66.51-66.51-86.32 20.283-7.548 42.453-11.085 66.51-10.614Zm12.735 0c24.057-.471 46.226 3.066 66.51 10.613-32.076 19.812-54.246 48.585-66.51 86.321V138.68ZM46.799 33.962C51.044 53.774 64.252 75 86.422 97.642c8.49-2.83 15.33-5.66 20.519-8.491 5.188 6.604 12.264 10.613 21.226 12.028v25.472c-45.283-.472-86.32 12.028-123.113 37.5-4.717-21.698-6.132-42.453-4.245-62.264 12.264 4.717 26.179 7.075 41.745 7.075-17.925-8.49-30.189-16.98-36.793-25.471C14.724 66.509 28.403 50 46.8 33.962Zm175.472 0C240.667 50 254.346 66.51 263.309 83.491c-6.604 8.49-18.868 16.98-36.793 25.471 15.566 0 29.481-2.358 41.745-7.075 1.887 19.811.472 40.566-4.245 62.264-36.792-25.472-77.83-37.972-123.113-37.5v-25.472c8.962-1.415 16.038-5.424 21.226-12.028 5.19 2.83 12.029 5.66 20.52 8.49C204.818 75 218.025 53.775 222.27 33.963Zm-87.972 53.774c-7.885-.059-24.528-3.07-24.528-26.887 0-16.038 8.255-36.32 24.764-60.849 16.51 24.528 24.764 44.811 24.764 60.85 0 24.056-16.98 26.886-24.764 26.886h-.236ZM119.677 0c-19.34 29.717-25.708 55.66-19.104 77.83L89.96 82.783c-19.34-21.226-30.425-40.33-33.255-57.311C75.1 11.32 96.092 2.83 119.677 0Zm29.717 0c23.584 2.83 44.575 11.32 62.971 25.472-2.83 16.98-13.915 36.085-33.254 57.311l-10.614-4.953c6.604-22.17.236-48.113-19.103-77.83Z" fill="#000" fill-rule="nonzero"/></svg>
