<svg xmlns="http://www.w3.org/2000/svg" viewBox="0 0 780 1024"><path d="M183.436 64.028C241.638 29.284 308.486 9.58 376.132 6.044c17.16-1.242 34.382.236 51.464 1.948 78.348 8.25 154.26 39.05 215.732 88.39 28.176 22.722 53.898 48.822 74.578 78.6-63.2 60.562-115.402 132.562-153.082 211.586-15.448-23.586-34.916-44.612-57.78-61.126-33.266-24.232-73.95-38.516-115.214-38.798-40.462-.502-80.674 12.462-113.956 35.308-25.502 17.364-47.014 40.26-63.702 66.156-36.756-79.7-87.888-153.1-152.078-213.142 31.758-45.208 74.042-82.638 121.342-110.938zM46.758 285.67c-6.066 7.51-11.944 15.51-14.614 24.906 37.87 46.952 73.336 95.776 107.498 145.462-32.088-25.11-64.002-50.426-96.278-75.3-12.964 13.766-22.142 30.798-27.862 48.76 43.324 23.994 85.294 50.504 125.224 79.81 32.746 24.246 64.378 50.394 91.422 80.988-4.934-24.844-11.362-49.372-18.872-73.54-29.4-93.952-74.876-184.04-140.34-258.114-9.27 8.454-18.212 17.332-26.178 27.028zm555.92 136.568c-24.342 53.788-43.12 110.168-54.842 168.058 26.62-30.108 57.686-55.91 89.868-79.842 40.4-29.762 82.89-56.648 126.794-80.956-5.72-17.962-14.898-34.98-27.862-48.76-32.276 24.89-64.222 50.174-96.292 75.332 34.146-49.75 69.674-98.558 107.528-145.556-2.734-9.272-8.47-17.224-14.472-24.64-8.014-9.79-17.002-18.714-26.336-27.232-43.104 48.634-77.516 104.544-104.386 163.596zm-280.49-63.892c-37.84 20.35-65.904 56.066-81.114 95.838 22.722 64.316 37.916 131.492 43.212 199.532 13.23 17.38 25.708 35.404 36.628 54.354 28.552 49.138 50.866 101.7 69.078 155.456a941.603 941.603 0 0 1 26.604-69.972c21.15-49.248 45.916-97.488 79.244-139.696 2.656-69.282 18.37-137.684 41.862-202.77-8.564-21.088-20.522-40.84-35.796-57.716-22.582-25.11-52.924-43.81-86.316-50.048-31.648-6.144-65.18-.378-93.402 15.022zM3.812 621.724c38.136 24.576 73.87 53.206 104.544 86.74 34.208 37.398 62.288 81.176 77.61 129.732 7.62 24.638 12.632 50.426 11.532 76.322 39.662 53.206 100.428 87.964 164.146 103.898-.314-61.456-11.36-122.802-32.432-180.518-35.12-96.718-97.112-182.28-172.804-251.388-35.686-32.466-74.154-62.086-115.7-86.71-18.432 38.468-29.196 80.126-36.896 121.924zm615.994-31.726c-72.11 66.736-131.414 148.526-166.362 240.702-22.77 59.806-34.774 123.698-35.088 187.7 63.688-15.918 124.452-50.692 164.13-103.852-1.022-23.616 3.126-47.156 9.554-69.8 12.838-44.438 36.566-85.184 65.982-120.666 33.438-40.32 74.23-74.058 118.166-102.358-7.716-41.798-18.478-83.456-36.896-121.924-43.024 25.504-82.764 56.334-119.486 90.198z"/></svg>
