<svg xmlns="http://www.w3.org/2000/svg" viewBox="0 0 896 1024"><path d="M535.252 707.567c-33.961 24.66-72.318 45.018-90.573 85.385l-36.253-18.092c2.83-7.479 4.652-16.056 5.12-25.921.352-5.656-2.198-12.691-3.11-18.442-1.097-6.03-2.196-12.153-3.296-18.277-2.196-12.039-4.557-24.192-7.129-36.229-5.002-23.375-10.846-46.585-17.881-69.304-6.567-21.736-14.165-43.288-23.561-63.997-8.765-19.376-19.354-37.912-32.326-54.787-7.76-9.957-16.244-19.26-25.197-28.213-4.019-3.925-8.298-7.759-12.223-11.779-2.736-2.922-6.217-8.322-10.588-8.486-7.037-.28-10.776 7.574-13.066 13.044-3.11 7.409-6.031 14.257-10.144 21.268-4.091 7.037-9.583 3.741-16.338 2.478-7.854-1.473-24.192-13.416-27.488-14.983-2.922-1.543-11.687-3.108-13.416-6.124-1.731-2.992 1.099-7.479 3.202-12.762 2.196-5.118 18.722-49.855 20.639-58.269a99.271 99.271 0 0 0 2.36-14.141c.282-2.29 2.198-13.066.561-14.609-11.967-11.5-34.336-12.411-49.225-20.733 8.859-13.136 14.889-21.644 20.733-31.039 51.959-1.917 95.949 4.113 147.628 2.546 28.119 65.026 63.927 122.455 103.545 176.145 14.609-5.306 16.338-23.468 36.253-23.375 8.39.094 14.607 5.47 19.54 11.593 2.36 3.086 4.465 6.381 6.849 9.489 2.266 3.203 5.844 6.381 6.287 10.59.374 4.019-1.004 10.494-3.18 13.884-38.823 60.701 7.574 142.251 22.275 203.139zm293.176 8.04c-4.838 9.303-10.144 18.536-15.708 27.488-9.045-2.922-43.568-13.79-65.002-14.795-59.182-3.833-96.159 14.327-134.772 31.041l-18.091-23.281c2.196-3.016 4.487-5.937 6.941-8.672 14.165-15.894 34.968-26.482 42.82-47.565 7.76-20.453.561-42.564-7.572-61.636-8.672-20.453-18.068-40.53-26.67-60.889-10.68-25.383-21.432-50.674-37.14-73.417-2.758-4.019-4.675-9.325-8.602-12.317-6.1-4.582-10.844 1.543-16.056 4.183-12.786 6.311-24.66-7.105-32.957-15.613-4.395-4.559-9.419-10.402-10.682-16.876-1.473-7.504 3.739-13.16 8.204-18.536 9.583-11.43 19.915-23.467 26.764-36.721 4.463-8.39 7.291-18.067 8.296-27.558-11.126-21.644-44.175-21.362-56.96-41.371 1.004-1.541 1.917-3.202 2.828-4.745 3.366-6.124 6.567-13.066 12.223-17.437 7.037-5.468 15.077-.817 22.205 1.731 7.854 2.828 16.058 4.019 24.286 4.745 9.115.724 18.255 2.196 27.464 2.384 8.134.188 16.526-.094 24.66-.654 11.593-.727 29.029-7.293 35.622-7.107 8.39.35 8.835 3.366 16.524 8.11-1.099 2.852-1.845 6.217-2.29 9.771-1.099 8.322-.724 16.712-.468 24.94.374 8.859-.167 18.255 1.193 27.208 1.567 9.583 6.124 17.881 9.677 26.832 3.739 9.513 7.76 19.004 11.875 28.493 8.226 18.442 16.992 36.697 25.851 54.881 17.787 36.603 35.692 73.042 49.925 111.118 7.037 18.98 13.698 38.333 17.717 58.155 4.746 23.817 28.399 47.191 47.309 61.075 3.086 2.29 7.199 4.932 10.588 7.035zm-611.64 17.811c5.842-1.917 1.004-14.515 2.546-20.639-12.691-7.315-24.658-15.169-31.133-28.493-1.729-3.645.539-13.228.911-17.155.538-5.656 1.193-11.336 2.103-16.806 1.637-10.402 4.021-20.545 6.943-30.689 5.47-18.7 12.948-36.697 20.451-54.765 4.465-10.682 16.432-43.568 18.536-49.132 1.637-4.277 4.113-9.303 1.917-14.14-1.731-3.835-5.306-4.676-8.765-6.311-3.833-1.917-19.54-9.958-23.748-11.313-3.366-1.193-10.68-5.75-14.048-4.113-3.669 1.729-11.148 17.062-12.879 20.265-3.927 7.315-7.409 14.889-10.588 22.461-7.503 17.531-13.79 35.528-19.913 53.69-11.056 32.606-20.453 66.661-35.973 97.608-11.686 23.281-29.942 46.092-53.594 58.153 5.468 9.397 11.312 18.722 17.529 27.675 30.689-24.566 84.285-34.898 139.704-26.296zm529.271 23.28h-.282c-4.651-.28-9.301-.468-13.766-.468-24.472 0-44.667 4.581-63.553 11.15-60.819 54.508-141.061 87.745-228.992 87.745-91.672 0-175.022-36.065-236.564-94.78-8.228-.911-16.432-1.451-24.472-1.451-35.248 0-66.662 8.929-84.543 23.818 80.336 102.446 205.244 168.267 345.58 168.267 146.997 0 277.188-72.294 356.821-183.25-15.8-4.838-37.63-10.4-50.043-11.032h-.186zM46.135 706.935h-.092C16.919 648.221.487 582.027.487 512c0-242.408 196.572-438.98 438.98-438.98S878.447 269.592 878.447 512c0 63.365-13.416 123.436-37.514 177.756-2.384-1.355-4.652-2.992-6.311-4.183-19.26-14.071-33.775-31.695-36.253-43.733-4.465-22.461-12.037-44.199-18.792-62.36-.819-2.104-1.661-4.207-2.384-6.217 3.577-19.891 5.4-40.344 5.4-61.263 0-189.28-153.94-343.219-343.125-343.219S96.343 322.721 96.343 512c0 32.606 4.489 64.184 13.066 93.962-6.405 19.447-13.066 37.888-21.738 55.139-10.774 21.362-25.921 38.074-41.535 45.834z"/></svg>