<svg xmlns="http://www.w3.org/2000/svg" viewBox="0 0 1024 1024"><path d="M767.937 510.428c0-176.244 137.986-209.944 188.525-209.944 33.702 0 65.86 13.8 65.86 13.8-139.421-133.323-272.746-36.821-272.746-36.821-3.06-84.221-56.721-142.462-56.721-142.462 39.718 183.945-74.856 260.465-106.853 277.961-12.834-83.029-41.073-140.778-73.972-140.778-32.879 0-61.199 57.748-73.952 140.778-32.099-17.497-146.652-94.017-106.853-277.961 0 0-53.681 58.242-56.721 142.462 0 0-133.323-96.502-272.828 36.821 0 0 32.159-13.8 65.86-13.8 50.621 0 188.505 33.7 188.505 209.944 0 176.246-125.623 216.127-186.904 216.127-49.103 0-65.942-13.8-65.942-13.8s107.262 127.223 271.309 39.861c0 0 7.619 81.181 59.761 136.383 0 0-59.433-184.11 103.813-277.572 12.834 82.865 41.073 140.389 73.952 140.389 32.817 0 61.138-57.523 73.89-140.389 163.246 93.462 103.895 277.572 103.895 277.572 52.06-55.202 59.761-136.383 59.761-136.383 163.965 87.363 271.309-39.861 271.309-39.861s-16.942 13.8-65.942 13.8c-61.302 0-187.006-39.881-187.006-216.127z"/></svg>