<svg xmlns="http://www.w3.org/2000/svg" viewBox="0 0 1024 1024"><path d="M465.564 879.739c32.134 5.084 64.57 3.994 96.764.304-6.536 7.684-13.738 14.766-20.274 22.512-9.864 37.64 21.544 73.222 9.32 110.862-4.236 19.002-22.512 34.13-42.42 31.648-21 .122-37.096-18.154-40.364-37.82-8.472-34.616 14.886-66.748 10.832-101.242-3.45-9.38-9.138-17.61-13.858-26.264zm331.438-139.002c-23.66 22.512-44.418 48.11-70.014 68.746.968 15.25 23.116 6.838 31.83 15.612 27.474 23.42 34.07 65.78 68.926 81.634 24.812 15.008 60.938-3.086 62.572-32.194.968-26.746-20.514-48.048-42.844-59.244-18.82-9.016-35.462-21.664-49.44-37.156.846-12.466.726-24.992-1.03-37.398zm-566.356.244c-4.114 12.828-4.054 27.11-10.528 38.97-23.42 27.474-65.72 34.13-81.634 68.926-15.19 24.812 3.024 60.576 31.95 62.572 26.87 1.09 48.17-20.574 59.486-42.904a158.307 158.307 0 0 1 37.096-49.26c12.526.908 25.114.788 37.64-1.028-23.964-26.384-52.648-48.29-74.01-77.276zm284.012-247.296c3.338.726 6.8 1.018 10.014 2.174 18.532 6.664 30.25 26.018 25.976 45.362-4.78 27.716-41.998 40.968-63.056 22.148-23.602-17.488-16.46-58.578 11.558-67.172 8.44-2.758 3.348-1.538 15.508-2.512zm-10.87-164.966c-7.794.178-15.492 1.034-23.216 2.094-.544 41.028 1.512 82.118-1.21 123.026-33.95-23.662-58.76-57.852-90.046-84.66-16.278 13.374-31.286 28.2-43.874 45.204 28.262 29.954 59.97 56.824 86.114 88.774-40.666 2.844-81.454.304-122.24 1.574-2.42 20.938-2.118 41.998.786 62.874 39.88.848 79.82.122 119.758.364l-83.932 84.418c12.646 16.822 27.654 31.406 43.508 45.144 31.166-26.446 56.824-58.7 88.412-84.72 1.454 40.908-.484 81.814 1.212 122.722 20.696 2.724 41.634 2.966 62.45.484 1.452-40.726-.968-81.452 1.452-122.118 31.952 25.78 58.458 57.55 88.412 85.628 17.004-12.526 31.77-27.594 45.266-43.752-27.172-30.56-58.942-56.642-84.902-88.23 40.908-1.816 81.936.242 122.904-1.21 2.844-20.818 3.148-41.876.424-62.694-40.786-1.27-81.574.97-122.3-1.39 23.904-33.526 57.246-58.942 85.084-89.138-12.83-17.368-27.776-33.162-45.75-45.266-28.926 28.442-55.976 58.942-87.02 85.144-1.936-40.786-.302-81.574-.968-122.36l-15.876-1.716c-8.15-.008-16.3-.036-24.448-.196zm7.666-42.242c55.442 2.65 104.16 15.26 148.968 49.66 56.944 42.542 93.978 110.622 97.852 181.726 9.56 115.644-74.554 229.048-187.474 254.706-57.792 14.22-120.728 6.596-173.254-21.484-60.272-31.588-106.324-89.138-123.51-155.038-17.428-64.69-6.718-136.338 29.046-193.04 37.218-60.334 101.484-103.118 171.62-113.586 20.326-2.696 8.104-1.398 36.752-2.944zm9.766-62.602c-23.684.382-47.444.592-70.664 6.06-84.902 16.762-161.09 71.588-204.78 146.142-43.692 73.102-54.524 164.6-29.774 245.992 23.54 79.396 80.666 147.898 154.252 185.78 73.646 38.548 162.966 45.022 241.514 18.154 74.978-25.234 139.062-80.544 175.31-150.742 35.582-68.018 44.054-149.41 23.844-223.42-20.636-76.914-72.558-144.63-141.122-185.054-45.73-25.88-95.778-41.534-148.58-42.912zm-356.474 268.39c-42.602 36.248-95.19-17.792-141.18 7.14-30.196 12.406-31.83 61.968-.848 74.434 38.548 19.062 76.734-12.83 116.188-7.382 10.652 4.84 17.61 15.248 27.05 22.086-3.812-32.012-5.87-64.266-1.21-96.278zm694.828-8.896c3.33 31.952 4.54 64.146-.422 96.038 11.738-5.992 22.934-16.28 37.094-14.04 34.252 2.118 69.168 23.176 103.056 6.898 30.984-11.618 33.466-61.784 2.422-74.796-39.82-20.636-79.82 15.674-120.424 5.75-7.444-6.416-14.282-13.496-21.726-19.85zM177.776 158.933c-22.978 1.86-41.81 13.584-44.134 38.384-.424 26.93 21.604 47.928 44.176 59.184 18.638 8.956 35.22 21.482 48.532 37.398-1.09 11.376-1.452 22.752-.726 34.19 24.206-24.206 46.112-50.772 73.284-71.892-13.194-4.9-29.956-3.448-39.336-15.552-23.418-25.114-32.314-64.872-67.292-78.064-7.794-3.146-3.052-1.61-14.504-3.648zm663.914-3.726l-8.56 2.716c-39.818 15.43-44.902 64.206-76.794 88.774-12.224-.484-24.448-.544-36.61.726 23.298 25.718 50.772 47.686 72.98 74.614 2.542-10.65 3.994-21.604 7.504-32.012 17.55-26.202 51.982-32.436 72.254-55.794 11.498-12.648 20.092-30.318 15.794-47.686-8.438-23.616-21.818-31.504-46.568-31.338zM506.34 21.429c-14.016 3.214-24.394 6.984-31.032 20.91-20.152 39.274 11.436 79.092 7.26 119.578-8.048 8.048-16.036 16.156-23.298 24.932 32.498-4.48 65.418-5.932 97.974-.546-6.234-11.74-17.126-22.754-14.584-37.096 2.118-35.036 24.024-71.528 5.628-105.78-8.774-16.026-23.906-23.012-41.948-21.998z"/></svg>