<svg xmlns="http://www.w3.org/2000/svg" version="1.0" viewBox="0 0 400 400"><path d="M206 42.7c0 2.8 14.7 19.2 23 25.8 8.1 6.4 20.2 22.8 24 32.5 3.8 9.5 3.7 15-.4 27.7l-3.6 11.1 4.4 8.7c9.5 18.4 13.1 34.9 12.3 56-1.1 30-11.6 53.7-33.1 75-15.2 15.2-31.9 24.5-52.6 29.6-7.8 1.9-12.3 2.3-25.5 2.3-18 .1-25.4-1.2-39-6.7-8.9-3.6-26.1-13.2-31.4-17.5l-3.4-2.7 1.5 3c5.2 10 22.9 28.9 37.1 39.6 15.9 12 34.8 21.1 54 25.9 11.3 2.8 29.4 5.6 30.4 4.7.2-.3.9-3.6 1.3-7.4 1.9-14.5 9.4-28.7 22-41.2 8.3-8.2 15.9-12.7 32.3-19.1 25.3-9.9 34.7-15.8 51.3-32.4 20.5-20.5 28.3-38.1 27.1-61.6-.7-12.5-3.9-24.5-10.1-37.5-5.4-11.2-11.7-20.2-23.4-33-10.3-11.3-20.5-26.5-22.8-34-1-3.1-1.9-10.8-2.3-20.4l-.6-15.4-7.2-2.8c-9.8-4-23.7-7.5-36.4-9.4-11.1-1.6-28.9-2.1-28.9-.8z"/><path d="M180.6 45.6c-28.4 5.9-53.1 18.8-74.3 38.9-10.2 9.6-21 22.1-23.8 27.5-1.4 2.6-.7 2.4 8.2-3.2 19.8-12.4 34.7-17.9 53.6-19.7 31.6-3 64 8.3 87.6 30.7l7.3 6.9 1.1-2.6c.6-1.4 1.2-5.8 1.2-9.7 0-6.1-.5-7.9-3.7-14.5-2.1-4-6.1-10.4-9-14-2.9-3.6-9-11.2-13.5-16.7-4.5-5.6-10.4-13.8-13-18.2-5.6-9.3-4.4-9-21.7-5.4zM286.4 63.5c-.3 2-.2 8.5.4 14.4.8 8.8 1.5 11.8 4 16.7 5.2 10 8.5 14.1 18.9 23.3 18.4 16.3 28.8 30.6 36.2 49.6 5.4 13.6 7 20.8 7.8 33.5 1.9 34.6-15 64.7-48.9 86.7-10.1 6.6-21.1 11.1-38.3 15.7-18 4.9-26.8 9-35 16.7-10.6 9.9-16.7 21-19.1 34.2l-.6 3.7h8c4.4 0 13.5-.9 20.3-2.1 32.1-5.4 61.3-20.4 84.5-43.4 16.4-16.3 24.6-28.3 33.9-49.2 19.4-43.4 17.4-94.9-5.2-137.3-14.4-26.8-34.8-47.9-61.5-63.4l-4.7-2.7-.7 3.6zM80.5 132.6c-1.1.2-4.5.9-7.5 1.5s-9.7 3.1-14.9 5.6c-7.9 3.8-10.9 5.9-17.7 12.7-6.7 6.8-9 9.9-12.8 17.7C14.5 197 19.3 226.8 40 248c17.4 17.7 42.8 24.5 67.3 17.9 5.7-1.5 8.5-3 18.1-9.9 16.9-12 25.3-30.7 21.7-48.2-2.8-13.5-12.1-25.1-24.8-31.1-6-2.8-8.1-3.2-17.1-3.5-8.8-.4-11.2-.1-16.5 1.8-12.6 4.6-21.3 12.4-27.4 24.7-2.6 5.4-2.8 6.7-2.8 17.6 0 9.9-.2 11.7-1.5 11.5-2.5-.5-4.2-12.9-3.1-22.4 2.9-23.8 18.7-41.1 42.1-46 11.4-2.4 23.6-.3 35.3 5.8 7.3 3.9 17.4 14.6 21.7 22.9l3.2 6.4-.7-5.5c-1.6-13.8-8.3-26.8-19.5-38-8.2-8.1-19.4-14.7-30-17.5-5.6-1.6-21.9-2.8-25.5-1.9z"/></svg>
