<svg xmlns="http://www.w3.org/2000/svg" viewBox="0 0 762 1024"><path d="M.988 171.046C61.09 172.67 122.134 143 153.902 91.232c151.344 0 302.686-.314 454.054-.156 23.092 37.324 61.702 64.348 104.294 74.518 15.884 3.984 32.318 5.268 48.674 5.478-1.048 78.45-25.188 156.898-70.744 221.012-26.578 37.612-60.286 69.982-98.37 95.774-23.38 16.278-48.988 28.858-74.072 42.252 47.284 23.04 93.6 49.748 131.134 87.152 72.788 69.958 112.89 170.974 112.156 271.546-60.258-1.808-121.644 27.888-153.282 79.97-151.29.052-302.58.026-453.87 0-31.662-51.898-92.76-81.7-152.914-79.996C2.036 808.34 27.12 727.794 74.666 662.634c28.938-39.79 66.106-73.366 107.886-99.236 19.92-12.58 41.256-22.672 62.094-33.654-24.902-12.792-50.404-24.638-73.68-40.314C112.018 451.084 64.314 395.596 35.9 331.194 13.49 280.948 1.826 226.036.988 171.046zm337.204 147.148c-38.53 13.42-69.826 46.394-80.126 85.998-4.798 18.662-6.528 39.134.812 57.402 10.328 26.526 29.356 48.438 49.066 68.542-22.882 22.148-45.214 47.758-52.5 79.604-5.662 34.284 6.658 70.246 29.488 96.01 26.998 30.798 69.38 47.364 110.112 42.514 40.13-4.324 77.61-28.57 97.714-63.588C506.1 661.14 512.234 632.28 505 605.834c-9.2-29.226-29.068-53.47-49.224-75.908 21.832-24.716 45.24-51.346 51.478-84.74 2.962-45.738-21.468-91.948-60.548-115.826-31.978-20.026-73.128-24.088-108.514-11.166z"/></svg>