<svg xmlns="http://www.w3.org/2000/svg" viewBox="0 0 200 147"><path d="M76.031 13.727C84.02 9.259 91.994 4.779 99.987.317c12.444 6.974 24.9 13.94 37.344 20.92.338.307.725-.012 1.063-.137 10.6-4.924 21.219-9.817 31.831-14.722 3.881-1.818 7.813-3.543 11.662-5.417-.03 12.966.013 25.938-.024 38.904-7.888 1.768-14.75 7.298-18.413 14.472-2.369 4.53-3.631 9.566-4.15 14.628-3.731.775-7.469 1.512-11.2 2.262-.412-9.23-3.419-18.334-8.688-25.926-5.48-7.96-13.362-14.26-22.387-17.74-11.469-4.493-24.7-4.255-36 .656-7.819 3.356-14.694 8.842-19.763 15.666-5.862 7.842-9.268 17.465-9.693 27.25-3.638-.7-7.263-1.462-10.9-2.193-.744-7.367-3.163-14.803-8.131-20.42-3.775-4.269-8.882-7.4-14.45-8.655-.032-12.966.006-25.938-.02-38.904C32.75 7.853 47.532 14.539 62.213 21.425c4.65-2.487 9.207-5.143 13.825-7.692l-.006-.006ZM0 70.37c11.063-3.237 22.175-6.293 33.219-9.573.4.706.55 1.518.775 2.287a41.498 41.498 0 0 1 1.337 8.617c21.481 4.243 42.944 8.585 64.419 12.866.294.037.581.018.875-.044 21.325-4.293 42.65-8.56 63.981-12.816.188-3.7.857-7.38 2.019-10.898 9.856 2.806 19.7 5.65 29.55 8.48 1.275.343 2.525.8 3.825 1.062-4.813 1.53-9.556 3.28-14.35 4.874-23.069 7.905-46.162 15.728-69.256 23.57-5.475 1.837-10.925 3.755-16.413 5.536-9.868-3.262-19.687-6.667-29.537-9.991A37316.688 37316.688 0 0 1 0 70.358v.013Zm39.288 19.37c5.868 1.85 11.68 3.912 17.512 5.887a48.796 48.796 0 0 0 17.606 19.408c7.9 4.993 17.281 7.617 26.631 7.349 9.882-.225 19.632-3.687 27.513-9.642a48.886 48.886 0 0 0 11.075-11.641c1.219-1.719 2.169-3.618 3.25-5.412 4.994-1.724 10.012-3.386 15.012-5.086.925-.294 1.826-.687 2.788-.869 1.519 5.006 3.981 9.686 6.987 13.947a76691.727 76691.727 0 0 1-67.68 42.635c-22.576-14.178-45.107-28.431-67.676-42.616 2.963-4.293 5.463-8.96 6.982-13.972v.013Z"/></svg>
