<svg xmlns="http://www.w3.org/2000/svg" viewBox="0 0 136 106"><path d="M73.8 0s11.075 28.97 14.288 37.978c4.127-3.12 7.897-6.687 12.147-9.641-1.003 5.072-3.413 14.84-3.413 14.84L136 39.914 99.36 54.209l9.69 12.089-15.16-3.568 3.476 39.56s-6.213-16.358-9.835-24.339c-2.43 4.836-5.261 9.502-8.895 13.551-6.851 7.22-16.12 11.79-25.824 13.843-4.654.863-9.656.884-15.054 0-11.118-2.362-21.884-8.048-28.654-17.325C2.91 80.132-.35 70.043.03 60.046-.196 48.292 5.087 36.9 13.235 28.54c5.814-5.407 12.848-9.671 20.651-11.497 5.695-1.235 11.748-1.585 17.405-.99 9.095.96 17.43 5.254 24.463 10.897L73.8 0ZM39 20.02c5.206.322 10.624.961 15.214 2.516 4.4 1.49 9.249 3.91 12.76 7.019 3.933 3.481 8.51 8.2 10.829 13.876-2.408-.369-7.18-1.322-7.18-1.322l6.453 8.23-21.915 8.357 23.223-1.83-2.233 10.255s4.012-3.003 6.123-4.341c-.378 4.773-.832 9.628-2.616 14.117-1.974 4.91-4.628 9.573-8.089 13.589-2.493 2.91-8.59 7.514-8.59 7.514s8.505-3.706 15.643-12.296c4.123-4.965 6.522-11.661 8.42-18.036 2.353 4.608 5.894 14.308 5.894 14.308l-1.779-22.551 10.297 2.135-6.48-8.658L117 44.515l-23.367 1.66s1.295-6.522 2.093-9.754c-2.798 2.088-5.384 4.456-8.272 6.425-3.176-6.891-8.356-21.14-8.356-21.14s.828 10.09.93 15.16c-2.616-2.292-4.557-5.236-7.308-7.38-4.947-3.867-10.527-7.234-16.777-8.433-6.565-1.262-11.304-1.042-16.93-1.033H39Zm-15.056 5.448C10.771 32.764 2.616 47.61 3.014 62.426c.612 16.381 12.16 31.691 27.802 37.14 3.654 1.223 7.483 2.877 11.419 2.324 4.873-1.633 8.476-5.502 12.023-9 4.124-3.968 6.546-9.25 8.638-14.454 2.165-5.503 2.302-10.993 1.964-16.808-4.664.312-31.028 1.967-31.028 1.967s24.105-9.208 28.859-11.052c-2.067-6.04-5.862-11.373-10.26-15.994-7.171-6.511-16.425-11.115-26.283-11.546a4.495 4.495 0 0 0-2.2.473l-.004-.008Z"/></svg>
