<svg xmlns="http://www.w3.org/2000/svg" viewBox="0 0 1024 1024"><path d="M187.23 324.087c-21.984 12.394-43.465 30.022-55.18 51.83-12.919 23.868-13.949 52.685-19.335 80.821-5.649 29.343-16.072 57.917-35.407 79.201-19.335 21.217-47.735 35.166-75.785 42.173 27.042 24.042 58.004 42.085 91.791 58.069 26.844 12.679 55.421 24.042 83.383 21.897 27.808-2.123 54.917-17.604 78.346-35.319 13.597-10.423 25.926-21.547 40.378-29.582 8.561-4.709 17.867-8.3 27.196-11.387-39.262-27.634-77.58-68.251-99.127-112.133-23.014-46.88-34.225-93.5-36.262-145.57zm518.668 264.119c18.809 9.242 39.852 16.073 60.479 16.773 29.078 1.183 57.303-9.679 86.207-19.511 26.189-8.977 52.946-17.101 79.048-13.773 30.961 3.854 61.07 23.868 82.879 46.969 6.743-29.013 8.627-58.771 7.772-88.967-.855-28.488-4.181-57.392-16.575-82.376-12.416-25.049-33.963-46.179-58.595-60.215-21.809-12.483-46.027-19.488-66.633-32.911-10.86-7.03-20.714-15.92-30.02-24.984-2.736 51.413-15.918 102.038-39.786 147.802-22.663 43.443-64.66 84.85-104.776 111.191zM257.365 169.431c-41.407 89.296-34.4 193.48 18.546 276.448 52.946 82.966 144.561 133.175 243.011 133.175 98.447 0 190.063-50.208 243.009-133.175 53.035-82.968 60.041-187.151 18.635-276.448-48.567 149.687-155.073 177.321-261.644 177.321-106.484 0-212.968-27.634-261.557-177.321zm238.632 727.804c16.159-6.832 31.727-14.715 47.384-22.839 33.108-17.101 67.07-35.144 90.411-64.048 15.833-19.598 26.868-44.145 29.254-68.866 3-29.67-6.327-59.537-6.064-89.382.174-13.008 2.123-26.08 4.181-39.086-23.166 10.772-46.858 18.896-71.842 24.545-19.927 4.533-54.567 9.919-75.281 8.89-52.422-2.473-99.215-14.276-146.249-37.641-.263 16.949 1.971 34.313 7.774 50.297 9.416 25.839 28.312 47.735 49.268 66.632 17.802 16.183 37.048 30.109 51.413 48.765 15.568 20.277 25.4 46.181 26.846 72.105 1.027 17.19-1.797 34.466-7.095 50.627z"/></svg>