<svg version="1.0" xmlns="http://www.w3.org/2000/svg" viewBox="0 0 288 317"><path d="M136 1.4c-11.3 3.1-19.3 9.5-24.1 19.2-9.9 20.1.6 43.8 22.4 50.2 5.7 1.7 5.8 1.7 5.5 5.2-.3 3.4-.4 3.5-4.8 3.8-9 .5-30.7 3.4-39.5 5.3C90.6 86.1 85 87 83 87c-6.8 0-12.1-5-19-18.1l-3.7-7-7.4 7.9c-16 17.1-21.8 34.3-16.5 48.8l1.9 5.1-3.1 7.4c-9.2 22.5-12 43.1-8.8 64.9 1.1 7.3 1.2 9.8.3 10.9-1.8 2.2-13.6 9.5-20 12.4L.8 222l2 2.8c2.2 3 9.6 10.1 15.2 14.4l3.5 2.7-7.8 7.2C9.5 253 6 256.6 6 257c0 .5 1.7 1.4 3.8 2.1 9.5 3.1 26.3 12.5 51.2 28.7 22.8 14.8 42.5 23.4 62.5 27.3 3.9.8 13.1 1.4 20.5 1.4s16.7-.6 20.5-1.4c18.9-3.7 40.1-12.7 58.5-24.8 24.1-15.9 45.8-28.2 55.3-31.2 2-.7 3.7-1.6 3.7-2.1 0-.4-3.5-4-7.7-7.9l-7.8-7.2 3.5-2.6c1.9-1.5 6.6-5.8 10.4-9.6 7.7-7.7 7.7-8-.3-11.1-4.9-1.9-16.9-9.4-18.9-11.8-1-1.2-1-2.6-.2-5.9.5-2.4 1.3-9.2 1.6-15 1.1-17.9-2.2-36.5-9.8-54.7l-3.1-7.5 1.9-5.1c5.3-14.6-.5-31.7-16.5-48.8l-7.5-8-3.4 6.9c-4.1 8.2-9.3 14.8-13.2 16.8-3.9 2-8.3 1.9-18.8-.4-8.5-1.9-30.1-4.8-39.2-5.3-4.4-.3-4.5-.4-4.8-3.8-.3-3.5-.2-3.5 5.5-5.2 16.5-4.8 27.3-20 26.1-36.8-1.2-15.9-11.9-28.3-28.2-32.6-6.2-1.7-9.7-1.7-15.6 0zm15.7 12.7c17.2 6.4 21.6 27.2 8.3 39.2-10 9-22 9-32 0-12.4-11.2-9.8-30.2 5.2-37.7 5.6-2.8 13.4-3.5 18.5-1.5zm-89 75.4c6 6.4 13.8 10.5 20 10.5 2.3 0 7.9-.9 12.5-2 30.9-7.2 66.7-7.2 97.6 0 4.6 1.1 10.2 2 12.5 2 6.2 0 14-4.1 20.2-10.7 6.4-6.6 6.1-6.7 11.7 4.7 2.5 5.2 3.2 7.8 3.2 13 0 6.2-.8 8.8-4.6 14.1-.9 1.3-.3 3.3 3 10 10.5 21.4 13.9 49.3 8.7 71.9l-1.8 7.4 4.7 4.3c2.6 2.3 6.9 5.7 9.7 7.4 2.7 1.8 4.9 3.6 4.9 4.1 0 1-6.4 5-14.5 9-3.6 1.8-6.5 3.5-6.5 3.8 0 .3 3.4 3.4 7.5 6.9 4.1 3.6 7.5 6.8 7.5 7.2 0 .4-.8 1-1.7 1.4-3 1.1-17.9 10.2-34.8 21.2-33.5 21.9-56.3 29.4-84.5 28-19.7-1-41.8-8.4-60.3-20.2-4.5-2.8-14.5-9.2-22.2-14.2-7.7-4.9-16.8-10.5-20.2-12.4-3.5-1.9-6.3-3.7-6.3-4 0-.3 3.4-3.4 7.5-7 4.1-3.5 7.5-6.6 7.5-6.9 0-.3-2.9-2-6.5-3.8-8.1-4-14.5-8-14.5-9 0-.5 3-2.9 6.8-5.5 3.7-2.5 8-5.9 9.6-7.5l2.8-3-1.7-7.4c-2.6-11-3.1-29.3-1.1-40.8 2-11.3 6.6-25.6 10.7-32.7 1.6-2.9 2.9-5.7 2.9-6.2 0-.6-1.1-2.6-2.4-4.6-3.5-5.1-4.2-11-2.1-18.2C50 95.1 55.7 84 56.9 84c.3 0 2.9 2.5 5.8 5.5z"/><path d="M137.9 191.3c-8.2 3.1-14.6 10.4-17.4 20.1-3.5 11.8-1.1 28.6 5.3 36.5 7 8.6 14 11.5 23.6 9.7 5-.9 12.9-8.5 16.2-15.4 3.6-7.4 4.5-21.8 2-30.4-4.4-15.2-18.2-24.7-29.7-20.5zm14.6 10.1c1.8 1.4 4.6 5.2 6.2 8.3 2.5 5.1 2.8 6.9 2.7 14.8-.1 10.3-1.5 14.4-7 20.5-6.5 7.2-14.3 7.2-20.8 0-4.4-4.9-6.5-9.8-7.3-17-1.6-15.9 8-31 19-29.6 2.1.2 5.3 1.6 7.2 3zM68.5 193.5c-.5.2-3.2.6-5.9 1-4.8.7-4.8.7-4.2 3.8.4 1.7 1 3.5 1.4 3.9.4.4 3.5.3 6.7-.2 9.6-1.6 25.4 1.5 36.8 7.2l3.7 1.8 1.9-3.2c1.1-1.7 1.8-3.5 1.5-4-.8-1.3-9.4-4.8-17.9-7.3-7.4-2.1-21.7-4-24-3zM205.5 194.1c-7.1 1.1-17.2 4.3-23.8 7.6-4.4 2.2-4.7 2.5-3.6 4.6 2.4 4.6 2.9 4.8 6.7 2.8 11.1-5.5 27-8.7 36.4-7.1 3.4.5 6.6.6 7 .2.4-.4 1-2.1 1.4-3.8.5-2.9.3-3.2-2.5-3.7-6.2-1.3-15.8-1.5-21.6-.6z"/></svg>
