<svg xmlns="http://www.w3.org/2000/svg" viewBox="0 0 853 1024"><path d="M9.486 418.707c133.325-99.39 269.324-195.331 402.994-294.333-.259 62.135.129 124.27-.172 186.405-75.632 54.546-150.961 109.523-226.334 164.371-59.117-17.981-117.328-38.764-176.488-56.443zm431.152-293.902c113.878 82.013 227.024 165.018 340.73 247.247 20.87 15.609 42.559 30.14 62.868 46.569-57.263 17.334-113.835 37.04-170.882 54.934-5.39 2.673-9.831-1.25-13.841-4.269-72.743-53.77-146.822-105.815-219.09-160.189.604-61.402.129-122.847.216-184.293zM204.127 496.753c74.338-53.899 148.546-107.971 222.884-161.87 73.691 54.072 147.77 107.669 221.85 161.267-27.985 87.188-55.969 174.375-84.988 261.218-91.413-.086-182.87-.302-274.283.086-28.89-86.756-55.84-174.159-85.463-260.7zm473.279 5.174a13281.684 13281.684 0 0 0 175.927-57.22C802.236 602.955 750.148 760.902 699.44 919.28c-36.996-49.544-72.786-100.037-109.308-149.969 29.364-89.042 57.608-178.428 87.274-267.384zM0 445.441c59.117 17.851 117.5 38.204 176.488 56.573 29.149 89.042 57.996 178.17 86.929 267.341-36.134 50.105-72.527 100.037-108.92 149.969C102.883 761.421 52.476 603.086 0 445.441zm286.054 340.902c14.402.259 28.761-.043 43.119-.172 51.743.431 103.487.216 155.23 0 27.596.388 55.236.345 82.876.043 36.565 49.501 72.139 99.778 108.833 149.193-166.182-.086-332.408.302-498.59-.216 36.867-49.113 72.311-99.261 108.532-148.848z"/></svg>
