<svg xmlns="http://www.w3.org/2000/svg" viewBox="0 0 503 479"><path d="M234.3 20.7c-30.1 36.8-41.6 52.5-57.6 78.4-5.6 9.1-13.7 24-13.7 25.2 0 .3 7.8.7 17.3 1 12.7.4 19.4 1.1 25.5 2.6 17.4 4.4 33.1 13.9 46.5 28.2 15.3 16.3 23.9 35.2 23.6 52.3 0 4.5-.2 4.8-1.1 2.6-.6-1.4-3.7-7.9-6.8-14.5-14.6-30.2-40.6-50.6-74-58-10.2-2.3-39.2-3.1-52.9-1.5-24.8 2.8-51.1 9-75.6 17.8C48.4 161 1.1 180.1.4 181.1c-.6 1.1 27.7 45.5 41.4 64.8 5.2 7.4 14.1 19.1 19.6 26C71.2 284.2 89.5 304 91 304c.4 0 1.5-2.8 2.5-6.2 3-10 9.1-24.5 13.6-32 4.9-8.3 14.9-19.2 23.9-26 8.3-6.4 24.2-14.2 34.5-16.9 10.8-2.9 29.4-3.2 37.9-.6 3.2 1 5.7 2 5.5 2.2-.2.2-5.1.9-10.9 1.5-28.5 3.1-49.2 13-68.1 32.7-32.6 33.8-44.5 92.1-38 185.6 1.2 16.4 2.1 30.5 2.1 31.3 0 .8.8 1.4 1.8 1.4 3.1 0 61.4-15.8 77.7-21 19.3-6.3 45.8-16.6 57.8-22.6 4.8-2.4 8.7-4.6 8.7-4.8 0-.2-3.7-3.1-8.2-6.4-18.2-13.2-29.1-25.3-36.4-40.7-5.4-11.4-8.1-21.1-9.4-34.1-1.8-17.2.8-32.4 7.7-45.6 3.4-6.5 8.5-12.7 7-8.5-.4 1-1.6 6.4-2.8 12-3.8 18.2-2.5 39 3.3 56.2 14.4 41.9 57 74.4 127.8 97.3 14 4.5 75.9 20.7 76.5 20 .5-.5 3.4-50.8 4.1-70.3.9-24.4-1.7-68.1-4.7-79.7l-1-3.8-7.2 5.3c-14 10.2-24.3 15.9-35.7 19.5-26.4 8.5-58.9 4.1-81.6-11.1-6.9-4.6-17.4-15.4-17.4-17.9 0-.4 2.6.9 5.7 2.9 36.2 23.1 79.2 23.6 116.5 1.2 19.8-11.9 45.1-34.9 63.2-57.4 14.7-18.4 56.7-83 54.9-84.5-1.5-1.3-57.9-22.8-72.8-27.8-17.2-5.7-35.9-10.9-52.5-14.5-15.9-3.5-20-4-20-2.6 0 .7 1.3 5.3 2.9 10.3 9.1 28.4 8.8 50.7-1.1 74.4-7.4 17.8-23.9 36.7-37.9 43.5-4.1 2-8.7 3.9-10.4 4.3-3 .6-3 .6 1-2.6 13.1-10.7 25.6-26.5 32-40.3 15.7-34.3 12.3-71.2-10.9-118.2-9.5-19.1-19.7-35.2-35.1-55.4C285.2 38.1 254 .8 252.4.297 251.8.1 243.6 9.3 234.3 20.7Z" fill="#000" fill-rule="nonzero"/></svg>
