<svg xmlns="http://www.w3.org/2000/svg" viewBox="0 0 296 221"><path fill="#000" fill-rule="evenodd" d="m101.11 84.069 6.39-.409 6.143 4.302 2.947 16.713 16.713-2.947 2.867 2.007 3.07 17.41 17.409-3.07 138.437 96.934c-14.5-.794-31.035-3.622-49.604-8.486-52.043-41.324-84.931-64.963-98.666-70.918-13.735-5.955-28.904-13.931-45.505-23.928l-.201-27.608Zm21.45 99.253c24.412 4.072 44.88 2.737 61.402-4.006l33.585 23.517c-27.993 14.988-59.739 20.227-95.238 15.716l.25-35.227Zm-53.292 7.243L94.83 170.62c3.004 2.103 7.387 4.561 13.148 7.375l-1.52 36.169c-15.483-6.365-27.88-14.232-37.19-23.6Zm70.179-84.535 13.925 9.75-11.838 2.088-2.087-11.838ZM116.51 89.97l13.926 9.75-11.838 2.088-2.088-11.838Zm-49.936 30.345c2.51 11.524 8.175 24.646 16.994 39.367l-18.884.816-5.573 19.292c-4.232-4.998-9.105-14.31-14.62-27.938l22.083-31.537Zm8.975-34.611 22.366-1.43-.458 50.341-21.908-48.911ZM65.435 60.92l7.66-1.351 28.261 19.788-27.65 2.004-36.421 52.016-.613-15.689 29.253-41.776-.49-14.992ZM18.622 21.427 68.59 56.415l-11.265 1.269-38.5-26.959-.203-9.298ZM.6 8.808l13.926 9.751.203 9.299L1.13 28.1.6 8.808ZM18.23 21.152l8.834-2.998 38.617 27.04 2.67 11.053-50.121-35.095ZM.153 8.495l18.366-6.12 4.436 12.902-8.834 2.999L.153 8.496ZM105.57 77.411l26.091-9.282c15.118 12.219 27.84 23.78 38.164 34.682 10.325 10.903 43.89 33.793 100.693 68.67 10.954 15.833 19.292 30.447 25.015 43.842l-138.857-97.23-3.08-17.461-17.461 3.079-2.876-2.014-2.956-16.764-16.764 2.956-6.162-4.315-1.807-6.163ZM224.403 91.05c11.524-2.511 21.206-9.364 29.045-20.56 7.288 20.974 7.722 44.473 1.3 70.496l-31.537-22.083c3.142-7.973 3.54-17.258 1.192-27.853Zm-27.146-80.658c17.912 9.288 32.943 23.271 45.093 41.951-8.604 12.288-17.507 19.482-26.71 21.583-8.955-12.78-20.491-23.91-34.608-33.388Zm-57.836 95.62 11.874-2.094 2.094 11.874-13.968-9.78Zm-23.006-16.11 11.874-2.093 2.094 11.874-13.968-9.78Zm32.59-86.439c11.415-1.773 23.103-1.321 35.063 1.357l-15.529 30.022c-13.162-2.705-26.843-2.925-41.043-.66l21.509-30.719ZM98.342 52.76l53.617 3.87-47.292 17.7-6.325-21.57Zm-26.829-1.031 14.299-4.682 29.341-41.904L130.15.337 93.618 52.511l7.597 26.748-28.347-19.848-1.355-7.683Z"/></svg>
