<svg xmlns="http://www.w3.org/2000/svg" version="1.0" viewBox="0 0 924 893"><path d="M448.5 28.5c-8.4 1.5-20.2 4.9-24.5 7-1.4.7-9.5 4.7-18 8.8-12.9 6.3-33.3 17.5-51 28.1-6.2 3.7-42.9 29.5-60.5 42.6-26.1 19.4-47.4 37.6-74.5 63.4-34.8 33.3-40.9 40.6-45.2 53.1-2.7 8.1-12.2 69.4-15.7 101.5-2.3 20.2-10 68.9-13.2 83-2.8 12.5-6.5 29.4-10.3 48.2-1.9 9.2-4.2 19-5 21.8s-2.7 11.3-4.1 18.8-3 14.6-3.5 15.7-3 11.9-5.5 24c-8.8 42-19.6 84.3-29.1 114-3 9.4-5.4 17.5-5.4 18 0 .6-2.9 8.8-6.5 18.4s-6.5 18-6.5 18.6c0 .9-12.6 33.2-20.7 53.1-.2.7 2.5 1.6 7.4 2.3 58.8 9.4 145.5 26.8 189.3 38.2 41.1 10.6 89.5 25 122 36.1 12.9 4.4 33.9 11.6 46.5 15.9 12.7 4.3 28.4 9.2 35 10.8l12.1 3 9.4-1.9c12.4-2.5 27.1-7 56.5-17.3 87.1-30.6 158.3-50.1 246.5-67.6 23.5-4.6 76.8-14.2 95.3-17.2 4.9-.7 7.6-1.6 7.4-2.3-8.1-19.9-20.7-52.2-20.7-53.1 0-.6-2.9-9-6.5-18.6s-6.5-17.8-6.5-18.4c0-.5-2.4-8.6-5.4-18-6.4-20-16.8-58.6-22.5-84-7.7-33.7-12.2-54-15.6-70.3-1.8-9-3.8-17.6-4.4-19-.5-1.5-2.2-8.8-3.6-16.2-1.5-7.4-3.7-18-5-23.5-6-26-9.5-43.7-13.6-69-5.1-32.4-5.8-37.1-5.6-38.5.4-3-8-61.6-13-89.9-2.8-16.5-4.7-21.8-10.5-30.4-6.3-9.2-78.4-81-94.8-94.3-19-15.4-37.5-28.4-53.2-37.3-13.9-7.8-58.6-33.3-59.8-34.1-1.7-1-22.9-11.6-30-14.8-18.8-8.7-39.5-11.8-57.5-8.7M461 175.4v118.3l-7.7.7c-20.6 1.9-43 7.9-72.3 19.6-16.6 6.6-41.9 19.7-53.5 27.8-17.9 12.5-42.7 35.3-52 47.7-1.7 2.2-5.9 7.7-9.5 12.2-7.3 9.2-15.3 20.1-15.9 21.7-.2.6-3 4.8-6.2 9.3-3.3 4.4-5.9 8.4-5.9 8.7s-4.9 7.5-10.8 15.9c-6 8.3-15.3 21.7-20.8 29.7-12.1 17.6-17 24.7-20.6 29.7-1.5 2.1-6.9 10.3-12 18.3s-9.5 14.7-9.9 15c-1.2.9-14.2 21.8-23.4 37.7-4.8 8.4-9.2 15.3-9.7 15.3s-.7-.8-.4-1.8c4.2-14.5 6.6-23.2 6.6-24.2 0-.7.7-2.6 1.5-4.3.7-1.8 4.1-14.5 7.5-28.2 3.3-13.8 7.1-29.1 8.5-34 1.3-5 4.3-17.5 6.5-27.9s4.3-19.2 4.5-19.7c1.1-1.6 17.2-86.3 19.6-102.9 1-6.6 2.9-18.7 5-31.5.6-3.9 1.5-9.9 2-13.5 2-14.1 3.9-28.1 5.5-40 3.5-26.5 9.2-42.4 22-61.5 9.7-14.5 19.7-24 53.4-51 40.2-32.1 49.3-38.9 72.6-54.4 32.6-21.8 58.6-35.6 81.1-43.1 10.6-3.5 27.9-7.7 32.6-7.9 1.6-.1 1.7 6.2 1.7 118.3m25 149.1c39.4 7 57.8 15.2 92.9 41.4 19.5 14.6 48.5 42.7 54.4 52.7.6 1 .2 1.4-1 1.4-1 0-7.6.5-14.8 1-44.4 3.4-78.7 16.1-101.4 37.5-7.1 6.7-14.9 16.3-17.7 21.7l-1.5 2.8 7.4 4.8c15.1 9.9 25.5 11.7 62.7 10.9 39.2-.8 61-3.2 76.5-8.2 10.2-3.4 23.2-9.4 29-13.6 2.7-1.9 4.9-2.9 5.3-2.3.5.5 3.3 4.3 6.3 8.4l5.3 7.5.1 56c0 58.4-.6 70.4-4.5 89.6-5.9 29.1-18.8 52.5-41.5 75.4-32.1 32.4-82 58.3-140.7 73-15 3.8-35.7 8.5-37.4 8.5-.2 0-.4-106.2-.4-236V320.9l3.3.5c1.7.3 9.7 1.7 17.7 3.1m-176 99c23.7 1.7 49.3 7.7 67.8 16.1 16.5 7.5 33.8 21.4 44.3 35.6 2.8 3.8 5 7 4.8 7.1s-1.8 1.2-3.4 2.3c-15.9 11.1-34.9 13.8-79 11.5-38.2-2-50.5-3.9-67.1-10.1-11.3-4.2-14.6-5.8-22.2-10.7l-5.3-3.3 4.7-6.3c7.7-10.1 18.5-23.8 23.9-30.2 2.7-3.4 6.3-7.8 8-9.8 2.9-3.8 3-3.8 9-3.3 3.3.3 9.8.8 14.5 1.1m-76.6 111.2c-1.3 77.3 2.6 109.4 16.5 137.2 23.3 46.3 68.5 80.4 141.1 106.4 12.5 4.5 29.4 8.8 51.5 13.2 9.8 2 18 3.7 18.2 3.9s.2 14.4.1 31.7l-.3 31.5-17-6.1c-9.3-3.4-28.5-10.7-42.5-16.2-50.4-19.9-98.3-35.2-174-55.8C182.1 768.3 82.9 745 76 745c-1.1 0-2-.2-2-.5 0-.5 8.5-13.7 15.2-23.6 2.1-3.2 4.1-6.5 4.5-7.5.4-1.1 4.4-7.5 8.9-14.4 11.5-17.7 29.9-47.1 32.9-52.8 3.1-5.7 23.7-38.6 25.7-41 .8-.9 6.7-10 13-20.2 18.5-29.8 25.6-41.1 30.1-47.5 2.3-3.4 9.8-14.3 16.6-24.3s12.6-18.2 12.8-18.2.1 17.9-.3 39.7"/></svg>
