<svg xmlns="http://www.w3.org/2000/svg" viewBox="0 0 82 100"><path fill="#000" fill-rule="evenodd" d="M25.605 3.32c9.76-4.573 20.93-4.271 30.692-.02l.631 2.767 2.516-.468c7.11 4.825 13.44 12.292 16.166 20.22l-.796 1.863 2.049.865c2.89 5.502 4.695 13.28 4.67 19.904l-1.566 1.578 1.459 1.465c.177 5.817-1.304 13.3-4.367 19.76l-2.317 1.153.92 1.836c-2.852 7.113-8.861 14.841-16.088 20.35l-2.571-.415-.748 2.478c-9.62 4.575-21.08 4.396-30.861-.174l-.626-2.544-2.815.655c-6.72-4.391-12.45-11.849-15.769-20.252l.881-1.973-2.236-.88C1.8 65.13.293 57.539.518 51.546l1.433-1.516-1.435-1.643c-.347-6.494 1.176-14.181 4.497-19.822l1.933-.942-.815-1.8c2.982-7.476 8.873-15.223 16.067-20.291l2.535.556Zm3.38 3.864-1.344 3.796-4.139-.69c-6.245 4.693-10.068 9.517-12.656 16.44l1.06 2.958-3.382 1.753c-2.883 5.224-3.97 9.642-3.67 15.655L7.687 50 4.739 52.78c-.195 5.55.878 9.88 3.508 15.767l3.82 1.695-1.293 3.53c2.88 7.781 6.446 12.221 12.28 16.288l4.382-.783 1.542 4c8.573 3.332 15.698 3.282 23.974-.132l1.295-4.057 4.347.972c6.04-5.257 9.669-9.656 12.381-16.085l-1.503-3.873 4.066-1.714c2.66-5.98 3.593-10.327 3.44-15.714L74.183 50l2.768-2.902c.023-6.135-.781-10.4-3.29-15.495l-4.186-1.976 1.512-3.427c-2.367-7.343-6.512-11.732-12.684-16.2l-4.239 1.079-1.253-4.5c-8.875-3.295-15.735-3.018-23.827.605Zm4.57 73.58 14.848.058 3.404 6.339-1.115 3.403c-6.417 2.555-12.891 2.356-19.308.059l-1.173-3.815 3.345-6.044Zm-9.741-12.207 7.746 11.327-3.169 5.868-3.756.837c-4.283-3.746-7.65-8.241-10.21-13.396l1.29-3.11 8.099-1.526Zm34.373 0 8.098 1.526 1.291 3.11c-2.561 5.155-5.928 9.65-10.211 13.396l-3.756-.837-3.169-5.868 7.747-11.327Zm-4.188-7.705 2.649 6.52L48.6 78.629l-15.23-.051-7.793-11.46 2.394-6.215 26.028-.051Zm-42.843-9.756 7.632.09 7.421 8.774-2.734 6.46-8.473 1.532-3.937-1.833c-1.793-3.668-2.532-7.89-2.644-12.44l2.735-2.583Zm59.689 0 2.734 2.584c-.111 4.55-.85 8.77-2.644 12.44l-3.936 1.832-8.473-1.532-2.735-6.46 7.422-8.774 7.632-.09ZM54.1 41.344 61.18 50l-7.131 8.662-26.181.05L20.636 50l7.182-8.656H54.1ZM15 32.055l8.474 1.533 2.734 6.46-7.421 8.773-7.632.09-2.735-2.584c.112-4.55.85-8.77 2.644-12.439l3.937-1.833Zm51.998 0 3.936 1.833c1.794 3.668 2.533 7.89 2.644 12.44l-2.734 2.583-7.632-.09-7.422-8.773 2.735-6.46 8.473-1.533Zm-18.4-10.576 8.049 11.256-2.649 6.52-26.028-.05-2.394-6.215 7.793-11.46 15.23-.051Zm-23.964-8.06 3.756.836 3.17 5.869-7.747 11.326-8.099-1.526-1.29-3.11c2.56-5.154 5.927-9.65 10.21-13.395Zm32.73 0c4.283 3.745 7.65 8.24 10.211 13.395l-1.29 3.11-8.1 1.526-7.746-11.326 3.169-5.869Zm-25.98-4.035c6.416-2.297 12.89-2.495 19.307.059l1.115 3.404-3.404 6.338-14.847.058L30.21 13.2Z"/></svg>
