<svg viewBox="0 0 965 432" xmlns="http://www.w3.org/2000/svg"><path d="M914.432.468c32.556 74.996 49.702 132.798 49.67 215.38 0 82.702-17.166 140.488-49.716 215.566l-864.566.066C17.36 356.344.246 298.664.246 215.96.274 133.378 17.294 75.496 49.864.536L914.432.468zM279.348 60.486c-42.314.296-84.648-.274-126.962.296-.274.846-.824 2.56-1.1 3.406 15.064 7.004 31.566 12.906 42.948 25.622 5.564 6.136 8.76 15.254 4.718 23.06-26.128 57.102-52.406 114.142-78.554 171.244-10.854 24.732-27.716 46.524-47.456 64.824-2.412 2.094-4.464 4.57-5.818 7.49 48.894.634 97.85.318 146.744.168 1.1-.486 3.322-1.502 4.442-1.988-14.406-11.022-30.634-21.22-39.414-37.722-4.93-8.612-6.008-19.422-1.608-28.498l44.682-97.364c2.54-5.818 5.058-11.678 8.738-16.884 1.926 3.132 3.682 6.39 5.12 9.796 27.208 64.676 54.86 129.204 82.026 193.902 2.792-.296 5.48-1.268 6.092-4.38 28.076-61.524 56.404-122.92 84.564-184.402 2.222-5.14 4.486-10.346 7.914-14.81 1.67 2.646 3.194 5.396 4.442 8.272 16.122 38.294 32.412 76.504 48.576 114.776 5.332 12.272 6.854 27.356-.528 39.14-3.978 7.85-11.996 11.912-18.47 17.286l-.508 2.92c55.896.126 111.792.296 167.668-.086-1.46-5.204-6.454-7.934-9.88-11.7-13.858-14.048-26.214-30-34.126-48.194a203644.476 203644.476 0 0 0-78.154-184.424c-2.75-6.516-4.782-13.52-4.126-20.67.212-10.05 7.152-18.872 15.698-23.57 2.984-1.946 7.406-3.024 7.574-7.32-49.528-.296-99.076 0-148.604-.148-2.772.36-7.914-1.268-6.814 3.364 10.664 6.728 22.872 13.054 28.626 24.944 3.088 6.158 2.074 13.308-.952 19.252-13.52 29.198-26.722 58.542-40.388 87.654-4.38-5.458-6.306-12.292-9.118-18.598-15.996-37.658-31.864-75.338-47.922-112.956-1.142-4.548-6.6-3.426-10.07-3.702zm532.466 0c-11.935 0-23.185 3.033-33.75 9.098-10.564 6.065-19.099 14.453-25.604 25.164-6.505 10.712-9.758 22.426-9.758 35.142 0 18.88 5.576 34.41 16.728 46.588 11.152 12.179 25.776 18.268 43.872 18.268h10.566l26.998-10.712c-3.325 27.195-11.836 47.42-25.532 60.674-13.695 13.256-32.72 19.981-57.078 20.176v11.886c14.673 0 28.49-1.639 41.452-4.916 12.961-3.277 24.945-8.34 35.95-15.186 11.004-6.848 20.468-15.237 28.392-25.166 7.924-9.928 14.111-21.91 18.562-35.948 4.45-14.037 6.676-29.518 6.676-46.442 0-12.521-1.492-23.869-4.476-34.042-2.983-10.173-6.969-18.586-11.958-25.238-4.99-6.652-10.859-12.227-17.608-16.726-6.75-4.5-13.72-7.729-20.91-9.686-7.19-1.956-14.697-2.934-22.522-2.934zm-.588 14.966c10.467.001 18.341 6.287 23.624 18.856 5.283 12.57 7.924 32.844 7.924 60.82 0 5.185-.44 13.403-1.32 24.652h-16.728c-13.5 0-23.282-4.867-29.346-14.6-6.065-9.733-9.098-25.213-9.098-46.44 0-7.24.905-14.088 2.714-20.544 1.81-6.456 4.647-11.86 8.51-16.214 3.864-4.352 8.437-6.528 13.72-6.528v-.002zM687.09 60.486h-2.934c-9.195 8.315-20.762 16.263-34.702 23.844-13.94 7.581-25.947 12.644-36.022 15.188l-.002 3.08h30.962l.586.88v155.978L613.43 270.9v2.936h105.208V270.9c-10.663-2.347-18.586-7.042-23.77-14.086-5.185-7.043-7.778-17.216-7.778-30.52V60.486z" fill="#000" fill-rule="nonzero"/></svg>
