<svg viewBox="0 0 1176 1119" xmlns="http://www.w3.org/2000/svg"><path d="M588.85 1118.36c91.687-89.839 189.044-172.344 292.073-247.515 103.03-75.171 201.388-135.464 295.077-180.878-56.818-105.73-105.962-222.128-147.433-349.192C987.096 213.71 961.177 100.119 950.809 0c-117.857 18.941-235.714 28.549-353.57 28.823-117.858.274-242.44-8.77-373.749-27.13-18.729 111.692-45.4 221.102-80.015 328.229C108.86 437.049 61.035 558.195 0 693.359c96.78 45.851 193.56 103.702 290.341 173.553 96.78 69.85 196.284 153.666 298.51 251.447zM988.047 664.7a99.779 99.779 0 0 0-.547 10.455c0 15.503 3.575 30.161 9.937 43.181-57.51 36.535-116.098 76.728-175.765 120.579-59.51 43.735-114.937 86.748-166.284 129.039-11.44-13.645-26.522-24.075-43.729-29.76l-2.823-93.06 292.347-218.082 86.864 37.648zM752.44 237.023l111.466 343.774-289.8 212.515-289.8-212.515 110.212-343.774H752.44zM173.512 717.756c7.225-13.684 11.32-29.31 11.32-45.902a99.23 99.23 0 0 0-1.536-17.439l73.404-23.398 291.483 212.36.799 89.62c-19.196 4.862-36.116 15.52-48.83 30.025a2817.243 2817.243 0 0 0-174.273-137.967c-53.835-39.267-104.624-75.033-152.367-107.299zm68.499-543.39c4.41.623 8.917.945 13.497.945 17.145 0 33.248-4.508 47.211-12.414l48.351 54.35-111.99 369.496-75.537 21.2c-12.77-18.522-31.728-32.366-53.85-38.474 28.276-70.347 55.45-146.07 81.52-227.169 21.775-67.735 38.708-123.712 50.798-167.933zM775.103 74.244a97.806 97.806 0 0 0 24.963 43.7l-45.98 65.498-363.37.885-50.082-56.519a97.76 97.76 0 0 0 18.265-49.759c70.062 1.057 141.814 1.586 215.256 1.586 72.254 0 139.236-1.797 200.948-5.391zM1048.5 578.638c-16.259 8.095-29.939 20.67-39.463 36.129l-90.488-38.164-110.101-364.266 43.822-60.249a95.752 95.752 0 0 0 29.258 4.551c10.36 0 20.34-1.646 29.696-4.692 15.525 62.731 35.444 131.501 59.757 206.31 24.928 76.7 50.768 150.16 77.519 220.381z" fill="#000" fill-rule="nonzero"/></svg>
