<svg viewBox="0 0 238 156" xmlns="http://www.w3.org/2000/svg"><path d="M118.75 0l6.24 12.27 6 11.8a35.85 35.85 0 0 1 18.92 19.34c4.59 2.97 13.59 10.33 13.59 22.28v12.28l1.15-.28 10.72-21.59 6.7-13.68 6 14 10 23.25.57 1.33v2.35a82.53 82.53 0 0 1 7.77 6.65l7.22-14.44 6.61-13.22 6 13.49 10.75 24 .61 1.36v54.25h-36v-31.55a29.38 29.38 0 0 0-7.67-8.67l-8.7 10.45-5.48 6.57-5.36-6.66-10.25-12.75-1.54-1.93v-6a31.4 31.4 0 0 0-18 17.49 35.91 35.91 0 0 1 15.18 25.22l.94 7.83H76.94l.94-7.83a35.91 35.91 0 0 1 15.18-25.22 31.35 31.35 0 0 0-18-17.49v6l-1.54 1.93-10.25 12.75-5.36 6.66-5.48-6.57-8.7-10.44a29.69 29.69 0 0 0-7.67 8.67v31.55h-36V101.2l.61-1.36 10.75-24 6-13.49 6.61 13.22 7.22 14.44a82.53 82.53 0 0 1 7.77-6.65v-2.35l.57-1.33 10-23.25 6-14 6.7 13.68 10.56 21.58 1.15.28V65.69c0-11.95 9.01-19.28 13.59-22.28a35.85 35.85 0 0 1 18.92-19.34l6-11.8L118.75 0zm0 59.19C106.738 59.19 97 68.928 97 80.94s9.738 21.75 21.75 21.75 21.75-9.738 21.75-21.75c-.017-12.005-9.745-21.733-21.75-21.75z" fill="#000" fill-rule="nonzero"/></svg>
