<svg viewBox="0 0 422 399" xmlns="http://www.w3.org/2000/svg"><path d="M3.747 278.559c8.153 16.503 14.221 23.045 18.203 19.624 2.508-4.388 8.267-30.442 17.276-78.16l24.235-10.32 5.168-39.153 34.054-7.809 44.172-117.359c30.192-14.134 59.442-28.253 87.753-42.355 13.934-2.922 13.563-14.825 25.775 42.355 8.142 38.12 14.015 61.698 17.617 70.734l46.133 26.606 43.855 114.601 35.36 54.02c6.236-3.471 11.37-10.052 15.398-19.742 6.043-14.535 12.215 114.199-121.625 106.164C163.28 389.73 183.305 321.3 50.558 332.82c-42.88 3.72-58.485-14.367-46.811-54.261zm230.015-28.029c-32.279 4.65-58.824 26.315-25.34 71.208 16.636-19.895 44.25-38.172 75.515-22.329-50.175 22.329-10.027 96.383 93.688 40.211-18.044-26.807-33.021-53.755-44.93-80.843l-29.785-88.125-29.348-12.403-5.504 78.914-26.699-89.383 5.078-37.421-22.812-81.188-60.133 25.652-53.844 140.3-7.172-10.343-19.43 5.114v35.867l-25.44 11.402-7.481 54.727c8.632-4.847 24.003-12.923 41.962-33.648 32.45-37.447 94.041-61.859 141.675-7.712z" fill="#000" fill-rule="evenodd"/></svg>
