<svg xmlns="http://www.w3.org/2000/svg" viewBox="0 0 1024 1024"><path d="M783.35 401.645l239.348 444.623H808.849a258.086 258.086 0 0 0-12.991-70.994l-.222-.606c-23.869-59.412-65.256-105.305-119.69-132.71l-1.178-.592-1.282-.285c-14.88-2.954-30.082-4.233-45.21-5.103l155.073-234.332zM512 198.212L396.353 384.807H273.714l165.509 250.105h44.262l28.518-343.079 28.515 343.079H586.6l165.511-250.105h-124.46L512 198.212zM241.468 400.126L1.302 846.267h213.842a257.994 257.994 0 0 1 12.995-70.994l.222-.606c23.869-59.412 65.26-105.305 119.69-132.71l1.174-.592 1.285-.285c15.462-3.118 31.254-4.217 46.969-5.204l-156.012-235.75z"/></svg>