<svg viewBox="0 0 43 40" xmlns="http://www.w3.org/2000/svg"><path d="M32.444 17.31c3.057-.762 6.4-1.613 10.032-2.553.45.446.51.87-1 2.6-1.508 1.724-4.494 4.446-9.02 5.677v.174c.212 14.45 3.992 11.847 1.255 14.483-1.824 1.758-4.675 1.758-8.552 0l-.49-13.198c-.63.126-1.28.26-1.95.394l-1.52.648c-.282 7.21-.37 11.262-.262 12.157-2.42 2.194-5.33 2.41-8.73.646-.038-4.046-.088-7.888-.15-11.526-2.393.328-4.603.515-6.364.436-6.298-.28-9-6.383 6.136-10.93-.09-3.36-.196-6.498-.314-9.415-2.688-2.89.504-4.896 9.575-6.02-.347 11.912.022 17.946 1.107 18.1 1.084.157 1.763-.115 2.036-.814-.373-10.146-.373-15.54 0-16.18C26.433-.22 29.59-.59 33.71.878c-.766 4.124-1.188 9.6-1.266 16.43zM11.96 21.84c-.017-.84-.036-1.667-.055-2.482-5.15 2.446-5.132 3.274.056 2.482z" fill-rule="evenodd"/></svg>
