<svg xmlns="http://www.w3.org/2000/svg" viewBox="0 0 32 32"><path d="M8.213 5.315v.134l-1.923.909v7.899h6.259V9.101q0-1.013-.127-1.691t-.417-1.058-.589-.559-.79-.343v-.134h8.182v.134l-1.684.909v16.884c-.006.454.052.903.121 1.35q.127.678.417 1.066t.589.566.79.343v.119h-8.182v-.119l1.684-1.043v-5.424l.005-5.351-2.325 1.803H6.289v6.349q0 1.013.127 1.692t.417 1.066.589.566.79.343v.119H.03v-.119l1.684-1.043V6.361L.03 5.452v-.134h8.182zm15.094 15.787v5.583h3.138v-5.583h5.524v-3.02h-5.524v-5.583h-3.138v5.583h-5.509v3.02z"/></svg>
