<svg xmlns="http://www.w3.org/2000/svg" viewBox="0 0 853 1024"><path d="M106.539 566.342c.806 3.69.184 7.033.092 11.254-.184 9.914 1.082 20.084 2.698 29.908 6.318 40.813 25.411 74.573 54.511 103.673 14.665 14.595 30.715 27.924 47.017 40.629a1617.235 1617.235 0 0 0 24.858 18.724c4.221 3.067 10.815 12.522 12.774 2.446 1.891-9.455 1.638-15.957 6.941-24.605 11.438-18.54 45.681 0 47.111 17.133 1.452 17.109 7.124 65.649 47.109 69.984 39.916 4.221 55.665 9.986 69.891 15.657 10.539 4.243 26.218.901 37.125-.253 15.218-1.638 30.346-3.874 45.472-6.502 4.774-.806 10.377-.713 12.522-5.926 2.167-5.234-1.615-11.092-5.12-14.597-8.556-8.462-21.883-12.175-32.606-16.579-9.108-3.69-18.193-7.38-27.486-10.447-11.068-3.69-22.414-5.396-30.715-14.595-12.151-13.421-13.766-32.882-13.143-50.27.713-18.816 2.975-38.277 12.52-54.926 6.572-11.438 11.715-23.706 17.111-35.765 3.159-6.941 14.872-32.79 7.125-39.084-7.31-6.134-23.706 4.403-25.689 12.059-4.219 17.109-35.581 17.109-35.581 17.109s-52.874-1.43-75.657 8.556c-22.874 10.008-85.663-2.79-106.993-32.79-1.454-2.053-9.547-1.246-11.991-2.698-8.371-5.05-9.363-29.1-.901-34.403 11.438-7.125 0-52.782-41.344-52.782-13.513 0-28.916 2.075-39.455 11.436-7.47 6.572-8.185 14.413-4.588 23.243 1.615 4.058 4.058 7.656 5.671 11.807.278.899.532 1.707.715 2.606zm156.107-294.556s-86.217 21.077-79.092 85.228c0 0-45.126 14.665-57.924 56.009-12.867 41.438 2.79 52.874 19.924 52.874 17.201 0 31.428-7.101 31.428-7.101s25.665-5.673 39.985 4.219c14.227 10.008 75.587 8.556 89.907-11.436 14.227-19.992 47.017 0 61.336 34.335 14.228 34.219 58.455 45.657 72.774 4.219 0 0 12.798-54.211 0-127.008 0 0-44.227-39.984-102.774-49.9-58.547-9.984-67.009-14.319-75.564-41.438zm348.03 184.127c0-89.907-94.128-119.885-94.128-119.885s-21.328-4.243-21.328-21.444c0 0-36.572.531-58.016-10.907 0 0-19.094-4.772-19.094-17.548 0-12.889-95.578-38.209-62.051-66.041 0 0 248.322-57.646 376.6 196.555 0 0-53.429-27.832-53.429 47.111 0 51.791 34.681 67.632 63.505 64.749 0 0 51.883 180.159-200.497 275.533 0 0-18.195-5.304-10.631-22.506 7.472-17.019-10.723-17.019-10.723-17.019s-25.663 2.053-25.663-34.335c0-36.386 9.638-39.545 9.638-39.545l38.463-29.978s8.554-7.494 1.06-17.109c-7.562-9.639-26.749-32.167-26.749-43.882 0-8.554 5.142-15.403 10.815-18.562 0 0 82.229 12.612 82.229-125.187zM426.667 898.899c-201.581 0-365.6-164.041-365.6-365.624 0-201.581 164.019-365.6 365.6-365.6s365.6 164.019 365.6 365.6c0 201.583-164.019 365.624-365.6 365.624zm0-791.477C191.488 107.422.698 298.096.698 533.275c0 235.271 190.79 425.969 425.969 425.969 235.271 0 425.969-190.698 425.969-425.969 0-235.179-190.698-425.853-425.969-425.853z"/></svg>