<svg xmlns="http://www.w3.org/2000/svg" version="1.0" viewBox="0 0 686 879"><path d="M273.8 21.1c-2.3 1.3-2.3 6.6 0 10 .9 1.4 7.6 9.5 14.7 18 12.6 14.9 15.5 18.6 27 33.5l5.5 7.1v100.8l-5.9 10.6c-14.1 25.3-48.5 74.9-71 102.2-4.5 5.6-9.4 11.9-10.7 14l-2.5 3.8 2.2 3.6c1.3 2 5 7.3 8.3 11.8 3.4 4.5 7.9 10.7 10.1 13.9 2.2 3.1 6.3 8.8 9 12.6 2.8 3.7 7.5 10.4 10.5 14.6 3 4.3 6.7 9.1 8.3 10.7 1.5 1.6 3.2 3.7 3.7 4.7 1 1.9 2.1 17.3 4 53.5.5 10.4 1.7 28.9 2.5 41s2.2 33 3 46.5c.9 13.5 2.2 34.6 3 47s2.1 32.8 3 45.5c.8 12.6 1.9 29.5 2.5 37.5s1.7 26.2 2.5 40.5 2.2 36.5 3 49.2l1.4 23.3 10 15.2c5.4 8.4 12.4 19.1 15.4 23.8 7.2 11 8.6 13 9.5 13 .8 0 14.1-20.1 28.3-42.5l6.6-10.4.7-19.8c.3-10.9 1.1-29.9 1.6-42.3.6-12.4 1.7-43.4 2.5-69s1.7-51 2-56.5 1.5-34.3 2.5-64c1.1-29.7 2.2-57.8 2.5-62.5s1-21.8 1.6-38l1.1-29.5 3-4c1.6-2.2 7-9.7 12.1-16.6s11-15.2 13.2-18.3c2.2-3.2 5.8-8.3 8.1-11.4 2.2-3.1 6.6-9.3 9.7-13.7s5.7-8.7 5.7-9.6c0-1.9-4.2-7.8-11.9-17-11.5-13.7-42.4-55.8-49.6-67.6-1.1-1.8-6.1-9.7-11.2-17.5-5-7.9-10.7-17.3-12.7-20.9l-3.6-6.6V90.2l6.3-8c3.4-4.4 14.4-18 24.5-30.2 19.2-23.2 21.3-26.7 17.7-30.3-1.5-1.6-7.1-1.7-64.8-1.7-41.1.1-63.8.4-64.9 1.1m70.5 234.7c3.2 4.2 10 13.3 15 20.2 5.1 6.9 13 17.7 17.7 24s8.9 12.1 9.4 12.9c.5.9.1 3.2-1.2 6.5-1.1 2.8-6.4 17.5-11.8 32.6-5.3 15.1-12.2 34.2-15.1 42.5-3 8.2-8.6 24-12.4 35-3.9 10.9-7.2 20.1-7.4 20.4-.9.8-1.5-.6-5.9-13-2.5-6.8-6.1-16.9-8.1-22.4-4.5-12.2-17.4-48.2-22.5-62.5-9.7-27.1-13-36.8-13-37.9 0-.7 1.5-3.2 3.3-5.6 20.6-27.7 31.6-42.6 37.6-50.8 3.9-5.3 7.5-9.7 7.9-9.6.4 0 3.3 3.5 6.5 7.7"/><path d="M333.8 297.3c-1.3 1.8-5.1 7.1-8.5 11.7-3.5 4.6-6.3 8.9-6.3 9.6 0 .6.7 3.1 1.6 5.5s4.7 13.4 8.5 24.4 7.4 20.4 7.8 20.8c1.4 1.4 1.7.8 11.6-26.8 2.4-6.6 5.3-14.7 6.6-18.1l2.2-6.1-3.1-4.4c-7.9-11.1-14.9-19.4-16.4-19.7-1-.2-2.6 1-4 3.1M395 205.6c.1 2.4 17.8 28.4 36.8 53.9 13.1 17.5 23.8 31.3 37 47.3 5.6 6.8 10.2 12.7 10.2 13.1s-4.3 6.5-9.6 13.7c-9.9 13.5-13.4 18.5-13.4 19.5 0 .4 4.3 2.7 9.5 5.2 11 5.3 31.3 17.4 43 25.6 17.9 12.5 43.2 32.6 48.9 39 1.1 1.1 3 2.1 4.4 2.1 6.1 0 33.5-25 43.1-39.4 10.1-14.9 12.6-23.1 11.9-38.8-.5-9.7-1.1-12.9-4.3-22.3-2.1-6.1-4.3-11.7-5-12.5s-2.2-3.3-3.4-5.5c-8.5-16-30.6-38.2-48.9-49.3-3-1.8-6.9-4.3-8.6-5.6s-4.7-3.1-6.6-4.1c-1.9-.9-9.1-4.5-16-7.9-17.9-9-33.5-14.7-66-24-21.4-6.1-63.1-12.7-63-10M271.9 206.5c-.3.2-5.6.9-11.9 1.5s-16 2-21.5 3.1c-9.1 1.9-15.3 3.6-41.5 11.6-46.6 14.3-88 41.4-109.3 71.4-13 18.4-20.1 44.1-16.8 60.8 3.4 17.2 18.1 37.9 38.8 54.6 15.4 12.4 14.1 12.1 22.1 4.3 24.8-24.1 67.4-53.3 83.8-57.4 5.4-1.4 4.7-2.8-11.9-25.6l-7.8-10.7 12.3-15.2c17.9-22.1 37.7-48 50.5-65.9 9.2-13 21.3-31.2 21.3-32.2 0-.8-7.3-1.2-8.1-.3"/><path d="M43.3 358.2c-1.7 2.2-5.3 19.8-6.8 33.8-2.2 19.1-2.2 75.8 0 89.5 3.1 20.3 9.6 35 24 54.5 12.7 17.2 13.7 18.3 29 33.5 16.6 16.7 40.8 36.4 60 49 10 6.6 31.2 17.8 42.6 22.6 11.2 4.7 37.7 13.5 49.6 16.4 11.4 2.8 30.3 4.9 31.7 3.5.5-.5.2-10.5-.7-23.7-.9-12.5-1.9-27.8-2.2-33.8-.3-6.1-1-15.5-1.5-21-.6-5.5-1.7-21.6-2.5-35.7s-1.8-29.1-2.1-33.2l-.7-7.4-12.6-3.2c-31.8-7.9-64.9-19.1-87.6-29.5-12.2-5.7-37.7-20-50-28.1C78.9 422.6 53.8 392.6 47 366c-1.2-4.7-2.3-8.6-2.4-8.8-.2-.1-.8.3-1.3 1M640.6 371.1c-.9 2.9-1.6 5.8-1.6 6.5s-2.1 5.3-4.6 10.1c-12.5 23.7-30.7 42.8-58.2 60.7-11.2 7.4-56.7 30.4-73.1 37-24.8 10-50 17.4-79 23.2-7.4 1.5-9.5 2.3-10.2 3.9-.4 1.1-1.5 25.4-2.4 54s-2 62.3-2.6 74.9c-.5 12.6-.7 23.1-.5 23.4.7.7 19.7-2.5 35.9-6 16.1-3.4 33-9.6 62.3-22.6 37.1-16.5 61.9-33.6 91.4-63.2 17.3-17.3 36.7-44.4 43.1-60.1 7.3-17.9 8.9-31.1 9.1-75.4.2-34.3-.7-47.8-4.1-61.8-2.5-10.4-3.5-11.3-5.5-4.6M227.7 388c-14 7.1-27.4 15.2-37.7 22.7-12.2 8.9-26.1 20.6-25.7 21.7.4 1.6 25.1 13.6 39.7 19.4 21.2 8.4 55.4 19.2 56.7 17.8.5-.5-2.4-56.8-3.2-62.1-.5-2.8-15.5-24.7-17.3-25.2-.4-.1-6 2.4-12.5 5.7M432.3 385.2c-1.1 1.3-4.8 6.2-8.2 11l-6.2 8.6-1.4 34.3c-.8 18.9-1.1 34.7-.6 35.2 1.5 1.5 32.1-6.3 53.6-13.5 16.8-5.7 49.6-19.8 52.5-22.5 1.7-1.6-35.2-28.1-55.5-39.8-10.6-6.2-29.3-15.5-31.1-15.5-.6 0-2 1-3.1 2.2"/></svg>
