<svg xmlns="http://www.w3.org/2000/svg" version="1.0" viewBox="0 0 686 879"><path d="M282.7 27.7c-.4.3-.7 1.8-.7 3.2 0 2.6 2.6 6 21 27.5 7.8 9.1 13.7 16.1 20.5 24.2l4 4.7v127.3l-5.9 10.4c-6.8 12.2-17.3 27.8-34.1 50.3-14.2 19.2-37.2 48.1-44.2 55.5-2.5 2.6-1.2 5.6 6 15.1 20.3 26.5 35.6 46.7 39 51.4 3.8 5.2 3.8 5.4 4.3 16.7.5 11.4 1.6 34.9 5.4 112.5 1.1 22 2.7 53.9 3.5 71 .8 17 1.9 38.6 2.4 48 .6 9.3 1.3 23.3 1.6 31s1.2 26.6 2 42 1.9 36.3 2.3 46.6c1 21.6-.9 17.1 19.1 46.8 8 11.7 14 19.7 14.7 19.4.7-.2 8.2-10.9 16.8-23.6l15.6-23.2 1-22.5c.5-12.4 1.6-34.4 2.5-49 .8-14.6 1.9-38 2.5-52s1.5-32.7 2-41.5c.6-8.8 1.7-30.4 2.5-48 1.7-35.1 2.9-61.4 4.5-92 .5-11 1.5-31.7 2-46 .6-14.3 1.3-27.4 1.6-29 .2-1.7 4.1-7.8 8.9-14 23.1-29.8 41.5-54.8 41.5-56.1 0-.8-3.3-5.4-7.3-10.2-8.4-10.2-28.9-36.2-40.3-51.2-10-13.2-24.2-34.3-32.2-48.1l-6.2-10.5V88.3l2.3-3.1c1.8-2.6 11.5-14 20.3-24.2 12.2-13.9 22.6-26.9 23.1-28.7 1.3-5.6 4.4-5.3-61-5.3-33.2 0-60.7.3-61 .7M357.5 290c5 6.8 14.5 19.8 21.2 28.9 6.8 9.1 12.3 17.1 12.3 17.7 0 .7-5.4 16.4-12.1 35-6.6 18.7-15.4 43.6-19.4 55.4-14.1 41-15.4 44.4-17.1 42.8-.6-.6-2.8-6.8-14.8-41.8-10.1-29.2-18.3-52.5-20.6-58.5-4-10.4-11-31.1-11-32.8 0-.9 6.6-10.6 14.7-21.4 8-10.9 18-24.3 22-29.8 11.5-15.5 10.1-14.4 13.2-10.8 1.4 1.6 6.7 8.5 11.6 15.3"/><path d="M340.8 319.7c-2.7 3.3-10.5 14.8-12.2 18-.9 1.8-1.6 4.3-1.6 5.7 0 2.6 8.7 29.4 12.1 37.3 3.7 8.6 6.5 6.9 11-6.5 1.7-5.3 4.7-13.6 6.5-18.4 4.5-11.5 4.5-16.3.2-21.6-1.8-2.3-5.3-6.8-7.6-10.1-4.6-6.5-6-7.2-8.4-4.4M130.2 114.2c-2.9 3.6-36.9 73.1-44.9 91.8-2.5 5.8-4.8 10.9-5.3 11.5-.4.5-2 4.3-3.4 8.3-1.4 4.1-3.7 9.3-5 11.5-1.4 2.3-3 6.2-3.6 8.7-.7 2.5-2 6.1-3.1 8-2.3 4.3-9.3 24.4-17.6 50.3-.8 2.6-1.6 8-1.7 12l-.1 7.2 5 .7c2.8.3 10.9.7 18.1.7 12.2.1 14 .4 24.4 3.7 28.9 9.2 44.8 25.4 49.6 50.6 3 15.5.5 32.3-6.8 45.8-5.5 10.1-9.9 15.4-16.6 19.6-14.7 9.4-30.3 14.1-50.7 15.3l-11 .6-.3 2.7c-.2 1.6 1.4 6.7 3.6 12 2.2 5.1 4.7 11.5 5.5 14.3 1.7 5.9 5.7 15.9 9.2 23 1.3 2.7 5.4 11.5 9.1 19.5s9 18.3 11.8 23c2.9 4.7 5.5 9.3 5.9 10.3 1.4 3.8 3.6 3 10.5-4 12.9-13.4 28.3-19.1 48.6-18 17.4 1 29.4 6.2 40.9 18 7.8 7.9 10.8 12.7 14.1 22.3 7.7 22 1.7 45.8-15.6 62.6-5.2 5-17.6 12.3-24 14.2-3.9 1.2-1.5 4.7 13.5 19.2 23.3 22.7 52.5 46.2 73.4 58.9 1.8 1.1 6.4 4 10.4 6.4 8.5 5.3 9 5 8.3-5.9-.3-4.1-.9-17.9-1.4-30.5-.6-12.7-1.4-32.2-2-43.5-.5-11.3-1.4-30.6-2-43-.5-12.4-1.4-29-2-37-1-15.4-2.1-39.8-4.5-99-.8-20.1-2-39.2-2.5-42.5s-1-11.3-1-17.8-.5-12.7-1.1-13.8c-.9-1.7-9.7-13.7-20.4-27.9-30.5-40.3-36.7-49.1-36.1-51.3.3-1.2 3.4-5.4 6.8-9.3 13.5-15 43.8-52.2 49.8-61 .8-1.2 5.3-7.5 10-14 10.3-14.4 16.2-23.3 22.3-33.9l4.7-8v-36.9c.1-20.3-.3-37.3-.7-37.7-.5-.5-5-.9-10.1-1-10.3-.2-11.3.3-15.5 7-7.4 12.2-13.4 17.8-21.3 20-4.6 1.3-22.5-2.6-45.9-10.1-31.2-9.9-51.8-18.8-67.5-29.2-8.8-5.9-10.1-6.4-11.8-4.4M544 119.3c-21.1 13.1-40.9 21.3-75 31.2-20.7 6-34.3 8.7-39.1 7.6-5.3-1.2-14.5-10-18.8-18.1-4.5-8.4-5.4-8.9-15.7-9.3-4.9-.2-9.7 0-10.6.5-1.7.8-1.8 3.6-1.8 37v36.1l3.2 5.6c6.8 11.8 27.3 42.1 39.3 58.1 9.4 12.4 19.8 25.5 21.4 27 .9.8 2.9 3.3 4.6 5.5 3.4 4.6 18.3 22.4 22.6 26.9 5.3 5.7 5.1 6.7-4 18.1-6.5 8-21.1 27.6-26.2 35-1.9 2.7-3.9 5.4-4.5 6-.6.5-5.3 6.6-10.5 13.5l-9.4 12.5-1.1 27.5c-.7 15.1-1.9 41.9-2.8 59.5-.8 17.6-1.8 41-2.1 52s-1 23.8-1.5 28.5c-.6 4.7-1.4 20.4-2 35-1.7 44.5-2.9 69.1-4 78.5-.5 4.9-1 19.1-1.2 31.5l-.3 22.5 2.2.3c1.3.2 4.1-.9 6.5-2.6 2.4-1.6 8.8-6 14.3-9.6 18.9-12.6 26.5-18.3 45.5-34.2 13.4-11.3 39.3-36.9 38.8-38.4-.2-.7-4.5-3.4-9.5-6-19.9-10.2-30.1-23.8-34.7-45.9-1.6-8-1.1-13.1 2.2-25.3 2.6-9 7.3-16.8 15.3-24.9 5.3-5.3 8.8-7.8 17.3-12l10.6-5.3h15.3c14.2 0 15.6.2 22 2.7 11.4 4.6 14.5 6.5 22.6 14.3 4.3 4.1 8.2 7.4 8.7 7.4 5.5-.2 46.5-89.2 47.4-103 .4-5.1.5-5-9.8-5-5.3 0-11.3-.5-13.2-1.1-1.9-.5-6.1-1.4-9.4-1.9-3.2-.5-10.2-2.7-15.6-5-8.3-3.5-11.1-5.3-18-11.7-8.5-8-12.1-13.6-17.1-27.3-2.1-5.7-2.4-8.2-2.4-20 0-11.9.4-14.5 2.7-22.1 4.7-14.7 13.4-25.1 28.5-34 14.9-8.6 24.5-11 48.3-11.8l18.5-.6-.2-3.5c-.3-9.2-5.2-30.9-8.4-37.5-1-2.2-1.9-4.3-1.9-4.8 0-.4-.8-2.6-1.9-5-1-2.3-3-7.8-4.4-12.2s-5.2-14.1-8.3-21.5-6.6-16-7.9-19c-1.2-3-4.6-10.5-7.4-16.5-2.9-6.1-6.3-13.3-7.6-16-5.1-10.8-20.5-42.1-21.5-43.5-.5-.8-3.4-6.7-6.4-13-6.9-14.5-9.1-18-11.3-18-1 .1-5.6 2.4-10.3 5.3"/><path d="M50.5 358.7c-1.5 1.5-1.7 3.2-1 15.7.8 15.2 1.9 26 3.5 34.3.5 2.9 1.4 7.6 1.9 10.5 1.1 6.4 2.6 7.6 9.3 7.1 25.6-1.9 34.9-5.6 42-16.4 2.6-4 3.9-10.3 4-18.8 0-11.4-2.9-17.3-11.8-23.6-10.8-7.8-14.4-8.7-36.6-10-8.2-.4-9.9-.3-11.3 1.2M606.4 359c-7.4 1.9-16.3 6.3-22.4 11.1-5 3.9-7 10.2-7 22.6 0 8.6.3 10.6 2.6 15.1 3.9 7.9 12.7 13.9 23.4 16.1 6.8 1.3 20.9 1.7 21.9.5 1.1-1.2 2.7-7.3 5.7-21.2 1.3-6.2 2.7-11.8 3-12.4.7-1.1 2.5-18.8 2.8-26.8.1-3.8-.3-4.6-2.4-5.7-3.8-1.9-19.2-1.5-27.6.7M148.9 576.3c-2.5.7-5.7 2.2-7.1 3.3-2.6 2.1-11.8 12.1-11.8 13 0 1.6 4.8 9.5 7.9 13 2 2.2 7.4 8.6 12 14.2 8.2 9.9 8.5 10.2 12.5 10.2 5.9-.1 11.5-3 16.7-8.8 5.7-6.3 7.4-11.7 6.6-21.2-.6-7.4-1.4-9.5-5.9-15.1-6.5-8.1-19.7-11.7-30.9-8.6M519.7 577.3c-6.3 1.6-15.2 9.2-16.8 14.6-.6 2.1-1 7.6-.8 12.2.4 7.5.8 9 3.6 13.4 3.5 5.4 7.7 8.5 11.6 8.5 4.6 0 7.5-3.2 21.3-23.5 1.8-2.8 4.6-6.8 6.2-9s3.2-4.8 3.5-5.8c1.1-3-1-6.5-5.6-9.1-3.6-2.2-5.6-2.6-11.3-2.5-3.8 0-9.1.6-11.7 1.2"/></svg>
