<svg xmlns="http://www.w3.org/2000/svg" viewBox="0 0 868 1024"><path d="M464.364 725.35l-31.462-147.958h-15.816l-25.629 151.815c9.909 90.699 25.629 118.376 25.629 118.376h15.816c19.697-53.282 31.462-122.233 31.462-122.233zm157.552-125.995l-143.908-46.531-7.811 13.647 118.666 98.051c83.538 36.815 115.265 36.91 115.265 36.91l7.907-13.742c-36.26-43.612-90.119-88.335-90.119-88.335zm-475.117 88.336l7.811 13.742s31.848-.193 115.36-36.91l118.666-98.051-7.811-13.647-143.908 46.531s-53.859 44.723-90.119 88.335zm565.236-308.523l-7.907-13.67s-31.727.096-115.265 36.838l-118.666 98.028 7.811 13.742 143.908-46.602s53.859-44.747 90.119-88.335zm-475.117 88.335l143.908 46.602 7.811-13.742-118.666-98.028c-83.512-36.743-115.36-36.838-115.36-36.838l-7.811 13.67c36.26 43.588 90.119 88.335 90.119 88.335zm186.098-250.975h15.718s15.84 27.58 25.629 118.376l-25.629 151.815h-15.718l-31.56-147.862s11.887-69.024 31.56-122.329zm-63.094 440.738v69.024l-45.397 105.477 23.723 35.512 35.417-72.979s11.861 84.84 37.586 116.4h35.417s33.512-59.237 39.443-118.376l35.512 72.979 21.651-37.49-39.443-100.582v-67.048l59.235 37.49 68.543 83.441 43.226-.674-46.338-66.565c54.535 23.723 122.523 23.337 122.523 23.337l17.335-30.979c-15.068-37.755-83.249-89.47-83.249-89.47l81.007 4.726-19.408-38.067-111.696-10.44-55.282-42.842 55.282-36.934 111.696-10.44 19.408-37.972-81.007 4.628s68.181-51.714 83.249-89.469l-17.335-30.981s-67.988-.386-122.523 23.363l46.338-66.589-43.226-.676-68.543 83.538-64.154 41.155-.939-72.881 45.3-102.56-23.627-35.512-35.512 72.905s-11.861-84.767-37.465-116.303h-35.417s-33.633 59.139-39.564 118.376l-35.415-73.003-21.746 37.49 39.467 100.582 6.871 74.86-63.77-45.109-68.446-83.538-43.324.676 46.338 66.589c-54.535-23.748-122.522-23.363-122.522-23.363l-17.335 30.981c15.068 37.755 83.152 89.469 83.152 89.469l-80.91-4.628 19.407 37.972 111.602 10.44 51.038 38.912-51.038 40.864-111.602 10.44-19.407 38.067 80.91-4.726s-68.084 51.715-83.152 89.47l17.335 30.979s67.987.386 122.522-23.337l-46.338 66.565 43.324.674 68.446-83.441 62.829-40.407zM502.697 86.652h6.388s89.854 135.13 96.268 144.751c11.573.193 177.973 2.724 177.973 2.724l75.824 145.691s-73.172 143.256-78.355 153.238c5.183 10.076 78.355 153.308 78.355 153.308l-75.824 145.789s-170.064 2.531-182.601 2.724c-.652 1.229-1.592 2.821-1.592 2.821-2.917 5.088-74.039 123.1-82.138 136.457l-3.471 5.763-164.159.096s-90.409-135.613-96.799-145.329c-11.597-.096-175.73-2.531-175.73-2.531L1.012 686.365s73.172-143.232 78.355-153.308c-5.183-9.982-78.355-153.238-78.355-153.238l75.824-145.787s167.823-2.435 180.142-2.628c6.221-10.561 85.612-144.751 85.612-144.751h160.109z"/></svg>