<svg xmlns="http://www.w3.org/2000/svg" viewBox="0 0 880 1024"><path d="M463.318 47.318c60.426 2.336 117.994 18.942 173.294 42.358l-5.006 3.944-193.36 140.928L240.31 90.284c54.314-24.558 112.806-39.398 172.378-42.794 16.85-.96 33.754-.114 50.63-.172zM7.552 561.522c16.332 109.522 82.382 203.432 164.042 275.246 27.14-40.35 53.8-81.422 80.46-122.252C150.458 612.44 121.396 455.124 192.01 327.108c74.694 93.43 143.866 190.942 213.758 287.974-54.52 88.626-113.124 174.61-166.684 263.716 63.282 29.364 130.704 48.708 199.378 48.574C526 927.2 577.61 908.28 641.144 878.798c-54.04-88.626-111.684-174.61-166.444-262.754 69.412-98.234 135.94-199.108 213.038-291.578 22.578 62.446 49.236 126.814 39.39 194.544-6.486 75.418-54.04 137.384-99.674 194.066 26.66 40.83 52.838 81.9 78.538 123.212 55.482-47.796 106.4-102.798 135.22-171.008 96.072-202.712 5.524-462.104-189.98-568.744-72.294 96.552-139.304 197.188-212.8 293.258-72.534-95.59-141.464-193.584-213.758-289.414C65.196 189.246-27.514 381.868 7.552 561.522z"/></svg>