<svg version="1.0" xmlns="http://www.w3.org/2000/svg" viewBox="0 0 400 400"><path d="M177 27.1c-32.3 4.1-65 18.6-89.1 39.3l-7.7 6.5-13.8.3-13.9.3-.5 18-.5 18-4.7 8.5C29.2 150 23 190.9 30 229c8.5 46.3 38.1 89.8 77.5 114 9.3 5.8 27.2 14.2 36.9 17.4 8.1 2.7 25.7 6.6 29.7 6.6 1.5 0 6.3 4 15.1 12.7l12.9 12.8 12.8-13 12.7-13 8.9-1.9c25.6-5.3 53.9-19.7 74.7-38 32.8-28.8 53.1-68.4 57.9-113.1 2.8-26.1-2.1-57.8-12.6-82.4l-4.5-10.3V98.1c0-16.3-.3-23-1.2-23.9-.8-.8-6.2-1.2-17.6-1.2h-16.5l-8.1-6.8c-24.9-21-54.2-34.1-86.7-38.7-11.1-1.6-34.2-1.8-44.9-.4zm32.5 11c23.5 2 39.3 6.3 59 16.1 11.3 5.6 27.7 15.7 29 17.8.4.6-1.5 1-4.4 1-5.8 0-2.4-2.7-40.5 32.5l-21.6 20v25.7c0 14.1.3 25.9.8 26.2.7.4 2.6-.9 15.3-10.7 3.3-2.6 6.4-4.7 6.8-4.7 1.3 0 7.9 12.4 10 18.7 4.4 13 4.4 30.6 0 43.6-5.2 15.8-17.7 30.3-32.8 38.1-10.8 5.6-19.7 7.8-31.6 7.8-11.5 0-20.8-2.2-30.4-7.2-14-7.3-24-17.3-30.2-30.5-5.2-10.9-7-18.2-7-29.5-.1-13.7 3-25.1 9.6-35.9 5.7-9.5 4.9-9.5 17.7 1.2l11.3 9.5.3-26.5c.2-20.3-.1-26.9-1-28.1-.7-.8-13.4-12.5-28.1-25.9L114.8 73h-8.1l-8.2-.1L102 70c1.9-1.6 8.2-5.7 13.9-9.1 22.9-13.7 44.4-20.7 70.6-22.9 5-.4 9.5-.8 10-.8.6-.1 6.4.3 13 .9zM107 124.8l4.2 3.7-6.4 9.5c-12.5 18.5-19.7 41.9-19.8 64 0 15.8 4.8 36.8 11.6 50.2 8.6 17.2 24.5 35.4 39.5 45.3 9.3 6.2 24.2 12.9 33.7 15.2 5.6 1.4 7.4 2.3 7.8 3.8.2 1.1.3 10.3.2 20.5l-.3 18.5-3-.3c-19.8-2.2-45.2-12-65.4-25.3-15.6-10.2-35.4-30.8-45.9-47.4-5.5-8.8-15-29.7-17.7-39-4.8-16.8-6-25.5-6-46.5 0-26.9 3.6-43.9 13.7-65.3l5.1-10.7h44.4l4.3 3.8zm236.3 5.9c15.3 32.6 18.7 71.1 9.6 107.3-6.1 24.1-20.4 49.7-38 68.4-15.1 16-26.1 24.2-45.2 33.7-13 6.6-20.7 9.5-32.9 12.3l-9.7 2.4-.3-20.8-.3-20.8 5-1.1c7.6-1.7 23.2-9.1 32.1-15.2 36.5-25 55.5-68.5 48.9-112.2-2.5-16.6-10.7-37.1-19.4-48.4l-3.9-5.1 6-5.1 6-5.1h37.5l4.6 9.7z"/></svg>
