<svg xmlns="http://www.w3.org/2000/svg" viewBox="0 0 768 1024"><path d="M376.202 295.171h-2.488c-19.203-1.246-32.536-16.947-32.536-48.241 0-32.621 33.78-77.363 33.78-77.363s33.896 44.742 33.896 77.363c0 31.293-13.449 46.996-32.652 48.241zm103.044-54.342c-2.487-24.149-3.615-48.328-14.575-82.106-10.846-33.896-45.203-73.777-88.468-73.777-43.498 0-77.392 39.881-88.238 73.777-10.844 33.778-12.088 57.957-14.461 82.106-2.487 24.177-16.831 131.734 102.815 131.734 119.644 0 105.3-107.558 102.927-131.734zm29.354-79.966c7.231 26.895 9.487 48.587 11.308 67.791l.898 9.803c2.256 21.373 9.052 86.328-32.536 132.516-20.678 22.934-49.251 36.381-84.622 41.009v72.417c258.927 0 323.796 112.761 323.796 112.761 60.995-109.812-3.065-274.632-73.226-344.793-70.248-70.161-145.616-91.505-145.616-91.505zm141.454 430.196C518.782 624.607 403.765 981.72 403.765 981.72V525.525c180.639 0 246.289 65.534 246.289 65.534zM98.534 252.368C28.257 322.529-35.803 487.349 25.192 597.161c0 0 64.869-112.761 323.912-112.761v-72.417c-35.369-4.628-64.06-18.075-84.738-41.009-41.588-46.188-34.676-111.143-32.536-132.516l1.012-9.803c1.707-19.203 4.077-40.895 11.308-67.791 0 0-75.484 21.344-145.616 91.505zm250.338 273.157V981.72S233.855 624.607 102.699 591.059c0 0 65.65-65.534 246.173-65.534z"/></svg>