<svg xmlns="http://www.w3.org/2000/svg" viewBox="0 0 840 1024"><path d="M.406 713.728v-19.306q12.286-28.084 35.544-61.142 23.256-33.058 56.606-72.258 31.594-37.152 48.124-61.142 16.528-23.988 24.718-45.344 8.192-21.354 8.192-44.172 0-32.18-14.334-50.464-14.336-18.284-39.202-18.284-23.402 0-38.76 16.528-15.36 16.53-22.38 52.22H6.256v-69.04q35.69-14.336 55.876-20.04t39.932-8.63 42.856-2.926q43.004 0 70.21 11.556 27.208 11.556 39.348 31.302t12.14 46.076q0 23.11-8.63 43.004-8.63 19.892-29.838 45.344-21.21 25.45-71.528 72.842-22.526 21.94-42.126 44.32T85.534 639.13v2.926h103.854q19.014 0 28.376-2.78 9.362-2.778 14.774-9.652 5.412-6.876 8.922-20.626h33.642l-5.428 84.48c5.36-1.318 10.496-3.336 15.492-5.646q6.638-3.404 9.88-9.472t4.168-15.39q.928-9.324.928-23.53V384.314q0-13.912-.772-23.382-.772-9.472-4.014-15.39-3.242-5.92-9.882-9.62-6.638-3.7-18.372-6.66v-19.534h179.4q78.122 0 117.028 26.786c11.866 8.258 21.944 19.104 28.146 32.244 1.872-4.214 4.48-8.046 7.058-11.85q18.072-25.478 52.29-38.662 34.22-13.184 79.25-13.184 26.368 0 50.364 2.814 23.998 2.816 54.81 9.926v85.914H794.86q-5.63-23.404-14.37-37.18-8.738-13.776-21.774-20.294t-32.886-6.518q-16.886 0-30.218 5.926t-21.034 17.628q-7.704 11.702-7.704 28.292 0 17.184 6.666 29.774 6.666 12.592 22.368 24.59t45.624 27.404q36.44 18.96 57.328 37.18 20.886 18.22 30.81 39.7 9.924 21.478 9.924 49.92 0 36.44-16.886 63.252-16.886 26.81-49.18 41.18-32.292 14.368-74.656 14.368-30.22 0-62.956-3.406-32.738-3.408-61.474-9.926v-91.248h40.588q7.406 35.256 24.738 52.586 17.33 17.332 50.808 17.332 17.48 0 31.404-5.926 13.924-5.924 22.368-19.108 8.442-13.184 8.442-33.034 0-18.368-6.814-31.848t-21.922-25.626q-15.11-12.146-42.07-25.774-23.108-11.554-41.772-23.998-18.666-12.442-31.848-27.404c-5.912-6.772-11.25-14.106-15.354-22.12-5.654 13.078-2.626 7.168-8.792 17.874q-18.218 29.004-52.802 43.95-34.582 14.948-86.458 14.948-29.952 0-49.096-1.184v94.71q0 19.534 1.544 27.674 1.544 8.138 5.096 13.022 3.55 4.884 10.19 8.14 6.638 3.256 20.532 5.622v19.534H.406zm428.804-369.37q-21.614 0-33.348.592v166.63h26.556q30.878 0 49.096-8.434 18.218-8.436 27.018-26.786t8.8-49.426q0-30.782-8.8-48.984t-25.784-25.898q-16.982-7.694-43.538-7.694z"/></svg>