<svg xmlns="http://www.w3.org/2000/svg" viewBox="0 0 347 220"><path d="M38 .8c0 .5 2.4 1.4 5.3 2.1 13.2 3 18.7 5.3 22.2 9.4 9.2 10.8 9.1 30-.4 39.5-2.3 2.4-14.9 10-34.3 20.6C13.8 81.7 0 89.9 0 90.6c0 .6 15.3 28.3 34 61.5 25 44.5 34.5 60.4 35.8 60.3.9 0 19.4-10.5 41-23.3 28-16.7 39.6-23.1 40.4-22.3.6.6 7 12.7 14.3 26.9l13.3 25.8 69.3.3c41.4.1 68.9-.2 68.4-.7-.6-.5-4.6-2.4-9-4.1-16.8-6.9-28.8-17.7-32.1-28.8-1.3-4.4-1.4-6.2-.4-10.3.7-2.7 1.9-5.8 2.9-6.8.9-1.1 14.7-9.4 30.6-18.6 16-9.2 30.9-17.8 33.2-19.1 2.3-1.3 4.5-2.9 4.8-3.4.9-1.4-65.7-123-67.3-123-.7 0-18.8 10.6-40.2 23.5-27.1 16.3-39.2 23.1-39.7 22.2-.4-.6-7.2-12.2-14.9-25.7L170.2.5 104.1.2C67.8.1 38 .4 38 .8ZM196.5 60c17.1 29.7 31.1 54.6 31.3 55.3.1.6-8.8 6.6-19.8 13.2s-20 12.5-20 13c0 1 6.7 6.4 12 9.7 6.4 3.9 14.6 6 25.1 6.5 12.9.7 17.7-.6 28.4-7.8 18-12.1 29.9-33.4 28.2-50.5-1-9.8-8-19.4-17.6-24.4-13.1-6.6-32-6.7-45-.1-5.3 2.7-5.1 2.8-11.2-8.7-3.7-7-4.2-8.4-2.9-9.2 9.4-6 72.1-43.2 72.4-42.9 1.1 1.1 60.7 111.1 60.5 111.4-1 .8-153.3 88.5-153.8 88.5-.8-.1-56.7-109.1-56.4-109.9.2-.3 8.6-5.6 18.7-11.6 10.1-6.1 18.7-11.6 19-12.4.7-1.6-1.5-5.3-5.3-8.9-3.5-3.4-15.5-8.8-23.3-10.7-21.2-5-42.6 3.7-56.3 23-6.9 9.6-9.8 18.1-9.9 29-.1 7.9.2 9.7 2.7 14.6 9.3 19.1 34.4 25.9 56.6 15.4 4-1.9 7.4-3.5 7.5-3.5.5 0 9.9 20 9.5 20.4-2.4 2.3-75.3 44.6-75.9 43.9C69.9 202.1 9 93.8 9 93c0-.6 154.9-87 156-87 .3 0 14.5 24.3 31.5 54Z" fill="#000" fill-rule="nonzero"/></svg>
