<svg xmlns="http://www.w3.org/2000/svg" viewBox="0 0 32 32"><path d="M5.94 3.805l-.312 2.659-.01.011-.176 1.5.01-.011-1.414 12.059 7.281.855c-.025.331-.052.662-.082.993l-.134 1.139c-.093.509-.192 1.146-.67 1.449-.306.194-.68.192-1.028.17-3.243-.27-7.48-4.706-6.924-10.316.158-1.596.718-2.836 1.476-4.218.034-.117.028-.066.039-.174a.364.364 0 00-.364-.364.356.356 0 00-.33.222c-1.025 1.986-1.501 4.185-1.529 6.411-.004 5.599 3.431 10.863 8.6 13.049l-.215 1.831C3.98 28.767.083 22.683 0 16.19c-.001-4.817 2.235-9.343 5.94-12.384zM7.446.217L5.233 19.083l13.217 1.564s.624-5.719.682-5.754c.254-.152 1.046-.031 1.046-.031l.041.007.213.039c2.776.6 4.376 4.09 3.575 7.795s-3.701 6.221-6.477 5.621c-3.099-.761-4.073-4.339-3.685-7.145l.994.119c-.35 2.275.407 5.289 2.929 5.927 2.235.483 4.59-1.636 5.26-4.734s-.599-6.001-2.834-6.484l-.109-.02-.698 5.855-1.066-.127v-.002l-6.061-.723-1.084 9.241 13.235 1.552 2.213-18.866-13.235-1.552-.702 5.989c-.082.007-.165.018-.247.02a4.077 4.077 0 01-.961-.082c-2.776-.6-4.376-4.09-3.575-7.795.672-2.865 2.531-5.54 5.695-5.709.61.048.35.01.782.088 2.98.751 4.109 4.206 3.709 6.974l1.505.177 1.086-9.256L7.446.219zm6.068 4.689c-2.552.122-4.096 2.535-4.63 4.802-.67 3.098.599 6.001 2.834 6.484l.2.036.706-6.02 4.472.525c.314-2.229-.509-5.146-2.953-5.758-.348-.063-.139-.032-.63-.069zM26.06 28.412c3.704-3.041 5.941-7.568 5.94-12.384-.082-6.492-3.98-12.577-10.158-14.88l-.215 1.831c5.169 2.186 8.605 7.45 8.6 13.049-.028 2.226-.505 4.426-1.529 6.411a.358.358 0 01-.33.222.364.364 0 01-.364-.364c.011-.108.005-.057.039-.174.758-1.383 1.318-2.622 1.476-4.218.556-5.611-3.681-10.046-6.924-10.316-.348-.022-.721-.024-1.028.17-.478.303-.578.94-.67 1.449l-.134 1.139c-.03.331-.056.662-.082.993v.001l7.281.854-1.414 12.059.01-.011-.176 1.5-.01.011-.312 2.659z"/></svg>
