<svg xmlns="http://www.w3.org/2000/svg" viewBox="0 0 853 1024"><path d="M286.37 133.509l.669 1.114 69.137 112.038v405.965c-75.027-32.693-109.082-67.516-121.837-104.286-12.819-36.951-4.226-76.025 6.103-116.983s22.386-83.804 16.171-128.208c-6.217-44.406-30.797-90.289-93.373-137.296l-1.024-.802-.089 1.292c-8.235 102.473-26.921 185.953-64.461 234.677L19.53 290.631l-.312 1.649c-47.631 246.576 1.655 414.44 97.026 516.309 81.005 86.526 195.183 125.387 311.255 124.556 116.086.841 230.284-38.019 311.299-124.556 95.37-101.869 144.657-269.734 97.026-516.309l-.312-1.649-.98 1.381-77.157 109.008c-37.54-48.724-56.226-132.204-64.461-234.677l-.089-1.292-1.024.802c-62.577 47.007-87.156 92.89-93.373 137.296-6.216 44.404 5.842 87.25 16.171 128.208s18.922 80.032 6.103 116.983c-12.756 36.77-46.81 71.593-121.837 104.286V246.661l69.806-113.152h-282.3z"/></svg>