<svg xmlns="http://www.w3.org/2000/svg" viewBox="0 0 154 183"><path d="M125.795 22.897c8.394 10.64 13.41 24.066 13.41 38.662 0 2.247.072 8.658.104 12.582.058 6.684-.026 12.627-.512 23.747 0 0 5.82-7.333 7.72-8.71 3.046-2.202 5.885-.695 6.695 1.338 1.789 4.501.052 24.54-.512 24.573-1.854 8.964-17.688 17.148-20.644 17.187-3.707 18.96-34.565 50.178-55.066 50.718V183c-20.5-.559-51.34-31.77-55.046-50.717-2.956-.046-18.79-8.224-20.644-17.188-.564-.032-2.3-20.071-.512-24.573.81-2.04 3.65-3.54 6.696-1.338 1.905 1.37 7.719 8.71 7.719 8.71-.48-11.126-.57-17.07-.506-23.747.033-3.923.104-10.334.104-12.582 0-14.595 5.017-28.028 13.417-38.668 7.777-9.854 18.459-17.31 30.734-21.078a48.025 48.025 0 0 1 1.887-.546L66.626.006 62.478 61.65l-23.63-.085 38.142 42.936 38.15-42.942-23.631.084L87.36 0l5.794 1.267c.635.175 1.264.357 1.886.545 12.282 3.768 22.964 11.225 30.741 21.085h.013Zm-81.657 77.465c-5.387-1.157-9.177.563-11.56 3.69-1.983 2.61-4.83 2.834-5.433 5.86-1.315 6.62 6.468 13.905 16.385 16.041 9.917 2.136 19.048 1.305 20.364-5.322 1.315-6.62-9.839-18.139-19.756-20.275v.006Zm65.718-.004c-9.918 2.137-21.065 13.65-19.75 20.276 1.316 6.627 10.448 7.452 20.365 5.322 9.91-2.137 17.694-9.422 16.385-16.042-.602-3.025-3.45-3.249-5.433-5.859-2.383-3.127-6.173-4.854-11.56-3.69l-.007-.007Z"/></svg>
