<svg xmlns="http://www.w3.org/2000/svg" viewBox="0 0 939 1024"><path d="M780.076 505.135l-98.307 199.41H876.15l-96.073-199.41zM150.144 318.634l-98.287 199.41h194.295l-96.009-199.41zm489.434 377.675L737.95 508.7c-84.316-16.452-124.143-53.982-159.218-82.167-35.162-28.1-72.69-16.386-72.69-16.386l18.807 234.549h86.682l-32.799 79.8h-63.297v107.897h86.68l35.098 84.471h-372.32l39.805-84.471h79.654V724.496h-56.248l-35.096-84.471h88.979l14.056-269.778s-46.853-13.995-86.68-11.713c-39.74 2.302-100.651-7.042-100.651-7.042l86.595 164.183s5.25 9.411 5.25 28.186c0 0-45.076 96.164-150.412 96.164C44.83 640.025.254 550.903.254 536.799c0-7.627 7.05-21.123 7.05-21.123l107.766-206.45s-16.444-13.431-16.444-33.968c0-.174-2.277-52.808 51.519-52.808 53.818 0 51.517 51.613 51.517 51.613s49.154 21.144 91.346 9.344c42.126-11.713 114.727-25.708 114.727-25.708v-44.573l44.491-63.326 46.853 65.608v58.655c30.435 0 105.337 44.571 147.528 96.184 42.126 51.613 91.344 70.39 91.344 70.39s18.72-30.49 46.855-30.49c28.047 0 49.067 23.426 49.067 49.329 0 25.709-18.72 39.813-18.72 39.813L925.218 708.11s4.664 8.149 4.664 21.057c0 0-39.74 98.553-147.441 98.553-107.699 0-152.19-86.839-152.19-103.224 0-11.127 9.329-28.187 9.329-28.187z"/></svg>