<svg viewBox="0 0 210 262" xmlns="http://www.w3.org/2000/svg"><path d="M77.466 134.331l24.81 25.738.192.197c1.694 1.818 2.57 4.675 2.631 8.57l.004.437c0-4.266.942-7.334 2.826-9.204l24.81-25.738h8.884a44.8 44.8 0 003.134 6.374l.464.764-.784.904-12.496 14.017-2.702 3.081-2.176 2.538-.247.313c-5.68 7.293-5.494 15.266.658 21.518l.272.27.275.265 18.076 19.228 30.895-37.444c9.152 3.883 19.927 7.042 32.325 9.478-23.387 37.585-57.667 65.974-102.842 85.165l-1.372.578C59.249 242.183 24.51 213.602.888 175.637c12.398-2.436 23.173-5.595 32.325-9.478l30.896 37.444 18.076-19.228.275-.265c6.416-6.29 6.692-14.39.93-21.788l-.248-.313-2.175-2.538-2.703-3.081-12.495-14.017-.785-.904a44.877 44.877 0 003.598-7.138h8.884zm69.75-97.481l62.101 80.27-38.223 46.325-25.304 30.667-13.196-14.037c-.26-.247-.507-.495-.739-.745l-.013-.014-.066-.072a14.996 14.996 0 01-.112-.124l-.029-.032a14.537 14.537 0 01-.277-.32l-.083-.101a13.375 13.375 0 01-.691-.923 10.836 10.836 0 01-.446-.717 9.68 9.68 0 01-.315-.604l-.049-.102a8.932 8.932 0 01-.401-1.036 8.072 8.072 0 01-.3-1.366 7.644 7.644 0 01-.062-.965v-.042a7.992 7.992 0 01.144-1.46l.006-.033c.089-.46.217-.923.385-1.39a10.794 10.794 0 01.502-1.173 14.15 14.15 0 01.95-1.624c.315-.469.668-.94 1.059-1.416l.3-.357.237-.272.02-.024.31-.36a515.394 515.394 0 016.267-7.118l.564-.63.848-.944.567-.632 1.05-1.17 3.57-3.995 3.19-3.624.004.006a787.776 787.776 0 008.226-9.55c1.624-2.105 2.583-5.135 2.876-9.087h-30.018l-24.965 25.892-24.965-25.892H50.12c.28 3.794 1.175 6.738 2.684 8.83l.191.257c3.22 3.796 5.891 6.886 8.226 9.55l.005-.006 3.188 3.624 3.572 3.996 2.464 2.745.564.63.282.316.566.634a489.692 489.692 0 015.75 6.552l.155.177.082.095c.282.329.546.656.793.982.244.322.47.642.679.96a13.09 13.09 0 011.167 2.186 10.44 10.44 0 01.382 1.098 9.167 9.167 0 01.224 1.016 7.832 7.832 0 01.039 2.218l-.014.104a7.745 7.745 0 01-.248 1.135l-.057.186-.005.015-.005.015a8.297 8.297 0 01-.08.234l-.022.06a8.568 8.568 0 01-.32.755 9.85 9.85 0 01-.76 1.321l-.05.072-.106.152a12.274 12.274 0 01-.652.839c-.08.094-.16.188-.244.281l-.207.228-.026.028c-.152.164-.31.326-.475.488l-.25.243-13.196 14.037L.888 117.12 62.989 36.85c3.126 2.745 7.755 6.966 13.889 12.666l.733.681.25.218c5.174 4.577 5.174 9.964 0 16.16l-.25.296-15.882 19.81a7622.32 7622.32 0 00-8.734 10.94c-1.65 2.216-2.6 5.365-2.849 9.447l-.026.494h30.018l24.964-28.048 24.966 28.048h30.018c-.2-4.322-1.159-7.636-2.876-9.941a9224.21 9224.21 0 00-7.071-8.861l-1.663-2.079-15.882-19.81-.25-.295c-5.092-6.099-5.173-11.413-.243-15.943l.243-.218.25-.218.15-.14.374-.346c6.237-5.798 10.937-10.085 14.098-12.861zM105.103.38l1.365.003c44.485.165 78.531 9.98 102.137 29.447l.712.592V60.74l-1.148.16c-10.673 1.517-20.123 3.652-28.35 6.404l-.877.298-30.849-39.877-5.02 4.408-3.832 3.423-2.306 2.095-8.414 7.77-.28.243c-8.05 7.077-7.966 16.488-.539 25.141l2.715 3.378 2.718 3.385 2.72 3.392 8.812 11.013a41.855 41.855 0 00-3.972 8.551l-.245.757h-7.56l-25.523-28.665c-1.465-1.99-2.219-5.649-2.262-10.979l-.002-.492c0 5.598-.756 9.422-2.266 11.472L77.315 101.28h-7.56a41.912 41.912 0 00-4.216-9.308l8.81-11.013 2.721-3.392c1.813-2.26 3.625-4.514 5.433-6.763 7.427-8.653 7.512-18.064-.538-25.141l-.281-.244-8.414-7.769-2.306-2.095-3.833-3.423-5.02-4.408-30.848 39.877C22.833 64.705 13.09 62.47 2.036 60.9l-1.148-.16V30.422C24.758 10.362 59.496.35 105.103.38z" fill="#000" fill-rule="nonzero"/></svg>
