<svg viewBox="0 0 13 15" xmlns="http://www.w3.org/2000/svg"><path d="M6.047 14.838c-1.19-.443-2.23-.987-3.121-1.63C.577 11.497-.237 8.764.058 6.77c.298-1.638.924-2.662 2.27-3.5.952-.524 1.56-.97 1.826-1.34.343-.548.163-1.267-.329-1.304-.407 0-.584.203-.532.61.049.311-.003.481-.156.51-.185.03-.3-.044-.345-.225-.136-.602.03-1.058.5-1.366.63-.293 1.209-.173 1.738.361.793.802 1.175 1.914.75 3.107a5.422 5.422 0 01-1.4 2.125c.119.403.365.598.738.585.506-.036.593-.487.444-.636-.105-.098-.25-.053-.434.135.052-.648.719-.563.816-.135.098.429-.27 1.164-1.003 1.094-.489-.047-.822-.25-.999-.611-.221.165-.394.46-.517.883-.219 1.231.107 1.618.464 1.862.357.244.762.132.875-.161.076-.196.041-.379-.105-.549-.275-.197-.495-.126-.659.212-.044-.532.173-.82.651-.863.78 0 .933.76.933.76s.197.846-.386 1.348c-.39.334-.847.388-1.373.162-.593-.264-.972-.733-1.136-1.407a4.201 4.201 0 01.072-1.636c-.372-.105-.587-.337-.644-.697-.04-.431.123-.81.572-.962.185-.038.331-.01.438.082-.52 0-.72.655-.335.754a.716.716 0 00.633-.136c.805-.632 1.14-1.18 1.004-1.642-.135-.462-.47-.645-1.004-.548a2.23 2.23 0 00-1.007.466c-.971.803-1.997 3.397-.178 5.726 1.1 1.28 2.52 1.98 4.26 2.1 1.74-.12 3.16-.82 4.26-2.1 1.82-2.33.793-4.923-.178-5.726a2.23 2.23 0 00-1.007-.466c-.534-.097-.87.086-1.004.548-.135.462.2 1.01 1.004 1.642.199.148.41.193.633.136.384-.1.185-.754-.335-.754.107-.092.253-.12.438-.082.45.153.612.53.572.962-.057.36-.272.592-.644.697.132.56.156 1.106.072 1.636-.164.674-.543 1.143-1.136 1.407-.526.226-.984.172-1.373-.162-.583-.502-.386-1.347-.386-1.347s.153-.76.933-.76c.478.042.695.33.65.862-.163-.338-.383-.409-.658-.212-.146.17-.181.353-.105.549.113.293.518.405.875.16.357-.243.683-.63.464-1.861-.123-.424-.296-.718-.517-.883-.177.36-.51.564-.999.611-.733.07-1.1-.665-1.003-1.094.097-.428.764-.513.816.135-.185-.188-.33-.233-.434-.135-.15.149-.062.6.444.636.373.013.62-.182.738-.585a5.422 5.422 0 01-1.4-2.125c-.425-1.193-.043-2.305.75-3.107.53-.534 1.108-.654 1.737-.361.47.308.637.764.501 1.366-.045.181-.16.256-.345.225-.153-.029-.205-.199-.156-.51.052-.407-.125-.61-.532-.61-.492.037-.672.756-.33 1.303.266.37.875.817 1.827 1.341 1.346.838 1.972 1.862 2.27 3.5.295 1.994-.52 4.727-2.868 6.436C9.072 13.932 7.88 14.53 6.5 15z" fill="#000" fill-rule="evenodd" style="--darkreader-inline-fill:#e8e6e3;" data-darkreader-inline-fill=""></path></svg>