<svg xmlns="http://www.w3.org/2000/svg" viewBox="0 0 828 835"><path fill="#000" fill-rule="evenodd" d="M290 645.5c9.5 6.5 23 11 23 11L397.5 835c-76.333-4.667-143.167-25.167-200.5-61.5l93-128Zm248 0 93 128c-57.333 36.333-124.167 56.833-200.5 61.5L515 656.5s13.5-4.5 23-11ZM414 7.5l.009.018L502 192c67 29 112.333 74.833 136 137.5l182.5 88-182.5 88C614.333 568.167 569 614 502 643l-88 184.5-.009-.018L326 643c-67-29-112.333-74.833-136-137.5l-182.5-88 182.5-88C213.667 266.833 259 221 326 192L414 7.5Zm0 59.5-68.5 145.5c-65.333 24.333-110 69.5-134 135.5L68 417.5 211.5 487c24 66 68.667 111.167 134 135.5L414 768l68.5-145.5c65.333-24.333 110-69.5 134-135.5L760 417.5 616.5 348c-24-66-68.667-111.167-134-135.5L414 67ZM199 563.5c16.667 26.333 40 49.833 70 70.5l-51 71c-35.333-24.667-65-54.667-89-90l70-51.5Zm430 0 70 51.5c-24 35.333-53.667 65.333-89 90l-51-71c30-20.667 53.333-44.167 70-70.5ZM0 433.5 177 519c3.385 11.604 10.51 22.741 10.976 23.463l.024.037-127 94c-38-63.333-58.333-131-61-203Zm828 0c-2.667 72-23 139.667-61 203l-127-94 .024-.037c.466-.722 7.591-11.859 10.976-23.463l177-85.5ZM414 256.507c88.914 0 160.993 72.079 160.993 160.993S502.914 578.493 414 578.493 253.007 506.414 253.007 417.5 325.086 256.507 414 256.507Zm0 62.104c-54.615 0-98.889 44.274-98.889 98.889 0 54.615 44.274 98.889 98.889 98.889 54.615 0 98.889-44.274 98.889-98.889 0-54.615-44.274-98.889-98.889-98.889Zm0 16.291c45.617 0 82.598 36.98 82.598 82.598 0 45.617-36.98 82.598-82.598 82.598-45.617 0-82.598-36.98-82.598-82.598 0-45.617 36.98-82.598 82.598-82.598Zm0 17.093c-36.178 0-65.505 29.327-65.505 65.505s29.327 65.505 65.505 65.505 65.505-29.327 65.505-65.505-29.327-65.505-65.505-65.505ZM61 198.5l127 94-.024.037c-.466.722-7.591 11.859-10.976 23.463L0 401.5c2.667-72 23-139.667 61-203Zm706 0c38 63.333 58.333 131 61 203L651 316c-3.385-11.604-10.51-22.741-10.976-23.463L640 292.5l127-94ZM218 130l51 71c-30 20.667-53.333 44.167-70 70.5L129 220c24-35.333 53.667-65.333 89-90Zm392 0c35.333 24.667 65 54.667 89 90l-70 51.5c-16.667-26.333-40-49.833-70-70.5l51-71ZM397.5 0 313 178.5s-13.5 4.5-23 11l-93-128C254.333 25.167 321.167 4.667 397.5 0Zm33 0C506.833 4.667 573.667 25.167 631 61.5l-93 128c-9.5-6.5-23-11-23-11L430.5 0Z"/></svg>
