<svg xmlns="http://www.w3.org/2000/svg" viewBox="0 0 1024 1024"><path d="M731.186 83.138s54.03 5.86 54.03 61.718l200.508 55.858s50.092 19.316 34.62 84.878L854.622 904.298s-34.716 46.318-75.174 34.692l-267.382-73.532-267.454 73.532c-40.458 11.626-75.172-34.692-75.172-34.692L3.622 285.592c-15.376-65.562 34.716-84.878 34.716-84.878l200.508-55.858c0-55.858 53.936-61.718 53.936-61.718h438.404zm-1.736 23.182H294.516c-2.46.446-10.242 2.18-17.486 7.056-10.338 6.844-15.096 16.83-15.096 31.48v17.58S49.214 221.788 46.12 222.608c-5.602 2.554-22.268 12.634-22.268 39.262 0 5.416.75 11.462 2.296 18.33.282 1.01 161.692 603.494 164.364 613.198 7.032 8.064 28.012 29.02 47.794 23.44l273.76-75.36 273.688 75.36c19.784 5.58 40.67-15.376 47.796-23.44 2.672-9.704 164.082-612.19 164.362-613.198 1.548-6.868 2.298-12.914 2.298-18.33 0-26.628-16.76-36.708-22.268-39.262-3.094-.822-215.91-60.172-215.91-60.172v-17.58c0-14.65-4.758-24.636-15-31.48-7.244-4.876-15.026-6.61-17.582-7.056zm-472.11 87.996v594.96s5.04 38.654 35.982 38.654h167.01l-223.596 61.624s-12.822 6.4-19.314-7.688L52.964 271.41s-6.492-19.244 8.978-24.354l195.398-52.74zm509.474-1.29l195.212 52.74c15.47 5.134 9.048 24.356 9.048 24.356L806.546 880.576c-6.328 14.112-19.22 7.688-19.222 7.688l-223.596-61.718H730.81c30.778 0 36.004-38.536 36.004-38.536V193.026zm-39.192-57.78c8.978 0 10.244 11.532 10.244 11.532v639.944c0 10.266-10.244 12.822-10.244 12.822H297.166c-9.048 0-9.048-12.822-9.048-12.822V146.778c0-7.688 9.048-11.532 9.048-11.532h430.456zM619.546 269.678c-5.774.002-23.502 1.736-53.18 5.204-29.678 3.47-55.884 5.206-78.618 5.204-15.03.002-39.31-.866-72.84-2.602a9298.869 9298.869 0 0 1-96.532-5.476c0 13.102 27.362 20.998 82.084 23.692a1179.342 1179.342 0 0 0 33.536 12.136l-56.664 210.988c0-.376.292-2.106.874-5.194l.18-.938.692-2.528c-.004-.068.048-.172-.012-.202-.094-.044-.196.414-.328 1.01a47.35 47.35 0 0 0-.352 1.72c-7.692 28.124-15.218 56.294-22.726 84.468-10.214 38.346-17.15 58.87-20.808 61.568-3.658 2.7-7.414 4.048-11.272 4.048-3.47-.776-6.262-1.354-8.38-1.736-2.116-.382-3.176.384-3.176 2.302 0 2.316.578 7.908 1.73 16.776l110.416-7.514v-9.254s-1.93-6.36-5.786-7.524l-26.586 2.328c-7.714.002-11.958-2.986-12.728-8.96-.77-5.976-1.156-11.662-1.156-17.06 0-18.5 2.7-38.924 8.098-61.276s10.79-42.972 16.176-61.86c4.246-5.386 32.766-11.836 85.56-19.352 52.794-7.514 80.926-10.502 84.396-8.962 3.47 1.542 7.806 19.75 13.01 54.626a34301.986 34301.986 0 0 1 15.322 103.758c-3.082 5.398-12.04 9.734-26.876 13.01s-22.256 6.842-22.254 10.698c-.002 2.694 1.922 5.97 5.768 9.828.776.764 4.728.184 11.854-1.738 7.128-1.924 22.252-2.884 45.374-2.884 25.05 0 43.356.866 54.916 2.602 11.562 1.734 19.27 2.602 23.128 2.602 4.234 0 10.208-.776 17.924-2.33 1.54-13.478-4.05-20.216-16.768-20.216-12.72 0-22.066-2.026-28.04-6.078-5.976-4.052-12.814-25.73-20.518-65.034s-13.29-71.676-16.758-97.114c-2.706-6.162-8.49-32.656-17.35-79.482-8.862-46.826-13.294-78.906-13.294-96.242 0-5.398.288-9.35.864-11.856.578-2.504 7.03-4.624 19.362-6.358s21.196-4.532 26.594-8.39c-2.306-6.938-10.59-10.406-24.856-10.408zm-93.648 28.914c3.852 0 6.742.868 8.67 2.602 1.928 1.736 8.098 21.776 18.506 60.122s15.612 67.152 15.612 86.416c-20.428 2.316-43.07 4.342-67.928 6.076-24.856 1.736-46.728 2.602-65.616 2.602-11.172 0-17.334-.582-18.488-1.746-.388-.388 3.946-17.73 13.002-52.024s18.206-68.594 27.45-102.9c9.256-.376 19.084-.662 29.488-.856 10.402-.194 20.036-.292 28.904-.292h10.4z"/></svg>