<svg xmlns="http://www.w3.org/2000/svg" viewBox="0 0 1024 1024"><path d="M731.178 83.24s54.024 5.766 54.024 61.618l200.418 55.946s50.062 19.22 34.688 84.776L854.602 904.314s-34.712 46.126-75.166 34.596l-267.332-73.526-267.448 73.524c-40.454 11.532-75.166-34.594-75.166-34.594L3.692 285.578c-15.376-65.554 34.71-84.774 34.71-84.774l200.488-55.946c0-55.852 53.93-61.618 53.93-61.618h438.358zm-1.734 23.086h-434.89c-2.46.444-10.242 2.18-17.484 7.056-10.336 6.844-15.094 16.828-15.094 31.476v17.578S49.278 221.782 46.184 222.602c-5.602 2.648-22.266 12.632-22.266 39.258 0 5.414.75 11.462 2.296 18.328.282 1.102 161.698 603.432 164.254 613.134 7.148 8.064 28.102 29.016 47.882 23.438l273.662-75.352 273.824 75.352c19.688 5.578 40.57-15.374 47.696-23.438 2.672-9.702 163.994-612.032 164.346-613.134 1.572-6.866 2.296-12.914 2.296-18.328 0-26.626-16.758-36.61-22.242-39.258-3.118-.822-215.886-60.166-215.886-60.166v-17.578c0-14.648-4.758-24.632-15.024-31.476-7.312-4.876-15.024-6.61-17.578-7.056zm-472.062 88.08v594.806s5.04 38.648 35.908 38.648h167.088L236.78 889.478s-12.89 6.4-19.312-7.78L53.052 271.492c0 .002-6.422-19.336 8.952-24.444l195.378-52.642zm509.328-1.384l195.284 52.736c15.47 5.134 9.07 24.352 9.07 24.352L806.532 880.502c-6.4 14.11-19.22 7.688-19.22 7.688l-223.574-61.618h166.996c30.844 0 35.976-38.626 35.976-38.626V193.022zm-39.094-57.774c8.976 0 10.242 11.532 10.242 11.532v639.97c0 10.172-10.242 12.728-10.242 12.728h-430.39c-9.07 0-9.07-12.728-9.07-12.728V146.78c0-7.688 9.07-11.532 9.07-11.532h430.39zM567.35 268.606c-8.968.002-16.624.748-22.972 2.24-30.982 7.1-55.718 15.97-74.206 26.612-18.488 10.644-39.862 15.966-64.122 15.966-10.46 0-21.664-1.308-33.612-3.924a5674.647 5674.647 0 0 1-35.286-7.836c-3.738 0-6.82 1.586-9.248 4.76-2.426 3.174-3.64 6.066-3.64 8.674 0 4.114 12.23 7.848 36.688 11.204 24.46 3.356 38.276 12.97 41.45 28.844 3.172 15.872 6.066 46.212 8.682 91.016 2.616 44.806 3.922 84.756 3.922 119.852 0 16.432-.372 29.596-1.118 39.492-.748 9.896-1.866 15.402-3.36 16.52l-65.532 18.476c-2.244 1.87-3.366 3.55-3.366 5.042 0 2.246.56 4.208 1.682 5.888 1.124 1.682 2.43 3.08 3.924 4.196l50.968-8.956 19.606-1.128c16.056 0 33.698 2.522 52.926 7.564 19.23 5.042 35.378 8.776 48.448 11.204s27.634 3.64 43.688 3.64c12.694 0 25.388-1.118 38.082-3.358s27.63-6.72 44.808-13.444c17.178-6.722 29.408-18.578 36.688-35.568 7.282-16.99 10.922-35.752 10.922-56.286 0-22.026-8.868-44.054-26.604-66.086s-40.42-35.664-68.052-40.894c5.218-3.726 18.658-13.058 40.32-27.998 18.3-16.806 27.45-37.158 27.45-61.054 0-5.23-1.308-15.964-3.922-32.202-2.616-16.236-13.352-30.706-32.21-43.406-18.86-12.698-39.86-19.048-63.004-19.05zm-39.774 33.058c20.91 0 37.994 6.626 51.252 19.878s19.888 29.588 19.888 49.004v9.52c0 21.662-8.216 38-24.648 49.012-16.432 11.014-34.168 18.202-53.208 21.562 27.256 11.954 54.7 23.902 82.334 35.844 22.402 13.81 33.602 32.48 33.602 56.01 0 26.14-3.078 46.956-9.238 62.448-6.158 15.492-16.052 26.598-29.68 33.322-13.628 6.722-32.578 10.084-56.85 10.084-13.822 0-26.334-1.492-37.534-4.478-11.202-2.986-19.414-7.746-24.638-14.282-5.226-6.534-8.586-13.91-10.086-22.126-1.498-8.214-2.246-20.538-2.246-36.97.374-16.056.752-32.95 1.128-50.688.376-17.736.564-40.232.564-67.488 0-6.348-.188-16.24-.564-29.682-.376-13.44-.564-23.52-.564-30.244 0-26.88 3.082-47.882 9.246-63.002 6.164-15.122 18.956-23.992 38.372-26.614l12.87-1.11z"/></svg>