<svg xmlns="http://www.w3.org/2000/svg" viewBox="0 0 1024 1024"><path d="M511.886 732.462c-73.725-40.513-137.325-101.216-137.325-101.216l-151.851 50.56-18.76-53.458 146.036-54.963c-1.487-18.76-2.898-57.786-2.898-57.786L222.71 467.86c-25.986 40.438-78.128 2.898-78.128 2.898L1.463 362.26s146.036 4.384 190.858 8.713c44.839 4.309 41.941 43.334 41.941 43.334l112.826 41.924-1.505-156.16s49.225 76.698 85.354 76.698l80.949-76.698h.154s44.82 76.698 81.024 76.698c36.11 0 85.335-76.698 85.335-76.698l-1.487 156.16 112.749-41.924s-2.821-39.025 42.018-43.334c44.822-4.328 190.858-8.713 190.858-8.713L879.399 470.758s-52.123 37.54-78.109-2.898l-124.378 47.739s-1.411 39.026-2.898 57.786l146.036 54.963-18.76 53.458-151.851-50.56s-63.601 60.703-137.4 101.216h-.154z"/></svg>