<svg xmlns="http://www.w3.org/2000/svg" viewBox="0 0 1024 1024"><path d="M951.199 242.705c20.321 50.644 43.628 100.803 53.002 154.974 5.2 20.726 7.156 41.975 11.814 62.78v91.812c-4.173 25.281-5.987 50.966-12.056 75.844-3.69 23.386-12.44 45.442-18.891 68.041-10.242 28.991-21.813 57.559-35.523 85.139H74.616c-18.285-35.06-31.51-72.457-43.788-109.875-5.443-22.197-12.843-43.849-15.826-66.529-1.814-13.165-3.871-26.31-7.016-39.153v-95.985c2.439-15.362 4.637-30.725 6.371-46.167 2.519-24.556 10.402-48.104 16.935-71.813 10.624-37.559 26.772-73.161 41.731-109.068h878.176zm-30.563 31.732l-794.75.082c-10.807.08-21.593-.544-32.377.384-5.202 19.374-15.585 36.712-21.412 55.844-8.508 27.257-18.205 54.414-23.325 82.618-5.827 27.399-7.238 55.523-7.561 83.384-.16 28.285-.16 56.631 2.761 84.734 2.441 19.072 7.158 37.661 11.351 56.31 4.879 25.926 15.906 49.937 24.091 74.735 5.344 12.216 10.242 24.576 15.121 36.874 278.316.145 556.614.145 834.85 0 20.483-50.321 40.402-101.589 48.123-155.701 5.907-27.882 4.557-56.47 6.129-84.734-1.411-21.895-.865-44.032-3.85-65.845-3.388-17.802-5.584-35.826-10.544-53.304-3.308-20.948-11.976-40.482-17.882-60.725-6.533-18.425-14.879-36.147-22.38-54.19-2.821-.145-5.584-.384-8.346-.466zm-796.969 31.976c261.303.242 522.684-.16 784.067.242 5.04 7.7 7.801 16.613 10.866 25.281 6.694 20.241 14.092 40.241 19.838 60.865 3.548 19.697 8.426 39.212 10.242 59.232 4.878 27.559 3.386 55.583 3.466 83.384.162 11.651-1.652 23.165-3.226 34.656-1.734 11.411-2.137 23.165-4.576 34.495-2.601 12.136-6.149 24.011-9.295 36.067-5.664 25.281-15.746 49.292-25.201 73.404-.625 3.61-4.717 3.308-7.561 3.529-254.042-.065-508.107 0-762.231 0-8.204-.304-16.693 1.188-24.656-1.089-6.229-13.952-11.976-28.346-16.37-43.083 12.984-7.945 28.346-10.626 43.145-12.682 17.258-1.329 34.656-1.249 51.751 1.734.464-8.103.544-16.288-.16-24.414-7.883-5.342-19.133-8.89-21.188-19.374-3.227-15.503 2.842-30.624 6.774-45.281 3.466-14.636 11.249-27.559 16.611-41.491 3.791-10.16 12.278-19.374 10.404-30.805-.403-5.664-6.069-8.588-10.484-10.947-8.023-3.85-16.37-7.782-25.361-8.81-5.827-.705-10.383 4.012-12.682 8.81-15.119 31.672-23.467 66.005-37.396 98.202-7.32 18.992-16.311 38.205-31.27 52.54-5.04-10.948-5.989-23.165-8.972-34.657-3.628-18.104-5.827-36.47-7.801-54.654-1.029-25.04-.869-50.079-.162-75.199 2.057-28.749 8.206-57.015 13.628-85.219 8.428-28.426 18.125-56.55 29.295-84.029 2.842-.242 5.685-.625 8.508-.705zm54.383 36.973l-5.311.505c-6.694 4.898-11.511 12.056-16.148 18.83-2.521 3.226-2.116 8.185 1.734 10.16 9.295 4.497 20.079 4.637 29.454 9.295 6.856 2.441 4.335 11.25 3.932 16.773-4.415 17.642-13.851 33.548-18.266 51.108-1.975 8.75 7.238 13.145 13.549 16.532 9.132 4.333 18.587 11.511 29.211 8.508 8.347-6.613 8.509-19.214 16.23-26.31 6.129-4.799 11.331 3.548 15.503 7.177 20.785 24.656 34.333 54.333 46.853 83.707 9.777 21.27 15.988 43.87 23.002 66.087 7.098 23.062 12.138 47.316 9.919 71.569 0 3.71-1.089 7.803.485 11.269 8.105 6.533 17.64 10.948 27.156 15.121 10.564-19.052 24.899-36.147 43.244-48.043 8.105-5.282 17.399-8.023 25.825-12.6-3.85-27.397-14.172-53.304-24.091-78.908-5.907-14.797-7.096-31.027-5.202-46.691 1.271-9.779 10.001-15.988 13.145-24.98 2.601-8.97-5.18-15.744-10.301-22.035-5.12-5.202-9.999-12.52-18.045-13.085-6.774 1.109-12.056 5.908-18.425 8.125-3.932-.242-6.774-3.468-9.537-5.907-19.838-21.188-31.169-48.365-48.345-71.509-9.617-12.136-17.882-25.907-19.779-41.511-22.822-1.572-45.744-.867-68.666-1.492-8.871.179-17.674-1.266-26.52-1.63-3.533-.147-7.071-.043-10.607-.065zM403.719 335c-5.202 8.588-10.786 16.935-15.826 25.665 12.681 8.668 27.72 13.628 39.675 23.407 3.005 2.519 5.524 6.692 3.63 10.704-3.63 8.972-8.892 17.077-14.334 25.04-4.255 6.371-10.626 11.109-14.799 17.48-3.004 6.39-.787 14.01 3.69 19.132 5.443 6.632 10.866 13.71 18.205 18.427 7.076 2.924 13.607-3.308 20.463-4.255 5.04 2.379 7.016 8.125 9.535 12.682 12.843 29.152 29.536 56.55 40.402 86.629 5.584 14.496 14.496 30.322 8.81 46.228-7.641 18.589-26.53 28.204-40.24 41.672 5.987 8.508 13.467 15.988 20.806 23.386 8.81-5.12 17.157-11.349 27.075-14.415 27.257-8.346 56.31-8.105 84.352-4.335 18.104 1.109 35.12 8.267 53.084 10.242 3.608-6.694 7.7-13.548 8.426-21.35-2.599-5.502-7.721-9.052-12.459-12.358-11.411-7.561-23.144-14.636-33.466-23.627-11.088-10.545-11.895-26.774-16.29-40.624-9.073-29.375-22.922-57.035-34.656-85.461-8.892-22.277-21.815-42.761-32.519-64.171-6.936-14.415-10.324-30.242-12.138-46.068-1.411-10.644 3.063-20.564 3.932-31.046-6.613-4.012-12.822-8.892-19.919-12.198-7.945 1.19-15.503 4.879-23.709 5.282-14.174.787-28.426.787-42.6-.565-9.919-.867-19.212-4.799-29.131-5.504zm280.11 3.227c-19.516 6.531-37.801 16.229-56.852 24.091v-.002c-11.571 5.364-24.091 8.912-34.495 16.473-.323 5.664-.323 11.329.162 17.015 12.278 1.171 24.576-.563 36.772.464 3.065-.162 4.96 2.761 5.041 5.504 3.063 51.348 2.924 102.779.403 154.127 3.386-1.572 6.451-3.71 8.73-6.694 9.535-11.411 20.401-21.652 31.672-31.43 3.063-2.903 7.238-5.989 6.753-10.866.403-27.802-.061-55.603.162-83.325 1.894-28.426.707-56.933 1.652-85.359zm135.06 2.424c-3.881.625-2.249.157-4.965 1.123-8.972 3.932-16.693 9.999-24.878 15.201-19.616 12.278-38.345 25.745-58.042 37.881-4.96 3.529-11.25 7.561-11.411 14.334-1.432 11.955-.949 24.093-1.976 36.069-1.029 11.088-1.976 22.197-1.249 33.386.145 5.987 4.093 10.866 7.863 15.201 15.604 16.934 32.922 32.922 53.627 43.465 11.592 5.202 22.762 11.351 34.978 14.737 7.398-.725 13.932-4.818 20.161-8.508 9.132-5.907 18.507-11.592 27.721-17.498 13.689-8.812 24.636-21.169 37.236-31.491 6.552-6.069 15.121-12.278 14.899-22.217.947-21.41 4.011-43.385-.947-64.493-19.454-25.04-47.256-41.571-73.243-58.989l-.002-.002c-4.806-2.871-9.443-6.124-14.923-7.639-1.568-.435-3.232-.374-4.849-.56zm-33.092 45.086c5.193.367 2.982.224 6.636.451 25.665 4.012 50.403 17.318 66.471 38.043 17.096 21.33 15.906 53.224 2.196 75.984-3.306 6.472-11.411 7.258-17.802 7.48-19.596-.544-38.023-9.132-53.929-20.161-13.548-9.132-24.032-22.822-28.669-38.506-5.443-21.028-.565-45.201 14.496-61.107 3.19-2.207 6.909-2.116 10.6-2.185z"/></svg>