<svg xmlns="http://www.w3.org/2000/svg" viewBox="0 0 1024 1024"><path d="M951.199 242.705c20.321 50.644 43.628 100.803 53.002 154.974 5.181 20.726 7.156 41.975 11.814 62.78v91.812c-4.173 25.281-5.987 50.966-12.056 75.844-3.71 23.386-12.44 45.442-18.912 68.041-10.221 28.991-21.813 57.559-35.422 85.139H74.597c-18.266-35.06-31.491-72.457-43.79-109.875-5.422-22.197-12.822-43.849-15.826-66.529-1.814-13.165-3.85-26.31-6.996-39.153v-95.985c2.439-15.362 4.637-30.725 6.371-46.167 2.601-24.556 10.402-48.104 17.015-71.813 10.544-37.559 26.692-73.161 41.651-109.068h878.176zm-30.562 31.73l-794.771.08c-10.786.08-21.572-.543-32.276.384-5.202 19.374-15.686 36.712-21.513 55.846-8.508 27.257-18.185 54.414-23.224 82.618-5.907 27.397-7.318 55.521-7.561 83.384-.242 28.285-.242 56.631 2.681 84.734 2.441 19.072 7.158 37.659 11.331 56.308 4.879 25.928 15.906 49.939 24.112 74.735 5.344 12.218 10.221 24.496 15.121 36.874 278.296.145 556.614.145 834.93 0 20.383-50.321 40.322-101.589 48.022-155.699 5.907-27.884 4.577-56.47 6.149-84.736-1.411-21.895-.865-44.03-3.85-65.845-3.388-17.801-5.605-35.825-10.564-53.304-3.308-20.946-11.955-40.482-17.862-60.723-6.554-18.427-14.899-36.147-22.38-54.192-2.821-.145-5.584-.384-8.346-.464zm-796.969 31.977c261.383.241 522.684-.162 784.067.241 5.04 7.702 7.781 16.613 10.866 25.283 6.774 20.241 14.172 40.24 19.919 60.865 3.548 19.697 8.346 39.212 10.242 59.232 4.878 27.559 3.306 55.583 3.386 83.384.145 11.653-1.652 23.165-3.246 34.656-1.713 11.411-2.116 23.165-4.555 34.495-2.601 12.138-6.149 24.011-9.295 36.067-5.584 25.283-15.746 49.294-25.201 73.405-.626 3.608-4.717 3.306-7.561 3.528-254.063-.065-508.107 0-762.25 0-8.185-.304-16.695 1.19-24.637-1.009-6.229-14.031-11.894-28.426-16.391-43.163 13.005-7.943 28.346-10.624 43.245-12.761 17.157-1.251 34.656-1.169 51.651 1.814.565-8.105.565-16.29-.16-24.416-7.782-5.342-19.132-8.89-21.169-19.454-3.226-15.341 2.823-30.543 6.775-45.199 3.447-14.636 11.249-27.559 16.611-41.491 3.77-10.161 12.278-19.374 10.383-30.886-.304-5.586-6.048-8.508-10.464-10.866-8.044-3.772-16.391-7.782-25.361-8.73-5.827-.788-10.383 3.93-12.682 8.648-15.119 31.753-23.467 66.087-37.398 98.284-7.337 19.072-16.309 38.204-31.188 52.538-5.12-10.947-5.987-23.165-9.052-34.656-3.628-18.104-5.827-36.471-7.803-54.656-1.027-25.039-.865-50.079-.16-75.199 2.057-28.749 8.185-57.013 13.628-85.219 8.428-28.426 18.104-56.55 29.293-84.028 2.843-.242 5.666-.626 8.509-.707zm54.371 36.974l-5.321.505c-6.694 4.898-11.491 12.056-16.128 18.83-2.521 3.226-2.137 8.185 1.734 10.16 9.295 4.497 20.161 4.637 29.454 9.295 6.835 2.441 4.314 11.25 4.012 16.855-4.495 17.56-13.95 33.466-18.347 51.026-1.894 8.75 7.238 13.145 13.549 16.531 9.132 4.335 18.567 11.513 29.293 8.508 8.265-6.612 8.426-19.212 16.128-26.308 6.229-4.799 11.351 3.548 15.524 7.177 20.785 24.656 34.413 54.253 46.853 83.707 9.777 21.27 15.988 43.87 23.002 66.087 7.078 23.062 12.117 47.316 9.919 71.569.082 3.71-1.109 7.803.463 11.269 8.125 6.533 17.642 10.948 27.177 15.121 10.564-19.052 24.878-36.147 43.325-48.043 8.025-5.282 17.318-8.023 25.745-12.6-3.871-27.317-14.172-53.304-24.091-78.908-5.907-14.797-7.016-31.027-5.202-46.691 1.251-9.779 10.001-15.988 13.145-24.98 2.601-8.97-5.2-15.744-10.322-22.035-5.12-5.202-9.999-12.52-17.942-13.165-6.774 1.19-12.138 5.989-18.507 8.206-3.953-.242-6.775-3.468-9.537-5.907-19.838-21.108-31.188-48.445-48.345-71.509-9.617-12.136-17.882-25.907-19.779-41.591-22.84-1.492-45.744-.787-68.666-1.411-8.866.176-17.664-1.268-26.503-1.63-3.541-.147-7.089-.043-10.634-.065zM403.721 335c-5.202 8.588-10.807 17.015-15.846 25.663 12.681 8.67 27.72 13.629 39.695 23.407 3.004 2.521 5.524 6.694 3.63 10.706-3.55 8.97-8.912 17.075-14.334 25.039-4.255 6.371-10.626 11.109-14.799 17.48-3.004 6.391-.807 14.012 3.69 19.132 5.523 6.634 10.866 13.71 18.185 18.427 7.096 2.924 13.628-3.306 20.564-4.253 4.96 2.379 6.936 8.124 9.455 12.681 12.822 29.153 29.536 56.55 40.402 86.63 5.584 14.495 14.476 30.321 8.81 46.228-7.641 18.587-26.53 28.204-40.24 41.672 6.069 8.508 13.467 15.986 20.785 23.386 8.911-5.122 17.178-11.351 27.095-14.415 27.257-8.347 56.31-8.105 84.352-4.335 18.104 1.109 35.12 8.265 53.064 10.242 3.709-6.694 7.721-13.548 8.426-21.35-2.58-5.504-7.7-9.052-12.438-12.358-11.331-7.561-23.144-14.636-33.386-23.629-11.189-10.464-11.976-26.772-16.391-40.624-9.052-29.373-22.902-57.033-34.635-85.46-8.912-22.279-21.734-42.761-32.539-64.172-6.915-14.415-10.221-30.24-12.117-46.066-1.411-10.644 3.063-20.564 3.932-31.048-6.613-4.012-12.843-8.89-19.919-12.198-7.963 1.19-15.524 4.799-23.709 5.282-14.174.787-28.426.787-42.6-.563-9.837-.867-19.212-4.799-29.131-5.504zm458.166 3.227c-19.535 6.531-37.801 16.229-56.772 24.091l.002-.002c-11.593 5.364-24.112 8.912-34.495 16.473-.323 5.664-.403 11.329.08 17.015 12.278 1.169 24.556-.565 36.854.464 3.065-.242 4.879 2.761 4.96 5.504 3.144 51.348 2.903 102.779.382 154.127 3.388-1.572 6.552-3.71 8.83-6.694 9.455-11.411 20.321-21.652 31.572-31.43 3.166-2.903 7.339-5.989 6.854-10.866.404-27.802-.16-55.603.162-83.325 1.894-28.426.705-56.933 1.572-85.359zm-146.162-.002c-19.536 6.533-37.801 16.23-56.772 24.091-11.592 5.362-24.112 8.911-34.495 16.471-.323 5.666-.403 11.331.082 17.015 12.278 1.169 24.556-.565 36.854.464 3.063-.241 4.878 2.763 4.958 5.504 3.145 51.35 2.903 102.779.382 154.127 3.388-1.572 6.554-3.709 8.83-6.692 9.457-11.411 20.323-21.652 31.572-31.432 3.166-2.903 7.339-5.987 6.856-10.866.403-27.802-.162-55.603.16-83.323 1.896-28.426.705-56.934 1.574-85.361z"/></svg>