<svg xmlns="http://www.w3.org/2000/svg" viewBox="0 0 1024 1024"><path d="M951.199 242.705c20.321 50.644 43.628 100.803 53.002 154.974 5.2 20.726 7.177 41.975 11.814 62.78v91.812c-4.173 25.201-5.987 50.966-12.056 75.844-3.69 23.386-12.44 45.442-18.891 68.041-10.242 28.991-21.813 57.58-35.442 85.139H74.616c-18.205-35.04-31.43-72.457-43.788-109.855-5.443-22.217-12.843-43.87-15.906-66.55-1.734-13.165-3.71-26.31-6.936-39.233v-95.904c2.439-15.362 4.657-30.725 6.391-46.147 2.58-24.576 10.382-48.205 16.995-71.834 10.564-37.559 26.713-73.161 41.672-109.068h878.155zm-30.551 31.734l-794.851.08c-10.706.08-21.511-.544-32.217.403-5.202 19.294-15.746 36.693-21.49 55.825-8.508 27.257-18.205 54.414-23.247 82.618-5.886 27.399-7.318 55.441-7.559 83.384-.224 28.285-.224 56.631 2.681 84.675 2.439 19.132 7.177 37.721 11.349 56.39 4.879 25.825 15.908 49.917 24.093 74.735 5.362 12.196 10.242 24.474 15.119 36.854 278.236.16 556.614.16 834.85 0 20.403-50.321 40.402-101.589 48.123-155.701 5.907-27.882 4.577-56.47 6.229-84.734-1.51-21.975-.945-44.032-3.951-65.845-3.388-17.782-5.664-35.826-10.544-53.304-3.306-20.948-11.976-40.482-17.882-60.725-6.531-18.425-14.879-36.147-22.277-54.252-2.924-.16-5.685-.323-8.428-.403zM123.66 306.413c261.381.242 522.684-.16 783.985.162 5.12 7.721 7.883 16.693 10.947 25.361 6.694 20.241 14.092 40.241 19.838 60.865 3.628 19.697 8.428 39.233 10.242 59.232 4.879 27.559 3.386 55.603 3.468 83.325h.003c.162 11.733-1.654 23.224-3.226 34.715-1.734 11.431-2.116 23.084-4.577 34.495-2.58 12.136-6.129 23.951-9.272 36.067-5.687 25.283-15.766 49.314-25.201 73.405-.647 3.628-4.739 3.306-7.581 3.548-254.044-.08-508.107-.08-762.231 0-8.105-.323-16.693 1.169-24.656-1.108-6.209-14.012-11.895-28.346-16.37-43.083 13.065-7.945 28.346-10.626 43.225-12.682 17.176-1.329 34.575-1.329 51.671 1.734.543-8.105.543-16.29-.162-24.414-7.801-5.342-19.132-8.892-21.188-19.454-3.226-15.423 2.843-30.544 6.774-45.201 3.468-14.636 11.271-27.559 16.613-41.571 3.791-10.08 12.298-19.294 10.402-30.805-.323-5.584-6.067-8.487-10.482-10.866-8.025-3.85-16.37-7.863-25.342-8.81-5.827-.787-10.402 4.011-12.761 8.73-15.121 31.753-23.386 66.086-37.338 98.282-7.398 18.992-16.208 38.205-31.188 52.54-5.041-10.948-5.968-23.165-9.052-34.657-3.63-18.104-5.827-36.449-7.803-54.654-1.007-25.04-.785-50.161-.145-75.199 2.036-28.749 8.105-57.015 13.689-85.219 8.347-28.426 18.045-56.612 29.293-84.029 2.761-.304 5.605-.626 8.428-.707zm54.391 36.932l-5.315.486c-6.694 4.96-11.493 12.117-16.15 18.891-2.439 3.226-2.116 8.185 1.734 10.16 9.295 4.415 20.161 4.637 29.455 9.295 6.854 2.441 4.335 11.271 4.012 16.773-4.477 17.642-14.012 33.548-18.347 51.108-1.894 8.75 7.258 13.145 13.548 16.451 9.132 4.415 18.589 11.593 29.293 8.588 8.347-6.612 8.428-19.212 16.148-26.288 6.231-4.82 11.331 3.447 15.585 7.156 20.724 24.656 34.333 54.253 46.792 83.707 9.759 21.27 15.988 43.87 22.984 66.086 7.096 23.064 12.056 47.317 9.919 71.591.08 3.69-1.089 7.782.483 11.249 8.105 6.533 17.642 10.948 27.177 15.121 10.544-19.052 24.878-36.147 43.225-48.043 8.105-5.262 17.48-8.023 25.825-12.6-3.85-27.399-14.172-53.304-24.091-78.908-5.907-14.799-7.016-31.027-5.202-46.693 1.27-9.777 9.999-15.986 13.165-24.958 2.661-8.992-5.202-15.766-10.322-22.055-5.122-5.202-10.081-12.52-17.964-13.165-6.774 1.19-12.116 5.987-18.507 8.124-3.93-.16-6.774-3.386-9.515-5.827-19.859-21.188-31.189-48.365-48.365-71.509-9.597-12.136-17.882-25.905-19.758-41.51-22.842-1.574-45.764-.869-68.687-1.493-8.864.125-17.659-1.3-26.498-1.666-3.54-.145-7.084-.046-10.626-.07zm225.663-8.343c-5.2 8.508-10.786 16.934-15.906 25.663 12.762 8.67 27.721 13.629 39.777 23.407 2.983 2.521 5.504 6.694 3.688 10.706-3.608 8.97-8.97 17.096-14.415 25.039-4.253 6.371-10.624 11.028-14.797 17.48-2.985 6.391-.787 13.95 3.709 19.132 5.424 6.634 10.866 13.71 18.185 18.447 7.098 2.903 13.629-3.326 20.545-4.253 5.04 2.359 6.934 8.103 9.535 12.681 12.762 29.131 29.455 56.53 40.322 86.548 5.584 14.556 14.495 30.382 8.83 46.208-7.721 18.669-26.552 28.206-40.241 41.754 6.048 8.508 13.467 15.906 20.785 23.386 8.892-5.122 17.237-11.411 27.097-14.416 27.237-8.346 56.308-8.103 84.332-4.333 18.185 1.108 35.12 8.265 53.082 10.242 3.71-6.694 7.723-13.549 8.428-21.35-2.601-5.504-7.721-9.052-12.44-12.358-11.349-7.561-23.163-14.636-33.405-23.629-11.17-10.544-11.875-26.772-16.37-40.624-9.134-29.454-22.842-57.095-34.657-85.461-8.89-22.357-21.813-42.761-32.519-64.171-6.934-14.415-10.242-30.321-12.136-46.147-1.411-10.564 3.084-20.483 3.951-30.947-6.612-4.113-12.843-8.911-19.857-12.218-8.105 1.19-15.585 4.879-23.77 5.202-14.172.867-28.447.867-42.619-.485-9.919-.847-19.132-4.797-29.133-5.502zm417.467-1.333c-24.172 10.706-33.951 20.787-38.668 22.823-4.637 2.057-14.415 7.419-25.825 16.148-11.431 8.75-17.48 18.123-17.48 18.123s2.038 6.775-.705 22.197c-2.679 15.444-4.031 36.309-4.031 36.309 13.425-10.276 27.211-20.132 41.67-28.909-5.881-9.649-4.799-23.038-2.057-33.626 10.786-5.344 33.004-5.344 49.777 7.419 16.773 12.742 27.559 19.454 31.572 33.628 4.033 14.092 1.352 28.184 1.352 28.184-16.775 12.762-36.934 37.016-43.628 42.378-6.774 5.342-12.138 10.08-21.513 16.773-9.455 6.694-19.535 17.48-30.24 26.854-10.786 9.434-28.264 25.583-28.264 25.583 26.853-2.036 56.468-2.741 82.678-4.717 26.23-1.976 57.82.705 57.82.705 1.251 7.398.626 18.749.626 18.749 3.386-4.033 24.173-1.976 24.173-1.976 2.055-27.559 28.264-73.243 28.264-73.243l-13.467-15.503c-7.398 8.81-16.128 22.197-16.128 22.197-13.387-.625-25.523 2.681-32.923 4.012-7.398 1.35-24.878-.626-24.878-.626 12.822-19.535 60.483-66.55 60.483-66.55 2.741-31.572.705-48.345.705-48.345-9.073-10.786-22.217-27.641-26.854-32.297-4.738-4.719-20.161-13.065-26.935-20.161-8.588-8.972-25.523-16.128-25.523-16.13zm-112.86 3.853c-19.514 6.531-37.801 16.229-56.772 24.091-11.573 5.362-30.322 10.866-40.724 18.425-.302 5.687.241 13.872.725 19.536 12.198 1.109 31.329-1.734 43.628-.705 3.063-.16 1.249 5.282 1.329 8.025 3.067 51.348 1.896 112.696-.623 164.047 3.386-1.574 13.145-9.839 15.423-12.843 9.535-11.411 18.99-19.132 30.24-28.89 3.166-2.924 6.472-9.213 6.067-14.092.406-27.802-1.169-64.433-.865-92.235 1.894-28.426.707-56.933 1.572-85.359zm67.823 82.839z"/></svg>