<svg xmlns="http://www.w3.org/2000/svg" viewBox="0 0 1024 1024"><path d="M949.04 243.188c42.592 79.128 66.978 170.921 66.978 268.812s-24.376 189.684-66.978 268.812H74.959C32.359 701.684 7.983 609.891 7.983 512s24.376-189.684 66.976-268.812H949.04zm-20.031 31.923H95.002l-8.494 18.763C55.583 362.217 39.907 435.614 39.907 512c0 77.74 16.246 152.342 48.268 221.706l8.557 18.548h830.534l8.559-18.548C967.857 664.342 984.093 589.74 984.093 512c0-76.385-15.676-149.782-46.601-218.136l-8.484-18.753zm-20.591 31.913C936.45 369.002 952.18 438.528 952.18 512c0 74.805-16.333 145.514-45.332 208.329H117.151c-7.095-14.88-12.791-30.362-18.241-45.903l.015-.036c28.53-17.476 62.484-15.558 94.43-12.297v-21.839c-27.72-7.291-26.592-34.731-18.753-58.257 7.881-23.644 20.108-45.655 29.957-68.654 3.408-7.979 1.86-14.452-5.603-17.872-7.096-3.246-13.537-6.816-20.021-9.935-9.192-4.419-17.676 1.161-21.171 8.236-13.827 28-21.279 57.354-32.258 87.784-8.496 22.06-18.394 45.452-36.105 61.913-12.363-42.709-16.968-87.151-17.572-131.471 0-73.462 15.73-142.998 43.762-204.974l792.825-.002zM170.947 344.83c-7.559 7.979-13.44 17.645-15.677 28.29 27.022 3.366 46.892 6.571 37.236 31.625-5.258 13.665-10.945 26.45-16.806 38.934-3.333 7.096-2.591 14.978 5.601 20.431 5.495 3.666 17.365 9.634 23.526 12.032 8.259 3.226 13.355-.13 15.957-6.151 1.913-4.431 6.236-13.054 8.399-17.365 4.064-8.086 11.182-6.344 16.236.838 32.118 45.752 62.493 109.623 81.483 185.943 5.257 21.129 5.041 38.366-1.398 49 9.267 6.892 19.656 11.697 31.085 14.558 13.472-25.312 36.869-45.278 68.601-60.751-6.506-26.001-14.86-51.623-25.764-76.72-10.979-35.343-4.333-53.784 6.721-67.773 3.021-3.816 3.086-8.881 0-13.752-5.914-9.322-12.367-16.741-19.043-22.364-4.698-3.968-10.86-4.796-15.957.268-3.011 3-5.634 6.386-9.236 8.969-36.407-43.119-67.482-89.322-78.966-121.805l-111.998-4.205zm326.208-10.299c-12.88 12.805-64.126 13.085-90.793 0-6.193 10.622-12.43 18.871-18.688 26.462 16.688 7.064 30.02 15.258 39.892 23.784 6.591 5.688 6.731 11.87 2.408 18.731-8.409 13.377-16.538 24.064-25.774 32.043-4.816 4.161-4.074 11.194-1.118 16.806 6.484 12.269 16.495 19.99 26.602 25.204 8.354-8.354 16.72-11.215 21.559-1.956 17.838 34.084 31.172 68.644 47.322 100.514 14.118 27.87 10.462 47.063-5.323 59.933-11.022 8.991-21.656 16.43-30.247 25.204a305.378 305.378 0 0 0 22.968 21.548c37.053-30.225 93.235-28.59 161.567-6.721 2.645-8.107 6.204-15.945 10.634-23.526-23.946-21.484-48.923-26.687-57.677-47.59-4.634-11.052-6.934-33.418-12.58-47.665-18.505-46.72-35.871-81.708-64.708-141.073-12.935-26.634-10.022-52.526-3.366-66.934-9.656-4.118-17.15-9.074-22.678-14.763zm350.07-9.389c-6.139 83.118-120.3 188.986-121.438 187.546l20.246 14.624c38.441-5.001 79.138-7.398 95.956-8.183 2.473 20.463-1.13 69.806-3.366 89.02 29.752-16.258 53.859-13.537 53.859-13.537s-5.678-55.934-3.408-74.805c9.946-.85 11.849-1.591 26.3 2.173 7.323-11.419 18.495-33.795 18.495-33.795l-9.324-12.044-8.859 7.839-25.699.012c.905-62.257-6.257-100.451 4.313-132.859l-47.075-25.989zm-4.086 92.665v.002c.829 23.48.916 20.202.561 50.398-.067 5.601-.374 11.196-.561 16.794 0 0-44.01 2.731-50.828.345 19.523-20.46 35.523-43.86 50.828-67.536v-.002zm-137.502-80.266c-26.279 17.031-58.085 31.246-92.827 43.977v19.323h46.763v166.878l46.065-46.053V337.541z"/></svg>