<svg xmlns="http://www.w3.org/2000/svg" viewBox="0 0 1024 1024"><path d="M948.975 243.2s67.055 133.581 67.026 268.797c-.027 135.223-67.043 268.803-67.043 268.803H72.979S7.909 647.683 8.001 512.051C7.936 376.306 72.996 243.2 72.996 243.2h875.979zM95.089 275.564C59.355 357.8 40.684 421.301 40.653 511.9c-.007 90.733 18.775 154.013 54.385 236.443l834.15.039c35.71-82.365 54.54-145.763 54.543-236.493.032-90.598-18.777-154.013-54.494-236.288l-834.149-.038zm20.411 30.989l793.272.049c29.242 69.444 43.82 128.174 43.861 205.338-.087 77.179-14.609 135.747-43.885 205.319l-793.134-.07c-6.496-15.268-12.221-29.991-17.244-44.568 28.735-14.959 64.113-16.167 95.672-11.279l.041-23.607-7.305-2.917a47.464 47.464 0 0 1-8.595-6.354c-21.649-19.516 16.288-92.377 26.305-114.886 4.915-12.942-.225-18.949-8.463-22.518l-16.672-7.509c-7.409-4.255-16.911-4.207-20.809 6.784-12.983 24.934-20.398 52.144-30.005 78.515-10.708 28.6-19.413 52.376-39.919 72.395-11.247-40.605-16.821-81.396-16.741-129.417-.015-77.032 14.341-135.7 43.621-205.276zm56.518 36.97l-9.192 11.79-6.26 8.424c-2.736 3.739.961 10.815 7.835 12.046l8.876 1.828c7.228 1.71 14.244 3.729 17.63 5.98 7.81 5.001-10.822 49.51-13.889 57.51-7.439 13.242-2.437 19.284 7.398 24.192l17.027 7.987c10.755 4.755 18.225 1.678 22.11-8.641l3.787-8.528c1.756-3.159 3.205-5.719 4.552-7.311l5.396-1.765c37.695 21.168 98.963 178.147 90.885 231.646l-2.268 8.675 29.689 16.606c11.686-25.385 41.955-54.717 69.992-59.785-3.63-18.215-8.532-35.253-14.831-52.449-9.769-26.894-27.74-64.823-7.491-90.906 5.48-6.656 8.719-15.227.444-23.671l-13.204-14.768c-6.815-6.258-15.712-5.91-22.825.763l-5.83 4.688c-22.581-16.367-33.894-42.72-48.867-65.988-11.31-17.132-27.459-33.952-28.358-55.221l-112.608-3.101zm232.836-9.112l-17.604 27.235c8.948 4.529 51.14 21.924 45.397 33.237-13.285 25.53-22.438 34.468-26.319 37.861-7.023 6.391-7.516 15.157-.266 23.916l11.824 13.112c7.748 7.724 14.203 6.588 21.85 1.44 3-1.475 7.03-3.268 11.245 5.209 17.428 36.395 43.628 84 53.751 122.088 6.77 25.257-26.955 45.841-42.289 58.982l21.685 23.576c42.982-34.282 118.881-22.144 163.992-7.438l9.19-21.823c-4.029-5.125-8.028-9.305-13.339-13.249l-12.665-8.622c-8.762-5.782-16.753-11.02-22.101-16.722-9.091-9.926-10.037-19.12-12.969-31.891-7.127-30.348-46.816-116.669-60.679-140.539-17.099-29.943-25.634-65.193-16.975-86.929l1.068-5.477-20.873-12.059c-22.694 9.962-70.349 7.776-93.925-1.908zm487.615-9.957l-1.118 1.62-10.998 15.978-104.194.06-.367 3.33-14.104 128.341 4.173-.003c71.649.114 97.923 28.776 102.057 52.151l.608 6.738c-.285 21.023-10.554 33.918-29.672 37.49-2.966.521-6.156.794-9.545.794-21.115-.179-35.797-12.527-39.332-31.836-.478-2.698-.717-5.548-.717-8.521l.003-2.792-6.477-1.929-1.533 2.295-28.131 42.033 2.135 2.171c16.645 16.954 40.965 27.175 67.961 27.054 7.699.02 14.923-.608 21.659-1.794 45.269-7.817 68.175-41.859 68.002-80.002a88.305 88.305 0 0 0-1.333-15.392c-6.996-40.344-43.324-75.892-114.227-77.885l3.791-37.827 98.551-.061.003-3.739.01-58.252-7.207-.02zm-188.882 14.039l-1.096.997c-21.425 19.633-59.179 39.67-81.15 44.894l-2.826.684-.036 2.895-.111 7.334 37.06-.017.055 177.403L618.5 586.12l-.031 2.57-.055 3.524-.046 3.791 130.77-.003.096-3.652.16-6.485-3.017-.666c-18.886-4.381-29.041-13.302-32.794-33.253-.795-4.514-1.203-9.6-1.196-15.309l-.087-198.019-3.683-.056-5.03-.067z"/></svg>