<svg xmlns="http://www.w3.org/2000/svg" viewBox="0 0 964 432"><path d="M914.186 0c32.556 74.996 49.702 132.798 49.67 215.38 0 82.702-17.166 140.488-49.716 215.566l-864.566.066C17.114 355.876 0 298.196 0 215.492.028 132.91 17.048 75.028 49.618.068L914.186 0zM279.102 60.018c-42.314.296-84.648-.274-126.962.296-.274.846-.824 2.56-1.1 3.406 15.064 7.004 31.566 12.906 42.948 25.622 5.564 6.136 8.76 15.254 4.718 23.06-26.128 57.102-52.406 114.142-78.554 171.244-10.854 24.732-27.716 46.524-47.456 64.824-2.412 2.094-4.464 4.57-5.818 7.49 48.894.634 97.85.318 146.744.168 1.1-.486 3.322-1.502 4.442-1.988-14.406-11.022-30.634-21.22-39.414-37.722-4.93-8.612-6.008-19.422-1.608-28.498l44.682-97.364c2.54-5.818 5.058-11.678 8.738-16.884 1.926 3.132 3.682 6.39 5.12 9.796 27.208 64.676 54.86 129.204 82.026 193.902 2.792-.296 5.48-1.268 6.092-4.38 28.076-61.524 56.404-122.92 84.564-184.402 2.222-5.14 4.486-10.346 7.914-14.81 1.67 2.646 3.194 5.396 4.442 8.272 16.122 38.294 32.412 76.504 48.576 114.776 5.332 12.272 6.854 27.356-.528 39.14-3.978 7.85-11.996 11.912-18.47 17.286l-.508 2.92c55.896.126 111.792.296 167.668-.086-1.46-5.204-6.454-7.934-9.88-11.7-13.858-14.048-26.214-30-34.126-48.194a203647.331 203647.331 0 00-78.154-184.424c-2.75-6.516-4.782-13.52-4.126-20.67.212-10.05 7.152-18.872 15.698-23.57 2.984-1.946 7.406-3.024 7.574-7.32-49.528-.296-99.076 0-148.604-.148-2.772.36-7.914-1.268-6.814 3.364 10.664 6.728 22.872 13.054 28.626 24.944 3.088 6.158 2.074 13.308-.952 19.252-13.52 29.198-26.722 58.542-40.388 87.654-4.38-5.458-6.306-12.292-9.118-18.598-15.996-37.658-31.864-75.338-47.922-112.956-1.142-4.548-6.6-3.426-10.07-3.702zm371.996 7.994c-12.11 0-23.438 2.246-33.985 6.738-10.547 4.492-19.677 10.45-27.392 17.871l33.252 42.041.879-1.025c-1.563-4.2-2.344-9.278-2.344-15.235 0-9.472 2.344-17.48 7.031-24.023 4.688-6.543 11.621-9.815 20.8-9.815 7.911 0 14.454 2.784 19.63 8.35 5.176 5.566 7.763 13.77 7.763 24.61 0 18.847-8.032 41.479-24.096 67.895-16.065 26.416-39.478 57.886-70.24 94.41l.733 1.171h137.11v-64.453h-1.32l-14.94 32.666-.88.293h-73.828c7.422-8.79 15.552-17.944 24.39-27.466 8.838-9.521 16.211-17.31 22.12-23.364 5.908-6.055 11.913-12.598 18.017-19.63 6.103-7.03 10.913-13.28 14.429-18.75 3.515-5.468 6.396-11.474 8.642-18.017a61.85 61.85 0 003.37-20.215c0-6.933-1.246-13.354-3.736-19.262-2.49-5.908-5.908-10.987-10.254-15.235-4.346-4.248-9.448-7.86-15.308-10.84-5.859-2.978-12.158-5.175-18.896-6.591-6.738-1.416-13.72-2.124-20.947-2.124zm178.3-.012h-8.193C804.822 86.623 782.42 99.746 754 107.37v9.276h27.609v145.616L754 272.97V281h105.18v-8.03c-19.855-5.744-29.782-15.409-29.782-28.993V68z" fill="#000" fill-rule="nonzero"/></svg>
