<svg viewBox="0 0 17 19" xmlns="http://www.w3.org/2000/svg"><path d="M8.245.182l8 4.619v9.237l-8 4.619-8-4.619V4.801l8-4.62zm-.853 1.844c-.589 1-.733 2.116-.43 3.35.922.664 1.489 1.392 1.701 2.183-.565-.8-1.324-1.394-2.276-1.783C4.96 5.193 3.834 3.59 3.834 3.59c-.16.763-.038 1.498.37 2.204-.595-.178-1.271-.205-2.03-.083.7.301 1.081.703 1.143 1.205.061.502-.106.815-.501.94-.822.265-1.557.757-2.204 1.477 1.772-.126 2.443.738 2.013 2.59a5.168 5.168 0 013.06-1.837c-.242-.189-.643-.257-1.203-.206 1.075-1.28 2.54-1.72 4.395-1.325-1.18.053-2.055.331-2.627.833.647-.004 1.131.173 1.451.53-1.296.325-2.224.987-2.784 1.986 1.69-.194 2.823.152 3.401 1.04.85 1.303.034 2.136.001 2.169.332.044.604-.023.817-.202.004.754-.57 1.282-1.722 1.583 2.37.225 4.034-.462 4.989-2.062-.377.285-.785.363-1.222.232-.657-.196-.526-.825-.282-.948-.48.102-.779.049-.897-.159-.177-.311-.1-.695.233-.889-.525.095-.818-.033-.88-.382-.091-.524.08-.89.481-1.132-.487-.279-1.014-.32-1.58-.123.793-.62 1.815-.734 3.066-.343.623.299.777.703.465 1.212 1.681-.19 2.44.355 2.276 1.635 1.222-.657 1.735-1.834 1.538-3.533-.174.583-.507.958-1 1.126.059-.526-.167-.8-.678-.82.218-1.16-.087-2.136-.913-2.93a52.492 52.492 0 00-2.657-2.378c-.834-.842-1.23-1.657-1.19-2.443-.44.971-.362 1.749.235 2.333.897.876 2.931 2.44 2.97 3.81-.792-1.112-1.56-2.005-2.301-2.68-1.112-1.01-2.716-1.814-2.675-3.993zm3.238 6.607c-.12-.325-.083-.48.11-.466.832.416 1.337.992 1.515 1.73-.156.085-.367.085-.633 0-.553-.332-.811-.778-.992-1.264z" fill="#000" fill-rule="nonzero"/></svg>
