<svg xmlns="http://www.w3.org/2000/svg" viewBox="0 0 28 32"><path fill="#000" d="M13.463 2.14a13.844 13.844 0 0 1 5.347.9 13.897 13.897 0 0 1 6.078 4.542 13.798 13.798 0 0 1 2.817 7.53 13.873 13.873 0 0 1-1.116 6.416 13.883 13.883 0 0 1-3.038 4.4 13.887 13.887 0 0 1-4.46 2.923 13.92 13.92 0 0 1-7.204.876 13.823 13.823 0 0 1-7.447-3.558 13.865 13.865 0 0 1-4.032-6.823A13.855 13.855 0 0 1 4.423 5.849a13.83 13.83 0 0 1 9.042-3.708zm-5.66 3.178c.211.416.424.83.636 1.246a5.703 5.703 0 0 0 3.105-.341 5.733 5.733 0 0 0 2.163-1.556c.005-.316.001-.632.002-.949a12.312 12.312 0 0 0-5.906 1.599zm6.224-.653c.47.539 1.034.996 1.668 1.327a5.696 5.696 0 0 0 3.601.572l.636-1.247a12.294 12.294 0 0 0-5.908-1.599c.002.315-.002.631.002.947zM11.902 6.41a6.002 6.002 0 0 1-3.287.499l1.705 3.347c.016.044.069.043.105.059.55.17 1.15.185 1.705.027a3.008 3.008 0 0 0 1.578-1.077V5.133a6.049 6.049 0 0 1-1.806 1.277zm2.124-1.279v4.131c.363.474.863.844 1.431 1.033a2.997 2.997 0 0 0 1.946-.011c.571-1.126 1.148-2.25 1.721-3.376a5.93 5.93 0 0 1-1.926-.06 6.042 6.042 0 0 1-3.172-1.718zM3.011 10.257l.647.422c.166-.379.355-.754.631-1.065.089.271.201.536.344.784a5.66 5.66 0 0 0 1.778-1.016 5.71 5.71 0 0 0 1.734-2.558c.007-.037.038-.079.013-.116l-.627-1.229a12.331 12.331 0 0 0-4.519 4.78zM19.607 6.65c-.019.042-.057.087-.027.135a5.703 5.703 0 0 0 3.52 3.613 3.82 3.82 0 0 0 .347-.785c.277.31.465.687.631 1.065l.649-.422a12.346 12.346 0 0 0-4.522-4.78c-.199.391-.398.782-.599 1.172zM4.813 10.671c.36.488.866.84 1.378 1.151.466.279.939.546 1.413.81a2.679 2.679 0 0 0 1.322-.475c.572-.401.97-1.021 1.149-1.691L8.372 7.127a6.069 6.069 0 0 1-3.559 3.545zm12.848-.206c.173.639.541 1.232 1.072 1.634.404.311.9.494 1.408.532.482-.277.969-.546 1.444-.834.499-.305.99-.65 1.341-1.127a6.09 6.09 0 0 1-3.563-3.544l-1.702 3.338zm-5.092.061c-.64.26-1.361.308-2.032.146l1.975 3.873c.45.057.919-.136 1.197-.495V9.749c-.32.335-.71.604-1.14.778zm1.456-.776c.001 1.433-.001 2.866.001 4.299.283.358.751.559 1.205.493.653-1.292 1.315-2.579 1.971-3.87a3.348 3.348 0 0 1-1.388.042 3.322 3.322 0 0 1-1.789-.964zM2.04 12.681a12.386 12.386 0 0 0-.444 3.797h1.451a7.681 7.681 0 0 1-.193-2.282c.077-1.098.292-2.189.681-3.221-.223-.146-.447-.29-.67-.437a12.28 12.28 0 0 0-.826 2.142zm22.16-1.705c.381.998.595 2.054.676 3.118a7.905 7.905 0 0 1-.184 2.385h1.447a12.189 12.189 0 0 0-1.266-5.939c-.223.147-.449.29-.672.437zm-13.93-.086c-.139.365-.334.71-.588 1.007a2.99 2.99 0 0 1-1.645.99c.185.113.371.223.555.338a13.45 13.45 0 0 1 2.788 2.229c.335-.198.625-.474.826-.808-.63-1.245-1.27-2.486-1.902-3.73a3.265 3.265 0 0 1-.034-.026zm5.263 3.752c.197.339.493.611.828.811a12.993 12.993 0 0 1 1.948-1.68c.449-.32.923-.602 1.395-.888a2.925 2.925 0 0 1-1.269-.617 3.349 3.349 0 0 1-.974-1.397c-.65 1.252-1.283 2.514-1.927 3.77zM4.56 13.421c-.063.692-.097 1.394.009 2.085.089.592.306 1.176.697 1.637.396.471.938.802 1.51 1.017.635.229 1.339.226 1.987.052a4.285 4.285 0 0 0 1.53-.757c.174-.144.356-.299.442-.514-.479-.649-1.083-1.2-1.738-1.667-1.32-.933-2.855-1.542-4.438-1.852zm14.605 1.568c-.818.522-1.573 1.161-2.155 1.942.034.166.177.288.294.403.442.392.98.671 1.545.842.695.211 1.461.227 2.146-.028a3.74 3.74 0 0 0 1.303-.815c.421-.413.69-.96.815-1.532.172-.781.136-1.588.066-2.379-1.416.277-2.792.795-4.013 1.567zm-6.491-.12c.271.528.54 1.056.809 1.584.071-.041.147-.074.225-.098V14.5c-.289.238-.66.371-1.035.369zm1.351 1.485c.08.024.157.057.23.099.269-.528.539-1.055.806-1.584a1.64 1.64 0 0 1-1.035-.37v1.855zm-2.427-.665c.352.403.702.817.968 1.284a9.014 9.014 0 0 1-.594.77c.401-.215.802-.433 1.202-.651a.737.737 0 0 1 .081-.383c-.289-.582-.589-1.16-.883-1.74-.206.29-.473.533-.774.721zm2.884 1.01a.785.785 0 0 1 .084.392c.399.218.798.435 1.199.651a8.151 8.151 0 0 1-.595-.78c.277-.458.616-.874.971-1.273a2.679 2.679 0 0 1-.774-.722 563.45 563.45 0 0 1-.885 1.731zm-.747-.02a.377.377 0 0 0-.242.297.385.385 0 0 0 .321.437c.241.045.476-.191.433-.432a.384.384 0 0 0-.511-.302zm-12.121.115a12.28 12.28 0 0 0 1.773 5.609c.271-.148.542-.294.812-.443a5.744 5.744 0 0 0-.141-3.226c-.035-.091-.057-.19-.118-.269-.375-.498-.633-1.076-.809-1.672H1.613zm22.993.001a5.503 5.503 0 0 1-.743 1.579c-.04.059-.089.112-.118.178a5.719 5.719 0 0 0-.208 3.408l.81.443a12.331 12.331 0 0 0 1.776-5.609h-1.518zm-12.986 1.5c.341.249.633.568.826.944.302-.578.605-1.155.906-1.733a7.826 7.826 0 0 1-.082-.11l-1.65.898zm2.762-.789c.302.578.606 1.155.907 1.734.195-.376.485-.7.829-.946-.55-.3-1.101-.597-1.651-.897a4.538 4.538 0 0 0-.085.109zm-1.654 1.881a6.594 6.594 0 0 1 2.281 0l-.889-1.701a.749.749 0 0 1-.503 0l-.889 1.7zm-1.599-.798c-.745.655-1.622 1.187-2.594 1.414-.163.03-.296.135-.442.206 1.115.423 2.035 1.271 2.65 2.283.506-.966 1.009-1.932 1.517-2.897a2.342 2.342 0 0 0-.96-1.131.844.844 0 0 0-.171.125zm4.345 1.005c.507.966 1.011 1.932 1.518 2.899.612-1.014 1.537-1.863 2.653-2.284-.124-.059-.237-.141-.367-.186-.948-.21-1.815-.703-2.549-1.329-.097-.078-.181-.173-.294-.229a2.363 2.363 0 0 0-.962 1.13zm-10.983-.516c.228.874.244 1.797.076 2.683l3.011-1.634c-.129-.001-.257-.006-.386-.01-.982-.033-1.968-.373-2.701-1.039zm15.668 1.049c1.004.545 2.009 1.089 3.012 1.635a6.076 6.076 0 0 1 .075-2.683c-.83.757-1.98 1.077-3.087 1.048zm-7.62-.38-1.37 2.615c1.028-.432 2.164-.569 3.271-.493a6.737 6.737 0 0 1 2.125.493L15.2 19.747a6.198 6.198 0 0 0-2.66 0zm-7.665 2.21c.78.265 1.514.67 2.145 1.199a6.095 6.095 0 0 1 1.905 2.813c.548-1.049 1.098-2.096 1.647-3.145-.62-1.107-1.626-2.047-2.861-2.406-.945.513-1.891 1.025-2.836 1.539zm12.292.864a940.02 940.02 0 0 0 1.645 3.147 6.027 6.027 0 0 1 1.129-2.038 6.565 6.565 0 0 1 2.923-1.974c-.946-.513-1.891-1.028-2.839-1.538-1.233.362-2.239 1.296-2.858 2.403zm-13.609-.149c1.19 1.833 2.87 3.355 4.835 4.317.104-.206.214-.41.32-.615a5.664 5.664 0 0 0-1.317-2.41 6.305 6.305 0 0 0-2.912-1.798c-.307.171-.618.335-.926.506zm9.016-.394c-.573.107-1.14.275-1.653.557-.564 1.083-1.132 2.165-1.699 3.247 1.594-.573 3.298-.818 4.989-.781 1.463.037 2.926.284 4.304.781-.566-1.084-1.135-2.165-1.701-3.248-.649-.351-1.376-.537-2.106-.623a7.482 7.482 0 0 0-2.134.067zm10.643-.103a6.36 6.36 0 0 0-2.553 1.46 5.773 5.773 0 0 0-1.641 2.738c.107.208.217.413.327.62a12.333 12.333 0 0 0 4.83-4.322c-.286-.157-.574-.311-.86-.469-.032-.015-.066-.045-.103-.027zM9.003 26.504c-.112.208-.218.419-.329.628a12.325 12.325 0 0 0 10.391.001c-.113-.209-.212-.428-.337-.628-1.637-.655-3.415-.924-5.173-.889-1.552.034-3.106.315-4.551.888z"/></svg>
