<svg xmlns="http://www.w3.org/2000/svg" viewBox="0 0 362 358"><path fill="#000" fill-rule="evenodd" d="m74 323.187 76.5-52.5L181 300l30.5-29.313 76.5 52.5c-33.667 23-69.333 34.5-107 34.5s-73.333-11.5-107-34.5ZM202.5 179.5l-21.5-22-21.5 22 21.5 21 21.5-21ZM37 73l51.5 75.5-29.5 31L88.5 209 37 286c-48.333-71-48.333-142 0-213Zm288 0c48.333 71 48.333 142 0 213l-51.5-77.5 30-29-30-31ZM150.5 88 74 35C107.667 12 143.333.5 181 .5l1.13.003C219.38.731 254.67 12.23 288 35l-76.5 53L181 57.5 150.5 88Zm1 165L4.5 356 106 207.5l-27.5-28L106 150 4.5 2.5l147 103.5L181 75.5l29.5 30.5 147-103.5L256 150l28.5 29.5-28.5 28L357.5 356l-147-103-29.5 29-29.5-29Z"/></svg>
