<svg version="1.0" xmlns="http://www.w3.org/2000/svg" viewBox="0 0 1250 1250"><path d="M592.7 45.1C551.8 47 516.4 54 472.4 68.6c-59.2 19.6-109.9 46-158.4 82.3-12.2 9.1-33 28.5-33 30.7 0 .7 8.1 11 18.1 22.9 9.9 12 26.9 32.8 37.7 46.4C409.4 342 419.1 353.9 442 379c5.2 5.8 11.3 13.1 13.5 16.2 5.7 8.3 6.9 8.4 6.1.6-.4-3.5-1.6-11.3-2.6-17.3-5.2-29.1-6.8-57.3-5.1-88.5 1.4-25.1 3.6-36.2 11.2-56.4 17.2-45.6 49.4-84.6 80.6-97.6 14-5.8 21.2-7.2 40.8-7.7 35.5-1 60.6 5.9 83.7 22.9 30.7 22.6 53.6 69.3 61.3 124.8 5.8 42.1 3.7 110.1-5 162-10.7 63.9-25.7 95-63.6 131.5-38 36.6-77.9 65.1-127.4 90.9-7.1 3.8-13.1 7-13.3 7.1-.6.5 20.2 50 32.3 77 36.9 82.6 58.1 127 60.4 127 1 0 4.6-7.5 10.2-21 4.8-11.6 15.1-36.5 23-55.5 7.8-19 17.8-42.3 22-51.9l7.8-17.5 32.3-16.1c53-26.5 81.6-43.5 112.3-66.5 53.3-40 95.3-86.5 122.9-136.4 37.5-67.9 51.5-152.3 37.1-223.1-8.2-39.8-25.9-79.6-49.8-111.5-9.4-12.7-32.4-35.5-46.9-46.6-34.1-26.1-80.5-47.9-134.8-63.2-35.2-10-68.2-15.1-110.2-17.2-22.3-1.1-23.7-1.1-48.1.1zM608.9 920.3c-3.5 3.4-21 20.2-38.9 37.2-44.6 42.5-92 89.5-92 91.2 0 .8 3.5 5.3 7.8 10 13.4 14.8 86.3 85.1 120.9 116.6 3.5 3.1 6.8 5.7 7.4 5.7 1.3 0 133.3-131 133.7-132.9.2-.7-25.4-27.2-57-59-31.6-31.7-61.2-61.5-65.8-66.4-4.6-4.8-8.7-8.7-9-8.7-.4 0-3.5 2.8-7.1 6.3z"/></svg>
