<svg xmlns="http://www.w3.org/2000/svg" viewBox="0 0 928 1024"><path d="M779.334 413.179c-92.015.003-166.871 74.86-166.871 166.868 0 46.14 19.092 90.052 52.62 121.566L456.477 959.228 247.868 701.613c33.526-31.514 52.623-75.426 52.623-121.566 0-92.008-74.86-166.868-166.874-166.868-53.282 0-102.405 25.09-133.617 66.917 11.25-196.135 148.084-364.39 337.268-415.322-30.247 30.932-47.659 72.771-47.659 116.693 0 44.576 17.359 86.48 48.876 117.997 31.515 31.515 73.419 48.874 117.992 48.87 44.571.003 86.475-17.355 117.992-48.87 31.517-31.517 48.876-73.421 48.876-117.997 0-43.923-17.417-85.762-47.662-116.693 189.187 50.932 326.016 219.187 337.268 415.322-31.208-41.83-80.331-66.917-133.617-66.917z"/></svg>