<svg xmlns="http://www.w3.org/2000/svg" viewBox="0 0 944 1024"><path d="M464.459 446.956l40.728 11.646c6.083 1.765 78.536 23.156 169.33 80.391 35.162-45.679 56.194-103.004 56.194-165.101 0-149.905-121.547-271.362-271.452-271.362-149.815 0-271.363 121.457-271.363 271.362 0 64.133 22.342 123.131 59.61 169.602 94.094-60.604 170.052-83.127 176.317-84.891l40.636-11.646zm26.141 62.617V900.99h438.409C782.813 593.061 490.6 509.573 490.6 509.573zm-52.191 0V900.99H0c146.196-307.929 438.409-391.417 438.409-391.417z"/></svg>