<svg id="Layer_1" data-name="Layer 1" xmlns="http://www.w3.org/2000/svg" viewBox="0 0 71.17 41.75"><title>GR5 ICON</title><path d="M45.2,0H26L14.47,22.83,32.89,41.75h5.39L56.7,22.83Zm3.41,24.21h0s-9.4,5.79-13,14.93a31.74,31.74,0,0,0-13.07-15L24,11l1.46,11h0a22.78,22.78,0,0,1,2.34-1.24h0L29.45,5.39,31.08,19.6l0,0a17.38,17.38,0,0,1,2.8-.5L35.58,2.58l1.75,16.54a18,18,0,0,1,2.76.51L41.71,5.45l1.63,15.37h0a21.19,21.19,0,0,1,2.35,1.29L47.14,11l1.47,13.19Z" transform="translate(0)"/><path d="M22.39,3H.54L8.31,10,0,25.68H5a4.3,4.3,0,0,1,2,.52L25.58,36.42,12.12,23.27Z" transform="translate(0)"/><path d="M62.85,10,70.62,3H48.78L59,23.27,45.58,36.42,64.11,26.21a4.3,4.3,0,0,1,2-.52h5Z" transform="translate(0)"/></svg>