<svg xmlns="http://www.w3.org/2000/svg" viewBox="0 0 832 1024"><path d="M827.838 59.999l-399.92 815.33c31.688 5.742 53.518 33.416 54.318 65.1 0 36.582-29.654 66.238-66.236 66.238s-66.236-29.656-66.236-66.238c.08-32.164 23.232-58.742 54.318-65.1L4.162 59.999h823.676zM293.26 121.645H124.748v31.794c14.6.144 23.61 2.462 28.97 6.748 3.184 2.548 6.966 9.646 8.306 13.398l253.704 525.734 259.398-533.34q8.762-14.018 32.126-12.54v-31.794H545.158v31.794h27.746q15.77 1.442 9.93 14.878 0 9.052-164.468 400.73L250.822 168.123c-.62-9.602 7.744-16.416 42.438-14.684v-31.794z"/></svg>