<svg xmlns="http://www.w3.org/2000/svg" viewBox="0 0 87 94"><path d="M40.667 10.843h-4.276L23.078 0 0 17.889c7.55 3.106 11.326 8.026 11.326 14.758 0 6.733-2.455 12.015-7.367 15.847 6.506 20.268 19.06 35.39 37.662 45.364C61.287 83.992 73.387 68.35 77.919 46.93c-7.433 6.949-14.696 12.365-21.79 16.249 5.257-7.9 12.166-17.648 20.727-29.247 0-7.839 3.361-13.186 10.083-16.042L73.555 8.91c0 6.904-1.387 12.561-4.162 16.971-2.029 2.03-5.71 6.82-11.042 14.367-5.333 7.548-17.93 15.828-37.794 24.838 8.515-7.452 15.536-13.826 21.064-19.12 5.528-5.295 9.527-10.183 11.997-14.665 4.123-6.817 8.89-12.608 14.302-17.376 2.203-1.861 3.305-4.078 3.305-6.648L62.267 0l-8.649 10.843h-2.669c-6.134 8.655-14.324 20.682-27.871 28.904 7.458-9.361 13.322-18.996 17.59-28.904Z" fill="#000" fill-rule="nonzero"/></svg>
