<svg xmlns="http://www.w3.org/2000/svg" viewBox="0 0 1024 1024"><path d="M489.802 139.771c14.274-34.854 43.264-60.164 72.82-82.038-5.418 16.174-12.332 32.588-11.24 50.056 1.294 20.58 7.642 40.594 16.738 59.032 5.62 12.048 12.616 25.23 8.694 38.936-7.966 31.982-36.43 51.956-59.922 72.496-4.608 2.668-9.218 5.256-13.828 7.884-1.94 1.132-5.902 3.356-7.844 4.488 11.604-20.944 4.69-45.122-1.82-66.512-9.258-26.806-14.878-57.252-3.598-84.342zm249.672 10.594c-40.796 13.14-67.926 47.548-96.958 76.822-12.574 13.424-24.056 27.858-37.52 40.392-10.15 10.108-19.934 20.54-29.638 31.012 2.71-.688 8.168-2.022 10.876-2.71 2.75-1.132 8.248-3.356 10.998-4.446 5.094-2.184 10.23-4.368 15.364-6.43 61.782-25.068 127.728-43.344 194.886-41.808 9.22-8.894 18.276-17.952 28.142-26.16 2.224-.16 6.712-.566 8.936-.768 13.14-.282 26.16 1.578 39.058 3.76l3.476-.524c8.856-12.13 19.732-22.886 33.438-29.314a453.195 453.195 0 0 1-12.736 17.588c16.456-8.41 34.772-9.3 52.764-10.958 23.25-8.086 39.908-28.342 63.44-36.186-93.48-16.456-190.64-34.166-284.526-10.27zm-620.926 57.332c-9.258 2.548-18.84 3.316-28.382 4.004-13.344 3.234-26.322 7.844-39.422 11.888-12.818 4.204-25.352 9.218-37.724 14.636-3.64 1.576-7.318 3.194-10.998 4.77l-2.022.89c3.154.446 9.42 1.254 12.534 1.698 9.42 1.416 19.044 2.75 27.778 6.752 10.108 5.216 18.558 13.344 29.232 17.386 15.042-.16 30.082-4.69 45.082-1.738 13.506 3.356 25.554 10.958 39.1 14.272 20.014-9.946 45.93-12.492 62.346 5.338 15.688 10.432 34.53 1.982 51.754 2.102 58.992-2.466 117.942 7.522 174.792 22.724 6.752 1.658 13.626 2.91 20.498 4.044-39.664-31.822-80.38-62.348-120.044-94.168-25.634-20.944-58.91-29.8-91.54-31.174-44.84-1.9-89.68 5.296-132.984 16.576zm507.108 93.198a216.79 216.79 0 0 0-11.2 5.014c-5.418 2.668-10.754 5.458-16.132 8.128a2828.031 2828.031 0 0 0-11.524 5.66c7.884 1.9 16.012 2.022 24.098 2.022 53.008-2.468 106.946 5.902 155.748 27.008 19.65 8.774 41.524 8.896 62.59 10.352 6.63 10.188 12.494 20.862 18.396 31.536 13.06 11.282 31.66 10.028 47.832 11.402.202 2.266.566 6.794.768 9.058 6.672 8.936 12.332 18.68 19.934 26.888 16.012 9.3 36.592 9.096 50.824 21.792 13.868 12.09 27.534 24.422 42.212 35.582-4.528-33.68-13.91-66.472-23.33-99.06-10.634-33.034-21.956-66.836-42.9-94.936-15.768-21.228-43.262-27.656-68.048-30.932-84.14-9.258-168.888 5.984-249.268 30.486zm-138.602 14.556c-.244 1.78-.77 5.338-1.012 7.116 5.862 14.556 10.068 29.638 14.272 44.678.89 1.74 2.63 5.216 3.478 6.956 20.014-.93 40.028.202 60.002-.566-3.72-19.894-9.056-39.464-14.92-58.79-15.324-6.55-32.102-7.642-48.56-6.428-4.446 2.344-8.854 4.69-13.26 7.034zm-334.502 17.224c-13.666 5.62-27.21 12.13-38.492 21.794-12.492 11.604-19.246 27.858-24.986 43.586-17.71 51.634-21.714 106.46-27.494 160.356l-.324 10.028 1.738 3.436c5.054-1.698 10.068-3.476 15.202-4.932 4.084-6.47 8.37-12.818 13.222-18.76 5.458-7.562 10.512-15.446 16.174-22.886 9.42-14.192 27.17-17.75 41.848-24.138 2.588-12.818 5.984-25.472 9.662-38.048 5.054-1.414 10.11-2.79 15.164-4.164 10.956-2.992 21.954-5.944 32.508-10.188 7.156-14.556 8.934-38.25 29.232-39.626 16.254-3.476 32.346-7.842 47.428-14.96 1.86-.808 5.58-2.506 7.44-3.356 42.818-28.342 94.532-42.898 145.598-45.082 7.238-1.496 14.354-3.558 21.51-5.538-69.746-24.624-145.356-27.414-218.498-22.078-29.436 1.7-58.184 8.41-86.932 14.556zm434.006 13.99c5.458 4.73 10.916 9.502 16.376 14.314 39.422 32.67 64.166 79.37 82.806 126.272 2.466 2.668 5.296 4.972 8.45 6.914 9.826 4.73 21.186 7.276 29.232 14.96 7.036 9.38 10.15 20.984 14.96 31.536.81.688 2.386 2.062 3.196 2.75 13.948 2.75 28.1 4.044 42.21 5.822 3.72 10.19 7.198 20.5 11.362 30.528.89 1.05 2.628 3.152 3.478 4.204 14.516 2.588 30.486.93 43.546 8.976 13.99 8.046 27.13 17.508 41.2 25.432.364-1.132 1.132-3.356 1.496-4.448-1.778-.444-5.296-1.334-7.076-1.778-7.156-30.406-19.084-59.476-31.254-88.184-19.164-43.222-41.322-85.92-72.616-121.702-25.474-29.92-64.45-43.142-101.77-50.704-27.212-5.74-55.15-5.862-82.846-5.942l-2.75 1.05zm-212.03 34.934c-19.366 7.318-36.834 18.72-55.676 27.252-22.318 15.85-38.936 38.128-51.47 62.226-32.144 61.418-49.49 129.466-59.436 197.756-.122 1.052-.284 3.236-.364 4.286l3.436-.162 4.004-2.182c8.45-13.464 19.002-25.352 29.678-37.038 13.18.324 26.482-.16 39.218-4.002a498.235 498.235 0 0 0 5.298-4.61c.728-10.472 2.466-20.822 4.65-31.092 5.256-1.374 10.552-2.75 15.808-4.206 9.26-2.708 18.398-5.862 27.334-9.542 2.506-12.008 5.458-23.936 8.612-35.782 5.458-3.316 10.916-6.632 16.456-9.826 5.822-3.356 11.766-6.508 17.79-9.542 13.382-58.384 37.36-116.042 79.814-159.386-28.99 1.538-56.888 9.906-85.152 15.85zm126.92 13.464c-.568 1.254-1.7 3.72-2.306 4.934.97 1.656 2.912 4.932 3.882 6.59 15.81 22.602 23.45 49.53 30.77 75.77 21.51-.162 43.06.93 64.53-.404-1.374-31.174-9.624-62.67-23.612-90.286-24.462.122-48.762 4.286-73.264 3.396zm23.208 107.066c0 1.052.08 3.114.08 4.164 13.14 30.528 18.114 63.844 18.922 96.838 25.312 5.62 50.016 13.868 75.65 18.114 9.34-38.776 1.9-79.25-8.37-117.054-28.222-1.496-56.484-2.344-84.624-4.932l-1.012.444-.646 2.426zm1.092 117.538a114.568 114.568 0 0 0-.608 9.138c2.508 39.664 2.628 80.622-10.714 118.59 28.748 10.472 58.102 19.164 86.526 30.446l.202-.406c17.144-40.836 23.128-85.11 23.734-129.1-32.548-10.634-65.744-19.246-98.17-30.326-.244.404-.728 1.254-.97 1.658zm-35.136 147.256c-1.214 3.922-2.266 7.884-3.316 11.848-.04 23.652-8.976 45.85-18.356 67.158-9.18 19.812-18.316 39.908-32.104 57.05-2.062 4.974-4.166 9.988-6.228 15.042.85 1.092 2.508 3.274 3.316 4.406 28.304 20.702 54.342 44.274 82.484 65.178 3.436 2.386 7.398 5.62 11.806 3.598 40.756-53.492 73.384-114.504 85.272-181.26-39.502-16.01-80.946-26.928-119.722-44.718-.808.446-2.344 1.294-3.152 1.698z"/></svg>
