<svg xmlns="http://www.w3.org/2000/svg" version="1.0" viewBox="0 0 900 900"><path d="M443.2 18.7c-12.7 30-26 72.4-37.8 119.8-3.1 12.6-6 23.4-6.5 23.9-1.1 1.2-29.5-1-43.8-3.4-32.9-5.6-68.2-17.3-97.4-32.2-5.4-2.8-9.9-4.9-10.1-4.7-.2.2-29.4 37-64.9 81.6-35.6 44.7-64.8 81.7-64.9 82.2-.2.5 3.9 3.7 9.1 7.1 62.6 41.2 106.7 96.9 122.7 154.9 4.3 15.7 4.3 17.2-.1 5.1-8.6-23.8-24-49.8-41.7-70.5-8.9-10.4-23.9-25.3-31.9-31.5l-3.5-2.9-23.7 17.7c-13 9.7-23.6 17.9-23.7 18.2 0 .3 3.7 2.3 8.2 4.5 52.9 25.9 95.8 82 122 159.5 5.2 15.5 11.5 37.5 14.3 50.5 1 4.4 1.9 8.1 2 8.3.1.1 11.6-6.2 25.6-14.1l25.4-14.3-.3-8.5c-.2-4.6-1-15.4-1.8-23.9-8.6-90.8-37.1-168.4-83.5-227.1-10.5-13.4-31.3-34-40.7-40.4-4-2.7-7.1-5.4-6.8-6 .4-1.2 59.1-81.2 61-83.3 1-1 3-.4 10.1 2.9 22.5 10.4 48.7 19.5 72.7 25.4 15 3.7 38.1 7.5 45.8 7.5 7.3 0 7.4.2 5.2 12.4-1.1 5.9-2.1 10.8-2.3 11-.7.7-20.5-1.4-31.9-3.5-25-4.3-52-12.2-78.4-22.8-7.1-2.8-13-5-13.1-4.9-.1.2-8.6 11.6-18.8 25.5l-18.5 25.1 13.2 13.4c14.8 14.8 25.9 28.4 37.6 45.7 39.9 59.6 64.7 136 72.1 221.6.6 7.7 1.3 14.2 1.5 14.4.7.8 29.7-15.2 65.9-36.2 20.9-12.2 38.6-22.1 39.5-22.1.8 0 18.7 10 39.8 22.2 36.4 21.2 64.9 36.9 65.6 36.1.2-.2.9-6.7 1.5-14.4 6.4-74.2 26.5-143.4 57.6-198 15.4-27.2 31.7-48.9 52.1-69.3l13.2-13.4-18.5-25.1c-10.2-13.9-18.7-25.3-18.8-25.5-.1-.1-6 2.1-13.1 4.9-34.1 13.6-70.9 23.1-99.9 25.8-5.5.5-10.2.7-10.4.5-.4-.3-4-19-4.1-21.1 0-.7 2.3-1.4 5.8-1.8 40.1-4.4 78.8-15 116.7-32.1 9.4-4.3 12.2-5.1 13.1-4.1 1.9 1.9 60.6 82 61 83.2.3.6-2.8 3.4-6.8 6.2-9.7 6.7-22.2 18.5-32.7 30.8-47.6 55.4-78.5 131.1-89.6 219-2.9 22.9-4.8 48.6-3.6 49.8 1 1 50.4 28.8 50.6 28.5 0-.2 2-8.2 4.4-17.8 24.1-98.5 70.8-168.6 133.4-200.3l8.9-4.5-3.9-3c-2.1-1.7-12.8-9.8-23.7-18.1l-20-15-3.5 2.9c-8 6.2-23 21.1-31.9 31.5-17.5 20.5-33.3 47.1-41.7 70.5-4.4 12.2-4.4 10.6-.1-5.1 5.9-21.3 16.2-43.7 29.4-63.9 20.9-32 54.2-64.8 90.2-88.9 6.9-4.6 12.4-8.8 12.2-9.3-.1-.6-115.8-146.4-129.8-163.7-.2-.2-4.7 1.9-10.1 4.7-39.6 20.3-86.9 33.4-125.8 34.9l-16.1.6-4.8-19.9c-6.7-27.6-18.2-67.4-25.8-89.4-6.6-18.9-19.7-51-20.9-51-.3 0-3.8 7.5-7.7 16.7zm10 53.5c14.9 50.4 20.4 71.5 29.2 111.3 15.9 72 28.1 150.6 36.6 236 4.8 48.1 8.9 105.5 7.6 105.5-.5 0-65.9-37.9-66.2-38.3 0-.1-2-33.5-4.4-74.2-2.4-40.7-4.6-74.3-4.9-74.7-.4-.4-2.6 32.6-5 73.5-3.7 63-4.6 74.4-6 75.8-2.6 2.5-64.2 38.1-64.9 37.4-.3-.3.2-12.2 1.2-26.3 10.8-155.4 34.2-298 67.3-409C447.3 77 450.6 67 451 67c.4 0 1.4 2.4 2.2 5.2z"/><path d="M392.5 561.8c-24.2 14.1-45.1 26.5-46.4 27.4l-2.4 1.7 5 8.3c22.3 36.5 37.1 73.5 41.8 104.3.8 5.5 1.5 10.3 1.5 10.7 0 .5 26.6.8 59 .8 32.5 0 59-.3 59-.8 0-3.8 3.6-22.9 6-31.7 6.8-25.5 17.6-50 35.3-79.8l7-11.8-2.4-1.7c-2.7-1.9-88.7-52.1-90.6-52.9-1-.4-1.3 4.8-1.3 23.9v24.4l3.8 1.3c21.7 7.8 34.4 34.3 27.3 57-6.4 20.6-27.8 35-48.5 32.6-32.9-3.7-51.5-38.5-36.3-68 4.9-9.5 14.5-18.2 24-21.6l3.7-1.3v-24.3c0-13.4-.3-24.3-.7-24.2-.5 0-20.6 11.6-44.8 25.7zM297 616.6c-16.2 9.1-35.4 19.9-42.6 24l-13.2 7.4 7.6 23.2c4.1 12.8 7.6 23.5 7.8 23.7.2.2 4.4-1.3 9.4-3.4l9-3.8v-23.4l15.3-7.1c8.3-3.9 16.4-7.6 17.8-8.2 2.5-1.2 3-.8 11.3 7.8l8.7 9 13.9-5.6c7.7-3.2 14-6.2 14-6.8 0-3.5-27.1-53.4-29-53.4-.3 0-13.8 7.5-30 16.6zM567.6 611.2c-7.1 11.9-21.6 40.1-21.6 42.1 0 .7 6.2 3.8 13.8 6.9l13.7 5.7 9-9c8.4-8.5 9.1-9 11.5-7.9 1.4.7 9.4 4.3 17.8 8.2l15.2 7.1v23.5l8.6 3.6c4.7 2 8.9 3.6 9.3 3.6.8 0 15.5-45.5 15.2-46.7-.2-.7-84-48.2-85.1-48.3-.3 0-3.6 5.1-7.4 11.2z"/><path d="M442.9 602.3c-11.4 4.3-18.2 12.6-19.5 24-1.9 16.2 11 30.7 27.6 30.7 8.5 0 15.1-3.1 20.8-9.5 15.3-17.4 3.9-44.7-19.3-46.2-3.5-.2-7.5.2-9.6 1zM300.3 672.9l-6.2 3-.3 12.2-.3 12.1-5.3 2.2-5.4 2.1.6 6c.3 3.3.8 12.6 1.2 20.6l.6 14.6 13.7.7c41.9 2.2 75.4 10.9 101.9 26.5l5.2 3.1v-42H374.3l-.6-12.8c-.4-7-1.6-17-2.7-22.2-2.7-12.9-7.1-27-8.4-27-.6 0-9.6 3.6-20.1 8l-19 7.9-8.5-9-8.5-9-6.2 3zM586.8 679l-8.3 8.9-18-7.5c-9.9-4.1-19-7.7-20.1-8-1.9-.5-2.4.2-4.3 6.4-5.2 17.3-8.1 34.3-8.1 47.9v7.3h-32v42.2l5.3-3.2c26-15.6 59.6-24.4 101.8-26.6l13.6-.7.7-13.6c.3-7.5.9-16.8 1.2-20.7l.6-7.1-5.3-2-5.4-2v-23.8l-3.5-1.9c-1.9-1.1-4.9-2.5-6.7-3.2l-3.2-1.4-8.3 9zM424.2 743.2l.3 9.3h53l.3-9.3.3-9.2h-54.2l.3 9.2zM424.4 764.3c-.3.8-.4 5.2-.2 9.8l.3 8.4 26.8.3 26.8.2-.3-9.7-.3-9.8-26.3-.3c-21.3-.2-26.3 0-26.8 1.1zM424 803v9h54v-18h-54v9zM421.5 832.2c-1.8 5.2-7.4 23.6-7.7 25.1-.2 1.5 3.3 3.4 18.4 10.2l18.8 8.4 18.2-8.1c10.1-4.4 18.6-8.3 19-8.7.4-.4-1.2-6.7-3.7-14.1l-4.4-13.5-29.1-.3c-22.7-.2-29.1 0-29.5 1z"/></svg>
