<svg xmlns="http://www.w3.org/2000/svg" version="1.0" viewBox="0 0 900 900"><path d="M65.4 126.5c4.2 6.5 21.5 30.8 31.5 44 86.4 115.1 206.9 241.6 347.9 365.2 27.3 23.8 33.1 28.8 33.6 28.2.2-.3 11.2-86 11.9-93.5.2-1.6-16.9-16.9-77.3-69.4-42.6-37-78.8-68.6-80.5-70.3-1.6-1.6 3.3 1.3 11 6.5 121.1 82.1 162.9 109.9 164.3 109.5 1.8-.5 85.1-35.6 86.5-36.4 1-.6-2.7-3.2-36.3-25.8C387.9 270.6 215.5 178.7 80 129.7c-6.9-2.5-13.4-4.9-14.5-5.3-2-.8-2-.8-.1 2.1zM735.5 378.3c-47.5 21-55 24.6-54.7 26.3 1.5 8.2 27.8 66.4 30.1 66.4.9 0 29.5-16.4 31.3-17.9.3-.3-.4-7.4-1.7-15.6-1.3-8.3-2.1-15.3-1.7-15.7.4-.4 10.4-5.9 22.1-12.2l21.3-11.5 10.1 8.5c5.6 4.7 10.7 8.8 11.3 9 1.4.6 20.8-10.8 20.6-12.1-.1-.8-33.3-49.6-33.6-49.5-.1 0-24.8 11-55.1 24.3z"/><path d="M596.5 438.1c-33.5 14.2-61.4 26-61.8 26.1-.9.4 44 35.1 45.9 35.6.6.2 3.3-1.1 6-2.7 27.6-16.9 66.1-5.1 80.4 24.5 6.5 13.5 7.7 31.6 3 45.1-5.8 16.6-20 30.6-36.6 36.2-31 10.4-65.6-8.5-73.9-40.5-1.9-7.5-1.9-22 .1-29.7 1.3-4.9 1.3-6.2.2-7.2-3.3-3-45-34.7-45.3-34.4-.3.4-17.3 133.2-17.1 133.5.1.1 7.1.9 15.6 1.8 52.9 5.7 101.7 19.8 133.5 38.5 4.8 2.8 8.9 5 9 4.9.1-.2 19.9-26.3 43.9-58.2l43.6-57.8-10.2-10.7c-21-21.6-40.3-51.4-56.8-87.1-6.9-14.8-15.3-35.4-16.5-40.3-.4-1.5-1-2.9-1.4-3.1-.3-.1-28 11.3-61.6 25.5zM718.1 626.5c-10.5 14-19.1 25.7-19.1 25.9 0 .7 15.8 12.6 16.8 12.6 1.6 0 39.7-51.1 38.6-51.8-.5-.4-4.4-3.3-8.5-6.5-4.2-3.1-7.8-5.7-8.1-5.7-.3 0-9.2 11.5-19.7 25.5zM747.2 648.4C736.6 662.3 728 674 728 674.3c0 .3 3.9 3.6 8.6 7.3 8.4 6.5 8.6 6.6 10.4 4.8 1-1 9.9-12.7 19.8-25.8l18-24-8.8-6.8c-4.9-3.7-9-6.8-9.3-6.8-.2 0-9 11.4-19.5 25.4zM777 670.6c-10.2 13.6-18.8 25.1-19.2 25.8-.8 1.4 15.6 14.1 17.1 13.2 1.2-.8 37-48.1 37.7-49.9.5-1.3-14.3-13.7-16.3-13.7-.4 0-9.1 11.1-19.3 24.6zM493.7 652.1c-1.5 8.5-16.8 117.1-16.5 117.4.2.1 12.8 4.6 28.1 10 22 7.7 28.1 9.5 28.7 8.5.9-1.5 6.2-22.1 5.8-22.5-.2-.1-5-3.5-10.8-7.5-5.8-4.1-10.9-7.7-11.3-8.1-.8-.6 8.8-46.5 10.2-48.8.4-.6 7.2-1.8 15.1-2.7 8-.9 14.8-2 15.2-2.3.9-.8 10.1-35.2 9.6-35.7-1.8-1.7-47.6-9.3-65.9-10.9l-7.6-.7-.6 3.3zM813.5 698.7C802 714 792.6 727.1 792.6 728c0 1.2 4.6 8.2 18.9 28.8.2.2 43.5-23.5 44.4-24.4.9-.8 11.8-49 11.2-49.6-.5-.6-31.3-11.8-32.3-11.8-.1 0-9.7 12.5-21.3 27.7z"/></svg>
