<svg xmlns="http://www.w3.org/2000/svg" viewBox="0 0 872 1024"><path d="M155.885 235.745c54.284-34.683 118.564-52.927 182.9-53.04.565 48.408 20.11 97.833 58.858 128.222 5.253 5.535 15.534 8.868 14.292 18.188-.056 136.187.507 272.428-.34 408.672-46.713 29.655-72.697 84.671-72.866 139.237-91.281-.227-182.052-37.902-245.316-104.047C45.91 725.19 14.164 663.057.552 597.252c18.753 26.153 47.674 45.245 79.758 49.763 48.068 8.134 99.188-18.075 121.33-61.343 18.132-33.101 18.697-74.899 1.807-108.621-19.714-41.46-65.466-68.855-111.445-65.806-36.49 1.468-70.663 21.521-91.619 51.12 18.753-92.298 75.182-176.8 155.503-226.62zm377.324-53.096c95.234-.283 189.565 41.404 253.28 112.179 43.438 46.769 71.963 106.192 85.236 168.383-18.132-26.774-47.503-45.979-79.587-50.668-37.224-6.383-76.82 7.287-102.69 34.625-32.254 32.819-42.308 85.125-24.289 127.488 16.889 44.059 62.756 74.844 109.978 73.883 38.014 0 74.278-20.391 96.195-51.12-18.64 92.636-75.803 176.969-156.182 226.959-54.001 34.456-117.885 52.079-181.827 52.813-.34-54.622-26.209-109.694-73.093-139.349-.169-138.784-.847-277.569.34-416.353 46.432-29.768 72.414-84.39 72.641-138.841z"/></svg>