<svg xmlns="http://www.w3.org/2000/svg" viewBox="0 0 881 1024"><path d="M677.1 685.261c98.679 77.005 131.623 79.848 201.735 82.335-42.103 40.351-103.004 97.215-161.64 151.101l-555.302-.444L.099 765.552c83.101-4.547 89.486 5.226 197.598-80.292H677.1zm-.562-67.439c23.018-37.49 77.431-82.54 160.891-88.583-8.361-151.119-70.69-242.255-123.571-293.024-52.115-50.021-119.093-83.818-186.105-95.072 19.086 22.798 46.565 58.687 46.565 107.942 0 76.479-59.573 136.409-135.642 136.409-76.819 0-135.13-58.534-135.625-136.17-.323-49.442 24.433-84.77 43.773-107.295-74.996 11.747-143.831 49.085-197.647 108.027-34.307 37.559-61.191 82.471-79.884 133.497-16.582 45.201-26.407 94.423-29.351 146.708 49.067 4.171 128.389 21.502 158.063 87.834l478.536-.273z"/></svg>