<svg xmlns="http://www.w3.org/2000/svg" viewBox="0 0 853 1024"><path d="M680.602 678.272c63.21 0 89.052-24.32 89.847-51.936 1.251-36.936-42.093-78.665-100.144-78.665-91.711 0-158.49 108.418-158.49 108.418 35.345 13.478 103.781 22.183 123.329 22.183h45.457zm-462.488 0c19.637 0 88.074-8.706 123.327-22.183 0 0-66.778-108.418-158.49-108.418-57.958 0-101.303 41.73-100.144 78.665.886 27.616 26.639 51.936 89.847 51.936h45.459zm201.627-556.223c-299.544 0-409.37 166.467-409.37 166.467s33.275 76.529 156.419 83.188c0 0 99.895-99.893 256.338-99.893h3.545c156.443 0 256.314 99.893 256.314 99.893 123.056-6.659 156.353-83.188 156.353-83.188S729.514 122.049 429.969 122.049h-10.228zm10.479 352.82c352.843 0 419.417-83.188 419.417-83.188s39.866 475.967-176.399 549.222c0 0-69.891 23.252-109.826-46.616-39.958-69.869-93.235-166.468-136.465-166.468h-.546c-43.23 0-96.507 96.599-136.463 166.468-39.936 69.868-109.827 46.616-109.827 46.616C-36.245 867.648 3.712 391.681 3.712 391.681s66.574 83.188 419.418 83.188h7.091z"/></svg>