<svg xmlns="http://www.w3.org/2000/svg" viewBox="0 0 200 192"><path fill="#000" fill-rule="evenodd" d="M74 163c1.333-7.333 5.167-13.667 11.5-19v-30H81l-2.5-12.5h7V93c-5.333-6.667-6.333-14.167-3-22.5C86.167 62.833 92 59 100 59l.42.004c7.784.132 13.478 3.964 17.08 11.496 3.333 8.333 2.333 15.833-3 22.5v8.5h7L119 114h-4.5v30c6.333 5.333 10.167 11.667 11.5 19-11.333 6.667-20 16.167-26 28.5-6-12.333-14.667-21.833-26-28.5ZM97.5.5V53c-14.667 4-22 13.667-22 29-5.333-4.333-8-12.167-8-23.5-3.667 12.667-1.667 25 6 37-30.333 18-49.667 43.833-58 77.5-12-18.333-16.667-45.5-14-81.5 5.333 15 12.167 25.667 20.5 32C25 67.833 50.167 26.833 97.5.5Zm5 0c47.333 26.333 72.5 67.333 75.5 123 8.333-6.333 15.167-17 20.5-32 2.667 36-2 63.167-14 81.5-8.333-33.667-27.667-59.5-58-77.5 7.667-12 9.667-24.333 6-37 0 11.333-2.667 19.167-8 23.5 0-15.333-7.333-25-22-29ZM48 124c11 3.667 18.667 11.5 23 23.5a26.567 26.567 0 0 0-4.5 11c-10.667-8-21.5-12.667-32.5-14 3.333-7.333 8-14.167 14-20.5Zm104 0c6 6.333 10.667 13.167 14 20.5-11 1.333-21.833 6-32.5 14-.667-4-2.167-7.667-4.5-11 4.333-12 12-19.833 23-23.5Zm-78.5-21.5 2.5 13V140c-1.333 1.333-2.333 2.5-3 3.5-4.333-11-11.5-18.833-21.5-23.5 6-6.667 13.333-12.5 22-17.5Zm53 0c8.667 5 16 10.833 22 17.5-10 4.667-17.167 12.5-21.5 23.5-.667-1-1.667-2.167-3-3.5v-24.5ZM35 15c7.667 4 15.667 6.667 24 8-18.667 17-31 38.333-37 64-4.333-20-11-34.667-20-44l33-28Zm130 0 33 28c-9 9.333-15.667 24-20 44-6-25.667-18.333-47-37-64 8.333-1.333 16.333-4 24-8Z"/></svg>
