<svg xmlns="http://www.w3.org/2000/svg" viewBox="0 0 917 1024"><path d="M696.622 778.037c0 44.332-15.002 88.4-42.004 123.756-25.875 33.746-62.549 58.972-103.233 71.262-43.686 13.129-91.424 10.778-133.789-6.001-39.677-15.77-73.807-44.259-96.681-80.263-24.554-38.811-35.164-85.593-30.194-131.173 4.704-43.324 23.641-84.296 53.26-116.171 30.099-32.522 70.519-54.269 114.108-61.972 43.61-7.586 88.88-.65 128.171 19.705 66.942 34.492 110.363 105.37 110.363 180.857zm56.62-11.353c0-60.846-21.386-119.82-60.389-166.6 28.129-11.066 54.388-27.291 77.071-48.198 26.834-24.673 48.771-55.685 56.549-90.487 5.064-22.035 4.296-45.556 0-67.782 17.162 12.648 33.266 27.843 45.268 45.196 28.131 41.068 37.612 102.753 38.356 155.078.84 55.325-7.584 101.169-27.098 150.205-23.426 59.071-69.27 111.179-124.307 146.918-17.737 11.522-36.483 21.267-55.806 29.524 32.739-44.621 50.357-98.529 50.357-153.854zm-90.103-196.891c-59.622-51.557-139.43-73.231-216.957-59.069a243.389 243.389 0 0 1-11.162-3.096c-51.292-15.746-99.202-51.75-118.979-102.946-.84-2.161-1.681-4.32-2.352-6.552 1.319-1.514 2.736-3 4.031-4.512 22.707-24.387 49.422-45.844 79.136-56.527 31.874-11.448 67.133-10.513 101.842-22.61 29.329-10.296 58.204-29.906 67.782-56.525 8.713-24.098 1.488-53.813-11.353-79.135-21.746-43.133-59.622-73.327-101.722-90.489 41.165-6.168 85.495-3.744 124.404 11.353 40.132 15.555 74.455 44.621 101.745 79.136 23.523 29.81 41.909 63.749 45.196 101.721 3.169 36.579-7.799 76.879-33.963 101.722-17.618 16.8-42.172 26.545-56.429 45.292-15.746 20.642-18.842 52.325-11.353 79.135 7.033 24.94 23.258 45.749 43.228 62.07l-3.096 1.033zM386.08 529.469a260.6 260.6 0 0 0-102.562 82.784 261.496 261.496 0 0 0-48.771 122.46c-24.17-15.939-46.493-35.453-63.942-58.494-44.237-58.518-57.102-140.269-45.172-214.82 10.105-63.462 38.234-121.788 79.111-169.504 36.939-43.324 84.391-78.007 135.685-101.721-31.875 30.266-57.486 69.559-67.879 112.978-9.841 41.141-6.001 85.977 11.329 124.404 19.874 44.261 57.774 79.879 101.746 101.721.077.097.265.097.457.193zM233.068 778.781c2.256 48.845 18.289 96.009 46.133 136.236-2.256-.48-4.417-.937-6.649-1.321-43.972-9.001-87.296-21.842-124.332-45.293-35.811-22.586-65.814-55.037-90.487-90.368-24.363-35.067-43.588-72.943-56.527-113.073 20.907 27.745 48.005 51.364 79.136 67.782 24.554 13.032 51.652 21.553 79.135 22.586 11.522.48 23.067-.36 34.492-2.328a341.379 341.379 0 0 0 39.1 25.777z"/></svg>