<svg xmlns="http://www.w3.org/2000/svg" viewBox="0 0 968 1024"><path d="M380.178 709.004c-18.364-64.3 2.234-244.018-39.752-273.292-41.984-29.274-167.094-77.218-193.106-115.34C121.306 282.25 270.29 62.91 270.29 62.91S64.58 170.556 2.604 351.246c-22.716 63.498 186.85 119.602 214.938 131.158 28.09 11.554 74.996 101.682 52.748 266.662 0 78.246 104.084 150.66 166.952 187.262 27.2 15.838 46.686 24.97 46.686 24.97-.288 0 16.918-8.55 41.282-23.446 59.07-36.114 160.212-109.528 156.066-188.786-8.692-166.188 24.66-255.108 52.748-266.662 19.506-8.024 126.282-44.182 186.102-86.056 26.426-18.498 52.806-36.428 45.864-55.834C904.012 159.824 702.252 62.91 702.252 62.91S838.464 278.156 812.45 316.28c-26.014 38.122-157.174 86.4-199.158 115.674s-17.962 215.988-36.326 280.288c-11.736 41.088-46.462 67.478-70.006 81.176-13.3 7.74-23.032 11.428-23.032 11.428.324 0-8.864-3.434-21.98-10.348-26.634-14.036-69.466-42.414-81.77-85.494zm196.788-487.742c0-52.152-43.312-94.428-96.74-94.428-53.426 0-96.738 42.276-96.738 94.428s43.312 94.43 96.738 94.43c53.428 0 96.74-42.278 96.74-94.43z"/></svg>