<svg xmlns="http://www.w3.org/2000/svg" viewBox="0 0 864 1024"><path d="M286.578 363.764l-.006 1.666c-.654-.136-.202-.058-1.372-.118l1.378-1.548zm137.24-293.242c177.188.934 101.258.09 227.802 1.868 43.538.086 87.162 1.04 130.7 2.602 26.886.52 53.772 1.388 80.658 2.774-5.03 57.416-60.364 84.822-115.61 96.27 32.524 16.652 67.082 31.16 90.152 60.994 28.012 37.034 13.882 90.496-22.718 116.254-43.45 30.876-98.482 40.008-150.172 31.942-27.494-4.424-58.63-19.082-65.048-48.916-10.406-46.486 45.794-89.504 88.378-69.556 12.314 6.07 26.324 24.284 22.682 39.288-4.25 19.168-26.944 25.812-44.006 25.65-4.764-.044-5.478-7.366-2.352-11.53 3.15-4.198 14.168-5.322 15.06-8 3.252-9.758-4.698-17.544-11.94-20.256-7.592-2.844-23.288 1.286-28.988 7.928-8.302 9.68-4.814 30.112 5.346 38.084 28.986 22.742 77.656 13.25 98.214-26.058 7.858-15.022-1.242-40.72-14.03-50.776-32.33-25.426-80.168-32.118-118.258-21.382-29.536 8.326-59.888 36.506-62.922 70.502-9.108 77.016-6.748 146.352-6.748 231.996 0 75.944-6.738 155.614 15.55 229.334 8.154 30.008 26.322 62.608 54.788 72.826 24.756 8.886 59.858 7.514 84.184 1.336 34.15-8.674 42.646-16.716 59.02-39.046 11.822-16.12 14.12-35.702 8.206-60.894-9.466-40.31-77.562-48.528-102.774-16.912-7.324 9.184-12.534 32.476-2.362 40.762 11.304 9.208 39.01 8.142 46.908 1.294 6.02-5.22 7.274-21-1.942-25.88-2.916-1.544-13.056-1.716-7.634-9.848 5.822-8.734 27.102-8.672 34.414 6.682 10.024 21.054 5.056 40.778-11.9 54.278-28.016 22.312-81.196 27.174-104.812-2.264-32.33-40.302-19.254-114.992 30.762-136.142 45.03-19.04 91.918-16.838 133.928.474 54.18 22.33 91.69 97.264 83.476 164.244-8.394 68.446-68.298 102.99-133.346 121.42-46.784 13.256-106.232 17.956-151.336-1.036-43.656-18.382-64.896-33.762-81.2-66.544-20.99-43.104-22.322-93.196-24.592-140.294-6.64-137.754-8.886-274.79-13.742-412.428.52-19.082-7.204-44.8-26.176-44.258-23.398.67-28.55 42.956-26.122 66.894-1.214 149.78-1.316 296.468-16.652 448.908-4.382 43.548-15.708 91.332-52.914 118.738-68.516 52.124-161.308 48.17-239.19 19.376-36.08-18.646-67.844-42.05-82.848-81.512-35.818-88.81 25.652-197.284 122.268-205.782 40.156-.088 85.212-.792 111.578 34.074 23.502 33.564 27.144 86.918.172 119.182-23.572 23.724-63.644 22.604-88.898 3.744-18.138-13.546-31.632-34.766-25.234-59.2 3.56-13.586 29.792-17.212 37.85-6.47 4.852 6.47-6.65 6.084-11 11.646-4.246 5.432-3.276 11.282-.646 15.852 6.738 11.712 34.952 15.03 46.582 5.822 8.602-6.808 5.71-33.472-2.626-41.732-21.586-21.386-54.914-26.762-80.36-11.71-15.988 9.456-28.372 31.654-26.17 50.39 1.864 15.86 6.834 27.59 11.358 35.412 5.442 9.404 12.624 15.196 24.054 24.72 34.404 28.67 93.678 34.93 134.962 7.35 43.364-30.702 49.138-93.31 52.782-142.312 4.856-115.61 1.274-229.726.668-345.422 1.126-28.014-8.012-61.17-28.486-79.254-31.71-28.006-66.62-38.546-103.804-31.656-27.964 5.182-60.752 25.518-68.818 58.128-4.076 18.3 14.358 37.07 28.062 44.096 21.942 11.622 57.04 16.938 72.826-.668 7.756-8.65 10.446-31.528 4.676-40.088-5.39-7.998-27.61-10.768-34.074-4.008-5.07 5.302-5.154 27.496 10.564 25.87 4.09-.424 7.542 4.262 5.178 7.764-2.262 3.354-10.128 5.548-15.766 4.472-16.116-3.076-44.806-17.04-38.042-43.318 17.954-39.202 75.542-31.136 97.31.172 24.372 26.454 13.356 72.332-19.6 85.95-53.686 24.11-112.936 15.66-164.584-8.084-35.75-16.436-60.934-56.76-52.782-98.216 9.194-48.828 66.996-82.922 110.188-95.324-2.256-3.556-10.394-2.15-21.702-3.838-49.112-7.324-93.366-39.502-99.176-90.586 41.196-3.036 79.402-2.386 120.686-2.994 35.732-.78 71.464-1.56 107.282-1.388 39.636-1.04 79.272-1.648 118.906-1.04l75.922-.74z"/></svg>