<svg xmlns="http://www.w3.org/2000/svg" viewBox="0 0 1024 1024"><path d="M753.37 461.399l-76.575 216.837s14.459 14.461 38.991 15.869l18.828-53.451s182.071 15.867 215.359 41.88c0 0-23.142 47.746-53.524-10.092 0 0-47.674 66.504 1.481 105.494 49.154 39.066 114.159 20.236 125.73-4.296 0 0-47.747-2.888-59.3-27.511-11.5-24.532 1.48-34.678 11.552-37.583 10.163-2.889 44.86-8.593 44.86-37.584 0-28.829-62.206-77.984-245.685-147.376l17.347-46.249s-14.531-15.939-39.064-15.939zm-247.147 25.11s93.925 13.466 138.764 25.02l-59.226-57.315s-35.183 18.756-79.537 32.295zm-28.918 3.807C298.05 475.857 195.461 373.251 195.461 373.251c93.925 199.419 281.844 117.065 281.844 117.065zM.34 266.276s67.91 49.155 231.226 53.524l-24.55 27.438s164.794 138.764 381.561 63.597l127.21 95.403-40.472 112.698s-164.722 8.736-348.346-79.481C143.419 451.307 46.606 355.903.34 266.276z"/></svg>