<svg xmlns="http://www.w3.org/2000/svg" version="1.0" viewBox="0 0 1838 1560"><path d="M180 861.5V1436h1519l-.2-574.3-.3-574.2-759.2-.3L180 287zm752 0V1421H195V302h737zm752 0V1421H947V302h737z"/><path d="M286.7 424.7c-.4.3-.7 203.7-.7 452V1328h138v-286.2c0-157.4.2-285.9.5-285.7.4.5 17.7 96.8 76.5 427.4 13.8 77 25.2 141 25.5 142.3l.5 2.2h33.6c25.9 0 33.6-.3 33.9-1.2.2-.7 21.4-128.4 47-283.8 25.6-155.3 46.8-282.6 47-282.9.3-.2.5 127.4.5 283.7V1328h151V424H647.2l-1 4.7c-.5 2.7-21.2 110.4-45.8 239.5C575.7 797.4 555.3 903 555 903s-20.7-105.6-45.4-234.8c-24.6-129.1-45.3-236.8-45.8-239.5l-1-4.7h-87.7c-48.3 0-88.1.3-88.4.7M1038.7 424.7c-.4.3-.7 49.2-.7 108.5V641h297V424h-147.8c-81.3 0-148.2.3-148.5.7M1406.4 430.1c.3 3.4.6 126.1.6 272.5V969h185V424h-186.3zM1038 841v128h297V713h-297zM1038 1184.5V1328h554v-287h-554z"/></svg>
