<svg xmlns="http://www.w3.org/2000/svg" version="1.0" viewBox="0 0 1112 1600"><path d="M711 81.9c-6 2.7-509.5 238.2-528.6 247.3-2.2 1-5 9-3.3 9.6.5.2.9 217.2.9 568.8V1476h767l-.2-574.3-.3-574.2-22.2-.3-22.3-.2V225h-2.4c-1.9 0-61.7 8.7-72.3 10.5l-3.3.6V152l-2.7.6c-3.4.7-45.2 12-76.8 20.7l-23 6.4-.5-50.3c-.3-27.6-.7-50.5-1-50.7-.3-.3-4.3 1.2-9 3.2m-6.2 61.3-.3 41.2L492 243.2c-116.9 32.3-212.9 58.7-213.3 58.5-.8-.2 424.1-199.6 425.6-199.7.4 0 .6 18.5.5 41.2m103.7 94.6c-.2.3-50.1 7.8-110.7 16.8-60.7 8.9-174.8 25.7-253.6 37.4-78.9 11.6-143.8 21-144.4 20.8s113.7-32.1 253.8-70.8l254.9-70.5.3 32.9c.1 18.1 0 33.1-.3 33.4m78.5 46.7V327l-286.2-.1c-157.5-.1-285.2-.4-283.8-.6 3.6-.6 567.2-84.1 568.8-84.2.9-.1 1.2 9 1.2 42.4m-589.3 29.1c-.3.3-1.2.4-1.9.1-.8-.3-.5-.6.6-.6 1.1-.1 1.7.2 1.3.5M932 901.5V1461H195V344.1l4.8-.6c2.6-.3 5.4-.8 6.2-.9.8-.2 164.5-.4 363.8-.5L932 342z"/><path d="M286.7 464.7c-.4.3-.7 203.7-.7 452V1368h138v-286.2c0-157.4.2-285.9.5-285.7.4.5 17.7 96.8 76.5 427.4 13.8 77 25.2 141 25.5 142.3l.5 2.2h33.6c25.9 0 33.6-.3 33.9-1.2.2-.7 21.4-128.4 47-283.8 25.6-155.3 46.8-282.6 47-282.9.3-.2.5 127.4.5 283.7V1368h151V464H647.2l-1 4.7c-.5 2.7-21.2 110.4-45.8 239.5C575.7 837.4 555.3 943 555 943s-20.7-105.6-45.4-234.8c-24.6-129.1-45.3-236.8-45.8-239.5l-1-4.7h-87.7c-48.3 0-88.1.3-88.4.7"/></svg>
