<svg viewBox="0 0 29 23" xmlns="http://www.w3.org/2000/svg"><path d="M27.304.24l.002.053c.058 1.743-.32 3.162-1.138 4.257-1.015.074-1.784.487-2.307 1.238 1.312-.886 2.744-1.077 4.296-.573-.527 1.475-1.12 2.559-1.782 3.25-1.042-.348-1.855-.239-2.44.33.951-.299 1.943-.2 2.976.298-.673 1.31-1.751 2.237-3.235 2.783.905.172 1.62.662 2.147 1.47-1.146.722-2.417 1.09-3.814 1.103.678.703 1.141 1.264 1.388 1.682-1.113.18-2.165.106-3.157-.223.287.46.477.903.57 1.329-.99-.093-1.796-.379-2.418-.856.014.555-.085 1.053-.298 1.494a4.761 4.761 0 01-1.751-1.848l-.2.783.038.034c1.242 1.128 2.095 2.38 2.558 3.754-.695.128-1.346.085-1.954-.13.216.695.202 1.317-.041 1.868-.688-.284-1.203-.657-1.544-1.118.05.249.068.518.054.807-.021.433-.538.893-1.097.893-.558 0-1.075-.46-1.096-.893a3.312 3.312 0 01.053-.807c-.34.461-.855.834-1.543 1.118-.243-.55-.257-1.173-.04-1.868-.61.215-1.26.258-1.955.13.468-1.389 1.333-2.651 2.596-3.788l-.2-.783a4.761 4.761 0 01-1.75 1.848c-.214-.44-.313-.939-.3-1.494-.62.477-1.427.763-2.417.856.093-.426.283-.87.57-1.329-.992.33-2.044.404-3.157.223.247-.418.71-.979 1.388-1.682-1.397-.013-2.668-.38-3.814-1.102.527-.809 1.242-1.3 2.147-1.471-1.484-.546-2.562-1.474-3.236-2.783 1.033-.497 2.026-.597 2.977-.298-.585-.569-1.399-.678-2.44-.33C1.28 7.775.684 6.69.157 5.216c1.553-.504 2.985-.313 4.297.573-.523-.75-1.292-1.164-2.308-1.238C1.321 3.444.943 2.007 1.011.24l1.492.305c2.01.725 5.742 4.675 6.398 5.308.437.422.834.618 1.191.587l-.516.688.219 2.907c.635 1.656 1.864 2.473 2.274 2.816a7.684 7.684 0 01-1.022-1.77l.642-1.422c.163-.346.169-.68.016-1a5.286 5.286 0 012.452-1.15l.028.005c.91.175 1.719.557 2.424 1.145-.152.32-.146.654.017 1l.642 1.422-.011.028a7.709 7.709 0 01-1.012 1.742c.41-.343 1.64-1.16 2.275-2.816l.219-2.907-.516-.688.01.001c.354.026.748-.17 1.181-.588.656-.633 4.388-4.583 6.398-5.308L27.304.24zm-13.12 10.427h-.027l-.441.912h-.333l.774 2.248h.027l.774-2.248h-.333l-.441-.912zm-6.52-3.595c-.112.03-.292.21-.537.538-.07.697-.073 1.465-.005 2.305-.152.014-.398-.03-.738-.134.415.236.716.497.902.785.665 1.083 1.138 1.796 1.42 2.14.282.343.626.48 1.032.414-.959-1-1.65-2.034-2.073-3.105-.115-.864-.115-1.845 0-2.943zm13.012 0c.115 1.098.115 2.08 0 2.943-.423 1.07-1.114 2.106-2.072 3.105.405.067.75-.071 1.031-.415.282-.343.756-1.056 1.42-2.14.187-.287.487-.548.902-.784-.34.103-.586.148-.737.134.067-.84.065-1.608-.005-2.305-.246-.328-.426-.507-.539-.538z" fill="#000" fill-rule="nonzero"/></svg>
