<svg xmlns="http://www.w3.org/2000/svg" viewBox="0 0 235 142"><path fill="#000" fill-rule="evenodd" d="M106 0v29c-19.333 6.667-29.833 19.333-31.5 38-1.333 21 9.167 35.667 31.5 44v14.5c-17.667 0-31.167 5.333-40.5 16l-33.5-26L46 101c10 2.667 19.5 4 28.5 4C47.5 98.667 26 89 10 76 3.333 71.667 0 66.833 0 61.5s1.333-18 4-38c19 12 37.667 8.333 56-11l6 8.5c2.333 2.667 5 2.667 8 0 8-9.333 18.667-16.333 32-21Zm22.162 0c13.334 4.667 24 11.667 32 21 3 2.667 5.667 2.667 8 0l6-8.5c18.334 19.333 37 23 56 11 2.667 20 4 32.667 4 38 0 5.333-3.333 10.167-10 14.5-16 13-37.5 22.667-64.5 29 9 0 18.5-1.333 28.5-4l14 14.5-33.5 26c-9.333-10.667-22.833-16-40.5-16V111c22.334-8.333 32.834-23 31.5-44-1.666-18.667-12.166-31.333-31.5-38ZM116.5 49.088c11.964 0 21.662 9.698 21.662 21.662 0 11.964-9.698 21.662-21.662 21.662-11.964 0-21.662-9.698-21.662-21.662 0-11.964 9.698-21.662 21.662-21.662Z"/></svg>
