<svg xmlns="http://www.w3.org/2000/svg" viewBox="0 0 162 201"><path d="m68.334 196.623-.283-.245v-64.572c0-8.492 4.248-13.063 12.743-13.712l.347.029c8.264.746 12.396 5.307 12.396 13.683v64.572l-.283.245c-3.144 2.661-7.297 3.992-12.46 3.992-5.163 0-9.316-1.33-12.46-3.992ZM57.48 129.77c2.097 2.226 4.194 4.74 6.29 7.543v53.78c-2.3-.26-4.396-1.302-6.29-3.127V129.77Zm46.626 0v58.196c-1.894 1.825-3.99 2.867-6.29 3.127v-53.78c2.096-2.803 4.193-5.317 6.29-7.543Zm-58-6.002c2.143 0 4.286.667 6.43 2.003v57.692c-2.51-.993-4.652-2.617-6.43-4.872v-54.823Zm69.373 0v54.823c-1.777 2.255-3.92 3.879-6.428 4.872v-57.692c2.143-1.336 4.286-2.003 6.428-2.003Zm-97.99-6.146c1.819 2.845 3.957 4.473 6.415 4.884 2.458.411 8.295.832 17.51 1.262v47.744c-15.636-13.513-26.137-30.018-31.503-49.516 3.071-.136 5.598-1.594 7.579-4.374Zm126.607 0c1.981 2.78 4.508 4.238 7.579 4.374-5.366 19.498-15.867 36.003-31.504 49.516v-47.744c9.216-.43 15.053-.85 17.511-1.262 2.458-.41 4.596-2.039 6.414-4.884Zm-80.325 11.283c-2.68-2.968-4.636-4.98-5.868-6.033l-.144-.128-.293-.255c-2.513-2.157-5.614-4.004-12.68-4.004-6.647 0-15.289-.32-18.353-1.251-6.371-2.102-9.806-7.81-10.306-17.125 6.615 3.28 13.952 5.43 22.012 6.448 2.885.265 2.669-2.22.334-2.797-12.849-3.644-21.084-6.873-24.707-9.687-6.116-4.55-8.48-12.63-7.092-24.24 9.317 7.32 17.115 12.293 23.393 14.916 4.7 2.224 5.395-1.492 0-4.293-16-9.073-25.185-16.86-27.556-23.36C.14 50.593-.165 44.098 1.595 37.61 17.64 50.6 32.706 60.753 46.79 68.07c2.59 1.363 4.204 2.55 4.838 3.563.861 1.573.907 3.812.907 5.963 0 10.108 12.896 21.138 28.258 21.138l.46-.003c15.158-.217 27.798-11.128 27.798-21.135 0-2.151.046-4.39.907-5.963.634-1.012 2.247-2.2 4.838-3.563 14.085-7.317 29.15-17.47 45.196-30.46 1.76 6.49 1.454 12.984-.917 19.485-2.371 6.501-11.557 14.288-27.556 23.361-5.395 2.801-4.7 6.517 0 4.293 6.278-2.623 14.076-7.595 23.393-14.917 1.388 11.611-.976 19.691-7.092 24.241-3.623 2.814-11.858 6.043-24.707 9.687-2.335.577-2.551 3.062.334 2.797 8.06-1.019 15.397-3.168 22.012-6.448-.5 9.315-3.935 15.023-10.306 17.125-2.023.615-6.474.963-11.179 1.129l-.857.028c-2.15.065-4.323.094-6.317.094-7.482 0-10.518 2.07-13.117 4.387-1.232 1.054-3.187 3.065-5.868 6.033-.95-9.386-6.623-14.418-17.022-15.098-10.399.68-16.073 5.712-17.022 15.098Zm4.551-37.882-.272-.194V4.832C71.003 2.116 74.948.712 79.885.619l.452-.004.457.002.457-.002.452.004c4.937.093 8.882 1.497 11.834 4.213v85.997l-.272.194c-2.944 2.033-7.1 3.05-12.471 3.05-5.37 0-9.527-1.017-12.47-3.05Zm-4.551-74.61v71.29c-3.016-2.193-5.112-6.024-6.291-11.491V26.614c.93-4.874 3.027-8.274 6.29-10.2Zm34.044 0c3.264 1.927 5.361 5.327 6.291 10.2v49.599c-1.179 5.467-3.275 9.298-6.29 11.492v-71.29Zm-45.28 16.895V65.96a375.803 375.803 0 0 0-6.428-4.285V43.848c0-4.968 2.142-8.48 6.428-10.54Zm56.516 0c4.286 2.06 6.428 5.572 6.428 10.54v17.827a375.803 375.803 0 0 0-6.428 4.285V33.308ZM63.772 7.087v4.285c-6.605 2.95-10.35 8.284-11.236 16.001-7.36 3.886-11.032 8.946-11.012 15.178l.004.33v16.65c-11.44-6.328-21.927-13.22-31.458-20.677l-1.055-.831V24.67c13.98-9.288 32.232-15.15 54.757-17.584Zm34.044 0c22.525 2.434 40.777 8.296 54.757 17.584v13.352l-1.055.83c-9.531 7.458-20.018 14.35-31.458 20.677V42.88l.004-.329c.02-6.232-3.651-11.292-11.012-15.178-.886-7.717-4.631-13.05-11.236-16V7.086Z" fill="#000" fill-rule="nonzero"/></svg>
