<svg xmlns="http://www.w3.org/2000/svg" viewBox="0 0 164 114"><path d="m52.472 77.091 25.935 36.562-33.743-20.098 7.808-16.464Zm59.251 0 7.808 16.464-33.742 20.098 25.934-36.562Zm-60.34-48.88 27.024 81.132-56.224-81.131h29.2ZM80.72 16.304v93.04L62.8 54.003l17.92-37.7Zm61.291 11.909-56.223 81.13 27.023-81.13h29.2Zm-58.537-11.91 17.92 37.701-17.92 55.34v-93.04Zm-54.5 26.603L50.45 74.11l-7.603 16.595-13.87-47.799Zm106.245 0-13.87 47.799-7.604-16.595 21.474-31.204Zm-55-32.187L61.536 50.796 48.411 10.718h31.81Zm35.564 0L102.66 50.796 83.975 10.718h31.81ZM41.606.295l8.843 25.053H9.622L.891.295h40.715Zm121.698 0-8.73 25.053h-40.828L122.589.295h40.715Z" fill="#000" fill-rule="evenodd"/></svg>
