<svg xmlns="http://www.w3.org/2000/svg" viewBox="0 0 195 95"><path d="m87.53 7.89 40.417 40.419 10.212-10.212 56.436 56.435h-14.316L168.357 82.61 158.32 92.647l-6.993-6.993 9.694-9.695-22.86-22.861L125 66.257l9.702 9.702-9.695 9.695 8.879 8.878H119.17l-8.878-8.878 9.695-9.695-12.613-12.613-10.467 10.467-7.556-7.556 10.625-10.625L89.35 45.007l10.625-10.625-12.447-12.447-23.072 23.072 10.626 10.625-10.626 10.625 9.703 9.702-6.651 6.65L47.38 62.482 15.33 94.532H.888L87.529 7.891ZM135.016.749c19.03 0 32.13 15.81 32.13 32.188 0 9.132-2.388 16.09-7.164 20.871l-21.566-21.565-10.496 10.496-22.608-22.608C106.465 15.948 115.986.748 135.017.748Z" fill="#000" fill-rule="evenodd"/></svg>
