<svg xmlns="http://www.w3.org/2000/svg" viewBox="0 0 704 1024"><path d="M407.467 686.281V375.864c78.758 20.407 136.038 82.241 136.038 155.163 0 73.013-57.281 134.845-136.038 155.254zM157.814 531.027c0-72.922 57.281-134.757 136.038-155.163v310.417c-78.758-20.408-136.038-82.241-136.038-155.254zm542.626 0c0-148.35-126.843-271.375-292.973-294.531V21.333l-113.615 97.606v117.557C127.874 259.652 1 382.677 1 531.027c0 148.441 126.874 271.466 292.852 294.622v219.684l113.615-97.606V825.649c166.13-23.156 292.973-146.181 292.973-294.622z"/></svg>