<svg xmlns="http://www.w3.org/2000/svg" viewBox="0 0 33 38"><path d="M21.736.388c3.776.772 7.076 2.994 9.898 6.666l-1.71 2.957c-1.675-.658-3.164-.365-4.47.88-1.957 1.866-.699 6.896 4.47 6.033l2.675 6.45c-3.304 5.603-8.642 10.408-16.015 14.414l.015-.008-.207-.113C9.206 33.726 3.975 29.017.698 23.542l-.1-.168 2.13-5.134c2.244.212 3.038 1.727 2.384 4.543 1.413-1.716 3.203-2.791 5.372-3.226-.424-.331-1.128-.452-2.111-.361 1.887-2.246 4.46-3.022 7.717-2.326-2.072.093-3.61.58-4.612 1.461 1.136-.007 1.985.304 2.547.932-2.275.57-3.905 1.732-4.887 3.486 2.965-.341 4.956.267 5.97 1.824 1.523 2.337 0 3.811 0 3.811.584.076 1.063-.042 1.437-.356.006 1.324-1.002 2.251-3.024 2.78 4.162.395 7.082-.812 8.759-3.62-.662.5-1.378.636-2.146.407-1.153-.344-.923-1.449-.494-1.665-.843.179-1.368.086-1.575-.278-.31-.547-.176-1.221.408-1.561-.92.165-1.435-.058-1.543-.671-.161-.92.14-1.563.843-1.987-.856-.49-1.78-.562-2.774-.217 1.393-1.088 3.188-1.29 5.384-.602 1.092.524 1.364 1.233.815 2.128 2.952-.334 4.284.623 3.997 2.87 2.145-1.153 3.045-3.22 2.7-6.202-.305 1.022-.89 1.681-1.756 1.976.103-.923-.293-1.403-1.19-1.44.382-2.036-.153-3.75-1.604-5.143a92.158 92.158 0 00-4.665-4.174c-1.426-1.442-2.124-2.837-2.093-4.186 2.401-.487 4.118-2.506 5.149-6.055zm-2.569 16.62c-.21-.57-.146-.843.195-.818 1.46.73 2.346 1.742 2.658 3.037-.329.228-.7.228-1.11 0-.972-.582-1.426-1.366-1.743-2.22zM11.461.387c1.032 3.55 2.74 5.57 5.123 6.056l-.036-.008c-.725 1.66-.572 2.993.457 3.998 1.573 1.538 5.145 4.285 5.213 6.69-1.39-1.953-2.737-3.52-4.04-4.704-1.952-1.775-4.767-3.186-4.695-7.012-1.035 1.755-1.287 3.715-.756 5.88 1.618 1.168 2.614 2.446 2.987 3.835-.993-1.404-2.324-2.447-3.996-3.13-2.506-1.025-4.482-3.84-4.482-3.84a5.224 5.224 0 00.023 2.326c-1.186-.89-2.515-1.046-3.986-.468l-1.71-2.957C4.385 3.382 7.685 1.16 11.461.388z" fill="#000" fill-rule="nonzero"/></svg>
