<svg xmlns="http://www.w3.org/2000/svg" viewBox="0 0 832 1024"><path d="M415.962 1018.717L144.459 740.909l28.831-36.137L7.297 551.414c0-301.335 274.707-449.311 274.707-449.311S160.167 272.709 160.167 478.322c0 205.717 78.602 234.165 117.736 234.165 39.339 0 69.068-25.731 69.068-69.068 0-75.783-93.389-75.783-93.389-75.783L416.064 47.95l162.353 519.686s-93.389 0-93.389 75.783c0 43.338 29.73 69.068 68.966 69.068 39.261 0 117.736-28.448 117.736-234.165 0-205.613-121.734-376.219-121.734-376.219s274.707 147.975 274.707 449.311L658.71 704.772l28.831 36.137-271.579 277.808z"/></svg>