<svg xmlns="http://www.w3.org/2000/svg" viewBox="0 0 990 1024"><path d="M.775 171.102c96.217.111 192.488-.717 288.65.386 26.868 13.406 51.584 31.281 75.087 50.039-11.696 41.378-8.552 88.438 16.055 124.74 17.434 27.474 47.611 45.239 79.445 50.314l.055 497.248C351.107 834.08 244.959 767.49 151.445 685.175c-32.053-28.467-63.28-62.729-70.893-106.423-9.103-51.97 12.689-102.395 14.345-154.035.717-40.108-.111-81.541-16.331-118.946-15.227-40.494-46.783-71.224-70.065-106.865-6.014-8.054-7.503-17.985-7.724-27.805zm624.469 50.148c23.834-18.316 48.551-36.301 75.418-49.763 96.108-1.103 192.268-.275 288.43-.386-.719 8.219-.497 16.992-5.572 23.999-21.572 35.253-52.523 64.548-68.963 103.057-19.475 40.108-20.799 85.734-19.529 129.485 2.481 50.369 22.675 99.581 14.454 150.339-7.613 44.134-39.115 78.616-71.39 107.36-94.23 83.251-201.702 149.842-311.491 210.418-.055-166.337-.055-332.675-.055-499.012 35.75-4.359 69.403-25.378 86.837-57.156 20.965-35.418 22.731-79.334 11.861-118.34z"/></svg>