<svg xmlns="http://www.w3.org/2000/svg" viewBox="0 0 32 32"><path d="M15.98 31.822a2.123 2.123 0 01-.377-.144c-1.32-.551-2.555-1.29-3.726-2.108-.497-.396-1.04-.746-1.462-1.227.774-1.371 1.326-2.919 1.272-4.513.072-1.953-.676-3.866-1.835-5.415-.002.015-.006.029-.005.044.044.616.073 1.536-.189 2.264a2.788 2.788 0 01-1.674 1.809c.201-.4.519-.84.35-1.307-.253-.885-.982-1.496-1.549-2.18-1.689-1.811-3.567-3.452-5.097-5.408-.292-.348-.652-.831-.864-1.236-.388-.747-.705-1.385-.824-2.226.934.299 2.06.45 2.915-.14.908-.605 1.401-1.61 2.006-2.482.786-1.192 1.697-2.312 2.793-3.234 1.3-1.286 2.934-2.183 4.64-2.81.001.016.005.032.003.049-.136 1.049-.095 2.131.04 3.196.195 1.54 1.436 2.917 2.987 3.026.515.011.31.014.616.006.205.009.411-.001.616-.006 1.551-.109 2.793-1.487 2.987-3.026.135-1.065.176-2.147.04-3.196-.002-.016.002-.032.003-.049l.319.121c1.603.612 3.079 1.503 4.321 2.689 1.096.922 2.007 2.043 2.793 3.234.605.872 1.098 1.877 2.006 2.482.855.59 1.98.439 2.915.14-.119.842-.436 1.479-.824 2.226-.212.405-.572.888-.864 1.236-1.53 1.956-3.408 3.597-5.097 5.408-.567.684-1.296 1.295-1.549 2.179-.169.467.149.907.35 1.307a2.786 2.786 0 01-1.674-1.809c-.262-.729-.234-1.648-.189-2.264.001-.015-.003-.029-.005-.044-1.159 1.549-1.907 3.462-1.835 5.415-.054 1.594.497 3.142 1.272 4.513-.422.481-.964.831-1.462 1.227-1.17.818-2.406 1.557-3.726 2.108-.098.05-.365.157-.394.145l-.021-.001zm.084-21.332l-.064.006-.031-.003c-.047-.011-.082.016-.122.035-.955.536-1.887 1.258-2.697 1.989-.371.351-.753.698-1.043 1.122.09.179.185.354.297.52.931 1.329 1.608 2.817 2.219 4.315.54 1.336.973 2.712 1.377 4.094a43.73 43.73 0 011.377-4.094c.612-1.498 1.288-2.986 2.219-4.315.112-.166.207-.342.297-.52-.29-.425-.672-.771-1.043-1.122-.81-.732-1.742-1.454-2.697-1.989-.03-.013-.057-.03-.089-.038zm5.658-5.406c-.126.535-.196 1.087-.414 1.595-.343.855-.932 1.584-1.625 2.183l.01.006c.045.018.064.033.097.052 1.377.786 2.939 1.971 4.019 3.125.885 1.009 1.712 2.092 2.272 3.318.118.242.237.46.341.739.011.031.042.05.066.074.008-.018.016-.036.022-.055.234-.712.213-1.493.177-2.198-.038-.756-.233-1.54-.428-2.346a11.507 11.507 0 00-4.538-6.492zm-11.444 0a11.515 11.515 0 00-4.538 6.492c-.195.806-.39 1.59-.428 2.346-.036.705-.057 1.487.177 2.198.006.019.015.037.022.055.024-.023.055-.043.066-.074.104-.28.223-.497.341-.739.561-1.226 1.387-2.309 2.272-3.318 1.08-1.154 2.642-2.339 4.019-3.125.034-.019.052-.034.097-.052.004-.001.007-.004.01-.006-.693-.599-1.282-1.327-1.625-2.183-.218-.508-.288-1.06-.414-1.595z"/></svg>
