<svg xmlns="http://www.w3.org/2000/svg" viewBox="0 0 1024 1024"><path d="M454.057 115.927a199.28 199.28 0 0 1 6.192-15.498c1.306 119.897.201 239.858.57 359.788-.201 149.286.435 298.602-.335 447.92C357.224 811.504 254.8 714 151.739 617.133c2.98-2.678 6.093-5.255 9.373-7.564 50.174-33.473 100.081-67.313 150.221-100.85 8.134-4.318 9.204-14.193 12.385-21.958 43.278-123.679 86.992-247.188 130.338-370.833zm113.401-15.483c-1.304 107.612-.2 215.291-.568 322.937.201 161.568-.435 323.171.335 484.739 103.262-96.567 205.585-194.137 308.678-290.871-2.912-2.811-5.992-5.422-9.305-7.699-49.572-32.935-98.708-66.509-148.248-99.478-3.915-2.778-8.434-5.456-9.673-10.443-47.396-132.917-92.851-266.604-141.218-399.186zM7.38 951.925c119.356 4.746 238.71 9.868 358.065 14.312-71.673-66.627-143.761-132.876-215.774-199.125C101.99 828.54 54.61 890.158 7.379 951.925zm651.175 14.313c119.393-4.444 238.71-9.566 358.065-14.312-47.23-61.768-94.611-123.385-142.254-184.813-72.05 66.249-144.138 132.499-215.811 199.125z"/></svg>