<svg xmlns="http://www.w3.org/2000/svg" viewBox="0 0 960 1024"><path d="M737.794 655.873l25.428-156.793-126.411 92.8c-31.131-13.655-64.375-23.468-98.427-29.018l-58.827-144.118-58.134 142.543c-36.318 4.936-71.656 14.846-104.651 29.02l-124.24-91.226 24.911 153.796c-58.443 51.99-96.027 122.283-96.027 203.08 0 0 5.166 29.71 21.76 29.71 28.423 0 81.988-174.116 329.641-174.116 247.789 0 309.688 175.768 338.113 175.768 15.747 0 23.41-30.152 23.41-30.152 0-79.607-37.968-149.228-96.544-201.293zm217.098.461s-3.381 45.843-27.31 45.843c-26.023 0-15.23-22.508-27.368-53.794-63.321-163.995-217.713-273.159-423.576-273.159S116.228 485.502 55.615 648.152c-14.711 39.467-2.842 53.41-27.983 53.41-25.062 0-26.791-45.228-26.791-45.228 0-263.402 170.755-476.986 477.065-476.986 306.249 0 476.986 213.584 476.986 476.986z"/></svg>