<svg xmlns="http://www.w3.org/2000/svg" version="1.0" viewBox="0 0 856 785"><path d="M413.7.7c-.9 1.7-35 65.7-81 152.3-157 296-249.5 470.2-293.8 553.7C17 747.9 0 781 0 782.4v2.6h428c235.4 0 428-.2 428-.4s-10.3-19-22.9-41.8c-12.5-22.7-39.5-71.5-59.8-108.3-20.4-36.9-74.8-135.4-121-219S544.3 220.1 515 167c-54.3-98.4-72.1-130.4-85.2-153.5l-7.3-13-4.2-.3c-2.3-.2-4.3.1-4.6.5zm36 182.8C499 273.1 624.4 500.7 626.3 504l2 3.5-2.9-2.6C598.2 480.7 430.8 331.5 388 293.2c-16.2-14.6-29.4-27.1-29.4-27.8.1-.8 7.9-15.5 17.4-32.6 9.5-17.2 24.7-44.7 33.8-61.1 9-16.4 16.8-29.5 17.2-29 .4.4 10.6 18.8 22.7 40.8zM376.8 322c17.6 15.7 32.1 28.7 32.1 29 .1.5-130.9 168.3-133 170.5-.6.5-.5-.3.1-2 .5-1.7 15.4-52.3 33-112.5s32.5-110.5 33-111.8c.6-1.3 1.4-2.2 1.9-2 .4.2 15.2 13.1 32.9 28.8zm95 154 46.7 86.5-4.7.3c-6.8.4-224.7-8.4-225.4-9.1-.2-.2 29.6-38.7 66.3-85.6l66.6-85.2 1.9 3.3c1 1.8 22.9 42.2 48.6 89.8zm61.7-13.9c33.6 29.9 68.3 60.9 77.2 68.8l16.2 14.5-34 14.3c-18.8 7.9-34.4 14.1-34.9 13.8-.4-.2-6.3-10.7-13-23.2-6.8-12.6-27.3-50.6-45.7-84.7-18.4-34-33.7-62.6-34-63.5-.3-.9 1.2 0 3.3 2 2.1 2 31.4 28.1 64.9 58zm-291.1 68.5c-18.5 63.2-39.3 134.4-46.2 158.1-12.4 42.5-12.7 43.3-15.6 44.3-3.8 1.3-80.9 1.4-80.4.1.8-2.4 175.3-318 175.6-317.7.2.2-14.8 52.1-33.4 115.2zm418 44.5c5 4.5 10.2 10.1 11.6 12.5l2.5 4.3-5 5c-2.7 2.7-36.9 34.7-76 71l-71 66.1h-134c-74.1 0-133.3-.4-132.5-.9.8-.5 61.6-26.1 135-57 73.4-30.8 161.6-68 196-82.5 34.4-14.5 62.9-26.4 63.4-26.5.4-.1 4.9 3.6 10 8zM343 585.5c121.1 4.8 163.5 6.5 167.5 6.8 3.9.3 3.9.3 1.5 1.4-1.4.6-40.8 17.2-87.5 36.8-46.8 19.7-112.2 47.2-145.4 61.2-33.2 13.9-60.5 25.2-60.6 25.1-.1-.2 7.6-26.9 17.1-59.3 9.5-32.5 17.6-60 17.9-61.2.3-1.2 3-4.9 6-8.2l5.5-5.9 7.8.4c4.2.3 35.8 1.6 70.2 2.9zm378.2 90.7 31.5 57.3-46.9.3c-25.8.1-67.9.1-93.5 0l-46.6-.3 61.4-57.2c33.8-31.5 61.7-57.2 62-57.3.3 0 14.7 25.8 32.1 57.2z"/></svg>
