<svg xmlns="http://www.w3.org/2000/svg" version="1.0" viewBox="0 0 1060 785"><path d="M488.3 7.2c-5 9.2-17.6 32.8-86 161.8C274.9 409.1 289 383.1 286.1 382.6c-4.5-.9-159.8-33.5-179.1-37.6-37.2-7.9-105-22-106-22-.5 0-1 2-1 4.4 0 3.9.5 4.8 3.9 7.8 2.1 1.8 18.6 17.7 36.7 35.3 18.1 17.6 63.4 61.4 100.6 97.3 54.6 52.7 67.6 65.7 66.9 67-3.7 7-99.1 186.7-113.2 213.3-9.8 18.5-18.1 34.3-18.5 35.2-.6 1.6 29.4 1.7 428.5 1.7 236 0 429.1-.2 429.1-.4 0-.3-11.4-21.1-25.3-46.3C830 596 812.8 564.9 813.1 564.6c.2-.1 22.5 5.1 49.4 11.6 46.6 11.2 73.8 16.6 186.1 37.3 13.1 2.4 14.5 1.7 6.9-3.5-2.5-1.7-4.3-3.5-4.1-3.9.3-.4-30.4-23.5-68.2-51.2C945.4 527.2 899 493.1 880 479 725 364.1 687.3 336 685.9 334.4c-.9-1.1-10.1-17.4-20.6-36.4-90.5-164.2-142-257.2-157.5-284.5l-7.3-13-4.1-.3-4.2-.3-3.9 7.3zM530.8 189c89 162 98.4 178.8 102.5 183.5 4 4.5 95.9 74.9 102.4 78.4 2.5 1.3 56.8 41.3 58.8 43.3 1.3 1.3 1.9 1.4-49-10.3-23.6-5.5-48.4-11.1-55-12.5-21.7-4.6-98-22.5-98.6-23.2-.4-.4-15.8-28.8-34.4-63.2-45.9-85.1-53.6-99-54.6-98.5-1.1.7-13.5 22.7-52.4 93-18 32.4-32.8 59.1-33 59.3-.3.3-67.8-15.7-68.1-16.2-.1 0 28-51 62.3-113.1 34.3-62.2 69.1-125.3 77.4-140.3 8.3-15.1 15.5-27 15.9-26.5.4.4 12 21.3 25.8 46.3zm9.4 246c20.1 37.1 47.6 88 61.1 113s24.9 46.4 25.3 47.4c.7 1.9-.4 1.9-53.7 1.3-29.9-.4-86.2-.7-125.1-.7-40 0-71-.4-71.3-.9-.7-1.2 125.8-229.2 126.6-228.3.4.4 17.1 31.1 37.1 68.2zm-314-.5c42.3 8.9 49.2 10.5 117.6 27 29.2 7.1 53.2 13.2 53.2 13.7 0 .4-16.6 30.6-36.8 67-44.9 80.8-50.4 90.9-50 91.3.5.5 116.7 1.5 252.7 2.1l130.4.7-5.3-9.9c-4.9-9.1-27.1-50.2-58.3-107.9-6.9-12.7-12.2-23.1-11.8-23.3.3-.1 21.5 4.7 47 10.6l46.3 10.8 5.7 10.5c3.2 5.7 17.2 31.1 31.1 56.4 14 25.3 38.3 69.4 54 98l28.7 52-326 .3c-179.3.1-326.2 0-326.4-.2-.3-.3 69-126.7 97.2-177.1 4-7.2 9.3-16.9 11.9-21.7l4.7-8.8-20.3-19.7c-11.2-10.9-25.7-25-32.3-31.3-32.9-31.5-49.7-48-49.2-48 .3 0 16.5 3.4 35.9 7.5z"/></svg>
