<svg xmlns="http://www.w3.org/2000/svg" viewBox="0 0 716 834"><path fill="#000" fill-rule="evenodd" d="m617.5 549.5-16.5 78c-80.667 36-161.667 104.833-243 206.5l-2.44-3.04c-80.513-100-160.7-167.82-240.56-203.46l-16.5-78c71 27.333 157.5 93.667 259.5 199 102-105.333 188.5-171.667 259.5-199ZM202.5 0c39.93 25.74 91.131 38.739 153.603 38.996L358 39l-26.5 138c-74 10.333-125 51.167-153 122.5s-12.667 139 46 203c27.667 27.333 63.333 44.5 107 51.5L358 734.5C256.667 629.5 163.833 561.667 79.5 531L.5 209.5c38.333 11.333 72.833 10 103.5-4 24.5-12 44-38 47-72 3.402-34.59-12-64.5-39.5-89l91-44.5Zm311 0 91 44.5C577 69 561.598 98.91 565 133.5c3 34 22.5 60 47 72 30.667 14 65.167 15.333 103.5 4l-79 321.5c-84.333 30.667-177.167 98.5-278.5 203.5L384.5 554c43.667-7 79.333-24.167 107-51.5 58.667-64 74-131.667 46-203s-79-112.167-153-122.5L358 39c63.333 0 115.167-13 155.5-39Zm-184 231c-2 90-2 179.833 0 269.5-45-11-77.167-36.167-96.5-75.5s-19.333-80 0-122c19.667-36.333 51.833-60.333 96.5-72Zm57 0c44.667 11.667 76.833 35.667 96.5 72 19.333 42 19.333 82.667 0 122s-51.5 64.5-96.5 75.5c2-89.667 2-179.5 0-269.5Zm-269-165.5c13.333 13.667 21.333 29.5 24 47.5 2 19 0 33.5-8 49.5-12.667 25-34.5 39.667-65.5 44 11-42.333 3.5-73.5-22.5-93.5l72-47.5Zm481 0 72 47.5c-26 20-33.5 51.167-22.5 93.5-31-4.333-52.833-19-65.5-44-8-16-10-30.5-8-49.5 2.667-18 10.667-33.833 24-47.5Z"/></svg>
