<svg xmlns="http://www.w3.org/2000/svg" viewBox="0 0 140 139"><path fill="#000" fill-rule="evenodd" d="M67.5 0 66 28c-15.667 2-26.833 10.167-33.5 24.5-9 23 2 38.5 7 44 6 7 14.5 12.5 26.5 14l1 28.5c-26.333-3.333-45.167-14.833-56.5-34.5-21-38-5-72 16-89.5 12.333-10 26-15 41-15Zm-2 35.5c-.667 20-.667 42.5 0 67.5C54.167 100.667 46 95.167 41 86.5c-6-9-5.5-25.5 0-34.5 6.333-10 14.5-15.5 24.5-16.5ZM72.466 0l1.5 28c15.667 2 26.834 10.167 33.5 24.5 9 23-2 38.5-7 44-6 7-14.5 12.5-26.5 14l-1 28.5c26.334-3.333 45.167-14.833 56.5-34.5 21-38 5-72-16-89.5-12.333-10-26-15-41-15Zm2 35.5c.667 20 .667 42.5 0 67.5 11.334-2.333 19.5-7.833 24.5-16.5 6-9 5.5-25.5 0-34.5-6.333-10-14.5-15.5-24.5-16.5Z"/></svg>
