<svg xmlns="http://www.w3.org/2000/svg" viewBox="0 0 960 1024"><path d="M855.296 880.38c-78.36-111.526-222.085-180.383-378.011-180.383-155.918 0-299.641 68.857-378.006 180.372-.594-101.289 37.407-196.463 107.657-269.005 71.75-74.097 167.76-114.9 270.353-114.9 102.637 0 198.675 40.832 270.421 114.987 70.277 72.624 108.254 167.767 107.587 268.928zm83.168-144.327c-29.812-113.234-104.876-213.2-207.597-275.946l18.439-120.632-107.551 78.126a486.667 486.667 0 0 0-109.657-25.248l-54.81-131.314-54.813 131.311a486.717 486.717 0 0 0-109.657 25.248l-107.549-78.126 18.437 120.632C120.985 522.851 45.921 622.816 16.11 736.05A402.88 402.88 0 0 1-.001 623.202c0-240.915 214.11-436.915 477.288-436.915s477.29 196 477.29 436.919a403.025 403.025 0 0 1-16.114 112.848z"/></svg>