<svg xmlns="http://www.w3.org/2000/svg" viewBox="0 0 673 639"><path d="M456.6 463.8c.3-.5.8-.7 1.1-.5.7.8-21 114.6-22 115.3a570.274 570.274 0 0 1-3.838 2.584l-1.521 1.015a2393.81 2393.81 0 0 1-16.393 10.793l-1.388.906c-9.5 6.2-19.193 12.46-24.66 15.902-5.652 3.528-13.676 8.3-21.7 12.963l-1.338.776-1.335.773C350.2 632.016 337.6 639 336.7 639c-1.106 0-14.756-7.427-28.97-15.674l-1.08-.627a910.735 910.735 0 0 1-3.783-2.213l-1.075-.634a776.381 776.381 0 0 1-5.292-3.152c-10.8-6.5-57-36.2-59.2-38.1-.441-.343-5.564-26.473-10.675-53.495l-.625-3.311c-5.102-27.054-10-53.983-10-55.894 0-1.5 4 1.1 16.3 10.4 33.4 25.5 101.2 72.7 104.3 72.7 1.065 0 19.37-11.998 38.022-24.754l1.577-1.08c7.095-4.864 14.172-9.792 20.301-14.166 5.797-4.123 13.689-9.89 21.847-15.929l1.582-1.171c17.689-13.117 36.068-27.095 36.671-28.1Zm132.093-116.304c.271.202-6.26 19.828-12.86 38.987l-.6 1.74c-3.198 9.266-6.365 18.281-8.733 24.777-8.5 23.5-21.3 55.7-31.6 80l-8 18.9-14.2 10.8c-7.8 6-17.7 13.5-22.1 16.7l-7.9 5.8.6-3.3c.183-1.159 1.631-11.323 3.709-25.906l.206-1.449c1.285-9.019 2.794-19.608 4.385-30.745l7.7-54.6 12.6-10.9c16.8-14.6 43.2-38.8 61.6-56.6 8.3-7.9 15.1-14.4 15.2-14.2ZM84.2 347l18.7 17.9c21.2 20.3 38.7 36.4 57.9 52.9 7.2 6.4 13.2 11.9 13.2 12.3 0 .032.023.224.068.566l.037.284c.623 4.683 3.935 28.02 7.895 55.65 4.5 30.7 8 56.3 7.8 57-.2.7-9.7-5.9-21.7-14.9l-21.5-16.2-5.8-13.5c-17.4-39.9-39.5-98.7-52.4-138.7L84.2 347Zm588-132-2.7 3.2c-1.47 1.764-14.177 15.245-28.426 30.184l-.874.916c-75.3 78.9-165 156.8-250.7 217.7-5.049 3.591-11.119 7.794-17.315 12.018l-1.379.938c-.92.626-1.841 1.25-2.761 1.874l-1.378.931c-2.237 1.511-4.456 3.001-6.614 4.443l-.86.574C347.342 495.684 337.5 502 336.8 502c-1.3 0-12-6.9-33.2-21.3-89.8-61.2-181.8-139.6-265.9-226.6a4114.4 4114.4 0 0 1-5.424-5.607l-1.248-1.293C20.653 236.445 10.932 226.244 7.8 222.7l-7-7.7 61.7.2 61.6.3 1.8 5.3c2 5.7 7.4 14.2 11.8 18.4 1.6 1.5 5.4 4.2 8.6 6.1 5 3.1 8.5 4.3 18.4 6.3l2.1.4-3.4 13.1c-2 7.2-3.3 13.7-3.1 14.3.3.6 15.7 12.1 34.3 25.6 18.7 13.4 34.1 24.5 34.3 24.7.2.1-.8 4.2-2.2 9-1.5 4.8-2.3 9.1-1.9 9.5.4.3 25.6 16.4 56.1 35.7 49 31 55.6 34.9 57.5 33.9 3.8-2 108.1-68.1 109.4-69.3 1.1-1 .9-2.7-1.2-9.6-2.4-7.9-2.5-8.4-.8-10 1.3-1.3 39.7-29.1 63.8-46.2l4.2-2.9-3.4-12.7-.103-.376-.204-.748C508.34 259.518 507 253.751 507 252.9c0-1.2 1.3-1.8 5.1-2.2 15.3-1.8 32.6-17.5 36.3-33l.6-2.7h123.2Zm-369-2 33.5.2 33.6.3 20.3 58c11.2 31.9 20.3 58.5 20.4 59 0 .466-13.213 8.993-28.533 18.643l-.95.598-.477.3-1.052.662c-1.23.773-2.47 1.55-3.714 2.33l-2.224 1.392-1.113.696-.556.347-1.112.694-1.11.693-2.212 1.377-1.099.683c-8.43 5.24-16.386 10.126-22.08 13.543l-.636.38c-4.688 2.806-7.697 4.522-7.932 4.463-.265-.044-14.512-8.801-30.436-18.647l-1.064-.658-2.14-1.323-1.073-.665-1.076-.665-2.197-1.36-1.5-.93-1-.619-.995-.617-.497-.308-.992-.615c-14.846-9.203-28.376-17.634-30.69-19.16l-.147-.097a2.634 2.634 0 0 1-.193-.137c-.3-.2 13.5-40.1 39.5-114.3l1.5-4.2Zm147-77.3c.7 1.8 26.6 121.4 27.1 125.2.1 1.5-4.6 5.2-22.1 17L433 293.1l-1-2.6c-.6-1.5-1-2.8-1-3.1 0-.126-.169-.697-.48-1.64l-.177-.533c-1.594-4.74-5.877-16.503-10.525-28.98l-.443-1.19-.446-1.193-.604-1.615C414.698 242.557 411 232.84 408.3 226c-5.6-14.4-8.1-22-7.6-23.1.4-.9 11.6-16.8 24.8-35.3 18.7-26.4 24.1-33.3 24.7-31.9Zm-225.7-.5c.077.077.281.336.6.76l.186.246c2.858 3.822 12.817 17.786 24.214 33.794 16.7 23.7 23.5 34.1 23.2 35.5-.289 1.059-4.005 10.918-8.385 22.178l-.343.88-.172.442c-2.193 5.507-4.91 12.581-7.589 19.72l-.764 2.04c-2.795 7.477-5.491 14.867-7.447 20.44-4.1 11.5-7.8 20.8-8.2 20.8-.702 0-9.045-5.409-18.24-11.598l-.719-.484-1.082-.73-1.086-.736-.362-.245-1.272-.864-.723-.493-1.441-.983-.717-.49c-9.286-6.36-17.591-12.255-17.858-12.877-.4-1.1 20.5-101.1 26.4-126.3.5-2 .8-2.1 1.8-1ZM161.8.5c2.159.822 13.009 3.917 24.824 7.151l.987.27.951.26.954.26.478.13.956.259.955.259 1.392.376c9.035 2.437 17.794 4.726 22.903 5.935 97.4 23.4 177.8 20.1 283-11.5 7.2-2.1 13.3-3.7 13.5-3.5.71.71-2.814 46.789-6.994 93.892l-.355 3.982c-1.602 17.92-3.285 35.809-4.851 51.226-5.2 50.8-5.8 56.5-6.4 56.5-.4 0-1.9-4.8-3.4-10.8-15.9-62.4-29.9-115.8-30.5-116.4-.4-.4-7.5 7.3-15.6 17.2l-14.8 18H243.5l-14.8-18c-8.1-9.9-15.1-18-15.5-18-.4 0-8.1 29-17.2 64.4-9.1 35.5-16.8 63.9-17.1 63.3-.4-.7-.9-4.1-1.3-7.7-.273-3.281-2.042-20.6-4.019-39.844l-.121-1.18-.131-1.275-.066-.638-.131-1.28L173 152.5c-1.435-14.35-2.98-30.832-4.464-47.42l-.254-2.845a5957.3 5957.3 0 0 1-.277-3.126l-.184-2.082-.092-1.04-.182-2.078-.181-2.075-.18-2.07c-2.215-25.5-4.156-49.76-5.186-65.264l-.03-.47-.06-.938-.06-.936-.03-.466-.06-.928c-.513-8.014-.987-15.242-1.16-17.062-.4-3.3-.2-3.8 1.2-3.2ZM554.6 46c.1 0 1.6 2.1 3.2 4.8 16 24.9 40.5 50.9 61.3 65.2 7.4 5.1 20.9 12.8 24.6 14.1 1.1.4-3.2 23.2-9.7 52.6l-1.2 5.3h-54.884c-41.435-.01-43.996-.168-43.516-1.8.2-.9 4.9-32.9 10.3-71 5.4-38 9.8-69.2 9.9-69.2Zm-441.3 8c2.9-4.2 5.3-6.8 5.4-6 .4 1.9 20.3 138.9 20.3 139.6 0 .194-20.888.388-46.966.4H40.3l-.6-2.8c-1.155-5.285-2.812-13.24-4.479-21.401l-.285-1.4-.143-.702-.285-1.401-.142-.7-.283-1.396C31.404 144.967 29 132.684 29 132c0-.9 3.7-3.4 9.3-6.3 14.2-7.3 26.9-16.9 41.8-31.7 13.3-13.2 23-24.9 33.2-40Zm224.8 84c55.688.006 69.894.309 69.3 1.2-.4.7-8.6 11.5-18.1 24L371.9 186h-70.6L284 163.2c-9.5-12.5-17.7-23.3-18.3-24-.693-.891 13.217-1.194 68.997-1.2h3.403Z" fill="#000" fill-rule="nonzero"/></svg>
