<svg xmlns="http://www.w3.org/2000/svg" viewBox="0 0 347 187"><path d="m64.5 43 2.9 5.5c3.2 6.2 9.4 10.9 15.7 12 2.1.4 3.9 1 3.9 1.4 0 .4-.7 3.1-1.6 6-.8 2.9-1.4 5.9-1.2 6.7.2.8 8 6.7 17.3 13.2 17.8 12.4 17.5 12 16.1 18.7-.6 2.9-.4 3.2 9.6 9.1 3.833 2.219 10.83 6.427 18.014 10.801l1.106.674c3.136 1.912 6.278 3.837 9.18 5.625l18 11 28-17.1c22.2-13.6 28-17.6 27.8-19.1-.1-1.1-.3-3.3-.5-4.9-.3-2.8.7-3.6 16.7-14.8 9.4-6.5 17.1-12.3 17.3-12.8.2-.4-.4-3.5-1.2-6.8-.9-3.3-1.6-6.2-1.6-6.5 0-.3 1.7-.8 3.7-1.2 7.4-1.4 13.6-6.4 16.8-13.6l1.8-3.9h63.9l-6 6.7c-9.728 11.008-28.836 29.512-48.568 47.385l-1.851 1.673c-10.5 9.47-21.097 18.69-30.481 26.442-23.7 19.5-62.5 47.6-82.4 59.6l-3.7 2.2-19.3-12.8c-31.6-21.1-63.2-45.6-94.3-73.2-6.478-5.699-15.83-14.457-25.032-23.312l-1.345-1.296C20.461 64.08 8.277 51.861 4.8 47.7L.8 43h63.7Zm110.446-2c14.385.013 16.75.222 17.453 1.485l.043.083c.02.043.04.087.058.132.59 1.593 4.73 12.898 9.013 24.714l1.09 3.01.217.601.434 1.2A2116.805 2116.805 0 0 1 209.5 89.7l4.3 12.1-19.6 11.8c-10.8 6.4-20.1 11.7-20.7 11.7-.6 0-9.9-5.3-20.7-11.7l-19.6-11.8 4.3-12.1a2116.805 2116.805 0 0 1 6.246-17.474l.434-1.201.218-.602 1.09-3.009A6144.566 6144.566 0 0 1 154.5 42.7c.018-.045.037-.089.058-.132l.043-.083c.703-1.263 3.068-1.472 17.453-1.484ZM114.9 0c.3.1 6.8 8.6 14.3 19L143 37.9l-2.1 4.8c-.99 2.146-3.889 9.47-6.951 17.473l-.354.926c-.532 1.393-1.066 2.801-1.595 4.201-3.7 9.8-7 18-7.3 18.3-.459.51-7.16-3.61-13.565-7.942l-.751-.51C104.513 71.146 99.112 67.11 99.3 66.5c.3-.6 3.8-15.8 7.8-33.8 3.6-16.2 6.795-29.727 7.617-32.27l.05-.154c.065-.182.109-.276.133-.276Zm117.2 0c.024 0 .068.094.132.276l.051.154c.823 2.543 4.027 16.07 7.717 32.27 4 18.1 7.5 33.3 7.7 33.9.4 1.2-24.5 17.9-25.4 17-.3-.3-3.6-8.5-7.3-18.3-.529-1.4-1.063-2.808-1.595-4.201l-.354-.926c-3.062-8.003-5.96-15.327-6.951-17.473l-2.1-4.8L217.8 19c7.5-10.4 14-18.9 14.3-19Zm-55.837 4c29.115.019 36.719.327 36.137 1.2-.4.7-5.2 6.8-10.7 13.5L191.8 31h-36.6l-9.9-12.3C139.8 12 135 5.9 134.6 5.2c-.582-.873 7.022-1.181 36.137-1.2Z" fill="#000" fill-rule="nonzero"/></svg>
