<svg version="1.0" xmlns="http://www.w3.org/2000/svg" viewBox="0 0 400 400"><path d="M41.5 57.2c.4 1.3 1.8 6.8 3.3 12.3l2.7 10 152.5.3c83.8.1 152.8-.2 153.2-.6.7-.7 6.8-22.2 6.8-23.8 0-.2-71.8-.4-159.5-.4H41l.5 2.2zM69 113v14h32V99H69v14zM145.2 199.7l.3 100.8 16.3.3 16.2.2V99h-33l.2 100.7zM223 200v101h32V99h-32v101zM299 200v101h33V99h-33v101zM46 200v54h72l-.2-53.8-.3-53.7-35.7-.3L46 146v54zm41.6-31.5C96.1 171 102 179 102 188c0 6.5-2.1 11.4-6.6 15.6l-3.5 3.4 4.6 12.6c2.6 6.9 4.5 12.7 4.2 13-.2.2-9 .3-19.5.2l-19-.3 4.8-12.7 4.7-12.7-4.2-4.4c-12.6-13.2-4.5-33.8 14.1-35.6.6-.1 3.3.6 6 1.4zM69 287.5V301h32v-27H69v13.5zM47.7 321.7c-.3.5-1.7 5.3-3.1 10.8-1.5 5.5-2.9 10.8-3.2 11.7-.5 1.7 7.5 1.8 159.1 1.8h159.7l-.6-2.3c-.3-1.2-1.8-6.8-3.2-12.5l-2.7-10.2H200.9c-84 0-153 .3-153.2.7z"/></svg>
