<svg xmlns="http://www.w3.org/2000/svg" viewBox="0 0 960 1024"><path d="M467.504 50.372c88.576.002 164.058 35.014 164.058 35.014l-16.71 48.378c71.892 24.138 134.356 72.088 182.178 130.04l41.046-32.894c.002.002 52.02 50.616 80.682 126.7 31.226 82.886 26.04 172.768 26.04 172.768l-53.96.636c-1.592 66.402-16.522 133.092-48.91 191.462l46.644 29.896c.002.002-52.218 88.724-128.14 147.232-85.238 65.692-158.526 74.024-158.526 74.024l-14.988-46.08c-36.854 12.128-75.72 16.02-114.252 17.884-25.76-.652-33.86-.314-63.7-4.82-13.178-1.99-26.114-5.338-39.172-8.008l-10.746 40.64c.002.002-102.112-29.234-177.734-88.13-84.904-66.126-117.56-132.352-117.56-132.352l42.038-25.57c-34.344-59.724-49.57-127.738-51.3-196.146l-51.88-.606c.002.002-8.596-91.462 19.22-166.984 31.228-84.794 80.68-125.942 80.68-125.942l-.002-.002 41 32.094c46.686-62.572 111.238-104.002 182.12-133.974l-17.826-50.248c.002.002 78.4-35.01 159.702-35.01l-.002-.002zm4.03 56.406l-15.524.64c-26.294 2.152-52.478 5.938-78.28 11.454l12.052 51.106c-94.652 19.356-183.002 84.47-231.31 167.93l-39.874-23.942c0 .002-27.702 42.758-39.2 78.01-11.498 35.254-16.426 86.172-16.426 86.172l46.18 5.176c-3.084 30.434-2.246 16.084-2.928 43.022 2.19 38.028.134 19.372 6.012 55.982.054.52.014.24.136.838 6.828 57.754 30.526 110.996 63.822 158.122l-34.288 17.418s36.054 50.28 79.486 83.744c43.652 33.632 103.652 55.536 103.652 55.536l12.016-31.756c42.634 18.028 89.09 25.784 135.218 26.17 50.604-1.278 96.294-8.36 144.294-27.028l17.922 32.866c.002 0 53.934-19.29 95.524-55.014 41.804-35.906 85.222-84.518 85.222-84.518l-41.274-25.712 10.354-16.55.23-.366c5.902-9.434 2.948-4.198 8.606-15.844 10.512-19.356 5.934-9.764 13.932-28.68 6.484-13.35 4.222-7.292 7.554-17.87 4.556-10.77.368-.762 9.782-31.046 6.834-21.688 3.78-9.448 8.026-36.986.796-3.892.506-1.962.894-5.784 5.394-34.968 3.67-17.134 4.99-53.522-.676-26.708.156-12.588-2.86-42.338l46.818-5.296s-3.994-50.79-16.294-85.772c-12.3-34.98-39.338-78.406-39.338-78.408l-40.148 24.162c-46.72-86.034-139.302-148.38-233.538-169.084l11.908-50.738c-30.654-7.088-61.898-11.286-93.348-12.094zm2.818 98l10.194.206c31.456 1.848 63.078 7.268 92.69 18.196l-14.238 40.246c57.542 18.006 108.462 56.494 142.174 105.772l30.114-23.084c.002 0 29.282 39.56 43.242 82.446 15.21 46.722 13.42 93.488 13.42 93.488l-37.366-.844.118 4.594c.048 45.938-11.67 90.956-33.836 131.26l33.06 17.368c.002.002-28.034 52.572-72.174 90.354-47.2 40.402-104.514 59.08-104.514 59.08l-11.632-36.49c-29.262 10.758-60.208 14.438-91.222 15.212-24.708-.446-49.908-2.53-73.636-9.812l-9.894 38.452c.002 0-64.516-16.43-113.318-54.474-49.952-38.938-77.536-86.126-77.536-86.126l34.944-20.866c-27.292-43.724-39.574-92.982-40.878-143.958l.148-5.796-43.418.574c.002 0-.532-49.37 14.166-92.016 16.014-46.458 43.986-83.918 43.986-83.918l33.642 26.024c33.984-50.064 85.37-89.498 143.884-107.458l-15.004-41.5c33.324-10.212 67.984-16.228 102.884-16.93zM473.24 420.07c-57.096 0-103.38 45.702-103.38 102.076 0 56.376 46.284 102.078 103.38 102.076 57.096.002 103.38-45.7 103.38-102.076 0-56.374-46.284-102.076-103.38-102.076z"/></svg>