<svg xmlns="http://www.w3.org/2000/svg" viewBox="0 0 32 32"><path fill="#000" d="M9.597 6.217c.647-.002 1.279.136 1.904.288 1.009.315 1.986.766 2.801 1.449.698.535 1.198 1.271 1.699 1.984 1.035-1.695 2.712-3.052 4.686-3.432l-.084-.033c.984-.231 2.037-.396 3.024-.088 1.284.398 2.278 1.472 2.758 2.705a7.293 7.293 0 01.246 4.602l.007.018c-.505 1.491-1.291 2.994-2.583 3.939-.234.175.2.175.291.099.498-.376.994-.759 1.502-1.122.631.885.959 2.017.644 3.085-.541 2.088-2.205 3.638-3.861 4.904-.743.579-1.565 1.042-2.346 1.565 3.937-1.33 7.661-4.051 9.202-8.03 1.052.662 2.035 1.593 2.374 2.826.383 1.567-.272 3.273-1.491 4.3-.441-.837-1.314-1.571-2.316-1.398-1.136.258-1.905 1.21-2.79 1.892-2.587 2.232-5.835 3.74-9.25 4.047-3.465-.302-6.756-1.849-9.366-4.123-.853-.659-1.601-1.575-2.697-1.816-.972-.162-1.845.52-2.273 1.34l-.221-.066C.429 24.107-.195 22.589.11 21.118c.292-1.299 1.312-2.281 2.403-2.966 1.401 3.646 4.673 6.208 8.189 7.677.348.122.688.267 1.037.391-2.058-1.337-4.206-2.729-5.53-4.86-.739-1.183-1.141-2.753-.454-4.054.144-.203.226-.579.505-.609.537.401 1.058.827 1.659 1.131-.995-1.103-1.951-2.301-2.415-3.732-.545-1.482-.502-3.146-.023-4.638.416-1.301 1.352-2.488 2.649-2.986a3.76 3.76 0 011.04-.238c.142-.013.284-.011.427-.017zm6.468 13.761l-.065.003c-.71-.056-.845.802-1.245 1.207-.305.17-.639-.071-.944-.122.238 2.034.984 4.026 2.19 5.685a12.189 12.189 0 002.187-5.687c-.305.049-.637.297-.941.122-.399-.426-.504-1.156-1.183-1.208zm-6.209-8.32c-1.033.092-.593.027-1.324.156.106.137.211.274.319.409.026.576-.025 1.2.296 1.71.432.789 1.339 1.261 2.232 1.202.596-.021 1.302-.258 1.735.3.104-.905.343-1.842.092-2.74-.134-.515-.669-.736-1.141-.835-.516-.097-.714-.145-1.32-.185-.296-.02-.593-.011-.889-.016zm12.091-.005c-.7.018-.4.001-.899.037-.735.124-1.675.096-2.151.771-.418.938-.114 1.999-.007 2.973.477-.607 1.253-.271 1.897-.297.915.002 1.809-.56 2.171-1.405.309-.614-.021-1.392.479-1.928-.489-.113-.99-.13-1.49-.151zM19.22 2.184c.747.007 1.48.144 2.199.333 2.859.834 5.314 2.988 6.456 5.744.774 1.814 1.035 3.8 1.066 5.758-.069 1.388-.15 2.8-.583 4.133-.427 1.276-1.113 2.459-1.961 3.499.512-.824 1.009-1.7 1.076-2.691.14-1.132-.262-2.26-.939-3.158.782-1.094 1.325-2.382 1.344-3.744.134-2.351-.759-4.965-2.854-6.235-1.01-.655-2.242-.789-3.415-.702-2.134.203-4.158 1.233-5.607 2.806-1.451-1.571-3.471-2.605-5.606-2.806-1.174-.082-2.407.04-3.415.698-2.192 1.332-3.074 4.115-2.831 6.565.059 1.25.606 2.412 1.316 3.422-.678.896-1.08 2.027-.939 3.158.076.98.55 1.86 1.073 2.671-1.332-1.585-2.2-3.562-2.392-5.629-.302-2.438-.102-4.967.738-7.284 1.037-2.894 3.493-5.216 6.418-6.139 1.684-.523 3.575-.588 5.216.117.14.041.281.089.419.14.14-.051.282-.096.427-.135a6.489 6.489 0 012.157-.509c.212-.014.425-.01.637-.015z"/></svg>
