<svg xmlns="http://www.w3.org/2000/svg" viewBox="0 0 1024 1024"><path d="M950.779 454.257l59.107 101.217c4.497 7.791 5.828 8.62 12.809 8.945v3.668h-75.974v-3.668c15.293-.195 19.35-1.331 19.35-5.779 0-1.835-.891-3.864-2.727-7.159l-11.233-19.026h-43.619l-8.508 17.062c-1.574 3.166-2.272 4.934-2.272 6.786 0 5.632 4.934 7.922 16.867 8.117h2.207v3.668h-46.735v-3.668c6.98-.324 10.341-1.655 13.766-5.455 2.224-2.857 4.692-6.656 7.175-11.802l46.281-92.906h13.507zm-21.818 37.613l-17.109 33.929h36.46l-19.35-33.929zm-255.42-14.903h-.437v73.359c0 10.472 4.756 13.571 21.362 14.092v3.668h-51.688v-3.668c7.436-.324 12.37-1.852 15.925-4.644 2.727-2.142 3.622-4.495 3.622-8.294.242-.635.242-1.852.242-3.49v-80.471l-4.497-3.994c-2.727-2.483-5.39-3.994-8.117-4.448-2.029-.502-2.922-.502-8.052-.698v-3.603h62.013l78.896 71.021h.437V471.95c0-5.958-.698-7.921-3.166-9.885-3.116-2.355-8.067-3.686-14.853-3.686h-3.101v-3.603h50.357v3.603c-13.701.521-18.652 3.686-18.652 11.933v99.43h-17.565l-102.726-92.774zm-234.494 91.119v-3.668h5.193c6.282 0 10.341-1.154 12.809-3.62 2.029-1.835 2.468-4.188 2.468-9.952v-78.701c0-5.958-.437-8.117-2.468-9.952-2.922-2.792-6.526-3.62-15.73-3.62h-3.603v-3.799H571.01v31.77h-5.212c-2.466-16.364-14.138-24.984-34.106-24.984h-26.575v45.844h4.756c15.032 0 22.451-7.613 24.286-24.675h5.146v55.682h-5.146c-.959-9.578-3.166-15.097-8.376-19.529-3.799-3.685-8.052-4.821-15.91-4.821h-4.756v37.419c0 9.122 1.591 10.65 11.916 10.65h11.931c12.809 0 18.198-1.007 26.056-4.497 5.39-2.485 9.902-5.779 13.068-9.643 4.058-4.756 5.129-6.915 7.419-14.075h4.951l-7.678 34.171H439.047zM287.927 461.87c3.864 0 6.786.195 9.708.698 10.974 1.785 17.939 10.6 17.939 22.646 0 7.663-2.468 14.269-6.461 18.393-4.562 4.497-11.039 6.332-22.516 6.332v-.002h-7.613V461.87h8.945zm14.204-7.095h-89.219v3.604h5.39c6.282 0 10.341 1.152 12.809 3.685 1.768 1.964 2.466 4.123 2.466 9.887v78.896c0 5.763-.698 8.117-2.466 9.952-2.468 2.466-6.786 3.62-12.809 3.62h-4.497v3.668h85.859v-3.668h-5.21c-6.526 0-10.325-1.154-12.809-3.62-2.029-1.835-2.662-4.188-2.662-9.952v-34.432h4.951l40.211 51.671h56.624v-3.668c-7.419-.195-12.564-2.485-16.623-7.939l-32.582-42.417c19.773-5.325 29.222-14.578 29.222-28.848 0-9.269-5.195-16.997-14.838-22.646-9.887-5.634-22.257-7.793-43.815-7.793zM60.218 491.87l19.333 33.929h-36.46l17.126-33.929zm21.753-37.613H68.529l-46.298 92.906c-2.468 5.146-4.951 8.945-7.224 11.802-3.36 3.799-6.721 5.13-13.701 5.455v3.668h46.737v-3.668h-2.224c-11.916-.195-16.867-2.485-16.867-8.117 0-1.852.698-3.62 2.224-6.786l8.556-17.062h43.636l11.216 19.026c1.77 3.296 2.727 5.325 2.727 7.159 0 4.448-4.058 5.584-19.333 5.779v3.668h75.957v-3.668c-6.965-.324-8.361-1.154-12.809-8.945L81.971 454.257z"/></svg>