<svg xmlns="http://www.w3.org/2000/svg" viewBox="0 0 1024 1024"><path d="M728.399 572.52c0 20.236 16.445 36.681 36.681 36.681 20.234 0 36.664-16.445 36.664-36.681 0-20.234-16.43-36.664-36.664-36.664-20.236 0-36.681 16.43-36.681 36.664zm36.681-98.878c54.485 0 98.877 44.326 98.877 98.877 0 54.485-44.392 98.895-98.877 98.895-54.554 0-98.895-44.409-98.895-98.895 0-54.552 44.341-98.877 98.895-98.877zm0-32.288c-72.491 0-131.234 58.743-131.234 131.166 0 72.441 58.743 131.185 131.234 131.185 72.422 0 131.232-58.743 131.232-131.185 0-72.422-58.81-131.166-131.232-131.166zm252.441 58.424l6.219 100.705-64.108 19.128c-2.481 10.143-5.7 20.035-9.69 29.539l43.942 54.554-62.147 68.432-60.37-30.913c-9.305 5.699-34.251 24.878-29.339 14.937 2.348-4.794-2.364 73.144-2.364 73.144l-101.961 1.241-21.408-66.203c-10.093-2.616-19.85-6.086-29.271-10.226l-48.802 49.12-75.827-70.914 35.692-55.743c-6.42-10.344-11.919-21.342-16.312-32.876l-75.373-5.885v-90.764l66.019-13.696a199.35 199.35 0 0 1 11.45-37.386l-43.94-58.407 63.454-70.864 52.524 41.392c10.209-6.873 21.158-12.909 32.608-17.821l6.89-75.827h92.071l11.383 62.281a193.123 193.123 0 0 1 49.389 14.804l49.891-50.964 73.412 60.972-40.269 59.918c8.317 12.254 15.256 25.482 20.688 39.431l65.55-1.108zm-795.265-5.632c0 20.234 16.43 36.731 36.664 36.731 20.236 0 36.681-16.497 36.681-36.731 0-20.236-16.445-36.681-36.681-36.681-20.234 0-36.664 16.445-36.664 36.681zm36.664-98.828c54.485 0 98.895 44.343 98.895 98.828 0 54.552-44.409 98.877-98.895 98.877-54.552 0-98.877-44.326-98.877-98.877 0-54.485 44.326-98.828 98.877-98.828zm0-32.356c-72.489 0-131.232 58.743-131.232 131.185 0 72.489 58.743 131.232 131.232 131.232 72.441 0 131.185-58.743 131.185-131.232 0-72.441-58.743-131.185-131.185-131.185zm252.46 58.426l6.219 100.772-64.108 19.062c-2.499 10.226-5.7 20.05-9.69 29.606l43.94 54.552-62.147 68.367-60.387-30.915c-9.288 5.767-34.183 24.895-29.338 15.005 2.364-4.796-2.347 73.144-2.347 73.144l-101.963 1.241-21.425-66.205a201.615 201.615 0 0 1-29.271-10.276l-48.785 49.104-75.894-70.849 35.693-55.724c-6.354-10.361-11.853-21.359-16.312-32.876L.258 559.428v-90.764l66.002-13.681a199.76 199.76 0 0 1 11.467-37.335l-43.94-58.407 63.454-70.864 52.524 41.392a196.818 196.818 0 0 1 32.539-17.872l6.941-75.776h92.071l11.401 62.215a196.66 196.66 0 0 1 49.37 14.87l49.91-50.949 73.344 60.957-40.218 59.866c8.332 12.305 15.273 25.465 20.704 39.48l65.551-1.172z"/></svg>