<svg xmlns="http://www.w3.org/2000/svg" viewBox="0 0 1024 1024"><path d="M938.602 343.266q24.398 0 44.206 2.656 19.81 2.658 41.308 8.698v70.054h-32.852q-5.798-27.298-18.36-40.222-12.56-12.922-32.852-12.922-38.168 0-57.734 36.596-19.568 36.598-19.568 108.584 0 66.914 17.876 101.338t52.42 34.424q17.634 0 28.746-5.92 11.112-5.918 17.756-17.754 6.642-11.838 11.474-33.336h33.094v73.194q-26.572 6.28-48.554 9.18-21.982 2.898-45.656 2.898-50.246 0-82.012-18.116-31.766-18.118-46.864-54.716t-15.098-92.64q0-52.42 17.756-91.192 17.754-38.772 52.298-59.788t82.616-21.016zm-501.386 32.128q20.774 0 34.06 6.28 13.286 6.282 20.172 21.138 6.884 14.856 6.884 39.98 0 25.364-6.884 40.34-6.886 14.978-21.138 21.862-14.252 6.886-38.41 6.886h-20.774V375.878q9.18-.484 26.09-.484zm-286.112 35.028l38.65 136.002H102.79l48.314-136.002zm53.87-64.982h-64.5L39.742 613.82q-6.28 17.152-11.836 26.332-5.556 9.178-12.32 14.494-6.764 5.314-15.702 6.28v15.944h103.148v-15.944q-25.122-1.69-25.122-25.364 0-10.146 2.174-19.206 2.174-9.058 5.556-18.72l7.97-22.95h103.15l6.522 23.674q3.866 14.012 5.556 23.19 1.692 9.18 1.692 16.668 0 10.146-6.04 15.702-6.038 5.556-18.6 7.006v15.944h254.466v-15.944q-10.87-1.932-16.064-4.59-5.194-2.656-7.972-6.642t-3.986-10.63q-1.208-6.642-1.208-22.586v-77.302q14.978.966 38.41.966 40.582 0 67.638-12.198 27.056-12.2 41.308-35.874 14.252-23.672 14.252-55.802 0-45.414-30.436-67.276-30.438-21.862-91.554-21.862H310.392l.002 15.944q9.178 2.416 14.372 5.436t7.73 7.85q2.536 4.832 3.14 12.562t.604 19.084v208.23q0 11.596-.724 19.204-.724 7.61-3.262 12.562-2.536 4.952-7.73 7.73c-3.464 1.672-5.936 2.856-10.008 3.996-4.986-1.264-7.714-3.006-11.466-5.686q-5.798-4.712-9.422-12.32-3.624-7.61-8.938-25.728L204.974 345.44zm437.564 64.98l38.65 136.002h-86.964l48.314-136.002zm53.868-64.98h-64.498L531.176 613.82q-6.282 17.152-11.838 26.332-5.556 9.178-12.32 14.494-6.764 5.314-15.702 6.28v15.942h103.15v-15.942q-25.122-1.69-25.122-25.364 0-10.146 2.174-19.206 2.174-9.058 5.554-18.72l7.972-22.95h103.15l6.522 23.674q3.866 14.012 5.556 23.19 1.692 9.18 1.692 16.668 0 10.146-6.04 15.702t-18.602 7.006v15.942h133.346v-15.942q-10.388-2.174-16.184-6.884-5.798-4.712-9.422-12.32-3.624-7.61-8.938-25.728L696.406 345.44z"/></svg>