<svg xmlns="http://www.w3.org/2000/svg" viewBox="0 0 672 1024"><path d="M329.417 701.815H227.466c-31.131 64.495-22.878 168.54-22.878 168.54s-72.82-97.814-72.82-212.251c0-114.437 81.191-228.874 81.191-228.874 18.739-8.276 81.096-10.392 81.096-10.392s-47.85-101.953-135.199-74.842C71.412 370.989 44.419 468.803 44.419 468.803c37.478-22.878 118.574-27.087 118.574-27.087s-74.959 87.444-74.959 212.25c0 124.831 141.548 305.855 141.548 305.855S.684 914.089.684 543.667c0-367.13 286.199-435.717 333.788-436.915h2.282c43.733 0 334.988 66.587 334.988 437.009 0 370.328-228.898 416.154-228.898 416.154s141.548-181.024 141.548-305.949c0-124.805-74.959-212.25-74.959-212.25s81.096 4.209 118.574 27.087c0 0-26.993-97.814-114.437-124.807-87.349-27.11-135.199 74.842-135.199 74.842s62.356 2.116 81.096 10.392c0 0 81.191 114.531 81.191 228.968l-72.82 212.157s8.253-104.045-22.878-168.54H329.417z"/></svg>