<svg version="1.0" xmlns="http://www.w3.org/2000/svg" viewBox="0 0 400 400"><path d="M196.5 32.6c-8.9 1-26 4.6-34.6 7.4-25.8 8.5-46.8 21.2-66.7 40.4C81.6 93.6 81.6 93 95.8 93h11.8l7-6c36.4-31.7 86.3-43.8 133.3-32.5 59.8 14.5 104.7 63.8 113.7 124.8 2.1 14.5 1.4 37.9-1.6 51.9-4 19-12 37.5-23.3 54.3-8.6 12.6-27.5 31.4-40.3 39.8-34.2 22.6-74.7 30.5-114.8 22.2-23.7-4.9-49-17.6-66.9-33.5l-6.8-6H96c-6.6 0-12 .4-12 .8 0 1.6 20.7 21 28.6 26.8 21.5 16 44.7 25.9 71.9 31 15 2.8 44 2.6 59.4-.5 68.1-13.5 119-63.7 134.3-132.6 2-8.8 2.2-12.9 2.2-33s-.2-24.3-2.2-33.2c-3.4-15.5-7.6-27.4-14.8-41.8C354.9 108.3 346 96 332 81.9c-25.4-25.5-55.4-41.2-90.5-47.5-8.7-1.5-36.8-2.6-45-1.8z"/><path d="M189.5 60.5c-22.7 4-43.9 13.2-62.7 27.4-2.7 1.9-4.8 3.9-4.8 4.3 0 .4 14.8.8 32.9.8h32.9l2.2-3.4c3.2-5.3 8.4-9.4 14.2-11.1 18.7-5.5 34.1 5.6 35.6 25.7.4 6-1.2 26.7-2.4 30.9-.3 1.3 1.6 2.8 7.3 5.9 10.5 5.8 22.5 17.8 27.7 27.9l3.8 7.3 4.7-.6c26.1-3.4 35.6-2.8 43.9 2.7 8.4 5.7 11.8 13.3 10.9 25-.9 12.7-9.1 21.4-22.4 23.6-6.4 1.1-21 .4-33.4-1.5l-3.7-.6-3.8 7.3c-5.1 10-18.1 23-28.2 28.2-5.5 2.9-7.2 4.3-6.8 5.5.3.9 1 6.8 1.7 13 1.6 15 .8 24.5-2.5 31-9.1 18-35.9 19-46.6 1.6l-2.2-3.4h-33.6l-33.7.1 3 2.5c17.2 14.5 43.1 26 67.5 30 12.8 2.1 39.9 1.4 52-1.5 26.3-6.1 48.4-18 67.7-36.4 17-16.3 29.3-35.7 36.7-57.8 5.1-15.2 6.9-26.8 6.9-44.4 0-17.6-1.8-29.2-6.9-44.4-15.8-47.5-54.9-82.7-104.4-94.3-11.4-2.6-41.8-3.4-53.5-1.3z"/><path d="M205.3 92c-5.1 3-6.3 6.5-6.3 17.7 0 8.9 3.5 37.2 6.1 49.2l1 4.8h13.7l1.1-5.6c5.2-26.9 7.4-54.2 4.8-60.3-3-7.2-13.3-10.2-20.4-5.8zM28.4 113.4c-1.8 4.1-4.7 10.9-6.3 15l-2.9 7.6h37.7c42.2 0 45.2.4 50.8 6.2 5 5.4 5.7 7.6 6.3 19.6l.5 11.3 9.2.4c5.1.3 12.3.9 16 1.5 10.1 1.4 9.7 1.6 13.3-5.4 6.2-12.3 17.3-23.2 30-29.6l5.6-2.8-1.2-9.4c-.7-5.1-1.3-12.1-1.3-15.6l-.1-6.2H31.9l-3.5 7.4z"/><path d="M50.6 155.2c-4.1 15.7-4.8 20.7-5.3 40.4-.6 21.6.6 32.7 4.8 48.6l2.1 7.8h9.4c5.2 0 9.4-.3 9.4-.8 0-.4-1.1-4.4-2.5-8.9-7.6-26.2-7.3-60.3 1-86.7.8-2.7 1.5-5.3 1.5-5.8 0-.4-4.2-.8-9.4-.8h-9.3l-1.7 6.2z"/><path d="M79.5 152.4c-2.7 6.4-6.3 22.1-7.6 32.7-2.1 18.7.2 41.6 6.2 59.4l2.4 7 7.6.3c6.9.3 8 0 10.5-2.1 2.7-2.3 2.8-2.8 3.2-13.8l.4-11.4-4.9-5c-5.5-5.7-7.3-10.4-7.3-19s1.8-13.3 7.3-19l4.9-5-.4-11.4c-.4-10.9-.5-11.5-3.2-13.7-2.3-2.1-3.8-2.4-10.2-2.4h-7.5l-1.4 3.4zM207 176.9c-7.4 2.4-13.8 8-16.4 14.3-.9 2.1-1.6 6.2-1.6 9.3 0 13.7 10.2 23.9 24 23.9 7.8 0 13.1-2.4 18.2-8.4 12.8-14.9 3.1-38.1-16.6-39.6-2.8-.2-6.2 0-7.6.5zM110.3 187.9c-5.6 2.6-7.7 6.1-7.7 12.7 0 6 2.2 9.9 7 12.4 4.4 2.3 21.9 1.7 41.9-1.5 9.4-1.4 18.7-2.9 20.8-3.2l3.7-.6v-14.4l-3.7-.6c-2.1-.3-11.3-1.7-20.5-3.1-9.3-1.5-21.4-2.9-27-3.2-8.9-.4-10.9-.2-14.5 1.5zM287 187.6c-6.3.8-17.3 2.5-24.4 3.7l-12.8 2.2v14l3.3.7c12.5 2.6 40.2 6 49.4 6.1 12.4.2 16.3-1.1 19-6.3 1.9-3.7 1.9-11.3 0-15-3.4-6.5-13.6-8.1-34.5-5.4z"/><path d="M139 226.1c-3 .4-9.8 1-15 1.3l-9.5.5-.5 11.3c-.6 12-1.3 14.2-6.3 19.6-5.6 5.8-8.6 6.2-50.8 6.2H19.1l2.5 6.7c1.4 3.8 4.4 10.6 6.7 15.3l4.2 8.5h153l.7-10.2c.4-5.6 1.2-12.7 1.6-15.8l.9-5.5-6.6-3.5c-12.6-6.7-23-17-29.2-29.2-3.5-7-3.2-6.8-13.9-5.2zM205.1 242.1c-2.4 11.3-6.2 40.8-6.3 49.3-.1 10.5 1.4 14.5 6.5 17.6 6.6 4 16.6 1.5 20-5 1.6-3 1.8-5.2 1.3-16.5-.5-12.2-1.4-19.3-5.2-41.1l-1.6-9.1h-13.7l-1 4.8z"/></svg>
