<svg version="1.0" xmlns="http://www.w3.org/2000/svg" viewBox="0 0 800 800"><path d="M399.3 111.2c-.4.7-2.2 4.4-4.1 8.2-6.7 14.1-17.9 29.4-31.2 42.6-6.9 6.9-14 13.7-15.9 15-1.9 1.4-3.9 3-4.5 3.5-4.2 4-16.6 11.5-31.8 19.3l-10.7 5.5 4.2 8.1c5.5 10.6 10.7 23.5 13.2 33.1 2.9 11.1 3.6 22.9 1.8 32.6-1.9 10.3-5.7 17.5-13.7 25.4-9.4 9.3-16.6 12.9-34.6 17.2-1.4.4-7.2.6-13 .7-15.7 0-24.6-3.8-35.3-14.9-4.3-4.5-10.3-15.2-12.8-22.5-2.8-8.4-3.9-14.5-4.6-25-.2-4.7-.9-8.9-1.4-9.4-.5-.6-2.3-.5-4.6.2-7 2-11.8 3.1-16.3 3.7-2.4.4-4.7.8-5 1-1.2.7-19.3 2-29 2-10.8 0-27.8-1.3-29.4-2.3-.5-.3-2.3-.6-4-.8-3.3-.4-8.7-1.8-15.1-4-6.2-2.1-6.7-1.9-6 2.3.4 2.1.9 4.5 1.2 5.3.4.8.8 2.8 1 4.5.3 1.6.8 3.5 1.3 4 .5.6 1.1 2.8 1.4 5 .3 2.2 1.1 7.4 1.8 11.5 2.1 12.8 1.5 52.3-.9 56.3-.2.4-.6 2-.9 3.5-.3 1.5-.7 3.4-1.1 4.2-.3.8-.7 2.2-.9 3-.2.8-.8 2.4-1.3 3.7-.6 1.3-1.5 3.3-2 4.5-.5 1.3-1.3 3.5-1.9 5-1 2.5-.9 2.7 1.8 3.3 1.6.4 3.2.6 3.5.6.2 0 1.9.5 3.7 1 1.8.6 4.1 1.2 5.1 1.4 4.1.9 17.6 5.9 22.2 8.2 8.1 4.2 13.6 8.2 21 15.7 13.4 13.5 20 30.6 20 51.2-.1 12.9-2.5 21.3-9.8 33.7-2.3 3.8-18.3 20.7-19.7 20.7-.4 0-2 1.1-3.6 2.5s-3.4 2.5-4 2.5c-.6 0-1.9.9-2.8 1.9-1.7 1.9-1.7 2.3.8 9.8 1.4 4.3 2.8 8.9 3.1 10.3.2 1.4.9 4.5 1.5 7 1.7 7.9 2 9.4 2.7 14 1.8 11.4.5 46.7-1.9 50.6-1.6 2.5 1.3 3.2 15.2 3.9 8 .4 14.7.8 15.1 1 .3.2 2.8.7 5.5 1 16.3 2.1 32.5 7.9 50.3 18 2.2 1.2 2.9 1 10-3.8 9.9-6.7 10.1-6.9 20.1-11.7 14.2-7 22.8-9.8 38.5-12.9 6.2-1.2 37.1-1.3 41.6-.1 1.9.5 4.8 1.1 6.4 1.4 4.3.7 14.7 3.5 17 4.6 15.7 7.1 19.1 7.6 17.5 2.1-1.2-3.9-10.1-22.5-15.2-31.6-2.5-4.4-5.7-10.3-7.3-13-26.8-47.9-78.4-113.9-130.2-166.6-7.8-8-14.3-14.9-14.3-15.4s1.2.3 2.8 1.6c1.5 1.4 9.5 8.6 17.7 15.9 36.5 32.6 83 81.8 111.1 117.5 15.2 19.3 36.7 50.3 43.3 62.5 9.5 17.3 10.1 17.5 10.1 3.2 0-6 .9-42.8 2-81.8s2.4-88.5 3-109.9c.5-21.5 1.2-45.5 1.5-53.5.2-8 .7-26.3 1.1-40.8.4-14.4.9-26.1 1.1-25.9.4.5 1 17.8 1.8 49.2.7 29.2 1.4 53.8 2 73.5.3 8.5.7 25.2 1 37 .5 21.3 1.2 45.1 2 71 .2 7.4.8 25.6 1.2 40.5.4 14.8.7 28.6.8 30.5 0 1.9.2 7.4.3 12.2.1 4.9.6 8.8 1 8.8.5 0 1.9-1.9 3.2-4.3 22.9-41.1 59.5-89 100.4-131.4 6.2-6.5 12.5-13.2 13.9-14.9 5.6-6.6 60.5-57.4 64.7-59.9.8-.4-3.2 4.1-9 10.1-60 62.1-101 114.6-135.1 172.4-9.1 15.5-19.9 39.1-19.9 43.3.1 3.5 1.6 3.8 7.1 1.4 9.9-4.4 19.1-7.2 31.9-9.7 6.3-1.2 35-1.2 40.7 0 2.1.5 5.2 1.1 6.8 1.4 4.8.8 14.7 3.5 18 5 1.7.7 6.2 2.6 10 4.1 3.9 1.6 7.5 3.2 8 3.6.6.4 3.3 1.9 6 3.4 2.8 1.5 8 4.9 11.7 7.6l6.8 4.9 3.2-2c8-4.9 24.3-11.8 31.8-13.5.8-.2 3-.8 4.8-1.4 1.8-.5 3.5-1 3.7-1 .3 0 1.5-.3 2.8-.6 1.2-.2 3.6-.6 5.2-.9 1.7-.2 4.8-.7 7-1.1 4.5-.7 13.7-1.2 23.8-1.4l6.9-.1-.6-2.7c-.4-1.6-.9-3.9-1.2-5.3-2.9-13.3-2.6-38 .6-54 1.2-5.7 2.4-10.8 2.7-11.3.3-.4.7-2.3 1-4 .2-1.8.9-3.6 1.4-4.2.5-.5.9-1.9.9-3.1 0-1.3.4-2.5.9-2.8.5-.3 1.1-1.9 1.3-3.6.4-2.7 0-3.3-4.5-6.1-6.6-4-7-4.4-15.1-12.4-12.8-12.6-16.7-19.2-20.5-34.7-2.9-11.8-2.8-15.6 1-31.8 1.3-5.4 1.8-6.8 5.5-14.5 6.2-12.8 16.6-23.4 29.9-30.5 1.7-.9 3.9-2.1 5-2.7 1.1-.6 3.1-1.5 4.5-2.1 1.4-.5 4.2-1.7 6.2-2.6 2-.9 5.1-1.9 7-2.2 1.8-.3 4.2-.9 5.3-1.4 1.1-.5 4.4-1.4 7.3-2 2.8-.7 5.2-1.4 5.2-1.6 0-.3-.7-1.8-1.5-3.4-.9-1.7-1.3-3-1-3 .3 0 0-1-.7-2.3-.6-1.2-1.3-3.1-1.5-4.1-.2-1.1-.8-2.4-1.3-3-.5-.7-1.1-2.3-1.3-3.6-.2-1.4-.6-3.2-1-4-.5-1.4-.8-3-2.7-16-.7-5.3-.5-32.8.3-38 .3-1.4.7-4.1 1.1-6 .3-1.9.8-4.7 1-6.3.3-1.5.7-3.5 1-4.5.3-.9.7-2.8 1-4.2.5-2.7 1.3-5.8 2.2-9.3.3-1.2.8-3.7 1.1-5.4.5-3.3.5-3.3-2.8-2.7-1.9.4-3.8 1-4.4 1.4-1 .7-3.8 1.4-12.5 2.8-2.5.4-5 1.1-5.5 1.4-1.6 1-18.3 2.3-29 2.3-10 0-28.3-1.3-29.7-2.2-.4-.2-2.9-.7-5.5-1-2.7-.3-5.6-1-6.5-1.5-1-.5-1.8-.7-1.8-.4 0 .3-2.1-.1-4.7-.9-7.1-2.2-7.3-2.1-7.3 3.1 0 11.5-3.9 27.8-9.4 39.4-3.7 7.8-4.6 9-11.4 15.7-13.1 12.9-31.4 16.2-54 9.7-26.9-7.8-41-25.5-41-51.2 0-12 3.6-27.4 9.5-41.2 2.9-6.6 8.2-17.2 9.4-18.6 2.2-2.7 1.1-3.7-10.1-8.8-6.5-3-16.5-8.7-18.2-10.4-.7-.7-1.8-1.2-2.5-1.2s-1.3-.5-1.3-1c0-.6-.7-1-1.5-1s-1.5-.3-1.5-.8c0-.4-1.8-1.8-4-3.2-2.2-1.4-4-2.8-4-3.2 0-.4-.9-.9-1.9-1.3-3.1-.9-25.8-24.1-32.3-32.9-6.8-9.1-15.8-24.1-18.3-30.4-1.8-4.3-2.8-5.1-4.2-3zM401.8 631c-.3.8-1.3 7.3-2.3 14.4-2.1 15.7-7.1 37.4-12 52.1-5.8 17.5-12.9 31.4-23.1 45.2-1.5 2.1-1.5 2.5-.1 4.7 2.8 4.2 23.5 25.2 30.7 31.1l7 5.7 4.7-4c6.3-5.2 34.3-33.8 34.3-35 0-1.2-6.3-9.2-7.2-9.2-.4 0-.8-.6-.8-1.4 0-.7-.7-1.9-1.5-2.6-.9-.7-2.2-2.9-3.1-4.9-.9-2-2.9-6.8-4.6-10.6-4.4-10.1-4.4-10.1-7.7-20.5-5.7-18.1-11.8-46.9-13.4-63-.2-2-.5-2.8-.9-2z"/></svg>
