<svg xmlns="http://www.w3.org/2000/svg" viewBox="0 0 1024 1024"><path d="M308.963 489.32c-97.971 0-126.79-42.617-126.79-42.617S107.1 499.627 1.504 499.627v9.185h143.184c1.871-12.988 17.121-25.163 35.698-25.163 19.905 0 38.647 13.962 38.647 27.761 0 13.942-18.743 27.904-38.647 27.904-18.016 0-32.872-11.511-35.47-24.02H1.503v9.1c105.597 0 180.669 52.903 180.669 52.903s28.819-42.597 126.79-42.597v-45.38zm24.665 22.316c0-39.125 18.43-43.988 18.43-43.988l551.939 13.235c31.312 0 118.499-3.241 118.499 26.701 0 29.858-84.734 31.251-118.499 32.621l-551.939 16.167s-18.43-5.612-18.43-44.737z"/></svg>