<svg xmlns="http://www.w3.org/2000/svg" viewBox="0 0 901 772"><path d="M25.562 55.074 255.016 246.4c-32.965 42.63-46.286 92.082-39.964 148.357 11.854 100.315 87.887 156.308 160.025 161.552 93.814 7.105 139.396-27.158 180.684-67.666l161.041 128.904-47.923 58.362-91.95-58.362s-12.625 6.57-25.91 14.717c-.435.267-.87.533-1.306.797l-.87.526c-13.185 7.947-25.838 14.357-26.88 14.882l-.052.026-.017.01V758.63l-146.817 13.026-24.046-103.19c-23.143-4.512-43.577-11.165-61.3-19.962l-78.743 75.278-116.166-91.518 55.543-89.488c-11.064-13.759-19.87-31.803-26.417-54.133l-110.917-5.92L.5 335.719l104.99-24.191c2.37-24.698 8.523-44.378 18.458-59.039L25.562 55.074ZM525.923.656l24.046 103.19c23.143 4.512 43.577 11.165 61.3 19.962l78.743-75.278 116.166 91.518-55.543 89.488c11.064 13.759 19.87 31.803 26.417 54.133l110.917 5.92L900.5 436.593l-104.99 24.191c-2.37 24.698-8.523 44.378-18.458 59.039l98.386 197.415-229.454-191.326c32.965-42.63 46.286-92.082 39.964-148.357-11.854-100.315-87.887-156.308-160.025-161.552-93.814-7.105-139.396 27.158-180.684 67.666L184.198 154.765l47.923-58.362 91.95 58.362s12.625-6.57 25.91-14.717c.435-.267.87-.533 1.306-.797l.87-.526c13.185-7.947 25.838-14.357 26.88-14.882l.052-.026.017-.01V13.683L525.923.656ZM290.069 271.774l80.605 67.666c-12.87 12.688-22.522 46.52 5.419 68.681 22.522 17.255 51.987 9.304 66.55-11.672l78.235 63.436c-17.104 21.992-88.226 85.429-182.04 44.66-50.01-26.503-81.903-70.542-84.838-125.69-1.242-39.358 11.12-79.563 36.069-107.08Zm272.092-4.007c50.012 26.503 81.904 70.542 84.84 125.69 1.24 39.358-11.12 79.563-36.07 107.08l-80.605-67.665c12.87-12.688 22.522-46.52-5.419-68.681-22.522-17.255-51.987-9.304-66.55 11.672l-78.235-63.436c17.104-21.992 88.226-85.429 182.04-44.66Z" fill="#000" fill-rule="evenodd"/></svg>
