<svg xmlns="http://www.w3.org/2000/svg" viewBox="0 0 1024 1024"><path d="M511.544 169.733c24.24 46.57 41.506 96.13 63.92 143.448 54.622 4.732 104.182 29.718 154.904 46.57 45.99-18.096 89.406-42.004 135.394-60.184-12.286 46.57-32.374 90.568-43.996 137.304 34.036 34.284 59.686 75.874 82.1 118.46 40.178-2.158 80.274-5.478 120.454-7.138-27.478 36.276-56.866 70.976-84.592 107.088 13.78 45.656 23.244 93.54 19.26 141.372-1.11 13.306-12.422 47.246-19.508 28.972-40.898-105.476-105.926-205.542-203.052-266.89-99.284-62.924-226.876-86.086-339.61-47.566-147.182 43-255.822 170.858-306.902 312.13-3.916 10.834-16.358 3.194-18.096-7.056-9.088-53.57.58-107.918 14.196-159.718C56.96 620.581 27.906 584.719-.32 548.109c41.508 1.826 82.848 5.646 124.356 7.14 22.746-46.82 52.962-89.738 88.99-127.26-7.886-42.752-16.354-85.422-24.904-128.09 40.676 16.436 76.622 44.328 118.626 56.864 46.986-18.264 93.89-37.854 144.444-44.33 20.67-47.318 37.108-96.544 60.352-142.7zM187.042 835.087c-7.056 19.758-17.966 68.844 1.008 57.972 31.976-18.324 57.592-48.878 96.036-69.262 145.556-77.17 333.3-77.036 473.178 12.62 22.652 13.602 41.384 32.614 62.794 47.906 6.288 4.49 14.732 15.294 19.566 9.166 3.388-4.292 3.416-7.784 3.542-13.224.236-10.152-2.866-20.926-5.44-31.22-3.902-15.596-9.9-30.934-14.632-46-42.67-107.42-145.026-187.86-258.754-206.704-161.71-27.976-332.552 81.684-377.298 238.746z"/></svg>