<svg xmlns="http://www.w3.org/2000/svg" viewBox="0 0 960 1024"><path d="M671.43 285.573H542.681l4.221 54.647h128.727l-4.198-54.647zM269.802 340.22h128.727l4.221-54.647H274.001l-4.198 54.647zm125.942 109.126l1.393-46.251H268.388L229.164 857.98l14.01 7.006-8.313 30.826h-96.614s-7.004-23.822 11.225-39.224l41.946-454.799H55.665V341.55h141.367l5.591-54.564H66.89s-21.016-5.613-21.016-25.235V236.62H20.639s-19.538-4.198-19.538-21.014v-44.752s97.922 48.951 440.789 48.951h61.568c342.951 0 440.938-48.951 440.938-48.951v44.752c0 16.816-19.601 21.014-19.601 21.014H899.56v25.131c0 19.622-21.016 25.235-21.016 25.235H742.811l5.591 54.564h141.367v60.239H754.016l41.946 454.799c18.229 15.403 11.225 39.224 11.225 39.224h-96.616l-8.313-30.826 13.926-7.006-39.139-454.885H548.296l1.393 46.251H395.746z"/></svg>