<svg xmlns="http://www.w3.org/2000/svg" viewBox="0 0 29 32"><path d="M12.125 1.184c1.929-.881 4.326-.623 6.009.672.644.486.997 1.23 1.373 1.921 1.62-.057 3.165-.687 4.473-1.626.932.823 1.079 2.139 1.046 3.31 1.281.141 2.491-.358 3.553-1.024.429 1.197.684 2.511.392 3.77-.208.889-.836 1.606-1.573 2.115-.376-.38-.836-.736-1.406-.682-2.722-.02-5.443.008-8.163-.01-.662-.002-1.328-.302-1.716-.846-.727-1.001-1.12-2.19-1.534-3.343-.482 1.14-.832 2.36-1.586 3.361-.396.543-1.069.832-1.731.83-2.722.014-5.443-.014-8.163.01-.566-.051-1.005.329-1.402.676C.986 9.799.365 9.102.152 8.226-.136 6.965.105 5.647.534 4.448c1.075.644 2.272 1.157 3.559 1.018-.037-1.175.131-2.472 1.04-3.316 1.332.924 2.899 1.651 4.556 1.584a4.257 4.257 0 012.434-2.548zM2.478 13.55c-.356.02-.774-.031-1.054.241-.281.356-.272.566-.278 1.028v3.273l.003.058c.736 1.185 1.587 2.387 2.38 3.537.364-.11.725-.295.84-.721.014-.082.037-.162.043-.245.06-.819-.042-1.64.02-2.508 0-.485.389-.879.869-.879s.869.394.869.879l.019 1.667c.013 5.175-.068 1.842.037 5.31a36.692 36.692 0 002.852 3.128c.47.074.915-.374.885-.842.047-1.823-.049-3.651.039-5.474.1-.922 1.635-.926 1.731 0 .059 2.904.012 5.813.018 8.719.856.748 1.806 1.385 2.793 1.945a16.762 16.762 0 002.787-1.945c-.012-2.707.002-5.415-.008-8.122.002-.405-.031-.915.38-1.148.548-.411 1.463.029 1.391.74.033 1.761-.024 3.527.018 5.288-.02.47.421.905.893.842a35.013 35.013 0 002.846-3.132c.121-2.352-.024-4.72.067-7.076.039-.86 1.369-1.038 1.688-.264.219 1.079-.072 2.209.153 3.288.114.351.494.435.797.552.795-1.148 1.604-2.291 2.342-3.478.088-1.24.031-2.493.031-3.737.027-.505-.407-.952-.917-.909-3.069-.024-6.14-.008-9.209-.008-.85-.024-1.712.45-2.047 1.251-.711 1.62-.938 3.392-1.187 5.129-.384-1.757-.501-3.615-1.308-5.257-.378-.713-1.179-1.15-1.982-1.122-2.932-.008-5.866.004-8.8-.006z"/></svg>
