<svg xmlns="http://www.w3.org/2000/svg" viewBox="0 0 54 100"><path d="M0 50.247l.156-1.969H.095l.061-.032 2.059-26.239S3.241 40.154 6.3 45.399a55.392 55.392 0 014.002-1.403c3.306-8.657 4.467-34.379 4.467-34.379s.772 23.434 3.681 32.529a56.591 56.591 0 014.872-.51C26.329 30.448 27.146 0 27.146 0s.991 30.521 3.953 41.673c1.576.114 3.127.292 4.653.528 2.873-9.06 4.024-32.597 4.024-32.597s.931 25.864 3.941 34.449c1.319.409 2.617.871 3.89 1.376 3.338-5.179 4.513-23.388 4.513-23.388l1.592 26.224.067.034h-.063l.118 1.947s-26.689 8.691-26.689 49.485c0-40.601-27.146-49.485-27.146-49.485"/></svg>
