<svg xmlns="http://www.w3.org/2000/svg" viewBox="0 0 896 1024"><path d="M698.252 718.486l21.253 24.298 84.965-103.151-1.522-45.464-104.695 124.317zM149.084 456.082l-57.687-10.615 145.633 279.13s51.575 30.324 45.551-30.345l-133.497-238.17zm448.997-113.766l-45.462-45.549-27.278 430.897s5.96 57.602 51.488 45.529l21.251-430.877zM167.27 794.446L.384 484.971l45.549-121.424 130.429 27.278 130.517 230.622 12.071-327.66 154.813-148.702 178.959 166.886-18.272 351.957 109.351-121.335 106.131-9.18 9.178 112.331-82.007 109.177 30.345 6.047s72.806 45.549 72.806 84.966c0 39.503-42.395 42.569-42.395 42.569s-115.376 18.097-170.018 2.98c-54.557-15.14-130.43-9.093-218.462 18.186-87.946 27.365-142.502 3.045-206.304-27.279-63.734-30.345-221.442-12.158-221.442-12.158s-24.298-54.557 139.522-54.557c0 0 9.093-18.249 6.113-21.229z"/></svg>