<svg xmlns="http://www.w3.org/2000/svg" viewBox="0 0 752 1024"><path d="M527.201 222.875s55.683 106.817 55.683 176.609c0 69.588-81.191 185.733-81.191 185.733-4.664-37.228-37.111-125.474-53.408-167.281-16.297-41.689-48.744-109.09-48.744-206.578 0-97.487 67.314-211.359 67.314-211.359-239.142 78.918-292.55 225.265-292.55 355.318 0 129.934 95.184 304.154 95.184 304.154-32.447-37.229-83.582-92.911-125.387-148.623-41.776-55.682-74.341-169.436-74.341-169.436S.173 415.664.173 550.264c0 134.716 106.817 264.767 136.989 304.183 30.174 39.619 30.174 72.066 53.408 106.817 23.119 34.838 55.683 60.346 90.551 60.346 1.254 0 2.623 0 3.847.118L181.242 708.215l199.641 37.229-122.998-420.328 301.764 536.387-227.395-32.565 94.281 195.063h.785c32.565 0 78.918-4.664 123.114-44.08 44.196-39.503 90.52-157.95 116.029-215.907 25.626-58.189 86.001-137.107 86.001-269.431 0-213.634-225.265-271.706-225.265-271.706z"/></svg>