<svg xmlns="http://www.w3.org/2000/svg" viewBox="0 0 896 1024"><path d="M455.344 115.395c66.676 0 148.833 28.206 182.216 65.469l54.272 50.043 42.66 53.92 42.643 69.297 3.869 3.843c14.616 30.244 19.9 71.386 23.257 111.669l15.534 50.077 3.871 3.843v3.845l19.386 46.215c16.399 25.661-27.145 66.753-27.145 111.669v3.843c0 13.252 69.787 78.179 69.787 127.063v7.706c0 21.081-56.533 36.755-77.527 38.492V850.84c0-10.409-1.857-10.619-3.888-19.255l-19.564 2.825 13.165 27.382c-8.765 11.621-44.868 23.731-59.484 23.731h-3.869c-14.933 0-14.51-13.024-19.388-23.117H699.66l4.825 30.647c-16.507 1.44-53.318 2.352-70.141 5.038-23.91 3.773-23.875-8.021-23.875-39.545H598.84c-8.96 0-11.628 2.685-11.628 11.566v30.805c-14.438 3.335-28.947 7.687-46.513 7.687-2.067 0-8.518-5.528-11.628-7.687V877.8c-24.759-16.464-16.241-39.95-22.303-70.281-10.798-54.132-21.736-28.996-47.485-45.215-12.141-1.017-13.766-3.862-27.145-3.862h-77.527c-24.776 0-29.512 7.706-54.287 7.706-.408.176-87.849 19.256-89.156 19.256h-38.772c-22.125 0-38.577-5.214-50.401-15.394-27.32-14.375-62.046-44.039-69.786-77.02l-27.18-65.471-3.871-11.566v-3.845L5.643 531.244l-3.871-26.943v-3.86c0-161.22 36.828-184.81 119.216-266.639 54.624-54.255 161.893-118.409 268.455-118.409h65.9zm275.26 400.44c-8.253.019-5.125 1.405-15.534 3.879l-11.628 7.689-3.888 61.609-19.352 61.609c2.422 29.013 35.415.106 62.012 50.06 18.026-4.178 42.66-24.731 42.66-46.217v-11.566c0-13.269-2.881-14.903-3.888-26.943l-15.481-65.454c-3.727-5.547-29.175-34.666-34.901-34.666zm-197.769-76.984h-3.852c-73.834-.017-135.685 50.516-135.685 127.061 2.086 24.678 30.129 58.397 46.548 69.315 8.571 4.494 18.908 11.551 30.996 11.551h7.74c77.474 0 113.65-27.189 139.556-80.865v-7.706c.002-46.793-14.614-85.304-42.641-103.927-12.336-8.25-21.649-15.428-42.662-15.428zm205.472-57.783c-7.475.017-12.582 5.248-23.238 7.706l-3.871 3.86-3.905 3.826-7.74 7.689c-5.656 8.407-11.61 16.43-11.61 30.839 0 29.507 30.129 47.094 50.383 57.748 3.782 1.983 23.079 15.392 23.257 15.392 12.264 0 13.218-9.496 15.498-19.255v-7.689l3.869-7.723c0-41.441-4.948-92.396-42.643-92.396z"/></svg>