<svg xmlns="http://www.w3.org/2000/svg" viewBox="0 0 1024 1024"><path d="M512.326 157.986l72.028 127.189h77.522L560.022 438.2l181.014 189.297c-34.302 55.144-58.636 170.894-27.489 253.877H307.463c32.65-75.418 8.668-197.03-25.167-253.71L463.81 438.2 362.774 285.175h72.864l76.687-127.189zm128.676 289.498c43.67 12.993 250.202 167.921 232.183 433.889h149.383l-299.735-559.09-81.831 125.201zM301.184 322.266L1.432 881.373h149.367C132.778 615.389 339.311 460.46 382.982 447.467l-81.799-125.201zm317.807 352.041c0-43.471-25.853-80.913-62.995-97.763l-.768-138.829-43.554-260.357L467.77 438.7l-1.237 138.194c-36.707 17.051-62.174 54.26-62.174 97.396 0 59.269 48.046 107.317 107.315 107.317s107.317-48.031 107.317-107.3z"/></svg>