<svg xmlns="http://www.w3.org/2000/svg" viewBox="0 0 1024 1024"><path d="M573.234 74.316c12.632-.592 25.064 1.91 37.266 4.882 41.306 10.894 50.386 38.582 53.108 48.114 6.618 23.158 7.092 51.294 7.544 75.132-.004 20.048-2.29 40.124-8.014 59.378-.834 2.804-2.058 5.474-3.088 8.21l-.204 1.638c-.474 2.76-1.35 5.444-2.262 8.092-.472 1.372-1.252 2.616-1.878 3.924-11.338 20.444-36.614 9.83-44.218 15.16-7.606 5.33-13.504 15.852-6.458 25.834 8.882 12.586 8.806 8.22 12.33 14.092 5.166 8.61 4.11 15.852-7.218 27.996-22.188 23.786-32.428 45.518-26.936 55.98 7.576 14.43 30.382 20.062 41.422 21.662 24.654 3.574 62.406-3.288 75.748-6.55 34.044-8.322 41.61-12.86 66.574-25.722 28.586-14.726 50.652-32.874 69.736-60.292 5.596-8.942 8.858-13.388 10.264-16.94 10.17-25.682 12.616-38.958 13.288-60.968 0-61.84-28.132-111.972-62.834-111.972l-.002-.002c-15.58.002-29.836 10.11-40.816 26.844-.396.426-.684.988-1.188 1.274-4.542 2.588-4.68 5.686-17.528 1.384-13.104-4.388-14.642-14.106-15.072-46.578-.072-19.534 4.932-38.418 11.01-44.496 13.616-12.096 31.198-15.226 48.718-16.548 17.49.256 9.604-.204 23.676 1.014 131.71 82.55 216.406 232.392 216.882 387.73l-.042 2.982.042.028c-1.01 193.728-122.114 349.212-293.764 429.074 6.088-24.794 19.856-46.77 34.208-67.564 14.756-21.042 31.222-41.01 53.5-66.072.156-.176 11.336-9.874 15.9-14.15 2.706-2.532 5.154-4.948 7.358-7.282 4.92-5.21 8.534-9.89 10.752-14.392 3.93-7.972 3.8-16.406-3.334-22.35-3.62-2.624-7.37-4.386-11.972-4.408-6.204.656-3.572.096-7.97 1.286-4.82 1.556-9.814 4.446-15.706 8.764-11.428 9.15-22.758 18.474-33.728 28.178-17.88 14.528-36.436 29.508-59.926 32.612-2.452.226-4.924.024-7.386.038.324-3.986.322-7.99.35-11.986.01-1.562.014-2.246.024-3.096 2.55-19.062 4.326-23.238 7.274-29.39 1.394-2.91 7.764-15.792 9.404-19.196 3.53-7.318 6.322-13.486 8.736-19.456 10.626-25.708 12.324-33.132 12.572-40.686 0-28.598-30.222-51.78-67.506-51.78v-.002c-37.282.002-67.504 23.184-67.504 51.782.294 22.962 21.156 44.894 41.918 51.622 16.102 25.54 18.402 53.426 4.418 79.45-17.66 32.86-25.234 26.61-24.442 34.526 1.198 11.982 4.284 31.764 12.02 44.124 5.638 9.01 11.474 16.546 23.132 30.554 8.876 10.662 11.166 13.462 14.882 18.346 3.068 4.112 1.65 2.134 4.276 5.918-22.146 8.15-45.06 13.828-68.162 18.468-6.496-20.148-21.182-34.066-42.76-35.372-26.09 1.052-41.084 21.842-45.164 45.828L512 949.77c-17.758-.216-8.186.036-28.714-.888-3.612-24.392-19.488-44.172-45.144-45.724-20.65.482-35.752 15.472-42.318 34.11-25.832-5.166-50.96-13.168-75.678-22.164 10.102-5.486 18.42-13.288 26.516-21.29 22.522-16.342 34.814-46.062 39.944-72.694-2.684-3.03-1.342-1.532-4.028-4.494-13.85-9.014-22.794-25.022-27.16-40.62-.146-.404-.08-.182-.188-.67-2.182-7.798-1.32-3.896-2.616-11.7-1.216-8.55-1.28-17.162-.532-25.754.084-.97.356-1.914.532-2.87.728-7.786 2.83-15.238 5.86-22.404 1.494-2.482.388-.672 3.442-5.35 28.5-2.266 41.516-20.566 42.426-48.546 0-28.596-30.222-51.778-67.506-51.778-37.282 0-67.504 23.182-67.504 51.778 3.742 29.176 17.322 43.67 27.814 63.604 20.374 38.654 15.398 33.622 20.98 48.004 1.188 2.966 1.89 6.282 2.356 10.772.172 1.66.278 3.012.504 6.208l-5.306 1.59c-65.174-38.058-63.748-40.21-63.832-40.286-10.294-9.23-16.454-15.318-26.572-26.288-7.142-7.742-12.936-18.35-21.194-24.946-2.03-1.62-4.814-4.158-7.59-4.288-10.802 3.3-20.914 18.05 6.132 76.69 8.496 18.418 27.352 42.326 41.082 69.97 17.996 36.23 20.276 45.46 23.034 51.812C107.416 812.246 3.352 654.068.916 475.6l.024-1.224-.024-1.792.06-.04C2.48 316.49 88.146 172.13 217.8 87.872c24.292-2.702 53.136-1.444 72.394 15.534 6.076 6.076 11.082 24.962 11.01 44.494-.43 32.474-1.968 42.192-15.072 46.578-12.848 4.302-12.986 1.204-17.528-1.382-.506-.288-.792-.85-1.188-1.274-10.98-16.736-25.238-26.842-40.818-26.842l-.002-.004c-34.7.004-62.832 50.136-62.832 111.976-.238 21.81 6.94 42.27 16.01 61.756 13.862 45.246 58.312 78.75 102.824 90.474 18.272 4.812 36.65 5.734 55.412 4.382 81.722-8.038 158.54-70.078 159.01-98 .472-28.032-59.846-21.786-95.096-24.99-12.482-1.134-15.842-2.946-9.644-7.376 5.298-3.79 13.32-7.67 23.944-11.348 11.802-4.086 14.632-8.234 15.432-15.434 2.27-20.426-46.3-1.816-82.158-7.716-24.484-4.028-15.112-42.456-13.392-48.91 2.27-8.51 9.08-18.156 31.776-35.746 16.384-12.942 35.02-22.432 54.552-29.568 6.572-3.008 1.988-.97 13.914-5.736L441 147l8-42.5 21 34c12.042-3.268 20.032-6.168 32.5-7.5L517 79c6.058 9.68 16.488 34.176 24.94 43.246 0 0 4.432 5.978 12.576 9.896 8.142 3.916 13.366 4.146 16.594 4.226 26.352.646 31.138-13.954 28.682-27.26-2.95-14.844-12.23-22.92-26.604-27.108-2.826-.822-11.6-2.694-9.006-5.388 1.81-1.878 7.366-2.062 9.052-2.296zm-4.872 740.91c-12.428 0-22.504 11.986-22.504 26.772 0 14.784 10.076 26.77 22.504 26.77 12.43 0 22.506-11.986 22.506-26.77 0-14.786-10.076-26.772-22.506-26.772zm-113.802 0c-12.428 0-22.504 11.986-22.504 26.772 0 14.784 10.076 26.77 22.504 26.77s22.504-11.986 22.504-26.77c0-14.786-10.076-26.772-22.504-26.772z"/></svg>