<svg xmlns="http://www.w3.org/2000/svg" viewBox="0 0 1024 1024"><path d="M251.35 158.506c29.01-.682 59.09 3.198 84.698 16.738 30.192 15.966 39.854 23.57 41.568 24.564 3.8 2.368 8.292 3.176 12.574 4.23 14.632 3.022 29.552 4.21 44.414 5.382 36.802 2.568 73.694 3.252 110.566 3.192 26.032-.244 52.102-.564 78.06-2.738 6.22-.714 12.824-.506 18.564-3.148 16.546-7.616 28.846-15.826 43.448-23.382 11.49-5.672 16.708-10.946 36.098-16.234 44.176-12.048 90.97-6.326 134.024 9.938 23.084 8.746 45.02 21.112 63.436 37.658 1.93 1.796 4.062 3.526 5.152 6.006 14.446 28.258 24.956 58.314 34.718 88.452 11.12 34.822 20.644 70.132 29.492 105.6 8.18 33.188 15.758 66.526 22.588 100.018 7.066 33.716 10.2 68.13 11.668 102.506 1.612 38.844 1.722 77.514-.578 116.322-.706 10.564.49 10.136-3.6 34-2.4 14-7.512 25.462-13.064 38.646-5.294 12.492-11.788 24.606-20.48 35.096-7.58 9.026-17.008 16.91-28.298 20.754-12.618 4.424-25.358 3.904-38.158 2.304-11.57-1.446-23.476-6.638-33.808-11.122-13.91-6.22-26.85-14.378-39.416-22.93-19.426-13.45-37.976-28.156-55.666-43.81-19.002-20.066-40.01-38.356-63.392-53.164-23.346-14.61-48.992-26.598-76.444-30.614-19.53-6.532-40.076-9.174-60.482-11.23-27.636-2.554-55.406-3.43-83.152-3.304-15.612-.104-31.222.208-46.818.824-32.29.632-64.632 4.684-95.712 13.606-12.456 3.654-24.794 7.952-36.388 13.838-8.352 5.174-16.376 10.86-24.49 16.398-31.992 22.424-60.93 48.736-90.226 74.656-9.784 8.656-15.502 13.284-20.402 16.662-16.992 10.912-32.78 19.604-51.004 28.222-6.086 2.656-12.95 5.24-19.46 6.784-16.026 4.41-33.306 6.63-49.556 2.034-13.146-3.57-24.482-12.078-33.002-22.544C26.752 823.826 19.01 806.1 11.2 788.76c-6.006-14.84-7.824-30.948-9.286-46.774-3.786-50.23.282-100.604 3.896-150.724 1.872-16.946 5.234-33.686 8.352-50.432 9.642-49.564 20.398-98.898 31.236-148.202 3.994-18.06 7.682-36.224 13.502-53.808 13.63-42.022 33.396-81.9 56.854-119.266 2.122-3.036 3.756-6.458 6.324-9.154 22.172-18.446 47.396-33.566 74.914-42.504 17.526-5.79 35.904-8.93 54.358-9.39zm571.798 54.514c-7.178.87-14.104 3.78-19.716 8.344-7.824 6.25-13.058 15.648-14.222 25.602-1.292 10.058 1.536 20.6 7.778 28.608 7.208 9.554 19.086 15.388 31.066 15.196 11.952.148 23.746-5.754 30.932-15.284 6.384-8.276 9.182-19.226 7.556-29.552-1.402-9.85-6.822-19.046-14.726-25.082-8.01-6.294-18.58-9.07-28.668-7.832zm-632.31 48.452c-23.072 2.938-44.174 17.814-54.722 38.532-7.588 14.378-9.866 31.348-6.844 47.278 3.094 16.472 12.172 31.732 25.156 42.332 11.172 9.25 25.178 15.002 39.632 16.25 18 1.7 36.61-3.622 50.884-14.75 10.978-8.358 19.382-19.99 24.074-32.944 6.176-17.116 5.656-36.564-1.56-53.29-6.776-16.004-19.566-29.358-35.244-36.854-12.738-6.22-27.34-8.418-41.376-6.554zm546.32 34.828c-9.65 1.982-18.43 7.802-24.02 15.908-5.374 7.704-7.816 17.384-6.704 26.716 1.01 9.812 6.044 19.098 13.592 25.438 8.588 7.364 20.496 10.562 31.638 8.648 10.214-1.612 19.634-7.572 25.52-16.072 6.25-8.766 8.5-20.212 6.19-30.716-2.374-11.424-10.25-21.542-20.724-26.67-7.81-3.95-16.954-4.966-25.492-3.252zm166.996.008c-9.456 1.944-18.096 7.586-23.686 15.462-5.426 7.548-8.01 17.08-7.096 26.336.816 9.948 5.746 19.442 13.31 25.936 8.61 7.586 20.702 10.912 32 8.968 12.388-1.916 23.456-10.334 28.802-21.646 6.316-12.99 4.616-29.44-4.372-40.782-8.834-11.736-24.646-17.4-38.958-14.274zm-80.888 85.364c-8.514 1.18-16.62 5.256-22.58 11.468-7.958 8.078-12.004 19.776-10.802 31.044.944 10.534 6.466 20.554 14.862 26.99 7.942 6.266 18.424 9.124 28.46 7.936 10.956-1.158 21.252-7.298 27.51-16.368 5.738-8.114 8.136-18.492 6.598-28.304-1.574-11.134-8.366-21.32-17.896-27.236-7.698-4.854-17.148-6.814-26.152-5.53zm-481.02 49.772a88.69 88.69 0 0 0-30.398 8.818c-22.224 10.89-39.498 31.37-46.416 55.138-5.322 18.084-4.84 37.85 1.44 55.63 4.358 12.492 11.624 23.93 20.904 33.35 18.178 18.544 44.648 28.498 70.54 26.45 27.436-1.746 53.55-17.03 68.574-40.034 15.388-22.774 19.166-52.792 10.236-78.75-8.216-24.682-27.762-45.266-51.982-54.76-13.54-5.434-28.408-7.312-42.898-5.842zm319.984 20.004c-19.87 1.982-38.628 12.716-50.49 28.766-10.578 14.006-15.656 31.962-14.172 49.444 1.648 23.204 15.448 45.014 35.528 56.69 19.626 11.736 44.878 13.264 65.798 4.068 20.642-8.796 36.624-27.696 41.724-49.556 5.612-22.456-.4-47.39-15.7-64.774-15.21-17.822-39.408-27.316-62.688-24.638z"/></svg>