<svg xmlns="http://www.w3.org/2000/svg" viewBox="0 0 70.77 91.28"><path d="M19.34 55.12c5.57-6.24 4.57-18 4.57-18-5-1.83-9.27-3.87-12.22-7.4-4-4.82 1.57-8.46 1.57-8.46-12.25-.69-9 9.29-9 9.29-7.73 6-2.66 13.68-2.66 13.68 1.25-4.37 6.74-9 11.48-6s1.66 10.06 1.66 10.06A41.22 41.22 0 0 1 10.61 55c-3.16 4.41-.83 11.72-.83 11.72 6.9-8 15-2.49 15-2.49v-11a5.92 5.92 0 0 1-5.44 1.89zM66.48 30.51s3.28-10-9-9.29c0 0 5.6 3.64 1.57 8.46-2.95 3.53-7.23 5.57-12.22 7.4 0 0-1 11.8 4.57 18a5.9 5.9 0 0 1-5.4-1.87v11s8.1-5.49 15 2.49c0 0 2.33-7.31-.83-11.72A41.22 41.22 0 0 1 56 48.22s-3.07-7.07 1.67-10.06 10.22 1.66 11.47 6c0 .03 5.07-7.66-2.66-13.65zM37.71 57s.2 15.32-.58 20.7a4.26 4.26 0 0 1-1.74 2.66 4.25 4.25 0 0 1-1.75-2.66c-.78-5.38-.58-20.7-.58-20.7V39a20.15 20.15 0 0 1-5-.83V80a28.26 28.26 0 0 0 7.32 11.3A28.3 28.3 0 0 0 42.7 80V38.16a20.15 20.15 0 0 1-5 .83z" /><path d="M54.09 24V12.89l-5.15 3.32s0 7.82-9.65 10.06v-1.61a20.94 20.94 0 0 1 .5-5.15c.76-2 5.16-6.21 5.16-6.21a28.93 28.93 0 0 0-4-7.12 42.42 42.42 0 0 0-3-3.6C37.17 1.74 36.32.87 35.39 0c-7.49 7-9.56 13.3-9.56 13.3s4.39 4.23 5.15 6.21c.59 1.55.5 6.76.5 6.76-9.65-2.27-9.65-10.06-9.65-10.06l-5.15-3.32V24l-2.49 2.49c8.06 9.23 21.2 8.73 21.2 8.73s13.13.5 21.2-8.73z" /></svg>
