<svg xmlns="http://www.w3.org/2000/svg" viewBox="0 0 1024 1024"><path d="M338.032 358.18v14.876q-9.24 2.478-13.636 5.296-4.394 2.816-6.648 6.874-2.254 4.056-3.156 10.592t-.902 19.158v148.748q0 17.804 2.254 32.454t8.226 25.13q5.974 10.48 16.566 16.114t27.27 5.634q22.99 0 34.258-9.24t15.89-25.806q4.62-16.564 4.62-49.47V414.75q0-16.904-1.466-23.552-1.464-6.648-5.746-10.706-4.282-4.056-16.678-7.436V358.18H627.37q26.594 0 45.188 3.718 18.594 3.72 32.568 11.382 11.72 6.312 19.832 15.89 8.114 9.578 12.51 22.312 4.394 12.734 4.394 29.636 0 22.088-7.776 37.864t-20.96 26.256-35.272 19.722v2.252q16.678 7.212 27.61 19.27 10.93 12.058 19.72 30.54l14.198 30.65q9.466 20.51 18.82 30.764 9.352 10.256 22.2 12.508v14.876h-86.77q-13.072-18.03-29.526-53.64l-17.578-38.54q-7.888-17.128-13.524-24.34-5.634-7.212-11.606-9.916-5.972-2.706-18.368-2.706h-13.072v72.572q0 16.904 1.578 23.664 1.578 6.762 6.084 10.818 4.508 4.058 16.678 7.212v14.876H495.976v-14.876q8.338-2.252 13.184-4.844t7.212-7.212q2.366-4.622 3.042-11.72.678-7.1.678-17.918V414.976q0-10.594-.564-17.806t-2.93-11.72q-2.366-4.506-7.212-7.324c-3.838-2.234-8.108-3.55-12.354-4.768-4.102 1.078-8.034 2.666-11.83 4.542q-4.732 2.592-7.212 7.212-2.478 4.622-3.154 11.72-.676 7.1-.676 17.918v140.86q0 27.948-4.508 46.766-4.508 18.82-13.974 31.666t-23.552 20.734-31.666 11.27q-17.578 3.38-39.44 3.38-32.004 0-54.09-6.648-22.088-6.65-35.948-20.06t-20.51-32.566q-6.648-19.158-6.648-49.358V414.976q0-10.594-.564-17.806-.562-7.212-2.93-11.72-2.366-4.506-7.212-7.324c-3.602-2.084-7.578-3.398-11.562-4.54v56.264H190.68q-7.438-21.41-12.62-28.96-5.184-7.55-12.396-11.946-7.212-4.394-24.566-4.394H91.964v108.18h29.75q9.918 0 15.552-2.816 5.634-2.818 9.352-9.354 3.72-6.536 7.1-20.284h25.468v91.502h-25.468q-3.154-13.07-6.986-19.944t-9.128-9.804-15.89-2.93h-29.75v120.35h48.908q7.888 0 13.298-1.014 5.408-1.014 9.69-3.492 4.282-2.48 8.226-6.762t6.988-9.24q3.042-4.958 6.422-13.072 3.382-8.114 7.438-22.312h30.876l-4.282 82.262H-2.018v-14.876q8.34-2.252 13.186-4.844t7.212-7.212q2.366-4.622 3.042-11.72.676-7.1.676-17.918V414.976q0-10.594-.564-17.806-.562-7.212-2.93-11.72-2.366-4.506-7.212-7.324-4.844-2.818-13.41-5.07V358.18h340.05zm277.394 26.37q-19.382 0-25.468.45v125.31h22.312q18.03 0 29.75-4.846t18.594-13.522q6.874-8.678 9.466-20.398 2.592-11.718 2.592-25.692 0-30.652-14.424-45.976-14.426-15.326-42.822-15.326zm273.562-3.606q22.312 0 36.624 15.438t21.41 45.752q7.1 30.312 7.1 75.162 0 27.496-3.268 50.484-3.268 22.99-10.818 39.78t-19.72 26.144q-12.17 9.352-29.524 9.352-33.582 0-49.922-33.242-16.34-33.244-16.34-101.308 0-65.134 15.89-96.348 15.888-31.214 48.568-31.214zm2.028-26.37q-43.272 0-74.6 18.706-31.326 18.706-47.442 54.654-16.114 35.948-16.114 86.658 0 77.304 33.244 116.068 33.242 38.766 99.504 38.766 31.778 0 57.584-9.24 25.804-9.242 44.286-28.848 18.48-19.608 28.51-50.148 10.03-30.538 10.03-73.134 0-76.178-33.808-114.83-33.806-38.652-101.194-38.652z"/></svg>