<svg xmlns="http://www.w3.org/2000/svg" viewBox="0 0 1024 1024"><path d="M803.773 566.587h-17.459s-8.274-16.036-33.097-35.364l.065-88.62c22.374 11.965 39.371 23.334 50.558 31.345l-.067 92.64zM679.59 492.25c-19.395-7.496-39.948-14.232-65.93-19.13v-80.876a524.71 524.71 0 0 1 65.93 18.171v81.835zm-133.815-27.223a630.467 630.467 0 0 0-33.809-.893c-11.368 0-23.2.314-33.743.826l.067-81.9c10.656-.778 21.712-1.159 32.898-1.225h1.176c11.37.067 22.557.447 33.413 1.225v81.966zm-203.633 28.068l.065-81.983a523.564 523.564 0 0 1 65.236-18.22l.183 80.99c-24.873 5.047-46.932 11.699-65.483 19.214zm-71.757 42.199c-21.513 18.435-29.076 33.097-29.076 33.097h-21.082v-94.444c11.054-8.011 28.001-19.263 50.159-31.145v92.491zm682.974 32.452c-9.764-23.136-7.893-95.09-7.893-95.09h-34.125s15.838-7.298 15.838-30.5c0 0 1.804-36.54-40.281-36.54-42.083 0-38.393 47.529-38.393 47.529S721.41 338.776 512.479 337.948h-1.473c-208.614 1.026-335.512 115.197-335.512 115.197s3.69-47.529-38.327-47.529c-42.085 0-40.281 36.54-40.281 36.54 0 23.202 15.838 30.5 15.838 30.5H78.599s1.804 71.955-7.96 95.09H-.075v75.645s60.95-8.538 60.95 85.327h193.871s-4.849-207.258 256.061-207.307h2.383c260.977 0 256.061 207.307 256.061 207.307h193.937c0-93.865 60.884-85.327 60.884-85.327v-75.645h-70.714z"/></svg>