<svg xmlns="http://www.w3.org/2000/svg" viewBox="0 0 939 1024"><path d="M592.307 758.214c52.99-71.098 71.624-127.109 71.624-215.864 0-88.699-18.633-144.616-71.624-215.639 92.658 39.931 142.121 115.512 141.764 216.521-.451 100.407-49.632 175.032-141.764 214.982zm-125.402 10.47c-60.044 0-108.626-102.753-108.626-229.712 0-126.884 48.582-229.637 108.626-229.637 59.952 0 108.553 102.753 108.553 229.637 0 126.959-48.601 229.712-108.553 229.712zm-273.92-225.452c-.432-106.732 63.911-190.063 167.265-216.521-67.796 61.998-94.985 123.713-94.985 215.639 0 91.983 27.189 153.697 94.985 215.864-102.828-26.477-166.89-108.701-167.265-214.982zm630.948-10.79c0-76.146-41.262-145.123-107.744-194.604 85.751 27.339 159.046 68.171 213.367 118.233-38.185-142.57-232.714-263.055-465.597-263.055-232.94 0-425.272 120.486-463.382 263.055 54.246-50.062 127.541-90.819 213.217-118.233-66.406 49.481-107.668 118.458-107.668 194.604 0 76.239 41.262 145.067 107.668 194.604C128.118 699.705 54.823 658.819.577 608.755 38.687 751.458 231.02 873.65 463.959 873.65c232.883 0 427.412-122.192 465.597-264.895-54.321 50.063-127.616 90.95-213.367 118.291 66.481-49.538 107.744-118.366 107.744-194.604z"/></svg>