<svg xmlns="http://www.w3.org/2000/svg" viewBox="0 0 853 1024"><path d="M342.043 882.046V747.11c-136.724-37.618-234.066-163.888-234.066-307.26 0-67.717 21.702-133.702 61.498-188.066l-6.376-6.373H97.863L-.054 343.322V104.979h233.248l134.054 134.045V449.54l-81.708-81.698c-11.392 22.153-17.319 46.621-17.319 72.008 0 87.357 71.076 158.433 158.445 158.433 87.366 0 158.445-71.076 158.445-158.433 0-25.411-5.927-49.882-17.3-72.03l-81.727 81.724V239.025L620.138 104.98h233.248v238.343l-97.917-97.911H690.23l-6.337 6.333c39.77 54.369 61.462 120.364 61.462 188.105 0 143.372-97.343 269.641-234.066 307.26v134.936l-84.623 79.64-84.623-79.64z"/></svg>