<svg xmlns="http://www.w3.org/2000/svg" viewBox="0 0 900 1024"><path d="M185.464 29.202c24.163-10.735 67.819-1.811 59.89 33.06 71.034 69.578 106.149 138.833 102.183 248.381 45.632 7.929 25.243-64.321 17.476-85.274-13.187-66.749 20.227-126.456 69.336-124.272 236.732-21.522 349.597-40.454 457.846-44.903 5.26 58.577-67.557 96.764-81.472 151.052-16.503 42.88-88.835 47.977-139.805 55.259-44.901 50.323-75.889 105.743-128.316 156.309 35.599 14.807 55.017 38.35 94.66 52.832 72.168-3.641 91.666 64.077 85.519 126.293-34.629 29.207 23.218 65.13 39.157 68.204 12.623 16.261 20.553 81.148-19.497 74.029-35.679 6.634-59.872-19.257-60.761-50-34.223-6.231-34.062-47.249-32.605-75.728-38.429 28.801-7.929 100.888 14.321 105.257 28.479 23.22 50.162 66.587 50.97 108.981 33.656.161 35.032 48.706 41.91 81.553 30.016 7.929 7.443 75.889-3.077 86.408-55.34 18.851-64.077-76.781-87.378-117.071-10.193-125.728-194.578-81.714-203.883-204.53-51.455-34.142-176.374-14.158-214.077-72.248-48.139-27.266-100.16-92.475-142.799-117.961-4.692 59.628 50.648 74.675 42.558 139.886-43.528 8.332-73.463-37.864-79.855-65.534-45.387-36.65-43.931-143.607-23.787-210.841 38.917-15.209 55.098 31.635 79.046 11.894 44.012-45.793 43.77-161.974-37.136-162.783-39.564 22.331-88.431 1.376-76.537-47.169 41.747-30.824 64.075-61.656 124.351-75.322 35.679-8.09 23.195-33.066 51.762-45.761z"/></svg>