<svg xmlns="http://www.w3.org/2000/svg" viewBox="0 0 1024 1024"><path d="M149.924 324.464c0 125.02.01 250.04-.01 375.062-49.972.02-99.942 0-149.914.01V324.464h149.924zm163.344 87.512c14.404.206 28.944-.146 43.156 2.704 13.128 2.436 26.306 7.516 35.768 17.254 8.744 8.826 13.794 20.634 16.68 32.562 4.004 16.824 4.68 34.232 4.456 51.456-.564 22.13-4.014 45.272-16.488 64.082-9.358 14.398-24.688 24.238-41.216 28.356-18.512 5.026-37.846 3.296-56.78 3.614-.02-66.672 0-133.336-.01-200.008l14.434-.02zm51.758-87.512H175.934c.01 125.02-.01 250.03.01 375.05 60.128.022 120.248.012 180.378.012 26.706-.062 53.708-3.308 78.888-12.556 26.574-9.554 50.484-26.858 66.754-50.052 20.84-29.256 29.87-65.188 33.004-100.516 2.192-26.286 2.13-52.952-2.724-78.95-4.228-22.836-12.206-45.2-25.046-64.656-14.736-22.682-36.312-40.642-60.99-51.63-25.426-11.478-53.442-16.006-81.182-16.702zm284.804 0H528.968c21.524 125 42.802 250.04 64.246 375.05 44.114.012 88.238.012 132.352 0 15.738-67.726 31.436-135.454 47.164-203.192 1.24-5.058 2.11-10.23 3.83-15.164 5.06 19.69 9.268 39.608 13.998 59.38 12.298 52.992 24.586 105.984 36.886 158.976 44.124.012 88.238.012 132.362 0 21.432-124.928 42.71-249.886 64.194-374.814v-.236H903.188c-5.846 62.444-11.684 124.888-17.53 187.342-1.588 15.032-2.458 30.166-4.506 45.138-1.658-3.41-2.252-7.178-3.112-10.824-16.436-69.162-32.82-138.332-49.256-207.484-1.218-4.648-2.16-9.38-2.61-14.172h-99.328c-1.424 12.176-5.234 23.9-7.762 35.862-11.878 50.022-23.748 100.034-35.616 150.046-3.87 15.514-7.004 31.232-11.366 46.612-.358-1.352-.686-2.724-.88-4.106-7.148-76.134-14.254-152.28-21.392-228.414z"/></svg>