<svg xmlns="http://www.w3.org/2000/svg" viewBox="0 0 32 32"><path fill="#000" d="M23.332 4.289c1.846-.685 3.866-.722 5.794-.43.514.082 1.006.258 1.498.421a.704.704 0 01-.112.113 10.91 10.91 0 00-1.409 1.255 8.16 8.16 0 00-1.451 2.149c-.36.781-.407 1.546-.274 2.509.109.79.654 1.4 1.268 1.831 1.012.576 2.218.361 3.309.199.005.959.104 1.579-.011 2.878-.162 1.841-.747 3.635-1.579 5.287-.817 1.376-1.772 2.688-2.948 3.78-.326.304-.646.634-1.056.827-1.259-.163-2.572-.247-3.807.116a15.07 15.07 0 00-2.892 1.114 19.791 19.791 0 01-7.001 1.939c-2.011.103-4.053.016-5.991-.581-2.525-.808-4.966-2.154-6.671-4.22 1.268-.442 2.752-.811 3.732-1.552 1.458-1.103 2.052-2.055 2.632-3.381.6-1.334.876-2.777 1.185-4.198.581-1.985 1.588-3.957 3.28-5.216a5.244 5.244 0 011.813-.893c-.068.868-.378 1.859.181 2.635.446.695 1.429.772 2.105.388 1.076-.575 1.655-1.696 2.389-2.615 1.619-1.894 3.635-3.532 6.015-4.353zm-9.323 11.539c.809-.316 1.843-.526 2.574.082.503.341.588.987.626 1.544.079 1.679.895 3.314 2.223 4.35.679-.335 1.154-.95 1.63-1.518.905-1.071 1.409-2.419 1.685-3.777.139-1.171.35-2.361.931-3.402.283-.441.684-.795 1.112-1.089-3.918-.297-7.883 1.191-10.782 3.81zm-3.327 5.399c-.6 1.035-1.493 1.847-2.438 2.561.591.35 1.281.428 1.947.526 1.65.138 3.334.033 4.927-.439.997-.329 2.038-.6 2.915-1.201-.595-.4-1.304-.558-1.942-.867a13.144 13.144 0 01-2.071-1.225c-.771-.513-1.381-1.217-2.029-1.868-.484.813-.784 1.722-1.31 2.513z"/></svg>
