<svg xmlns="http://www.w3.org/2000/svg" viewBox="0 0 283 172"><path d="M62.8 1.1c8.1-1.2 7.6-1.2 15.5 0 6.4 1 29.5 7.3 121 33l25.2 7.1 5 4.8c4.8 4.5 5.8 5 22 9.9 9.4 2.9 18.5 6.2 20.3 7.4 7.1 4.8 11.8 15.9 11 26-1 12.4-8.6 23.3-18 25.7-1.789.467-5.816 1.478-9.87 2.563l-.868.233c-.868.235-1.729.47-2.562.704-4.9 1.3-11.7 2.9-15 3.5-5 1-6.8 1.9-10.5 5.6l-4.5 4.4-40 10.9c-1.76.48-3.536.968-5.318 1.46l-1.338.37-.67.186-1.339.373-1.34.373-2.007.562-1.336.375C150.36 151.604 133.4 156.66 127 158.9l-.64.221-1.28.44a379.515 379.515 0 0 1-7.076 2.336l-1.286.408C98.738 167.978 81.424 172 74.2 172c-14.4 0-31.2-5.4-41.3-13.4-11.6-9.1-24.2-28.5-28.7-44.1-3.1-10.6-4.6-23.7-3.9-35 2.6-41 28.3-73.4 62.5-78.4Zm22.5 10.6c-12.4-4.5-25.2-4.2-36.2.8-7.1 3.3-18.1 12.2-23 18.8-5.4 7.1-11.6 20.5-14.1 30.2-3 11.5-3.7 31.2-1.6 43.4 5 28.5 23.1 50 46.7 55.6 8 1.8 24.5 1.9 32.2.1 7.1-1.7 15-6.9 22-14.7 14.8-16.4 22.4-39.7 21.5-65.9-.6-14.1-2.7-21.8-9.9-36.3-7.2-14.2-21.1-26.1-37.6-32Zm-22 16.2c1.8-.4 7.1-.7 11.8-.6 7.3.2 9.4.6 14.4 3.2 5.9 3 12.4 10.3 11.1 12.4-.3.5-3.8-.5-7.8-2.1-6.5-2.8-7.9-3-15.7-2.6-7.4.3-9.5.9-14.9 3.8C47.3 49.9 40 65.5 40 89.5c0 12 2.5 20.3 8.5 28.3 10.9 14.5 21.7 19.1 37.4 15.8 8.1-1.7 14.4-4.9 20.6-10.8 2.3-2.1 4.5-3.8 4.9-3.8 1.4 0 .5 4.3-1.9 9.1-3.4 6.7-10.5 13.3-18.4 17.2-20.5 10.1-48.7-1.8-59.3-25-1.5-3.4-3.9-10.2-5.4-15-5.7-19.5-2.2-41 9.6-58.6 2.7-4 6.6-8.6 8.7-10.3 3.7-3 12.4-6.9 18.6-8.5Zm87.2-2.2 1.8 2.4c5.7 8.1 12.1 19.4 14.7 26.1 6 15.5 8 39.2 4.5 53.3-2.3 9.5-9.1 23.6-15.2 31.7-2.8 3.7-4.6 6.5-4 6.3.7-.2 15.8-4.3 33.7-9 17.9-4.8 33.5-9.3 34.8-10.1 1.2-.8 4.3-4.2 6.7-7.6 13.5-18.3 15.9-37.8 7.1-56.2-3.7-7.5-11.8-17.9-14.5-18.4-.9-.2-15.5-4.1-32.6-8.7-17-4.6-32.3-8.7-34-9.1l-3-.7Z" fill="#000" fill-rule="nonzero"/></svg>
