<svg xmlns="http://www.w3.org/2000/svg" version="1.0" viewBox="0 0 1800 1800"><path d="M1043.4 66c-3.3.5-10.4 2.3-15.7 4-37.6 12.5-77.1 53.2-114.6 118-4 6.9-7.7 12.9-8.1 13.4-.5.5-4.2-2-8.7-6-16-14.2-29.6-22.8-45.7-28.8-14.4-5.4-22.2-6.9-37.6-6.9-18.7-.1-30.6 2.6-47 10.8-20.1 10.1-33 22-63.4 58.4-24.4 29.3-36.6 42.5-47.2 51.2-18.9 15.4-41.4 27.9-59 32.6-8.7 2.3-11.9 2.7-25.4 2.7-18.2.1-24.5-1.2-38.7-8-20.8-9.9-37.8-29-47.8-53.5-3.7-9.1-8.5-25.9-8.5-29.9 0-1.4-.5-3.2-1-4-.9-1.2-1.7-.8-4.6 2.5-14.7 16.4-31.1 46.1-38.2 69-5.2 16.5-6.2 21.1-9.2 42.2-1.5 10.6-1.2 34.6.6 48.6l1.5 12.3-2.9 6.4c-8.2 17.7-15 41.3-18.3 63.5-4.1 27-3.4 66.7 1.5 89.9 6.5 30.7 21.1 59.7 39.4 78.4 10.5 10.8 28.6 22.4 32.4 20.9.8-.3 2.8-4.1 4.6-8.6 8.8-22.4 45.7-99 49.5-102.8.7-.6 6.2-2.8 12.2-4.8 30.7-10.1 59.3-29 89-58.9 19.6-19.7 34.7-38.7 55-69.1 3.3-5 10.5-13.5 16-19 8.4-8.4 11.4-10.7 18.5-14.2 11.5-5.6 17.1-6.7 32.1-6.1 17.3.7 23.7 2.5 67.9 19 27.4 10.3 36.6 13.1 55.6 16.9 8.7 1.8 14.3 2.2 27.9 2.2 16.2 0 20.1-.4 35.5-4 24.7-5.7 58-22.3 81.4-40.7 3.3-2.5 6.4-4.6 7-4.6 1.4 0 13.1 8.9 25.1 18.9 11.7 9.8 40 38.1 49.5 49.6 13.5 16.1 23.7 30.6 34.4 48.7 3.2 5.4 6.3 10.2 7 10.7.7.6 4 .1 9.6-1.5 9.9-2.9 29.7-8.1 35.5-9.3 2.2-.5 8.7-1.9 14.5-3 68.1-14 128.6-13.3 159.7 2 8.2 3.9 18.1 11.9 22.4 18.1 11.8 16.6 5.4 39-19 65.8-13.1 14.4-32.5 30.7-52.4 43.8-4.3 2.9-8 5.2-8.2 5.2-.2 0-3.8 2.2-7.9 5-4.2 2.7-7.8 5-8 5-.3 0-2.5 1.3-4.9 3-2.5 1.6-5 3-5.6 3-2.9 0 1 3.2 9.7 8 15.7 8.6 18.2 10 29.2 16.3 20.4 11.7 32.4 20.2 52.9 37.6 37.1 31.3 76.5 78.5 102.8 122.7 6.5 10.8 8.5 13 9.6 10.1.3-.6 4.4-10.9 9.2-22.7 30.8-76 48.9-138.9 57.5-199.3 5-34.8 6.6-83.3 3.5-107.8-5.2-41.8-19.3-77.1-42.5-106.4-6.6-8.3-23-24-32-30.6-16-11.8-34.9-21.7-54.2-28.4-5.6-2-10.7-4-11.4-4.5-.6-.6-1.7-3.8-2.3-7.1-2.3-11.5-9.3-31.4-15.6-44.4-22.9-47.4-61.8-79.4-113-93-20.9-5.6-52.1-7.9-72.6-5.5-16 1.9-25.4 3.3-27.7 4.1-3.1 1.2-4.2-.1-15-18.1-12.6-21.1-26.3-39.2-40.1-53.1-18.3-18.2-33.5-28.1-51.3-33.3-9.8-2.8-24.8-4-34.4-2.6z"/><path d="M1032 518.7c-5.7 6.5-16 22.1-21 31.8-5.5 10.9-9.1 22.6-9.3 30.4l-.2 6.4 10.5 4.5c23.8 10.3 51.3 25.9 69.3 39.4 18.7 14 37.3 34.1 44.3 47.9 1.3 2.6 3.4 5.5 4.6 6.3 12.5 8.8 13.4-21.6 1.6-56.9-4.2-12.6-15.4-35.1-23.7-47.6-13-19.5-29.4-37.1-47.6-51-6.1-4.7-22.9-15.9-23.8-15.9-.3 0-2.4 2.1-4.7 4.7z"/><path d="M331.8 557.7C270 631.6 223.2 719.5 198.9 807.5c-.6 2.2-1.5 5.1-1.9 6.5-.8 2.4-6.2 24.3-8 32.5-.5 2.2-1.3 6-1.9 8.5-.5 2.5-1.5 7.4-2.1 11-.6 3.6-1.5 8.5-2 11-.8 4.5-2.3 13.6-4 25.2-.5 3.5-1.3 10.8-1.9 16.3-.6 5.5-1.6 15.2-2.3 21.5-1.7 15.7-1.7 96.2 0 112.5.7 6.6 1.7 16.3 2.3 21.5 1.7 17 4.8 37.5 8 54.5.5 2.7 1.4 7.5 2 10.5 1.6 8.5 3.4 16.2 8.1 36 7.9 33.1 28.4 93.3 41.8 122.5 1.7 3.6 3 6.8 3 7.1 0 .3 4.2 9.2 9.3 19.7 49.2 101.4 120.6 191.5 206.2 260.3 82 65.9 179.3 112.9 280.5 135.3 29.5 6.5 55 10.4 93.5 14.3 17.7 1.8 110.9 1.8 129 0 49.7-4.9 77.6-9.4 114.5-18.3 158.6-38.2 298.7-127.8 401.2-256.4 64.9-81.4 111.6-176.8 136.3-278.5 5.5-22.7 6.8-28.9 11.4-56.5 7.8-46.6 11.2-111.5 8.1-153.5-4.1-54.5-8-81.1-19-129-4.5-19.4-14.6-53.1-22.6-75-8.9-24.4-10-27.4-11.2-27.8-.5-.1-1.7 2.1-2.6 5-6.1 18.9-24 67.3-28.7 77.5-1 2.4-1.9 4.9-1.9 5.6 0 .7-.4 1.7-.8 2.2-.5.6-1.5 2.6-2.2 4.5-.8 1.9-2.6 6.3-4.2 9.8-1.5 3.4-2.8 6.5-2.8 6.7 0 1.5-19.1 42-20.4 43.4-1.2 1.1-1.6 1-2.8-1-.8-1.3-3.7-6-6.4-10.4-20.3-33.3-66.8-80.5-124.4-126-29.5-23.3-59.2-45.5-60.2-44.9-.4.3 1.9 3.7 5 7.7 31.9 39.6 73.7 99.8 95 136.7 6.3 10.8 20.2 38.9 20.2 40.7 0 2.6-2.3 1.1-12.8-8-32.9-28.6-59.9-48.6-81.2-60-10-5.4-22-10.1-22-8.7 0 .6 3.3 4.7 7.3 9.3 53.5 60.4 88.7 113.8 110.8 168.2 4.6 11.3 10 32.2 11.9 45.6 1.7 11.4.3 35.8-2.5 45.9-8 29.1-40.1 56.8-80.5 69.7-19.5 6.3-31.6 9-44.2 9.9-4.9.4-9.4 1.2-10.2 1.8-.7.6-3.1 4.5-5.2 8.6-8 15.5-17.4 29.8-35 53.1-31.7 41.8-91.8 107.9-129.4 142.4-29.5 27-64.9 56.8-96.7 81.4-10.1 7.7-10.8 9.6-2.9 7.2 1.7-.5 5.1-1.5 7.6-2.1 2.5-.7 5.6-1.6 7-2 1.4-.4 7.2-2.3 13-4.1 25.3-7.8 44.9-15.9 75.4-31.1 18.7-9.3 18.8-9.2 19.4 2 .5 7.9-1.1 13.4-6.4 23-17.9 32-89.9 86.6-147.9 112-28.1 12.3-63.4 20.2-90 20.2-17.5 0-46.9-5-55.3-9.4-2.6-1.4-2.5-1.4 7.8-6.6 25.1-12.6 47.7-26.4 69.5-42.5 9.3-6.9 9.2-7.5-.5-4.6-18.4 5.3-26.1 7.2-43 10.1-32.6 5.8-79.3 5.8-107.5.1-2.7-.6-6.6-1.3-8.5-1.6-1.9-.3-5.1-1-7-1.5-1.9-.5-5.7-1.4-8.5-2-2.7-.6-6.6-1.5-8.5-2-1.9-.5-5.7-1.4-8.5-2.1-52.9-12.5-109.5-35.4-152.9-61.6-84.8-51.3-143.7-125-174.4-217.8-3.3-9.9-6.5-20-7.2-22.5-.7-2.5-1.6-5.6-2-7-.8-2.4-4-15.7-6.1-24.8-2.3-10.6-2.8-13.1-3.9-19.2-.6-3.6-1.5-8.5-2-11-.8-4.2-1.3-8-4-29-2.9-23.1-3.5-36.7-3.5-81.5 0-50.1.6-61.9 5.6-104 1-8.6 1.5-12.8 3.9-28.8 2.3-15.3 5.5-33.2 8-45.2.5-2.2 1.4-6.7 2-10 1.3-6.8 2.4-11.9 3.9-18.8.6-2.6 1.6-6.8 2.2-9.5.5-2.6 1.4-6.3 1.9-8.2.5-1.9 2.3-9.4 4-16.5 2.8-11.7 14.8-55.2 16.9-61.5.5-1.4 2.3-7.2 4.1-13 1.8-5.8 4.8-15 6.7-20.4 1.8-5.5 3-10.3 2.6-10.7-.5-.4-5.3-2.2-10.8-4-49.6-15.8-82.2-56.5-98.5-123.2-1.6-6.5-3.5-15.4-4.1-19.7-.8-5.2-1.7-8-2.5-8-.7 0-6.8 6.6-13.6 14.7z"/><path d="M609 570.6c-16.3 4.8-36.7 16.4-53.3 30.2-20.3 16.9-37.2 42.7-33.6 51.4 1.8 4.4 4.9 4.5 11.6.4 10.8-6.7 21.7-9.5 48.2-12.6 9.1-1 18.8-2.4 21.5-3 12.2-2.7 25.6-10.4 33.3-18.9 1.3-1.4 4-6 6.1-10 3.5-7.2 3.7-7.9 3.7-17.6 0-9.5-.2-10.4-2.8-14.4-5.6-8.5-17.9-10.4-34.7-5.5zM585.8 684.5c-16.9 6.4-30.7 29.2-34.8 57.5-1.7 11.3-.8 36.3 1.5 45 2.8 10.7 9.1 22.7 14.9 28.5 13.5 13.5 32 10.7 45.3-7 12.4-16.4 18.3-36.6 18.4-62.1 0-28.6-9-51.4-23.8-60-5.5-3.3-15.7-4.2-21.5-1.9zM785.4 698.2c-4.4 5.2-10.1 18.7-19 44.6-5.4 15.6-15.7 35.5-28.3 54.5-15.6 23.6-29.5 39.9-64.1 75.2-24 24.5-25.6 27-24.6 37.3 1.7 19 11.7 39.2 31.3 63.7 9 11.3 25.5 28.9 31.5 33.6l4 3.2 22.9-22.9c12.6-12.6 22.9-23.3 22.9-23.9 0-.5-1.5-2-3.3-3.1-12.3-8-47.1-39.7-50.4-45.9-1-1.8.1-3.4 7.9-12.5 12.3-14.4 27.2-34.3 35.9-48.1 19.3-30.5 36.6-70.5 43.1-99.4 2.9-13 3.8-46.1 1.4-53.3-2.4-7.2-6.6-8.3-11.2-3zM999.5 711c-25 2.8-45.4 12.4-59.8 28-5.9 6.4-11.4 14.7-10.3 15.7.3.3 8.8.5 18.8.4 44.7-.4 76.1 8.6 95.2 27.4 3 3 8.1 9.2 11.3 13.7 12.9 18.5 22.6 23.4 31.4 16.1 4.8-4.1 8-11.9 10.4-25.8 3.3-18.1.5-32.3-8.9-45.9-9.1-13.2-27.1-23.6-48.6-28.1-8.4-1.8-30.2-2.6-39.5-1.5z"/><path d="M956.3 987.2c-1.1 1.3-5.5 6.9-9.6 12.5l-7.6 10.3 6 13.7c3.3 7.6 6.6 15.2 7.4 16.8 3.9 8.4 3.9 8.2-1.3 12-21.6 15.7-59 32.7-93.2 42.3-20.4 5.7-31.3 8.1-55 11.6-31.4 4.8-86.9 4.8-121 .1-13.8-1.9-24.7-3.7-36.5-6.1-18-3.7-21.7-4.6-45-10.9-19-5.1-64.8-21.4-67.3-23.9-1-1-.9-5.1.5-22.5 1-11.7 1.6-21.6 1.3-22.1-.3-.6-6.9 6.1-14.6 14.7-7.6 8.6-22.3 25.1-32.6 36.5-10.4 11.5-18.8 21.5-18.8 22.2 0 .8 3.2 10.7 7 22 12.3 36.3 22.2 59.1 31.4 73 6.2 9.4 10.2 12.7 16 13.3 8.1.9 12.4-6.2 11.2-18.5-.5-4.3-.3-6.2.5-6.2.6 0 4.1 2.7 7.7 6.1 7.5 6.8 27.4 20.3 40.2 27.1 29 15.6 68.7 27.6 106 32.2 45.7 5.6 80.2 4.4 124.5-4.3 38-7.5 93.3-28.5 129.4-49.3 4.6-2.6 8.5-4.8 8.7-4.8.1 0 5.1-3 11.1-6.6 15.4-9.4 31.1-19.9 43.7-29.3 5.9-4.5 11.2-8.1 11.7-8.1s.9 15.3.9 35c0 19.2.4 35 .8 35s3.6-6.2 7.2-13.8c3.5-7.5 9.7-20.6 13.7-29 4-8.5 7.3-15.5 7.3-15.6 0-.2 2.9-6.4 6.4-13.7 18.7-39.3 22.6-48.1 21.9-49.4-.5-.7-7.8-7.5-16.4-15.2-8.5-7.6-21.5-19.2-28.9-25.8-40.6-36.3-71.4-63.5-72-63.5-.3 0-1.6 1-2.7 2.2zm32.9 98c22 25.8 21.2 24.7 19.8 26.3-1.8 2.1-34.7 24.1-49 32.7-64.3 38.5-123.8 61.3-182 69.5-14.7 2.1-63.9 2.4-78 .4-42.3-5.7-73.8-16-102.5-33.3-17.3-10.5-26.9-18-42-33.2-10.8-10.8-16-17-22.3-26.4-7.6-11.5-9.5-15.2-7.3-15.2.4 0 4.1 1.4 8.2 3.1 9.2 3.8 39.7 14 50.4 16.9 4.4 1.2 9.4 2.6 11 3 4.2 1.2 5.9 1.6 16 4 12.8 3 16.2 3.7 23.5 5 3.6.6 8.5 1.5 11 2 43.9 8.3 105.8 9.1 152 1.9 30.8-4.8 50.7-9.6 78.4-19 34.6-11.7 69.3-28.8 93.1-45.7 3.9-2.8 7.3-5.1 7.7-5.1.4-.1 5.8 5.9 12 13.1z"/></svg>