<svg xmlns="http://www.w3.org/2000/svg" viewBox="0 0 952 1024"><path d="M109.594 203.921c43.226-44.476 100.908-74.582 162.052-84.53 13.352-.35 26.674-4.014 39.968-.872 30.426 1.018 60.416 17.83 76.124 44.098 10.18 16.26 11.46 35.894 15.272 54.22-3.346 19.694-4.452 41.364-16.9 57.974-15.098 22.544-35.14 41.014-53.35 60.882 5.47 12.77 10.472 28.07 24.638 33.626 12.218 7.854 26.442-.844 36.332-8.494 6.05-4.422 14.066-20.054 7.126-18.792-7.468 1.36-10.272 7.926-16.23 10.53-4.916 2.15-8.688 3.092-15.562-.26-7.04-3.434-8.67-13.788-9.396-21.73 2.268-14.136 13.44-28.684 29.004-34.344 10.964-3.988 18.866-1.886 28.298 0 9.328 1.864 18.328 11.044 24.32 18.054 6.544 7.796 5.876 18.238 5.614 27.78-2.85 30.862-20.944 61.376-50.206 73.826-15.884 8.29-35.546 8.582-51.546.524-20.158-7.244-32.694-25.424-47.792-39.474-19.722 21.672-37.99 46.63-44.04 75.864-4.944 29.408-.406 61.958 18.792 85.666 10.472 12.448 24.812 25.336 42.294 23.474 12.1 1.92 23.852-10.152 22.252-22.196.99-10.732-8.114-18.324-16.406-23.298-3.49 9.046-8.464 22.804-20.128 21.932-6.428-2.124-13.236-6.108-15.738-12.8-2.006-15.27.554-31.822 10.152-44.242 10.268-13.032 26.034-23.214 43.226-21.352 20.1.234 36.622 13.264 50.41 26.558 10.704 11.054 16.756 25.714 20.594 40.434 1.194 11.896.612 23.88.524 35.836-3.78 30.572-21.002 61.494-50.468 73.856-17.278 9.162-37.378 6.196-56.14 5.934-43.458-8.086-79.442-40.898-97.854-80.256-16.028-33.19-18.792-70.888-16.056-107.102 2.676-12.508 5.584-25.076 5.032-37.932-18.384-10.036-33.714-26.528-40.288-46.63-1.048-13.322-1.192-26.79.058-40.112 7.33-20.536 22.514-39.008 42.73-47.792 11.49-.292 26.036-4.188 34.442 5.962 8.522 6.894 13.758 21.12 5.382 30.02-6.546 8.698-19.112 4.596-26.268-1.28-3.578 4.974-10.53 8.872-9.89 15.766 2.53 11.024 12.042 22.136 24.318 21.032 17.134-3.782 28.624-18.414 41.974-28.652 20.538-22.922 44.07-45.816 52.04-76.59 4.566-21.002-10.938-41.016-30.164-47.676-19.984-8.61-41.888-.844-61.232 5.816-67.98 28.654-112.742 96.008-128.6 166.736-4.174 18.616-6.196 30.804-6.254 46.6-.844 19.664 3.764 38.382 6.516 58.206 5.858 42.202 24.202 82.668 48.84 117.72 26.382 40.55 64.866 71.208 103.962 98.814 36.942 24.842 76.792 45.814 119.466 58.874 14.602 5.876 30.572 5.644 45.464 10.588 33.744 2.27 67.138 6.39 100.83 3.326 12.012-1.092 31.67-4.368 46.272-9.26 56.83-19.04 111.554-44.504 158.938-80.894 36.158-28.884 70.628-61.638 92.85-102.798 18.734-34.558 32.842-72.168 37.002-111.41 5.584-25.656 6.98-52.562.32-78.16-7.39-51.37-31.3-101.17-69.522-136.744-19.374-20.334-43.924-35.518-70.366-44.768-12.828-5.002-26.848-3.752-40.316-3.782-26.558-.64-51.312 31.184-38.396 56.084 8.376 22.252 22.834 41.654 39.792 58.118 11.956 11.578 22.864 24.58 37.204 33.394 9.018 6.922 25.104 7.94 31.648-2.794 7.012-5.496 3.636-14.864 4.132-22.456-8.582-1.338-16.494 1.892-24.696 3.23-6.458-4.19-14.458-9.948-13.062-18.762-1.162-10.764 7.448-19.548 16.348-24.028 9.25-1.338 18.734-1.222 28.012-.232 27.372 10.646 43.808 39.648 45.67 67.98-.874 16.608-7.214 32.986-17.512 46.076-6.37 9.22-16.696 14.312-25.482 20.798-3.112 13.234 3.636 26.208 4.888 39.328.842 12.042.406 24.114.494 36.186.348 15.096-5.206 29.408-6.982 44.272-10.792 33.598-30.834 65.332-60.328 85.432-13.964 8.466-28.856 16.116-44.914 19.52-12.682 1.162-25.452.814-38.134.406-31.678-4.422-58.236-29.612-66.496-60.272-3.432-14.048-9.018-28.244-6.836-42.934 4.538-19.344 9.512-40.17 24.522-54.336 14.922-13.818 33.742-26.674 55.006-25.25 16.638.64 31.066 11.664 40.2 25.016 8.32 12.508 9.25 28.332 6.894 42.79-5.324 5.962-12.566 11.722-21.06 10.704-8.116-4.102-10.996-13.788-14.486-21.554-5.004 3.606-11.49 6.166-14.224 12.1-4.568 10.764-2.648 25.25 8.9 30.864 12.072 4.508 26.704 2.24 37.234-5.556 25.394-17.686 35.516-49.364 39.328-78.598-2.706-33.102-17.162-65.42-40.608-89.156-3.346-4.48-9.512-3.52-14.312-2.646-11.548 10.412-21.06 23.736-35.662 30.222-8.756 3.462-17.424 8.61-27.168 7.854-21.264 1.484-40.958-10.006-56.286-23.766-14.952-17.306-22.312-39.676-24.872-62.102 1.834-12.51 5.614-26.646 17.424-33.336 10.21-8.988 19.622-8.696 31.956-9.424 13.41-1.048 31.166 12.158 35.414 24.636 1.832 11.346 6.006 26.714-3.172 33.83-4.888 3.79-9.604 3.79-17.046.554-5.424-2.36-11.194-11.102-16.14-14.214-.058 3.868-1.12 15.768 1.742 19.216 9.106 10.968 12.686 12.452 22.05 12.422 11.582-.038 15.826 2.32 26.15-4.626 9.83-6.614 15.94-19.634 13.758-32.142-19.926-22.428-42.12-43.546-56.896-70.016-5.236-8.756-4.306-19.228-6.836-28.798-3.084-24.724.348-50.934 12.856-72.78 14.4-24.346 41.568-39.384 69.232-42.294 21.642.554 44.01-2.822 64.924 4.13 79.442 17.25 146.49 71.878 191.344 138.23 20.216 31.036 36.768 64.75 46.774 100.5 1.95 11.956 6.342 23.358 8.466 35.284 2.938 36.71 11.954 73.71 4.362 110.506.234 12.858-4.042 25.134-3.752 38.02-5.934 34.906-16.668 68.852-29.7 101.722-16.288 40.956-41.48 77.492-67.834 112.514-26.208 34.47-59.398 62.656-93.664 88.778-60.214 43.866-117.208 72.96-197.044 93.402-11.752 3.008-27.526 5.344-39.144 6.206-22.944 1.698-47.058.812-69.968-.562-14.526-.87-31.71-2.304-45.726-5.382-93.374-20.508-179.534-67.98-249.928-131.858-24.726-20.42-44.476-46.134-63.5-71.76-34.354-46.368-62.518-98.814-73.536-155.39-3.232-16.594-7.29-31.482-9.232-48.194-1.13-9.724-2-13.2-2.724-30.346-1.014-24.034-1.678-48.68.552-72.866.95-10.282 2.746-31.746 6.34-47.338 15.73-68.258 49.83-132.574 101.026-180.862z"/></svg>