<svg xmlns="http://www.w3.org/2000/svg" viewBox="0 0 1438 1027"><path fill="#000" fill-rule="nonzero" d="m719 0 127.5 167v21c14 5 26.833 10.667 38.5 17l60-60.5c60.667 38.333 109.667 86.833 147 145.5l-61 61c7 11.667 13.333 25.667 19 42l388 120.5-.039.012L1050 634c-5.667 16.333-12 30.333-19 42l61 61c-37.333 58.667-86.333 107.167-147 145.5L885 822c-11.667 6.333-24.5 12-38.5 17v21L719 1027 591.5 860v-21c-14-5-26.833-10.667-38.5-17l-60 60.5c-60.667-38.333-109.667-86.833-147-145.5l61-61c-7-11.667-13.333-25.667-19-42L0 513.5 388 393c5.667-16.333 12-30.333 19-42l-61-61c37.333-58.667 86.333-107.167 147-145.5l60 60.5c11.667-6.333 24.5-12 38.5-17v-21L719 0Zm0 36.001-.01.013L613 175.5V203c-22.333 7-43.5 16.833-63.5 29.5l-.054-.053L489.5 173.5c-43.667 28.667-82 66.833-115 114.5l.054.053L434 347c-12.333 19.333-22 40.833-29 64.5l-332.5 102 6.617 2.03L405 615.5c7 23.667 16.667 45.167 29 64.5l-59.446 58.947-.054.053c33 47.667 71.333 85.833 115 114.5l59.946-58.947.054-.053c20 12.667 41.167 22.5 63.5 29.5v27.5l105.99 139.486.01.013.01-.013L825 851.5V824c22.333-7 43.5-16.833 63.5-29.5l.054.053L948.5 853.5c43.667-28.667 82-66.833 115-114.5l-.054-.053L1004 680c12.333-19.333 22-40.833 29-64.5l332.5-102-332.5-102c-7-23.667-16.667-45.167-29-64.5l59.446-58.947.054-.053c-33-47.667-71.333-85.833-115-114.5l-59.946 58.947-.054.053c-20-12.667-41.167-22.5-63.5-29.5v-27.5L719.01 36.014 719 36ZM802 830.5V845l-83 108.999L636 845v-14.5c21.667 7 49.333 10.5 83 10.5s61.333-3.5 83-10.5ZM503 634c22 39 52.667 69.833 92 92.5L488 833c-34.667-24.333-65.5-55-92.5-92L503 634Zm432 0 107.5 107c-27 37-57.833 67.667-92.5 92L843 726.5c39.333-22.667 70-53.5 92-92.5ZM830 734.5l43.5 43.5c-42.57 25.74-93.47 39.392-152.703 40.956L719 819l-1.797-.044C657.97 817.392 607.07 803.74 564.5 778l43.5-43.5c32 17.667 69 26.5 111 26.5s79-8.833 111-26.5ZM933.5 532c-7.5 61.5-26.5 109.5-80 154-35.667 29.667-80.5 45.5-134.5 47.5v-85c71 0 142.5-38.833 214.5-116.5Zm-429 0c72 77.667 143.5 116.5 214.5 116.5v85c-54-2-98.833-17.833-134.5-47.5-53.5-44.5-72.5-92.5-80-154ZM451 362l43.784 43.287.106.104.07.07.036.035C495 405.5 469.5 447 469.5 513.5l.008 1.987c.5 65.339 25.492 106.013 25.488 106.017l-.036.035-.07.07-.106.104L451 665c-43-73-40.5-151.5-40.5-151.5S408 435 451 362Zm536 0c43 73 40.5 151.5 40.5 151.5.002.065 2.482 78.53-40.5 151.5l-43.784-43.287-.106-.104-.07-.07-.036-.035C943 621.5 968.5 580 968.5 513.5v-.001l-.008-1.986c-.5-65.339-25.492-106.013-25.488-106.017l.036-.035.07-.07.106-.104L987 362Zm-268 44.445c59.125 0 107.055 47.93 107.055 107.055 0 59.125-47.93 107.055-107.055 107.055-59.125 0-107.055-47.93-107.055-107.055 0-59.125 47.93-107.055 107.055-107.055ZM398 436.5c-6 23-9 48.667-9 77l.003 1.543c.107 27.723 3.106 52.875 8.997 75.457l-248-77 248-77Zm642 0 248 77-248 77c6-23 9-48.667 9-77s-3-54-9-77Zm-321 8.99c-37.561 0-68.01 30.449-68.01 68.01 0 37.561 30.449 68.01 68.01 68.01 37.561 0 68.01-30.449 68.01-68.01 0-37.561-30.449-68.01-68.01-68.01Zm0 8.632c32.793 0 59.378 26.585 59.378 59.378S751.793 572.878 719 572.878s-59.378-26.585-59.378-59.378 26.585-59.378 59.378-59.378Zm0 15.943c-23.988 0-43.435 19.447-43.435 43.435 0 23.988 19.447 43.435 43.435 43.435 23.988 0 43.435-19.447 43.435-43.435 0-23.988-19.447-43.435-43.435-43.435Zm0-176.565c54 2 98.833 17.833 134.5 47.5 53.5 44.5 72.5 92.5 80 154-72-77.667-143.5-116.5-214.5-116.5v-85Zm0 0v85c-71 0-142.5 38.833-214.5 116.5 7.5-61.5 26.5-109.5 80-154 35.667-29.667 80.5-45.5 134.5-47.5ZM950 194c34.667 24.333 65.5 55 92.5 92L935 393c-22-39-52.667-69.833-92-92.5L950 194Zm-462 0 107 106.5c-39.333 22.667-70 53.5-92 92.5L395.5 286c27-37 57.833-67.667 92.5-92Zm231 14 1.797.044C780.03 209.608 830.93 223.26 873.5 249L830 292.5c-32-17.667-69-26.5-111-26.5s-79 8.833-111 26.5L564.5 249c42.57-25.74 93.47-39.392 152.703-40.956L719 208Zm0-134.999L802 182v14.5c-21.667-7-49.333-10.5-83-10.5s-61.333 3.5-83 10.5V182l82.999-108.999H719Z"/></svg>
