<svg xmlns="http://www.w3.org/2000/svg" viewBox="0 0 1024 1024"><path d="M976.019 645.099s-182.869 51.942-343.177 51.942c-160.36 0-433.577-81.307-433.577-207.703 0-126.517 255.186-112.963 255.186-112.963s137.865 3.93 157.897 67.565c22.441 71.308-49.534 94.998-49.534 94.998s180.664 2.273 180.664-92.537c0-94.862-221.326-121.969-298.103-121.969-76.795 0-444.807 9.076-444.807 216.779 0 204.576 356.799 275.475 516.507 275.475 294.636 0 458.943-171.588 458.943-171.588zM503.455 290.3c-5.009-.189-10.085-.258-15.162-.258-191.945 0-270.996 20.835-270.996 20.835s67.772-60.899 289.097-60.899c221.257 0 517.038 88.008 517.038 257.391L630.518 665.403s-202.44-11.895-302.053-72.248c-156.377-94.93 4.803-167.639 4.803-167.639 53.687-25.04 125.662-15.23 125.662-15.23s-79.051 36.116-79.051 83.529c0 47.398 151.351 72.3 241.683 72.3 88.861 0 207.84-29.039 216.66-83.186 26.441-162.77-334.766-192.63-334.766-192.63z"/></svg>