<svg xmlns="http://www.w3.org/2000/svg" viewBox="0 0 842 547"><path fill="#000" fill-rule="evenodd" d="M353.5 497c22.667 3 45.167 4.5 67.5 4.5V547c-27.333-19-49.833-35.667-67.5-50Zm135 0c-17.667 14.333-40.167 31-67.5 50v-45.5c22.333 0 44.833-1.5 67.5-4.5Zm-362-359.5s-12 69 87.5 124c67.333 38.333 136.333 58 207 59V487c-65.667 0-123.167-13-172.5-39-45-24.333-84.333-59.333-118-105-11.667-17.667-18.333-35-20-52-6.333-66.333-1-117.5 16-153.5Zm589 0c17 36 22.333 87.167 16 153.5-1.667 17-8.333 34.333-20 52-33.667 45.667-73 80.667-118 105-49.333 26-106.833 39-172.5 39V320.5c70.667-1 139.667-20.667 207-59 99.5-55 87.5-124 87.5-124ZM484.093 368.291a4.5 4.5 0 0 0-5.802 2.616c-2.904 7.676-4.131 16.39-3.71 26.14a203.856 203.856 0 0 1-7.57 7.09 4.5 4.5 0 0 0-.193.181c-2.05 2.05-8.974 5.574-14.941 6.843-7.741 1.646-13.287-.033-16.422-5.808-3.433-6.324-3.143-11.043-.178-15.161 2.196-3.05 5.099-5.135 9.878-7.741 2.365-1.29 4.871-1.29 7.96.135a4.5 4.5 0 1 0 3.77-8.172c-5.578-2.575-11.071-2.575-16.04.135-5.905 3.221-9.652 5.912-12.872 10.384-4.988 6.928-5.506 15.36-.428 24.714 5.319 9.798 14.943 12.711 26.203 10.317l.457-.1c7.324-1.653 15.364-5.733 18.77-8.98l.072-.073 1.093-.978a178.1 178.1 0 0 0 1.595-1.457c.59 3.773 1.39 7.678 2.4 11.715 4.31 17.245.834 32.055-10.512 44.934a4.5 4.5 0 1 0 6.754 5.95c13.32-15.121 17.51-32.977 12.489-53.066-4.462-17.846-4.462-32.44-.157-43.816a4.5 4.5 0 0 0-2.616-5.802ZM288.5 353.5a4.5 4.5 0 0 0 0 9l.54.003a41.55 41.55 0 0 1 3.428.165l.151.014-.009.07c-1.523 11.697-6.098 21.145-13.734 28.509a4.5 4.5 0 1 0 6.248 6.478 52.92 52.92 0 0 0 12.162-17.732c9.854-4.02 18.599-6.007 26.214-6.007l.305.002c5.946.096 8.861 3.017 9.68 10.097l.021.203.005.232c.14 8.567-3.748 13.788-12.413 16.534l-.212.066.171-.034c-3.18.681-5.625-.032-7.875-2.282a4.5 4.5 0 0 0-6.364 6.364c4.417 4.417 9.971 6.037 16.125 4.718a4.5 4.5 0 0 0 .362-.093c9.781-2.964 15.982-8.825 18.244-17.169 8.853-5.03 18.048-7.23 27.679-6.646 3.89.236 5.853 1.413 6.725 3.57l.08.205c.994 2.716.69 7.224-1.183 13.417l-.054.177-.032.068c-4.303 8.893-10.07 11.108-19.05 7.41a4.5 4.5 0 1 0-3.427 8.322c13.57 5.588 24.438 1.241 30.785-12.245a4.5 4.5 0 0 0 .225-.58c5.424-17.433.97-28.45-13.525-29.328-9.506-.576-18.68 1.148-27.467 5.148C340.715 371.153 334.141 365 323.5 365c-7.003 0-14.618 1.393-22.854 4.157a71.363 71.363 0 0 0 1.344-9.85 4.5 4.5 0 0 0-3.254-4.634c-2.784-.795-6.183-1.173-10.236-1.173Zm270.296 11.084c-5.765-9.06-13.21-12.422-21.212-8.656a4.5 4.5 0 0 0-.317.165c-7.776 4.444-15.07 10.59-21.889 18.42-.917-2.904-2.055-5.62-3.416-8.146a4.5 4.5 0 0 0-4.938-2.26c-3.997.888-7.63 3.24-10.887 6.903a4.5 4.5 0 1 0 6.726 5.98l.283-.313c.848-.917 1.689-1.666 2.523-2.254l.102-.071.005.012c2.868 7.173 3.987 16.188 3.286 27.07l-.04.582-.019.13c-.24 1.563-.543 2.552-.747 2.858a4.5 4.5 0 0 0 7.488 4.992c1.118-1.676 1.79-3.92 2.21-6.86a4.5 4.5 0 0 0 .035-.315c.436-6.104.356-11.762-.247-16.97 7.288-9.538 15.085-16.723 23.38-21.59l.441-.257.038-.016c3.192-1.407 5.993-.125 9.405 5.12l.118.184.145.27c4.431 8.331 3.688 15.158-2.232 21.522l-.168.176.058-.05-.252.226c-2.584 2.25-5.19 3.23-8.004 3.097l-.326-.02a4.5 4.5 0 1 0-.69 8.974c5.617.432 10.82-1.52 15.372-5.657a4.5 4.5 0 0 0 .222-.216c9.055-9.45 10.289-20.757 3.697-32.778a4.501 4.501 0 0 0-.15-.252Zm94.474-59.505c-4.23-3.304-9.185-3.377-13.766-.323a4.5 4.5 0 0 0-.267.192c-8.12 6.316-14.8 14.957-20.056 25.872-6.318-5.617-12.98-6.558-18.961-1.858a4.5 4.5 0 0 0-.224.187c-7.643 6.853-13.91 14.329-18.786 22.422a70.89 70.89 0 0 0-3.914-6.987 4.5 4.5 0 0 0-6.029-1.491c-2.714 1.551-5.519 3.795-8.449 6.725a4.5 4.5 0 0 0 6.364 6.364l.422-.417a43.91 43.91 0 0 1 2.438-2.223l.048-.04.118.22c4.485 8.474 6.9 17.843 7.248 28.156a877.69 877.69 0 0 1-3.327 1.53 4.5 4.5 0 1 0 3.742 8.185c35.233-16.107 64.133-32.07 86.713-47.909l.179-.132c6.79-5.282 11.344-12.301 13.591-20.916a4.5 4.5 0 0 0-8.708-2.272l-.15.557c-1.514 5.444-4.169 9.947-8.001 13.587.725-4.626.336-9.565-1.173-14.763a4.5 4.5 0 0 0-.113-.338c-2.599-6.868-5.485-11.63-8.939-14.328Zm-463.965-16.006a4.5 4.5 0 0 0-1.61 8.854l.439.083c1.01.196 1.928.418 2.752.662l.167.051-.143.3c-4.74 9.828-10.395 17.422-16.94 22.826-.673-.579-1.345-1.16-2.016-1.744a4.5 4.5 0 0 0-5.908 6.79c25.925 22.557 53.543 41.587 82.85 57.083a4.5 4.5 0 0 0 .331.158c5.505 2.36 12.606 2.92 21.331 1.83a4.5 4.5 0 1 0-1.116-8.931l-.62.074c-6.766.785-12.014.375-15.717-1.107l-.18-.076.176.094-.68-.36-.68-.364c9.377-3.707 15.396-10.887 17.657-21.345l.034-.169c1.404-7.96-3.04-14.274-12.07-18.379-6.898-3.135-15.397-4.157-25.484-3.16.032-.235.062-.472.09-.711l.02-.211c.82-11.462-4.392-19.166-14.938-21.697-6.397-1.535-13.146-2.324-20.242-2.37a108.665 108.665 0 0 0 4.328-8.981 4.5 4.5 0 0 0-1.64-5.517c-2.578-1.719-5.969-2.916-10.191-3.683Zm416.617 46.857c2.458-1.83 5.053-1.092 9.224 3.57 4.226 4.723 4.6 12.75.471 24.498-8.592 4.57-17.72 9.157-27.382 13.76-.42-5.264-1.343-10.325-2.766-15.178 4.602-9.52 11.202-18.213 19.83-26.091l.58-.528Zm-376.654 5.694c10.229-1.467 18.347-.765 24.37 1.973l.34.157c5.26 2.462 7.097 5.049 6.624 8.258l-.022.132-.066.3c-2.249 9.758-8.716 15.096-20.311 16.46a419.033 419.033 0 0 1-25.14-15.674c6.494-1.733 11.273-5.635 14.13-11.595Zm293.393-6.837c-3.312-8.043-9.724-10.791-16.894-6.694a4.5 4.5 0 0 0-.578.393c-8.969 7.175-15.923 16.982-20.867 29.343a4.5 4.5 0 1 0 8.356 3.342l.295-.728c4.265-10.38 10.042-18.53 17.327-24.515l.23-.188.143-.074c1.718-.895 2.343-.55 3.477 2.098l.089.211-.04-.148.045.164c.51 2.013-.125 4.973-2.215 8.891a4.5 4.5 0 0 0 7.942 4.236c3.174-5.952 4.235-11.259 2.84-15.911a4.5 4.5 0 0 0-.15-.42Zm-157.129 4.925a4.5 4.5 0 0 0-6.32-.744c-6.163 4.865-13.155 9.581-20.98 14.145a4.5 4.5 0 0 0 4.535 7.774c8.176-4.77 15.517-9.72 22.021-14.855a4.5 4.5 0 0 0 .744-6.32Zm279.145-27.586c1.3-.825 1.997-.78 3.053.045l.166.135c1.782 1.494 3.764 4.775 5.713 9.81l.115.3.083.293c2.375 8.613.708 15.638-5.062 21.684a4.399 4.399 0 0 0-.586.765c-6.703 4.261-13.88 8.538-21.533 12.83 1.496-7.456 1.126-13.833-1.233-19.056 4.86-11.522 11.158-20.328 18.872-26.488l.352-.279Zm-453.401 4.246c8.474-.422 16.362.249 23.674 2.004l.308.076c5.793 1.49 8.177 5.02 7.777 11.864l-.017.254-.032.265c-1.416 10.905-7.365 15.36-19.546 14.286a440.081 440.081 0 0 1-22.491-17.392c3.676-3.216 7.069-7 10.18-11.348ZM605.2 309.4a4.5 4.5 0 0 0-6.3.9l-1.5 2a4.5 4.5 0 1 0 7.2 5.4l1.5-2a4.5 4.5 0 0 0-.9-6.3Zm-356.018-7.582a4.5 4.5 0 0 0-6.364 6.364l2 2a4.5 4.5 0 0 0 6.364-6.364ZM623.2 298.4a4.5 4.5 0 0 0-6.3.9l-1.5 2a4.5 4.5 0 1 0 7.2 5.4l1.5-2a4.5 4.5 0 0 0-.9-6.3Zm-13.889-6.914a4.5 4.5 0 0 0-6.325.703l-2 2.5a4.5 4.5 0 0 0 7.028 5.622l2-2.5a4.5 4.5 0 0 0-.703-6.325ZM418.902 160.988 421 161v135.5c-61.333 0-124.167-18.167-188.5-54.5 54.553-53.573 115.99-80.576 184.309-81.007l2.093-.005Zm4.196 0 2.093.005c68.32.431 129.756 27.434 184.309 81.007-64.333 36.333-127.167 54.5-188.5 54.5V161l2.098-.012ZM129.5 101c-26 38-38.167 85.5-36.5 142.5C40 175.833 10.167 135.333 3.5 122c-6.667-14-2.667-21 12-21h114Zm697 0c14.667 0 18.667 7 12 21-6.667 13.333-36.5 53.833-89.5 121.5 1.667-57-10.5-104.5-36.5-142.5ZM421 0v136.5c-80.667 0-153.167 33-217.5 99-41-28.333-61-56.833-60-85.5 4-46 35-83.5 93-112.5C292.167 12.5 353.667 0 421 0Zm0 0c67.333 0 128.833 12.5 184.5 37.5 58 29 89 66.5 93 112.5 1 28.667-19 57.167-60 85.5-64.333-66-136.833-99-217.5-99ZM286.5 75.5c-4.745 0-8.289.625-10.815 2.141-2.92 1.752-3.48 5.696-2.223 10.94-13.655-.682-21.345.744-27.043 4.732-5.167 3.691-7.508 8.915-7.004 15.132-12.523.114-19.383 2.24-25.996 6.868-6.365 4.547-8.293 11.295-5.688 19.11a4.5 4.5 0 0 0 .133.35c2.417 5.64 6.014 9.66 10.774 11.824a28.04 28.04 0 0 0 4.227 1.512c-.815.63-1.626 1.26-2.432 1.895l-1.056.832.127-.08c-2.021 1.347-3.783 1.739-5.528 1.351a4.5 4.5 0 0 0-1.952 8.786c4.255.945 8.493.004 12.472-2.649a4.5 4.5 0 0 0 .301-.22c20.742-16.46 44.805-31.46 72.196-44.99a4.5 4.5 0 0 0-3.986-8.069l-1.266.628c-3.92-5.885-6.867-11.503-8.582-16.151l-.141-.388c-.55-1.537-.926-2.878-1.125-3.937l-.046-.259.097-.018c1.096-.208 2.627-.34 4.556-.34a4.5 4.5 0 0 0 0-9Zm315.01 35.717c1.105-.394 2.833.104 5.426 2.1l.068.053.232.236c5.622 5.772 10.405 13.754 14.307 23.974a79.073 79.073 0 0 0-4.911 10.448 401.611 401.611 0 0 0-14.465-9.69c-5.377-5.056-7.15-11.31-5.387-19.365l.06-.267.072-.217c1.44-4.298 3.064-6.619 4.486-7.228Zm-382.894 11.445c5.43-3.8 10.984-5.385 23.44-5.213 1.978 3.81 4.771 6.606 8.382 8.248.976.443 2.002.835 3.078 1.174a386.593 386.593 0 0 0-20.384 13.61c-4.434-.119-8.024-.83-10.77-2.078l-.274-.13c-2.356-1.162-4.278-3.317-5.78-6.655l-.096-.216-.041-.128c-1.26-4.008-.485-6.52 2.445-8.612ZM397 46c-3.947 0-7.263.947-9.811 2.986a4.5 4.5 0 0 0 5.622 7.028l.136-.102c.754-.534 1.961-.87 3.717-.908l.217-.004.324.02c4.98.342 8.685 2.252 11.433 5.83l.233.311.188.263c2.327 3.316 2.424 6.347.298 9.909l-.046.073.035-.045-.133.168c-3.933 4.807-8.925 6.929-15.419 6.517l-.435-.032c-6.91-.552-12.827-3.175-17.905-7.948-1.657-7.91-4.657-14.423-9.048-19.507a4.5 4.5 0 0 0-6.812 5.882C365.13 62.85 368 72.823 368 86.5c0 15.661 4.995 30.111 14.912 43.215a4.5 4.5 0 0 0 7.176-5.43C381.338 112.722 377 100.172 377 86.5c0-1.444-.03-2.857-.09-4.238 4.76 2.685 10.018 4.267 15.731 4.724 9.817.785 17.949-2.671 23.891-10.198a4.5 4.5 0 0 0 .284-.403c4.305-6.888 4.074-14.054-.687-20.546-4.486-6.117-10.913-9.434-18.904-9.833A4.5 4.5 0 0 0 397 46Zm172.174 46.792c.904-.177 1.778.047 2.126.308l.11.08c7.985 5.619 13.791 12.6 17.488 21.002a40.122 40.122 0 0 0-.68 1.933 4.5 4.5 0 0 0-.1.362c-1.063 4.553-1.27 8.84-.626 12.82l-.07-.041a565.846 565.846 0 0 0-16.826-9.622c-7.214-9.628-9.167-16.833-6.725-21.82l.065-.131-.003.002.016-.025.138-.232c1.793-2.987 3.524-4.331 5.087-4.636Zm-317.558 7.87c4.123-2.886 10.958-3.9 25.26-2.854 1.771 3.739 4.071 7.764 6.786 11.895a460.793 460.793 0 0 0-18.031 9.893c-4.757-.061-8.58-.78-11.469-2.093l-.236-.112c-2.19-1.089-3.857-3.26-4.999-6.809l-.096-.306-.064-.255c-1.08-4.406-.151-7.216 2.849-9.36Zm220.856-44.414c-11.428-3.956-19.22 1.238-20.93 13.637a4.5 4.5 0 0 0-.04.493c-.397 14.669 7.023 23.398 21.114 24.606a4.5 4.5 0 1 0 .768-8.968l-.357-.032c-8.868-.869-12.694-5.373-12.537-14.976l.002-.142.01-.067c.981-6.663 3.212-8.06 9.026-6.047 7.256 2.512 13.46 6.402 18.658 11.697-.123.856-.186 1.71-.186 2.551 0 3.691.818 8.065 2.962 12.108 3.344 6.307 9.265 10.335 17.748 10.883a4.5 4.5 0 0 0 .58-8.982c-5.282-.34-8.46-2.503-10.377-6.117C497.56 84.339 497 81.347 497 79c0-2.689 1.36-5.915 3.356-7.748 2.005-1.841 4.306-2.12 7.411-.345 6.232 3.561 12.281 9.244 18.114 17.09l.069.093-.055.724c-.383 5.353-.174 11.572.638 18.23a4.5 4.5 0 1 0 8.934-1.089c-1.1-9.024-.948-16.731.188-22.158l.08-.371c.325-1.46.706-2.644 1.09-3.488l.027-.038c1.074.468 2.31 1.283 3.685 2.487a4.5 4.5 0 0 0 5.926-6.774c-3.27-2.86-6.523-4.596-9.827-5.068-3.673-.525-6.437 1.83-8.265 6.196-5.128-5.872-10.503-10.428-16.138-13.648-6.534-3.733-13.097-2.94-17.964 1.53a17.992 17.992 0 0 0-2.485 2.834c-5.569-4.942-12.016-8.684-19.312-11.21Zm-122.38-.114c-4.497-1.124-8.362-1.51-11.65-1.1a4.5 4.5 0 0 0-3.925 4.07 53.266 53.266 0 0 0-.14 7.507C327.053 64.211 320.263 63 314 63c-10.16 0-16.246 6.554-17.474 18.02a4.5 4.5 0 0 0-.021.276c-.415 9.126 4.054 16.362 12.84 21.155a4.5 4.5 0 0 0 .832.35c5.614 1.727 11.28.856 16.681-2.469a4.5 4.5 0 1 0-4.716-7.664l-.337.202c-2.911 1.706-5.619 2.172-8.35 1.503l-.216-.056-.288-.165c-5.264-3.08-7.597-6.964-7.468-12.11l.007-.2.026-.231c.82-6.927 3.4-9.611 8.484-9.611 6.43 0 13.762 1.567 21.98 4.738 1.55 5.749 4.171 11.216 7.858 16.378a4.5 4.5 0 0 0 7.324-5.232l-.352-.498c-4.98-7.161-7.47-14.897-7.505-23.32v-.062l.266.03c1.298.158 2.745.433 4.338.832a4.5 4.5 0 1 0 2.182-8.732ZM226.456 93.62a4.5 4.5 0 0 0-6.338-.576l-3 2.5a4.5 4.5 0 0 0 5.762 6.914l3-2.5a4.5 4.5 0 0 0 .576-6.338Zm17.5-11.5a4.5 4.5 0 0 0-6.338-.576l-3 2.5a4.5 4.5 0 0 0 5.762 6.914l3-2.5a4.5 4.5 0 0 0 .576-6.338Zm-14-3.5a4.5 4.5 0 0 0-6.338-.576l-3 2.5a4.5 4.5 0 0 0 5.762 6.914l3-2.5a4.5 4.5 0 0 0 .576-6.338Zm373.854-.633a4.5 4.5 0 0 0-5.622 7.028l2.5 2a4.5 4.5 0 0 0 5.622-7.028ZM488.374 28.523a4.5 4.5 0 1 0-6.748 5.954c4.956 5.617 10.248 11.902 15.876 18.854a4.5 4.5 0 0 0 6.996-5.662c-5.706-7.048-11.08-13.43-16.124-19.146Zm-155.08-.333c-4.587-1.376-9.222-.68-13.61 1.951a4.5 4.5 0 0 0-.534.376c-5.16 4.222-7.25 9.002-4.557 13.716 1.817 3.18 4.822 5.756 8.895 7.792a4.5 4.5 0 1 0 4.024-8.05l-.364-.186c-2.267-1.184-3.776-2.47-4.615-3.811l.019-.037c.26-.506.859-1.216 1.825-2.06l.209-.18.025-.015c2.16-1.22 4.106-1.473 6.096-.876 8.187 2.456 11.945 4.335 20.352 11.596a4.5 4.5 0 1 0 5.882-6.812c-9.468-8.177-14.335-10.61-23.648-13.404ZM576.6 85.828l-.145-.105c-2.316-1.624-5.638-2.422-9.005-1.765-4.358.85-8.256 3.952-11.345 9.287l-.092.167c-2.688 5.131-2.842 10.91-.648 17.297-2.65-2.167-5.044-4.764-7.19-7.804a4.5 4.5 0 1 0-7.352 5.19c4.4 6.233 9.766 11.044 16.07 14.382 8.642 4.575 16.43 8.874 25.934 14.517a502.258 502.258 0 0 1 13.897 8.549c.233.183.48.34.736.469 8.57 5.492 16.574 11.033 23.805 16.563a4.5 4.5 0 1 0 5.468-7.15 286.679 286.679 0 0 0-2.528-1.91c2.315-6.7 5.618-12.991 9.918-18.884l.285-.387.212.302c.485.712.907 1.471 1.267 2.282a4.5 4.5 0 1 0 8.224-3.656c-1.646-3.704-4.134-6.813-7.412-9.272a4.5 4.5 0 0 0-6.146.706 87.32 87.32 0 0 0-3.054 3.849c-3.98-8.844-8.743-16.062-14.318-21.637a4.5 4.5 0 0 0-.389-.346c-7.01-5.55-13.44-5.734-18.319-1.22-4.313-7.598-10.287-14.086-17.884-19.432l.042.03.013.01-.034-.025-.01-.007Z"/></svg>
