<svg xmlns="http://www.w3.org/2000/svg" viewBox="0 0 149.5 150"><path fill="#000" fill-rule="evenodd" d="m87.25 115 30.892 20.927.06.04.02.014.025.017c.003.002-.015.015-.05.039l-.155.108C114.73 138.42 72.51 166.24 30.75 136l31-21 12.5 12.5 13-12.5ZM148.5 2 106 62.5 117.5 75 106 87l42.5 61-61-43L75 117.5 62.5 105l-61 43L44 87 32.5 75 44 62.5 1.5 2l61 43L75 32l12.5 13 61-43ZM14 31l.019.028.014.02.04.06L35 62 22.5 75 35 87.5l-21 31c-30.24-41.76-2.42-83.98-.145-87.292l.108-.156L14 31Zm121.5 0 .037.052.108.156c2.274 3.311 30.095 45.532-.145 87.292l-21-31L127 75l-12.5-13 20.981-30.972ZM75 65.5 65 75l10 9.5L85 75l-10-9.5Zm43.042-51.645.156.108.052.037-.028.019-.02.014-.06.04L87.25 35l-13-12.5L61.75 35l-31-21c41.76-30.24 83.98-2.42 87.292-.145Z"/></svg>
