<svg xmlns="http://www.w3.org/2000/svg" viewBox="0 0 17 11"><path d="M7.245 4.52c-.08.315-.116.587-.109.815-.004 1.025.685 1.67 1.744 1.681 1.072 0 2.091-.47 3.059-1.41.455.643.682 1.325.682 2.046-1.448.871-2.709 1.841-3.782 2.91a32.694 32.694 0 00-3.673-2.867C5.055 6.559 5.748 5.5 7.245 4.52zM4.567 3.245c.087.883.37 1.57.845 2.064-.504.555-.78 1.227-.827 2.018a27.81 27.81 0 00-3.72-1.979 42.25 42.25 0 003.702-2.103zm8.565.003a27.81 27.81 0 003.72 1.978 39.066 39.066 0 00-3.727 2.094c-.058-.845-.333-1.535-.826-2.07.502-.561.78-1.228.833-2.002zm-4.298.832a1.228 1.228 0 110 2.456 1.228 1.228 0 010-2.456zM8.877.012a32.694 32.694 0 003.674 2.868c.111 1.135-.617 2.203-2.186 3.203.144-.3.211-.57.203-.809-.01-.9-.67-1.71-1.73-1.716-1.073 0-2.093.47-3.06 1.41-.455-.643-.683-1.325-.682-2.046 1.448-.87 2.708-1.84 3.781-2.91z" fill="#000" fill-rule="nonzero"/></svg>
