<svg xmlns="http://www.w3.org/2000/svg" viewBox="0 0 665 408"><path d="M317 1c12.8-1.1 18.4-1.1 31 .1 57.8 5.3 118.3 38 194 104.8 4.7 4.1 8.9 7.8 9.4 8.2.5.5-3.1 5-8 10.1-40 41.9-65 93.4-72.8 150.3-3.9 28.5-4.3 53.9-1 75.9.8 5.7 1 10.4.5 10.9-.4.4-19.2 11.1-41.7 23.7-29 16.3-41 22.5-41.2 21.5-.37-1.556 1.676-9.87 4.389-18.548l.26-.827.264-.828.267-.829c.18-.551.361-1.102.544-1.65l.275-.82.139-.408.278-.812c.326-.943.655-1.872.984-2.778 6.9-18.8 22.8-48.3 33.8-62.6.7-.8-2-4.6-9-12.6a686.507 686.507 0 0 1-4.922-5.615l-.778-.898-.776-.898c-3.74-4.336-7.307-8.567-9.324-11.089l-5.7-7.1 4.1-5.4c5.3-7 10.3-16.7 13-25.3 3.1-9.9 3.9-29.1 1.6-40.5-3.7-18.2-13.5-36-26.8-48.6-17.3-16.4-37.2-23.4-63.2-22.1-23.6 1.1-44 11.8-59.2 31.1-12.6 15.8-19.1 33.2-20.1 53.2-1 18.9 3.7 35.3 14.4 50.1l5.4 7.5-2.7 3.7c-4 5.3-11.7 14.4-20.8 24.4l-7.9 8.8 2.921 3.895c10.972 14.73 23.298 37.513 30.779 56.905 1.19 3.026 2.704 7.601 4.156 12.353l.255.84c.128.421.255.843.38 1.264l.25.842c2.448 8.273 4.472 16.23 4.059 16.702-.196.147-20.032-10.775-40.332-22.095l-3.73-2.081c-19.87-11.097-39.058-21.949-39.538-22.525-.4-.4-.1-4.8.7-9.7 2.1-14.5 2.8-42.2 1.5-58-5.6-64.6-31.9-124-75.3-170l-8.5-8.9 10.1-8.9C198.1 39.6 259.9 6.2 317 1ZM64 216.2c56.5-31.7 62.6-34.9 63.8-33.4 2.5 3.1 11.9 20.6 15.5 28.7C158.8 246.2 166 279.1 166 315c0 21.4-.8 29.3-2.9 28.5C158.2 341.6.2 252.4.8 251.8c.4-.3 28.8-16.4 63.2-35.6Zm469.7-27.4c4-7 4.7-7.7 6.5-6.7 4.23 2.256 31.765 17.678 59.816 33.443l3.582 2.013c30.44 17.114 60.347 33.989 60.602 34.244.4.4-36 21.4-80.9 46.5a14213.41 14213.41 0 0 1-28.18 15.713l-3.564 1.98c-29.362 16.313-50.231 27.732-50.456 27.507-1-1.1-2-14.2-2-28-.2-43.4 11.7-86.9 34.6-126.7Z" fill="#000" fill-rule="nonzero"/></svg>
