<svg xmlns="http://www.w3.org/2000/svg" viewBox="0 0 1024 1024"><path d="M85.868 725.47l141.146-166.682 248.863 110.013-189.996-177.766 84.477-66.703-155.575 11.105L87.015 328.77l28.86 101.105H.262l132.26 91.167L85.869 725.47zm159.153-306.156c61.454-33.954 252.733-128.836 434.214-104.974 0 0-159.213-3.637-356.502 99.511l-78.624 6.009.915-.546zm167.576-11.375l-31.971 1.963c230.311-114.251 434.214-71.098 434.214-71.098-246.277 0-413.872 88.504-483.668 133.854l81.425-64.719zm-90.701 97.526C638.59 282.817 943.752 376.55 943.752 376.55 588.98 335.303 377.806 506.535 349.238 531.369l-27.343-25.904zm68.453 63.806c48.463-38.349 290.558-211.934 633.39-150.48 0 0-319.203-119.716-658.768 128l25.378 22.48zM230.281 408.697c115.243-81.21 260.026-98.83 260.026-98.83-136.965 6.67-242.621 53.538-286.532 76.407l-.759.311C147.865 340.768 67.802 273.851 67.802 273.851l10.015 29.928 141.38 117.967 24.153-1.596s-5.018-4.161-13.438-11.162l.369-.292zm19.524 174.945L106.988 749.467l-24.912.681 148.673-175.179 19.057 8.673z"/></svg>