<svg xmlns="http://www.w3.org/2000/svg" viewBox="0 0 1024 1024"><path d="M913.764 305.062q26.366 0 50.364 2.814 23.996 2.816 54.808 9.926v85.914h-40.588q-5.628-23.404-14.368-37.18t-21.776-20.294-32.884-6.518q-16.888 0-30.22 5.926-13.33 5.926-21.034 17.628-7.702 11.702-7.702 28.292 0 17.184 6.666 29.774 6.666 12.592 22.368 24.59 15.7 11.998 45.624 27.404 36.44 18.96 57.326 37.18t30.81 39.7q9.926 21.478 9.926 49.92 0 36.44-16.888 63.252-16.886 26.81-49.178 41.18-32.292 14.368-74.658 14.368-30.218 0-62.956-3.408-32.736-3.406-61.474-9.924v-91.248h40.588q7.406 35.256 24.738 52.586 17.332 17.332 50.808 17.332 17.48 0 31.404-5.926 13.924-5.924 22.368-19.108t8.444-33.034q0-18.368-6.814-31.848t-21.924-25.626-42.07-25.774q-23.108-11.554-41.772-23.998-18.664-12.442-31.848-27.404c-8.398-9.184-14.602-20.014-19.766-31.262-2.008 9.772-6.908 18.622-11.68 27.262q-17.478 29.034-50.66 43.996-33.182 14.96-82.954 14.96-28.736 0-47.104-1.184v94.802q0 19.554 1.48 27.7 1.482 8.148 4.89 13.036 3.406 4.888 9.776 8.148 6.37 3.258 19.702 5.628v19.554H306.064v-19.554q13.036-3.554 18.072-6.22 5.038-2.668 7.852-6.964 2.814-4.294 4.148-13.034 1.332-8.74 1.332-28.886V494.372q0-23.996.89-56.586.888-32.588 1.776-46.216h-6.22q-3.556 11.85-7.556 23.256-3.998 11.406-14.96 40.736L232 669.462h-52.142L96.312 429.196q-7.406-20.442-13.034-40.588h-5.334q2.964 48.882 2.962 115.542v136.28q.002 21.922 2.074 30.514 2.074 8.592 8.296 14.22 6.222 5.63 21.626 9.48v19.554H.916v-19.554q10.962-2.962 17.332-6.518 6.37-3.554 9.628-9.48 3.26-5.924 4-15.108t.74-23.406V383.868q0-22.516-1.926-30.812-1.924-8.294-7.554-13.628-5.628-5.332-22.22-10.072v-19.554h147.242l82.064 243.23 88.878-243.23h309.174q74.954 0 112.282 26.812c13.794 10.24 25.494 24.266 30.68 40.89 7.876-16.396 3.926-9.692 10.988-20.596q18.072-25.478 52.29-38.662t79.25-13.184zM457.14 329.64c-7.32 1.932-14.328 4.838-20.424 9.344q-5.63 5.184-7.852 13.924t-2.222 30.96v256.264q0 18.072 1.778 28.59t7.258 15.998c5.954 5.278 13.89 7.56 21.398 9.654 5.676-1.446 11.138-3.558 16.402-6.1q6.37-3.406 9.48-9.48 3.112-6.072 4-15.404.89-9.332.888-23.554V384.46q.002-13.924-.74-23.404-.74-9.48-3.852-15.406-3.11-5.926-9.48-9.628c-5.162-3.012-10.924-4.744-16.634-6.382zm154.544 14.824q-20.738.002-31.996.594v166.794h25.478q29.626 0 47.106-8.444 17.478-8.442 25.922-26.81t8.444-49.476q0-30.812-8.444-49.032t-24.738-25.922-41.772-7.704z"/></svg>