<svg xmlns="http://www.w3.org/2000/svg" viewBox="0 0 864 1024"><path d="M217.583 461.075c-1.937 11.433-2.859 23.171-2.859 35.053 0 22.793 3.519 44.948 10.346 65.969l45.935-18.447c-5.62-16.51-8.762-34.225-8.762-52.767 0-5.999.379-11.904 1.015-17.715l-45.677-12.093zm46.691-101.4c-19.555 23.431-34.222 51.113-42.346 81.464L266.4 454.25a162.144 162.144 0 0 1 31.908-65.498l-34.034-29.076zm45.937 15.966c21.965-21.871 50.094-37.461 81.647-44.003l-17.713-41.525c-36.796 9.496-69.743 28.699-96.029 54.61l32.096 30.918zm-77.963 205.66c10.534 24.069 25.556 46.225 44.756 65.333a218.84 218.84 0 0 0 42.535 33.116l26.098-46.886c-29.971-16.7-54.06-42.612-68.538-73.885L232.248 581.3zM339.19 689.976c27.397 12.472 57.296 19.014 88.282 19.014 3.874 0 7.747-.094 11.621-.283l-7.014-55.34c-2.386.094-4.794.094-7.274.094-21.422 0-41.899-4.157-60.628-11.716l-24.987 48.232zm118.726 16.889c41.33-5.905 79.804-23.714 111.263-51.847l-39.206-40.035c-22.318 18.896-49.833 31.816-79.993 36.611l7.936 55.27zm123.992-64.199c25.649-26.95 43.363-59.522 52.125-94.858l-54.156-7.936c-7.747 24.825-21.398 47.051-39.206 65.143l41.236 37.651zm55.549-111.463c1.843-11.457 2.859-23.171 2.859-35.075 0-30.706-6.566-59.972-18.376-86.449l-43.81 26.95a162.6 162.6 0 0 1 9.305 54.255c0 12.165-1.369 23.975-3.872 35.43l53.895 4.89zm-25.294-140.61c-20.57-36.091-51.463-65.427-88.66-84.347l-22.697 40.887c30.466 16.061 55.1 41.523 70.216 72.419l41.141-28.959zm-104.438-91.527c-24.798-10.158-51.84-15.684-80.253-15.684-11.619 0-23.144.92-34.316 2.763l16.131 42.894c5.171-.449 10.344-.732 15.517-.732 22.508 0 43.904 4.511 63.365 12.826l19.555-42.068zM45.339 415.584c-5.079 25.202-7.747 51.207-7.747 77.969 0 46.696 8.03 92.165 23.617 134.799l140.974-57.207c-7.392-23.054-11.36-47.428-11.36-72.325 0-14.857 1.487-29.43 4.156-43.65L45.338 415.584zm83.676-173.727c-35.686 42.612-62.539 92.993-77.583 148.076l148.437 44.476c9.612-33.399 26.38-63.655 48.628-89.119L129.015 241.857zm133.511 88.67c28.768-27.776 64.666-48.256 104.509-58.506l-62.918-150.294c-60.225 20.384-113.838 55.081-157.01 100.007l115.418 108.793zM73.491 658.067c19.178 41.523 45.747 79.812 79.049 113.116 24.632 24.636 51.864 45.587 81.292 62.45l73.805-132.2a236.119 236.119 0 0 1-48.251-37.178c-21.233-21.234-37.835-45.87-49.456-72.726L73.491 658.067zm184.052 188.322c53.047 26.006 111.807 39.753 172.599 39.753 10.061 0 20.122-.355 30.089-1.113l-18.468-152.774c-5.622.353-11.244.543-16.957.543-34.058 0-67.075-7.299-97.164-21.045l-70.098 134.634zm225.194 36.352c79.143-10.629 152.784-44.95 212.371-99.465L583.656 670.609c-34.41 31.933-76.947 52.412-122.788 59.428l21.869 152.704zm231.477-118.289c50.92-53.335 85.142-118.479 99.997-189.15l-161.166-24.731c-8.858 39.682-28.058 76.317-56.093 106.764l117.262 107.117zm104.793-216.361c2.408-17.903 3.685-36.185 3.685-54.538 0-65.498-16.131-127.336-44.544-181.567l-140.879 88.74c13.839 29.809 21.492 63.019 21.492 98.094 0 11.527-.826 22.96-2.41 34.132l162.656 15.14zm-55.62-261.851c-36.726-58.861-88.661-107.401-150.209-139.974l-80.819 144.768c39.229 20.384 72.057 51.562 94.399 89.685l136.629-94.479zM585.428 132.97c-47.613-20.668-100.115-32.101-155.286-32.101-35.048 0-69.011 4.606-101.296 13.298l58.028 153.696c12.375-2.031 25.011-3.046 37.931-3.046 32.096 0 62.729 6.566 90.597 18.282l70.026-150.129zM427.472 84.997c113.838 0 221.039 44.571 301.764 125.303 80.725 80.734 125.196 187.851 125.196 301.699 0 114.038-44.377 221.343-125.102 301.983-80.536 80.662-187.831 125.02-301.858 125.02s-221.227-44.358-301.856-125.02C44.985 733.248.608 626.037.608 511.999c0-235.445 191.42-427.003 426.865-427.003z"/></svg>