<svg xmlns="http://www.w3.org/2000/svg" viewBox="0 0 960 1024"><path d="M754.748 531.63c-8.346 4.673-16.918 8.591-25.87 12.054-.15-39.173-.377-78.213-.51-117.311-22.33-16.048-46.211-30.013-71.267-41.405-30.828-14.042-63.433-24.241-96.626-30.601l.454 102.171c-104.67.437-209.359.891-314.027 1.324.075-18.109 4.654-36.296 13.379-50.924 25.283-42.144 85.234-54.711 140.834-62.544 97.855-13.759 181.992-13.097 272.034-2.669 28.82 3.331 58.247 7.702 84.268 20.779 34.007 17.07 62.242 49.014 63.34 80.655 1.268 34.214-29.332 67.994-66.007 88.47zm-493.73-22.161c37.262-6.357 76.435-7.04 113.999-8.364 63.793-2.29 122.704-6.434 189.979 3.767 42.505 6.434 88.262 18.64 110.517 49.241.814 1.041 1.476 2.062 2.138 3.103-37.262 6.359-76.435 7.021-113.999 8.346-63.793 2.29-122.704 6.509-189.979-3.767-42.503-6.434-88.262-18.697-110.573-49.22-.758-1.043-1.418-2.082-2.082-3.104zM678.39 659.746c-25.283 42.201-85.311 54.709-140.834 62.544-97.857 13.814-181.992 13.076-272.034 2.649-28.82-3.311-58.249-7.683-84.268-20.76-34.007-17.089-62.242-49.089-63.34-80.654-1.268-34.234 29.332-67.939 66.007-88.489 8.346-4.656 16.918-8.573 25.87-11.979l.51 117.253c22.33 16.029 46.213 29.938 71.269 41.387 30.828 14.042 63.433 24.241 96.626 30.676l-.454-102.228c104.668-.454 209.357-.889 314.027-1.399-.077 18.186-4.656 36.429-13.38 51zm172.303-390.972c-84.195-70.38-217.477-90.552-337.608-88.793-112.787 1.703-213.994 22.634-304.394 90.931.21 62.392.51 124.785.814 187.177-49.316.208-98.615.435-148.006.662-28.822 38.284-51.889 83.758-58.911 129.44-12.054 78.573 23.277 157.827 85.385 209.717 84.195 70.38 217.477 90.552 337.608 88.774 112.787-1.628 213.994-22.69 304.394-90.854-.21-62.45-.51-124.843-.814-187.235 49.316-.152 98.615-.379 148.006-.664 28.822-38.226 51.889-83.758 58.911-129.44 12.054-78.573-23.277-157.827-85.385-209.717z"/></svg>