<svg xmlns="http://www.w3.org/2000/svg" viewBox="0 0 944 1024"><path d="M406.676 88.054c10.158.052 20.266.052 30.424-.106.158 121.386-.104 242.718.106 364.102 22.372-.472 44.796-.158 67.168-.684-.212-121.174-.264-242.348 0-363.524 10.316.212 20.686.422 31.056.632 11.266 123.754 22.636 247.508 34.742 371.156 72.274 12.16 137.598 49.27 193.922 94.908 46.374-13.212 92.434-27.582 138.914-40.426-13.212 49.164-28.53 97.698-41.586 146.916 54.798 80.378 83.012 177.866 82.486 274.984-146.546.212-293.04.158-439.588.054.054-117.964-.526-235.928.264-353.84-22.372-2.736-44.9-1.368-67.326-.788-.262 118.174-.052 236.348-.104 354.574-145.704.212-291.356.158-437.062 0-.526-91.118 24.162-182.604 72.8-259.824 2.422-5.58 8.58-11.108 6.002-17.634-13.37-48.692-27.952-97.014-41.164-145.706 47.428 13.634 94.592 28.216 142.02 41.954 55.428-45.586 119.964-81.38 190.974-95.172 11.686-123.912 23.95-247.718 35.952-371.576zm-172.288 568.13c42.164 34.636 84.17 69.536 127.282 102.962 3.736-56.85 6.632-113.7 9.684-170.602-48.006 17.002-97.012 35.11-136.966 67.64zm334.1-68.798c2.79 57.166 5.684 114.384 9.316 171.55 44.848-32.636 86.696-69.22 130.23-103.542-40.112-33.636-90.592-51.48-139.546-68.008zm92.064 256.508c55.64 9.002 111.964 14.002 167.92 20.898-15.318-52.48-36.69-103.594-66.01-149.862-34.426 42.584-67.588 86.222-101.91 128.964zm-544.654 19.582c54.64-5.684 109.068-12.58 163.654-18.634-33.004-42.426-65.692-85.116-99.644-126.754-28.9 44.584-48.902 94.592-64.01 145.388z"/></svg>