<svg viewBox="0 0 1026 788" xmlns="http://www.w3.org/2000/svg"><path d="M571.106 787.152c103.324.602 210.006-20.466 297.214-78.29 33.222-21.802 62.09-49.68 86.994-80.53 72.5-98.904 84.482-220.248 54.166-337.45l-6.942-22.414c-28.61-83.674-88.458-155.586-164.422-200.612C738.112 8.222 616.994-7.59 502.64 4.732c-94.79 9.35-188.462 44.252-260.548 107.546-55.236 50.196-97.892 116.25-114.74 189.196-1.378 5.774-2.672 11.504-3.834 17.234-2.542 12.712-4.138 25.552-5.86 38.348-19.778-.646-39.554-1.422-59.332-2.8-9.35-.69-20.596-3.06-25.034-12.41-5.514-10.384-8.66-21.802-12.538-32.832-4.566 3.404-9.048 6.808-13.528 10.298-1.552 1.292-4.698 3.878-6.248 5.17 1.034 54.98-.346 110.002.516 165.024 6.378 3.232 15.296 16.372 21.674 10.126 4.136-10.816 6.334-22.836 13.744-32.144 5.128-6.85 14.392-7.282 22.06-9.22 21.242-1.25 42.57-2.198 63.856-2.026 16.976 97.678 73.55 187.818 154.208 245.51 84.58 61.356 190.92 85.314 294.07 85.4zm10.584-48.332c-71.784 1.112-136.832-18.552-194.696-61.11-46.146-35.762-77.556-88.2-92.594-144.17-7.798-27.618-11.202-56.142-13.96-84.622l37.702-1.25c59.072-2.628 118.102-6.204 177.216-7.884 8.102 20.208 20.812 40.328 41.968 48.644 33.65 15.856 77.298 6.722 99.23-24.086 19.648-33.176 21.974-76.522 6.678-111.768-19.69-42.656-78.29-54.376-116.852-30.85-4.222 4.352-8.574 8.532-12.668 12.97-8.66 11.246-13.658 24.646-18.57 37.788-71.224-3.62-142.576-5.214-213.756-9.136l2.618-20.094 2.166-20.192c12.452-73.506 37.184-149.296 92.68-201.906 17.278-18.226 38.648-32.142 61.226-42.914 119.524-55.756 276.36-25.38 360.51 77.986 46.448 57.134 65.19 131.502 68.854 203.716-1.25 17.278-.474 34.556-.216 51.834-1.724 20.036-4.696 39.986-6.334 60.064-10.34 59.978-31.67 119.74-70.62 167.308-39.382 51.272-99.488 84.752-162.912 95.178-26.328 3.748-10.478 1.874-47.67 4.494z" fill-rule="nonzero"/></svg>
