<svg xmlns="http://www.w3.org/2000/svg" viewBox="0 0 853 1024"><path d="M43.307 954.699l6.644-21.19c16.881-53.828 25.44-111.065 25.44-170.107 0-97.205-24.689-192.945-69.514-269.565l-6.212-10.615 361.713-378.081v295.043l-9.511 4.362c-63.631 29.201-104.745 93.225-104.745 163.111 0 98.937 80.543 179.434 179.545 179.434 99 0 179.548-80.497 179.548-179.434 0-69.89-41.117-133.914-104.747-163.111l-9.51-4.362V105.141l361.713 378.081-6.212 10.615c-44.831 76.619-69.516 172.36-69.516 269.565 0 59.035 8.557 116.272 25.436 170.107l6.647 21.19H43.308z"/></svg>