<svg xmlns="http://www.w3.org/2000/svg" viewBox="0 0 1024 1024"><path d="M808.232 45.076c14.864 23.416 27.42 48.8 32.172 76.288 4.478 18.53 1.968 39.502 14.252 55.316 20.904 30.338 39.298 62.85 48.868 98.618 9.706 33.054 7.67 68.278 18.054 101.128 18.8 62.442 57.622 115.654 92.78 169.544 7.67 9.57 3.258 23.076-4.682 30.882-14.728 14.796-36.516 22.464-57.284 20.7-11.268-4.614-19.208-14.388-28.168-22.262-27.488-27.284-58.776-50.292-88.708-74.726-50.022-39.908-110.902-63.596-160.312-104.32-23.28-19.072-42.692-49.478-34.548-80.698 4.956-20.362 24.91-30.204 38.62-43.914 7.33-7.466.95-18.122-5.43-23.618-21.176-1.698-37.6 15.406-50.226 30.134-28.776 36.786-19.206 91.83 11.336 124.476 52.192 57.556 130.178 80.836 187.596 131.808 39.91 38.414 50.362 97.802 37.058 150.132-39.636-73.098-113.956-119.454-191.33-144.228-103.436-32.646-206.534-71.604-296.26-133.706-25.858-18.666-51.65-38.28-71.944-63.122-8.552-9.976-3.122-24.026-.204-35.09 23.756-70.178 66.108-135.674 126.854-179.18 77.238-56.47 178.162-75.066 271.758-60.61 32.714 4.752 63.798 17.444 90.812 36.448 7.94-19.48 13.71-39.706 18.936-60zM145.736 235.524c-53.686 32.036-95.36 89.998-94.206 154.34-44.796 27.422-55.316 88.912-37.94 135.54 9.638 34.548 36.312 59.932 64.478 80.224 3.19 12.354 6.448 24.638 9.706 36.992 20.632 44.32 59.048 77.644 103.844 96.106 128.006 56.808 277.392 15.066 403.7 77.508 32.986 15.408 54.162 47.308 60.746 82.464-2.716 9.91-5.022 19.82-7.33 29.796-11.742 18.598-25.86 35.702-42.284 50.43 35.904-10.996 72.962-18.462 108.052-32.172 45.744-19.886 92.102-47.51 116.264-92.916 25.18-47.374 16.968-105.338-5.092-152.236-32.238-64.954-98.82-104.184-165.334-126.852-131.536-42.488-266.804-91.898-370.038-187.326-49.614-46.018-74.862-119.522-55.246-185.494-30.882 7.738-62.374 15.882-89.32 33.596z"/></svg>