<svg xmlns="http://www.w3.org/2000/svg" viewBox="0 0 31 32"><path fill="#000" d="M23.506 4.707c3.999.452 6.349 2.366 7.105 8.29h-4.014c-.259-1.563-.783-4.051-3.339-4.173-2.263-.108-3.216 3.598-3.216 7.248s1.086 7.09 3.216 7.207c2.226.122 2.835-2.462 3.235-3.877h4.031c-.422 5.383-3.061 8.07-7.961 7.882-4.339-.276-6.622-4.534-7.435-8.328-.069.733-.256 1.447-.456 2.154q-.644 2.09-1.633 3.31-1.195 1.22-2.595 1.837t-3.602.617H.012V5.068h6.635q2.516 0 3.797.558 1.487.558 2.565 1.882t1.692 3.436c.202.69.335 1.398.419 2.112.728-3.803 3.096-8.187 7.441-8.347h.942zM4.061 8.941V22.93l2.303.022q.947-.081 1.733-.408t1.288-.989q.502-.414.831-1.842t.329-3.763q0-2.425-.337-3.823-.337-1.192-1.048-1.995T7.43 9.076q.042-.112-2.145-.112L4.06 8.942z"/></svg>
