<svg xmlns="http://www.w3.org/2000/svg" viewBox="0 0 896 1024"><path d="M344.243 181.294c56.412-19.712 118.414-22.944 176.575-9.236 66.596 15.457 127.724 53.325 171.375 105.897 37.893 45.329 62.903 101.352 70.972 159.903 6.125 45.184 3.038 91.703-10.086 135.427-11.351 38.743-30.771 74.788-55.344 106.725 13.368 16.089 26.518 32.374 40.177 48.246 16.966 2.186 34.538.218 51.77.899 35.777-93.332 70.241-187.199 106.31-280.409-1.263 151.397-1.142 302.793-2.065 454.19-119.728-41.515-238.967-84.461-358.622-126.145-16.746-116.615-32.35-233.4-48.683-350.09 40.59 47.59 79.867 96.297 120.407 143.959 15.944-33.152 25.764-70.315 20.975-107.233-4.714-48.756-30.696-94.935-69.61-124.636-31.45-24.354-71.238-38.183-111.097-37.381-41.952-.341-83.512 15.628-115.377 42.704-48.196 40.175-72.793 106.747-61.491 168.579 3.111 19.639 10.67 38.135 18.471 56.291 40.079-47.007 78.773-95.155 118.852-142.186-16.041 116.64-32.034 233.305-48.464 349.896C239.659 818.548 120.321 861.324.594 902.96c-.51-151.665-.73-303.351-.486-454.991 37.552 93.476 74.081 187.392 110.831 281.16 16.43.316 32.884.413 49.314.049 13.466-16.114 24.719-34.198 37.309-51.089-34.051-45.037-57.482-98.461-64.239-154.703-9.042-69.707 5.371-142.355 41.392-202.825 37.673-64.555 98.922-114.794 169.528-139.267z"/></svg>