<svg xmlns="http://www.w3.org/2000/svg" viewBox="0 0 845 754"><path d="M519 1.1c-7 1.2-20.6 3-30.5 3.9-19.3 1.9-53.7 10.4-77.5 19.1-16.4 6.1-48.3 21.7-60.5 29.7-21.1 13.7-45.5 36.7-61.2 57.7-9.8 13-22.1 33.4-27.8 46.1-5.3 11.8-5.7 11.1-5.6-10.5.1-17.2.5-20.4 5.7-40.1 4.3-16.8 6.1-21 17.4-43.5 5-9.9 10-20.1 11.1-22.8L292 36l-4.3 2.1c-2.3 1.2-7.3 4.3-11.2 6.9-3.8 2.6-10.4 6.5-14.5 8.7-4.1 2.2-15.5 8.7-25.2 14.4-9.7 5.7-21.4 12.4-26 14.9-17.2 9.4-39.3 26.7-60.7 47.5-30.1 29.4-46.4 51.2-62.7 83.7-9.8 19.5-19 42.4-24.2 60.1-4.6 15.5-4.7 15.8-6.5 13.6-2.8-3.5-13.7-22.1-23.7-40.4-5.1-9.4-10.7-19.3-12.5-22-1.8-2.8-5.2-9.3-7.7-14.5-2.5-5.2-5.4-10.6-6.5-11.9l-2-2.5-.6 12.5c-.4 6.8-1.2 19.6-1.9 28.4-2 26.9-1.5 70.6 1.1 93.5C15.3 437.9 53.6 524.6 116 587c26.3 26.3 48.4 42 84.9 60.3 32.8 16.5 53.5 24.6 86.2 34.1 17.5 5 28.3 6.8 54.9 9.1 10.2.9 18.6 1.8 18.8 2 .2.2-6.1 8.8-14 19.2-7.9 10.3-15.5 20.4-16.8 22.3-1.3 1.9-5 6.3-8.2 9.7-3.1 3.5-6.2 7.2-6.8 8.3-.9 1.8-.8 2 1.7 2 1.5 0 5.2-.4 8.2-1 8.2-1.4 21.4-3.1 31.6-4 19.3-1.9 53.7-10.4 77.5-19.1 16.4-6.1 48.3-21.7 60.5-29.7 21.1-13.7 45.5-36.7 61.2-57.7 9.8-13 22.1-33.4 27.8-46.1 3.6-7.9 4.4-9.2 5-7.3 1.1 3.3.7 32.7-.5 38.9-3.2 17.1-11 42.1-14.8 48-2.4 3.6-16.2 32.3-15.8 32.7.6.6 5.6-1.9 12.6-6.1 3.6-2.1 9.2-5.1 12.5-6.6 33.2-15 85.6-55.3 118.1-90.8 39-42.6 66.6-86.4 81-128.5l4.7-13.8 2.2 3.4c4.8 6.9 13.5 21.8 23 39.2 5.4 9.9 11.2 20.2 13 23 1.8 2.7 5.2 9.3 7.7 14.5 2.5 5.2 5.4 10.6 6.5 11.9l2 2.5.6-12.5c.4-6.8 1.2-19.6 1.9-28.4 2-26.9 1.5-70.6-1.1-93.5-12.4-106.9-50.7-193.7-113.1-256-17-17-30.3-28-48.9-40.2-14.7-9.7-51.1-28.4-71.6-36.8-32.4-13.3-74.5-25-97.1-27-7.1-.7-15.2-1.5-18.1-1.8l-5.2-.7 9.5-14.9c12-18.8 17.3-26.1 25.2-34.8 3.4-3.9 6.7-7.9 7.3-8.9.9-1.7.6-1.9-2.8-1.8-2.1.1-5.8.5-8.3 1Zm-69.5 154.5c23.4 3.4 46.4 10.8 70 22.4 24.7 12.1 41.7 24.3 59.1 42.2 17.9 18.4 30 35.8 42.5 60.8 20.7 41.5 26.9 72 19 94.3-3.7 10.8-13.6 22-24.3 27.8-5.5 2.9-7.4 3.4-15.3 3.7-11.3.5-18.4-1.2-32.3-7.8-14-6.7-22.7-12.6-30.5-20.9-7.4-7.9-14.3-20.6-15.3-28.2-.9-7 .2-7.3 20.7-6.6 13.3.5 19.4 1.3 30.4 3.7 14.5 3.3 19.8 3.5 20.3 1 .1-.8-1.4-4.2-3.4-7.5-2.1-3.3-5.9-9.6-8.6-13.9-4.9-8.2-22.9-28.8-34.3-39.4-7.8-7.3-17.5-13.2-28.1-16.9-7.4-2.6-9-2.8-23.9-2.8-12.5 0-17.5.4-23 1.9-5.5 1.4-27.9 9.4-39.6 14.1-1.3.5-3.7-2.3-10.5-12-6.6-9.6-11.2-14.9-18.8-21.8-5.6-5-10.2-9.4-10.4-9.8-.6-1.5 21.5-11.7 30.8-14.2 15.8-4.2 23.4-5 41.8-4.4 28.4 1 49.7 7.5 73.2 22.5l9.5 6.1 1.3-3.2c2.2-5.2.1-10-8.2-18.5-14.3-14.8-35.2-25.8-63.1-33.2-31.4-8.4-61.5-9-95.2-2-14.1 2.9-14.6 3.1-42.1 16.2-4.2 2-4.5 2-12 .4-10.3-2.2-26.4-4.3-39.2-5.2l-10.5-.7 5.1-1.7c2.8-.9 18.1-8.4 34-16.6 32.5-16.9 37.2-19 49.9-23.3 25.3-8.4 52.6-10.6 81-6.5Zm-189.1 193c8 2 27.2 11.3 35.1 16.9 12.8 9.1 22.4 22.1 26.1 35.2 2.2 8.1 1.7 9.3-4.3 9.3-7.5 0-28.5-2-43-4.1-16.6-2.4-22.1-2.5-23-.3-.4 1 1.7 6.3 5.2 13.2 5.4 10.7 6.9 12.8 20.3 27.1 8 8.6 17.4 18.1 21 21.3 16.6 14.4 38.5 22 58.7 20.4 14.1-1.2 21.3-3.4 55.2-16.7 2-.7 3 .4 10.9 11.7 6.6 9.5 11.2 14.8 18.8 21.7 5.6 5 10.2 9.4 10.4 9.8.2.5-4.5 3.3-10.5 6.2-17.5 8.8-34.7 12.7-56 12.7-28.9 0-52.5-6.5-77.1-21.4-6-3.6-11.2-6.6-11.5-6.6-.4 0-1.1 1.7-1.6 3.7-1.5 5.4 1.2 10.4 10 18.9 14.8 14.2 34.3 24.2 61 31.3 32 8.5 61.6 9.2 95.7 2.1 14.1-2.9 13.8-2.8 42-16.2 4.2-2 4.5-2 12-.4 10.3 2.2 26.4 4.3 39.2 5.2l10.5.7-5.1 1.7c-2.8.9-18.1 8.4-34 16.6-32.5 16.9-37.2 19-49.9 23.3-46.2 15.4-98.7 9.9-151-15.9-25-12.3-42-24.5-60-43.1-17.3-18-29.3-35.2-41.9-60.5-20.4-40.8-26.5-71.6-18.7-93.7 4.5-13 17.1-25.7 29.9-30.3 5.1-1.8 18.2-1.7 25.6.2Z" fill="#000" fill-rule="nonzero"/></svg>
