<svg xmlns="http://www.w3.org/2000/svg" viewBox="0 0 736 1024"><path d="M132.966 678.984S.08 710.382.08 840.919s137.737 116.014 159.433 101.516c21.799-14.498 48.346-50.821 91.866-45.971 38.091 4.243 75.979 9.673 114.348 6.112 21.117-1.869 42.435-6.112 61.783-15.104 28.491-13.312 53.371-38.47 87.016-23.769 15.686 6.895 24.957 23.491 41.148 28.996 17.756 6.038 39.96-.884 53.473-13.109 29.097-26.547 34.048 25.738 57.515 20.813 48.546-10.356 71.052-68.376 47.461-110.986-37.484-67.695-155.494-74.01-221.495-62.466-39.784 6.996-82.396 15.787-120.385 29.401-94.217 33.746-321.446 45.87-239.278-77.368zm70.271-541.374c15.485 2.475 35.994-7.098 52.489-7.098 21.395-.203 43.017 2.753 63.35 9.573 57.994 19.323 87.016 26.522 169.209 14.498 82.193-12.15 176.408 28.998 176.408 103.89 0 74.894-152.235 91.868-227.229 108.74-74.892 16.975-147.412 72.518-176.408 113.565-29.024 41.045-12.049 67.693 74.892 41.045 44.38-13.513 91.564-18.642 137.737-21.117 38.975-2.072 83.961-3.057 108.614 33.947 41.148 61.759-77.747 82.268-113.463 79.415-44.102-3.536-88.407-1.869-132.306 3.461-42.537 5.127-79.44 20.913-120.081 32.759-41.829 12.327-79.718 1.087-104.194-34.932-22.784-33.444-32.457-83.86-8.284-120.081 10.861-16.268 25.158-29.908 40.161-42.334 30.689-25.638 65.9-46.073 101.338-64.335 15.485-7.982 31.169-15.485 46.957-22.885 6.717-3.157 66.708-20.511 48.85-37.787-10.761-10.356-50.922 3.258-63.249 4.825-34.048 4.168-72.34 10.179-106.365 2.98C92.021 319.043 65.095 218.614 68.935 149.733c.983-17.959 3.459-77.343 32.659-77.343 21.219 0 40.465 12.225 56.733 24.854 13.437 10.66 24.777 35.034 42.535 39.859l2.374.505z"/></svg>