<svg xmlns="http://www.w3.org/2000/svg" viewBox="0 0 754 1024"><path d="M334.979 191.505c17.545-26.373 29.619-55.883 42.423-84.736 9.557 24.439 20.681 48.333 33.304 71.386 6.127 10.213 12.146 22.47 24.585 25.789 61.865 24.293 118.624 59.092 177.207 89.952 23.381 14.409 50.265-.036 69.89-14.153 22.69-16.778 46.546-40.124 45.123-70.692 19.516.911 30.751 21.85 25.097 39.542-17.727 70.072-37.243 139.708-56.904 209.27-.985 5.142-4.925 8.718-8.318 12.365-28.196 29.073-56.102 58.474-84.079 87.764-7.733 7.514-13.059 18.13-12.111 29.146 1.533 15.138 15.94 26.336 30.459 28.013 9.702 1.497 19.151-1.787 28.196-4.815-14.445 38.009-36.586 72.516-59.931 105.566-34.398-5.581-72.042 5.726-94.22 33.413-22.361 25.607-24.769 63.761-11.163 94.111-34.58 39.834-70.291 78.754-107.17 116.471-37.571-37.243-72.735-76.82-107.972-116.253 7.514-18.676 11.162-39.542 6.385-59.385-7.223-32.172-34.509-57.597-65.915-66.022-15.138-4.524-31.116-3.54-46.691-2.773-22.397-33.487-45.049-67.41-59.276-105.382 15.904 7.513 37.207 8.243 49.937-5.618 13.206-11.453 10.651-32.573-.911-44.209l-89.332-93.09c-2.773-2.553-4.634-5.654-5.545-9.301-19.296-68.577-38.083-137.337-55.992-206.316-2.627-10.542-3.101-22.909 3.977-31.881 4.815-6.676 13.095-8.719 20.427-11.382-1.058 32.865 25.059 57.525 49.973 74.815 18.021 12.037 42.059 24.038 62.996 11.745 53.804-27.723 105.346-60.005 161.338-83.386 11.709-5.984 26.883-7.806 34.217-19.954zM184.291 395.996c-.145 20.064-.073 40.09-.109 60.151-.766 4.888 2.662 8.682 5.144 12.438 33.667 47.823 66.789 96.082 100.275 144.012 5.472 7.697 10.286 15.904 16.963 22.69-.147-45.232-.109-90.464 0-135.695-40.709-34.618-81.418-69.199-122.272-103.596zm262.782 103.888c.474 45.158-.109 90.317.328 135.513 9.339-10.359 16.27-22.508 24.513-33.669 32.428-46.945 65.476-93.455 97.539-140.619 2.007-21.559.183-43.518.766-65.258C528.855 430.14 488 465.048 447.073 499.884zM121.586 781.086c25.025-20.866 66.171-22.543 89.626 1.531 24.95 25.827 17.983 70.95-8.608 92.981-36.842 31.408-78.937 56.393-122.783 76.64 29.875-51.616 43.808-111.657 41.766-171.151zm416.789 6.784c21.704-29.292 67.739-29.254 94.257-6.566-2.736 59.604 12.621 118.842 40.928 171.078-42.897-21.011-84.992-44.831-121.324-76.128-25.424-20.5-34.251-61.501-13.862-88.385z"/></svg>