<svg viewBox="0 0 459.56 220.29" xmlns="http://www.w3.org/2000/svg"><path d="M77.9 186.2c39.75 0 58.6-22.58 61.77-26.81h13.74v-25.78h-1.53c-6.87.18-18.8-3.88-21.25-10.31-1.3-3.4.39-7.12 5-11 3.83-3.26 7.69-4.5 11.5-3.71 9.1 1.91 15.37 14.59 15.43 14.72l.41.84h11.41l.51-26.74 8.78-6.68a50.4 50.4 0 0 0 3.72 3.78 6.48 6.48 0 0 0 8.74 0l.18-.17c.17-.21 17.46-20.69 21.32-24a5.89 5.89 0 0 0 2.31-4.34 7.14 7.14 0 0 0-2.26-5l-9.82-9-7.36 8-3.81-3.5 7.33-8-11.27-10.22-7.3 8-3.8-3.49 7.31-8-10.37-9.46-.12-.1c-2.35-1.73-4.59-2.3-6.67-1.72-3.22.91-4.64 4.31-4.7 4.46l-5.33 17.86c-22.45-3.61-27.05 1.86-27.5 2.5l-1.07 1.51 1.7.73a39.83 39.83 0 0 1 17 13.27c-13.5-9-30.11-12.35-48.47-9.67a95.47 95.47 0 0 0-27.6 8.36l-3.91 2 4.34.78c26.87 4.82 34.08 22.4 31.86 37.24-3.56 23.8-26.26 36.07-45.25 33.79-22.48-2.69-38.7-12.05-48.22-27.82A53.86 53.86 0 0 1 7 85.51l-.38-9.85L4 85.17c-7.4 27.59-4.5 52.83 8.22 71.14 11.81 17 31 27.16 55.47 29.41 3.54.33 6.95.48 10.21.48zM408.56 87.19l-4.5-1 .9 4.51c.08.41 7.75 40.41-15.64 66.22-16.06 17.71-43 24.84-80 21.16l-5.41-.54 2.43 4.86a69 69 0 0 0 23.14 24.6 65.36 65.36 0 0 0 36 10.36c14.77 0 28.78-4.33 39.89-9.24l.17-.08c31.45-16.19 41.14-38 43.74-53.38a63.53 63.53 0 0 0-2-29.93c-.71-2.64-8.91-30.9-38.72-37.54z"/><path d="M447.34 62.7c-11.81-17-31-27.16-55.47-29.41C345.09 29 323.32 55 319.89 59.62h-13.74V85.4h1.54c6.86-.13 18.8 3.88 21.24 10.31 1.3 3.4-.38 7.12-5 11-3.82 3.26-7.69 4.5-11.5 3.71-9.09-1.91-15.37-14.59-15.43-14.72l-.41-.84h-11.41l-.51 26.74-8.77 6.68a51 51 0 0 0-3.73-3.78 6.48 6.48 0 0 0-8.74 0l-.17.17c-.18.21-17.47 20.69-21.33 24a5.92 5.92 0 0 0-2.31 4.41 7.14 7.14 0 0 0 2.26 4.94l9.82 9 7.36-8 3.82 3.5-7.33 8 11.26 10.27 7.3-8 3.8 3.49-7.31 8 10.4 9.37.13.1a8.62 8.62 0 0 0 5.06 1.94 5.77 5.77 0 0 0 1.6-.22c3.22-.91 4.64-4.31 4.7-4.45l5.34-17.87c22.44 3.61 27-1.86 27.5-2.5l1.06-1.51-1.7-.73a39.72 39.72 0 0 1-17-13.27c13.49 9 30.1 12.35 48.46 9.67a95.47 95.47 0 0 0 27.6-8.36l3.92-2-4.35-.78c-26.87-4.82-34.08-22.4-31.86-37.24 3.56-23.8 26.25-36.07 45.25-33.79 22.48 2.69 38.7 12 48.22 27.82a53.68 53.68 0 0 1 7.63 23.08l.38 9.84 2.57-9.51c7.49-27.62 4.55-52.87-8.17-71.17z"/><path d="M304 75.2v-18h14.07l.45-.61c.09-.12 8.94-11.85 26.28-19.8 29-13.29 59.05-6.05 79.19 2.37l5.4 2.26-3.65-4.58c-.26-.32-26.45-32.62-67.19-36.48C331.48-2.18 304.2 8.12 277.47 31L156.62 143.2l-.48.45v18.48h-14.4l-.45.55c-.09.11-9.43 11.22-26.89 18.91-29.16 12.83-58.25 6.41-77.52-1.19l-4.54-1.79 2.75 4c.21.32 21.76 31.4 59.65 36.83a81.6 81.6 0 0 0 11.59.82c24.51 0 50.12-10.88 76.35-32.47L303.53 75.65zM51 132l4.49 1-.9-4.52c-.08-.4-7.74-40.41 15.64-66.21 16.06-17.72 43-24.84 80-21.16l5.41.53-2.43-4.86A69 69 0 0 0 130.1 12.2C103.71-4.8 74.26 2.19 54.2 11l-.16.08c-31.46 16.19-41.15 38-43.75 53.39a63.48 63.48 0 0 0 2 29.92C13 97.07 21.19 125.32 51 132z"/></svg>
