<svg xmlns="http://www.w3.org/2000/svg" viewBox="0 0 1024 1024"><path d="M96.516 197.938c41.588-27.44 94.132-38.398 143.084-28.518 50.928 9.79 96.782 42.036 123.772 86.272 21.962 34.94 31.752 76.572 30.764 117.62 116.272 55.06 232.68 109.894 348.996 164.864 30.854-22.59 68.714-35.838 107.112-35.254 52.544.314 104.146 26.004 136.076 67.68 32.786 41.812 45.046 98.712 33.01 150.358-10.016 43.878-37.14 83.668-74.82 108.324-45.584 30.45-105.944 37.544-157.14 17.784C722.428 823.626 676.62 759 673.118 690.422c-116.722-55.104-233.488-110.3-350.254-165.36-34.132 30.09-78.01 49.492-123.682 51.512-55.644 3.144-111.872-20.568-148.834-62.2C21.742 482.712 4.81 441.62.14 399.404c53.218 24.88 106.256 50.12 159.386 75.18 38.488-21.962 76.302-45.09 115.104-66.422-6.512-44.506-16.122-88.562-23.308-132.98-51.602-24.97-103.788-48.726-155.344-73.742.134-.852.404-2.604.538-3.502zm681.422 415.598c-6.872 3.548-13.204 8.038-18.908 13.248-7.5-5.12-15.134-10.06-23.038-14.506-3.414 11.632-4.402 23.712-2.784 35.748 5.524-.988 11.092-1.976 16.662-2.918.628 11.452 4.356 23.352-.406 34.446-6.332 17.694-7.904 38.264 1.078 55.374 11.228 17.336 34.762 24.252 53.982 17.29 25.824 10.464 53.04 21.154 81.512 18.594 16.258-1.214 31.796-8.624 43.024-20.48 9.522-10.598 25.016-10.284 37.904-13.518-3.726-10.33-10.238-19.49-13.608-29.91-.134-15.584 1.394-32.066-6.646-46.168-14.596-29.82-45.404-45.18-72.17-61.796-7.23-18.996-25.914-34.446-46.886-33.008-23.714 6.242-38.488 27.35-49.716 47.604z"/></svg>