<svg xmlns="http://www.w3.org/2000/svg" viewBox="0 0 1024 1024"><path d="M895.184 306.338c13.904 3.372 24.786 8.847 33.184 14.793 59.527-13.14 94.087-13.425 94.087-13.425-278.922-65.009-498.27-2.703-685.141 113.719C150.482 537.879 1.544 738.264 1.544 738.264l8.112 46.967 81.26-111.935c66.026-26.766 177.26 11.575 204.848 21.886-17.056-21.536-46.868-50.941-89.762-63.892 0 0 50.656-12.918 111.299 51.26 24.885-24.468 49.541-47.406 73.912-68.787-11.518-20.461-31.85-46.234-64.715-56.921 0 0 40.474-5.605 82.471 41.549 100.099-85.494 194.724-145.785 278.345-188.394-10.752-11.583-27.141-27.711-52.115-49.509 0 0 32.638 14.45 71.207 39.994 46.102-22.456 88.581-39.513 126.442-52.4-6.233-11.329-15.942-24.948-31.116-39.008 0 0 27.01 6.81 53.678 31.628 20.803-6.557 39.962-11.778 57.368-15.973-9.448-12.218-17.594-18.393-17.594-18.393z"/></svg>