<svg xmlns="http://www.w3.org/2000/svg" viewBox="0 0 880 1024"><path d="M98.468 242.206C210.346 177.662 321.742 112.278 433.644 47.76c113.76 65.688 229.122 128.63 342.83 194.446-68.078 14.872-133.41 41.996-192.158 79.492-55.8 35.386-105.726 79.44-150.62 127.816-61.978-57.45-127.614-112.03-201.92-152.932-42.122-23.236-86.864-41.818-133.308-54.376zM1.97 380.37v388.51c73.238 12.38 143.424 40.572 205.91 80.534 55.748 35.412 105.726 79.212 151.408 126.75-1.246-130.97 1.348-261.94.026-392.908-62.892-9.814-123.75-31.32-179.626-61.698C112.704 485.334 54.87 434.618 1.97 380.37zm697.834 141.062c-55.952 31.09-117.42 52.24-180.744 61.772 1.168 131.02-1.22 262.016-.102 393.036 37.878-39.556 78.322-76.848 122.936-108.726 69.704-50.46 150.772-85.974 236.136-98.634V380.42c-53.028 54.326-111.546 104.202-178.226 141.012z"/></svg>