<svg xmlns="http://www.w3.org/2000/svg" viewBox="0 0 1024 1024"><path d="M705.038 574.258c0 106.838-86.61 193.446-193.448 193.446-106.836 0-193.446-86.608-193.446-193.446 0-106.836 86.61-193.446 193.446-193.446 106.838 0 193.448 86.61 193.448 193.446zm67.506 112.306L760.358 869.47h210.506l38.556-336.084c-108.65 26.016-168.068 89.688-236.872 153.174zm-527.846-89.146c-72.052-54.23-157.626-110.21-240.376-146.37l-3.976-34.66 286.7-3.964s-23.302 23.302-36.012 74.142l-6.336 110.852zm5.936 89.146l12.184 182.906H52.322L13.766 533.386c108.65 26.016 168.068 89.688 236.872 153.174zM379.896 789.94H328.99v80.046h364.658V789.94h-50.904c-35.666 27.776-81.47 44.47-131.424 44.47s-95.758-16.694-131.424-44.47zm399.406-192.944c72.052-54.232 157.626-110.212 240.376-146.37l3.976-34.662-286.7-3.964s23.302 23.302 36.012 74.142l6.336 110.854zm-7.61-442.938c21.74 56.472 35.072 116.88 35.008 177.532l205.592.012L893.28 154.066l-121.588-.008zm-236.866-.016c3.284 36.892 4.214 73.968 4.37 110.988-.092 22.188-.37 44.384-1.53 66.546l199.288.01c-.318-37.182-5.398-71.438-15.664-107.246-7.102-23.922-14.818-47.752-25.662-70.288l-160.802-.01zm-222.258-.016c-10.868 22.496-18.71 46.376-25.676 70.314-9.4 34.966-16.268 70.866-15.666 107.222l189.004.01c-1.13-22.16-1.486-44.356-1.53-66.542.152-37.032 1.154-74.088 4.37-110.994l-150.502-.01zm-191.178-.012L2.378 331.548l199.104.01c.176-60.712 13.214-120.978 35.022-177.536l-115.114-.008z"/></svg>