<svg xmlns="http://www.w3.org/2000/svg" viewBox="0 0 102 78"><path fill="#000" fill-rule="evenodd" stroke="#000" stroke-width=".2" d="M34.241 14.266c3.38 2.227 8.316 4.47 14.279 3.63 4.812 4.458 12.652 6.714 22.627 7.139 1.172 1.31 2.781 2.401 4.598 3.388l-12.644 8.35 14.822-6.958c2.028 1.36 4.689 2.613 7.684 3.811l-20.389 9.56c-2.501 9.358-5 12.645-9.922 6.352 0 0-1.029.847-2.723 1.029-1.694.181-3.69-1.452-3.69-1.452-1.456 2.806-3.143 4.535-5.083 5.082.572 2.284-.59 7.074-3.085 7.14-.959.024-2.684-3.717-4.235-3.691-1.034.017-2.118.786-3.57.484-1.452-.303-2.48-2.844-4.9-2.542-1.963-.002-4.088 5.287-5.99 5.748-1.358.33-4.659-.847-4.659-.847-1.988-.24-2.631.743-2.843 2.118.81 8.152.622 10.724-2.602 10.648-1.1 7.866-7.396 4.361-6.292-4.72-.001-2.894-1.027-5.675-2.48-8.409 4.22-.955 7.557-2.352 10.164-4.114 0 0-10.83 3.267-11.98 2.178-1.08-1.023.83-3.06 1.066-3.304l.023-.024Zm22.386 25.47a189.027 189.027 0 0 0-15.368 5.204c-4.895 1.9-9.568 3.96-14.036 6.171C38.17 48.007 48.1 44.293 56.627 39.737Zm-26.501 1.027c-.788-1.566-4.178-1.455-7.565.248-3.387 1.704-5.498 4.358-4.71 5.924.787 1.567 4.177 1.455 7.564-.248 3.387-1.703 5.498-4.358 4.71-5.924Zm30.513-12.404c-.772-1.85-4.426-2.09-8.155-.534-3.729 1.555-6.13 4.32-5.358 6.17.772 1.85 4.426 2.09 8.155.535 3.729-1.555 6.13-4.32 5.358-6.17ZM46.672 1.093c2.307.406 4.604.881 6.869 1.478 11.702 3.086 20.503 5.76 31.844 9.994 3.859 1.44 7.717 2.914 11.415 4.726 9.925 5.66.096 16.1-7.252 16.24-4.914.093-15.295-6.808-16.52-8.383 1.489.015 3.366-1.027 4.195-1.507-9.571.303-19.326-.437-27.35-6.226-2.09-1.507-3.806-3.304-5.464-5.263.074.45.15.905.301 1.336.165.464.371.92.642 1.332.109.166.288.314.475.457l.226.17c.335.255.62.512.503.85-.18.523-1.111-.061-1.651-.184-3.279-.75-7.564-1.622-10.323-3.677-1.5-1.116-.758-3.411-.657-4.926.158-2.355 1.468-5.035 3.556-6.248 2.7-1.569 6.456-.65 9.191-.17Zm-4.29 24.336c-.925-1.712-4.46-1.596-7.89.259-3.43 1.854-5.462 4.75-4.536 6.46.925 1.713 4.461 1.597 7.89-.258 3.43-1.854 5.463-4.75 4.537-6.461Zm50.394-5.961c-1.805-.614-3.956-.276-5.622.574-1.571.802-2.87 2.048-3.45 3.74-.821 2.404.312 4.87 2.99 5.172.68.076 1.376.046 2.053-.055-5.43-.283-5-5.869.217-7.434 1.228.826 1.342 2.313.34 4.46 1.481-1.123 1.978-2.759 1.394-4.956.529-.066 1.07-.017 1.598.053 1.81.241 1.965 2.648 1.84 3.974.388-.608.711-1.274.86-1.985.354-1.682-.628-3.002-2.22-3.543Z"/></svg>
