<svg xmlns="http://www.w3.org/2000/svg" viewBox="0 0 719 1024"><path d="M31.619 60.078c27.563 58.018 77.752 76.983 77.752 76.983 57.578-28.749 121.441-43.935 187.535-43.935 232.131 0 420.989 188.829 420.989 420.96 0 112.316-43.824 217.936-123.397 297.481-45.643 45.67-99.802 79.462-158.814 100.024 0 0-37.347 71.276-83.212 88.172 0 0 15.297-53.499-1.516-106.998l-56.532-82.493C131.751 808.012.609 675.491.609 512.378c0-82.053 33.075-156.334 86.794-210.164L63.699 188.41c-70.2-44.266-32.082-128.331-32.082-128.331zm265.288 106.363c-57.689 0-112.29 14.223-160.304 39.194l9.895 50.275c44.155-25.716 95.614-40.6 150.409-40.6 165.071 0 298.776 133.733 298.776 298.776 0 136.212-91.177 251.093-215.869 287.034l25.965 43.08c138.556-45.752 238.8-176.454 238.8-330.114 0-191.751-155.921-347.645-347.672-347.645zm-3.531 173.87l-5.835.618q-17.073 2.285-34.995 9.656-17.922 7.373-46.961 23.596L86.311 443.045l8.9 15.416 3.48-1.468q20.69-11.947 35.301-6.316 14.609 5.629 29.131 30.781l88.305 152.948q14.756 25.559 12.327 41.025-2.43 15.468-23.356 27.008l-3.244 1.874 8.9 15.416 126.577-73.079-8.9-15.416-5.04 3.451q-20.69 11.945-35.301 6.316-14.609-5.63-29.6-31.594l-39.584-68.564 12-6.386q6.897-3.982 12.233-5.982t8.303-1.548q5.697.498 18.004 4.482t32.27 11.39l61.295 24.655q16.765 6.55 29.071 10.534t21.031 5.977q12.564 3.024 24.987.181 12.421-2.845 26.214-10.808l32.456-18.739-8.666-15.01q-2.434 1.405-3.971 2.022-1.536.616-3.393 1.149-1.452.297-2.7.476t-3.34.305q-4.823.08-8.919.01-4.098-.068-8.108-.457-5.118-1.372-11.604-2.767t-14.165-3.453q-13.438-3.601-21.99-6.236-8.554-2.633-12.628-4.069l-59.764-20.128q-11.988-3.898-20.454-6.852-8.468-2.956-12.776-4.796-1.92-.514-3.316-1.06-1.398-.546-2.442-.483l-.321-.085-.319-.087-2.241-.599q-.959-.258-2.645-.367 4.572-4.262 8.16-7.415t6.366-5.839q1.966-2.217 4.05-4.231 2.082-2.014 3.408-4.401 2.371-2.451 4.507-5.308 2.138-2.857 4.446-6.354 12.933-18.826 14.025-40.823 1.094-21.997-9.68-40.66-11.244-19.473-31.886-29.462c-8.448-4.062-17.563-6.595-26.928-7.296-3.789-.285-7.6-.007-11.399-.012zm-30.971 38.12c10.465-.138 20.134 2.927 29.317 7.685q15.64 8.822 25.479 25.861 9.368 16.227 9.178 32.294-.189 16.068-10.298 29.478-1.966 2.217-3.729 4.316t-3.323 4.082q-6.132 6.245-14.908 12.122-8.777 5.879-28.08 16.481l-21.907 12.65-64.413-111.567 22.547-12.477q15.012-8.666 23.68-12.86t17.376-5.975q3.308-.828 6.851-1.251t7.724-.674l4.506-.166z"/></svg>