<svg xmlns="http://www.w3.org/2000/svg" viewBox="0 0 848.588 848.588"><path fill="#000" fill-rule="evenodd" d="M424.294 0c234.331 0 424.294 189.963 424.294 424.294S658.625 848.588 424.294 848.588c-119.037 0-226.625-49.02-303.678-127.974 11.354 3.422 23.468 3.447 34.178 1.68 11.59-1.912 21.736-6.146 23.596-6.099 3.904.099 13.904 4.099 18.33 2.78 8.803-2.626 5.062-7.96 11.574-13.681.674-.593 2.09-.845 3.546-1.035l.671-.084c1.228-.15 2.406-.285 3.108-.574 1.777-.73 4.01-1.981 6.247-3.279l.958-.557.61-.356c3.95-2.306 7.585-4.407 8.36-3.615 1.311 1.34 3.5 1 7 .5s4.865-4.361 9.5-6.5c3.548-1.637 5.5-1 9-2 3.292-1.14 5.459-2.473 6.5-4 2.188-3.21 2-6 2-7.5 1.556.75 3.11 1.691 4.713 2.66l.603.363c5.251 3.16 11.079 6.383 19.184 3.977 7.604-2.257 9-8.5 13-11 3.692-2.308 4.71-1.348 9-2.5l5-2.5c1-.5 2-2.5 2.5-3.5 1 .5 2.29 1.176 4 1.5 1.893.359 3.635.323 5.36.25l1.292-.056c1.723-.07 3.462-.087 5.348.306 1.81.377 4.908 2.154 6.118 3.55 4.49 5.18 8.629 10.725 12.044 16.668.035.061.088.16.156.296l.09.18c.921 1.873 3.756 8.4 5.092 17.306 2.5-2 4.344-3.66 5.5-6.5 1.238-3.044 1.57-7.214 1.5-10.5-.054-2.506-1.297-8.594-2-11-2.71-9.274-7.539-14.208-12.5-20.5-6.337-8.037-14-13.5-25-14.5-4.921-.447-9.642 2.207-14.073 5.054l-.736.476-.816.532-.325.213-.645.421c-4.503 2.935-8.672 5.47-12.405 4.304-1.515-.473-1-2.5 0-3.5s4.46-2.614 7-6c2.373-3.164 1.131-3.964-.133-4.527l-.169-.074-.205-.09c-.983-.427-1.754-.838-.493-2.31 1.647-1.92 6.08-2.732 8.5-3 17.832-1.965 36 5.5 50 16-.5-2-3.466-7.74-4-8.5-5.804-8.252-8.991-10.583-17-15.5-13.092-8.035-26.518-10.379-29-11-4-1-16.105-1.572-21.5-1-5.082.541-18.664 4.243-18.664 12.2 0 2.856.164 4.8 2.664 7.8-2 1.5-4.853 3.338-8 5.5-3.154 2.168-6.59 5.783-8.5 7.5-3.38 3.043-1.903 5.528-6 7.5-3.746 1.805-9.722.232-15.5 1-2.171.29-3.553 1.847-5.5 2.5-1.642.552-3.365.64-5 1.5-4.414 2.324-5.428 5.162-6.053 8.007l-.096.449-.092.449c-.046.224-.09.448-.137.672l-.094.446c-.144.668-.307 1.33-.528 1.978-1.024 3.006-6.652 6.86-9 7.5-1.657.452-4.12-.447-6.5-.5-2.054-.046-4.036.758-5.5 1-4.383.725-6.058 4.43-10.5 4.504-3.378.049-6.722-4.185-10-5.004-2.242-.56-4.681-.14-6.881.568-2.89.93-6.62 3.932-8.62 3.432-.5-1-.042-5 0-7.5.056-3.178-.578-5.593.5-8.5 1.177-3.17 3.451-4.737 5-6 1.098-.895 1.513-2.139 2.5-2.5 2.254-.824 5.063.657 8.5 1 1.584.158 3.36-.413 5-.5 1.355-.072 3.27-1.363 5-3 .328-.31.607-.707.88-1.111l.235-.347c.51-.745 1.046-1.433 1.886-1.542 1.516-.197 3.117 1.387 5 2 3.297 1.074 5.204 1.458 8.5 1.5 2.425.031 4.398-1.772 6.368-3.655l.514-.492c1.459-1.393 2.938-2.747 4.618-3.353 1.514-.547 4.057.863 6.5 1 1.239.07 3-1 4.5-1.5s2.597-.552 3.5-.5c1.326.076 4.234 1.561 5.5 1.5 2.904-.14 6.418-1.345 7.834-2.474.821-.656 4.208-2.736 5.166-6.526.442-1.749-.33-4.358 0-6.5 2-.5 4-1.5 5-2s1.85-1.453 2-3.5c.294-4.027-1-4.5-1-9.5 0-9-2.693-12.418-2.5-15.5.727 0 1.413.01 2.062.013h.637c2.604-.016 4.595-.262 6.3-2.013 2.172-2.23 3.543-4.468 4.5-7 .86-2.274 1.222-5.345 3-7.5.659-.797 2.119-1.364 3.622-1.886l.694-.239c1.267-.433 2.482-.855 3.185-1.375 4.648-3.445 4-6 8-8.5s16.5-2 27.038 1.75c8.287 2.95 16.962 7.25 23.462 12.75.5-2-2.765-6.48-4.5-9-3.564-5.177-6.054-8.622-11-12.5-4.85-3.802-11.508-7.06-17.5-8.5-6.869-1.651-13.936-2.537-21-2.5-3.669.02-6.955.554-10.5 1.5-2.753.734-7.354 2.79-10 5.5-2.09 2.14-2.76 5.471-4.5 6.5-1.687.997-3.762.92-4.5-1-.77-2.003.647-3.883 1-6 .313-1.875-.768-4.084.5-5.5 1.308-1.46 4.27-.578 6-1.5 4.493-2.393 1.5-2 6.5-6s11-4 27-3.5c4.623.144 10.5 2 14.5 3 .306-.307-.967-1.723-2.413-3.13l-.323-.312-.35-.331a62.283 62.283 0 0 0-1.914-1.727c-7.572-6.529-14.905-11.86-27-13-3.34-.315-11.552-1.21-20 .5-4.123.834-7.479 2.759-11 4.5-3.276 1.62-6.78 3.013-9 5-1.076.962 1.932 2.088 1 3-1.417 1.386-3.149 1.871-4.5 2.5-3.417 1.59-6.055 2.268-7.19 7.29-2.31 10.21-1.31 17.21-.81 19.71s5.482 1.438 5.5 3c.05 4.409-2.731 5.158-3.5 9.5-.502 2.835-.5 9.164 0 12 .186 1.055.586 2.077.997 3.086l.246.605c.693 1.708 1.3 3.39.822 5.148-.05.19-2.495.755-5.065 2.66-2.249 1.669-4.463 4.606-7 6-2.293 1.262-5.5 1.473-6.156 1.75-3.088 1.306-5.595 3.876-8.792 4.885-3.12.986-6.877-.555-9.769.977-3.723 1.973-4.013 6.006-7.783 7.889-2.384 1.19-7.349 1.238-10 1.5-.827.082-1.427.17-1.99.26l-.28.047-.13.021-.261.044c-1.186.199-2.545.413-5.84.628-5.49.358-10.5-2-17-4 0-2-.5-3-2-6-.697-1.396-2.701-3.888-5-4.5-2.638-.703-5.636.628-7 1.5-1.757 1.124-7.415 7.217-8.5 9-3.72 6.124-4.5 9.5-6.5 15.5-2.932-1.867-4.898-4.167-6.761-6.434l-.696-.848c-1.389-1.69-2.781-3.327-4.542-4.718-.854-.674-4-2-6.5-2-1-3-2.941-7.01-3.5-8.5-3-8 .127-35.284 1-36.5 4.5.5 8.21 2.265 12.5 5 2.364 1.507 6.5 4.5 10 7-2.5-7-7.081-15.286-10.748-22.036-.946-1.742-2.639-3.458-4.32-5.117l-.53-.521c-2.287-2.253-4.402-4.39-4.402-6.326 0-3.5 2-20 9-25.5s17.409-1.419 19-9c1.886-8.986 1.5-18.5 2-27.5.083-1.5 1.625-1.102 2 0 .515 1.513 1.06 4.168 1.544 6.887l.186 1.065.054.316.105.628c.59 3.541 1.031 6.732 1.11 7.104 4.5 21-2.166 31.774-3.5 54.5-.581 9.92-1.5 22.5-1 32 .793-3.167 1.784-7.04 2.83-10.904l.333-1.22c1.501-5.477 3.085-10.786 4.338-13.876 2.227-5.493 6.199-15.105 12-26 1.911-3.59 4.818-5.737 6.5-8.5 2.011-3.304 2.734-6.961 3-8 5-19.5-.5-28.5 7.5-47.5.596 4.17 3.475 9.458 6.353 14.818l.616 1.15c1.741 3.256 3.422 6.512 4.53 9.532.609 1.655-.17 5.341-1 7-3.5 7-7.678 13.254-10.5 18.5-7.245 13.473-14.224 31.885-16 46-.665 5.294-1 10.5-1 17 2.576-6.64 5.196-13.692 8.5-20 6.414-12.241 12.349-23.866 20-35.5 1.873-2.847 5-7 7-9 2.5 1.5 3 4.5 5.445 8.346 1.43-3.662 1.328-7.345 1.113-11.065l-.07-1.175c-.199-3.335-.367-6.7.513-10.106 1.065-2.396 1.898-4.396 2.5-6l.2-.534.402-1.067.404-1.066.405-1.063c2.565-6.71 5.155-13.046 7.089-16.27-1 8.5-2.116 13.49-3.5 19.5-1.404 6.093-2.682 13.383-3.99 19.497-1.522 7.55-2.526 13.052-3.01 16.503l-.001-.002.338-.74c1.935-4.237 4.31-9.072 6.865-14.197l.453-.908.966-1.934c1.46-2.918 2.961-5.91 4.458-8.921l.997-2.01c2.986-6.038 5.915-12.109 8.424-17.788 1.302-2.947 10.5-37 20-47.5-.232 12.777-.5 32.5-1 44.5-.305 7.321-.873 18.04-1.5 24 3-6 5.291-14.993 7-21 1.392-4.896 3.758-9.212 5.5-16 1.129-4.4 1.607-9.764 2-13.5.374-3.556 2.923-10.574 3.5-16.5.815-8.367.5-18 2.5-26 .5 4.5.913 11.553 1.5 16.5.502 4.237 1 8.5.5 13.5 3.5-5.5 5-14.5 5.5-19.5.902 4.96.49 14.067-.249 23.44l-.098 1.223-.101 1.225-.052.612c-1.181 13.888-1 26-2 38 1.099-1.465 2.47-6.547 5.5-16 1.105-3.449 2.713-7.259 4-12 .387-1.424 1.4-2.183 2-3.5.73-1.603 1.5-3.5 1.5-5.5s.046-4.261.5-6c.38-1.457 1.708-1.635 2.5-3 .852-1.47 1.168-4.12 1.5-5.5a73.554 73.554 0 0 0 2-15c2.763 6.51 5.103 11.164 7.5 18 3.074 8.767 5.74 18.652 10 26 4.844 8.356 12.45 15.586 21.5 22 8.301 5.883 19.09 11.626 30 18 1.845 1.078 3.696 2.165 5.547 3.254l2.22 1.307c11.463 6.756 22.79 13.48 32.233 18.439 8.878 4.663 44.5 18.5 55.5 31.5 18.938 22.382 26.825 26.607 32.462 30.721l.346.255.171.127.349.264.172.133c15.5 12 21.996 25.102 43 30.5 25.873 6.65 35.5 6.5 54.5 2.5 5.107-1.075 9.68.8 15 0 3.178-.478 5.014-2.43 7.5-3.5.819-.353 1.832-.658 2.876-.964l.787-.23c1.706-.502 3.385-1.036 4.337-1.806 7.38-5.97 5.764-14.746-6.5-23-4.798-3.229-9.5-5-15-7s-9.085-2.571-13-4c-6.962-2.54-11.02-5.279-16.5-8-7.744-3.846-14.47-6.289-20.5-11-13.228-10.334-25.987-25.852-43-42.5-3.603-3.526-7.708-7.31-11.808-11.078l-1.535-1.411c-5.624-5.17-11.116-10.243-15.157-14.511-7.19-7.594-6.5-12.5-13.5-23-1.513-2.27-1.055-6.378-2-9-2.459-6.82-1.484-11.911-3-19-.825-3.857-4.472-4.091-5-8-.322-2.383 3-5 4-6.5s1.5-3.5 2-5.5c4.5 7 7.5 12 16 10 2.016-.475 3.683-1.233 4.5-3 .832-1.802.123-5.27-.443-7.188-.767-2.596-1.615-4.739-2.481-6.8l-.306-.724-.278-.652-.278-.653c-1.76-4.139-3.508-8.443-4.714-15.983-1.5-9-20.06-24.247-30-31.5-.839-.612-6.633-4.004-5.903-4.72 30.903-30.28 51.903 2.72 73.403-6.28 8-3.5 13.223-3.56 29 15.5 3.05 3.685 15 3.5 22 7.5 9.216 5.266 18.841 11.465 29.5 15.5 16.472 6.235 30.699 8.31 47.558 13.407 3.138.95 6.127 2.258 9.104 3.59l1.275.57 1.277.57c4.684 2.07 9.435 3.96 14.786 4.363 25.065 1.889 29.5-1 35.5-5.5 0 2 0 3.5 1 6 4.288 9.447 11.667 2.624 13.5 1 1.167 2.124 2.137 5.056 4.131 6.282 2.635 1.62 9.06 2.125 11.369-.782 1.047-1.318 1.446-3.225 1.901-4.693l.098-.306.092.495c.522 2.62 1.649 4.872 2.71 6.672l.199.332c2.283 3.787 8.582-1.162 12-2.5 1.528-.598 2.011 4.81 3.5 5.5 2.67 1.238 6.5 3.5 7 6.5 1 9.5 4.664 13.769 10.28 16.19 6.155 2.654 15.124-7.431 17.497-10.533 27.853-36.4 36.138-48.06 7.723-86.657-3-4-6-6-7.5-7s-4-1.58-4-3c0-4-2.603-6.655-5-10.5-1.395-2.238-7-7-10-12.5-5.296-9.148-13.54-13.704-21.574-18.005l-.926-.495c-20.74-11.097-29.626-14.961-37.193-18.274l-.461-.202-.716-.314-1.42-.626-.709-.314a199.872 199.872 0 0 1-11.001-5.27c-4.17-2.153-5.674-3.783-9.303-6.807-5.247-4.372-10.71-8.513-16.441-12.226-5.312-3.442-11.275-7.144-17.232-10.758l-1.233-.747-.616-.372-1.23-.741-1.226-.737-1.221-.732c-10.97-6.565-21.215-12.445-26.498-15.38-19.238-10.004-24.953-17.607-29.225-23.339l-.268-.36-.265-.354-.131-.175-.323-.428c-.91-1.202-1.796-2.315-2.788-3.344-5.49-5.696-14.687-7.236-21.582-11.9-3.136-2.12-4.418-6.261-7.342-8.665-2.584-2.125-6.138-2.758-8.881-4.672-5.584-3.895-6.695-6.763-8.195-11.763-.5-1.5-5-17.5-28-15-5.783.361-4.512-1.367-3.363-3.109l.114-.174.112-.174c.037-.058.073-.115.108-.173l.102-.171c.247-.427.427-.838.427-1.2.458-2.059-.5-6-3.5-9-1.5-1.5.5-6.5-3-9.5-7.364-6.661-13.871-7.572-19.863-7.841l-.663-.028c-.33-.013-.66-.024-.988-.035l-.653-.021a593.59 593.59 0 0 1-.325-.01l-.648-.023c-1.4-.05-2.772-.118-4.123-.275-6.54-.76-10.35-5.172-13.795-9.832l-.514-.7-.511-.701-.212-.292-.636-.873c-3.531-4.829-7.137-9.248-13.488-9.409-15.405-.389-23.081 14.54-32.081 17.54-3.5 1-5.31 1.628-9 1.5a35.056 35.056 0 0 0-1.029-.014h-.45c-1.738.004-4.413.06-7.05.18l-.895.045c-3.12.162-6.03.418-7.076.79-3.757 1.336-6.195 2.662-8.51 4.035l-.63.376-.628.378c-2.938 1.772-6.028 3.637-11.732 5.71-7.314 1.93-11.69.218-19.18 1.282-2.511.356-4.926 1.362-7.173 2.537-9.437 4.935-32.147 15.182-38.147 11.682-1.721-1.047-3.655-2.982-5.19-4.286l-4.866-2.33c-4.4-3.739-11.621-1.466-16.9-3.806-8.714-3.863-7.238-12.61-17.555-6.126-13.935 8.757 9.77 21.257 12.267 26.846 2.311 5.17 1.087 11.427 3.173 16.693l6.538 7.822c.189.476.042 1.262-.423 1.478-4.545 2.105-10.676.875-14.576-1.904-3.437-2.449-6.682-5.784-9.956-9.135l-.702-.718-.703-.717c-.42-.426-.841-.851-1.264-1.273l-.508-.503c-7.457-7.359-15.42-13.38-26.397-8.155-5.791 2.756-11.133 6.388-16.478 9.933-.957.634-2.266 1.392-2.327 2.538-.554 10.498 22.643 17.026 23.67 17.964 2.412 2.201-.702 8.022 1.197 10.679l10.5 7.5c.695.973.678 2.515 0 3.5-2.998 4.355-7.499 3.96-12.172 2.967l-.55-.12-.277-.06-.584-.133c-.39-.089-.78-.18-1.17-.268l-.875-.198a68.887 68.887 0 0 0-.872-.188c-27.5-4-34.534-19.675-46.572-16.067-19.38 5.81-12.55 12.48-4.604 18.86l.736.588c4.057 3.229 8.203 6.374 9.154 9.283 1.696 5.186 1.513 10.861 3.173 16.06.247.775.522 1.567.805 2.361l.19.53.288.796.165.455.164.454.162.452.16.45c.158.45.31.894.456 1.333l.142.437c1.95 6.078 2.075 10.78-8.877 7.949-3.333-.862-6.713-2.565-10.085-4.326l-1.349-.706-.716-.374-.59-.306c-7.668-3.963-15.22-7.166-22.003-.353-2.721 2.733 1.461 14.128 1.947 14.771.985 1.306 2.446 2.129 3.964 2.891l.761.379c1.779.88 3.539 1.773 4.612 3.35 1.256 1.847 1.715 4.06 2.117 6.308l.17.964c.344 1.93.723 3.849 1.603 5.549 1.908 3.685 4.337 2.887 6.527 6.412 2.19 3.525-1.374 2.955-2.5 2a32.062 32.062 0 0 1-2.152-2.034l-.373-.385-.37-.385-.552-.577-.367-.383c-3.419-3.552-6.85-6.623-13.686-4.236-4.568 1.595-1.189 8.9 3.114 16.47l.329.576.498.864.167.288.548.94c.4.684.802 1.366 1.2 2.041l.395.672c3.61 6.138 6.703 11.563 5.249 13.149-4.529 4.94-23-23-32.23-11.686-4.063 4.981.385 11.202 5.08 17.628l.576.787.434.595.431.596.428.596c4.19 5.865 7.676 11.785 4.28 16.984-2.201 3.372-5.159.249-7.987-3.557l-.292-.396-.145-.2-.31-.428a141.59 141.59 0 0 1-.156-.215l-.307-.43c-1.944-2.722-3.76-5.368-5.145-5.936-2.412-.988-5.216-1.25-7.78-.784-6.163 1.12-7.848 7.673-6.614 13.22 3.358 15.102 14.333 22.793-2.263 37.726-3.485 3.136-6.081-.332-8.924-4.305l-.3-.42-.303-.421-.152-.212-.306-.422c-.154-.21-.308-.42-.464-.63l-.329-.433c-1.762-2.3-3.693-4.326-6.023-4.842-.896-.198-3.46-.358-4.2.185-1.337.983-1.95 1.434-2.5 3-4.139 11.8 15 27 10.202 29.478-9.03 4.663-13.785-22.52-22.92-16.704-9.781 6.226 6.719 30.226-2.281 28.726-5.16-1.298-7.224-5.548-8.986-10.342l-.228-.628-.226-.633-.226-.637-.226-.64c-.075-.213-.151-.427-.228-.64l-.26-.719-.222-.6c-1.984-5.289-4.613-10.352-11.398-12.161-11.5-3-4.5 19.5-13 33-.098.227-4.38 6.93-6 4.5-2.597-3.895-6.702-9.4-10.668-13.631l-.07-2.853L0 424.294C0 189.963 189.963 0 424.294 0Zm203.5 578.794s-5.584 9.306-12.712 17.595l-.524.604-.264.3c-7.5 8.5-10 14.5-7.5 19s10 .5 13-8.5c.84-2.52 1.837-5.901 2.837-9.466l.214-.766c.428-1.537.855-3.099 1.269-4.632l.205-.763a894.678 894.678 0 0 0 3.475-13.372Zm-11.5-14.5c-9.333 15.333-16.667 26-22 32-3.333 4.333-3.333 8 0 11s8.5-3.333 15.5-19c1.495-3.906 2.662-7.406 3.5-10.5.838-3.094 1.838-7.594 3-13.5Zm-574.5-29.5c1.621-1.126 3.122-.764 7.014 3.334 3.625 3.816 9.651 10.039 13.486 14.666 3.048 3.678 3.973 5.96 6.5 8 .431.348.712-.31.975-1.048l.112-.318c.26-.741.52-1.429.913-1.134 2 1.5 4.171 4.207 4.5 8 .452 5.222.22 11.347.5 19 .214 5.852 1 12.233 1 17-6.5-4-13.267-9.513-18.935-14.738-3.92-3.614-6.307-5.98-10.065-9.762-1.893-1.905-5.059-5.162-6.797-7.208-1.576-1.856-1.765-4.68-2.203-7.292-.573-3.411-1.066-6.584-.5-8 .76-1.9 4 0 7 3.5l5.498 4.498-.354-.542c-2.076-3.138-5.072-7.145-6.9-10.428l-.31-.572c-.826-1.568-4.035-6.578-4.434-10.956-.255-2.796 1.53-4.98 3-6Zm569.5 5.5s-12.5 29.5-28 42c-10.333 8.333-12.333 14.167-6 17.5 6.667 1.333 13-2.5 19-11.5 9-13.5 15-48 15-48Zm-28 25c-3.333 5.667-10.5 10.5-21.5 14.5s-14.833 7.667-11.5 11c2.667 2.667 6.833 3.667 12.5 3 5.667-.667 12.5-10.167 20.5-28.5Zm-25-33s-.63 1.43-1.831 3.838l-.257.512c-3.043 6.046-9.287 17.455-17.912 28.15-6.667 7.333-8 12.167-4 14.5 2.205 1.058 3.872 1.391 5 1 3.302-1.146 6.635-5.609 9.5-12 6.5-14.5 9.5-36 9.5-36Zm24-18.5c-6 18.667-13.667 32.833-23 42.5-9.333 9.667-10.833 16.667-4.5 21 5 1.667 10.5-3 16.5-14 3.308-6.066 7.11-14.09 9-23.5 1.025-5.104 1.691-13.77 2-26Zm-33.5 12.501c-.19.309-9.65 15.619-24.5 27.499-7.667 5.333-9 10-4 14 2.542 2.033 4.958 3.654 7.5 2.5 1.639-.744 4.139-3.744 7.5-9 3.461-8.073 5.628-13.24 6.5-15.5 6.043-15.667 6.981-19.425 7-19.499Zm-21-5.501c-4.667 7.333-11.167 14.667-19.5 22-5 3.333-5.667 6.167-2 8.5 4.667 5 8.833 4.833 12.5-.5 2.238-3.256 4.927-9.61 6.5-15.5 1.528-5.722 2.361-10.556 2.5-14.5Zm-452.5-15.5c2-2.5 13.769 5.887 11.5 19.5-.5 3-1.3 13.062-4 18.5-3.134 6.312-9 6.5-10-2.5-.87-7.833-1.184-19.053-1.184-26.825 0-5.141.425-4.89 3.684-8.675Zm441.497-5.497-.523.867c-6.841 11.253-14 20.13-21.474 26.63-3.667 3.333-4.667 6.333-3 9 2.333 4 5 3.667 8-1 1.3-2.023 4.256-7.404 7.145-13.142l.412-.822.42-.844.415-.845.412-.843c.409-.843.81-1.68 1.196-2.504 1.704-3.63 4.037-9.13 7-16.5l-.003.003ZM54.294 512.294c1.574-.7 2.5-.5 4-.5 3.841 0 6.104 4.053 7.5 7 3.246 6.852-.02 18.05-4.474 14.01a118.532 118.532 0 0 1-4.028-3.814l-.514-.516-.241-.246-.48-.495c-4.14-4.303-7.668-8.98-6.263-11.44.05-.088 1.574-2.699 4.5-4Zm448-22-.08.162-.063.124c-1.092 2.146-8.397 15.854-20.357 23.214-13 8-3.825 12.22-1.5 12.5 3.925.47 8.5-3 14-11 2.52-3.667 5.191-8.555 6.5-13.5 1.406-5.312 1.495-10.47 1.5-11.364Zm-16-6.498c-.172.293-5.578 9.537-10.5 11.998-1.226.613-2.513 1.076-3.793 1.514l-.59.2-.589.2c-3.517 1.203-6.83 2.51-8.528 6.586-1.667 4-.167 5.833 4.5 5.5 3 0 7-3.5 12-10.5 7.13-9.982 7.482-14.993 7.499-15.463v-.035Zm-300-12.502c.409-2.53 3.57-4.832 6-4.5 2.513.343 4.294 3.386 4.597 4.676.811 3.453-.601 5.312-1.097 8.824-.496 3.512.87 5.97 1 7 .482 3.83-1.734 8.968-3 11.5-3.5 7-4.94 9.098-7.5 8.5-2.34-.546-3.752-8.4-3-15 .45-3.956 1.034-5.582 1.574-7.24l.12-.37c.295-.932.574-1.926.806-3.39.322-2.033-.198-5.684.5-10Zm554.5-1.5c-1.333-1.667-2.667-1.667-4 0-4.667 4.667-7.833 8.167-9.5 10.5-.287.401-.843 1.013-1.604 1.782l-.365.366c-2.086 2.071-5.422 5.1-8.934 8.212l-.64.566-.322.284-.73.642c-.683.602-1.366 1.201-2.043 1.792l-.577.504c-5.466 4.766-10.285 8.852-10.285 8.852s2.705-1.45 6.544-3.37l.584-.292c1.58-.787 3.327-1.641 5.144-2.5l.684-.323c1.03-.484 2.078-.967 3.126-1.438l.698-.312c2.327-1.033 4.632-1.996 6.72-2.765 9.5-3.5 16.5-9.5 19.5-13s-2-7-4-9.5Zm-41-19c-8.5-.5-7.5 4-16.5 21-6 11.333-12.667 20-20 26 3.333-1.667 7.167-3.833 11.5-6.5 2.151-1.324 14.123-7.233 17.5-10.5 4.049-3.917 13.5-16 14-19s2-10.5-6.5-11Zm-224 19c-2.667 6.667-6.5 11.333-11.5 14-7.5 4-9 6-7.5 9 1 2 3 2.5 6 1.5 2.667-2.333 5.333-5.667 8-10s4.333-9.167 5-14.5Zm196.5-21.5c-3-3.667-6-4.333-9-2-2.333 1.667-4.5 8.333-6.5 20s-6.333 20.667-13 27c6.055-2.637 10.388-5.137 13-7.5 2.612-2.363 5.278-6.196 8-11.5 8-13.667 10.5-22.333 7.5-26Zm-19 2.5c-2 0-4.667 3.667-8 11-6.333 11.667-11.167 21.833-14.5 30.5 4.667-7 9-12 13-15s7.167-7.333 9.5-13c2-9 2-13.5 0-13.5Zm29 .5c-2.333-.333-4.5 2-6.5 7-.667 4-3 8.833-7 14.5-5.757 8.155-8.752 16.771-8.985 17.456l-.015.044.015-.008c.144-.075 1.295-.7 3.485-2.492.176-.144.471-.427.866-.82l.278-.277c.925-.929 2.273-2.32 3.856-3.903 1.611-1.611 2.184-1.976 3.458-3.237l.274-.274c.666-.673 1.523-1.59 2.768-2.99 4-4.5 8-13 10-18s1-6.5-2.5-7Zm36.5 4.5c-4.667-1.667-8.667 1.667-12 10-3.031 8.588-6.19 14.369-8.574 17.987l-.32.48c-.42.622-.813 1.174-1.174 1.66l-.231.307c-1.033 1.36-1.767 2.134-2.06 2.428l-.078.077-.047.046-.016.015s3.91-1.022 10.5-6c.583-.44 1.13-.849 1.661-1.254l.396-.304.197-.153.391-.308c2.15-1.705 4.268-3.677 7.855-7.981a59.658 59.658 0 0 0 2.925-3.788l.306-.44c3.583-5.219 5.73-10.822.269-12.772Zm14 3c-2.333-1.667-5.667 1.5-10 9.5-3 6.667-7.833 13-14.5 19 9.667-5.667 16.833-10.667 21.5-15 7-6.5 6.5-11 3-13.5Zm-91-18.5c-3.333-.667-6.667 2.833-10 10.5l-14.5 33c3.44-4.6 5.94-7.766 7.5-9.5 4.594-5.108 8.428-8.209 10.5-10.5 4.584-5.07 7.858-9.188 10-11 4.333-3.667 5.333-6.667 3-9-1-1.667-3.167-2.833-6.5-3.5Zm-175 21.5-.027.063c-.331.783-3.726 8.589-8.473 11.437-5 3-6 3.5-6 7 0 2.333 1.167 3.167 3.5 2.5 3-1 5.667-4.167 8-9.5 2.683-6.133 3.015-9.622 3.024-10.916v-.156a3.773 3.773 0 0 0-.024-.428Zm159.5-24.5c-5.333-2.333-9.667.833-13 9.5-4.333 11.667-11.333 22.833-21 33.5 5.692-1.974 10.692-4.808 15-8.5s10.974-10.859 20-21.5c4.667-6.333 4.333-10.667-1-13Zm-22.5-6c-5-1.667-9.167 2.333-12.5 12-6.075 17.415-15.759 26.957-19.22 29.954l-.244.21c-.66.561-1.036.836-1.036.836l.029-.012c.057-.023.198-.082.415-.175l.189-.081a88.51 88.51 0 0 0 4.15-1.937l.503-.252c3.592-1.808 8.524-4.555 13.214-8.043 7.911-5.883 14.9-14.218 17.5-18 5.5-8 4.5-12-3-14.5Zm-19.5-7.5c-4-1-6.833 2.833-8.5 11.5-4.32 19.2-17.856 37.478-18.932 38.91l-.05.067-.018.023s8.02-5.67 16-14.5c5.704-6.312 11.624-15.54 13.5-19.5 4.5-9.5 4-15-2-16.5Zm-128.5 34-9 9c-1 1.667-1 3.167 0 4.5 1 1.333 2.667 1.333 5 0 1.333-1.333 2.167-3.333 2.5-6 .333-2.667.833-5.167 1.5-7.5Zm116.5-37c-4-4.333-8-1.333-12 9s-8.5 18.333-13.5 24c9-5.667 16-11.833 21-18.5s6.5-11.5 4.5-14.5Zm-15-8c-2.667-.667-4.667 1.167-6 5.5-2 9-9 17-9 17s4.98-2.215 9-5c3.65-2.528 6.31-5.573 7.5-7 2.5-3 2.5-9.5-1.5-10.5Zm-9.5-5c-2-1.667-4-.167-6 4.5s-4.5 9.333-7.5 14c7-4.333 11.5-8 13.5-11s2-5.5 0-7.5Zm-9.5-5.5c-1.667-.667-2.833-.167-3.5 1.5-.517 1.552-1.272 3.52-2.04 5.432l-.23.572a287.157 287.157 0 0 1-2.703 6.433l-.027.063s5-3.5 7.5-6.5 3.5-6.5 1-7.5Zm-8-1.5c-.667-3-1.833-3.333-3.5-1-1.333 2.667-1.833 5.167-1.5 7.5 4-1.333 5.667-3.5 5-6.5Zm67.5-49.5c8.761-6.335 24.295-11.76 35.5-8.5 6.917 2.013 17.567 8.529 21.5 16.5 3.683 7.465 1.742 15.96-8.5 16.5-5.515.29-10.454.4-14.685.407h-1.001c-6.257-.013-10.85-.244-13.314-.407-2.727-.18-7.394-1.68-14-4.5-4.068-2.263-5.642-2.276-9-5.5-4.755-4.565 1.181-12.823 3.5-14.5Zm-74-106.5c2.458-2.554 7.777-6.592 15.113-5.102 14.735 2.993 25.666 31.722 29.387 36.102 9.107 10.721 31.015 23.535 37.41 40.179 3.958 10.301-3.765 22.704-13.91 32.82-9.11 9.085-20.038 16.568-28.455 14.968-5.77-1.096-10.498-3.117-13.545-6.467-.852-.937-1.44-2.078-1.997-3.246l-.476-1.002c-.56-1.168-1.157-2.311-2.027-3.252-2.917-3.154-6.832-5.396-11.5-7.5-1-2 3.5-4.5-3.5-9.5-5.882-4.454-9.305-4.476-12.5-11.5-1.709-3.757 1.251-8.554 3-11 3.814-5.337 10.575-6.693 12-12.5 2.362-9.625-6.53-8.008-7.745-16.288-.658-4.48-.136-9.225-.755-13.712-.952-6.9-6.084-17.197-.5-23Zm-57-52.5c5-.5 11.202.322 15 4.5 4.623 5.085 7.84 12.552 10.5 20 1.48 4.142 2.962 8.264 4 12 3.152 11.346 4.46 19.547 3.5 28.5-1.16 10.807-3.324 14.823-10 21.5-10.5 10.5-9.76 22.042-23 29-14.907 7.833-38.714-11.703-34.357-27.102 4.357-15.398 13.595-16.976 26.357-24.898 3.333-2.667 3.833-5.833 1.5-9.5-6.02-10.318-10.218-12.746-13.5-25.5-3.267-12.696 5.316-27.032 20-28.5Z"/></svg>
