<svg xmlns="http://www.w3.org/2000/svg" viewBox="0 0 719 1024"><path d="M31.619 60.078c27.563 58.018 77.752 76.983 77.752 76.983 57.578-28.749 121.441-43.935 187.535-43.935 232.131 0 420.989 188.829 420.989 420.96 0 112.316-43.824 217.936-123.397 297.481-45.643 45.67-99.802 79.462-158.814 100.024 0 0-37.347 71.276-83.212 88.172 0 0 15.297-53.499-1.516-106.998l-56.532-82.493C131.751 808.012.609 675.491.609 512.378c0-82.053 33.075-156.334 86.794-210.164L63.699 188.41c-70.2-44.266-32.082-128.331-32.082-128.331zm265.288 106.363c-57.689 0-112.29 14.223-160.304 39.194l9.895 50.275c44.155-25.716 95.614-40.6 150.409-40.6 165.071 0 298.776 133.733 298.776 298.776 0 136.212-91.177 251.093-215.869 287.034l25.965 43.08c138.556-45.752 238.8-176.454 238.8-330.114 0-191.751-155.921-347.645-347.672-347.645zm127.817 209.623l-9.267 5.35-40.922 50.398 4.012 6.951 38.265-1.498 49.046 84.951q11.37 19.693 10.4 31.836-.969 12.145-15.479 20.007l-.949.546-.109-.188q-2.316 1.338-3.779 1.925t-3.231 1.092q-1.381.283-2.57.454-1.188.172-3.178.292-4.591.075-8.489.01-3.9-.067-7.718-.437-4.873-1.306-11.046-2.633-6.171-1.326-13.481-3.285-12.79-3.427-20.931-5.934-8.141-2.509-12.018-3.874l-56.883-19.157q-11.409-3.71-19.468-6.523-8.061-2.813-12.16-4.564-1.828-.49-3.157-1.009-1.329-.521-2.324-.461l-.305-.082-.304-.08-2.132-.572q-.913-.246-2.517-.348 4.35-4.057 7.765-7.059 3.417-3.002 6.059-5.557 1.872-2.109 3.854-4.028 1.983-1.917 3.244-4.19 2.258-2.331 4.292-5.052 2.034-2.719 4.231-6.047 12.308-17.918 13.35-38.856 1.039-20.937-9.216-38.699-10.701-18.534-30.348-28.042t-42.032-6.368q-16.249 2.174-33.307 9.19-17.058 7.018-44.698 22.46L43.7 482.526l8.472 14.674 3.313-1.398q19.693-11.37 33.597-6.011 13.906 5.357 27.727 29.298l84.048 145.574q14.044 24.327 11.732 39.049-2.313 14.72-22.228 25.704l-3.089 1.783 8.472 14.672 120.475-69.555-8.472-14.674-4.797 3.285q-19.693 11.37-33.599 6.011-13.904-5.357-28.172-30.07l-37.676-65.258 11.421-6.079q6.564-3.789 11.643-5.692 5.081-1.903 7.902-1.475 5.422.474 17.137 4.265 11.713 3.792 30.715 10.842l58.339 23.465q15.956 6.234 27.67 10.025 11.713 3.792 20.017 5.69 11.959 2.879 23.781.171 11.824-2.707 24.953-10.286l30.891-17.835-.114-.198 83.582-48.258-8.026-13.901-1.321 1.278q-11.585 6.688-22.229.736t-21.792-25.26l-73.346-127.039zM211.306 421.03c2.784.196 5.589.186 8.351.585 6.886.997 13.496 3.335 19.553 6.731q14.886 8.395 24.25 24.614 8.917 15.445 8.736 30.737t-9.803 28.056q-1.871 2.109-3.548 4.108t-3.162 3.886q-5.835 5.943-14.189 11.539-8.354 5.594-26.726 15.686l-20.85 12.039-61.309-106.187 21.461-11.875q14.287-8.25 22.537-12.24 8.252-3.992 16.539-5.687 3.149-.788 6.519-1.191 3.372-.401 7.354-.64l4.287-.16zm155.032-128.099c-4.233.601-7.595 1.082-11.32 3.418q-8.494 4.905-11.218 14.457-2.722 9.552 2.183 18.046l.222.386q4.905 8.496 14.763 11.3 9.856 2.804 18.352-2.101 8.88-5.127 11.187-14.954 2.306-9.827-2.598-18.321-5.129-8.881-14.568-11.411c-3.871-.845-1.551-.461-7.002-.821z"/></svg>