<svg xmlns="http://www.w3.org/2000/svg" viewBox="0 0 32 32"><path d="M0 8.027c1.512-.002 3.023.004 4.535-.003-.52.301-.883.869-.885 1.476-.004 1.4-.001 2.8-.001 4.2 1.8-1.776 3.925-3.24 6.279-4.178a16.256 16.256 0 0 1 8.468-.999c3.779.554 7.262 2.504 9.954 5.178.002-1.325-.001-2.649.002-3.974a1.793 1.793 0 0 0-.888-1.702c1.512.007 3.023.001 4.535.003 0 5.319.001 10.639-.001 15.958a18.628 18.628 0 0 0-3.646-4.457c-.004-.787-.002-1.573-.002-2.359a19.958 19.958 0 0 0-1.7-1.342c-.017.446.031.899-.024 1.342-.556 1.422-1.12 2.843-1.682 4.263-.561-1.432-1.137-2.86-1.689-4.294-.033-1.072-.005-2.147-.014-3.22a18.32 18.32 0 0 0-1.913-.702 17.385 17.385 0 0 0 .069 6.955 18.619 18.619 0 0 0-5.398 6.26 18.65 18.65 0 0 0-5.398-6.26 17.38 17.38 0 0 0 .068-6.954c-.649.199-1.287.434-1.911.701-.007 1.064.012 2.13-.009 3.195-.544 1.447-1.132 2.881-1.695 4.321L5.499 17.5c-.065-.172-.163-.342-.151-.532.001-.379.003-.759.001-1.138-.59.416-1.158.865-1.701 1.342l.001 2.355A18.708 18.708 0 0 0 0 23.989V8.029zm15.354 4.744a2.447 2.447 0 0 0-1.197.754c-.783.863-.794 2.29-.026 3.166.742.922 2.18 1.148 3.169.496.989-.596 1.421-1.939.955-2.998-.437-1.109-1.755-1.758-2.9-1.417z"/></svg>
