<svg xmlns="http://www.w3.org/2000/svg" viewBox="0 0 816 1024"><path d="M677.96 277.403c4.052 0 6.001-1.922 6.001-6.001L670.765 86.027c0-3.248-2.028-5.195-6.002-6.001-49.097-9.95-107.156-8.026-157.085-6.183-137.993 5.169-295.883 77.024-295.883 236.629 0 148.149 157.189 203.559 268.788 255.618 89.207 41.798 133.862 96.09 133.862 163.06 0 73.074-62.814 118.328-125.237 140.46-52.137 18.365-114.353 31.64-169.866 18.365-85.726-20.495-103.806-125.237-107.86-126.457l-28.626-15.404c-4.053 0-5.975 2.026-5.975 5.973l19.171 174.128c0 2.442 2.026 4.468 6.001 6.001 13.198 5.169 27.692 9.638 43.616 13.196 47.696 10.651 110.223 5.482 158.723.389 139.732-14.392 319.939-100.663 319.939-263.229 0-36.837-11.561-78.426-31.952-109.08C610.471 450.515 435.046 461.374 347.45 348.32c-40.784-52.656-38.863-140.849 18.47-184.18 62.321-47.174 193.116-82.295 239.382 2.755 10.651 19.587 35.017 89.102 38.967 89.102l33.693 21.407zM297.131 843.322c8.52 6.183 18.157 11.457 29.536 14.106 12.469 2.935 26.16 4.468 40.888 4.468 3.949 0 8.313-.415 12.469-.623l134.668-141.447 51.045 10.443c-8.52-50.111-48.5-91.416-121.574-125.628-10.443-4.961-21.301-9.818-32.783-15.015-81.777-36.939-178.49-80.763-222.418-160.93L.002 516.059l276.321 138.122 20.809 189.141zm95.389-659.488c-2.546 1.845-5.274 3.454-7.612 5.272-18.055 13.612-29.744 34.811-33.096 59.774-3.741 28.732 3.871 58.762 20.419 80.167 37.018 47.903 94.169 71.334 154.644 96.195 50.422 20.704 101.961 42.213 144.797 78.841l136.59-247.071-290.116 58.735L392.52 183.834zm408.832 594.648l-60.995-12.495c8.832-23.537 13.821-48.292 14.833-74.063l46.162 86.557z"/></svg>