<svg xmlns="http://www.w3.org/2000/svg" viewBox="0 0 354 371"><g fill="#000" fill-rule="nonzero"><path d="m229.828.809 1.462 2.033 41.764 58.085 77.02 36.103 3.286 1.541-.526 3.592-19.543 133.38-.267 1.822-1.404 1.193L179.186 368.03l-3.158 2.682-3.162-2.678-152.923-129.47-1.448-1.227-.241-1.881-17.1-133.38-.452-3.525 3.214-1.516L80.44 60.938l41.277-58.074 1.46-2.055h106.65Zm-5.01 9.77h-96.597L87.665 67.642l-.74 1.043-1.158.545-74.469 35.126 16.407 127.976L176.017 357.9 323.89 232.302l18.749-127.966-74.884-35.1-1.151-.54-.742-1.032-41.044-57.085Z"/><path d="m220.5 21 34 48.5L176 154 97.5 72 132 21h88.5ZM176 46.49c-15.194 0-27.51 12.316-27.51 27.51s12.316 27.51 27.51 27.51S203.51 89.194 203.51 74 191.194 46.49 176 46.49ZM170.5 168.5v170L42 233l128.5-64.5Zm-46.49 47.49c-15.193 0-27.51 12.316-27.51 27.51s12.317 27.51 27.51 27.51c15.194 0 27.51-12.316 27.51-27.51s-12.316-27.51-27.51-27.51ZM90.5 78l76 81L36 224.5l-13.5-115 68-31.5ZM82 117.49c-15.194 0-27.51 12.316-27.51 27.51S66.806 172.51 82 172.51s27.51-12.316 27.51-27.51S97.194 117.49 82 117.49ZM181.5 168.5v170L310 233l-128.5-64.5Zm46.49 47.49c15.193 0 27.51 12.316 27.51 27.51s-12.317 27.51-27.51 27.51c-15.194 0-27.51-12.316-27.51-27.51s12.316-27.51 27.51-27.51ZM261.5 78l-76 81L316 224.5 332.5 109l-71-31Zm8.5 39.49c15.194 0 27.51 12.316 27.51 27.51s-12.316 27.51-27.51 27.51-27.51-12.316-27.51-27.51 12.316-27.51 27.51-27.51Z"/></g></svg>
