<svg xmlns="http://www.w3.org/2000/svg" viewBox="0 0 876 1024"><path d="M350.049 634.511c-47.816 0-66.264-49.294-66.264-49.294l114.824-89.323c26.506 63.843-.714 138.617-48.559 138.617zm520.92 136.348L696.587 564.172l41.932-79.209-28.679-48.372 57.385-61.573L740.8 319.94l125.823-204.52-167.862 107.778L738.52 93.452 418.488 396.987l19.775-178.118-70.506 153.88-22.159-96.742-44.105 171.516-35.306-68.173-15.426 112.215-94.944 149.55L-.939 814.796l41.932 92.412 15.426-54.972 46.386 13.203V841.2l33.131 8.766 8.801-35.169 37.48 19.803 11.079-50.537 59.637 43.935-44.211 2.272v30.734l-48.559-4.437 15.426 30.839-46.279-19.802-4.454 39.605-55.185-6.601-15.426 43.935 13.253 28.674 189.889-30.839 141.222-105.613v72.609l33.026 33.004 24.438-26.404 21.948-11.036-6.627-48.372 79.517-19.802-30.958-43.936 92.77-94.577 258.246 72.611z"/></svg>