<svg xmlns="http://www.w3.org/2000/svg" viewBox="0 0 661 620"><path fill="#000" fill-rule="evenodd" d="M330.11 91c-13.368.036-75.55 2.14-119.11 65.5-31.333 45-32.333 97.333-3 157l80.5-95.5-24 173.5c50 50.5 50 128.5 5.5 174.5-44.5 52.5-117 65.5-139.5 43.5-22-19.5-10-49 2.5-56-6.5 28.5 8.5 36.5 32 31 16.219-4.217 36-15.5 56-39.5 11-13.5 23.5-29.5 26.5-55 1.667-28-9.167-37.5-32.5-28.5-51.667 27.667-123.333 51-215 70V244l72 185.5h44l33.5-46.5c-36-46.333-53-98.333-51-156 1-40 12-104.5 78.5-168C242.5 3.5 310.5.5 330.5.5s88 3 153.5 58.5c66.5 63.5 77.5 128 78.5 168 2 57.667-15 109.667-51 156l33.5 46.5h44L661 244v287.5c-91.667-19-163.333-42.333-215-70-23.333-9-34.167.5-32.5 28.5 3 25.5 15.5 41.5 26.5 55 20 24 39.781 35.283 56 39.5 23.5 5.5 38.5-2.5 32-31 12.5 7 24.5 36.5 2.5 56-22.5 22-95 9-139.5-43.5-44.5-46-44.5-124 5.5-174.5l-24-173.5 80.5 95.5c29.333-59.667 28.333-112-3-157C406.44 93.14 344.258 91.036 330.89 91Z"/></svg>
