<svg xmlns="http://www.w3.org/2000/svg" viewBox="0 0 413 251"><path d="M131.51 212.26c2.584 7.644 2.427 14.346-.472 20.107 2.754 2.687 7.19 5.384 13.308 8.09-32.262 15.22-57.73 13.007-76.402-6.638 30.547 5.046 51.735-2.14 63.566-21.558Zm149.146 0c11.83 19.42 33.019 26.605 63.566 21.56-18.673 19.644-44.14 21.857-76.403 6.637 6.119-2.706 10.555-5.403 13.308-8.09-2.898-5.76-3.056-12.463-.471-20.106Zm-50.9-163.426c16.697 6.12 32.546 13.281 47.543 21.483-1.162 11.584 1.797 19.438 8.879 23.563 7.082 4.124 16.272 3.726 27.572-1.195 16.58 12.134 30.406 24.904 41.479 38.312-8.163 20.723-18.209 41.517-30.136 62.381-16.005-5.986-28.792-5.956-38.36.09-14.35 9.07-16.833 21.337-15.592 36.724-13.355 8.048-36.97 14.726-65.058 14.726l-.859-.002c-27.71-.134-50.98-6.758-64.2-14.724 1.242-15.387-1.24-27.654-15.592-36.724-9.567-6.046-22.354-6.076-38.36-.09-11.927-20.864-21.972-41.658-30.135-62.381 11.073-13.408 24.9-26.178 41.48-38.312 11.298 4.921 20.489 5.32 27.57 1.195 7.083-4.125 10.042-11.98 8.88-23.563 14.997-8.202 30.845-15.363 47.544-21.483 5.464 12.583 13.355 18.82 23.672 18.71 10.317.11 18.207-6.127 23.672-18.71ZM32.544 194.196c16.261 8.552 32.852 11.41 49.771 8.573 11.778-1.82 30.132-14.142 44.605 3.102-10.216 25.346-68.035 39.047-94.376-11.675Zm347.076 0c-26.341 50.722-84.16 37.021-94.376 11.675 14.473-17.244 32.826-4.921 44.605-3.102 16.919 2.836 33.51-.021 49.771-8.573ZM7.615 133.726c14.723 16.444 33.23 26.935 55.522 31.472a2694.074 2694.074 0 0 0 16.596 30.853c-37.759 5.618-74.096-17.303-72.118-62.325Zm396.936 0c1.978 45.022-34.36 67.943-72.118 62.325a2694.074 2694.074 0 0 0 16.596-30.853c22.291-4.537 40.799-15.028 55.522-31.472ZM171.79 77.791h-.204c-16.574 0-32.124 13.17-31.491 32.612.352 9.21-7.147 10.595-11.736 6.595-4.563-4.126-12.215-4.282-14.997-4.282-18.405 0-28.867 15.465-28.867 30.784 0 12.702 8.565 29.35 29.5 29.35 22.374.403 28.618-21.56 28.618-29.35 0-8.326 7.987-9.494 11.768-5.882 2.466 2.052 5.476 3.57 9.03 4.557 19.814 4.593 31.945-6.578 35.176-14.374 1.622-3.907 4.12-5.86 7.497-5.86l-.001-.002.288.006c3.231.109 5.634 2.06 7.21 5.856 3.231 7.796 15.362 18.967 35.176 14.374 3.554-.986 6.564-2.505 9.03-4.557 3.78-3.612 11.768-2.444 11.768 5.882 0 7.79 6.244 29.753 28.617 29.35 20.936 0 29.5-16.648 29.5-29.35 0-15.319-10.461-30.784-28.866-30.784-2.782 0-10.434.156-14.997 4.282-4.59 4-12.088 2.615-11.736-6.595.633-19.441-14.917-32.612-31.491-32.612-6.735 0-19.896.52-27.78 16.089-1.646 3.509-3.801 5.207-6.467 5.095l-.251-.016c-2.782.233-5.021-1.46-6.717-5.08-7.885-15.568-21.046-16.088-27.781-16.088ZM3.187 64.661c3.884 18.667 22.08 36.436 54.588 53.307-3.4 3.627-6.835 7.583-10.304 11.87a871.043 871.043 0 0 0 12.484 28.821C10.943 144.001-7.98 112.669 3.187 64.661Zm405.792 0c11.166 48.008-7.756 79.34-56.768 93.998 4.33-9.521 8.49-19.128 12.483-28.822-3.469-4.286-6.903-8.242-10.303-11.869 32.508-16.871 50.704-34.64 54.588-53.307ZM12.485.836C25.642 29.89 52.075 59.024 91.783 88.24c-11.423 8.156-21.06 16.298-28.912 24.428C11.516 91.055-5.28 53.778 12.485.836Zm387.196 0c17.764 52.942.968 90.219-50.386 111.832-7.852-8.13-17.49-16.272-28.912-24.428 39.708-29.216 66.14-58.35 79.298-87.404Z" fill="#000" fill-rule="evenodd"/></svg>
