<svg xmlns="http://www.w3.org/2000/svg" version="1.0" viewBox="0 0 1034 914"><path d="M328 38.3c-37.7 11.7-69.7 50.6-79.6 96.9-2.6 12.1-2.4 34.6.4 45.1 7.2 26.5 26.2 42.6 50.4 42.7 8.9 0 9.4-.6 4-5-11.5-9-21.2-24.5-25.3-40.5-3.2-12.2-3-30.7.5-44 2.7-10.4 9.2-25.1 14.7-33.3 12.8-18.8 32.2-33.4 53.4-40.2 8.1-2.6 29.2-3.8 36.3-2.2 6 1.4 5.6-.6-1.7-7.9-4.1-4.1-8.4-7.1-13.8-9.6-7.4-3.6-8.2-3.7-19.8-4-10.3-.3-13.1 0-19.5 2M250.5 49.6c-3.8.8-11.3 3.5-16.5 6.1-7.9 3.9-10.9 6.1-18.1 13.2-14.8 14.9-21.6 32.1-20.7 52.5.4 7.3 1.2 12.1 3 17.3 3.1 8.6 10.4 19.9 16.1 24.9 7.6 6.5 7.2 6.9 7.3-9 .1-10.1.8-17 2.3-24.2 5.7-27.3 19.9-55.9 37.1-74.7 3.3-3.6 6-6.8 6-7.1 0-1.1-9.3-.5-16.5 1"/><path d="M358.5 82c-18.2 3.9-36.5 17.9-47 35.7-20 34.2-11.9 74.3 17.6 87.7 3.7 1.7 9.3 3 17.9 4 109.4 13.5 272.6 59.3 432.9 121.7 14 5.5 25.6 9.8 25.8 9.6s-.4-3.5-1.4-7.3c-2.4-9.7-2.4-36.6 0-48.7 5.3-26.4 17.4-51.7 35-73.4l6.6-8.1-8.2-.6c-4.5-.3-12.9-.8-18.7-1.1-100.7-5.5-224-33.4-341.5-77.3-22.3-8.3-29.2-11.3-60-25.7-14.8-7-29.2-13.6-32-14.7-5.7-2.2-20.5-3.3-27-1.8M914.4 189.5c-25.8 5.6-53.4 28.3-69.9 57.5-20.7 36.4-22.9 80.4-5.3 106.5 9.4 14.1 21.2 20.5 39.1 21.3l10.7.4-9.8-9.8c-8.1-8.2-10.5-11.4-14-18.4-5.8-11.8-8.5-23.7-8.5-37.5-.1-26.9 9.7-50.6 29.2-70.9 12.7-13.1 25.9-21.2 42.8-26.2 9.6-2.8 23.6-3.6 34.6-2.1 5.5.8 5.8.8 4.9-1-2.4-4.4-12-12.6-18.6-15.8-11.2-5.5-22.4-6.8-35.2-4"/><path d="M941.7 234.1c-29.2 4.4-55.9 34.3-59.6 66.7-1.7 15.6 1.2 29.1 8.8 40.9 9.8 15.2 28.8 22.8 47.5 19 33.3-6.8 58.9-38.8 58.8-73.7 0-14.8-3.3-25.8-10.7-36-9.7-13-27-19.6-44.8-16.9M373.6 249.7c14.3 43.6 18.1 103.1 9.8 153.3-2.3 13.9-8.6 37.8-13.4 51-9.3 25.6-27 57-44.6 79-7.3 9.2-35.1 37.5-44.8 45.7l-5.9 5 11.4 4.8c36.2 15.3 100.3 37.6 143.2 50 84.7 24.3 164.6 38.4 240.2 42.5 28.9 1.5 48.6 1.3 51.2-.5 3.8-2.7 18.3-8.4 26.6-10.6 8.7-2.3 27.1-3.1 35.4-1.6l4.3.7 11.9-11.9c36.3-36.5 61.5-79.5 73-124.9 10-39 9.9-87-.2-125.1l-2.2-8.4-7-1.4c-10.2-2-23.6-8.9-32.1-16.5-7-6.3-7.4-6.5-37.5-18.5-132.8-52.9-253.8-90.9-364.9-114.7-18.3-3.9-54.1-10.6-56.8-10.6-1.5 0-1.2 1.6 2.4 12.7M175.5 539.7c-19.2 4.3-40.1 17.6-54.5 34.8-28.8 34.3-40.4 78.9-29.5 113.4 7.6 23.9 25.9 38.1 49.1 38.1 8.6 0 9-.6 3.1-5.5-12.7-10.3-21.7-25.9-25.3-43.8-2.4-11.8-1.5-31.2 2-43 10.8-36.3 38.4-63.7 72.3-71.8 7.3-1.8 10.9-2 20.8-1.6 6.6.2 12.8.8 13.8 1.2 3.5 1.5 1.6-1.8-5-8.4-7-6.9-14.2-11.2-22.4-13-4.3-1-20.5-1.3-24.4-.4M94.4 552.1c-13.5 2.2-26.3 9-36.9 19.4-8.3 8.1-14.2 17.6-18.1 29-2.4 6.9-2.8 9.6-2.8 20-.1 14 1.9 21.8 8.1 32.4 3.8 6.3 12.7 16.2 16.6 18.3 1.9 1 2 .8 1.3-4.9-1.6-14.5 3.3-42 10.9-60.8 6.9-17 18-35 29.5-47.8l6.2-6.7-4.9.1c-2.6.1-7.1.5-9.9 1"/><path d="M198.3 585.4c-20.1 4.6-39.2 21.2-49.2 42.7-14.9 32-5.8 67.9 20.1 79.9 4.8 2.2 9.5 3.3 19.3 4.5 112.7 14.2 279.7 61.4 438.4 123.9 10.7 4.2 19.6 7.5 19.8 7.2.2-.2-.4-3.9-1.3-8.2-2.4-10.8-2.4-33.7 0-45.9 5.3-27.7 19.6-57.9 36.5-76.7 2.8-3.1 5.1-5.8 5.1-6.1s-4.8-.8-10.7-1.1c-40.6-2.4-66.1-5-97.8-9.7-105.9-15.7-226.8-51.1-314.9-92.1-16.5-7.7-32.7-15.1-35.9-16.5-7.4-3.1-20.4-3.9-29.4-1.9M755.5 692.6c-16.5 3.7-32.8 13.4-47.5 28.3-24.9 25.1-39.2 58.4-39.2 91.6-.1 15.9 1.7 24.9 7.2 36.3 9.1 19 24.8 29.2 45 29.2h8.8l-9.2-9.3c-7.8-7.8-10-10.7-13.9-18.7-7.1-14.4-8.2-19.7-8.1-38.5.1-19.3 1.7-26.4 9.9-43.1 13.4-27.5 37.3-47.3 65.2-54 8-2 26.9-2.4 32.6-.7 2 .6 3.7.8 3.7.4s-1.4-2.6-3.1-4.9c-4-5.4-13.7-12.3-21.4-15.1-7.9-3-20.6-3.6-30-1.5"/><path d="M787 736.6c-12.8 2-20.3 4.8-29.9 11.3-21 14.3-34.1 38.9-34.1 64 0 28.4 15.4 48.5 40.1 52.3 18.4 2.8 38.1-5.2 53.7-21.6 12.2-12.9 19.2-27.6 21.4-45.1 3.5-27.7-11.2-53.6-33.7-59.3-5-1.3-14.2-2.1-17.5-1.6"/></svg>
