<svg xmlns="http://www.w3.org/2000/svg" version="1.0" viewBox="0 0 924 893"><path d="M258 113.6c-85.5 41.1-155.7 74.8-156 75.1-.2.2 1.1 1.6 3 3.1 7.2 5.4 20.4 19 26.6 27.2 11.1 14.7 20 35.4 24.1 55.7 1.3 6.5 1.7 13.6 1.7 26.8 0 20.9-1.3 29.8-7.9 53.1-4.7 16.3-8.3 35.9-11.1 59.9-2.5 20.8-2.5 68.5-.1 87 8.3 62.8 29.2 111.2 70.1 162.5 12.3 15.4 43.6 46.9 61.1 61.4 43.8 36.4 98.4 72.3 169.2 111l23.2 12.6 21.3-11.6c93.6-51.1 155.7-94.4 202.4-140.9 41.5-41.4 68-81.5 84.3-128 12.4-35.2 17.5-67.5 17.5-110-.1-38.8-4.2-71.9-12.8-103-7.2-25.9-8.1-31.4-8.1-53.5 0-21.7 1.1-28.8 7-46.7 7.6-22.8 19.8-41 39-58.1 3.9-3.5 7.8-6.7 8.5-7.2.8-.5 1.2-1.1 1-1.3C820.4 187.4 510.1 39 508.9 39c-.8 0-2 .5-2.5 1-.6.6-10.7 22.9-22.5 49.5-11.7 26.7-21.6 48.5-22 48.5-.3 0-8.2-17.2-17.4-38.3-23.9-54.1-27-60.7-29.2-60.7-1 0-71.8 33.6-157.3 74.6M485.1 180c21.3 9 22.7 9.8 28.5 15.5 6.4 6.3 9.9 13.3 11 21.9.5 3.4-29.1 327.5-30 328.3-.1.2-7.5-.2-16.4-.8-11.8-.8-20.6-.8-32.4 0-8.9.6-16.3.9-16.5.7-1-1-30.4-320.7-30-326.6.5-9 4.4-17.3 11.1-23.9 4.6-4.6 7.5-6.1 28.1-15 12.7-5.5 23.3-9.9 23.6-9.8.4.1 10.7 4.5 23 9.7M366.7 405.1c10 81.1 18.2 148.2 18.2 149.1.1 1-.6 1.8-1.4 1.8-2.8 0-23.9 8.2-36 13.9-6.6 3.2-16.2 8.3-21.2 11.4-5.1 3.1-9.3 5.4-9.3 5.2s-10.9-48.9-24.2-108.2l-24.2-107.8v-14c0-11.5.4-15.4 2.2-22 4.5-16 14.1-31.6 25.6-41.6 6.1-5.3 50-35.8 51.1-35.5.5.1 9.1 66.6 19.2 147.7m233.5-131.9c25.3 17.6 34.5 25.6 41.4 36 9.6 14.4 13.8 28.8 13.8 47.3v13l-23.8 106c-13 58.3-24 107.2-24.4 108.6l-.7 2.6-11.4-6.8c-13.2-7.9-31.3-16.2-45.6-21-5.5-1.8-10.2-3.4-10.4-3.6-.7-.5 36.3-298.3 37.1-298.3.4 0 11.3 7.3 24 16.2M251.5 501.1l33.6 113.1-8.3 8.6c-8.7 9.1-18.9 21.7-25.3 31.4-2.1 3.2-3.9 5.8-4 5.8-.6 0-14.1-17.8-19.7-26-33-47.9-51.5-99.2-56.8-157-2.2-24.7-1-34.4 5.7-47.8 3-6.1 6.8-10.6 21.7-26.3 15.6-16.2 18.2-18.6 18.8-16.8.4 1.1 15.9 52.9 34.3 115M740 418.5c5.9 6.8 11.6 18.9 13 27.8 3.1 18.1-3.2 64.9-13.1 97.7-12.1 40.1-31.4 75.6-61.7 113.9l-1.9 2.3-5.3-7.8c-7.2-10.8-15-20.4-24.4-30.1l-7.9-8.3 32.8-110.2c18-60.7 33.4-112.4 34.2-115l1.4-4.7 14.3 14.7c7.9 8.1 16.3 16.9 18.6 19.7"/><path d="M53 217.2c-9.2 11.5-13 23.7-13 41.3 0 19.3 4.9 38 15.9 61.1l6 12.6 8.3-7c13.4-11.2 42.5-31.9 46.9-33.4.9-.3.4-3.1-1.5-9.9-7.7-27.2-29.7-56.9-49.5-66.8-7.6-3.8-8.6-3.7-13.1 2.1M863 213c-10.7 3-26.4 16.8-37.8 33.3-8.7 12.5-16.5 30.1-18.5 41.7-.6 3.4-.5 3.6 5.7 7.2 7.9 4.7 27.2 18.6 39.9 29l9.8 7.9 5.5-11.5c19.7-41.6 21.7-77.2 5.5-100.3-5.4-7.7-6.3-8.3-10.1-7.3"/></svg>
