<svg xmlns="http://www.w3.org/2000/svg" viewBox="0 0 853 1024"><path d="M441.772 828.685h146.319V657.706H441.772v170.979zm0-197.751h146.319V460.052H441.772v170.882zm-30.211 26.772H265.144v170.979h146.417V657.706zm0-197.654H265.144v170.882h146.417V460.052zm45.17-321.522c17.096 11.054 34.657 15.082 48.167 36.082 14.025 21.886 10.856 46.645 10.856 46.645h72.926s48.068 60.153 89.702 106.673c68.111 76.095 174.81 53.939 174.81 53.939l-21.885 58.337H659.86v397.592h51.041s12.773 23.997 12.773 42.689c0 18.814-13.165 42.911-13.165 42.911h-19.185l-30.8 51.238H192.682l-30.776-51.238h-19.209s-13.14-24.096-13.14-42.911c0-18.691 12.87-42.689 12.87-42.689h50.942V440.206H21.997L.136 381.869s106.576 22.156 174.713-53.939c41.731-46.52 89.701-106.673 89.701-106.673h72.926s-3.168-24.759 10.832-46.645c13.534-21.001 31.097-25.028 48.167-36.082 25.521-16.481 30.041-60.153 30.041-60.153s4.692 43.672 30.211 60.153z"/></svg>