<svg xmlns="http://www.w3.org/2000/svg" viewBox="0 0 875 1024"><path d="M427.52 169.366c-201.035 0-363.989 162.954-363.989 363.967 0 201.035 162.954 363.989 363.989 363.989 201.013 0 363.989-162.954 363.989-363.989 0-201.013-162.976-363.967-363.989-363.967zm427.375 363.967c0 236.109-191.358 427.375-427.375 427.375S.145 769.442.145 533.333c0-236.017 191.358-427.375 427.375-427.375s427.375 191.358 427.375 427.375zM374.876 745.574V593.57l131.678-76.049L638.21 593.57v140.151l57.807-33.268V389.292L426.526 233.654 157.035 389.292v311.161L426.526 856l69.82-40.259-121.469-70.168z"/></svg>