<svg xmlns="http://www.w3.org/2000/svg" version="1.0" viewBox="0 0 1108 881"><path d="M520.5 36.6c-1.6.2-7.9.9-14 1.5-18.8 1.8-38.9 5.6-68 12.8-41.2 10.2-90.2 20.2-118.8 24.2-4.8.7-8.5 1.4-8.3 1.6.2.3 7.5 1.1 16.3 1.9 32.8 2.9 68.1 8.1 99 14.5l15.1 3.2 6.7 9.8c25.6 37.9 68.9 90.4 98.8 119.8l6.5 6.3 13-13.3c31.4-32.4 61.4-68.8 87.6-106.4 5.4-7.7 10.4-14.6 11-15.3 3-3.2 71.3-14.6 106.1-17.7 26.8-2.4 26.9-2.5 14-4.7-47.1-7.9-80.5-14.8-118-24.2-46.1-11.5-63.5-13.8-109-14.1-19.2-.2-36.3-.1-38 .1"/><path d="M314 123.7c-69.5 2.9-137.8 18.5-201.5 46-12.4 5.4-38.1 17.7-39.3 18.8-.2.2 3.5 5 8.3 10.7 15.4 18.2 29.6 39.3 38.6 57.1l5 9.9 3.2-2.5c21.8-16.5 36.8-25.7 60.2-37.2C227.7 207.4 253 201 288.8 201c40 0 66.7 9.8 100.2 36.7 53.1 42.6 114.7 133.9 156.3 231.6l8.4 19.8 2.8-6.8C600 377.1 662.3 282.9 718.3 237.9c33.5-27 60.3-36.9 99.7-36.9 25.8 0 48.5 4 71.5 12.5 25.1 9.2 62.9 30 84.7 46.6 4.3 3.4 8.1 5.9 8.2 5.7.2-.1 2.8-5.3 5.9-11.3 9.3-18.2 23.5-38.9 38.9-56.8 3.8-4.4 6.8-8.3 6.8-8.8 0-1.7-33.8-17.5-56.2-26.3C887 126.9 786.6 115 693.5 129l-8 1.2-11.5 14.7c-28.3 36-66.3 81-100.7 119.3l-19.4 21.7-5.8-6.2c-29-31.1-72.3-81.8-107-125.2-13.2-16.5-20-24.2-21.8-24.7-4.8-1.3-39.9-4.8-57.8-5.8-16.7-.9-31.7-1-47.5-.3"/><path d="M297.2 251.2c-22.8 55.2-26.3 109-9.9 151.5 11.7 30.1 29.1 53.8 49.8 67.6 16.2 10.7 29.8 15.4 48 16.4 37.4 2.1 73.9-17.4 96.9-51.9l6-8.9-3.2-5.7c-32.5-58.2-58.1-94.5-88.3-124.8-33.1-33.2-61.8-50.5-89.6-53.9l-5.4-.6zM794 242.6c-25.9 5.5-49 19.8-78.4 48.4-28 27.2-49.2 54.9-74.3 97-11.2 18.8-21.3 36.7-21.3 37.9 0 2.6 13.3 20.3 21 28.1 14.9 14.8 33.2 25.3 52.9 30.3 7.1 1.8 11.4 2.1 24.1 2.1 13.9-.1 16.4-.3 24.4-2.8 10.8-3.3 23.8-9.8 32.7-16.5 23.7-17.9 44.4-52.9 52-87.9 2.6-12.4 3.7-41.3 2-56.3-2.7-23.3-9.4-48.7-18.8-71.2-5.1-12.1-4.3-11.7-16.3-9.1M251 244.5c-35.5 7.8-70.9 27.3-101.3 55.7l-7.8 7.3 2.6 7.5c19.7 56.8 32.3 135.4 33.8 210.1l.2 10.6 45.5-41.9c25-23.1 45.9-42.3 46.4-42.8s-.3-2.9-1.9-5.7c-8.4-14.9-16.8-39.5-21.2-62.2-2.5-12.6-2.7-15.5-2.7-40.1 0-23.1.2-28.2 2.2-39.4 2.8-16.3 7.3-33.9 12.3-48.7 2.1-6.4 3.9-11.9 3.9-12.3 0-.8.3-.8-12 1.9M844.5 243.8c.3.9 2.4 6.9 4.5 13.2 21.3 63.8 19.2 126.7-6.1 179.9-3.2 6.8-5.9 12.9-5.8 13.5 0 .6 20.6 20 45.7 43l45.7 42 1.2-27c3-68.9 12.8-128.4 30.8-185.8l4.6-14.9-5.3-5.4c-2.9-3-9.8-9.1-15.3-13.6-26.6-21.5-56.1-36.7-83.8-43.1-16.1-3.8-17-3.9-16.2-1.8M500.8 466.2c-2.6 3.5-7.9 9.8-11.9 14.1l-7.2 7.9 1.2 20.6c5.9 102.4 28.9 204.1 67.4 298l3.4 8.3 3.2-7.7c10.1-24.1 24.6-65.8 33-94.9 19.3-67 31.3-139 34.9-209l.8-15-6.5-7.3c-3.6-4.1-8.8-10.2-11.4-13.5-2.7-3.4-5.2-6.6-5.7-7.1-1.5-1.5-25.7 48.9-40.7 84.4-3.6 8.5-6.9 15.9-7.3 16.3-.4.5-1.8-1.8-3-5-9-22.4-43.5-96.3-45-96.3-.3 0-2.7 2.8-5.2 6.2M267.8 487.2c-16.5 16.4-27.3 28.7-39.8 45.3-7.3 9.8-20 28.4-20 29.4 0 .3 6 2.1 13.3 4 57.3 14.5 123.6 44.3 177.5 79.8 25.9 17.1 56.7 41.2 78.5 61.4 6.1 5.7 10.7 9.4 10.7 8.5s-2-8.8-4.5-17.7c-15.3-54-29-127.5-33.1-176.9-.3-4.7-.8-8.8-1.1-9.2-.2-.4-2.7.4-5.6 1.9-7.3 3.6-20.6 8-30 9.8-32.9 6.2-65.2-.3-93.1-18.9-9.2-6.1-23.9-19.5-30.6-28-2.5-3.1-4.8-5.6-5.2-5.6-.3 0-8 7.3-17 16.2M811.1 483.1c-13.6 14.3-25.1 23.1-38.6 29.8-18.8 9.3-33.5 12.6-55.5 12.5-19.5 0-35.5-3.4-51.7-10.9-4-1.8-7.3-3.2-7.3-3.1 0 2.4-3.7 34.5-5.6 48.6-6.1 45.9-17.7 101.4-30.4 145-1.6 5.8-3 10.9-3 11.3 0 .5 5.1-3.8 11.3-9.4 60.9-55.5 127.5-96.2 203.5-124.5 15.7-5.9 44.8-15 57.5-17.9 4.2-1 7.7-2.4 7.7-3 0-2.6-20.7-31.2-33.9-47-9-10.6-29.3-31.7-37.1-38.5l-5.5-4.7z"/></svg>
