<svg xmlns="http://www.w3.org/2000/svg" viewBox="0 0 30 32"><path fill="#000" d="M.754 7.138C1.13 5.171 1.947 3.244 3.28 1.734c-.415 1.116-.84 2.233-1.076 3.402-.294 1.456-.472 2.946-.386 4.432.048.201.002.487.187.637 2.245 1.66 4.567 3.217 6.795 4.898-2.4 1.191-4.791 2.401-7.195 3.587-.184 3.16.445 6.323 1.603 9.255.302.788.67 1.547 1.01 2.319C1.063 27.058-.295 22.373.051 17.95c2.177-.98 4.348-1.974 6.519-2.968-1.975-1.486-3.991-2.916-5.989-4.371.005-1.158-.068-2.332.172-3.474zm25.815-5.401c1.035 1.147 1.724 2.568 2.194 4.03.482 1.565.585 3.218.501 4.845-1.989 1.467-4.017 2.88-5.987 4.373 2.167.998 4.337 1.991 6.513 2.969.248 2.39-.121 4.824-.921 7.082a14.411 14.411 0 0 1-3.239 5.23c1.05-2.213 1.934-4.53 2.321-6.958.274-1.524.348-3.076.297-4.621a724.855 724.855 0 0 1-7.169-3.576c.226-.307.59-.47.887-.698 1.902-1.343 3.791-2.705 5.689-4.053.355-.142.325-.539.365-.852.199-2.663-.457-5.314-1.449-7.768zM6.061 12.015c-.053-1.785.474-3.53 1.198-5.143-.005 1.398-.202 2.81.039 4.199.035.219.092.461.287.593 1.61 1.212 3.204 2.447 4.807 3.668-1.905 1.083-3.848 2.1-5.771 3.152-.579 2.649-.567 5.431.173 8.046-1.141-1.626-1.722-3.597-1.867-5.566-.083-.942-.108-1.898.066-2.831.028-.148.095-.298.256-.344 1.651-.922 3.395-1.671 5.049-2.589-1.415-1.057-2.816-2.136-4.237-3.187zm16.53-5.143c.731 1.614 1.23 3.361 1.196 5.147a422.464 422.464 0 0 0-4.218 3.177c.156.114.324.208.493.301 1.534.76 3.079 1.502 4.586 2.315.276.135.206.493.254.751.319 2.763-.293 5.651-1.828 7.983.651-2.632.804-5.415.153-8.062a816.836 816.836 0 0 1-4.516-2.45c-.419-.222-.848-.431-1.237-.705a420.065 420.065 0 0 1 4.752-3.636c.221-.149.292-.427.33-.676.219-1.374.08-2.765.035-4.146zm-11.476 6.493a291.8 291.8 0 0 1 1.836-1.129c.005.202.014.409.019.612 1.302.005 2.605.005 3.907 0 .003-.206.012-.407.017-.611.618.373 1.233.75 1.85 1.125a47.905 47.905 0 0 1-1.983 1.527c-.231.177-.555.083-.82.129-.79.012-1.58.021-2.37-.014-.396.066-.659-.262-.951-.457-.492-.407-1.025-.762-1.506-1.181zm2.089 2.447c1.129-.101 2.27-.081 3.4-.025.827.384 1.599.886 2.426 1.276-.471 1.781-.985 3.549-1.469 5.326-.136.461-.195.98-.56 1.333-.69.739-1.351 1.508-2.076 2.214-.748-.729-1.426-1.525-2.143-2.283-.214-.209-.288-.511-.361-.79-.529-1.935-1.072-3.867-1.605-5.801.817-.377 1.571-.876 2.388-1.25z"/></svg>
