<svg xmlns="http://www.w3.org/2000/svg" viewBox="0 0 41 41"><path d="M20.453.354a9.84 9.84 0 016.048 2.066l-.098.052C28.783 1.216 32.666.579 38.071.539l.546-.002 1.956 3.044v31.196c-8.247 1.683-14.24 3.656-17.977 5.92l-.29.18h-3.777c-3.62-2.28-9.493-4.268-17.621-5.966l-.647-.134V3.581L2.218.537c5.65 0 9.695.628 12.16 1.907a9.826 9.826 0 016.075-2.09zm0 6.988a2.799 2.799 0 110 5.598 2.799 2.799 0 010-5.598zm-4.219 8.302l.012.01.012.01.031.023.054.04.031.023.02.015a6.847 6.847 0 00.635.411l.036.02.063.035.022.012.06.032.077.041.018.01.022.011.024.011.042.022.031.014.012.006.078.038-.039-.018.113.052.104.046.183.077.137.053.092.034-.057-.02.131.046.052.018.028.01.028.008.025.009.085.026.017.006.045.013.088.026-.069-.02.097.027.106.03.28.067v7.534c-3.16 1.886-3.982 5.105-2.466 9.658-3.634-4.665-3.88-8.766-.737-12.303v-2.874a9.88 9.88 0 01-5.186-8.697 9.853 9.853 0 012.988-7.08C11.311 2.121 7.702 1.576 2.75 1.54l-.531-.002V33.19c8.249.491 14.315 2.659 18.2 6.5 3.883-3.841 9.95-6.009 18.199-6.5V1.537c-5.19 0-8.96.54-11.293 1.597a9.85 9.85 0 013.012 7.102 9.877 9.877 0 01-4.826 8.493v3.078c3.142 3.537 2.897 7.638-.737 12.303 1.48-4.447.73-7.622-2.25-9.525l-.216-.133v-7.643c.087-.025.174-.052.26-.08l.008-.004.044-.014a6.8 6.8 0 00.051-.018l.032-.01.047-.019.057-.02.028-.01.01-.005.028-.01-.029.01.115-.045-.018.009.026-.012.1-.04.005-.003.01-.004h.001l.016-.006.033-.016.01-.004.092-.04.051-.025.031-.012.043-.022-.074.034-.05.023.131-.06.093-.046.013-.007-.005.003-.008.004-.017.01.025-.014.016-.008.028-.013.054-.029-.057.03.092-.049.09-.046-.006.002.021-.012.201-.115.055-.033.008-.005.075-.044.084-.054.082-.056.06-.04.1-.068.122-.088.097-.074.092-.074.008-.006.048-.037.021-.019.035-.027.041-.037.036-.028v-.002l.216-.192a6.815 6.815 0 002.17-4.996A6.837 6.837 0 1015.6 15.088l.157.15.207.187.036.03.041.035.005.004.064.052.021.018-.033-.028.088.071.048.037z" fill="#000" fill-rule="nonzero"/></svg>
