<svg xmlns="http://www.w3.org/2000/svg" viewBox="0 0 32 32"><path d="M12.417 1c.463.158.89.402 1.32.635a12.656 12.656 0 013.482 2.813c2.878-1.029 5.854-1.915 8.925-2.071 1.123-.107 2.247.006 3.371.031.012.515.002 1.03.006 1.544.363-.049.727-.089 1.089-.149.013 7.586.001 15.172.006 22.758-4.072 1.419-8.141 2.851-12.211 4.274-.215.072-.427.178-.659.164a1399.49 1399.49 0 00-3.549-.001c-.216.004-.411-.098-.61-.162-4.066-1.427-8.135-2.847-12.201-4.275.002-7.583 0-15.165.001-22.748.369.039.734.103 1.103.141.002-.517-.003-1.033.003-1.549.5.003.997-.04 1.496-.06 3.534-.128 7.011.762 10.316 1.94-.415-1.199-1.01-2.356-1.887-3.285zM3.176 3.07c.004 7.54.011 15.081-.003 22.621 2.811-.015 5.671.174 8.352 1.083 1.361.471 2.711 1.114 3.723 2.164-.518-1.786-.613-3.735-.032-5.518.549-1.743 1.744-3.217 3.171-4.329 1.811-1.368 3.567-2.863 4.911-4.709.665-.949 1.277-2.01 1.344-3.194a9.891 9.891 0 01.95 4.438 8.303 8.303 0 01-1.147 4.04c-.729 1.245-1.767 2.285-2.93 3.127-1.348.97-2.628 2.052-3.705 3.323-.796.97-1.51 2.104-1.594 3.389 1.007-1.18 2.356-2.017 3.798-2.559 2.788-1.058 5.812-1.285 8.769-1.249-.02-2.98-.003-5.959-.008-8.938.004-4.539-.009-9.078.006-13.617a2.468 2.468 0 01-.286-.045 20.127 20.127 0 00-5.958.455c-1.667.388-3.31.873-4.94 1.393.866 1.185 1.522 2.545 1.758 4.001 1.021-.96 1.543-2.415 1.342-3.806.899 1.606 1.221 3.552.803 5.352-.35 1.502-1.205 2.852-2.306 3.917-.634.605-1.288 1.19-1.882 1.837-1.018 1.128-1.952 2.376-2.471 3.818-.258.723-.425 1.503-.3 2.271-1.027-.897-1.643-2.175-1.96-3.482-.329.602-.506 1.277-.607 1.953-.2 1.437.044 2.905.563 4.252-2.283-1.102-4.165-3.085-5.014-5.488-.664-1.89-.764-4.018-.053-5.909.586-1.536 1.603-2.93 2.948-3.884-.403.679-.698 1.505-.45 2.292.225.801 1.044 1.393 1.879 1.313.768-.045 1.41-.574 1.837-1.18.694-1.019.939-2.259 1.068-3.463.101-1.235.062-2.491-.237-3.698-1.1-.356-2.181-.78-3.306-1.053-1.435-.375-2.891-.684-4.368-.827-1.217-.133-2.443-.114-3.665-.091z"/></svg>
