<svg viewBox="0 0 28 22" xmlns="http://www.w3.org/2000/svg"><path d="M3.102.043c-.315.564-.643.932-.985 1.104-.342.172-.446.378-.312.616-1.11.164-1.702.618-1.773 1.362-.108 1.115 1.222 1.29 1.537 2.244l1.252 11.75c.062.598-.057 1.066-.358 1.401-.45.504-.296 1.715.79 1.916 1.084.202 1.706-.127 2.936 1.15.452-.831 1.09-1.35 1.915-1.558 1.218-.511 1.169-1.611.942-2.293-.334-.853-.939-1.067-1.57-1.01-.29.048-1.04.14-2.008.83 1.02-.881 2.625-1.44 4.815-1.675 2.094-.227 4.502-.292 4.502-.292.235-.598.413-1.651.532-3.16.12 1.472.025 3.135-.287 4.987 1.692.573 3.825.667 6.398.282.403-.074.895-.186 1.477-.337-1.128.307-1.764.737-1.908 1.29-.172.72-.09 1.479.775 1.865.908.32 1.811 0 1.811 0-.011.396.254.648.795.758.28.07.483.289.607.653.042-.449.19-.716.442-.802.345-.098.65-.555.463-.871 1.237.106 1.905-.4 2.003-1.52.03-.837-.427-1.368-1.371-1.594L24.854 5.077c-.095-.695.09-1.245.557-1.65.833-.934.184-2.213-1.236-2.253-.947-.026-1.748-.404-2.403-1.131a3.386 3.386 0 01-1.635 1.519c-1.09.495-1.737.938-1.507 2.13.321 1.069 2.1.833 2.616.505-.544.382-2.397.863-5.56 1.446a7.995 7.995 0 01-.273 1.79c.026-1.739-.19-2.974-.646-3.706-.684-1.097-2.142-1.346-3.71-1.313-1.706.098-3.768.19-6.465 2.182.28-.224.748-.541 1.407-.953 1.006-.566 1.21-1.246.765-1.88-.424-.612-1.357-.726-2.025-.42.092-.31-.084-.513-.527-.607a1.904 1.904 0 01-1.11-.693z" fill="#000" fill-rule="nonzero"/></svg>
