<svg xmlns="http://www.w3.org/2000/svg" viewBox="0 0 811 1024"><path d="M494.317 725.533h-82.253V548.325h82.253v177.208zm-108.52 0h-82.251V548.325h82.251v177.208zm26.267-348.681h-26.443l.176 151.975h-82.251V377.116h-26.289v151.711h-69.458v19.497h69.458v177.208h-69.458v18.639h69.458v194.903h26.289V744.171h82.251v194.903h26.267V744.171h82.253v194.903h23.782V744.171h74.624v-18.639h-74.624V548.324h74.624v-19.497h-74.624V377.116h-23.782v151.711h-82.253V376.852zm212.247 562.311h174.131V591.604H624.311v347.559zM.278 939.074h174.131V591.603H.278v347.471zm624.12-402.268h174.044c0-257.835-192.155-366.353-192.155-366.353L545.246 333.33s79.152 60.952 79.152 203.476zM253.561 333.33l-61.039-162.877S.367 278.971.367 536.806h174.042c0-142.524 79.152-203.476 79.152-203.476zm-20.354-205.827h332.37L493.218 333.33H307.831l-74.624-205.827z"/></svg>