<svg xmlns="http://www.w3.org/2000/svg" viewBox="0 0 912 1024"><path d="M687.874 658.857c0 139.942-155.093 214.202-275.461 226.591-41.81 4.301-95.445 8.895-136.595-.367-13.734-3.055-26.243-6.868-37.606-11.266-3.446-1.442-5.059-3.152-5.059-5.156L216.537 718.6c0-3.323 1.734-5.057 5.156-5.057l24.73 13.268c3.444 1.051 18.985 91.267 92.781 108.812 47.821 11.46 101.359 0 146.319-15.737 53.734-19.011 107.761-58.033 107.761-120.931 0-57.668-38.364-104.438-115.214-140.431-96.104-44.766-231.356-92.585-231.356-219.993 0-137.45 135.813-199.32 254.643-203.791 43.056-1.541 92.977-3.249 135.276 5.35 3.42.659 5.156 2.371 5.156 5.132l11.337 159.613c0 3.422-1.613 5.156-5.059 5.156l-29.102-18.423c-3.446 0-24.339-59.843-33.502-76.752-39.805-73.209-152.527-42.959-206.089-2.394-49.335 37.434-50.973 113.307-15.932 158.561 75.407 97.449 226.418 88.09 296.94 193.946 17.57 26.341 27.491 62.138 27.491 93.93zm85.058 173.809l-65.877-89.996c-4.569 10.385-10.018 20.429-16.029 29.959l81.906 60.037zM381.281 960l11.46-35.799c-3.714.294-7.526.684-11.363.855l-.097 34.942zm276.904-43.911l-25.853-78.561a391.21 391.21 0 0 1-20.038 14.906l45.891 63.655zM523.226 960l-.294-62.409a688.485 688.485 0 0 1-17.838 6.011l18.132 56.399zM131.502 191.234l81.615 111.5c2.369-15.37 6.108-29.885 11.337-43.447l-92.952-68.053zm505.79 155.41l-32.548-20.722c-3.249-1.244-6.011-2.956-8.602-5.253l-10.58 7.82 4.569-14.124c-7.159-9.433-13.073-24.337-21.478-45.425a2413.264 2413.264 0 0 0-9.53-23.678l-36.849 50.971.391-86.671c-5.937-1.516-12.805-2.567-21.21-2.567-8.211 0-16.592 1.053-24.998 2.567l-24.24 75.604-19.768-61.578c-12.119 5.547-22.798 11.948-31.008 18.058-9.847 7.427-15.664 16.787-19.377 25.853l.097 28.735-5.449-7.451c-2.295 21.308 3.519 44.008 15.664 59.769 30.35 39.217 78.365 58.986 129.142 79.782 59.354 24.434 126.648 52.023 169.411 116.263 7.453 11.266 13.464 24.143 18.62 37.606l190.72.756-221.264-71.009 221.264-70.912-232.334.855 188.52-135.837-220.701 72.646 24.827-34.062c-3.91 1.22-8.113 2.004-12.609 2.004h-10.679zm52.486-43.055v1.246l83.154-113.601-86.671 63.483 3.446 47.527.077 1.345zm33.796 370.636l132.879 43.716-136.129-98.133c2.492 13 4.202 26.17 4.202 39.049 0 5.253-.659 10.213-.952 15.369zm-439.936 47.064l35.333-25.876-20.33 61.846c8.284 15.664 19.451 29.493 35.115 37.509l48.406-67.101-.294 75.897c15.737-.097 33.208-2.493 51.731-6.793l18.62-58.011 15.541 48.285c1.929-.563 3.738-1.05 5.644-1.71 12.022-4.301 31.79-12.805 49.067-25.975l-.196-31.693 14.027 19.377c11.851-12.682 20.33-28.541 20.33-48.089 0-15.565 0-63.092-94.1-107.199-8.895-4.202-18.229-8.405-27.783-12.706-89.825-40.562-210.855-95.445-223.464-219.235L48.082 306.057l188.52 135.837-232.334-.855 221.165 70.912L4.268 582.962l232.334-.952-188.52 135.934 220.677-72.648-27.197 37.241 20.99 11.361c13.367 6.378 18.132 18.693 21.088 27.392zm374.547-613.475l-.952 1.343.393.195.56-1.538zM523.228 64l-10.875 33.696c3.616-.097 7.062-.195 10.679-.365l.196-33.329zM131.502 832.667l56.226-41.124-3.347-31.034-52.879 72.158zM381.281 64l.196 56.716c5.352-1.93 10.8-3.837 16.225-5.449L381.28 64zM246.325 916.091l.563-.756h-.268l-.294.756zm44.96-745.844c-6.596 5.35-12.901 10.97-18.814 16.981l-26.146-79.415 44.96 62.433z"/></svg>