<svg xmlns="http://www.w3.org/2000/svg" viewBox="0 0 634 307"><path d="M287.524 28.539c16.522-22.845 47.784-36.913 65.837-22.136 12.036 9.852 13.91 28.424 5.622 55.716l-5.622-4.116c.739-20.318-.738-54.2-30.84-34.257C304.405 40.759 288.272 73.51 274.124 122 420.11 65.666 498.752 38.03 563.869 31.094c43.41-4.625 66.48-1.148 69.208 10.431.566 11.142-13.807 26.449-43.12 45.92-42.41 25.15-99.933 48.818-172.568 71.004-1.236-1.01-3.295-2.045-6.178-3.106v-3.69c59.729-21.282 101.183-41.085 124.363-59.408 16.903-19.11 10.562-26.832-19.022-23.165-29.584 3.666-110.393 31.19-242.428 82.573l61.184 31.922c-4.739 5.416-7.97 12.983-9.691 22.703l-65.2-33.363c-4.504 18.359-7.459 36.773-8.862 55.243-4.693 37.944-.242 58.842 13.354 62.692 13.113 1.561 24.858-4.452 35.234-18.039h5.36c-9.228 23.177-23.743 34.405-43.547 33.683-19.991-4.626-31.765-19.896-35.321-45.81-3.3-34.452-1.688-65.453 4.832-93.003l-21.406 7.771c0-10.314-3.417-18.843-10.251-25.585l12.107-4.49c-25.94-15.329-49.95-31.57-72.028-48.722-22.078-17.152-36.901-33.92-44.47-50.304-5.133-15.263 4.918-20.349 30.154-15.257 25.237 5.091 56.279 17.753 93.127 37.986l-3.79 3.613c-23.716-10.574-73.305-25.784-56.114 1.112 10.832 12.832 38.097 32.053 81.795 57.664 9.125-36.211 30.411-80.085 46.933-102.93ZM391 163.959c30.686 0 55.562 24.876 55.562 55.562 0 30.686-24.876 55.562-55.562 55.562-30.686 0-55.562-24.876-55.562-55.562 0-30.686 24.876-55.562 55.562-55.562Zm54.527 16.95c116.426 50.86 122.444 71.558 120.652 79.15-2.273 10.467-15.318 14.849-39.134 13.145-23.911-2.325-50.242-8.407-78.992-18.246 4.37-7.155 7.61-15.651 9.721-25.49 32.547 14.758 46.353 10.801 49.538 8.302 5.707-5.223 1.816-12.771-11.67-22.644-13.794-9.56-28.751-17.843-44.873-24.848-1.167-3.307-2.915-6.43-5.242-9.37Zm-330.138 0c.48 10.893 3.396 19.725 8.75 26.496-22.568 8.425-37.034 15.909-43.396 22.452-8.48 12.052 10.023 16.973 21.698 16.652 18.553 0 44.469-5.867 96.164-22.188l5.005 6.067C150.198 251.303 98.293 263.07 47.895 265.69 7.33 264.3-7.057 255.177 4.737 238.32c12.428-15.154 49.312-34.291 110.652-57.412Zm151.61 6.18 57.439 28.944c0 14.963 2.653 26.66 7.96 35.09-25.02 9.61-49.268 10.249-72.744 1.915 0-20.385 2.448-42.368 7.345-65.949Zm-48.538-3.94c-1.94 12.039-3.013 25.146-3.22 39.32l-.154-.23-.077-.114-11.697-17.396c3.942-5.53 6.314-11.778 7.117-18.741ZM163 144.428c19.67 0 35.615 15.946 35.615 35.615 0 19.67-15.945 35.616-35.615 35.616s-35.615-15.946-35.615-35.616S143.33 144.43 163 144.43Zm224.496-25.123c4.774 8.816 7.16 20.036 7.16 33.658-22.561-.899-40.476 6.607-53.744 22.517l-44.014-22.051a53722.286 53722.286 0 0 0 90.598-34.124Zm-131.67-56.36c-7.61 14.891-14.67 32.99-21.182 54.295-8.864-5.667-17.255-11.413-25.173-17.237 12.158-17.523 27.609-29.875 46.354-37.058Zm53.577-6.002c16.445 1.974 32.926 9.438 49.444 22.391-22.71 8.677-45.809 17.523-69.297 26.538 6.208-19.237 12.825-35.546 19.853-48.93Z" fill="#000" fill-rule="evenodd"/></svg>
