<svg xmlns="http://www.w3.org/2000/svg" viewBox="0 0 156 113"><path d="M122.612 0c15.067 10.473 18.4 27.403 19.59 31.947.793 3.03 2.97 5.612 6.534 7.747L156 43.52l-13.129 9.282c-2.414 1.302-3.25 3.19-2.506 5.665.84 2.724.596 6.976-.733 12.755-1.33 5.779-5.327 10.986-11.992 15.621 0 0 2.015-8.84.47-17.034-1.029-5.462-4.563-7.15-10.604-5.066l-23.178 9.464c-2.257 3.98-4.001 7.036-5.231 9.168-1.23 2.131-1.23 3.874 0 5.229l4.602 5.472 9.91 1.09c4.083 0 6.398 1.715 6.945 5.146-12.403-1.36-23.22 2.87-32.451 12.689h-.206c-9.231-9.819-20.048-14.048-32.45-12.689.546-3.43 2.86-5.147 6.945-5.147l9.909-1.09 4.602-5.471c1.23-1.355 1.23-3.098 0-5.23-1.23-2.13-2.974-5.187-5.231-9.167l-23.178-9.464c-6.04-2.085-9.575-.396-10.605 5.066-1.544 8.194.47 17.034.47 17.034C21.696 82.207 17.699 77 16.37 71.221c-1.33-5.78-1.574-10.03-.734-12.755.743-2.475-.092-4.363-2.506-5.665L0 43.52l7.264-3.825c3.563-2.135 5.741-4.717 6.534-7.747 1.19-4.544 4.523-21.474 19.59-31.947-4.545 12.706-2.995 23.602 4.649 32.688 1.032-3.049 2.592-5.232 4.679-6.55 2.328 7.508 7.049 11.986 14.162 13.434l4.425-5.068-2.672-16.04 9.083-12.101c-2.298 8.393-1.816 15.312 1.445 20.759 2.257-1.823 5.204-2.718 8.841-2.684 3.637-.034 6.584.86 8.84 2.684 3.262-5.447 3.744-12.366 1.446-20.76l9.083 12.102-2.672 16.04 4.425 5.068c7.113-1.448 11.834-5.926 14.162-13.434 2.087 1.318 3.647 3.501 4.68 6.55 7.643-9.086 9.193-19.982 4.648-32.688Zm-54.24 43.44c-3.054.149-3.232 5.763-1.868 9.518 1.364 3.754 2.973 8.027 8.264 16.073-.104-.636-4.689-13.434-1.598-19.815-1.163-3.95-2.762-5.875-4.798-5.776Zm19.256 0c-2.036-.1-3.635 1.826-4.798 5.776 3.09 6.38-1.494 19.179-1.598 19.815 5.29-8.046 6.9-12.319 8.264-16.073 1.364-3.755 1.186-9.37-1.868-9.518Z" fill="#000" fill-rule="nonzero"/></svg>
