<svg xmlns="http://www.w3.org/2000/svg" viewBox="0 0 848 1024"><path d="M843.868 836.2c-10.824-21.627-43.254-21.627-64.811-27.039-21.627-5.393-32.432-16.215-248.593-297.17 216.161-280.955 226.966-291.76 248.593-297.172 21.557-5.393 53.987-5.393 64.811-27.02h-270.15c0 10.805 0 21.627-8.18 40.468-8.037 18.913-24.252 45.95-143.174 197.233-118.798-151.282-135.013-178.319-143.121-197.233-8.107-18.842-8.107-29.664-8.107-40.468H.931c10.805 21.627 43.237 21.627 64.864 27.02 21.555 5.412 32.432 16.217 248.523 297.172C98.227 792.946 87.35 803.768 65.795 809.161 44.168 814.573 11.736 814.573.931 836.2h270.205c0-10.822 0-21.627 8.107-40.54 8.108-18.93 24.323-45.879 143.121-197.25 118.922 151.371 135.137 178.319 143.174 197.25 8.18 18.913 8.18 29.718 8.18 40.54h270.15z"/></svg>