<svg xmlns="http://www.w3.org/2000/svg" viewBox="0 0 583 344"><g fill="#000" fill-rule="evenodd"><path d="M220.672 54.32c-17.56 4.232-34.168 4.232-49.823 0-23.481-6.346-25.18-32.91-16.886-41.232C75.427 22.146 24.283 66.208.531 145.272c26.31-27.333 61.435-40.999 105.377-40.999h64.812l49.952-49.952M153.963 333C75.427 323.942 24.283 279.88.531 200.816c26.31 27.333 61.435 41 105.377 41h64.812l49.952 49.951c-17.56-4.23-34.168-4.23-49.823 0-23.481 6.347-25.18 32.91-16.886 41.233M291.472 0L443.78 158.295l30.826 13.467-30.826 13.468-152.307 158.295-.414.328-152.306-158.295-30.829-13.468 30.829-13.467L291.058.328l.414-.328zm-.207 83.02l-88.907 88.907 88.907 88.907 88.908-88.907-88.908-88.908zM361.858 53.993c17.561 4.23 34.169 4.23 49.823 0 23.482-6.347 25.18-32.91 16.886-41.233 78.87 8.724 129.68 53.12 153.433 132.184m0 0c-26.31-27.333-61.436-41-105.378-41h-64.811l-49.953-49.951M361.858 291.44c17.561-4.232 34.169-4.232 49.823 0 23.482 6.346 25.18 32.91 16.886 41.232 78.537-9.058 129.68-53.12 153.433-132.184-26.31 27.333-61.436 40.999-105.378 40.999h-64.811l-49.953 49.952"/></g></svg>
