<svg xmlns="http://www.w3.org/2000/svg" viewBox="0 0 748 1024"><path d="M370.62-9.118c.238-1.704 1.386-3.706 3.35-3.682 2.38-.046 3.35 2.57 3.588 4.534 23.378 143.756 46.828 287.514 70.244 431.27a662.79 662.79 0 0 1 38.638 5.35c24.812-104.206 46.332-209.314 60.88-315.484-.118-4.464 6.678-6.074 7.174-1.018 22.018 119.89 43.966 239.794 65.96 359.686a342.16 342.16 0 0 1 24.126 14.206c19.472-73.844 38.992-147.7 58.454-221.542.768-1.706 3.078-2.356 4.438-.852 1.374 1.514 1.41 3.668 1.728 5.586 12.514 113.05 25.204 226.088 37.704 339.15-46.274 24.964-90.452 53.932-131.304 87.066 27.558 22.716 48.642 53.458 58.62 87.846 12.856 43.894 9.104 93.02-12.726 133.494-16.134 30.316-42.224 54.878-72.754 70.422-37.548 19.272-80.554 25.676-122.4 24.042-53.838-2.438-108.162-21.994-147.118-60.052H33.164a72027.05 72027.05 0 0 0-26.586-52.69C58.64 841.216 110.31 783.448 153.862 719.536c-45.504-43.918-97.128-81.43-152.766-111.462 12.584-113.464 25.25-226.916 37.88-340.368-.236-2.794 2.628-7.092 5.482-4.286 1.562 2.498 1.656 5.6 2.51 8.382 18.81 71.274 37.632 142.548 56.43 213.834 7.884-5.136 16.016-9.884 24.326-14.312 21.958-119.796 43.822-239.616 65.77-359.426a4.22 4.22 0 0 1 2.912-3.468c2.402.024 3.882 2.25 4.262 4.392 15.992 105.934 37.632 210.946 60.998 315.474a656.317 656.317 0 0 1 38.544-5.304c23.474-144.04 46.912-288.082 70.41-432.11zM179.052 484.714c-33.158 7.504-64.278 23.094-91.138 43.822-17.33 13.684-33.524 29.712-43.67 49.564 35.23 18.906 67.972 42.036 99.686 66.28a677.902 677.902 0 0 0 8.18-8.086c-5.79-20.976-8.31-43.834-1.374-64.846 4.048-12.536 12.584-24.15 24.87-29.558 15.816-6.926 34.886-5.056 49.578 3.81 12.842 7.612 21.402 21.25 24.076 35.798 3.362 18.076.45 36.744-4.71 54.192-7.434 24.35-19.734 46.89-33.264 68.34-21.84 34.234-47.22 66.03-73.192 97.186-30.412 36.294-62.09 71.5-93.862 106.598 1.598 3.196 3.208 6.38 4.83 9.578 89.896.01 179.802.01 269.698-.012 23.06-36.97 46.142-73.916 69.202-110.884-4.024.224-8.168-.58-12.098.366-18.04 7.15-35.892 14.858-53.992 21.83-47.516.32-95.068.058-142.584.13 37.514-40.474 79.584-76.342 121.372-112.256 15.968-13.97 31.878-28.34 44.356-45.622 10.074-13.874 17.294-29.914 20.194-46.854 3.622-21.272 2.214-43.646-5.634-63.852-7.186-18.61-19.804-34.992-35.656-47.056-19.164-14.772-42.318-23.662-65.946-28.208-25.972-4.712-53.022-6.192-78.922-.26zm415.158 50.842c-66.564 0-133.114-.012-199.666 0-8.594 78.376-17.2 156.754-25.794 235.12 39.182-.226 79.194 2.924 116.104 16.986 20.55 7.968 40.342 19.864 53.79 37.668 10.228 13.376 15.91 30.376 14.596 47.256-.758 15.578-6.996 31.5-19.462 41.384-14.146 11.446-33.286 14.324-50.972 12.962-18.61-1.314-37.17-9.352-49.138-23.972-13.046-15.506-17.626-36.436-16.904-56.31-3.552-1.184-7.104-2.356-10.654-3.528a76809.347 76809.347 0 0 0-54.962 83.36c17.128 17.13 38.224 30.056 60.928 38.39 40.248 14.796 84.804 16.336 126.508 7.126 35.194-7.872 69.002-26.896 89.588-57.128 27.072-38.864 30.02-91.778 11.152-134.712-13.874-32.046-40.38-57.414-71.098-73.37-40.852-21.368-87.468-28.742-133.102-30.032 1.81-17.52 3.634-35.04 5.446-52.56 67.272-.012 134.558 0 201.83-.012-5.408-39.632-10.806-79.264-16.24-118.886-3.73-.01-7.458-.01-11.176-.01-6.936 10.084-13.838 20.182-20.774 30.268z"/></svg>
