<svg viewBox="0 0 548 547" xmlns="http://www.w3.org/2000/svg"><path d="M547.074 333.14c-53.39 54.363-100.539 102.166-141.445 143.41 6.674 36.985 18.86 60.31 36.555 69.973H116.578c17.573-15.963 28.32-36.524 32.238-61.683L.465 333.14 274.77.239l272.304 332.903zM247.93 258.185c-4.532 109.026 5.581 178.669 30.338 208.93 37.642-49.09 30.337-168.286 30.337-208.93-15.976-4.86-36.201-4.86-60.675 0zm-96.41-9.45c10.757-13.011 33.113-19.894 33.113-19.894 7.268-31.706 25.668-51.216 55.199-58.531 6.036 25.851 9.055 40.777 9.055 44.777 18.924-4 38.633-4 59.125 0 2.523-23.813 5.58-38.738 9.168-44.777 31.715 5.824 53.57 38.91 53.57 58.53 9.909 3.303 21.307 9.934 34.195 19.895v129.594l77.688-78.21L273.03 42.843 63.321 300.117l88.199 87.211V248.734z" fill="#000" fill-rule="evenodd"/></svg>
