<svg xmlns="http://www.w3.org/2000/svg" version="1.0" viewBox="0 0 1600 1600"><path d="M787 98.3c-6.2 9.4-12.1 18.4-13.1 19.9-1.1 1.5-1.9 2.9-1.9 3.1 0 .2-3.6 6.5-7.9 13.9-8.2 14-24.8 47.1-31.9 63.8-7.3 17-17.2 45.3-20.2 58-.5 1.9-1.4 5.3-2 7.5-.6 2.2-1.5 6.5-2.1 9.5l-2 10c-1.6 7.6-2.8 17.8-4.1 33.4-1.2 15.2-.9 17.5 3.2 28.1 2.4 6.2 8.3 26.3 11.1 37.7.5 2.1 1.4 5.7 2 8 4 16.4 8.3 41.6 9.6 56.3.6 7.3 1.8 10.1 3.7 8.7 1.7-1.3 26.4-8.9 33.1-10.2 3.3-.6 7.7-1.6 9.7-2.1 4.8-1.2 45.8-1.2 50.6 0 2 .5 6.4 1.5 9.7 2.1 6.7 1.3 31.4 8.9 33.1 10.2 2 1.4 3.1-1.4 3.8-9.2.3-4.1 1-10.2 1.5-13.5 2-13.3 3.2-20.2 4.1-24.5.6-2.5 1.4-6.8 2-9.5.5-2.8 2.3-10.4 4-17 1.8-6.6 3.5-13.6 4-15.5.7-3.5 1.4-5.6 3-9.5.4-1.1 2.5-7.3 4.5-13.7 3.7-11.5 3.7-11.9 3.1-23-1.3-22.7-4.6-40.6-13.1-72.3-3.1-11.6-12.6-37.8-18.5-51-.9-2.2-3-6.9-4.6-10.5-3.9-9.1-22.1-44.7-24.4-48-1.1-1.6-2-3.1-2-3.4 0-.3-1.8-3.5-4-7.1-2.2-3.6-4-6.8-4-7.1 0-.2-.8-1.7-1.9-3.2-1-1.5-6.6-10-12.4-18.9-5.8-8.9-11.4-16.6-12.5-17.2-1.8-.9-3 .6-13.2 16.2zM501.6 129.8c-.9 1.5-5.6 16.6-5.6 18.2 0 .8-.9 4.4-1.9 8-3.1 10.6-5.4 20.2-6.1 25.5-.4 2.7-1.5 8.6-2.3 13-6 30.1-8.2 55.3-8.2 91 .1 33.2 1.3 46.9 6.7 74 3.3 16.5 12.5 47.5 14.9 49.9.5.6.9 1.6.9 2.3 0 2.1 11.8 25.8 17.4 35.1 10.1 16.6 14 21.9 27.7 37.7 11.1 12.8 22.6 23.4 37.3 34.5 2.6 1.9 6 4.5 7.5 5.7 1.6 1.3 3.3 2.3 3.8 2.3.6 0 1.8.9 2.8 2 1 1.1 2.2 2 2.6 2 .4 0 3.4 1.7 6.6 3.8 3.2 2.2 9.3 5.8 13.5 8l7.6 4.2 1.9-2.5c1-1.3 2.9-4 4.3-6 16.6-23.7 36.7-44.4 57.4-59l6.8-4.9-.6-6c-.4-3.4-1.2-10.2-1.7-15.1-1.4-13.6-3.7-28.7-5.9-38.5-.5-2.5-1.4-6.8-1.9-9.5-.9-4.5-4.4-17.9-8.4-32.5-2.9-10.4-13.5-40-14.8-41.5-.5-.5-.9-1.5-.9-2.2 0-.7-1.3-4.2-3-7.8-1.6-3.6-3-6.8-3-7.1 0-1-14.7-30-17.3-34.2-1.5-2.3-2.7-4.4-2.7-4.7 0-.8-15.9-26.3-18.4-29.7-1.2-1.5-4.3-5.9-7.1-9.8-23.3-33.3-56.6-67.7-91.6-94.7-12.2-9.4-17.5-12.8-18.3-11.5zM1091 132.2c-29.8 20.5-65.3 54.3-91.1 86.8-11.4 14.4-29.9 40.8-29.9 42.6 0 .4-.6 1.5-1.4 2.3-.7.9-2.5 3.6-3.8 6.1-1.4 2.5-3.8 6.7-5.5 9.5-3 5.2-19.3 37.9-19.3 38.9 0 .3-1.3 3.5-3 7.1-1.6 3.6-3 7.1-3 7.8 0 .7-.4 1.7-.9 2.2-.4.6-2.2 5.3-4 10.5-1.8 5.2-3.6 10.3-4.1 11.2-.6 1-1 2.5-1 3.3 0 .8-.4 2.3-.9 3.3-1.3 2.4-5.1 15.4-5.1 17.4 0 .9-.4 1.9-.9 2.2-.5.3-1.1 2.3-1.4 4.3-.3 2.1-1 5.6-1.6 7.8-2.5 9.9-4.8 20.3-6.2 29-.5 3.3-1.4 8.7-2 12-1 6-2.5 19.4-3.5 31.5l-.6 6.6 7.3 5.4c15.3 11.3 26.8 21.7 37.6 34.3 8.7 10.1 21.3 26.3 21.3 27.4 0 .4.9 1.7 2.1 2.9l2.1 2.2 7.4-3.9c4.2-2.2 10.1-5.7 13.2-7.7 3.1-2 6.5-4.1 7.4-4.7.9-.5 4.3-2.9 7.6-5.2 28.8-20.1 51.2-43.4 70.7-73.3 5-7.6 18.2-33.3 20.9-40.5 11.9-32.2 16.4-51.1 20.6-85.5 1.7-14.7 2.3-52.3 1-69-2.5-33.1-3.6-41.5-7.7-62.5-.8-4.4-1.9-10.3-2.3-13-.4-2.8-1.5-7.9-2.4-11.5-1-3.6-2.6-10.1-3.7-14.5-4.7-18.5-7.3-26.5-8.6-26.5-.5 0-2.8 1.5-5.3 3.2z"/><path d="M348 281.7c-22.5 1.3-45.6 4.9-62 9.5-6.6 1.9-7.1 2.4-6.4 6.6.7 4.8 5 22.4 6.8 28.2 4.3 14.2 6.8 21.9 8 25 .7 1.9 2.3 6 3.4 9 8.8 23.8 20 48.3 30.6 66.8 2 3.5 3.6 6.6 3.6 6.8 0 .4 7.4 12.3 16 25.9 2.6 4.1 10.2 14.8 14.4 20.4 7.3 9.6 8 10.5 12.6 16.2 17.6 21.8 39.8 44 61 61 13.4 10.7 26.6 20.5 29.5 21.8 1.2.5 2.7 1.6 3.4 2.5.7.9 1.9 1.6 2.6 1.6.6 0 2 .9 3 2s2.2 2 2.6 2c.4 0 2.8 1.3 5.2 3 2.5 1.6 4.8 3 5.2 3 .3 0 2.5 1.3 4.8 2.8 4.1 2.8 44.5 23.2 45.9 23.2.4 0 3.2 1.1 6.2 2.5s5.8 2.5 6.1 2.5c.4 0 2.1.6 3.8 1.4 6.5 2.8 15.9 6.2 28.3 10l4.2 1.3 4.3-13.1c5-15.3 9.5-26.8 15-38.4 2.8-6 3.6-8.8 3-10-.5-.9-3.6-3-6.8-4.6-3.2-1.6-6.5-3.5-7.3-4.2-.8-.6-3.1-2-5-3.1-1.9-1-6.2-3.6-9.5-5.8-27.4-18.1-52.4-41.4-74-69.1-3.4-4.3-15.5-22.3-15.5-22.9 0-.3-1.7-3.3-3.8-6.7-3.7-6.1-15.2-29-15.2-30.3 0-.4-.6-2.1-1.4-3.8-2.9-6.4-7.6-19.2-7.6-20.9 0-.9-.4-1.9-.9-2.2-.5-.3-1.1-1.8-1.4-3.3-.3-1.6-1-4.4-1.5-6.3-.6-1.9-1.8-6.4-2.7-10-.9-3.6-2-8.1-2.5-10-3.9-15.4-7.8-46.4-9.3-72.5-.2-4.8-1.5-5.6-15-8.9-24.7-6.2-61.5-10.2-81.7-8.9zM1226.5 282.2c-13.8.6-26.2 1.9-36 3.8-2.7.5-7.5 1.4-10.5 1.9-7.4 1.4-19.4 4.7-22.8 6.3-1.5.7-2.8 2.2-2.9 3.3-.1 1.1-.6 8.7-1.2 17-2 26.6-6.6 54.5-12.1 72.5-.4 1.4-1.8 6.1-3 10.5s-2.6 8.9-3.1 10c-.5 1.1-1.6 4-2.4 6.5-4.4 12.7-14.3 34-20.7 44.7-2.1 3.5-3.8 6.5-3.8 6.7 0 .6-12.5 19.2-15.2 22.5-1.3 1.6-4.5 5.8-7.3 9.3-15.3 19.4-49.5 49.9-68.6 61.3-1 .5-4.3 2.6-7.4 4.5-3.1 1.9-8.7 5.2-12.3 7.2-3.7 2-7.1 4.3-7.6 5-.5.9.4 4 2.7 8.8 1.9 4.1 3.7 8.2 4 9 .3.8 2.2 5.3 4.1 10 2 4.6 3.6 9.1 3.6 10 0 .9.4 2 .8 2.5.5.6 1.9 4.4 3.2 8.5 1.2 4.1 2.8 8.7 3.4 10.1l1.1 2.7 13-4.5c7.2-2.4 13.9-4.7 15-5 1.1-.3 2.5-.9 3-1.3.6-.4 2.1-1.1 3.5-1.5 1.4-.4 4.9-1.8 7.8-3.1 2.9-1.3 5.5-2.4 5.9-2.4 1.3 0 42.1-20.5 46-23.2 2.3-1.5 4.5-2.8 4.8-2.8.4 0 4.1-2.3 8.2-5 4.1-2.8 7.8-5 8.2-5 .4 0 1.6-.9 2.6-2s2.2-2 2.7-2c.6 0 2.2-.9 3.6-2.1 1.5-1.1 6.8-5 11.7-8.7 10.9-8.1 16.9-12.9 25-20.2 3.4-3 9.8-8.8 14.3-12.8 7.4-6.6 26.4-27.2 36.6-39.7 28-34.1 54.5-79.5 71.9-123 11.6-29.1 25.2-75.2 23.2-78.5-.8-1.3-16.6-5.6-28.5-7.8-20.8-3.9-41.3-5.1-64.5-4zM777.5 493c-1.6.5-5.7 1.4-9 2.1-3.3.7-6.4 1.6-6.9 2.1-.6.4-2 .8-3.2.8-1.3 0-2.6.4-2.9 1-.3.5-1.3 1-2.2 1-2.1 0-23.8 10.7-25.3 12.5-.7.8-1.8 1.5-2.5 1.5-.6 0-2 .9-3 2s-2.2 2-2.6 2c-2.1 0-13.5 9.9-24.9 21.7-15.8 16.3-21.5 23.7-32.1 41.3-4.8 8.1-16.9 32.1-16.9 33.7 0 .5-.9 2.8-2 5.1-1.1 2.2-2 4.5-2 5 0 .6-.7 2.3-1.5 3.8-.8 1.6-1.8 4.6-2.1 6.7-.4 2-1.1 4-1.5 4.3-.5.3-.9 1.6-.9 2.9 0 1.3-.4 2.6-.9 2.9-.5.3-1.1 1.8-1.4 3.3-.3 1.6-1.1 4.7-1.6 7-7.8 30.9-9.5 46.4-9.5 85.3 0 32 1 44.9 5.4 67 .6 3 1.4 7.2 1.7 9.3.3 2 .9 4 1.4 4.3.5.3.9 2 .9 3.9s.5 3.7 1 4c.6.3 1 1.4 1 2.5 0 2.4 7.9 26.2 9.1 27.5.5.5.9 1.5.9 2.3 0 2.8 14.4 32.3 20.1 41.2 15.9 24.6 28.8 39.8 44.7 52.5 3.4 2.7 7.7 6.2 9.5 7.6 1.8 1.5 4.8 3.5 6.7 4.6 1.9 1 5.3 3 7.5 4.4 5.4 3.4 17 8.9 18.9 8.9.8 0 1.8.4 2.1 1 .3.5 1.7 1 3 1s2.6.4 2.9.9c.3.5 1.8 1.1 3.3 1.4 1.6.3 4.8 1.1 7.3 1.7 18.1 4.4 40.9 4.4 59 0 2.5-.6 5.7-1.4 7.3-1.7 1.5-.3 3-.9 3.3-1.4.3-.5 1.6-.9 2.9-.9 1.3 0 2.7-.5 3-1 .3-.6 1.3-1 2.1-1 2 0 15-6.2 19.7-9.4 2.1-1.4 4-2.6 4.3-2.6.5 0 4.2-2.6 12.4-8.5s19.7-16.6 25.7-23.7c8.3-9.8 15.3-18.6 15.3-19.3 0-.2 1.8-2.8 4-5.7 2.2-2.9 4-5.6 4-6 0-.4 1.1-2.4 2.6-4.5 1.4-2 3.9-6.4 5.5-9.8 1.7-3.3 3.7-7.1 4.4-8.5 3.2-5.7 9.5-19.9 9.5-21.2 0-.8.4-1.8.9-2.3 1.2-1.3 7.1-19.2 7.1-21.5 0-1.1.4-2.1.9-2.4.5-.3 1.1-1.8 1.4-3.3.3-1.6 1.1-4.8 1.7-7.3 7.7-31.5 9.4-46.1 9.4-84 0-30.7-1-44.1-5.3-65.5-.5-2.8-1.4-7.3-2-10-.5-2.8-1.9-8.4-3.1-12.5-1.2-4.1-2.4-8.7-2.7-10.3-.3-1.5-.9-3-1.4-3.3-.5-.3-.9-1.6-.9-2.9 0-1.3-.4-2.7-1-3-.5-.3-1-1.7-1-3s-.4-2.7-1-3c-.5-.3-1-1.3-1-2.1s-.9-3.4-2-5.6c-1.1-2.3-2-4.5-2-5 0-1.4-12.8-27.3-15.5-31.2-1.4-2-2.5-3.9-2.5-4.2 0-1-8.8-14-10.4-15.3-.9-.7-1.6-1.8-1.6-2.4 0-1.7-6.1-8.5-20.6-23.1-14.5-14.5-21.4-20.6-23.1-20.6-.6 0-1.8-.9-2.8-2-1-1.1-2.2-2-2.6-2-.5 0-2.5-1.1-4.5-2.5-4.9-3.3-21.8-11.5-23.8-11.5-.8 0-1.8-.5-2.1-1-.3-.6-1.6-1-2.9-1-1.2 0-2.6-.4-3.1-.8-.6-.5-3.7-1.4-7-2.1-3.3-.7-7.6-1.7-9.6-2.2-4.4-1.1-39.2-1-43.4.1zM321.5 502.1c-16.4 3.2-35.3 8.3-45 12.2-15.1 6-30 14.3-31.2 17.3-1.1 3 13.7 34.2 26.2 55.2 5.6 9.5 17.2 25.4 26.6 36.7 7.2 8.6 30.4 31.6 38.3 37.9 11.3 9.1 26 19.6 27.4 19.6.4 0 1.3.5 2 1.2 3.6 3.6 33.1 18.5 47.2 23.8 4.7 1.8 9.4 3.6 10.5 4 3.3 1.3 21.6 6.7 26.8 7.9 15.3 3.5 21.4 4.8 30.2 6 3.9.6 10.2 1.5 14 2 10.9 1.6 42.9 2.4 61.4 1.6l16.8-.7.7-8.7c1-13.8 2.5-28.2 3.6-34.1.5-3 1.3-7.9 1.6-10.8.7-5 .6-5.2-1.8-5.2-1.3 0-2.8-.4-3.4-.8-.5-.5-2.9-1.4-5.4-2.2-4.4-1.2-18.4-6.2-22.5-7.9-1.1-.5-5.1-2.1-9-3.6-7.9-3.2-14-5.8-23.6-10.4-3.6-1.7-6.8-3.1-7.1-3.1-.6 0-27.1-14.6-31.8-17.5-2.2-1.4-4.2-2.5-4.5-2.5-.8 0-30.8-20.2-36.9-25-3.2-2.5-7.3-5.6-9.2-7-25.4-19.2-53.9-48.1-81.1-82.3-5.3-6.6-5.1-6.6-20.8-3.6zM1260 500.8c0 1.4-15 19.5-30.7 37.1-15 16.8-38.1 38-58.7 53.8-7.7 5.9-40.3 28.3-41.2 28.3-.2 0-2.1 1.1-4.2 2.3-10.2 6.5-52.2 27.7-54.7 27.7-.2 0-2.9 1.1-5.9 2.5-3 1.4-5.8 2.5-6.1 2.5-.4 0-2.1.6-3.8 1.4-1.8.8-6.1 2.5-9.7 3.7-3.6 1.2-6.9 2.6-7.4 3.1-.6.4-1.8.8-2.8.8-1 0-2.6.4-3.6.9-.9.5-3.9 1.5-6.6 2.2l-4.8 1.2.5 4.6c.3 2.5 1.1 7.7 1.7 11.6 1 6.4 1.7 13.7 3.6 34.6l.7 7.6 11.1.7c14.9.8 35 .7 52.1-.4 12.9-.8 16.8-1.3 34-3.8 6.8-1 20.3-3.8 25.5-5.2 5.9-1.5 24.4-7.2 26.5-8 1.1-.4 5.8-2.2 10.5-4 8.9-3.4 31.3-14 39-18.5 6.1-3.6 23.5-15.2 29-19.3 20.4-15.5 45.2-40.9 60.5-62.2 4.7-6.5 8.5-12.1 8.5-12.5 0-.2 1.7-3 3.9-6.2 7.7-11.6 22.2-40.7 25.9-51.9 1.3-4.2.4-5.5-7.5-10.1-16.8-9.8-41.1-18.3-64.3-22.3-3.6-.6-8.4-1.6-10.7-2.1-5.1-1.1-10.3-1.2-10.3-.1zM308.6 688.3c-6.6 14.7-8.9 19.4-13.5 27-2.7 4.5-6.8 10.7-9.1 13.7-6.4 8.6-21.7 23.6-30.2 29.7-4.3 3-7.8 5.9-7.8 6.4 0 2.8 12.8 22.8 21.6 33.9 6.5 8.2 20.1 21.2 27.9 26.7 5.9 4.1 21 12 27 14.1 8.2 2.9 8.5 2.8 16-4.9 6.6-6.7 19.6-18.3 27-23.9 10.4-8.1 15.2-11.6 16.6-12.5.9-.6 3.6-2.3 6-4 13-8.8 44.8-26.1 56.9-30.9 2.5-1 5.9-2.3 7.5-3.1 1.7-.7 4.5-1.8 6.3-2.5 1.7-.7 3.2-1.8 3.2-2.5 0-1.2-1.8-1.7-11-3.1-1.9-.3-4.4-.9-5.5-1.4-1.1-.4-4.2-1.4-7-2-6.4-1.6-18.4-5-21-6.1-1.1-.4-4-1.5-6.5-2.3-10.4-3.3-13-4.4-34-14.5-12.6-6-21.3-10.7-26.2-14.2-1.4-1-2.8-1.9-3.1-1.9-1.6 0-26.1-17.7-33-23.7-2-1.8-4.2-3.3-4.8-3.3-.5 0-2.1 2.4-3.3 5.3zM1282.8 685.8c-8.5 7.2-22.1 16.8-39.3 27.8-8 5.1-40.9 21.4-43.2 21.4-.4 0-2 .6-3.4 1.4-1.5.7-5.8 2.4-9.5 3.6-3.8 1.3-7.3 2.5-7.9 2.9-1.2.7-10.6 3.3-24 6.7-5.5 1.3-11.6 2.9-13.6 3.4-2 .6-4.6 1-5.7 1-3.1 0-1.7 2.6 2.1 4 1.8.7 5.6 2.3 8.5 3.6 2.9 1.3 5.5 2.4 5.9 2.4 1.3 0 32 15.6 35.9 18.2 2.3 1.5 4.5 2.8 4.9 2.8.3 0 2.6 1.3 5 3 2.4 1.6 4.8 3 5.3 3s1.7.9 2.7 2c1 1.1 2.3 2 3 2 .7 0 2 .9 3 2s2.2 2 2.8 2c.5 0 2.4 1.2 4.2 2.7 1.9 1.6 5.5 4.4 8 6.3 8.9 6.6 18 14.5 28.1 24.3 11 10.6 10.4 10.4 18.9 7.5 4.4-1.5 19.5-8.9 23-11.3 19.5-13.2 38-34.1 50.7-57.2 1.5-2.8 2.8-5.6 2.8-6.1 0-.6-3.5-3.5-7.8-6.5-10.4-7.3-25-22.1-32.9-33.4-6.4-9.2-14.6-24.3-19.5-36.1-1.5-3.4-3.1-6.2-3.7-6.2-.6 0-2.5 1.3-4.3 2.8zM567.5 761.6c-1.1.2-4.5.9-7.5 1.5s-9.1 1.9-13.5 2.9-9.1 2.1-10.5 2.4c-1.4.2-7.4 1.9-13.5 3.6-6 1.8-12.2 3.4-13.8 3.7-1.5.3-3 .9-3.3 1.4-.3.5-1.6.9-2.9.9-1.3 0-2.7.4-3 1-.3.5-1.6 1-2.9 1-1.2 0-2.6.3-2.9.7-.6.5-14 5.5-19.2 7-1.1.4-3.5 1.5-5.3 2.5-1.8 1-3.7 1.8-4.3 1.8-1.6 0-33.5 15.8-40.8 20.2-3.4 2.1-6.6 3.8-7 3.8-.5 0-1.6.9-2.6 2s-2.2 2-2.7 2c-1 0-13 8.2-19.5 13.2-2.3 1.8-6.5 5.1-9.5 7.4-7 5.4-28.8 27.2-34.1 34.1-10.3 13.4-17.8 25-20.8 32.1-6.3 15.2-10.7 35.2-12.9 58.7-2.8 29.6-8 44.6-21.7 62.7-2.4 3.1-4.3 6.3-4.3 7.2 0 .9 1.9 2.5 4.3 3.7 12.5 6.5 43.1 17.7 54.2 20 19.5 4.1 33.9 5.1 41.6 2.8 3.3-1 4-1.8 6-6.8 16.2-41.2 45-75.8 86.4-103.7 17.7-11.9 39.6-24 57-31.4 4.4-1.8 8.4-3.7 8.9-4.2.6-.4 1.6-.8 2.3-.8.7 0 3.2-.9 5.6-1.9 2.3-1.1 7.1-3 10.7-4.2 3.6-1.2 6.9-2.6 7.4-3.1.6-.4 2-.8 3.2-.8 1.3 0 2.6-.5 2.9-1 .3-.6 1.4-1 2.3-1 3 0 22.6-6.7 23-7.8.2-.6-.6-3-1.7-5.3-1.2-2.4-2.1-4.6-2.1-5.1s-.9-2.7-1.9-5.1c-1.1-2.3-2.9-6.9-4-10.2-1.2-3.3-2.5-6.9-3-8-.5-1.1-1.9-5.6-3.1-10-1.2-4.4-2.6-9.1-3-10.5-2.4-7.9-6.5-26.2-8-36-.6-4.1-1.5-9.9-2.1-12.9-.5-3-.9-7-.9-9s-.5-7.8-1.2-12.9c-1.3-9.6-1.3-9.6-6.3-8.6zM1025.6 764.5c-.4 1.9-1.1 8.8-1.7 15.2-1.2 15.1-3.1 28.1-5.8 39.8-.5 2.2-1.4 6.2-2 9-3.7 16.9-18 59.3-21.2 63-.5.5-.9 1.9-.9 3.2 0 1.6.6 2.3 2 2.3 1.1 0 2.8.4 3.8.9.9.5 5.3 1.9 9.7 3.1 4.4 1.2 8.9 2.6 10 3.1 1.1.4 6.1 2.2 11 3.9 5 1.8 10.9 4 13.2 5.1 2.4 1 4.7 1.9 5.3 1.9.5 0 2.4.8 4.2 1.8 1.8 1 4.9 2.4 6.8 3.2 6.3 2.4 24.4 11.3 30.8 15.2 3.4 2.1 6.5 3.8 6.7 3.8.9 0 21.6 13.5 28.5 18.5 35.2 25.7 61.6 58.1 75.8 93 1.1 2.7 2.4 6.2 3 7.6 1.4 3.5 6.7 4.9 18.3 4.9 8.3 0 13.4-.7 29.4-4 3.8-.8 24.9-7.8 34.3-11.4 10.8-4.1 23.2-10.5 23.2-12.1 0-.8-2.2-4.4-4.9-7.8-9.9-12.8-16.5-28.1-19-44.2-2-13-3.1-22.6-3.1-26.8 0-5.6-4.1-26-7.3-36.2-6-19.2-8.1-23.1-25.3-45.6-4.8-6.4-27.5-28.9-35.3-35.1-6.7-5.3-14.2-11-16.3-12.3-.9-.6-3.7-2.5-6.2-4.3-2.6-1.7-4.9-3.2-5.1-3.2-.2 0-3.1-1.8-6.5-4.1-6.2-4.1-31.8-17.4-42-21.8-3-1.3-7.4-3.2-9.7-4.2-2.4-1.1-4.9-1.9-5.6-1.9-.7 0-1.7-.4-2.2-.9-.6-.5-3-1.6-5.5-2.4-2.5-.8-6.3-2.2-8.5-3-2.2-.8-5.8-2-8-2.6-2.2-.7-4.9-1.6-6-2-5.7-2.3-20.4-6.3-40.5-11-8.6-2-24.3-5.1-25.9-5.1-.5 0-1.2 1.6-1.5 3.5z"/><path d="M617 927c-1.4.5-5.9 1.8-10 3.1-10.5 3-25.1 7.8-27.5 8.8-1.1.5-4.7 1.9-8 3.1-3.3 1.2-7.9 3.1-10.2 4.1-2.4 1.1-4.5 1.9-4.9 1.9-1.3 0-34.5 16.7-41.4 20.9-20.9 12.6-36.9 25.1-52 40.8-13.2 13.6-20 22.5-26.3 34.3-12.4 23.1-16.8 37.3-19.8 64.8-2.3 20.8 1.9 50.7 10.9 78.2 3.9 12 4.8 15 8.9 31 3.6 13.9 4.9 19.5 6.3 28 .6 3.6 1.5 8.5 2 11 1.1 5.4 2.9 21.5 3.3 28.5.2 5.8 2 6.8 7.2 4.2 7.6-3.9 22.4-9.5 33-12.5 28.5-8.1 56-9.8 80.3-5.1 3 .6 5.6.9 5.8.6.3-.3 1.2-4.5 2-9.3 3-18 3.4-20 4.4-24.4.5-2.5 1.4-6.8 2-9.5.5-2.8 1.4-6.8 2-9 .6-2.2 1.5-5.6 2-7.5 4-16.1 15.2-50.9 19.6-60.7.8-1.7 1.4-3.5 1.4-4 .1-.4.9-2.6 2-4.8 1.1-2.2 1.9-4.4 2-4.8 0-.5 1.1-3.3 2.5-6.3s2.5-5.7 2.5-6c0-.2 1.8-4.2 4-8.9s4-8.8 4-9.1c0-1 16-33.3 18.5-37.4 1.2-1.9 4-6.9 6.1-11 6-11.4 17.7-30.9 28.7-47.7 3.7-5.6 6.7-11.2 6.7-12.2 0-1.2-2.3-3.7-5.7-6.5-6.9-5.3-27.9-26.6-34.9-35.2-6.6-8.1-14.1-18.7-18.3-25.4-3.1-5.1-4.9-7.1-6.1-6.9-.3.1-1.6.5-3 .9zM977.4 926.8c-.6.4-3.8 4.7-7 9.7-11.9 17.8-16.3 23.3-31.9 39.4-6.6 6.8-15 14.8-18.7 17.8-3.8 2.9-6.8 5.8-6.8 6.3s2.4 4.5 5.3 8.8c5.8 8.7 6.3 9.5 10.7 16.7 1.7 2.7 3.6 5.9 4.3 7 4.3 6.9 6.4 10.5 8.5 14.5 1.3 2.5 3.1 5.6 4 7 2.3 3.5 15.3 28.5 21.3 41 8.1 16.6 12.9 26.9 12.9 27.5 0 .3.9 2.4 1.9 4.8 4.3 9.5 10.1 23.8 10.1 24.8 0 .5.9 2.9 2 5.1 1.1 2.3 2 4.9 2 5.8 0 .9.4 2 .8 2.6.5.5 2.8 7 5.1 14.4 2.4 7.4 4.7 14.4 5.1 15.5.5 1.1 1.1 3.1 1.3 4.5.3 1.4 2.1 8.8 4 16.5 5 20.2 9.7 42.8 9.7 47.1 0 1 .5 3.6 1.1 5.8 1 3.6 1.2 3.8 4.2 3.2 1.8-.3 9.3-1.2 16.7-2.1 11.1-1.3 15.7-1.4 26-.5 25.7 2.3 50.3 8.9 73.4 19.6 6.6 3.1 7.6 2.2 7.6-7 0-3.9.7-11.4 1.6-16.6.9-5.2 2-12 2.4-15 .5-3 1.4-8 2-11 .7-3 1.6-7.4 2.1-9.7.7-3.7 3.5-14.3 7.4-28.3.7-2.5 2.8-9.2 4.7-15 6.9-20.8 11.7-48.1 11.8-65.7 0-13.9-4.7-40.9-9-51.8-.4-1.1-1.4-3.6-2.1-5.5-2.1-5.8-12.9-26.2-16.2-30.8-9.1-12.2-11.8-15.5-20.6-24.5-8.7-8.9-18.3-17.4-26.6-23.4-5.6-4-22.4-15.3-22.9-15.3-.2 0-3.3-1.7-6.7-3.8-7.1-4.3-35.2-18.2-36.7-18.2-.6 0-2.7-.9-4.9-1.9-2.1-1.1-6.5-2.9-9.8-4.1-3.3-1.2-8.2-3-10.9-4.1-2.7-1-5.7-1.9-6.7-1.9s-2-.4-2.3-.9c-.3-.4-2.7-1.4-5.3-2.1-2.7-.7-6.8-1.9-9.3-2.8-2.5-.8-6.1-1.8-8-2.2-1.9-.4-4.2-1-5-1.4-.8-.3-2-.2-2.6.2zM705.8 1029.3c-4 6.2-7.8 12.2-8.5 13.2-10.1 16.4-17.3 28.4-17.3 29.1 0 .3-.8 1.8-1.9 3.2-2.2 3.1-20.1 38.4-24.8 48.7-6.3 13.9-9 20.1-10.3 23.5-.7 1.9-1.7 3.9-2.2 4.5-.4.5-.8 1.5-.8 2.2 0 .7-.9 3.2-1.9 5.6-2.3 5.2-4.8 11.8-6.7 17.7-.8 2.5-1.9 5.4-2.3 6.5-2.3 5.3-8.8 27.2-12.5 42-1.9 7.8-4.6 20-5.5 25-.6 3.3-1.3 7.3-1.6 9-2.3 12.3-4.5 33.9-5.1 52.9-.6 16-.2 24 2.7 46.1 5.1 40.3 20 77.8 45.4 114.3 5 7.3 25 30.7 27.8 32.7 3.2 2.2 4.3 1.9 5.8-1.8 2.4-6 10.8-19.9 16.6-27.4 11.1-14.5 27.4-27.8 45.1-36.9 7.5-3.8 18.2-15.3 25.3-27.4 2.9-4.8 5.9-13.6 7.9-22.9 2-9.3 2-13.2 2-180.2v-170.7l-5.2-.6c-18.6-2.1-36.6-7.3-54.3-15.5-4.8-2.3-9.1-4.1-9.5-4.1-.5 0-4.1 5.1-8.2 11.3zM875.1 1022.1c-7.7 3.7-24.7 9.9-33.1 12.1-4.1 1.1-13.3 2.6-20.7 3.4l-5.3.6v171.7c0 179-.1 172.5 3.8 188.3 2.7 10.8 11.9 25.2 21.7 34 3.8 3.4 14.8 10.8 16 10.8 1.2 0 9.5 5.8 18.2 12.7 13.8 11.1 25 25 34.4 43.1 2.4 4.5 4.8 8.2 5.4 8.2 1.2 0 12.1-11.1 18.7-19 13.8-16.7 22.9-30.6 32.8-50.1 4.4-8.8 8-16.4 8-16.9 0-.6.9-2.9 1.9-5.3 5.7-12.8 12.6-39.8 15-59.2 2.8-22.2 3.4-36.6 2.2-53.3-.6-9.2-1.6-19.9-2.1-23.7-.5-3.9-1.2-9.3-1.5-12-.3-2.8-1-7.3-1.5-10-.6-2.8-1.4-7.3-1.9-10-1.7-9-4.2-19.9-6.2-27-1.1-3.9-2.5-8.8-3.1-11-.5-2.2-1.4-4.8-1.9-5.7-.5-1-.9-2.4-.9-3.1 0-2.6-13.6-41.5-15.1-43.2-.5-.5-.9-1.5-.9-2.2 0-.7-1-3.6-2.3-6.5-1.3-2.9-3.2-7.3-4.2-9.8-1.1-2.5-2.7-6-3.7-7.8-1-1.8-1.8-3.7-1.8-4.3 0-1.2-20.7-42.8-22.2-44.6-.5-.7-2.6-4.3-4.5-8-2-3.7-4.4-8-5.4-9.5-1.1-1.4-1.9-2.9-1.9-3.3 0-.4-1.3-2.7-3-5.2-1.6-2.4-3-4.6-3-4.9 0-.3-1.5-2.9-3.4-5.7-1.8-2.9-5.9-9.3-9.1-14.2-5.7-8.9-9.3-13.5-10.4-13.5-.3.1-4.4 1.9-9 4.1z"/></svg>
