<svg xmlns="http://www.w3.org/2000/svg" viewBox="0 0 780 1024"><path d="M269.216 83.521v.654c16.374 63.786 50.606 105.216 107.79 136.984.978 254.404 2.934 507.584 0 761.986-50.098-47.41-101.906-95.162-151.516-143.062-1.222-159.824 10.532-290.124-18.33-474.51-13.746-87.824-72.412-192.698-73.472-191.7V83.521h135.528zm377.094 0H510.782l.002.656c-16.374 63.782-50.604 105.212-107.79 136.982-.978 254.402-2.932 507.582 0 761.984 50.098-47.41 101.908-95.162 151.516-143.06 1.222-159.826-10.53-290.126 18.33-474.51 13.746-87.826 72.414-192.7 73.47-191.7V83.521zM117.044 211.305L3.656 272.477l-3.12 2.182c15.702 52.73 26.182 90.208 37.398 141.034 13.546 61.376 19.91 134.542 15.632 198.172 42.768 54.01 93.092 101.16 141.234 150.036-1.422-111.508-3.452-215.764-13.79-326.662-5.366-80.422-28.834-149.562-63.966-225.934zm659.3 61.17l-113.388-61.17c-35.13 76.37-58.6 145.51-63.966 225.934-10.338 110.896-12.368 215.152-13.79 326.66 48.142-48.876 98.466-96.026 141.234-150.034-4.278-63.632 2.088-136.798 15.632-198.174 11.216-50.826 21.698-88.304 37.398-141.034l-3.12-2.182z"/></svg>