<svg xmlns="http://www.w3.org/2000/svg" viewBox="0 0 844 1024"><path d="M302.022 103.893c37.104-29.728 85.23-45.356 132.734-42.36 50.754 2.712 98.992 27.298 133.666 64.006 24.388 25.292 41.57 56.548 53.666 89.328 51.516-9.89 103.032-19.894 154.55-29.784-17.068 41.4-34.082 82.8-51.292 124.142-102.892-66.606-205.7-133.412-308.676-199.934-95.686 66.07-191.486 132.028-287.258 198.042-17.012-40.128-33.938-80.258-50.922-120.386 49.594 7.772 99.162 15.712 148.756 23.456 15.486-40.976 40.016-79.268 74.776-106.51zm86.332 186.004c45.498-6.812 93.114-.396 134.656 19.554 48.464 23.088 88.282 63.048 112.698 110.722 25.038 48.38 33.374 104.7 26.084 158.506-7.744 56.802-34.674 110.974-76.102 150.68-32.98 31.792-75.228 54.06-120.33 62.368-50.782 9.326-104.814 1.78-150.452-22.608-59.12-31.17-103.656-87.632-122.166-151.64-12.378-43.292-14.044-89.724-4.436-133.724 11.698-53.72 40.806-103.712 82.63-139.544 33.12-28.486 74.18-47.814 117.418-54.314zm-249.192 61.634c.594 127.054.764 254.136 1.158 381.218 94.98 62.482 189.988 124.964 284.94 187.53 94.048-63.98 188.01-128.1 281.972-192.192-.536-127.14-.678-254.25-1.27-381.39-96.196-62.312-192.334-124.652-288.558-186.936a825533.92 825533.92 0 0 0-278.242 191.77zM16.064 444.843c-22.438 60.786-21.166 129.936 3.504 189.846 16.56 40.524 44.736 76.132 80.54 101.338a238818.02 238818.02 0 0 1-1.188-400.604c-38.092 26.704-67.002 65.758-82.856 109.42zm730.308-105.352c.424 132.368.82 264.734 1.046 397.102 36.652-26.648 64.628-64.602 80.2-107.104 22.636-60.644 21.702-129.794-3.052-189.648-16.136-39.874-43.436-75.028-78.194-100.35zm-352.79 17.86c-69.01 10.994-125.642 68.19-141.496 135.42-11.5 46.346-6.216 96.93 16.306 139.206 20.234 38.63 54.512 70.082 95.546 85.342 46.034 17.408 99.614 13.424 142.512-10.682 41.032-22.664 71.778-62.282 85.314-106.99 13.17-43.914 11.134-92.492-7.036-134.712-16.164-38.094-45.214-70.818-81.896-90.204-33.12-17.804-72.23-23.964-109.25-17.38zM73.232 885.943L223.8 857.007c12.716 31.988 29.87 62.678 54.286 87.264 34.306 35.466 81.754 58.412 131.236 60.87 48.832 3.052 98.202-13.676 135.674-44.988 32.158-26.112 54.964-61.888 70.394-99.982 50.048 7.942 100.066 15.966 150.142 23.908-16.024-37.388-31.962-74.802-48.012-112.19-97.298 66.212-194.482 132.592-291.75 198.834-101.34-66.694-202.706-133.328-304.016-200.106-16.164 38.462-32.356 76.866-48.522 115.326z"/></svg>