<svg xmlns="http://www.w3.org/2000/svg" viewBox="0 0 1024 1024"><path d="M384.58 685.524L512 812.946 636.956 687.99l104.938 104.938L512 1022.82 279.642 790.462 384.58 685.524zm405.882-405.882L685.524 384.58 812.946 512 687.99 636.956l104.938 104.938L1022.82 512 790.462 279.642zm-559.39 2.466L1.18 512l227.426 227.428L333.544 634.49 211.054 512 336.01 387.044 231.072 282.108zm279.696 6.902L287.776 512.002l222.992 222.99 222.99-222.99-222.99-222.992zM512 1.182c-5.612.558-229.892 229.892-229.892 229.892l104.936 104.938L512 211.056l122.49 122.49 104.938-104.938S517.612.624 512 1.182z"/></svg>