<svg xmlns="http://www.w3.org/2000/svg" viewBox="0 0 880 1024"><path d="M232.282 581.742C224.1 603.558 123.2 720.822 104.11 723.55c-19.09 2.726-87.266-38.18-100.902-70.904-13.636-32.726 40.69-377.1 51.814-409.062s39.538-55.14 62.722-70.904C140.93 156.916 499.536 60.87 524.08 63.598c19.164 2.128 84.538 65.45 81.812 79.084-2.728 13.636-109.084 149.99-125.446 155.444s-81.812-13.636-188.168 89.994c-82.914 80.788-51.814 171.806-59.996 193.622zM647.64 442.714c-8.216 21.804 22.742 112.872-60.3 193.528-106.518 103.462-171.938 84.27-188.308 89.698-16.372 5.43-122.942 141.616-125.69 155.248-2.748 13.63 62.526 77.054 81.688 79.212 24.54 2.766 383.296-92.716 406.506-108.444s51.66-38.862 62.834-70.806c11.174-31.944 66.04-376.234 52.456-408.98s-81.698-73.758-100.79-71.062c-19.094 2.698-120.18 119.804-128.396 141.606zM492.288 553.286C698.91 318.196 844.838 108.658 818.23 85.272s-215.678 148.234-422.3 383.326C189.308 703.688 43.378 913.226 69.988 936.612 96.596 960 285.666 788.378 492.288 553.286z"/></svg>