<svg xmlns="http://www.w3.org/2000/svg" viewBox="0 0 1024 1024"><path d="M773.949 699.952s-38.939-25.206-116.736-36.782c0 0-32.403 66.961-145.161 67.195-112.843-.234-145.266-67.195-145.266-67.195-77.775 11.576-116.63 36.782-116.63 36.782S349.264 830.15 512.053 830.15c162.683 0 261.897-130.198 261.897-130.198zm249.158-21.586c0 111.869-207.423 141.879-302.573 147.572 0 0 162.937-71.914 162.937-136.482 0-58.284-196.419-110.623-375.313-112.845-178.809 2.222-367.544 54.56-367.544 112.845 0 64.568 162.852 136.482 162.852 136.482C208.316 820.245.893 790.235.893 678.366c0-158.727 253.962-257.749 507.266-257.749 253.474 0 514.949 99.023 514.949 257.749zM874.793 424.574s11.006-171.699-160.778-280.501c0 0 62.983 85.163 77.204 241.157 0 0 44.146 18.836 83.574 39.344zm-642.012-39.343c14.222-155.994 77.225-241.157 77.225-241.157-171.72 108.802-160.715 280.501-160.715 280.501 39.427-20.507 83.49-39.344 83.49-39.344z"/></svg>