<svg xmlns="http://www.w3.org/2000/svg" viewBox="0 0 848 1024"><path d="M357.32 276.065c3.504-63.811 33.678-116.567 62.713-169.795 34.132 52.057 53.688 107.738 61.549 166.33 78.457-34.089 103.06-113.201 36.284-198.252 118.811-6.089 253.814 111.85 299.341 252.539 50.258 155.315.608 295.146 23.226 423.91l-105.68-41.583c-29.295 69.593-86.886 154.329-148.733 202.161 21.023-71.397 10.646-168.143-12.692-235.658 103.219-115.763 20.215-274.942-93.245-296.911l-.823 541.786c-.063 42.206-115.622 40.704-115.992-1.015l-4.785-540.713c-101.04 31.652-190.814 149.76-90.583 296.852-22.782 61.713-31.21 154.39-15.836 226.278-53.692-40.753-109.075-117.864-144.428-190.471L10.085 749.64c18.377-124.025-37.178-270.862 10.453-412.36C88.984 133.941 227.465 67.005 327.127 72.769c-78.177 87.226-31.544 172.561 30.194 203.293z"/></svg>