<svg xmlns="http://www.w3.org/2000/svg" viewBox="0 0 1024 1024"><path d="M157.482 334.774c67.272-89.54 160.988-153.332 264.214-194.854l4.408 68.664c87.684-9.28 181.4-5.336 248.904 58.688-15.774 35.028-49.41 65.416-49.178 106.01 12.294 49.41 66.11 61.24 106.242 79.334a4001.046 4001.046 0 0 0-60.544-64.72c70.054-66.112 112.504-153.332 142.43-243.8C934.35 227.372 1026.906 361.22 1022.73 512c3.944 150.78-88.148 285.092-209.004 367.44-29.694-90.468-72.376-176.992-142.198-243.568 20.644-21.11 40.826-42.682 60.544-64.488-40.132 18.094-93.948 29.924-106.242 79.334 0 40.362 33.404 70.982 49.178 106.01-67.736 64.024-161.22 67.968-248.904 58.688l-4.408 68.664C318.47 842.558 224.754 778.766 157.25 689.226c87.916 36.65 187.2 80.26 282.54 42.218 62.168-17.166 93.948-110.186 32.94-148.926-29.23.928-57.994 5.8-86.294 14.846 22.966 25.982 46.162 51.498 69.824 76.552-50.57 15.078-105.084 36.418-157.508 14.846C188.798 650.486 93.922 580.432 1.134 512c92.788-68.432 187.432-138.486 297.154-176.762 51.266-20.644 105.082-1.392 154.956 13.224-24.358 26.908-44.538 57.064-56.834 91.396 37.116-1.392 84.206 12.526 105.084-28.996 17.166-48.25-14.15-102.996-61.704-118.306-95.34-38.042-194.624 5.568-282.308 42.218zm687.792-113.896C879.836 315.29 928.782 408.542 925.07 512c3.712 103.458-45.234 196.71-79.796 291.122C923.214 726.804 976.336 622.418 975.408 512c1.16-110.418-52.194-214.804-130.134-291.122z"/></svg>