<svg version="1.0" xmlns="http://www.w3.org/2000/svg" viewBox="0 0 856 989"><path d="M290.4 32.7C225 66.4 75.3 144.3 74.7 144.9c-.5.5-.1 5.9.8 12.2 5.4 39.2-3.3 72.4-27.2 103.6-8.9 11.8-23.2 23.8-40.3 33.9-5 3-8 5.4-8 6.5 0 .9 2.9 6.3 6.5 12 13.1 20.9 33.4 63.6 46.7 98.4 13.7 35.5 22.9 67.2 30.7 105.8 9.6 46.8 13.7 76 14.7 104.4l.7 19.3 43.9 35.1c24.1 19.3 44.1 35.6 44.4 36.1.3.5-1.3 4.2-3.6 8.1-17.9 30.4-32 55.8-37.8 67.8-.3.7 21.3 12.9 42.3 23.9 73.7 38.5 169.7 100.4 225.8 145.7 7 5.7 13 10.3 13.2 10.3.3 0 6.4-4.8 13.6-10.6 55.8-45 146.5-103.5 226.4-145.9 25.1-13.3 41.5-22.5 41.5-23.2 0-1.6-26.7-49.5-38.4-68.8-2-3.3-3.6-6.3-3.6-6.6 0-.4 20-16.7 44.3-36.3l44.4-35.6.7-18.2c.4-10 1.4-23.8 2.2-30.7 4.9-42.4 18.7-107.9 30.1-143.5 16-49.8 44.3-112.6 63.4-140.8 2.3-3.4 3.6-6.3 3.3-7.2-.3-.9-4.4-3.8-9-6.6-29.9-17.5-49.4-40.4-60.7-71-7.2-19.5-9.3-40.3-6.3-63.9 1-7.3 1.4-13.7.9-14.2-.4-.4-10.7-6-22.8-12.2C622.3 62.4 555.7 28 554.2 27.8c-1.5-.3-1.7 1-1.9 13.4-.2 17.4-1.6 26.7-5.2 34.3-3.7 7.6-10.5 16.2-16.1 20l-4.3 3-79.6.4c-43.8.2-88.7 0-99.9-.4l-20.2-.7-4.5-3.7c-2.5-2-6.5-6.3-9-9.6-8.1-10.8-10.6-21.2-10.6-43.2 0-7.3-.3-13.5-.8-13.7-.4-.3-5.7 2-11.7 5.1zm-14.9 51.6c4.9 14 15.4 29.1 27.9 39.8 4.5 3.8 10.1 7.9 12.6 9.2l4.5 2.2 105.5.3c92.2.2 106 0 110-1.3 2.5-.8 8.2-4.4 12.5-7.8 13.4-10.6 22.6-22.7 29.6-38.7 2.1-4.7 4.2-8.4 4.7-8.3 1.2.3 163.5 84.4 164.3 85.2.4.3.1 4.6-.7 9.6-7.5 51.5 13.8 100.4 56.9 130.9 5.3 3.7 9.7 7 9.7 7.3 0 .3-2.2 4.4-4.9 9.2-15.3 27.1-36.6 76.1-49 112.3-9.9 29.1-15.5 51.2-23.6 93.5-6.8 35.5-10.3 59.8-11.5 81.1-.9 15.3-1.1 16.8-3.2 18.8-1.3 1.2-9.3 8.4-17.8 16-28.3 25.4-84.7 83-114 116.4-11 12.6-28 33.4-28 34.3 0 2.4 6.9-2.6 40.1-29.3 20.6-16.5 37.9-30 38.5-30 .9 0 9.8 15.8 17.3 30.7l2.1 4.2-2.3 1.6c-1.2.9-10.3 6.7-20.3 12.9-16.1 10-57.6 37.5-161.9 106.9-18.1 12.1-35.9 24.2-39.4 26.9-3.5 2.6-6.8 4.8-7.4 4.8-.5 0-4.9-2.9-9.7-6.5-11.5-8.4-167.6-112-194-128.7-11.3-7.2-22.2-14.1-24.3-15.5l-3.8-2.4 6.7-12.7c10.3-19.6 11.8-22.2 12.9-22.2.6 0 17.9 13.5 38.4 30 33.7 27.1 40.1 31.7 40.1 29.2 0-1.1-14.2-18.5-28.7-35-29.8-34.1-84.8-90.2-114.3-116.7-8.5-7.6-15.8-14.4-16.2-15.1-.5-.7-1.3-7.9-1.8-16.1-2.9-41.8-17.3-115.8-30.9-158.3-13.5-42.8-36.8-96.8-55.5-129.3-3.1-5.3-5.6-10.2-5.6-10.9.1-.7 2.2-2.6 4.8-4.3 12.8-8.1 28.8-23.6 37.9-36.7 10-14.3 18.7-35.6 21.8-53.2 1.9-11 1.9-32 .1-44.1-.8-5-1-9.4-.6-9.9 1.3-1.3 167.4-87.5 167.9-87.1.2.2 1.3 3.3 2.6 6.8z"/><path d="M249.8 220.9c-.7 1-21.9 23-47 48.9l-45.8 47 12.1 45.4c6.6 24.9 16.2 61.3 21.4 80.8 9.1 34.3 25.5 99.7 33 132.4 3.5 15.1 3.9 16 7.3 19 30.8 26.6 185.8 169.2 194.4 178.7.9 1.1 1.9 1.9 2.3 1.9.4 0 4.2-3.3 8.3-7.3 19.6-18.6 27.3-25.8 48.7-45.8 42.9-40 96.9-89.6 116.5-106.9 10.7-9.5 21.2-18.8 23.2-20.6 3.7-3.3 3.8-3.8 8.8-25.1 10.2-43.8 38.1-152.1 62.5-242.6l2.6-9.7-47.3-48.9-47.3-48.9-176.2-.1c-169.8 0-176.3 0-177.5 1.8zm244.6 24.7c1.4.6 1.6 7.9 1.6 72.5V390H359v-71.9c0-56.6.3-72 1.3-72.4 1.8-.8 132.2-.8 134.1-.1zM344.3 403.7c.3.5.8 34.9 1.2 76.5l.8 75.8-43.9-.1c-24.2-.1-47.2-.4-51.3-.8l-7.4-.6L232 508c-11.7-46.6-20.9-81.2-25.4-95.4-1.3-4.2-2.3-7.7-2.2-7.8 0-.1 22.4-.5 49.6-.8 27.2-.3 58.6-.6 69.7-.8 11.1-.1 20.4.1 20.6.5zm304.8 1.2c1.5.5 1.4 1.6-1.3 10.1-5.2 16.9-12.8 45.5-24.8 93l-11.7 46.5-7.4.6c-4.1.4-27.1.7-51.2.8l-43.9.1.7-74.3c.3-40.8.8-75.2 1.1-76.4l.4-2.2 68.3.6c37.5.3 68.9.9 69.8 1.2zM497 592.7c0 13.1-.3 37.7-.6 54.8l-.7 31-24.1 24.1c-22.9 22.9-41.9 40.4-43.9 40.4-2.2 0-19.8-16.1-43.4-39.5L359 678.4V569h138v23.7z"/></svg>
