<svg xmlns="http://www.w3.org/2000/svg" viewBox="0 0 840 1024"><path d="M574.706 60.617c.662-.362 5.996-2.004 5.692-1.314-4.816 10.946-7.97 19.5-9.194 23.642-34 108-31.524 181.4 62.476 245.4 81.84 55.722 193.15 128.426 206 238-4.734 94.02-104.694 147.044-176.618 188.98-100.556 55.238-210.718 131.75-241.382 251.02-42.386-127.162-163.1-205.026-273.352-265.224-66.962-40.134-160.4-97.266-146.648-186.776 36.074-126.034 123.774-159.458 216-244 72-66 80.746-138.14 44.868-225.046-6.138-14.868-13.436-25.54-9.632-24.956 5.69.876 19.664 8.822 31.588 22.444 44.128 50.418 112.588 192.146-2.824 307.558-53.914 53.916-146.654 140.586-124.784 197.008 21.87 56.424 183.754 97.402 261.764 166.618 77.334-79.814 265.37-122.764 269.204-186.232 3.832-63.468-104.472-133.488-158.184-195.394-62.46-74.566-39.874-181.686 3.446-259.974 4.192-7.574 15.644-28.436 27.14-40.462 5-5.228 9.624-8.666 14.44-11.292zm-153.858 49.842s-1.71 55.518-24.902 130.878c-15.942 51.804-23.45 72.718-33.946 95.272-17.838 38.334-30.406 54.982-46.094 87.956-10.234 21.04-20.648 42.406-25.704 65.722-4.274 28.648-1.204 58.892 11.286 84.81 15.29 34.438 44.728 60.746 78.648 71.282 16.856 6.406 35.036 4.358 52.584 4.194 51.44-5.95 96.558-50.144 107.574-104.712 9.542-35.576-2.372-83.326-18.294-115.162-11.908-24.944-32.528-54.082-46-88-15.01-37.792-23.322-71.012-31.988-103.678-15.82-59.626-17.952-103.66-23.164-128.562z"/></svg>