<svg xmlns="http://www.w3.org/2000/svg" viewBox="0 0 673 720"><g fill="#000" fill-rule="nonzero"><path d="M335 3.8 333.8 7h-77.7c-51.4 0-78.7.3-80.7 1-2.8 1-3 1.5-4.7 10.9-2.9 15.5-10.6 33-27.5 61.6-6.5 11-17.4 26.9-19.3 28-.5.4-3.3-1.1-6.2-3.2l-5.2-3.8 4.2 5.5 4.1 5.4-6.9 7.7c-18 20-41.2 37.1-67.4 49.9-12.4 6-30 12.7-39.3 15.1-2.9.7-5.7 1.8-6.1 2.4-1.1 1.3 1.2 22.5 4 37 2.6 14 8 35.5 18 71.9 4.3 15.9 7.9 29.3 7.9 29.8 0 .4-1.1 1.3-2.5 1.8-3.5 1.3-3.1 2.9 1.3 4.8l3.9 1.6 5.8 20.1c8.5 29.4 22.2 70.5 30.4 91 8.3 21 24.5 54.2 36 73.7 7.1 12.1 8 14.1 7.1 16.3-1.4 3.6-1.3 3.7 1.1 2.5 1.1-.7 2.2-1 2.4-.8.2.2 4.1 5.9 8.7 12.8 16.6 25 28.6 40 44.2 55.6 28.8 28.7 51.5 44.7 128.5 91 19.6 11.8 36.3 21.9 37.2 22.6 1.3.9 2.3.6 5-1.4 1.9-1.4 18.5-11.5 36.9-22.5 73.1-43.5 97.8-61 126.6-89.7 15.6-15.6 27.6-30.6 44.2-55.6 4.6-6.9 8.5-12.6 8.7-12.8.2-.2 1.3.1 2.4.8 2.4 1.2 2.5 1.1 1.1-2.5-.9-2.2 0-4.2 7.1-16.3 11.5-19.5 27.7-52.7 36-73.7 8.2-20.5 21.9-61.6 30.4-91l5.8-20.1 3.9-1.6c4.4-1.9 4.8-3.5 1.3-4.8-1.4-.5-2.5-1.4-2.5-1.8 0-.5 3.6-13.9 7.9-29.8 10-36.4 15.4-57.9 18-71.9 2.8-14.5 5.1-35.7 4-37-.4-.6-3.2-1.7-6.1-2.4-9.3-2.4-26.9-9.1-39.3-15.1-26.2-12.8-49.4-29.9-67.4-49.9l-6.9-7.7 4.1-5.4 4.2-5.5-5.2 3.8c-2.9 2.1-5.7 3.6-6.2 3.2-1.9-1.1-12.8-17-19.3-28-16.9-28.6-24.6-46.1-27.5-61.6-1.7-9.4-1.9-9.9-4.7-10.9-2-.7-29.4-1-80.8-1H339l-1.4-3.2-1.4-3.3-1.2 3.3Zm4 18.2c2.3 18.1 9.2 41.6 17 57 10.5 21 26.9 36.9 49.8 48.4 26.7 13.4 57.7 17.5 90.2 12 15.5-2.6 25.6-6.7 38.8-15.6 3.9-2.7 7.2-4.7 7.2-4.5 0 .2-2.5 4.1-5.6 8.8-10.8 16.4-16.3 31.2-18.5 50-2.2 19.3.7 46.6 6.5 60.9 14.2 35.2 60.4 73.1 106.9 87.7 4.2 1.3 7.7 2.8 7.7 3.2 0 .5-3.9 2.1-8.7 3.6-23.6 7.3-28.6 9.2-39.3 14.6-24.3 12.4-45.2 31.6-58.1 53.5-7.7 13.1-10.9 25.5-10.9 42.3 0 13.6 1.6 22.3 8.6 45.9 5.9 19.8 9 26.5 14.9 32.2 2 1.9 4.5 4.7 5.6 6.2 1.7 2.3.2 1.7-9.3-3.7-16.8-9.6-26.2-12.3-52.9-15-35.6-3.6-54.3-.6-81.1 12.9-38.9 19.5-59 44.7-65.2 81.7-1.5 9.1-2.8 32.3-4.2 76.4-.3 11.6-1 22.8-1.4 25-.7 3.9-.7 3.8-1.3-2.5-.4-3.6-.9-14.6-1.2-24.5-1.4-42.5-2.6-65.6-4.1-74.4-6.2-37-26.3-62.2-65.2-81.7-26.8-13.5-45.5-16.5-81.1-12.9-26.7 2.7-36.1 5.4-52.9 15-9.5 5.4-11 6-9.3 3.7 1.1-1.5 3.6-4.3 5.6-6.2 5.9-5.7 9-12.4 14.9-32.2 7-23.6 8.6-32.3 8.6-45.9 0-16.8-3.2-29.2-10.9-42.3-12.9-21.9-33.8-41.1-58.1-53.5-10.7-5.4-15.7-7.3-39.3-14.6-4.8-1.5-8.7-3.1-8.7-3.6 0-.4 3.5-1.9 7.8-3.2 46.4-14.6 92.6-52.5 106.8-87.7 5.8-14.3 8.7-41.6 6.5-60.9-2.2-18.8-7.7-33.6-18.5-50-3.1-4.7-5.6-8.6-5.6-8.8 0-.2 3.3 1.8 7.3 4.5 13.1 8.9 23.2 13 38.7 15.6 60.4 10.3 116.8-14 140-60.4 7.2-14.2 14.7-38.9 16.5-53.5.3-2.8 1.1-8.4 1.8-12.5 1.2-7.3 1.2-7.4 1.9-3.5.4 2.2 1.2 7.8 1.8 12.5Z"/><path d="M324 163.6c-28.7 3.4-51.4 11.8-75.5 27.8-30.1 20.1-54.8 53.9-64.9 89-5.8 20-7.5 49.5-4.1 72.1 5.2 34.8 27.4 74.3 54.4 96.7 21.5 17.8 48.3 31.1 73.6 36.4 7.4 1.6 13.2 1.9 33 1.9 21-.1 25.3-.3 34.2-2.3 29.8-6.5 62.4-24.8 82.9-46.5 19.8-20.9 36.5-52.1 41.8-77.9 4.1-19.9 4.5-44.4 1-64.8-4.2-25.4-18.3-54.4-37.3-77.2-21.3-25.5-59.7-47.5-93.1-53.3-9.1-1.6-38.6-2.8-46-1.9Zm18 54.9c12.3 1.8 21.5 4.7 32 10 23.2 11.7 39.8 28.9 50.9 52.6 9.3 19.8 12 41.7 8 65.4-3.3 19.9-17.4 45.6-32.6 59.5-15.4 14.1-35.4 24.1-55.2 27.5-10.6 1.9-29.7 1.9-39.3.1-13-2.5-29.5-9.9-38.4-17.2l-2.9-2.3 5.8-.1c7.8 0 13.3-1.5 24.9-6.5 12.7-5.6 25-13.8 32.6-21.9 31.6-33.9 30.3-90.4-3-122.2-14-13.4-35.9-24.1-51.8-25.3l-8.5-.6 7.5-4.6c10.5-6.5 16.4-9.4 24.5-11.8 13.7-4.2 29.5-5.1 45.5-2.6Z"/></g></svg>
