<svg xmlns="http://www.w3.org/2000/svg" viewBox="0 0 1024 1024"><path d="M461.83 186.811c22.452-8.446 47.16-14.938 71.064-8.772 29.898 5.45 55.756 22.168 81.854 36.738 76.21 44.53 150.9 91.668 224.85 139.89 6.492 3.734 10.944 10.052 13.354 17.088-32.938 28.486-65.744 57.232-96.446 88.128-18.802 19.824-36.844 42.078-44.292 68.872-5.298 18.324-1.498 38.756 9.706 54.17 16.782 23.666 43.618 38.018 70.78 46.486 32.2 9.836 66.482 11.246 99.81 7.512 15.048-1.672 30.29-6.556 41.818-16.718 9.554-8.338 16.262-20.648 15.806-33.566-.412-12.008-9.096-22.538-19.8-27.272-11.986-5.318-25.6-5.166-38.344-3.364-18.304 2.866-33.914 14.98-44.14 30.07-3.648-6.708-5.624-14.828-1.954-21.994 9.618-22.08 32.09-36.02 54.452-42.598 32.742-6.688 68.59-.022 95.816 19.628 11.16 7.902 20.192 19.106 23.926 32.394 7.144 21.734.044 45.486-12.266 63.92-16.762 24.794-43.554 40.906-71.368 50.61-41.426 14.33-86.196 16.262-129.49 11.746-54.194-5.84-106.91-22.168-156.306-44.9-7.034-2.93-13.722-7.23-21.408-8.098-8.728-.088-15.328 7.924-16.956 15.936-2.346 11.312 1.714 22.646 5.514 33.176 11.55 29.138 31.96 54.714 57.602 72.692 14.396 9.706 31.526 17.89 49.352 15.546 6.752-.716 13.374-5.624 14.026-12.766 1.194-11.768-4.538-22.712-9.64-32.894 11.746 4.58 23.058 11.746 29.854 22.646 12.288 19.322 7.404 47.83-11.312 61.336-18.216 13.352-42.47 14.482-64.008 10.768-34.586-6.6-66.416-24.382-92.624-47.57-26.704-23.906-48.156-55.952-52.39-92.212-2.822-35.194 1.39-72.408 20.626-102.828 2.952-6.382 10.118-11.486 9.032-19.15-1.302-13.678-7.902-26.098-14.526-37.866 9.836-14.308 19.78-28.528 29.638-42.816 4.104-5.45 3.952-12.722 2.822-19.15-4.212-23.882-18.998-46.898-41.86-56.58-28.312-12.116-64.92-7.752-86.522 15.328-11.486 12.528-18.846 28.92-20.67 45.79-.848 6.254 1.194 12.464 5.188 17.284 9.336 13.33 18.52 26.726 27.836 40.08-6.558 11.832-13.31 24.23-14.504 37.952-1.108 7.664 6.036 12.724 8.988 19.106 19.216 30.376 23.45 67.568 20.67 102.72-4.342 37.346-26.858 70.174-54.714 94.362-25.728 22.102-56.604 39.08-90.104 45.508-21.126 3.69-44.706 2.714-62.922-9.75-19.238-12.852-25.034-41.166-13.44-60.924 6.644-11.636 18.412-19.302 30.658-24.034-5.276 10.704-11.704 22.494-9.228 34.87 1.802 7.924 10.53 11.18 17.846 11.202 19.628.456 37.562-9.814 52.63-21.472 26.272-21.17 46.986-50.308 55.106-83.31 2.8-10.726 1.39-24.622-8.924-30.918-6.708-4.494-14.59-.5-21.016 2.41-67.438 31.938-141.606 52.978-216.752 50.46-41.102-1.694-83.352-10.574-117.81-34.046-20.582-14.068-37.54-34.696-43.51-59.252-6.08-22.102.934-47.658 18.672-62.486 22.928-19.78 54.194-28.314 84.112-26.794 23.644.5 46.312 12.16 62.27 29.29 9.142 9.858 16.372 25.078 7.904 37.67-10.206-15.09-25.794-27.226-44.098-30.092-12.722-1.802-26.292-1.954-38.256 3.322-11.508 4.994-20.604 16.762-19.932 29.68.586 16.522 12.072 30.896 26.206 38.496 16.958 9.51 36.89 10.356 55.844 11.182 40.492 1.258 82.592-6.146 117.072-28.378 18.65-12.116 35.454-29.854 39.992-52.304 4.192-20.324-3.386-40.862-13.83-58.058-10.986-18.086-25.142-34.002-40.276-48.7-28.29-27.554-57.906-53.716-87.804-79.51 2.368-7.036 6.884-13.332 13.376-17.088 69.434-45.356 139.674-89.54 211.018-131.836 21.778-12.592 43.424-25.554 66.352-35.998z"/></svg>