<svg xmlns="http://www.w3.org/2000/svg" viewBox="0 0 1003 1024"><path d="M88.177 429.839C-4.37 539.765-.629 649.175.576 666.733c53.497-41.612 120.878-66.461 193.918-66.447 175.136-.067 317.249 142.106 317.269 317.454.032 14.281-1.183 28.394-2.889 42.539l.096-.026c51.545-75.361 112.186-203.319 43.088-327.685-54.666-98.859-106.071-65.101-180.521-163.956-58.486-76.952-50.435-164.738-50.435-164.738s-19.746.894-49.949 8.986c-47.729 12.795-121.306 43.602-182.975 116.98zm346.043 4.594c54.642 98.765 105.836 64.964 180.468 163.767 58.303 77 50.319 164.668 50.319 164.668s132.357-6.089 233.301-126.058c92.477-109.81 88.757-219.522 87.579-236.592-53.97 41.337-121.114 66.324-194.277 66.243-174.739.056-317.034-142.061-317.01-317.227.015-14.493 1.062-28.863 2.908-42.846-51.729 75.416-112.27 203.348-43.29 328.045z"/></svg>