<svg xmlns="http://www.w3.org/2000/svg" viewBox="0 0 909 1024"><path d="M361.518 23.655c8.998 63.032 10.546 127.018 7.448 190.586-2.204 43.312-8.282 87.816-29.61 126.302-38.01 70.418-102.59 121-146.736 187.07-10.486 16.68-21.388 35.21-20.256 55.644 1.966 16.502 16.98 26.63 29.074 35.984 83.108 56.776 186.89 87.34 251.292 168.66 48.078-58.742 118.26-91.33 183.318-127.076 31.158-17.574 64.7-32.886 90.436-58.266 18.172-17.872 6.792-45.218-3.932-63.866-41.882-69.168-108.19-119.868-149-189.87-17.932-30.264-27.764-64.76-31.278-99.612-7.686-75.066-4.766-150.846 3.932-225.674 40.512 100.982 60.708 215.904 139.23 296.57 55.824 61.9 133.69 100.208 183.794 167.708 25.678 33.662 43.49 76.556 35.864 119.51-8.162 47.244-42.06 84.658-78.044 113.91-78.998 62.794-175.632 98.72-253.796 162.704-30.444 25.26-57.968 54.334-79.832 87.34-15.728 23.354-20.998 46.292-32.258 71.85-.24-.112-.58-.014-.906-.03-.742-.036-1.664-.044-2.97-.062-2.156-.032-4.438-.102-6.438-.126-1.862-.022-1.968-.032-2.592-.062-.178-.01-.272-.026-.564-.156-10.604-22.222-16.53-46.87-30.292-67.602-31.338-48.852-74.768-89.186-122.966-121.178-70.36-47.662-149.894-81.202-216.084-135.12-36.162-29.908-69.884-68.87-75.9-117.126-5.838-45.934 16.264-89.902 44.86-124.278 43.67-54.214 105.748-88.47 155.078-136.728 38.248-34.732 68.632-77.448 89.306-124.752 26.868-62.734 46.588-128.15 69.822-192.254z"/></svg>