<svg xmlns="http://www.w3.org/2000/svg" viewBox="0 0 875 1024"><path d="M294.088 115.449c-4.818 90.054-5.943 179.374-71.716 257.859C160.427 282.049 81.831 272.468.371 271.952c72.827 50.28 205.124 152.291 71.625 417.314 19.575 85.958 71.965 152.861 140.39 197.535 64.469 44.232 141.481 64.881 218.189 64.41h1.225c76.81.471 153.938-20.238 218.46-64.591 68.292-44.674 120.571-111.51 140.119-197.354-133.499-265.023 1.703-367.034 74.53-417.314-81.461.515-162.915 10.097-224.862 101.356-65.772-78.484-66.942-167.805-71.76-257.859-32.783 45.042-117.75 232.267-37.629 348.184 68.407 98.97 9.211 205.653-97.543 209.836l-1.951.092-1.906-.092c-106.754-4.183-165.949-110.867-97.543-209.836 80.121-115.917-4.845-303.142-37.629-348.184z"/></svg>