<svg xmlns="http://www.w3.org/2000/svg" viewBox="0 0 811 1024"><path d="M289.807 848.846c30.904-23.892 64.21-51.121 98.191-82.384l8.038-7.615 8.468 7.695c33.729 31.189 66.912 58.433 97.956 82.27-50.13 55.009-94.384 98.807-107.023 111.186-12.481-12.436-56.021-56.243-105.631-111.152zM70.202 461.798c16.927 58.511 33.799 113.64 44.884 144.819 9.04 23.948 22.514 50.364 43.001 80.713 26.399-17.516 62.06-42.175 99.528-71.016-54.54-60.353-137.107-159.52-154.076-179.965l-33.336 25.448zm605.805 144.64c11.269-31.034 28.261-86.547 45.251-145.053l-32.614-25.062c-17.039 20.454-99.872 119.629-154.271 179.968 37.675 28.913 73.465 53.803 99.907 71.043 19.953-30.056 32.957-56.849 41.728-80.896zM395.993 493.271c42.445-42.189 140.612-142.179 161.34-163.301l-60.542-49.608 59.706-35.002c-30.191-15.962-66.106-33.599-108.368-50.319-6.779-3.053-11.696-10.276-17.995-19.907-12.863-20.456-27.358-51.949-34.678-68.466-3.862 8.794-28.343 58.878-34.316 68.477-6.233 9.617-11.034 16.816-17.787 19.862-42.112 16.62-78.036 34.285-108.186 50.087l60.14 35.219-60.815 49.768c20.787 21.127 119.144 121.015 161.502 163.19zm21.683 238.138l10.354 9.477c133.494 123.361 261.059 190.838 261.059 190.838s-29.551-46.577-34.036-99.977c-2.575-29.218 5.396-87.168 5.396-87.168s-73.498-43.416-153.356-105.865c-29.054 31.442-59.465 63.107-89.417 92.694zM733.298 210.29l-.063.63-74.6 83.922-61.273-33.481-40.494 23.719 51.331 42.175S413.47 525.913 368.993 567.395C265.233 665.356 131.49 744.707 131.49 744.707s8.207 57.67 5.658 87.006c-4.555 53.596-34.161 99.963-34.161 99.963s127.73-67.425 261.202-190.618c107.74-98.884 227.584-241.232 280.656-305.952l38.296-46.329 52.755 40.344 14.177-49.748-41.163-45.14c32.162-36.349 72.994-81.681 73.16-81.708 12.704-14.329 12.027-34.975-1.454-46.604-6.045-5.088-13.203-7.574-20.76-7.641l-5.431.393c-7.878 1.389-15.311 5.274-21.127 11.617zm-721.909-4.369c-13.563 11.686-14.28 32.358-1.7 46.544.381-.068 41.484 45.698 73.373 81.785l-41.286 45.24 14.307 49.708 52.577-40.559 38.641 46.415c30.418 36.92 82.084 98.794 140.979 163.586 20.608-16.5 77.326-68.221 86.892-77.8-43.254-42.417-191.322-193.502-191.322-193.502l-.169.031 51.69-42.141-40.805-23.823-61.519 33.406-74.165-84.048-.166.031-.068-.386c-7.137-7.813-17.166-11.983-26.656-12.097l-5.475.355c-5.376.949-10.655 3.451-15.128 7.255z"/></svg>