<svg xmlns="http://www.w3.org/2000/svg" version="1.0" viewBox="0 0 685 600"><path d="M354.5 134.1c-60.5 43.5-111 79.8-112.3 80.7-2.3 1.5-2.8 1.1-28.6-24.6-17.2-17.2-26.9-26.2-28.2-26.2-2.7 0-5.4 3-5.4 6 0 1.8 6.6 9.1 26.1 28.6l26.1 26.1-59.3 81.4c-32.6 44.8-68.9 94.6-80.6 110.6C80.6 432.8 71 446.2 71 446.5c0 1.5 17 12.7 33 21.6 51 28.5 85.4 37.9 138.5 37.9 32 0 54.3-3.2 82.5-11.7 39.9-12 71.8-30.1 107.8-60.9l4.4-3.7 11.4 11.4 11.4 11.3.2 47.6.3 47.5 7.5 1.8c10.1 2.4 30.2 1.8 40.8-1.2 38.5-11.2 64.4-47.5 61.8-86.6-.7-9.6-1.9-17.1-2.9-18.1-.3-.3-23.3-.6-51.1-.7l-50.6-.2-10.5-10.5-10.5-10.5 7.5-8.5c37-41.4 59.8-90.4 68.7-147.5 2.9-18.5 3.1-56.4.5-75.5-4.6-32.6-16.1-68.7-29.9-93.5-5.4-9.7-26-41.5-26.8-41.5-.3 0-50.1 35.6-110.5 79.1zm121.6-53.4c5 7.6 12.1 20.1 15.9 27.8 6.9 14.2 12.7 29.1 11.8 30.1-1.3 1.2-159.3 49.3-159.9 48.6-.3-.4-1.7-3.9-2.9-7.7-1.3-3.9-3.3-9.3-4.5-12l-2.2-5 66.1-47.7c36.4-26.2 66.2-47.7 66.4-47.7.1-.1 4.3 6.1 9.3 13.6zm34.1 77.8c4 15.2 6.5 30.5 7.7 47 1 12.9 1.4 27.5.9 27.5-.2 0-37.6-1.8-83.3-4-45.6-2.2-84-4-85.2-4-2.2 0-2.3-.4-2.3-7.8 0-4.2-.5-10.6-1-14.2-.5-3.5-.8-6.6-.6-6.7.8-.8 158.3-49.2 159.5-49 1 .1 2.5 3.9 4.3 11.2zm-178.8 10.2c1.7 3.5 7.8 20.5 7.3 20.9-.5.5-72 22.5-72.3 22.2-.2-.3 62.7-45.8 63.3-45.8.1 0 .9 1.2 1.7 2.7zm9.9 30.7c.9 2.4 2 20.3 1.4 22.8l-.6 2.3-35.5-1.7c-19.5-.9-36.4-1.8-37.5-2-1.8-.2 66.9-22.3 70.5-22.7.7-.1 1.4.5 1.7 1.3zm-29 32c15.3.7 28.1 1.6 28.4 2 .8.7-2.3 14.4-4.5 19.9-1 2.7-2 3.7-3.1 3.4-1.8-.5-64.4-26.8-65-27.3-.2-.2 3.4-.1 8 .2 4.6.3 20.9 1.1 36.2 1.8zm118.2 5.6c45.7 2.2 84.1 4 85.4 4h2.4l-.6 9.2c-.7 10-4.5 32.3-7.8 45.3-2.4 9.2-8.5 28.4-9.7 30.3-.6.9-20.6-7.1-80.1-32.2-43.6-18.4-79.5-33.6-79.7-33.9-.3-.3.6-4.3 2-8.8 1.4-4.6 2.8-10.2 3.2-12.4.6-3.6 1.2-5.5 1.7-5.5.1 0 37.6 1.8 83.2 4zm-138.9 11.4c17.5 7.3 33.6 14.1 35.8 15l3.8 1.6-3.2 5.7c-3.4 5.9-10.7 16-13.2 18.1-1.1.9-6.7-4.2-29.4-27-15.3-15.4-27.4-27.8-26.8-27.5.6.4 15.4 6.7 33 14.1zM302 301c-4.3 3.6-19.9 13-21.5 13-.9 0-27.6-62.1-30.4-70.4-.2-.6 12.2 11.4 27.5 26.7l27.9 27.8-3.5 2.9zm-64.8 8.9.4 14.4-10-.6c-11.4-.7-14.6-1.4-14.6-3.1 0-1.1 18.2-60.6 21.3-69.6 1.2-3.6 1.2-4 2.9 58.9zm21.2-24.9 13.5 32.5-2.8 1.2c-3 1.3-22.3 5.4-22.8 4.9-.3-.3-2.2-57.5-2.3-67 0-2.7.2-4.7.5-4.5.2.3 6.5 15.1 13.9 32.9zm-44.2 2.8-9.7 31.4-3-.6c-4.2-.9-17.7-7.4-17.3-8.4.5-1.5 39.1-54.2 39.4-53.9.2.1-4.1 14.3-9.4 31.5zm207 15.2c41.1 17.3 74.8 32 74.8 32.6 0 1.9-13.5 27.7-20.1 38.2-7.1 11.5-19.4 27.5-28.7 37.3l-6.1 6.4-61.5-61.5c-33.9-33.8-61.6-61.9-61.6-62.3 0-.5 1.8-3 4.1-5.5 2.3-2.6 6.4-8.4 9.1-12.9l5-8.2 5.2 2.3c2.8 1.2 38.7 16.3 79.8 33.6zm-49.9 60.8 61.9 61.9-7.4 6.7c-8.5 7.9-23.2 18.8-37.2 27.7-10.6 6.6-33.5 18.4-37.7 19.4-2.5.6-2.8 0-35.8-79.5-18.3-44.1-33.2-80.2-33-80.4.2-.1 4.1-2.4 8.6-5.1 4.5-2.6 10.3-6.5 13-8.6 2.6-2 5-3.8 5.3-3.8.3-.1 28.3 27.7 62.3 61.7zm-186.8-46.7c1.9 1.2 6.8 3.4 10.8 5 4 1.5 7.1 3.2 7 3.6-.4 2-49.3 159.6-49.6 160-1.6 1.6-57.2-27-68.1-35-1.9-1.4.3-4.5 40.9-60.3 23.6-32.4 45.6-62.6 48.9-67.2 3.3-4.5 6.1-8.2 6.2-8.2.2 0 1.9 1 3.9 2.1zM306.2 400c17.5 42.1 32.4 78.2 33.3 80.2l1.5 3.7-11.1 3.6c-23.5 7.6-44.9 11.7-67.6 13.1l-11.1.7-.6-9.4c-.3-5.2-1.2-36.9-2.1-70.4-.8-33.6-1.8-68.1-2.1-76.7l-.6-15.7 3.8-.6c2.2-.3 8-1.6 12.9-2.9 5-1.3 9.7-2.3 10.4-2.2 1 .1 12.8 27.3 33.3 76.6zm-78.9-71.3 10.7.6v5.6c0 3.1.9 36.6 2 74.6 1.1 37.9 2 74.1 2 80.4v11.4l-14.7-.6c-20.3-.9-41.2-4.2-58.1-9.3-7.9-2.4-8.4-2.7-7.8-4.9 1.1-4.4 48.8-158 49.3-158.8.3-.5 1.7-.6 3.2-.3 1.4.4 7.4.9 13.4 1.3zM515 454.8c0 1.4-7.4 12.8-11.2 17.3l-3.7 4.4-11.3-11.3-11.3-11.2h18.8c10.3 0 18.7.4 18.7.8zm50.5 7.4c.5 6.9-.7 21.3-1.9 22.5-.3.3-46-17.2-47.7-18.3-.5-.3.5-3.2 2.1-6.5l3-5.9h43.8l.7 8.2zm-76.2 22.6c-2.9 2.2-13.6 7.9-16 8.7l-2.3.6v-30.6l10 10c9.1 9.1 9.9 10.1 8.3 11.3zm50.2-1.3c11 4.3 20.4 8.2 21 8.7 1.4 1.2-7.4 18.1-12.4 23.8l-4 4.5-20.2-20.1-20.2-20.2 3.4-4 3.3-4 4.6 1.8c2.5 1 13.5 5.2 24.5 9.5zm-24.2 24.3 20.8 20.9-6.3 4.1c-3.5 2.2-8.9 5.2-12 6.6-6.1 2.7-17.7 6-18.5 5.3-.2-.3-3.6-11.9-7.5-25.7-5.7-20.4-6.8-25.4-5.7-26.1 1.3-.7 8.4-5.6 8.4-5.8 0-.1 9.4 9.3 20.8 20.7zm-30.2 14 6.7 23.7-6.2.3c-3.3.2-8 0-10.3-.3l-4.3-.6V500l3.3-1.4c1.7-.7 3.4-1.1 3.7-.9.3.3 3.5 11.1 7.1 24.1z"/></svg>