<svg xmlns="http://www.w3.org/2000/svg" viewBox="0 0 661 1024"><path d="M524.481 502.579s89.277 35.63 95.041 141.344c0 0-86.822-33.676-100.727-8.518 0 0 47.957 51.391 27.035 205.239 0 0-43.573-38.262-155.527-38.262-64.521 0-134.68 18.693-203.209 52.944-61.665 30.945-108.145 65.198-139.566 102.984C21.87 989.03 10.42 995.493 3.58 982.765 1.624 979.157.045 961.817.045 944.304c0-31.898 0-31.898 12.93-48.259 23.103-29.165 68.405-66.852 110.099-91.407 12.93-7.642 46.305-22.426 74.093-32.799 87.523-32.874 131.548-56.953 174.244-95.616 58.609-53.045 100.026-136.533 116.864-235.508 6.941-41.194 13.606-149.262 8.895-144.852-1.379 1.278-9.696 18.891-18.29 39.062-31.421 72.714-71.06 134.881-116.39 182.137-44.15 46.305-80.456 66.575-140.066 78.302-33.65 6.765-70.96 27.112-100.326 54.924-40.516 38.562-68.105 84.842-89.552 150.34l-11.25 34.454-2.256-14.684c-1.277-8.119-3.232-35.255-4.309-60.211C10.044 657.43 33.823 566.9 82.359 502.279c28.013-37.084 57.554-60.186 118.142-92.184 150.34-79.58 267.505-197.12 293.437-294.516 2.557-9.597 4.712-21.448 4.712-26.334.099-8.996 6.364-14.182 12.428-10.073 5.086 3.407 46.104 70.258 59.109 96.493 26.535 53.245 49.036 123.028 60.286 186.947 5.989 33.577 10.399 105.815 9.32 144.853 0 0-54.924-37.084-115.311-4.886z"/></svg>