<svg xmlns="http://www.w3.org/2000/svg" version="1.0" viewBox="0 0 800 800"><path d="M217.4 55.7c19.4 29.9 38.4 66.9 51.6 100.3 1.8 4.7 3.4 8.6 3.5 8.8.1.1 6.2-2.9 13.6-6.7 34.3-17.8 69.1-29.6 96.9-33.1 34.8-4.3 75.6 5.8 126.1 31.1l17.7 8.8 4.7-11.7C546 117.8 565.5 80.5 584 53c3.3-4.9 6-9.2 6-9.5 0-.3-85.7-.5-190.5-.5H209.1l8.3 12.7zM147.4 81.6c-13.6 15.9-30.4 35.3-37.2 43.2-6.8 7.9-12.2 14.5-12 14.6.1.2 5 3.5 10.8 7.4 25.2 17 46.3 40.8 60.5 68.4l6.5 12.6 18-12.8c9.9-7 24.7-17.1 32.9-22.5l14.8-9.6-4.2-10.7c-14.7-37.2-32-70.5-52.1-100.7-5.2-7.7-10.2-15.1-11.2-16.4l-1.9-2.4-24.9 28.9zM624.3 56.7c-14.1 18-38.3 60.2-51.3 89.3-4.8 10.6-15 35.5-15 36.4 0 .3 9.8 7 21.8 14.9 11.9 8 26.6 18.1 32.7 22.6l11 8 6-11.7c3.3-6.5 8.2-15.1 11-19.2 13.8-20.7 35.3-41.7 55.3-53.9 2.8-1.8 5.2-3.6 5.2-4 0-.5-68.5-80.7-73-85.4-.4-.5-2.1.9-3.7 3z"/><path d="M379 156.4c-60.4 10.9-142.4 58.7-240.5 140.3l-3.8 3.1 8.2 4.2c19.6 9.8 46 26.8 64.1 41.2 25.9 20.7 51.9 48.4 63.8 68.1l3.3 5.5-7.5 13.5c-4.2 7.4-7.6 13.9-7.6 14.4 0 .4 2.3 2.1 5.1 3.8 10.2 6 19.1 18.2 22.4 30.6 2.1 7.7 1.9 20.4-.4 27.8-3.7 12-12.2 21.8-23.5 27.2-8.2 3.9-15.3 5.2-26.5 4.7-8.1-.3-10.6-.8-16.1-3.4-8.3-3.9-15.6-9.8-21.1-16.8-2.4-3-4.5-5.3-4.7-5.1-1 1 2.4 11.8 6.3 20 19 39.4 73.7 51.9 111.3 25.5 9.6-6.7 17.6-15.9 22.2-25.5 5.1-10.5 6.4-17.9 5.8-31.8-.5-9.4-1.1-12.9-4.2-22.2-4.7-13.9-12.1-27.9-21.3-40.3-4-5.3-7.2-10-7.3-10.4 0-.3 5.7-4.1 12.8-8.4 7-4.2 12.9-7.9 13.1-8 .2-.2-1-1.9-2.7-3.8-9-10.3-16.6-24.6-20.4-38.7-3.2-11.7-3.1-33.6.1-45.4 9.3-34.5 37.3-60.9 72.1-68 12.3-2.5 31.3-1.7 43.3 1.9 30.9 9.2 54.1 32.4 63.3 63.3 3.6 11.9 4.4 31.1 1.9 43.4-3 15.2-10.5 30.9-19.4 41.1-2.3 2.5-4.1 5-4.1 5.5s5.2 4 11.5 7.8c6.4 3.9 12.2 7.5 13.1 8 1.2.9.4 2.4-4.9 9.5-11.8 15.6-20.8 33.3-24.8 48.8-8.9 34.5 4.8 64.1 36.6 79.3 12.3 5.9 19 7.4 34 7.4 15.5 0 21.9-1.5 35.5-8.1 7.9-3.9 10.9-6.1 18-13.3 9.7-9.7 14.6-18 18-30.5 2.2-7.9 2.2-10.6-.1-6.4-2.2 4.2-13.2 14.9-18.9 18.3-7.5 4.5-15.7 6.7-25 6.7-23.6-.2-42-13.6-47.5-34.7-5.1-19.9 3.6-43 20.4-54.3 3.3-2.2 6.6-4.2 7.2-4.4.8-.3-1.7-5.6-6.4-14.1-4.3-7.5-7.7-14.3-7.7-15.1 0-1.8 9.7-16.1 17.2-25.5 9.7-11.9 34-35.7 48.1-46.9 16.4-13.1 38.1-27.4 57.5-38.1 8.3-4.5 15-8.7 14.7-9.1-.3-.4-8.5-7.3-18.2-15.2-84.4-68.6-160.7-112.9-216.8-125.9-11.6-2.7-38.4-3.5-49.5-1.5z"/><path d="M391.5 287.6c-25 3.9-46 22.9-52.1 47.3-2.4 9.7-1.6 25.3 1.9 35.1 3 8.4 9.9 19.2 15.7 24.4 2.1 1.9 10 7.6 17.5 12.6s13.5 9.3 13.3 9.5c-.1.2-8.7 5.4-18.9 11.7l-18.6 11.4 4.8 9.5c12.2 24.3 17.5 49.7 15 70.9-4.4 36.1-29.9 66.2-67.1 79.4l-7.6 2.7-2.8 12.2c-3.8 16.4-12.5 47.5-18.8 67.5l-5.2 16.4 2.4 1.9c3.8 2.9 29.2 17.1 41.7 23.3 23.5 11.7 52.6 23 76.2 29.7l10.5 2.9 9.3-2.5c13.4-3.7 36.3-11.7 51.6-18.2 28.8-12 71.4-35.1 70.2-38.1-3.7-9.8-16.8-55.3-22.5-78.1-2.2-9.1-4.2-16.6-4.4-16.9-.3-.2-4-1.6-8.4-3.1-21-7.3-40.5-22.5-52.4-41.1-9.3-14.4-13.8-30.4-13.8-48.8 0-19.6 4-36 14.1-57.1 4.5-9.4 5.6-12.7 4.7-13.3-.7-.4-9.1-5.6-18.5-11.4-9.5-5.9-17.3-10.9-17.3-11.3 0-.3 6.1-4.6 13.6-9.5 19.9-13.1 27.4-21.9 33.1-38.6 3.6-10.4 3.8-25.1.4-36-6.1-20-21.9-36-41.5-41.9-6.8-2.1-20.3-3.4-26.1-2.5zM181.3 366.7c-4.8 13.6-11.5 27.7-18.4 39-14.7 24-39.1 48.3-62.8 62.3l-7 4.2 4 11.6c25.3 73.3 70 136.8 130.9 185.6 5.2 4.2 9.7 7.6 10.1 7.6.4 0 1.1-1.7 1.7-3.8.5-2 2.6-9.1 4.6-15.6 4.4-14.4 13.6-48.7 13.6-50.8 0-1.1-1.6-1.7-6.1-2.2-13.6-1.6-32.9-8.9-45.7-17.3-14.9-9.9-30-28.5-36.2-44.5-5.9-15.2-7.4-23.6-7.4-41.8 0-16.5 1.2-26.2 4.9-38.8 3.7-12.4 15.9-18.4 27-13.3 6.7 3.1 9.3 6.8 12.5 17.8 5.7 19.5 11.1 30.3 18.8 37.5 6.2 5.8 11.6 7.5 18.6 5.9 6.6-1.5 10.1-4.3 12.1-9.6 2.2-5.7 1.4-11.7-2.4-17.7-4.5-7.1-9.1-8.8-26.8-9.9-18-1.2-18-1.2-16.1-4.2.8-1.2 7.2-12.7 14.3-25.5l12.7-23.2-4.3-5.7c-6.7-8.8-25.2-27.6-37.4-38.1-13.1-11.2-14.3-12-15.2-9.5zM605.9 373.7c-17.9 15-43.9 42.5-43.9 46.5 0 .7 6.1 12.3 13.5 25.7 7.5 13.5 13.2 24.8 12.8 25.2-.5.4-7.6 1.2-15.9 1.7-11.9.8-15.9 1.4-19.1 3.1-8 4-11.9 11.3-11.1 20.9.4 4.8 1 6 4 8.8 2.4 2.1 5.4 3.6 9.1 4.5 4.9 1 6.2 1 10.4-.6 11-4.1 19.7-17.9 26.7-42.5 3.2-10.9 6.2-15.4 12-18.1 9.2-4.2 19.7-1.1 24.8 7.2 5.6 9.1 9.3 35.8 7.6 55.3-3.7 43.8-31.6 77.7-74.2 90-4.7 1.4-11.6 2.8-15.1 3.2-3.6.4-6.5 1-6.5 1.3 0 2.9 18.4 67.6 20 70.1.6 1 2.8-.3 8.6-5.1 64-51.7 105.8-110.9 133.5-188.8 3.2-9.2 3.2-9.4 1.3-10.8-1-.7-6.6-4.4-12.4-8.2-31.9-21.1-57.3-53-71-89.4-1.9-4.8-3.6-8.7-4-8.7-.3 0-5.3 3.9-11.1 8.7z"/></svg>
