<svg xmlns="http://www.w3.org/2000/svg" viewBox="0 0 789 1024"><path d="M455.624 802.321c113.661-37.002 167.905-166.228 114.715-273.231 43.988-52.972 87.864-105.945 131.852-158.918 192.348 240.125 47.181 598.161-258.099 636.435 1.055-10.909 1.923-21.898 2.761-32.887 2.435-30.778 4.222-61.554 5.711-92.303 1.058-20.193 1.787-40.387 2.545-60.58.195-6.146.299-12.397.515-18.516zM219.831 529.09c-53.19 107.003 1.056 236.228 114.715 273.231.217 6.118.326 12.37.65 18.516.623 20.193 1.488 40.387 2.435 60.58a3309.08 3309.08 0 0 0 5.712 92.303c.838 10.989 1.678 21.978 2.734 32.887-305.253-38.274-450.422-396.31-258.099-636.435 43.986 52.973 87.864 105.946 131.852 158.918zM557.971 258c39.33 17.865 73.491 40.603 105.107 69.972-37.002 57.115-74.114 114.094-111.116 171.1-16.188-21.574-34.702-38.166-57.955-51.7 21.357-63.124 42.607-126.249 63.964-189.372zM296.163 447.372c-23.144 13.534-41.74 30.126-57.818 51.7-37.111-57.006-74.221-113.985-111.251-171.1 31.616-29.368 65.884-52.106 105.107-69.972 21.357 63.123 42.605 126.247 63.962 189.372zm59.957 286.627c-.623-37.408-1.056-76.739-1.056-117.775 0-41.144.433-80.365 1.056-117.91-113.553 37.545-113.553 198.17 0 235.686zm78.986-117.775c0 41.117-.299 80.367-1.055 117.775 113.58-37.516 113.58-198.141 0-235.686.758 37.545 1.055 76.766 1.055 117.91zm-77.93-168.339c4.763-176.459 17.35-308.96 37.977-397.773 20.518 88.813 33.077 221.314 37.842 397.773 78.66 17.649 134.719 87.648 134.719 168.339 0 80.666-55.95 150.555-134.719 168.34-2.328 84.886-6.335 159.758-12.262 224.37a414.298 414.298 0 0 1-51.186 0c-6.009-64.613-10.042-139.484-12.37-224.37-78.662-17.785-134.586-87.675-134.586-168.34 0-80.691 55.924-150.69 134.586-168.339z"/></svg>