<svg xmlns="http://www.w3.org/2000/svg" viewBox="0 0 71.17 41.75"><path d="M45.2 0H26L14.47 22.83l18.42 18.92h5.39L56.7 22.83zm3.41 24.21s-9.4 5.79-13 14.93a31.74 31.74 0 0 0-13.07-15L24 11l1.46 11a22.78 22.78 0 0 1 2.34-1.24l1.65-15.37 1.63 14.21a17.38 17.38 0 0 1 2.8-.5l1.7-16.52 1.75 16.54a18 18 0 0 1 2.76.51l1.62-14.18 1.63 15.37a21.19 21.19 0 0 1 2.35 1.29L47.14 11l1.47 13.19z"/><path d="M22.39 3H.54l7.77 7L0 25.68h5a4.3 4.3 0 0 1 2 .52l18.58 10.22-13.46-13.15zM62.85 10l7.77-7H48.78L59 23.27 45.58 36.42l18.53-10.21a4.3 4.3 0 0 1 2-.52h5z"/></svg>
