<svg xmlns="http://www.w3.org/2000/svg" viewBox="0 0 1024 1024"><path d="M188.452 238.754c49.62-31.366 100.78-60.16 153.998-84.84-10.028 75.584-35.222 164.538 19.538 229.324 73.784 98.464 246.034 92.808 310.564-13.112 43.962-64.53 18.768-145.256 9.77-216.212 54.502 24.68 106.692 53.732 155.796 87.924-11.312 99.752-39.334 212.614-136.258 262.232-116.204 58.358-265.316 59.902-381.006-.514-95.38-51.932-125.46-164.28-132.402-264.802zM103.1 404.576C48.34 481.188 16.46 569.884.264 662.18c115.69 40.62 214.67 115.69 292.31 209.784 146.026 2.828 292.054 2.314 438.338.258 78.412-93.324 176.62-169.68 292.824-209.272-16.968-92.294-47.046-181.762-102.836-258.116-39.334 78.668-86.5 157.548-168.65 200.786-142.984 75.256-327.228 75.256-480.5-.258-83.488-41.13-128.544-122.888-168.65-200.786z"/></svg>