<svg xmlns="http://www.w3.org/2000/svg" viewBox="0 0 917 1024"><path d="M553.095 164.34c112.92 0 160.609 117.659 160.609 160.683 0 45.182-27.616 87.81-27.616 87.81 65.329-35.183 113.017 30.048 113.017 30.048 37.591-19.949 115.425 0 115.425 80.365 0 80.341-70.267 92.846-70.267 92.846H570.637l203.36 190.73-122.994-17.444L834.19 982.54 284.531 663.88l165.646 20.048-90.341-67.837H83.704C-49.264 545.824 3.462 430.373 58.619 397.82c55.231-32.678 125.498 9.975 125.498 9.975-40.12-85.279 40.146-170.682 110.413-170.682 70.269 0 105.452 52.726 105.452 52.726s40.12-125.5 153.114-125.5zM408.789 615.794l114.855 98.85-115.823-10.272 287.075 168.45-113.888-117.659 115.722 16.003-166.214-155.075-121.728-.297z"/></svg>