<svg xmlns="http://www.w3.org/2000/svg" viewBox="0 0 853 1024"><path d="M454.825 327.308c10.271-20.564 25.521-34.522 26.979-66.647 0 0-113.553 4.676-107.96 101.897 0 0 56.917 12.855 80.981-35.249zm87.656 600.169s-4.489 6.509-8.342 9.165c-6.627 4.325-13.771 4.041-13.771 4.041h-38.845s-15.041 23.782-55.979 23.782c-40.96 0-58.209-25.897-58.209-25.897s-45.261 4.325-64.719-8.624c-6.511-4.301-12.291-16.804-12.291-16.804s2.562-8.342 3.103-9.634c2.115-5.499 2.396-11.022 3.5-16.896.729-3.668.543-7.238 2.116-10.646 1.362-2.937 5.146-6.793 7.895-9.071 2.468-1.927 6.321-5.241 9.071-7.074 6.252-4.041 12.597-6.345 18.377-11.022 6.04-4.864 17.531-16.073 17.531-16.073l-3.596-4.77s-8.881 5.968-10.175 6.885c-5.968 4.606-11.209 9.001-18.094 12.22-6.793 3.22-21.292 11.375-21.292 11.375s-2.843-3.22-4.582-5.876c-3.031-4.489-6.791-7.989-9.376-12.855-1.362-2.749-8.812-10.998-8.812-10.998l-2.845 3.572s7.897 16.614 8.366 19.929c.543 3.384 4.301 10.74 3.666 13.935-2.56 12.761-4.958 20.751-6.25 33.7-.541 5.874-2.186 10.644-2.186 10.644s-77.573-2.115-103.47-21.478c-25.781-19.458-32.314-51.77-32.314-51.77s6.533-15.065-15.039-15.065c-21.574 0-38.845-15.039-38.845-15.039C-1.311 699.267.875 578.547.875 578.547l32.312-32.312s12.948-21.574 4.325-32.314c-8.625-10.832-8.625-15.063-8.625-36.637 0-21.572 12.925-38.822 12.925-38.822 86.199-122.812 176.722-135.76 176.722-135.76s-83.99 75.365-83.99 245.647c0 170.281 125.022 267.313 269.43 267.313 144.384 0 204.78-79.689 204.78-79.689s99.147-137.969 40.962-191.855c-58.211-53.885-53.886-120.719-53.886-120.719-8.648 0-30.198 12.948-30.198 12.948-15.063-8.719-30.222-30.198-30.222-30.198-23.665 32.312-51.676 40.938-51.676 40.938l-17.249-12.926c-17.273 36.613-45.261 68.927-45.261 68.927-15.159 6.509-34.522-4.231-34.522-4.231-12.948 40.96 17.273 94.846 17.273 94.846-17.273 8.53-40.962 2.186-60.419-17.273-19.364-19.458-34.427-30.196-49.562-15.039-15.063 15.039-6.439 38.728-6.439 38.728-12.925-2.115-32.288-12.855-32.288-12.855-8.648 17.179-8.648 49.562-8.648 49.562-122.906-62.51-36.709-133.738-36.709-133.738 2.21-53.886 6.511-83.99 43.146-103.448 36.613-19.364 49.563-34.429 43.146-51.678-6.533-17.271-14.428-42.064 1.457-58.844 25.24-26.813 97.667-25.262 119.24-100.721 21.574-75.436 79.783-86.199 79.783-86.199-10.834 34.521 21.478 99.147 60.302 71.158 38.845-28.083 107.771-28.083 107.771-28.083-30.104 51.772-19.364 88.385-19.364 88.385 51.676-32.312 133.67 25.897 140.085 36.637 6.509 10.834 10.834 38.822 17.249 45.355 6.438 6.415 17.271 30.104 4.323 32.312-12.948 2.186-19.364 17.249 0 30.104 19.458 13.02 12.948 47.447 19.458 62.51 6.439 15.135 28.013 34.522 25.803 64.72-2.115 30.198-23.687 40.938-21.572 60.396 2.208 19.364-2.115 116.396-2.115 116.396-15.159-32.314-64.72-58.281-64.72-58.281s56.095 51.77 56.095 101.333c0 49.679-99.147 92.73-99.147 92.73-23.782 43.146-62.51 69.021-62.51 69.021s-45.261-2.21-64.719 6.439c-17.249 7.707-29.469 27.353-31.867 31.56 0 0-11.469-18.447-4.864-56.636 0 0-24.417 28.083-14.406 59.221z"/></svg>