<svg xmlns="http://www.w3.org/2000/svg" viewBox="0 0 1024 1024"><path d="M365.654 202.596c93.41 0 186.82-.036 280.23.036l-90.178 188.454c30.604 76.722 61.172 153.41 91.776 230.134-23.54.674-47.114.994-70.652 1.704 13.81 56.842 27.692 113.648 41.574 170.488-72.178-96.746-144.392-193.458-216.536-290.206 36.674.71 73.35 1.704 110.026 2.52-48.676-101.078-97.53-202.05-146.24-303.13zm302.1 208.3c30.002-57.126 59.93-114.286 90.074-171.376 93.658 45.586 166.902 126.996 210.82 220.69 27.338 57.552 45.764 119.258 55.102 182.276-23.468 4.794-45.8 17.93-58.404 38.736-19.314 30.71-19.918 68.982-15.48 103.848-43.1-.036-86.202-.036-129.304 0-2.84-74.736-11.752-150.252-37.42-220.904-22.154-60.676-59.398-118.938-115.388-153.27zm-535.892-62.7c37.456-42.426 83.08-77.752 133.92-102.712 30.036 57.41 60.072 114.82 90.038 172.3-62.842 36.746-100.582 103.99-121.884 171.59-20.344 64.828-28.048 132.89-30.428 200.524-43.172.07-86.308 0-129.48.036 4.58-35.184 3.798-73.92-16.12-104.63C45.304 665.032 23.292 652.25.25 647.492 16.902 538.78 58.548 431.418 131.862 348.196z"/></svg>