<svg xmlns="http://www.w3.org/2000/svg" viewBox="0 0 747 1024"><path d="M565.692 301.636c-74.66 26.303-121.04 34.022-200.202 33.471-77.875-.435-123.383-8.431-196.78-34.712-14.082-27.819-22.787-59.773-22.787-87.409h443.82c0 29.795-24.05 88.649-24.05 88.649zM476.95 674.497c70.432 37.053 116.192 91.177 116.192 157.037 0 9.694-.894 9.327-2.778 21.985h-91.889c-63.174-47.116-106.866-124.648-106.866-228.55l-.62-11.141s39.122 35.997 85.961 60.669zm-132.709-46.405c0 103.926-43.808 181.55-107.075 225.427H145.37c-1.975-9.419-2.963-9.074-2.963-18.93 0-65.792 45.945-119.982 116.215-156.877 47.116-24.672 86.054-63.976 86.054-63.976l-.437 14.356zm390.87-424.615v-78.336c0-5.49-4.296-9.969-9.786-9.969H10.227c-5.376 0-9.764 4.478-9.764 9.969v78.336c0 5.192 4.388 9.602 9.764 9.602H68.3l-.09 7.535c0 89.73 62.713 156.049 140.336 196.963 45.049 23.523 55.294 52.147 55.294 105.718 0 52.859-11.233 82.999-56.719 106.866-77.805 40.822-140.45 107.233-140.45 196.871 0 9.167.643 17.78 1.814 26.487H10.226c-5.374 0-9.762 4.478-9.762 9.854v78.45c0 5.282 4.388 9.67 9.762 9.67h715.1c5.49 0 9.786-4.388 9.786-9.67v-78.45c0-5.376-4.296-9.854-9.786-9.854h-59.66c.988-8.707 1.792-17.321 1.792-26.487 0-89.638-62.828-156.049-140.52-196.871-45.416-23.868-56.625-54.007-56.625-106.866 0-51.596 11.923-81.391 58.233-105.718 77.715-40.822 140.43-107.233 140.43-196.963l-.092-7.535h56.533c5.4 0 9.696-4.41 9.696-9.602z"/></svg>