<svg xmlns="http://www.w3.org/2000/svg" viewBox="0 0 17 17"><path d="M9.925 8.743c-.069.124-.218.479-.448 1.065s-.01 1.138.661 1.654c.888.835 1.136 1.946.746 3.333l-.012.042h.636c.183-.002.287.069.312.214.026.145.086.499.181 1.062.035.232-.076.35-.331.354-.383.006-6.246.617-11.057-3.884-.128-.13-.141-.249-.038-.358.103-.108.383-.381.84-.818.184-.18.351-.193.502-.037.15.157.29.292.42.404.352-1.202 1.316-1.934 2.893-2.196l.048-.008-3.202-.827h7.849zm-1.662 1.352c-.566 1.111-.722 2.18-.468 3.208.382 1.541 1.778 1.539 1.778 1.539.482-.907.318-1.802-.49-2.685-.603-.662-.877-1.35-.82-2.062zm-.954-.409c-.394.597-1.033.97-1.916 1.12-1.18.198-1.86.803-2.04 1.814 0 0 1.1.862 2.349-.118.832-.653 1.368-1.592 1.607-2.816zm8.654-5.264c.129.13.142.249.039.358-.104.108-.384.381-.84.818-.184.18-.351.193-.502.036a6.844 6.844 0 00-.42-.403c-.352 1.202-1.316 1.934-2.893 2.196l-.048.008 3.201.827H6.652c.068-.124.218-.479.447-1.065.23-.586.01-1.138-.66-1.654-.888-.835-1.137-1.946-.747-3.333l.012-.042h-.636c-.182.002-.286-.07-.312-.214a272.56 272.56 0 01-.18-1.062c-.035-.232.075-.35.33-.354.383-.006 6.247-.617 11.057 3.884zM7.27 2.268c-.398.71-.358 1.33.119 1.861.477.531 1.814 1.04 4.01 1.525.88.094 1.41-.36 1.591-1.364-1.659-1.148-3.566-1.821-5.72-2.022z" fill="#000" fill-rule="nonzero"/></svg>
