<svg xmlns="http://www.w3.org/2000/svg" viewBox="0 0 149 169.778"><path fill="#000" fill-rule="evenodd" d="m74.434 0-9.863 7.233v7.036l9.863-3.354 10.06 3.354V7.233L74.435 0Zm63.98 147.356-.987 8.548-62.993 13.874-62.861-13.874-.987-8.548 63.848 14.006 63.98-14.006ZM71.475 37.217v117.175l-55.102-12.099L7.299 56.68l64.176-19.463Zm6.181 0 63.98 19.595-8.812 85.481-55.168 12.099V37.217ZM88.9 85.35v20.186l14.466-.657.592-18.346L88.9 85.35Zm25.908-28.406-1.184 25.71 18.74 2.959 2.367-23.08-19.923-5.59Zm-81.207.92-18.412 5.129 2.236 21.83 17.36-2.695L33.6 57.864Zm51.222-9.14v29.984l23.672 3.288 1.184-26.433-24.856-6.839Zm-21.304.92L40.308 56.22l1.117 24.921 22.094-2.959V49.645ZM74.566 17.36 149 41.491l-1.052 10.718-73.382-22.356L1.052 52.209 0 41.491 74.566 17.36Z"/></svg>
