<svg xmlns="http://www.w3.org/2000/svg" viewBox="0 0 29 32"><path d="M12.827 4.718C11.48 3.372 10.147 2.01 8.799.667c-2.188 1.54-4.222 3.342-5.83 5.492C1.462 8.209.458 10.624.001 13.123c.009.007.018.016.028.02 1.061.45 3.037 1.631 3.843 3.166.699 1.226.709 2.673.67 4.045.593-.606 1.197-1.199 1.79-1.8-.63-.661-1.285-1.296-1.926-1.943.641-.647 1.292-1.29 1.928-1.945-1.323-1.329-2.645-2.656-3.962-3.991 2.341-2.346 4.673-4.704 7.01-7.056 1.153 1.149 2.292 2.311 3.443 3.464.004-.79 0-1.579.002-2.367zm-3.449.308c1.154 1.159 2.315 2.312 3.449 3.491v5.277c-1.859 1.881-.928.942-2.792 2.817 1.866 1.871.935.933 2.792 2.813v5.301a434.375 434.375 0 01-3.449 3.473 2493.068 2493.068 0 01-5.609-5.657c1.316-1.333 2.635-2.66 3.957-3.985-.628-.668-1.306-1.286-1.924-1.962.657-.624 1.281-1.283 1.924-1.924a1862.623 1862.623 0 00-3.962-3.989c1.874-1.883 3.743-3.772 5.615-5.655zm.011 15.564c-.653.643-1.289 1.304-1.939 1.949.635.661 1.29 1.3 1.938 1.949.649-.641 1.283-1.3 1.932-1.943-.634-.663-1.298-1.292-1.93-1.955zM9.382 8.733c-.643.652-1.293 1.297-1.938 1.947.647.647 1.296 1.292 1.934 1.949.649-.647 1.302-1.292 1.938-1.953-.643-.649-1.282-1.303-1.934-1.943zM2.951 23.242c-.322.333-.645.665-.975.992l8.655 8.433h2.195v-6.524c-1.154 1.149-2.293 2.312-3.449 3.459-2.143-2.121-4.276-4.248-6.427-6.36zm23.098 0c-2.151 2.112-4.284 4.239-6.427 6.36-1.156-1.147-2.295-2.31-3.449-3.459v6.524h2.195l8.655-8.433a70.113 70.113 0 01-.975-.992zM19.618 8.733c-.652.64-1.29 1.294-1.934 1.943.636.661 1.288 1.306 1.938 1.953.637-.657 1.287-1.302 1.934-1.949-.645-.65-1.295-1.295-1.938-1.947zM19.61 20.59c-.632.663-1.296 1.292-1.93 1.955.649.643 1.283 1.302 1.932 1.943.647-.649 1.302-1.288 1.938-1.949-.651-.645-1.287-1.306-1.939-1.949zm.012-15.564c1.872 1.883 3.741 3.772 5.615 5.655a1862.623 1862.623 0 00-3.962 3.989c.643.641 1.267 1.3 1.924 1.924-.618.676-1.296 1.294-1.924 1.962a1144.57 1144.57 0 013.957 3.985 2720.764 2720.764 0 01-5.609 5.657 451.687 451.687 0 01-3.449-3.473v-5.301c1.857-1.879.927-.942 2.792-2.813-1.864-1.875-.933-.936-2.792-2.817V8.517c1.134-1.18 2.295-2.332 3.449-3.491zm-3.449-.308c.002.788-.002 1.577.002 2.367 1.151-1.153 2.29-2.315 3.443-3.464 2.337 2.352 4.67 4.71 7.01 7.056-1.317 1.335-2.639 2.662-3.962 3.991.636.655 1.287 1.298 1.928 1.945-.641.647-1.296 1.282-1.926 1.943.593.601 1.197 1.193 1.79 1.8-.039-1.372-.029-2.819.67-4.045.806-1.535 2.782-2.716 3.843-3.166.011-.005.019-.014.028-.02-.457-2.499-1.461-4.915-2.968-6.965-1.608-2.15-3.643-3.952-5.83-5.492-1.349 1.343-2.682 2.704-4.028 4.051z"/></svg>
