<svg xmlns="http://www.w3.org/2000/svg" viewBox="0 0 32 32"><path d="M4.677 17.848c.922.022 1.753.399 2.481.945.39-.172.781-.344 1.171-.518a16.895 16.895 0 001.166 3.142c-.383.169-.768.338-1.151.51-.19 1.304-.867 2.613-2.108 3.189-1.684.898-3.951.055-4.727-1.663-.979-1.838-.211-4.407 1.713-5.276a2.96 2.96 0 01.752-.263c.171-.032.345-.043.518-.064h.185zm.38 1.632c-.402.03-.703.297-.856.659-.533.331-1.147.637-1.438 1.231-.16.281-.13.609-.132.92-.067.208-.197.39-.271.596.257.064.565.058.755.269.224.236.533.384.857.408.567.051 1.109-.162 1.624-.37.383.139.852.001 1.075-.344.179-.341.148-.751.021-1.103-.095-.221-.021-.458-.008-.686l.332.058c.032-.24.013-.48-.056-.712-.157.089-.31.187-.459.289a1.763 1.763 0 00-.377-.264c-.224-.404-.518-.824-.99-.948l-.078-.002zm21.839 0c.402.03.703.297.856.659.533.331 1.147.637 1.438 1.231.16.281.13.609.132.92.067.208.197.39.271.596-.257.064-.565.058-.755.269a1.325 1.325 0 01-.857.408c-.567.051-1.109-.162-1.624-.37-.383.139-.852.001-1.075-.345-.179-.341-.148-.751-.021-1.103.095-.221.021-.458.008-.686l-.332.058c-.032-.24-.013-.48.055-.712.157.089.31.187.459.289.114-.104.24-.193.377-.264.224-.404.518-.824.99-.948l.078-.001zm.557-1.635c-.17.008-.341.004-.51.024-.773.093-1.495.437-2.094.927-.489-.211-.974-.427-1.463-.64a14.626 14.626 0 01-1.002 3.209c.424.187.849.372 1.273.557.185 1.275.828 2.559 2.025 3.152 1.663.94 3.946.154 4.771-1.544 1.049-1.866.25-4.539-1.752-5.388-.41-.175-.796-.291-1.249-.298zm-15.93-1.605c-.955.398-1.913.794-2.863 1.203.383 2.119 1.223 4.217 2.746 5.776 2.179 2.306 6.166 2.585 8.597.521 1.848-1.577 2.756-3.995 3.019-6.361-.94.396-1.874.799-2.809 1.2-.877-.744-1.754-1.484-2.629-2.231-1.226.854-2.447 1.715-3.668 2.574-.799-.893-1.598-1.786-2.395-2.681zm.208-9.108c.135.609.502 1.117 1.151 1.239-.625.164-1.02.627-1.151 1.252-.13-.633-.513-1.106-1.163-1.236.638-.151 1.046-.612 1.163-1.255zm-.323 3.91c.068.003.138-.008.204.009.411.104.598.646.298.954-.479.536-1.244-.268-.802-.778a.557.557 0 01.299-.184zm-.031 2.633c.096.023.118.019.202.073.371.238.403.887-.062 1.024-.625.291-.992-.724-.443-1.033a.565.565 0 01.302-.064zm3.241-7.154c-1.905.008-3.811.003-5.716.003v3.241c.44-.003.88-.003 1.32-.003-.573 2.181-.789 4.461-.518 6.708.646-.268 1.291-.539 1.939-.807.739.828 1.476 1.655 2.22 2.481-1.265-3.8-.739-7.97.755-11.622zm3.782 7.337a779.676 779.676 0 00-4.618 2.028c.151.726.331 1.447.534 2.16 1.098-.763 2.189-1.533 3.282-2.304.148.117.445.349.596.466a36.21 36.21 0 00.206-2.35zm1.871-6.713c.122.635.513 1.083 1.145 1.231-.627.161-1.026.619-1.158 1.247-.104-.643-.523-1.085-1.145-1.244.64-.146 1.018-.606 1.158-1.234zm.204 3.884c.063.015.129.017.188.044.359.166.479.703.158.958-.497.578-1.275-.502-.645-.88a.49.49 0 01.3-.122zm.156 2.666c.053.006.107.005.159.018.242.059.423.259.393.515.114.401-.416.734-.76.539-.333-.174-.396-.64-.146-.914a.508.508 0 01.354-.158zm-.176 2.522c.044.01.09.015.132.031.239.088.415.331.335.587.055.45-.627.7-.88.338-.302-.271-.19-.828.216-.932.106-.031.042-.018.196-.025zm-3.073-9.694c1.27 3.155 1.877 6.661 1.19 10.029.573.487 1.145.976 1.721 1.458.633-.268 1.265-.536 1.898-.807.411-2.475.219-5.018-.409-7.442h1.322c-.003-1.078 0-2.158 0-3.235-1.908-.003-3.813 0-5.721-.003zm10.923.925l-.152.002c-.397.045-.693.072-1.064.245-1.382.534-2.189 1.947-2.345 3.371-.687.299-1.372.601-2.059.903.133 1.192.174 2.395.128 3.595 1.057-.469 2.116-.929 3.173-1.4 1.007.773 2.374 1.171 3.595.677 1.296-.445 2.101-1.687 2.421-2.965-1.052.437-2.087.911-3.129 1.372-.661-.45-1.32-.901-1.978-1.354.146-.815.286-1.629.432-2.444 1.044-.466 2.095-.914 3.129-1.4-.675-.33-1.388-.599-2.149-.601zm-24.618 0l-.208.007c-.149.019-.299.029-.447.055a5.047 5.047 0 00-1.484.54c1.033.484 2.085.934 3.129 1.4l.429 2.442c-.659.453-1.317.903-1.973 1.356-1.044-.463-2.082-.932-3.134-1.38.32 1.197 1.007 2.387 2.199 2.879 1.26.614 2.749.247 3.813-.58 1.054.461 2.108.921 3.16 1.393-.057-1.2-.01-2.405.135-3.597-.685-.299-1.367-.601-2.051-.901-.156-1.382-.914-2.759-2.239-3.321-.426-.175-.865-.303-1.332-.293zm9.918 6.407c.029.513.065 1.026.107 1.538.567-.245 1.135-.497 1.702-.747-.604-.263-1.205-.528-1.809-.791z"/></svg>
