<svg xmlns="http://www.w3.org/2000/svg" viewBox="0 0 896 1024"><path d="M808.594 81.548v.002l.002.002h-.002l.186 4.868c.338 6.228.32 12.46.376 18.69-1.282 47.368.324 95.95-.754 143.384-.736 32.442 4.212 56.79-4.424 84.792-11.414 3.55-26.456 4.602-38.256 5.544 3.292 34.842 9.064 69.384 11.244 104.268 1.794 20.094 2.052 41.812 13.766 59.21 6.112 9.962 16.8 15.734 27.616 19.368 13.168 4.188 26.334 8.592 39.416 13.082-.256 2.052.036 5.866-.264 7.96l-4.358 1.652c-34.88 12.618-69.08 37.456-78.742 75.076-11.798 46.258-22.316 93.37-43.008 136.718C703.776 813.152 664.36 865.18 613.7 903.528c-47.07 32.96-104.228 49.42-161.044 54.208-63.186 3.42-128.808-4.96-185.326-34.8-25.778-13.21-47.026-33.132-70.026-50.404-19.58-16.372-33.944-37.834-47.624-59.08-32.406-52.798-51.772-112.82-61.434-173.742-2.736-20.606-8.934-41.766-22.786-57.756C47.034 561.946 28.154 548.95 4 536.68c1.334-2.556-1.234-6.636.936-8.016 6.87-4.368 17.408-4.326 24.784-7.672 22.83-5.002 45.572-18.726 51.386-42.88 7.482-26.292 7.61-53.824 12.826-80.5 3.976-20.564 6.67-41.34 6.328-62.288-11.116-1.112-22.188-2.31-33.304-3.506-3.036-34.072-.214-68.274-.77-102.432.684-46.854-.42-98.442 2.614-145.212 33.988-3.932 69.376-.776 103.988-1.014 80.888-.558 159.438-.922 240.324.446-2.138 35.312-14.92 68.402-25.652 101.704-28.942 105.98-57.756 213.028-64.638 323.156 0 49.078 1.11 102.944 30.652 144.498 9.96 13.808 21.376 27.616 37.364 34.628 32.79 13.552 73.96 7.054 98.84-19.024 27.96-29.584 38.348-70.71 44.462-109.784 8.422-87.64-5.986-175.366-24.026-260.868-13.852-72.762-34.886-143.856-51.858-215.85 158.04-.872 34.226-.364 262.748-.39 29.198-.032 58.394-.078 87.59-.124v-.004zM636.5 104.328l-148.196.432c23.434 87.646 45.578 175.928 58.874 265.79 4.832 36.938 11.842 73.704 11.33 111.068-.598 36.508 2.95 73.66-6.584 109.356-8.636 40.914-26.762 82.638-61.818 107.562-38.518 27.404-94.95 27.318-131.802-3.036-33.816-27.788-48.436-71.564-54.636-113.504-8.764-65.792.514-132.442 12.098-197.338 16.888-94.224 42.966-186.438 70.284-278.01-98.498.042-197.04-.17-295.582.128-4.872 27.832-1.238 56.176-2.436 84.22-2.308 40.314.386 80.714-2.436 121.028 15.006.514 30.054.556 45.102.856-9.918 42.922-17.228 86.528-22.444 130.262-.514 23.812-4.36 48.822-18.682 68.53-7.824 11.5-20.222 18.426-30.396 27.488 31.294 20.222 46.17 57.074 51.6 92.6 13.424 83.962 45.188 169.25 108.672 228.246 48.054 47.07 115.172 71.266 181.65 74.558 66.734 4.618 136.076-9.662 192.594-46.512 67.332-43.778 111.238-115.898 135.178-191.268 14.364-40.272 15.99-85.204 39.63-121.926 8.294-13.938 21.376-23.856 34.372-33.132-10.43-6.542-21.888-12.526-28.644-23.258-17.74-25.65-20.99-57.798-20.948-88.108-4.444-39.332-8.634-78.792-17.186-117.48 14.11-.428 32.31-.89 46.502-.976 2.18-10.346.996-20.358.91-31.046-.256-58.696.47-117.394 1.196-176.09l-148.202-.44zm6.29 42.798l99.242.342c-.678 40.792-.636 81.576-.764 122.36-18.64-.084-37.236-.128-55.876.256 17.998 80.716 29.114 163.054 30.098 245.734-2.394 91.616-19.366 186.78-71.78 263.944-38.946 59.212-99.866 103.106-170.534 111.826-74.344 11.202-159.29-4.862-217.302-55.18-63.4-54.38-93.498-137.274-105.254-217.946-11.842-93.11-2.224-187.59 16.672-279.12 4.148-23.086 11.714-45.488 14.536-68.786-17.614-.086-35.226-.044-52.84-.086.042-40.87 1.752-81.74.684-122.654 67.034-1.452 134.152-.384 201.272-.47-25.608 81.484-44.888 164.892-59.552 248.982-13.808 82.768-23.684 170.536 5.814 251.164 15.39 44.29 46.898 85.458 91.872 102.26 26.078 12.226 56.74 10.342 84.614 9.658 43.52-6.542 81.56-35.736 104.644-73.016 25.394-40.912 37.664-88.878 42.238-136.418-.042-39.8 2.608-79.986-3.89-119.446-8.55-95.89-31.122-189.772-53.096-283.226l99.202-.178zM433.554 803.088c-14.92.002-27.016 12.098-27.016 27.018 0 14.922 12.096 27.018 27.018 27.018 14.92 0 27.016-12.096 27.016-27.018 0-14.92-12.096-27.016-27.016-27.016l-.002-.002zm-122.512-18.902c9.766 14.96 21.182 28.788 34.76 40.428 32.32 24.704 53.824 32.51 53.824 32.51s-6.274-8.176-6.644-30.652c.742-13.002 7.114-25.736 7.114-25.736s-26.06-1.01-51.878-6.026c-12.52-2.766-25.434-5.152-37.174-10.522zm242.866 0c.002.002-11.354 5.51-37.172 10.524-25.818 5.016-51.88 6.026-51.88 6.026s6.372 12.734 7.116 25.736c-.372 22.476-6.644 30.652-6.646 30.652.002 0 21.506-7.806 53.824-32.51 17.136-13.096 34.76-40.426 34.76-40.426l-.002-.002zm51.232-83.412c-14.922 0-27.018 12.096-27.018 27.016 0 14.922 12.096 27.018 27.018 27.018 14.92 0 27.016-12.096 27.016-27.018 0-14.92-12.096-27.016-27.016-27.016zm-358.372-.288c-14.92.002-27.016 12.098-27.018 27.02.002 14.922 12.098 27.018 27.018 27.018 14.922 0 27.018-12.096 27.018-27.018s-12.096-27.018-27.018-27.018v-.002zm402.43-121.696c-14.92 0-27.016 12.096-27.018 27.018.002 14.922 12.098 27.018 27.018 27.016 14.922.002 27.018-12.094 27.018-27.016s-12.096-27.018-27.018-27.018zm-442.616-2.282c-14.92.002-27.016 12.098-27.016 27.02s12.096 27.018 27.016 27.018c14.922 0 27.018-12.096 27.018-27.018s-12.096-27.018-27.018-27.018v-.002zm452.592-125.97c-14.922 0-27.018 12.096-27.018 27.016 0 14.922 12.096 27.018 27.018 27.018 14.92 0 27.016-12.096 27.016-27.018 0-14.92-12.096-27.016-27.016-27.016zm-456.868-2.284c-14.92.004-27.016 12.1-27.016 27.02 0 14.922 12.096 27.018 27.018 27.018 14.92 0 27.016-12.096 27.016-27.018 0-14.92-12.096-27.016-27.016-27.016l-.002-.004zm18.586-120.044c-14.918.002-27.014 12.098-27.014 27.02 0 14.92 12.096 27.016 27.016 27.016 14.922 0 27.018-12.096 27.018-27.016 0-14.922-12.096-27.018-27.018-27.018l-.002-.002zm425.456-.226c-14.92 0-27.018 12.096-27.018 27.018s12.098 27.018 27.018 27.016c14.922.002 27.018-12.094 27.018-27.016s-12.096-27.018-27.018-27.018zm-11.894-157.03l-13.06 32.232-32.292 13.12 31.518 14.122 13.09 30.484 13.688-30.638 31.664-14.714-31.51-12.684-13.098-31.922zm-401.838-.156l-13.06 32.234-32.292 13.118 31.518 14.124 13.09 30.484 13.686-30.64 31.666-14.712-31.51-12.684-13.098-31.924z"/></svg>