<svg xmlns="http://www.w3.org/2000/svg" viewBox="0 0 912 1024"><path d="M523.023 94.711c41.385-.258 91.354 9.322 125.804 33.183l258.355 2.434-63.053 249.416c0 .002 51.946 133.166-85.46 270.572 0 0 60.402-137.405 4.217-262.282 0 0-131.19 35.369-243.562 199.808-112.372 164.511-37.466 318.565 151.909 278.955 0 0-97.795 62.498-241.417 62.498-143.526 0-258.067-79.075-332.972-166.511l-5.927-7.421C25.021 660.966-22.877 530.33 13.071 391.311c35.971-139.092 120.852-218.143 120.852-218.143C48.271 346.617 178.617 457.76 365.92 390.106c187.375-67.68 254.476-185.786 254.476-185.786-106.904-85.652-254.957-61.655-254.957-61.655 48.319-29.07 101.275-45.841 157.583-47.952zm107.734 67.637l49.705 36.14L267.86 611.09l515-278.595 25.586 43.682 51.2-212.337-228.89-1.493z"/></svg>