<svg xmlns="http://www.w3.org/2000/svg" viewBox="0 0 720 1024"><path d="M360.407 982.822c186.003 0 262.05-93.687 262.05-93.687l-70.589-112.647s-80.032 61.07-188.694 61.07c-108.663 0-213.164-58.38-213.164-58.38L87.544 893.197s86.859 89.626 272.864 89.626zm-52.949-435.869c-64.345-17.058-104.499-40.637-153.487-119.477-44.826-72.264-18.251-205.041-18.251-205.041s-71.274 57.11-71.274 171.129c0 114.019 97.748 242.328 266.796 242.328s228.064-146.635 228.064-226.057c0-79.829-64.65-144.555-144.58-144.555-79.904 0-144.655 64.725-144.655 144.555 0 51.652 28.657 104.093 67.823 122.547 10.102 4.772 16.753 27.158-30.435 14.57zm395.41-154.379c0 194.051-157.245 351.295-351.295 351.295C157.549 743.869.278 586.625.278 392.574c0-194.024 157.271-351.396 351.295-351.396 194.05 0 351.295 157.372 351.295 351.396z"/></svg>