<svg xmlns="http://www.w3.org/2000/svg" viewBox="0 0 928 1024"><path d="M388.077 275.011c-24.689 99.229-28.206 125.034-43.343 129.026-14.186 3.802-40.276-34.241-70.525-78.604-38.637-56.624-80.386-121.516-106.856-149.176 0 0 1.213 74.636 10.027 155.213 11.24 102.46 29.703 216.801 16.159 225.807C169.303 573.434 21.171 396.98 0 389.923c0 0 72.591 282.266 108.805 334.708 0 0 167.426-14.092 227.85-36.285 0 0 18.843-35.642 43.366-114.912 24.497-79.268 53.463-217.752 75.633-217.752 22.193 0 51.159 138.484 75.658 217.752 24.497 79.27 43.341 114.912 43.341 114.912 60.426 22.193 227.874 36.285 227.874 36.285 36.19-52.442 108.781-334.708 108.781-334.708-21.076 7.057-169.301 183.511-193.538 167.354-13.544-9.006 4.919-123.348 16.157-225.807 8.911-80.577 10.122-155.213 10.122-155.213-26.542 27.66-68.314 92.553-106.928 149.176-30.249 44.363-56.339 82.406-70.548 78.604-15.136-3.992-17.084-30.249-43.341-129.026-26.185-98.755-67.579-215.709-67.579-215.709s-43.056 117.239-67.577 215.709zm427.544 603.904s16.135 24.212 11.049 58.477c0 0-13.092-1.021-30.273-19.222-17.084-18.108-42.319-40.277-42.319-40.277H508.096s-15.113 12.047-23.192 25.235c-8.078 13.094-20.149 27.208-29.251 33.242-9.1-6.035-21.147-20.149-29.227-33.242-8.079-13.187-23.216-25.235-23.216-25.235H157.254s-25.259 22.17-42.344 40.277c-17.155 18.2-30.249 19.222-30.249 19.222-5.012-34.265 11.049-58.477 11.049-58.477-46.31-66.557-32.577-106.571-32.577-106.571 241.966-6.678 307.785-10.67 319.952-22.835 12.047-12.071 13.449-26.827 32.196-88.726 18.843-61.829 40.371-102.105 40.371-102.105s21.813 40.182 40.371 102.105c18.582 61.899 20.151 76.655 32.222 88.726 12.165 12.165 77.962 16.157 319.951 22.835 0 0 13.735 40.015-32.577 106.571z"/></svg>