<svg xmlns="http://www.w3.org/2000/svg" viewBox="0 0 960 1024"><path d="M398.875 281.74c44.09 0 85.782 10.221 122.889 28.373 1.975-11.576 3.058-23.489 3.058-35.68 0-36.547-9.322-70.745-25.515-100.047-32.082-8.342-65.741-12.791-100.432-12.791C179.017 161.595.79 339.853.79 559.75c0 87.301 28.112 168.023 75.745 233.643 16.879-39.274 42.426-73.917 74.189-101.618-20.364-38.832-31.942-82.997-31.942-129.888 0-154.72 125.402-280.148 280.093-280.148zm201.663-79.983c8.356 22.487 12.989 46.995 12.989 72.675 0 32.548-7.412 63.212-20.463 90.237a114.916 114.916 0 0 1 15.737 28.797c20.538 54.931-3.628 114.744-53.978 133.699-13.332-78.589-81.686-138.453-164.058-138.453-91.924 0-166.449 74.535-166.449 166.48 0 63.222 35.234 118.209 87.127 146.406-86.059 10.462-157.281 74.889-175.411 160.807h818.912c-4.031-365.882-116.241-567.636-354.405-660.647z"/></svg>