<svg xmlns="http://www.w3.org/2000/svg" viewBox="0 0 864 1024"><path d="M426.667 82.603c235.609 0 426.588 192.268 426.516 429.397.072 237.129-190.908 429.397-426.516 429.397S.079 749.129.151 512C.079 274.871 191.059 82.603 426.667 82.603zM605.46 279.777c-108.38-1.971-156.508 145.744-151.982 236.209 4.736 94.664 41.871 222.244 156.831 222.355 107.45.108 155.005-145.923 155.445-228.589.722-135.267-62.561-228.198-160.294-229.975zm.693 43.817c61.09-.35 79.976 115.601 82.534 188.928 2.417 69.265-8.781 190.645-77.686 185.467-60.65-4.557-78.995-112.382-79.764-184.081-.654-60.865 1.601-189.896 74.916-190.314zm-325.058-39.35c-14.346.553-14.176.029-28.358 2.654-71.089 13.153-121.117 79.838-140.08 145.582l39.185 15.674c26.32-74.155 84.579-111.805 128.167-95.77 29.996 11.035 67.618 54.548 40.818 113.403-19.608 43.063-136.018 155.138-209.64 233.643l.49 32.328 281.644.49 33.797-122.453h-38.207c-10.689 36.535-29.906 48.555-50.941 55.349l-138.127-1.469c59.824-71.914 130.057-107.488 174.863-162.62 44.838-55.166 32.125-143.452-7.837-180.741-23.938-21.547-53.166-35.545-85.775-36.069z"/></svg>