<svg xmlns="http://www.w3.org/2000/svg" viewBox="0 0 1008 1024"><path d="M126.046 210.736C252.481 85.156 459.663 65 615.54 144.893c4.886 109.821 8.794 219.52 15.025 329.219-110.31-53.262-212.436-122.037-323.113-174.322 81.969 106.4 179.82 199.731 264.11 304.422-125.459 2.444-250.305 14.904-375.641 18.569 23.088 23.211 57.293 20.767 87.1 26.875 88.566 14.415 177.132 29.44 265.696 44.465-55.46 61.203-127.29 104.692-181.407 167.115 93.331-28.952 182.385-69.632 274.859-101.27-2.565 35.915-5.618 71.83-7.572 107.744-105.912 60.959-237.112 76.351-353.529 37.992-90.643-28.708-170.658-90.764-219.278-172.733-101.514-160.761-76.471-392.009 64.256-522.231zm533.837-38.358c55.706 42.877 105.912 97.483 130.345 164.304-6.596 47.031-44.832 83.678-69.876 123.015-18.934-96.019-41.533-191.302-60.469-287.319zm91.131 409.845c20.035-57.416 39.946-115.318 71.098-167.724 6.961 46.543 9.528 93.573 6.352 140.605-25.776 8.917-51.552 18.202-77.45 27.119zm-51.062 61.812c100.048.49 200.096-5.618 300.023-.976-55.706 28.097-113.731 51.306-168.946 80.258 29.317 45.689 60.102 90.522 86.489 137.919-46.054-21.989-91.498-45.322-138.774-64.623-14.903 39.214-27.851 79.404-44.099 118.129-12.827-90.032-25.409-180.185-34.693-270.706z"/></svg>