<svg xmlns="http://www.w3.org/2000/svg" viewBox="0 0 1024 1024"><path d="M614.834 235.674c21.412-12.17 46.744-13.408 70.756-14.688 105.124-2.144 208.474 26.57 313.68 21.744-29.912 33.088-65.27 61.308-104.092 83.298-16.752 8.912-34.286 18.154-53.552 19.598-22.198 0-44.27-3.054-66.466-3.466 63.288 31.438 127.692 60.73 191.392 91.426 19.186 9.612 39.608 16.874 57.76 28.384-43.856 16.586-89.692 30.284-136.974 31.232-19.804-.33-39.482-4.496-57.306-13.242-106.278 107.474-211.898 215.61-318.094 323.168-106.692-107.062-212.392-215.074-318.342-322.88-20.092 10.108-42.742 14.028-65.104 12.996-40.762-1.98-80.368-13.408-118.49-27.312a46.024 46.024 0 0 1-10.314-5.528c83.174-39.236 166.72-77.854 249.234-118.368-22.402.33-44.64 3.672-67.042 3.466-17.204-.99-32.882-9.118-47.942-16.834-40.184-21.66-75.582-51.2-107.558-83.586 82.474 3.01 164.04-12.502 246.224-16.38 37.628-1.486 77.11-3.92 112.84 10.15 18.896 6.806 31.892 27.23 26.156 47.28-12.336 58.71-41.092 112.426-69.642 164.616 56.316 61.556 113.376 122.452 169.938 183.844 57.102-61.144 113.994-122.576 170.764-184.05-28.672-41.916-55.778-85.36-75.458-132.312-6.19-15.884-12.542-32.262-13.038-49.468-.536-13.944 8.912-26.528 20.67-33.088z"/></svg>