<svg xmlns="http://www.w3.org/2000/svg" viewBox="0 0 812 1024"><path d="M253.002 106.428c25.458-.028 50.886-.028 76.344 0 .028 22.454 0 44.908 0 67.39h76.486c.058-22.482 0-44.936.03-67.39 26.772-.028 53.518-.028 80.262 0l.028 67.39c25.858-.028 51.688.028 77.546-.028l.028-67.362c26.63-.028 53.26-.028 79.92 0 0 22.454-.03 44.908 0 67.39h75.084c0-22.482-.028-44.936 0-67.39 26.202-.028 52.432 0 78.66 0 .03 38.93 0 77.86 0 116.818-20.164 19.108-40.36 38.186-60.554 57.264-3.518 3.004-3.632 7.982-4.834 12.128-7.322 35.44-10.068 71.882-8.438 108.038 3.948 50.942 16.018 100.828 28.748 150.198 10.354 39.502 22.252 78.604 35.554 117.19 13.7 40.474 25.514 82.78 22.596 125.972-1.772 32.38-12.928 65.76-37.184 88.214-22.798 21.396-54.29 30.092-84.64 33.638-42.762 4.692-85.638-1.372-128.23-5.234-167.676-16.362-335.438-32.036-503.056-48.656-36.842-25.142-65.99-71.252-53.204-117.076 6.58-24.828 22.484-45.966 40.446-63.814 184.352 6.036 368.676 12.214 553.028 18.306 26.944.83 54.146 3.26 79.918 11.67-33.18 3.062-66.532 13.558-93.306 33.868-16.418 12.614-28.66 32.008-28.432 53.232.23 29.032 16.648 56.092 38.73 74.112 22.94 18.678 54.148 24.198 82.922 20.338 21.224-2.232 41.906-11.014 57.208-26.058 24.142-23.57 35.212-58.41 33.582-91.676-1.058-24.714-12.816-48.77-31.952-64.502-21.366-17.762-48.712-26.058-75.57-31.206-26.746-5.006-53.948-6.722-81.092-7.896.028-65.646-.028-131.32.028-196.966-23.168-24.542-46.566-48.912-69.764-73.454-23.256 24.398-46.482 48.826-69.708 73.254 0 64.644.028 129.318 0 193.962-72.94-1.544-145.852-3.032-218.792-4.176 13.788-8.152 26.488-18.42 35.526-31.778 22.112-31.894 32.466-70.136 40.39-107.666 15.502-79.546 17.792-161.01 16.962-241.874-20.424-20.022-40.904-39.958-61.27-60.01.028-38.73 0-77.43 0-116.16zm401.912 635.548c14.474 7.324 32.294 10.898 41.992 25.172 9.868 13.844 14.102 35.468 1.516 48.998-11.47 11.842-29.206 7.78-43.822 7.438-17.22 3.26-33.638 10.01-48.912 18.534 19.794 21.082 50.628 32.008 79.146 25.716 41.048-9.668 68.22-57.694 54.862-97.796-11.326-32.78-56.12-47.712-84.782-28.062zm-66.274 38.558c-5.148 12.844-2.488 27.146 1.23 40.018 25.544-17.106 54.634-28.834 85.04-33.638-13.988-15.074-33.496-27.574-54.864-25.916-12.528 1.23-26.458 7.066-31.406 19.536z"/></svg>