<svg viewBox="0 0 40 40" xmlns="http://www.w3.org/2000/svg"><path d="M9.68 33.51C12.54 35.7 16.12 37 20 37c9.39 0 17-7.61 17-17 0-4.917-2.087-9.346-5.424-12.45-7.488-3.92-7.453-2.216.104 5.112-10.472-5.462-16.223-3.57-14.916-2.546 7.957 2.285 12.577 10.39 11.97 9.91-13.17-8.08-19.002-3.593-17.455-2.857 7.484.517 11.776 6.855 10.768 6.855-12.977-5.323-14.632-.718-13.506.52 8.245 1.52 9.213 5.867 8.674 5.867-6.213-2.99-8.725-1.958-7.536 3.098zM20 40C8.954 40 0 31.046 0 20S8.954 0 20 0s20 8.954 20 20-8.954 20-20 20z" fill-rule="evenodd"/></svg>
