<svg xmlns="http://www.w3.org/2000/svg" viewBox="0 0 1024 1024"><path d="M1013.608 424.451l-73.96 33.328h-57.573L703.3 739.69 594.437 842.131l29.442-260.516 165.787-276.347 88.18 62.812 135.762 56.371zM456.201 543.365l21.741 36.243 2.922 25.844 31.135 275.49 34.06-301.338 150.625-251.078 92.988-23.265-107.728-76.733-45.65-85.472-124.295 209.121-124.295-209.113-45.65 85.472-107.728 76.728 92.986 23.267 128.889 214.833zm-221.876-238.1l-88.18 62.81-135.753 56.376 73.96 33.328h57.573L320.7 739.69l108.863 102.441-29.442-260.516-165.796-276.35z"/></svg>