<svg xmlns="http://www.w3.org/2000/svg" viewBox="0 0 35 42"><path d="m21.062 0 .371.243.724.464c.118.075.236.148.352.22l.687.419.334.198.65.376.317.178.614.337.59.312.566.289.543.266.52.246.497.225.473.207.667.278.417.166.583.223 1.017.365.94.33.325.122.19.077.169.077.077.038.138.077c.022.012.042.025.062.038l.109.08c.279.231.318.505.135.95l-.073.163c-.556 3.819-.205 6.865 1.053 9.137-5.098 4.593-5.996 8.089-2.693 10.489l-.562.735-.801 1.027-.852 1.069-.893 1.097-.923 1.114-.469.558-.948 1.113-.715.825-.949 1.077-.703.782-.69.755-.675.723-.653.684-.628.641-.403.4-.388.378-.372.352-.355.325-.337.298-.317.267c-.102.084-.201.163-.296.236l-.274.203c-.525.372-.908.537-1.104.436l-.053.02c-.233.058-.664-.158-1.24-.587l-.3-.232-.323-.266-.344-.298c-.06-.052-.12-.105-.18-.16l-.567-.524-.4-.383-.63-.62-.658-.672-.685-.715-.469-.499-.958-1.042-.733-.813-.74-.834-.74-.849-.737-.858-.729-.861-.95-1.143-.916-1.124-.87-1.09-.813-1.045-.381-.5C5.996 24.19 5.098 20.694 0 16.1c1.258-2.272 1.609-5.318 1.053-9.137L.98 6.8c-.215-.522-.122-.81.306-1.067l.14-.077.158-.076.18-.077.2-.08.727-.26L3.78 4.78l.744-.277.405-.159.428-.173.451-.19.473-.207.497-.225.52-.246.542-.266.567-.289c.193-.1.39-.204.59-.312l.614-.337c.105-.058.21-.117.316-.178l.65-.376.675-.404c.229-.14.462-.284.7-.433l.723-.464c.122-.08.246-.16.37-.243-.553 3.054.703 5.779 3.77 8.175l.293.224c3.207-2.45 4.524-5.25 3.953-8.399ZM8.35 14.841l-.038.269-.034.28c-.037.326-.064.657-.085.982l-.015.278c-.03.598-.039 1.17-.04 1.66V19.19c0 1.794 2.12 5.55 6.357 11.268-1.651-5.493-1.651-10.618 0-15.375-4.3-5.464-5.695-3.219-6.145-.242Zm10.787.242c1.652 4.757 1.652 9.882 0 15.375 4.238-5.718 6.357-9.474 6.357-11.268V18.737l.001-.102v-.214c0-.33-.003-.702-.014-1.096l-.009-.266a22.709 22.709 0 0 0-.102-1.53l-.032-.28c-.385-3.166-1.706-5.877-6.2-.166Z" fill="#000" fill-rule="evenodd"/></svg>
