<svg xmlns="http://www.w3.org/2000/svg" viewBox="0 0 1024 1024"><path d="M71.872 251.174c293.026.578 585.97-.082 878.996.33 50.86 103.126 81.906 221.36 61.264 336.374-11.642 63.988-31.622 126.656-61.264 184.618-293.026.412-585.97-.248-878.996.33C17.626 663.756-10.942 536.934 15.23 416.14c12.386-56.888 29.23-113.362 56.642-164.966zm19.898 32.448c-20.56 48.55-40.21 98.088-47.972 150.6-17.42 104.282 3.22 211.288 47.972 306.156 280.228 1.32 560.458 1.238 840.686.082 23.532-54.906 45.082-111.63 50.86-171.49 12.386-97.922-9.33-196.754-50.778-285.43-280.31-1.156-560.54-1.238-840.768.082zm645.004 176.362c32.366-56.888 97.594-88.016 161.664-88.594-.99 3.634-3.136 10.898-4.21 14.532-22.458 6.852-47.558 9-66.136 24.934-26.338 19.652-37.898 51.686-46.402 82.154 28.156-9.248 59.696-18.164 88.098-4.458 50.862 21.054 62.42 93.134 30.22 134.664-41.448 57.136-144.326 48.054-173.142-17.174-20.228-46.484-15.522-102.546 9.908-146.058zm-190.81-31.87c37.982-14.616 74.228-33.44 107.172-57.55 1.156 77.448-1.074 154.976.99 232.424-1.734 28.154 23.944 42.604 44.668 54.906-50.778-1.982-101.556.166-152.252-1.568 15.524-7.514 31.706-13.872 47.806-20.146.33-68.778.166-137.556.084-206.416-16.184-.412-32.366-.742-48.468-1.65zm-432.81-114.19c-57.384 124.18-57.962 271.972-.99 396.482 266.274.248 532.55.66 798.742-.248 54.494-117.574 58.87-257.606 7.348-377.078-78.436-10.486-157.948-.33-234.652 17.174-109.07 25.76-213.02 71.006-309.374 127.812 41.53.082 83.392-7.102 124.756-.578-47.31 23.696-101.886 26.586-151.672 43.594 45.162 31.788 100.316 49.87 139.948 88.676-55.98-13.706-107.252-41.282-161.994-58.952 19.072 44.834 45.412 86.53 60.52 133.096-43.016-30.88-65.308-82.152-99.492-121.62-30.136 44.916-47.722 100.484-88.674 136.812 10.816-50.448 33.026-97.51 46.814-147.132-52.678 16.43-102.134 43.264-156.544 53.998 41.2-37.402 92.39-61.512 138.874-91.73-44.668-27.578-98.004-41.944-137.224-77.53 51.522 8.586 100.484 27.99 151.262 39.962-14.78-43.1-35.504-84.052-46.898-128.308 39.796 27.99 58.126 76.786 88.924 113.612 18.164-34.678 34.676-70.182 52.842-104.942 4.376-9.744 11.972-17.174 20.888-22.872-4.54 38.312-17.338 74.888-25.182 112.538 115.922-65.97 243.652-112.124 376.006-129.958-55.402-5.368-111.052-2.808-166.536-3.386-142.592.414-285.1-.742-427.692.578zM781.03 501.596c-1.568 40.046-4.872 82.732 12.55 120.052 8.174 20.558 40.044 25.76 51.686 5.532 17.586-30.054 14.12-69.026 2.148-100.484-10.818-26.502-42.77-24.604-66.384-25.1z"/></svg>