<svg xmlns="http://www.w3.org/2000/svg" viewBox="0 0 1024 1024"><path d="M291.628 251.412c512.736-.06 292.988-.148 659.24.092 50.86 103.126 81.906 221.36 61.264 336.374-11.642 63.988-31.622 126.656-61.264 184.618-293.026.412-585.97-.248-878.996.33C17.626 663.756-10.942 536.934 15.23 416.14c12.386-56.886 29.23-113.362 56.642-164.966l219.756.238zm89.38 31.38c-96.414.032-192.826.494-289.238.83-20.56 48.55-40.21 98.088-47.972 150.6-17.42 104.282 3.22 211.288 47.972 306.156 280.228 1.32 560.458 1.238 840.686.082 23.532-54.906 45.08-111.63 50.86-171.49 12.386-97.922-9.33-196.754-50.778-285.43l-210.218-.66c-113.772.026-227.542-.06-341.312-.088zm222.306 30.464c39.596.188 43.726-.264 83.28 1.812 6.942.366 13.858 1.11 20.788 1.664-132.354 17.834-260.084 63.988-376.006 129.958 7.844-37.65 20.642-74.226 25.182-112.538-8.916 5.698-16.512 13.128-20.888 22.872-18.166 34.76-34.678 70.264-52.844 104.942-30.796-36.826-49.126-85.622-88.922-113.612 11.394 44.256 32.118 85.208 46.896 128.308-50.776-11.972-99.738-31.376-151.26-39.962 39.22 35.586 92.556 49.952 137.224 77.53-46.484 30.218-97.674 54.328-138.876 91.73 54.412-10.734 103.868-37.568 156.546-53.998-13.788 49.622-35.998 96.684-46.814 147.132 40.952-36.328 58.538-91.896 88.674-136.812 34.184 39.468 56.476 90.74 99.492 121.62-15.108-46.566-41.448-88.262-60.52-133.096 54.742 17.67 106.014 45.246 161.994 58.952-39.632-38.806-94.786-56.888-139.948-88.676 49.786-17.008 104.362-19.898 151.672-43.594-41.364-6.524-83.226.66-124.756.578 96.354-56.806 200.304-102.052 309.374-127.812 76.704-17.504 156.216-27.66 234.652-17.174 51.522 119.472 47.146 259.504-7.348 377.078-266.192.908-532.468.496-798.742.248-56.972-124.51-56.394-272.302.99-396.482 142.592-1.32 285.1-.164 427.692-.578 34.698.152 13.876.122 62.468-.09zM896.094 370H714.178v93.478h1.552q14.934-51.782 57.6-51.782h81.066L740.36 656.836l.776 1.164q25.6-9.89 64.388-9.89l90.958-276.752-.388-1.358zm-242.958.564c-32.944 24.11-69.19 42.934-107.172 57.55 16.102.908 32.284 1.238 48.466 1.65.084 68.86.248 137.638-.082 206.416-16.1 6.274-32.282 12.632-47.806 20.146 50.696 1.734 101.474-.414 152.252 1.568-20.724-12.302-46.402-26.752-44.668-54.906-2.064-77.448.166-154.976-.99-232.424z"/></svg>