<svg xmlns="http://www.w3.org/2000/svg" viewBox="0 0 148.632 161"><path fill="#000" fill-rule="evenodd" d="M74.77 134.886c8.025-14.736 16.119-25.708 24.282-32.918-7.633-6.589-15.879-17.822-24.736-33.701-8.857 15.879-17.103 27.112-24.736 33.701 8.317 7.346 16.563 18.597 24.736 33.756ZM1.134 18.957l13.934 4.699c7.598 33.161 9.668 67.385 6.211 102.67l-12.854-9.991c3.6-29.129 1.17-61.588-7.29-97.378Zm146.364 0c-8.462 35.79-10.892 68.25-7.291 97.378l-12.854 9.991c-3.457-35.285-1.387-69.509 6.21-102.67Zm-91.653 11.18L0 9.884C8.173 6.39 14.114 3.097 17.823 0c12.253 7.908 18.59 10.842 24.415 12.988l.536.196.535.192c.356.127.71.253 1.066.377l.6.208.603.207c3.12 1.07 6.392 2.146 10.645 3.87 9.146 3.71 15.177 11.343 18.093 22.9l.146-.565c2.969-11.241 8.951-18.686 17.947-22.334 4.253-1.725 7.524-2.8 10.645-3.87l.603-.208.6-.208c.355-.124.71-.25 1.066-.377l.535-.192.536-.196c5.824-2.146 12.162-5.08 24.415-12.988 3.709 3.097 9.65 6.391 17.823 9.884L92.787 30.137c-3.097 8.101-9.254 12.314-18.471 12.638-9.217-.324-15.374-4.537-18.471-12.638ZM27.005 130.43c2.772-40.146 1.008-74.982-5.293-104.507l30.082 10.208c4.753 8.245 12.26 12.512 22.522 12.8l.51-.018c10.001-.413 17.338-4.674 22.012-12.782l30.082-10.208c-6.3 29.525-8.065 64.36-5.292 104.507-17.32 12.962-33.09 23.152-47.312 30.569-14.222-7.417-29.993-17.607-47.312-30.569Z"/></svg>
