<svg xmlns="http://www.w3.org/2000/svg" viewBox="0 0 189 111.554"><path fill="#000" fill-rule="evenodd" d="M38.317 0c17.079 4.036 32.46 11.862 46.142 23.477-6.152 10.435-12.993 18.95-20.524 25.545 10.78 9.745 19.319 21.533 25.619 35.364v27.168C71.343 90.39 50.326 77.766 26.504 73.68L38.317 0Zm112.366 0 11.813 73.68c-23.822 4.086-44.839 16.71-63.05 37.874V84.386c6.3-13.83 14.84-25.619 25.619-35.364-7.53-6.595-14.372-15.11-20.524-25.545C118.223 11.862 133.604 4.036 150.683 0ZM13.806 13.88l15.135 5.758-9.672 58.767c18.605 2.166 35.216 10.656 49.834 25.471C43.657 94.771 20.623 91.818 0 95.016L13.806 13.88Zm161.388 0L189 95.017c-20.623-3.2-43.657-.246-69.103 8.86 14.618-14.816 31.23-23.306 49.834-25.472l-9.672-58.767 15.135-5.758ZM94.5 81.136l-.001-.001-.338-.821c-5.249-12.577-12.666-23.032-22.252-31.366 9.548-7.875 17.078-18.604 22.59-32.188 5.514 13.584 13.044 24.313 22.592 32.188-9.794 8.515-17.325 19.245-22.591 32.19v-.003.001Z"/></svg>
