<svg xmlns="http://www.w3.org/2000/svg" viewBox="0 0 161.323 160.784"><path d="M125 24.667c19 28 3 70.5-18.5 86.5-13 9.666-27.333 15.5-43 17.5 24-2 44.5-11.167 61.5-27.5 25.5-24.5 23.5-61.5 12.5-71.5 12.333 4.333 20 15.333 23 33 6.5 37.5-27 71.5-48.5 77.5 12.667-2.334 22.5-6.834 29.5-13.5 7.333-6.334 12.167-13.334 14.5-21 4 6 3 13.666-3 23-7 10.5-20.5 23.5-55 30s-66-2-85-25c-8.5-10-13-25-13-38.5 9 17.333 23.333 24.166 43 20.5 22-6 35-18.5 42.5-35.5 7.333-15.334 8.5-29 3.5-41 7.333 4.666 11.667 15.5 13 32.5 4.667-13.667 2.833-27-5.5-40C83.5 14 64.833 5.5 40.5 6.167 79.5-6.167 107.667 0 125 24.667Zm-89-7.5.012.031C36.405 18.223 46.44 44.027 68 61.667c-10.667 8-21.333 21.833-32 41.5-7.667-17-19-30.834-34-41.5 23.5-14 34-44.5 34-44.5Z" fill="#000" fill-rule="evenodd"/></svg>
