<svg xmlns="http://www.w3.org/2000/svg" viewBox="0 0 1024 1024"><path d="M580.265 767.112s12.495 45.577-76.515 45.577c-89.09 0-74.592-49.722-74.592-49.722H54.374l109.972-427.196 10.353-3.693L66.495 755.679s85.946-18.27 128.693-24.557c42.827-6.364 236.052-36.46 318.933 38.054 0 0 55.851-28.918 173.877-28.918s209.196 20.647 265.126 14.42L850.302 361.94l14.498 6.207 102.84 398.966H580.264zm-396.51-444.307l11.511-4.144-96.082 406.705s119.421-26.776 216.878-25.557c97.439 1.159 149.792 29.703 149.792 29.703s-80.819-23.791-162.855-20.176c-82.017 3.517-166.823 19.782-222.674 32.826l103.429-419.357zm20.176-12.434l12.67-4.596L125.9 697.433s70.132-7.898 96.299-11.885c27.249-4.145 150.873-29.703 261.453 39.211 0 0-105.825-42.825-204.423-33.318-98.697 9.528-139.066 17.896-168.827 23.789l93.529-404.859zm31.55-32.002l21.255 17.642-76.36 363.663s42.296 1.847 100.149-10.057c56.716-11.65 152.248 13.201 216.702 73.747 0 0-97.988-73.511-235.815-53.257-53.395 7.759-120.09 14.203-120.09 14.203.079-.157 94.159-405.941 94.159-405.941zm50.8-61.075s15.5 61.075 77.126 64.689c61.606 3.674 130.99-47.049 146.569 58.542l-4.222 372.721c0-2.377-11.139-9.607-12.672-10.904-11.59-9.056-24.006-17.266-36.755-24.713-37.835-22.316-80.346-41.962-124.704-45.124-25.853-1.826-51.412 2.161-76.655 7.151-36.519 7.052-59.858 5.284-59.858 5.284l91.172-427.646zm238.193 116.868l.923-.237c.688-.157 63.452-16.186 117.023-16.186 26.011 0 48.346 5.755 67.992 10.745 21.943 5.678 40.9 10.51 57.853 5.284 11.964-3.673 24.105-8.428 34.222-12.73l111.268 398.495s-289.898-49.72-389.359 24.793l.079-410.163zm312.941 17.266l103.274 396.039s-47.64 0-158.455-13.515c-110.816-13.418-232.967 8.368-232.967 8.368S658 689.456 927.193 730.887L819.755 343.139l17.661 8.289zm67.441 7.661l-36.912-.215-20.569-9.134-1.983-6.915-26.718-12.573-8.506-27.011s-18.563 10.353-45.517 18.644c-26.933 8.289-66.301-16.58-122.23-16.58-55.869 0-120.088 16.58-120.088 16.58-26.875-74.592-57.953-70.446-136.689-53.866-78.638 16.56-101.446-93.175-101.446-93.175l-24.851 107.674-30.017-25.853-9.115 38.661-20.883 7.287-1.925 6.149-18.801 6.757-1.452 5.129-20.707 8.289-5.697 24.026h-34.299L.428 798.191h418.376s-3.144 42.433 82.331 42.433c85.415 0 89.561-38.287 89.561-38.287h432.872L904.854 359.092z"/></svg>