<svg viewBox="0 0 768 597" xmlns="http://www.w3.org/2000/svg"><g fill="#000" fill-rule="nonzero"><path d="M347.576 239.949c-2.473-55.145-8.067-76.085-11.774-76.085-3.762 0-4.946 30.544-9.89 57.535-4.946 26.929-13.654 57.468-13.654 57.468l-22.256-7.19s-6.24-38.967-8.71-85.665c-2.416-46.7-4.299-87.485-11.184-87.485-6.718-.049-8.007 38.346-10.48 88.1-2.475 49.725-11.126 77.265-11.126 77.265l-20.426-2.414s-9.892-43.13-13.603-174.876c-.86-31.181-9.834-37.438-9.834-37.438s-8.979 6.257-9.839 37.438c-3.707 131.746-13.654 174.876-13.654 174.876l-20.375 2.414s-8.704-27.54-11.177-77.265c-2.473-49.754-3.713-88.149-10.48-88.1-6.83 0-8.713 40.785-11.242 87.485-2.415 46.698-8.6 85.665-8.6 85.665l-22.256 7.19s-8.705-30.54-13.65-57.468c-4.945-26.991-6.184-57.535-9.89-57.535-3.712 0-9.3 20.94-11.774 76.085-2.473 55.075-3.063 65.842-3.063 65.842s73.053 26.398 101.49 94.715c28.491 68.276 35.694 127.56 35.909 134.142.373 10.216 8.6 11.516 8.6 11.516s7.152-1.3 8.602-11.516c.912-6.535 7.417-65.866 35.904-134.142 28.441-68.317 101.495-94.715 101.495-94.715s-.594-10.767-3.063-65.842"/><path d="M273.537 0c-9.573 8.966-7.488 17.264 6.254 24.895 20.613 11.445 225.805 465.27 225.805 497.761 0 21.662-6.136 41.568-18.407 59.719-2.14 9.263.392 13.895 7.598 13.895H763.71c5.154 0 5.154-4.632 0-13.895-35.035-33.824-101.34-130.195-258.113-528.172-1.877-16.954 2.127-29.228 12.012-36.82.315-7.19-1.609-12.985-5.77-17.383h-238.3zM4.705 578.738c59.145-76.265 100.637-127.355 100.637-183.566 0-21.385 66.03 30.783 78.899 192.19.13 1.635-.742 4.939-5.343 4.939H4.705c-6.273-3.922-6.273-8.443 0-13.563z"/></g></svg>
