<svg xmlns="http://www.w3.org/2000/svg" viewBox="0 0 71 29"><path d="M29.917.144c-.658 2.18-.658 4.178 0 5.996l8.722 18.8c.656 1.417 1.583 2.73 2.78 3.94H26.206c1.971-1.732 1.747-3.478 1.057-5.027l-8.35-18.045-5.228 9.692h5.894l-5.894 6.146c-1.582 1.66-1.677 4.07-.283 7.233H.9c.898-.934 1.813-2.36 2.744-4.277l8.554-18.794c.898-1.72.898-3.608 0-5.664Zm36.177 0c5.498 9.387 5.498 18.966 0 28.735H47.861c-3.42 0-6.014-1.965-7.784-5.894L32.135 5.848c-.881-1.633-.881-3.534 0-5.704h33.96Zm-11.36 4.124 2.366 2.61c.326-2.392 1.332-3.398 3.018-3.018 1.142.435 1.523 1.659 1.142 3.671-.49 2.121-1.876 3.29-4.16 3.508 2.04.652 3.834 1.713 4.568 3.833.734 2.121-.49 5.058-2.447 4.813-1.305-.163-2.12-1.414-2.447-3.752l-2.529 3.426c1.876 2.365 9.544 3.507 11.257-1.468 1.142-3.318-.027-5.602-3.508-6.852 2.448-.898 5.14-5.629 1.142-8.076-2.664-1.631-5.465-1.196-8.401 1.305ZM43.689 2.757c-.618.314-1.376.964-1.617 1.71-.244 1.03.213 1.917 1.192 1.917.901 0 1.425-.454 1.628-1.23.203-.777.367-1.267 1.042-1.507.248-.073 2.011-.573 2.867 1.626.856 2.198-.935 5.603-2.136 7.545-1.202 1.943-2.822 4.174-6.203 8.286l.066.109h12.367v-5.82h-.167l-1.324 2.956-.044.014-.035.012h-6.636a191.694 191.694 0 0 1 5.107-5.557c1.674-1.748 2.651-3.295 2.932-4.64.473-2.472-.404-4.279-2.63-5.421-2.17-1.065-4.307-1.065-6.409 0Z" fill="#000" fill-rule="evenodd"/></svg>
