<svg version="1.0" xmlns="http://www.w3.org/2000/svg" viewBox="0 0 400 400"><path d="M54.7 198.7c-24 62.6-44 114.6-44.3 115.5-.6 1.7.9 1.8 22.8 1.8h23.4l6.9-19 7-19h121.6l-.7 2.2c-.4 1.3-3.5 9.7-6.9 18.8l-6.2 16.5 70.6.5c46.3.3 71 .2 71.8-.5.9-.8 73.3-192.2 73.3-194 0-.3-29.2-.5-65-.5-35.7 0-65-.3-65-.6 0-.6 5-14.5 10.4-28.7L277 85H98.4L54.7 198.7zM125 97.2c0 .2-17.3 46.6-38.4 103.3l-38.4 103-10.7.3c-5.9.1-10.4-.1-10.2-.5.3-.4 18.1-46.7 39.7-102.8 21.6-56.1 39.4-102.3 39.7-102.8.4-.6 18.3-1.1 18.3-.5zm134 .6c0 .7-15.4 42.7-18.5 50.4-.7 1.7-3.1 1.8-30.6 1.8-16.4 0-29.9-.4-29.9-.8 0-.5 4.1-11.8 9-25.3 5-13.4 9.3-25 9.5-25.7.3-.9 7.3-1.2 30.5-1.2 16.5 0 30 .4 30 .8zm118 35.4c0 .2-4.4 12-9.8 26.3l-9.8 26-29.1.3-29.1.2 4.7-12.2c2.6-6.8 7.2-18.7 10.2-26.5l5.4-14.3h28.8c15.8 0 28.7.1 28.7.2zm-201 19.5c0 .5-4.5 12.9-10 27.7-5.5 14.8-10 27.1-10 27.3 0 .2-13.3.3-29.6.3-18.1 0-29.4-.4-29.2-.9.2-.6 4.8-13.2 10.3-28l10-27.1h29.3c16 0 29.2.3 29.2.7zm119.6 37c-.4 1-5.5 14.3-11.4 29.5L273.5 247h-28.4c-22.2 0-28.2-.3-27.9-1.3.3-.6 5.2-13.9 10.9-29.4l10.4-28.3h28.9c27 0 28.8.1 28.2 1.7zm-78.6 21c0 .5-4.5 13.1-10.1 28L196.8 266h-29.9c-16.4 0-29.9-.4-29.9-.8 0-.7 16-44.5 19.1-52.5l1.1-2.7h29.9c16.5 0 29.9.3 29.9.7zm116 39c0 .5-4.2 11.7-18.2 49l-1.9 5.3h-29.5c-16.2 0-29.4-.2-29.4-.5s15.8-41.5 20.1-52.3l.9-2.2h29c15.9 0 29 .3 29 .7z"/></svg>
