<svg version="1.0" xmlns="http://www.w3.org/2000/svg" viewBox="0 0 444 182"><path d="M76 3.5c0 .9.6 2.8 1.4 4.3 2.1 4 2.9 13 1.7 18.5-1.1 4.5-49.3 112.2-58.6 130.8-2.4 4.7-6.4 11.5-8.9 15.2l-4.5 6.6 3.2.6c4.4.9 75.4.2 76.2-.7.4-.4-.2-3.5-1.4-6.9-3.4-10.2-2.8-18.7 2.5-31.9 7.2-18.3 23.8-31.9 43.7-35.8 2.1-.4 3.7-1.2 3.5-1.7-.2-.6-9.8-1.1-25.6-1.2-14-.1-25.6-.4-25.9-.7-.3-.3-.1-1.2.5-1.9s3.5-5.8 6.4-11.3c20-37.8 26.4-49.4 27.4-49.4 1.4 0 54.1 114.3 55 119.3 1 5.7-.4 12.1-3.6 16.9-2.1 3-2.5 4.5-1.7 5 1.9 1.2 87.5 1 88.2-.2.4-.6-.8-2.7-2.6-4.7-1.7-2-4.7-6-6.5-8.9-5.3-8.3-59.3-125.9-62.6-136.3-3.4-10.7-3.3-13 1.2-20.3 1.7-2.6 3-5.3 3-5.8 0-.6-19.9-1-56-1-49.9 0-56 .2-56 1.5z"/><path d="M198.4 5.3c-5.4 8.1-5.7 12-1.5 22.3 4.6 11.2 53.9 117.7 57.9 125.2 5.1 9.2 15.1 19 23.7 23.3l7 3.4 60.5.3c48.3.2 60.9 0 62.3-1 1.8-1.3 7.8-14.6 11.5-25.3 7.9-23 10.4-38.4 10.5-64.5.1-15.2-.4-22.8-1.6-29.5-3.5-18.7-8.9-36.4-15-48.5l-4.2-8.5L305 2.3 200.5 2l-2.1 3.3zM398 25v11l-21.2.2-21.2.3-.7 3.6c-.5 1.9-.9 6.4-1.1 10l-.3 6.4 3 .3c17 1.4 28.8 6.2 37.6 15.2 7.9 8.1 9.2 11.9 8.7 26.1-.3 11.3-.3 11.4-4.2 17.2-4.1 6.2-10 10.8-16.8 13.3-5.6 2.1-22.8 2.3-28.3.5-5-1.7-14.4-7.6-15.1-9.6-.7-1.6 9.5-16.7 10.8-15.9.4.3.8 1.4.8 2.5 0 4.5 5.4 11.2 10.9 13.5 4.3 1.8 12.2 1.8 16.4 0 7.2-3 11.4-11.5 10-20-.9-5.6-6.2-12.6-12.3-16.3-6.4-3.9-12.5-5.7-24.8-7.4l-9.2-1.3.5-4.5c1.7-15.4 2.6-23.9 3.5-33.6.6-6.1 1.4-12.1 1.8-13.5l.7-2.5 22.3-.3L392 20l2.2-3c1.2-1.7 2.5-3 3-3 .4 0 .8 4.9.8 11zm-97.9-4.6c9.6 2.9 16.5 8.1 20.2 15 3.2 6.2 3 18.2-.4 25.6-3 6.4-10 15.3-20.2 26-9.9 10.2-22.7 24.6-22.7 25.4 0 .3 8.5.6 18.9.6h18.9l3-7.2c1.7-4 3.5-7.4 4.1-7.6.8-.3 1.1 4.5 1.1 15.2 0 11.8-.3 15.6-1.2 15.6-13.6.3-69.2 0-69.5-.3-.2-.3 3.6-5.4 8.5-11.3 10.4-12.9 25.4-34.3 30.5-43.5 7.9-14.3 10.8-29.9 7.3-38.4-1.9-4.5-6.9-7.5-12.6-7.5-9.5 0-14.7 7.1-13.8 18.9l.4 6-2.5-2.8c-3.9-4.2-13.2-16.2-13.8-17.8-.8-2.1 7.6-7.9 16.5-11.3 5.9-2.3 20.7-2.6 27.3-.6z"/></svg>
