<svg xmlns="http://www.w3.org/2000/svg" viewBox="0 0 71 29"><path d="M29.917.144c-.658 2.18-.658 4.178 0 5.996l8.722 18.8c.656 1.417 1.583 2.73 2.78 3.94H26.206c1.971-1.732 1.747-3.478 1.057-5.027l-8.35-18.045-5.228 9.692h5.894l-5.894 6.146c-1.582 1.66-1.677 4.07-.283 7.233H.9c.898-.934 1.813-2.36 2.744-4.277l8.554-18.794c.898-1.72.898-3.608 0-5.664Zm36.177 0c5.413 9.243 5.497 18.671.25 28.284l-.25.451H47.861c-3.322 0-5.865-1.854-7.63-5.562l-.154-.332-7.942-17.137c-.841-1.558-.88-3.362-.115-5.41l.115-.294h33.96ZM43.688 2.757c-.618.314-1.376.964-1.617 1.71-.244 1.03.213 1.917 1.192 1.917.901 0 1.425-.454 1.628-1.23.203-.777.367-1.267 1.042-1.507.248-.073 2.011-.573 2.867 1.626.856 2.198-.935 5.603-2.136 7.545-1.202 1.943-2.822 4.174-6.203 8.286l.066.109h12.367v-5.82h-.167l-1.324 2.956-.044.014-.035.012h-6.636a191.694 191.694 0 0 1 5.107-5.557c1.674-1.748 2.651-3.295 2.932-4.64.473-2.472-.404-4.279-2.63-5.421-2.17-1.065-4.307-1.065-6.409 0Zm14.136 0c-.618.314-1.377.964-1.617 1.71-.244 1.03.212 1.917 1.192 1.917.9 0 1.425-.454 1.627-1.23.203-.777.368-1.267 1.042-1.507.248-.073 2.011-.573 2.867 1.626.857 2.198-.934 5.603-2.136 7.545-1.202 1.943-2.822 4.174-6.203 8.286l.05.082.017.027h12.366v-5.82h-.166l-1.325 2.956-.079.026h-6.635a191.694 191.694 0 0 1 5.106-5.557c1.674-1.748 2.652-3.295 2.933-4.64.473-2.472-.404-4.279-2.631-5.421-2.17-1.065-4.306-1.065-6.408 0Z" fill="#000" fill-rule="evenodd"/></svg>
