<svg xmlns="http://www.w3.org/2000/svg" viewBox="0 0 32 32"><path fill="#444" d="M30.097 9.367c.489.832.904 1.709 1.222 2.621.358 1.028.585 2.102.656 3.188a11.821 11.821 0 0 1-.283 3.437c-.324 1.411-.887 2.76-1.595 4.02h-7.915c-.398-.002-.8.017-1.192-.064a3.298 3.298 0 0 1-1.604-.792c-.599-.525-1.014-1.223-1.336-1.944l-3.633-7.839a2.55 2.55 0 0 1-.301-1.152c-.014-.507.115-1.008.304-1.476h15.677zm-8.962.84c-.504 0-.975.093-1.414.28s-.819.435-1.139.743l1.383 1.749.037-.043a1.824 1.824 0 0 1-.098-.634c0-.394.098-.727.292-.999s.483-.408.865-.408c.329 0 .601.116.816.347s.323.573.323 1.024c0 .784-.334 1.725-1.002 2.824s-1.642 2.408-2.922 3.927l.03.049h5.703v-2.681h-.055l-.622 1.359-.037.012h-3.071c.309-.366.647-.746 1.014-1.143s.674-.72.92-.972.496-.524.75-.816.454-.552.6-.78.266-.477.359-.749c.093-.272.14-.552.14-.841s-.052-.556-.155-.801c-.104-.246-.246-.457-.427-.634s-.393-.327-.637-.451-.506-.215-.786-.274a4.219 4.219 0 0 0-.871-.088zm3.401 6.102.018.043.897.787h2.684v2.232h.049c.224-.094.497-.167.82-.22s.617-.083.881-.092v-1.921h.165l.97-.854v-.049h-1.134V9.691h-.049l-5.3 6.618zm1.08-.11 2.47-3.172h.049v3.208h-2.507l-.012-.037zM9.306 9.367h4.09c-.276.9-.332 1.897.01 2.787 1.25 2.698 2.502 5.394 3.753 8.091.193.412.371.833.616 1.218.262.425.581.813.931 1.17h-7.023c.28-.251.53-.554.644-.918.114-.352.08-.736-.034-1.084-.066-.216-.169-.417-.263-.622-1.239-2.675-2.476-5.352-3.715-8.028l-2.413 4.473h2.72L6.11 19.076c-.153.162-.316.316-.437.503-.256.372-.366.83-.353 1.278.012.617.207 1.214.451 1.776H0c.31-.33.568-.706.797-1.096.207-.355.4-.719.567-1.094l3.733-8.201c.128-.29.284-.57.354-.882.168-.667.038-1.373-.235-1.993h4.09z"/></svg>