<svg xmlns="http://www.w3.org/2000/svg" version="1.0" viewBox="0 0 444 182"><path d="M75.8 1.7c-1.5.4-1.4.9.8 5.3 1.8 3.7 2.4 6.4 2.4 11.8 0 8.4-.8 11-10 30.7-1.5 3.3-3.8 8.2-5 11-1.2 2.7-3.5 7.7-5 11s-3.7 8.1-4.9 10.7c-1.2 2.7-3 6.9-4.2 9.5-1.2 2.7-3.4 7.5-4.9 10.8s-3.8 8.2-5 11c-1.2 2.7-3.5 7.7-5 11s-3.8 8.2-5 11c-1.2 2.7-3.3 7.5-4.7 10.5s-3 6.6-3.6 8-2.8 5.4-4.9 8.9c-2.1 3.4-3.8 6.7-3.8 7.1 0 .5-.4 1-.8 1.2-1.2.5-5.2 6.5-5.2 7.7 0 1.6 79.6 1.6 80.6 0 .3-.6.2-2.1-.4-3.2-2.7-6-3.2-8.4-3.2-15.2 0-10.1 3.6-21.3 10-30.8 7.7-11.6 18.2-19.1 32.7-23.6 4.6-1.4 8.5-3.1 8.6-3.6.1-.6-9.1-1.1-25.5-1.3-26-.2-28-.5-24.9-3.7 1-1.1 2.8-4.3 10.1-18 2.9-5.4 6-11.3 7-13 2.7-4.8 12.2-22.7 13.4-25.2 1.1-2.4 3.6-3.9 3.6-2.3 0 .9 2.1 5.8 9.2 21 1.7 3.6 4.1 8.7 5.3 11.5 1.2 2.7 4.1 8.8 6.3 13.5s5 10.7 6.2 13.5c1.2 2.7 3.7 8.1 5.5 12 1.8 3.8 4.4 9.5 5.8 12.5 1.3 3 3.8 8.4 5.5 12 9.7 21 10.8 25 9 31.3-.6 2.3-2.4 6.1-3.9 8.3-1.6 2.3-2.5 4.4-2.2 4.8.8.8 89.8.8 90.6 0 .3-.3-1.9-3.8-4.9-7.8-5.1-6.7-8-11.9-15.3-27.8-1.7-3.8-4.5-9.8-6.2-13.5-1.7-3.8-4.6-10-6.4-13.8-1.8-3.9-4.5-9.7-6-13s-4.2-9.2-6-13c-1.8-3.9-4.6-9.9-6.3-13.5-1.6-3.6-4.6-10-6.6-14.3-2-4.2-5.1-11-7-15-1.8-3.9-4.3-10.1-5.5-13.7s-2.6-7.3-3.1-8.2c-2.1-3.7-.8-13.2 2-15.8 1.2-1.1 3.8-7.5 3.4-8.2-.5-.8-109.5-.9-112.6-.1"/><path d="M199.3 2.7c-.4 1-1 2-1.4 2.3s-1.6 2.2-2.8 4.3c-2.6 4.7-2.7 10.6-.1 15.2 1.1 2 2 4 2 4.5 0 .9 2.1 5.9 8.1 18.7 1.6 3.5 4.3 9.3 6 13 1.7 3.8 4.6 9.9 6.4 13.8 1.8 3.8 4.4 9.5 5.8 12.5 1.3 3 4.3 9.3 6.5 14s5 10.7 6.2 13.5c2.3 5.4 6.8 14.9 13.3 28.5 2.2 4.7 5.8 11.1 7.9 14.2 3.9 5.9 14.4 16.8 16.1 16.8.5 0 2.1.8 3.5 1.8 6.2 4.2 8.1 4.3 71.5 4l60.9-.3 2.2-4c5.1-9.2 12.9-31.7 15.5-45 2.5-12.3 3.1-16.6 3.8-26 1.3-17.3.7-35-1.7-46-.4-2.2-1.4-6.7-2-10-2.7-13.9-12.6-40.8-16.8-45.8-1.4-1.6-7.7-1.7-105.9-1.7-98.5 0-104.4.1-105 1.7M306 23.1c7.3 3.4 12.4 7.9 15.1 13.5 3.1 6.5 2.4 18.6-1.6 26.4-3.7 7.3-6.1 10.3-24.8 30.4-8.7 9.4-16.3 17.9-16.8 18.9-.9 1.6.1 1.7 18.2 1.5l19.1-.3 3.9-8.5 3.9-8.5V130h-71l10.6-13.2c18.5-23.3 31.3-43.7 36-57.8 2.5-7.5 2.6-20.5.1-24.3-5.8-8.8-18.6-8.8-23.4.1-2.6 4.7-3.5 10.6-2.3 15.6 1 4.7 1.1 4.7-9-8.1-8.8-11.1-8.8-11 0-16.1 8.7-5.1 13.5-6.3 25.5-5.9 9.3.2 11.8.6 16.5 2.8m100-.2c0 2.7-.2 2.8-5.5 3.4-12 1.2-24.6 10.3-30.3 22-2.8 5.8-6.6 17.7-5.8 18.5.2.2 3.1-.8 6.5-2.2 7.8-3.4 18.4-3.6 25.1-.5 5.8 2.6 11.5 8.1 14.8 14.4 2.5 4.6 2.7 6 2.7 16.5 0 11.2-.1 11.7-3.4 17.8-3.8 7-9 12-16 15.4-4 2-6.2 2.3-16.1 2.3-10.6 0-12-.2-17.2-2.8-21.9-10.7-28.4-43.1-14.5-71.7 5.8-11.9 16.7-22.9 28.7-28.8 9.5-4.7 18-7 25.8-7.1 5.1-.1 5.2 0 5.2 2.8"/><path d="M363.6 72.2c-.9 3.7-.7 20 .5 28.5 1.9 14 6.3 21 13.8 22 3.7.5 4.4.2 8-3.3 4.9-5 6.6-12.1 5.8-24.8-1.1-17-7.6-24.6-21.3-24.6-5.5 0-6.2.2-6.8 2.2"/></svg>
