<?xml version="1.0" standalone="no"?>
<!DOCTYPE svg PUBLIC "-//W3C//DTD SVG 20010904//EN"
 "http://www.w3.org/TR/2001/REC-SVG-20010904/DTD/svg10.dtd">
<svg version="1.0" xmlns="http://www.w3.org/2000/svg"
 width="700.000000pt" height="700.000000pt" viewBox="0 0 700.000000 700.000000"
 preserveAspectRatio="xMidYMid meet">
<metadata>
Created by potrace 1.14, written by Peter Selinger 2001-2017
</metadata>
<g transform="translate(0.000000,700.000000) scale(0.100000,-0.100000)"
fill="#000000" stroke="none">
<path d="M2315 6571 c-3 -5 -2 -12 3 -15 5 -3 9 1 9 9 0 17 -3 19 -12 6z"/>
<path d="M4235 6560 c-3 -5 -1 -10 4 -10 6 0 11 5 11 10 0 6 -2 10 -4 10 -3 0
-8 -4 -11 -10z"/>
<path d="M2272 6538 c-7 -8 -33 -12 -74 -11 -111 2 -211 -27 -276 -82 -17 -15
-36 -24 -42 -20 -6 3 -7 0 -4 -9 3 -9 2 -16 -3 -16 -5 0 -22 -20 -37 -45 -16
-25 -31 -45 -33 -45 -2 0 -1 5 3 12 4 7 3 8 -4 4 -6 -4 -9 -13 -5 -21 3 -9 1
-21 -5 -28 -9 -12 -19 -45 -29 -97 -2 -13 -6 -26 -7 -28 -2 -2 0 -19 4 -38 4
-18 4 -34 0 -34 -5 0 -6 -10 -2 -22 4 -16 2 -19 -9 -13 -11 7 -12 6 -2 -6 7
-8 11 -34 10 -57 -2 -23 1 -42 6 -42 4 0 5 -5 1 -11 -6 -10 -8 -146 -5 -389 1
-123 1 -121 -11 -114 -7 5 -8 2 -3 -7 5 -7 10 -23 11 -35 2 -17 -1 -21 -13
-17 -10 4 -14 2 -10 -4 4 -6 0 -13 -8 -17 -8 -3 -19 3 -25 12 -9 15 -10 15 -8
-3 2 -12 -2 -19 -9 -18 -7 2 -13 -2 -13 -8 0 -5 -4 -7 -10 -4 -5 3 -10 0 -10
-7 0 -9 -3 -9 -10 2 -8 13 -10 12 -10 -4 0 -16 -2 -17 -17 -5 -9 8 -14 9 -10
3 3 -6 -9 -17 -28 -26 -21 -9 -32 -11 -29 -4 3 6 -2 2 -10 -8 -9 -11 -16 -17
-16 -14 0 4 -17 -2 -37 -12 -28 -13 -40 -15 -45 -7 -5 8 -8 7 -8 -4 0 -9 -7
-17 -15 -18 -8 -1 -23 -2 -34 -3 -12 -2 -17 -8 -13 -18 3 -8 2 -12 -3 -8 -4 4
-22 2 -39 -5 -36 -15 -45 -15 -66 -2 -13 8 -13 7 -1 -8 12 -15 9 -21 -12 -18
-4 0 -7 -4 -7 -11 0 -6 -3 -9 -6 -5 -4 3 -19 0 -34 -8 -15 -8 -30 -11 -34 -8
-3 4 -6 1 -6 -6 0 -8 -6 -11 -16 -7 -8 3 -12 2 -9 -4 3 -6 -2 -10 -12 -10 -10
0 -29 -7 -41 -16 -12 -8 -22 -12 -22 -8 0 3 -6 1 -13 -5 -8 -6 -17 -7 -21 -3
-4 4 -13 0 -19 -8 -15 -19 -52 -27 -41 -9 4 8 3 10 -4 5 -7 -4 -12 -14 -12
-23 0 -13 -2 -14 -17 -2 -11 9 -14 10 -10 2 5 -8 -2 -15 -20 -19 -15 -4 -31
-11 -34 -16 -3 -5 -16 -10 -27 -11 -12 -1 -22 -5 -22 -9 0 -4 -3 -7 -8 -6 -4
1 -18 -4 -31 -11 -19 -11 -22 -11 -16 1 3 7 0 5 -8 -5 -9 -10 -17 -18 -19 -17
-4 2 -38 -10 -76 -27 -18 -8 -40 -12 -48 -9 -8 3 -13 0 -11 -7 1 -7 -5 -12
-13 -12 -8 0 -18 -4 -22 -9 -4 -6 -14 -4 -25 5 -16 12 -17 12 -7 -1 15 -19 -2
-37 -33 -35 -15 1 -19 -3 -15 -13 4 -11 1 -14 -11 -9 -12 4 -14 2 -10 -10 4
-9 2 -14 -3 -11 -11 6 -65 -48 -56 -56 3 -3 0 -6 -7 -6 -7 0 -9 -4 -6 -10 3
-5 -1 -10 -10 -10 -9 0 -13 -4 -10 -10 3 -5 1 -10 -4 -10 -6 0 -10 -3 -10 -7
3 -20 -2 -34 -10 -29 -5 3 -9 0 -8 -7 1 -35 -4 -58 -12 -53 -5 4 -7 -3 -4 -14
3 -13 0 -20 -8 -20 -11 0 -11 -2 1 -10 12 -8 12 -10 1 -10 -10 0 -11 -3 -2
-14 9 -10 9 -16 1 -21 -8 -5 -8 -11 1 -21 9 -11 9 -14 -1 -14 -10 0 -10 -3 0
-15 10 -12 10 -15 -1 -15 -11 0 -11 -2 1 -10 13 -9 13 -10 0 -10 -10 0 -11 -3
-4 -8 9 -6 26 -43 29 -62 0 -3 7 -21 16 -40 26 -54 69 -167 69 -178 0 -6 6
-13 13 -15 9 -4 9 -6 -1 -6 -10 -1 -10 -5 2 -17 9 -8 14 -20 11 -25 -4 -5 -1
-9 5 -9 6 0 9 -4 5 -9 -3 -5 2 -16 11 -25 8 -9 16 -31 17 -50 1 -19 4 -32 6
-30 10 9 29 -32 20 -43 -7 -7 -6 -14 2 -19 8 -5 9 -3 4 7 -8 12 -6 12 9 0 12
-10 14 -16 5 -21 -8 -6 -8 -9 0 -11 7 -3 13 -11 15 -19 1 -8 8 -26 16 -40 8
-14 13 -29 12 -33 -1 -4 3 -18 10 -30 7 -12 13 -28 14 -36 2 -8 8 -17 14 -21
6 -3 12 -20 13 -37 1 -17 5 -29 10 -26 4 2 7 -8 7 -22 0 -15 4 -24 10 -20 6 3
11 -1 11 -9 1 -9 3 -19 4 -23 2 -5 6 -18 10 -30 4 -13 11 -21 15 -18 5 3 6 -3
3 -13 -2 -10 3 -24 11 -32 13 -10 14 -16 4 -28 -10 -13 -10 -14 0 -8 7 4 12 1
12 -9 0 -9 6 -23 14 -31 8 -8 13 -23 11 -34 -3 -13 2 -20 13 -21 14 0 13 -2
-3 -9 -16 -7 -16 -9 -3 -9 15 -1 45 -61 30 -61 -4 0 -2 -4 4 -8 6 -4 21 -34
34 -67 13 -33 28 -66 33 -73 6 -7 7 -15 4 -19 -4 -3 1 -12 11 -20 9 -8 11 -11
4 -8 -11 6 -11 3 0 -16 7 -13 18 -27 23 -31 6 -4 6 -8 1 -8 -5 0 -3 -7 4 -15
10 -12 10 -15 -1 -15 -8 0 -7 -4 5 -13 9 -7 18 -22 19 -35 0 -12 5 -22 9 -22
4 0 4 -7 1 -17 -5 -12 -3 -14 7 -8 10 6 12 3 8 -13 -4 -12 -3 -20 2 -17 9 6
22 -23 15 -35 -3 -4 2 -10 10 -13 8 -4 12 -15 10 -27 -2 -11 0 -20 4 -20 10 0
33 -51 27 -58 -3 -3 2 -11 12 -19 16 -14 16 -14 -3 -9 -17 5 -18 4 -5 -6 25
-21 52 -68 39 -68 -8 0 -7 -6 4 -17 8 -10 17 -27 19 -38 1 -11 5 -22 8 -25 15
-15 30 -52 25 -60 -4 -6 -1 -10 5 -10 7 0 10 -7 6 -15 -3 -8 -2 -15 3 -15 5 0
14 -15 21 -32 6 -18 16 -41 21 -50 5 -10 9 -27 9 -38 0 -11 4 -20 8 -20 8 0
32 -58 32 -79 0 -7 -5 -9 -12 -5 -7 4 -8 3 -4 -4 4 -6 14 -8 24 -5 9 3 14 3
10 -2 -4 -4 -2 -17 4 -29 12 -21 18 -41 20 -63 1 -7 5 -13 10 -13 5 0 6 -4 3
-10 -3 -6 -1 -10 5 -10 7 0 10 -7 6 -15 -3 -8 -1 -15 5 -15 6 0 9 -7 5 -15 -3
-9 0 -15 8 -15 7 0 13 -6 14 -12 0 -7 4 -23 7 -36 6 -19 4 -21 -11 -16 -15 5
-16 4 -4 -4 8 -6 17 -9 21 -6 10 6 20 -26 12 -38 -4 -7 -1 -8 7 -3 10 6 12 4
7 -8 -4 -10 -1 -17 6 -17 7 0 13 -12 14 -27 0 -15 6 -29 12 -31 6 -2 9 -8 5
-13 -3 -5 0 -9 5 -9 6 0 11 -5 11 -11 0 -5 -5 -7 -11 -3 -6 3 -3 -5 6 -19 9
-15 14 -31 10 -37 -4 -6 -2 -9 3 -8 6 2 10 0 11 -5 0 -4 12 -29 26 -57 14 -27
25 -57 25 -65 0 -10 5 -13 13 -9 9 6 9 4 -1 -8 -7 -9 -9 -18 -5 -20 15 -6 40
-63 38 -85 -1 -12 2 -20 6 -18 4 3 13 -3 20 -12 10 -12 10 -14 2 -9 -7 4 -13
3 -13 -3 0 -5 5 -11 11 -13 6 -2 12 -15 12 -30 1 -14 6 -24 11 -20 5 3 7 -2 3
-11 -3 -9 0 -18 9 -21 8 -3 14 -15 14 -26 0 -12 6 -28 14 -36 8 -8 13 -23 11
-34 -2 -11 0 -20 5 -20 8 0 25 -41 21 -49 -2 -2 2 -7 8 -11 12 -7 23 -40 25
-77 0 -11 4 -19 8 -17 9 6 23 -17 23 -39 0 -10 6 -22 14 -26 9 -6 10 -11 2
-15 -6 -4 -11 -13 -11 -19 0 -8 4 -7 9 2 7 11 12 3 22 -27 7 -23 17 -42 22
-42 5 0 4 -7 -3 -15 -10 -12 -9 -16 3 -21 9 -3 18 -12 21 -20 4 -10 2 -13 -7
-8 -12 8 11 -26 25 -37 5 -3 9 -17 10 -32 2 -20 5 -23 15 -15 10 8 12 7 7 -6
-3 -9 -1 -16 5 -16 6 0 11 -6 11 -14 0 -8 7 -17 16 -20 8 -3 13 -10 9 -15 -3
-5 4 -12 15 -16 11 -3 20 -11 20 -16 0 -5 7 -9 15 -9 8 0 15 -4 15 -10 0 -5 7
-10 15 -10 8 0 15 -4 15 -9 0 -8 10 -12 60 -28 8 -2 21 -5 28 -5 6 -1 12 -7
12 -14 0 -7 4 -16 10 -19 5 -3 7 0 4 9 -5 12 -1 14 23 7 15 -4 39 -6 52 -4 14
2 28 -2 33 -9 6 -10 8 -10 8 0 0 6 5 12 11 12 5 0 7 -6 3 -12 -4 -7 -4 -10 1
-6 4 4 14 3 22 -4 8 -6 13 -7 12 -2 -3 18 1 37 7 31 4 -3 15 -2 25 4 14 7 19
6 19 -3 0 -8 5 -6 11 4 6 11 16 15 26 11 11 -4 14 -3 9 6 -6 9 0 12 20 9 18
-2 28 -8 26 -16 -1 -8 2 -11 9 -7 8 5 8 10 0 18 -17 17 -13 27 9 27 11 0 20 4
20 9 0 11 19 9 39 -3 10 -6 12 -5 7 2 -13 21 3 33 27 20 19 -10 20 -9 10 4
-10 12 -10 15 0 15 6 0 25 4 41 8 26 7 28 6 21 -16 -5 -18 -4 -21 4 -9 6 8 8
22 5 32 -2 9 1 20 7 24 7 4 9 3 6 -3 -3 -5 8 -20 26 -33 26 -19 29 -20 17 -4
-8 10 -19 22 -25 26 -5 4 -6 10 -2 14 3 4 13 1 22 -6 9 -7 18 -10 22 -6 3 3 2
6 -4 6 -5 0 -10 6 -10 14 0 8 3 14 6 13 3 -1 21 2 39 6 23 5 31 11 26 19 -6
10 -4 11 7 0 18 -17 29 -15 29 4 0 14 3 14 16 4 8 -8 14 -9 12 -4 -2 5 2 10 7
12 6 1 10 -2 10 -7 0 -5 3 -13 7 -17 4 -3 6 3 3 14 -2 15 5 24 28 35 17 9 35
13 39 11 4 -3 8 -1 8 4 0 15 28 23 36 10 4 -7 3 -8 -4 -4 -10 6 -32 -22 -32
-41 1 -4 7 3 15 17 7 14 17 24 22 23 4 -2 9 2 9 7 3 23 5 24 14 10 8 -13 10
-12 10 4 0 16 2 17 17 5 9 -8 14 -9 11 -4 -3 6 0 15 7 22 10 10 16 9 25 -2 7
-8 17 -15 23 -15 6 0 3 6 -8 13 -12 10 -14 16 -7 21 7 4 12 2 12 -3 0 -6 4
-11 10 -11 5 0 6 7 3 17 -4 10 -2 14 4 10 6 -4 14 -1 16 5 4 8 6 7 6 -4 1 -9
5 -19 10 -22 5 -4 7 4 4 16 -3 17 -2 19 5 9 5 -7 14 -11 20 -7 6 3 13 1 15 -4
3 -6 4 -5 3 2 -2 7 -9 12 -15 11 -16 -4 -14 14 3 20 8 3 17 1 20 -6 2 -7 5 -4
5 5 1 10 7 15 15 12 7 -3 20 2 29 10 8 8 17 12 21 9 3 -4 6 -1 6 6 0 7 4 10 8
7 5 -3 20 1 34 8 16 9 31 10 42 4 10 -6 16 -5 16 2 0 5 -6 10 -12 10 -7 1 1 7
17 14 33 14 59 10 48 -7 -3 -6 4 -3 17 6 23 16 25 16 49 -6 l26 -22 -20 24
c-18 22 -18 24 -2 18 11 -4 16 -3 12 3 -6 10 -45 7 -64 -4 -5 -4 -13 -1 -17 5
-4 8 -3 9 4 5 7 -4 12 -2 12 3 0 6 3 10 8 9 13 -2 66 14 81 26 12 9 13 8 7 -4
-6 -12 -4 -11 6 1 13 16 76 41 90 36 4 -1 13 7 21 17 13 18 14 18 20 -4 3 -12
10 -19 15 -16 6 3 13 1 15 -4 3 -6 4 -5 3 2 -2 7 -9 12 -15 11 -13 -3 -14 7
-2 26 7 11 12 7 25 -15 8 -16 15 -25 16 -21 0 5 -5 17 -10 27 -7 13 -7 21 0
25 5 3 10 1 10 -4 0 -6 5 -11 11 -11 5 0 8 4 5 9 -3 5 1 14 9 21 9 8 15 8 15
2 0 -6 -6 -13 -12 -15 -10 -4 -10 -6 -1 -6 6 -1 19 9 27 21 9 12 16 19 16 14
0 -5 6 -3 14 3 11 9 15 8 20 -4 3 -9 2 -13 -4 -10 -6 3 -10 1 -10 -4 0 -6 7
-11 15 -11 8 0 15 -4 15 -10 0 -5 5 -10 11 -10 8 0 8 4 0 14 -15 18 -23 59
-10 51 5 -4 9 -1 9 5 0 7 5 6 14 -2 8 -7 12 -17 9 -22 -3 -4 -9 -2 -14 5 -5 8
-9 9 -9 4 0 -18 31 -56 41 -49 5 3 7 9 4 14 -3 4 3 14 12 21 14 12 15 11 9
-11 l-7 -25 14 23 c7 12 16 20 20 16 3 -4 13 -1 22 6 18 15 20 -1 3 -18 -8 -8
-9 -12 -1 -12 6 0 14 6 17 13 4 6 4 2 2 -9 -4 -22 15 -27 31 -9 4 4 2 5 -4 1
-7 -4 -13 -3 -13 3 0 5 -3 18 -7 28 -6 16 -4 16 17 -2 13 -11 20 -15 17 -9 -4
7 0 15 8 18 9 3 15 1 14 -7 -1 -6 -1 -19 0 -27 1 -13 3 -13 10 -1 5 8 6 21 3
30 -5 14 -3 14 10 3 13 -10 22 -11 38 -2 19 10 21 10 16 -7 -9 -28 39 -50 53
-25 5 9 13 14 17 9 4 -4 0 -15 -9 -25 -10 -10 -17 -22 -17 -27 0 -5 6 0 14 10
17 23 50 30 42 9 -3 -9 -2 -12 5 -9 6 4 8 13 5 20 -3 8 2 19 11 27 14 11 15
10 9 -12 -6 -21 -5 -22 4 -7 6 9 16 17 21 17 6 0 7 -5 3 -12 -5 -8 -2 -9 10
-5 11 4 15 3 10 -4 -4 -8 1 -9 16 -4 16 5 20 4 15 -5 -4 -7 -2 -11 6 -9 23 3
79 -13 79 -23 0 -5 -4 -7 -8 -4 -5 3 -9 -1 -9 -9 0 -13 2 -13 16 -1 11 10 22
12 31 6 8 -5 18 -6 22 -4 4 3 8 -2 8 -10 0 -8 5 -18 12 -22 7 -4 8 -3 4 4 -5
8 2 11 20 10 14 -2 29 -8 31 -15 3 -7 9 -10 14 -7 11 6 50 -14 65 -34 8 -10
13 -12 18 -4 15 24 80 -21 71 -49 -3 -9 -1 -20 4 -24 7 -4 8 1 4 11 -5 12 -3
15 6 9 10 -6 11 -3 2 14 -14 25 -4 28 16 4 8 -10 12 -13 9 -6 -4 7 1 9 14 6
11 -3 18 -9 15 -13 -4 -7 6 -9 78 -12 18 -1 38 -9 45 -20 7 -10 19 -18 25 -18
7 0 4 5 -5 11 -10 5 -18 15 -18 21 0 7 4 7 13 1 22 -17 46 -22 53 -11 4 6 3 8
-2 5 -6 -3 -16 -2 -23 2 -19 12 39 11 62 -1 13 -6 19 -5 23 7 4 8 28 25 55 36
30 13 46 26 42 33 -3 6 -3 8 2 4 4 -4 21 4 37 17 16 14 34 25 40 25 6 0 9 3 5
6 -10 10 26 42 42 37 14 -4 14 -3 1 6 -13 10 -13 12 0 20 8 5 19 7 25 3 5 -3
3 3 -5 13 -14 17 -13 18 5 11 15 -5 17 -4 8 5 -20 20 17 86 41 72 5 -3 6 -1 2
6 -4 6 -12 9 -17 5 -11 -6 -8 18 3 26 4 3 10 17 12 30 2 14 5 26 7 28 1 1 2 7
3 12 1 12 15 14 24 4 4 -4 1 -4 -7 1 -10 5 -12 4 -7 -4 4 -6 11 -9 16 -6 12 7
1 35 -14 35 -6 0 -3 5 7 11 9 6 15 15 11 20 -7 12 15 41 26 34 4 -2 16 2 26
11 18 14 18 15 -3 5 -26 -13 -41 2 -24 23 6 7 7 17 3 21 -4 5 -2 5 5 1 7 -4
12 1 12 11 2 52 2 53 30 35 l26 -16 -23 23 c-28 28 -15 54 15 30 17 -13 17
-12 0 8 -15 17 -16 25 -7 42 6 12 8 27 4 33 -4 7 -3 8 4 4 7 -4 13 -1 13 6 5
51 26 88 46 82 17 -5 17 -5 1 6 -17 10 -17 13 -3 40 9 17 15 32 15 35 -1 22 1
25 10 20 6 -4 7 -11 4 -17 -4 -6 -2 -8 4 -4 5 3 12 2 14 -4 2 -6 9 0 17 12 13
21 13 22 -2 10 -13 -11 -17 -10 -25 5 -11 21 -5 46 9 37 5 -3 9 0 9 5 0 6 -5
11 -11 11 -8 0 -7 5 2 16 7 9 14 25 14 37 1 11 7 23 14 25 6 2 8 9 5 14 -4 7
-2 8 4 4 7 -4 12 -2 12 3 0 6 -5 11 -12 11 -15 0 0 15 15 15 7 1 15 -4 19 -10
5 -6 8 -6 8 2 0 7 -8 16 -17 22 -14 7 -15 12 -4 25 7 8 9 21 5 28 -6 11 -5 11
8 0 13 -10 15 -9 10 14 -3 19 -1 25 6 20 8 -5 10 -1 6 9 -4 8 2 32 12 53 10
20 17 40 16 44 -1 5 8 9 21 9 16 1 18 2 5 6 -20 5 -23 18 -8 28 6 3 10 1 10
-4 0 -6 5 -11 12 -11 6 0 3 9 -7 20 -11 12 -13 20 -6 20 6 0 11 8 9 18 -2 13
3 16 22 15 l25 -3 -24 14 c-20 11 -21 14 -7 19 10 4 15 11 12 15 -3 5 1 19 8
33 14 28 16 34 16 54 0 8 10 24 23 36 12 12 16 19 10 15 -7 -4 -13 -2 -13 3 0
6 12 12 28 12 23 2 24 2 5 6 -27 5 -31 23 -6 23 13 0 14 3 5 12 -7 7 -12 17
-12 22 0 6 5 5 12 -2 7 -7 17 -12 23 -12 5 0 4 4 -4 9 -13 8 -13 16 -1 53 7
24 17 48 21 53 4 6 10 25 14 43 3 17 11 32 16 32 6 0 8 4 5 9 -8 12 4 41 16
41 6 0 4 -8 -3 -17 -13 -16 -12 -17 4 -4 14 11 15 16 5 29 -7 9 -8 13 -3 10 6
-4 17 3 25 15 12 21 12 21 -5 7 -17 -14 -18 -13 -12 3 4 10 7 21 7 23 0 3 5 2
11 -1 6 -4 10 -1 8 6 -3 28 1 40 14 33 9 -5 9 -4 0 6 -8 9 -8 20 3 46 8 19 11
34 7 34 -5 0 -1 5 7 10 8 5 15 13 16 17 2 27 30 96 40 100 7 3 10 12 7 20 -5
12 -3 14 8 8 11 -7 11 -5 -1 10 -12 15 -12 17 -1 10 11 -6 13 -4 8 8 -4 10 0
20 11 26 13 8 13 10 3 11 -11 0 -10 4 5 16 10 8 12 12 4 8 -12 -7 -13 -5 -3 8
7 8 10 18 6 21 -3 4 -1 7 5 7 6 0 9 6 6 14 -3 8 -1 17 5 21 7 3 11 -3 12 -17
1 -18 2 -19 6 -5 3 10 -1 25 -9 34 -11 14 -11 16 1 8 11 -6 13 -4 8 9 -6 14
-3 17 9 12 15 -6 15 -4 3 11 -12 15 -12 16 2 11 9 -3 22 -2 30 4 11 8 11 9 -3
4 -22 -7 -33 11 -19 28 6 7 7 17 3 21 -4 5 -1 5 5 1 9 -5 12 2 9 24 -3 28 -2
29 13 17 9 -8 23 -17 31 -21 8 -4 6 0 -5 9 -20 16 -30 55 -13 55 5 0 7 4 4 9
-9 14 5 43 19 38 6 -3 12 1 12 9 0 7 -5 10 -10 7 -6 -4 -7 -1 -1 8 4 8 10 20
11 27 10 44 36 102 46 102 4 0 5 5 2 10 -3 6 -2 10 2 10 5 0 9 12 9 27 -1 14
5 28 13 31 11 4 12 -2 7 -24 -5 -25 -5 -26 5 -10 9 15 9 24 0 38 -9 15 -9 23
0 34 6 8 8 14 3 14 -4 0 1 7 12 16 10 8 14 13 8 10 -6 -3 -11 1 -11 9 0 8 4
12 9 9 16 -10 28 7 18 26 -7 13 -7 21 2 26 6 4 8 3 4 -4 -3 -6 -3 -13 2 -16 4
-2 7 15 7 40 -1 36 1 42 12 32 11 -9 12 -13 1 -19 -11 -7 -11 -9 0 -9 7 0 10
-5 6 -12 -4 -6 -3 -8 4 -5 8 6 10 42 1 42 -1 0 -3 10 -4 23 -1 12 2 22 7 22 5
0 6 5 3 10 -4 6 1 22 10 36 9 14 14 31 12 37 -2 7 4 22 14 35 10 13 15 30 12
39 -4 11 -2 14 5 9 8 -5 12 0 12 14 0 12 5 18 10 15 14 -9 13 8 -2 23 -9 9 -8
12 4 12 9 0 20 5 24 12 5 7 3 8 -5 3 -10 -6 -11 -3 -1 15 6 12 9 24 6 28 -3 3
1 14 11 24 9 10 13 18 9 18 -4 0 5 11 20 25 15 14 22 25 16 25 -6 0 -16 -8
-21 -17 -6 -10 -11 -13 -11 -6 0 6 6 18 13 25 8 7 12 18 10 25 -2 6 1 15 8 19
8 4 9 3 5 -4 -4 -7 -2 -12 4 -12 6 0 8 -5 4 -12 -4 -7 -3 -8 5 -4 9 6 9 13 -2
30 -12 18 -12 23 -1 34 7 7 11 19 8 27 -4 8 -1 15 6 15 6 0 9 -4 5 -9 -3 -5
-2 -12 3 -15 13 -8 11 28 -2 36 -6 4 -7 10 -3 14 3 4 13 1 22 -6 8 -7 15 -9
15 -5 0 4 -8 14 -17 22 -10 8 -12 11 -5 8 9 -5 12 -1 10 11 -2 12 2 18 11 16
12 -3 12 -1 0 14 -12 16 -12 17 4 11 19 -7 24 8 5 16 -10 4 -10 8 1 15 8 6 10
15 6 23 -6 8 -4 11 7 7 8 -4 15 0 15 8 0 7 -3 11 -7 9 -4 -3 0 15 9 40 8 24
22 46 31 49 10 2 9 4 -4 5 -20 1 -20 1 0 16 11 8 14 14 6 15 -10 0 -10 5 -2
20 6 11 8 25 5 31 -4 6 3 8 19 5 14 -3 28 -1 31 4 3 5 -4 7 -15 5 -12 -2 -24
3 -30 16 -8 14 -7 19 2 19 9 0 9 3 -2 10 -12 8 -12 10 5 11 18 0 19 1 2 8 -22
8 -24 21 -5 32 10 6 8 9 -7 9 -17 0 -17 2 -5 10 10 6 11 10 3 10 -7 0 -13 7
-13 16 0 9 5 13 13 9 6 -4 1 2 -12 13 -16 13 -22 25 -18 36 4 9 3 15 -2 12 -4
-3 -17 12 -27 33 -10 22 -22 37 -26 35 -5 -3 -8 4 -8 15 0 12 -6 20 -12 18 -7
-1 -12 4 -11 11 2 6 -6 12 -17 12 -11 0 -20 7 -20 16 0 8 -4 12 -10 9 -5 -3
-10 -1 -10 6 0 7 -3 9 -6 6 -4 -4 -18 6 -31 21 -18 21 -22 22 -17 7 7 -19 7
-19 -13 -2 -11 9 -23 14 -26 10 -4 -3 -7 0 -7 7 0 7 -3 10 -7 7 -3 -4 -12 1
-20 11 -8 9 -12 11 -8 5 9 -18 -5 -16 -28 5 -11 9 -17 12 -13 5 4 -7 -18 -1
-49 12 -31 14 -62 25 -71 25 -9 0 -12 5 -8 12 5 7 2 9 -8 5 -9 -3 -28 1 -43 9
-15 8 -34 14 -42 14 -8 0 -12 4 -9 9 3 5 -6 9 -20 9 -15 0 -29 4 -33 9 -3 5
-13 8 -21 8 -8 -1 -21 3 -29 9 -7 6 -20 11 -29 12 -8 2 -19 9 -23 16 -7 11 -9
11 -9 0 0 -7 -5 -10 -10 -7 -6 4 -8 10 -5 15 3 4 -4 6 -15 3 -12 -3 -20 0 -20
6 0 7 -4 9 -10 6 -5 -3 -10 -2 -10 4 0 5 -8 8 -17 7 -24 -4 -53 15 -46 29 3 5
0 5 -7 -2 -9 -8 -20 -8 -44 2 -17 7 -31 18 -31 23 0 6 -4 14 -9 19 -5 4 -6 3
-2 -4 4 -8 -1 -11 -14 -10 -11 1 -20 5 -20 9 0 4 -6 5 -14 2 -8 -3 -17 0 -21
5 -3 6 -11 8 -17 5 -7 -5 -8 -2 -3 6 6 10 4 12 -7 7 -9 -3 -19 -3 -23 1 -4 4
-10 7 -13 8 -4 0 -15 4 -24 7 -10 4 -26 10 -35 14 -10 3 -22 7 -28 8 -5 0 -9
5 -8 10 1 6 -8 11 -20 11 -47 4 -62 11 -60 30 1 11 0 13 -3 7 -3 -7 -12 -13
-20 -13 -9 0 -13 3 -11 8 3 4 -9 8 -26 9 -17 1 -35 7 -41 13 -5 5 -18 10 -29
10 -10 0 -16 4 -13 9 3 5 -6 9 -20 9 -15 0 -30 5 -34 12 -4 6 -10 11 -14 11
-23 -3 -36 0 -31 9 3 5 0 7 -8 4 -8 -3 -20 2 -27 11 -7 8 -18 15 -24 15 -6 0
-4 -5 4 -10 9 -6 10 -10 3 -10 -6 0 -15 5 -18 10 -3 6 -15 10 -26 10 -10 0
-19 5 -19 11 0 6 -7 8 -16 5 -12 -5 -15 -2 -10 11 6 14 4 15 -5 6 -8 -8 -19
-8 -41 -1 -21 8 -26 14 -19 21 14 14 14 27 0 27 -5 0 -8 -4 -5 -9 11 -17 -22
-19 -45 -3 -13 9 -26 14 -29 12 -3 -3 -5 23 -5 57 -1 34 3 59 7 57 4 -3 8 0 8
6 0 6 5 8 10 5 6 -3 10 -1 10 5 0 6 -8 9 -18 6 -15 -5 -17 1 -17 57 1 34 -3
72 -7 85 -6 16 -4 22 7 22 11 0 10 5 -6 21 -17 17 -19 23 -8 30 8 5 9 9 4 9
-6 0 -24 27 -39 60 -16 33 -33 60 -38 60 -5 0 -6 5 -3 10 3 6 0 10 -8 10 -14
0 -32 27 -29 42 1 4 -5 5 -13 2 -8 -4 -15 -2 -15 4 0 12 -119 72 -143 72 -10
0 -16 4 -13 8 3 5 -5 8 -17 8 -13 -1 -21 4 -19 12 1 8 -2 11 -8 7 -6 -3 -8 -9
-6 -13 3 -6 -604 -7 -624 -2 -3 1 -29 1 -58 0 -32 -1 -60 4 -69 12 -9 7 -14 8
-10 2 9 -16 -28 -25 -42 -11 -8 8 -11 8 -11 -1 0 -10 -5 -10 -20 -2 -11 6 -20
7 -20 3 0 -4 -99 -8 -220 -8 -184 0 -219 2 -215 14 4 11 3 11 -9 2 -21 -17
-394 -15 -415 2 -10 8 -13 8 -8 1 9 -16 -28 -25 -42 -11 -8 8 -11 8 -11 -1 0
-10 -5 -10 -20 -2 -11 6 -20 7 -20 3 0 -4 -90 -8 -200 -8 -156 0 -199 3 -195
13 2 6 3 12 1 12 -2 0 -8 -6 -14 -12z m1695 -5335 c-5 14 -3 16 11 9 9 -5 25
-8 35 -6 12 1 26 -9 38 -29 18 -29 20 -29 15 -7 -3 14 -3 19 0 12 3 -6 9 -10
14 -7 5 3 15 -2 23 -10 12 -11 17 -12 20 -2 3 7 6 5 6 -5 1 -10 6 -18 12 -18
5 0 7 6 3 13 -6 9 -5 9 8 0 8 -7 19 -9 23 -5 5 4 5 1 0 -7 -6 -10 -2 -12 14
-6 23 7 28 -4 9 -23 -9 -9 -14 -7 -25 6 -12 16 -14 16 -26 0 -13 -16 -16 -16
-33 -2 -18 14 -18 15 6 8 l25 -7 -25 21 c-16 13 -30 17 -40 12 -18 -9 -42 -2
-34 11 3 5 0 9 -5 9 -6 0 -11 -5 -11 -11 0 -5 -10 0 -22 13 -13 13 -16 16 -8
5 12 -16 12 -19 0 -27 -8 -5 -19 -5 -25 0 -13 11 -27 11 -41 -1 -6 -5 -21 -7
-34 -4 -25 5 -53 -22 -43 -40 3 -5 0 -4 -8 3 -10 9 -10 15 -1 24 8 8 9 15 1
25 -9 9 -8 13 0 13 7 0 9 5 5 12 -4 7 -3 8 4 4 6 -4 9 -14 6 -24 -3 -9 2 -6
10 8 14 23 22 16 17 -13 -1 -5 3 -6 8 -3 5 4 8 15 6 25 -2 12 2 18 13 17 10 0
16 5 14 14 -3 10 3 9 19 -5 20 -18 22 -18 16 -2z m1033 -294 c0 -6 -4 -7 -10
-4 -5 3 -10 11 -10 16 0 6 5 7 10 4 6 -3 10 -11 10 -16z"/>
<path d="M3926 1184 c-11 -8 -14 -14 -7 -14 7 0 9 -5 5 -12 -6 -10 -4 -10 7
-2 16 12 29 12 46 1 18 -11 25 9 8 23 -8 7 -15 9 -15 5 0 -4 -6 -3 -13 3 -8 7
-18 6 -31 -4z m28 -2 c3 -5 -1 -9 -9 -9 -8 0 -12 4 -9 9 3 4 7 8 9 8 2 0 6 -4
9 -8z"/>
<path d="M4011 1184 c6 -7 16 -11 21 -8 11 7 3 17 -18 20 -12 2 -13 -1 -3 -12z"/>
<path d="M4870 6261 c0 -6 4 -13 10 -16 6 -3 7 1 4 9 -7 18 -14 21 -14 7z"/>
<path d="M4910 6239 c0 -5 5 -7 10 -4 6 3 10 8 10 11 0 2 -4 4 -10 4 -5 0 -10
-5 -10 -11z"/>
<path d="M4854 6222 c4 -3 14 -7 22 -8 9 -1 13 0 10 4 -4 3 -14 7 -22 8 -9 1
-13 0 -10 -4z"/>
<path d="M4895 6129 c-4 -6 -5 -12 -2 -15 2 -3 7 2 10 11 7 17 1 20 -8 4z"/>
<path d="M4894 6083 c1 -12 6 -26 10 -30 4 -5 6 -1 4 7 -1 8 2 14 8 13 6 -1
11 5 11 12 0 11 -4 12 -13 4 -8 -7 -14 -6 -17 3 -3 7 -5 3 -3 -9z"/>
<path d="M4870 6061 c0 -6 4 -13 10 -16 6 -3 7 1 4 9 -7 18 -14 21 -14 7z"/>
<path d="M4966 6022 c-3 -5 1 -9 9 -9 8 0 12 4 9 9 -3 4 -7 8 -9 8 -2 0 -6 -4
-9 -8z"/>
<path d="M4900 6000 c0 -6 7 -10 15 -10 8 0 15 2 15 4 0 2 -7 6 -15 10 -8 3
-15 1 -15 -4z"/>
<path d="M4867 5976 c-4 -10 -1 -13 9 -9 7 3 14 9 14 14 0 14 -17 10 -23 -5z"/>
<path d="M4966 5978 c3 -5 10 -6 15 -3 13 9 11 12 -6 12 -8 0 -12 -4 -9 -9z"/>
<path d="M4886 5955 c-10 -8 -20 -26 -21 -39 -3 -23 -1 -25 17 -15 18 10 20 9
15 -5 -6 -14 -3 -15 13 -6 11 6 20 16 20 23 0 9 -2 9 -8 0 -6 -9 -12 -8 -25 7
-9 11 -12 22 -7 25 5 3 11 1 15 -5 3 -5 11 -10 18 -10 6 0 2 7 -9 16 -17 14
-17 15 -1 10 11 -3 16 -2 12 4 -8 13 -16 12 -39 -5z m-1 -35 c3 -5 1 -10 -4
-10 -6 0 -11 5 -11 10 0 6 2 10 4 10 3 0 8 -4 11 -10z"/>
<path d="M4948 5923 c7 -3 16 -2 19 1 4 3 -2 6 -13 5 -11 0 -14 -3 -6 -6z"/>
<path d="M4956 5898 c3 -4 11 -5 19 -1 21 7 19 12 -4 10 -11 0 -18 -5 -15 -9z"/>
<path d="M4986 5878 c3 -5 10 -6 15 -3 13 9 11 12 -6 12 -8 0 -12 -4 -9 -9z"/>
<path d="M4955 5860 c-3 -5 -1 -10 4 -10 6 0 11 5 11 10 0 6 -2 10 -4 10 -3 0
-8 -4 -11 -10z"/>
<path d="M5010 5866 c0 -2 7 -7 16 -10 8 -3 12 -2 9 4 -6 10 -25 14 -25 6z"/>
<path d="M5050 5859 c0 -5 5 -7 10 -4 6 3 10 8 10 11 0 2 -4 4 -10 4 -5 0 -10
-5 -10 -11z"/>
<path d="M1726 5822 c-3 -5 1 -9 9 -9 8 0 12 4 9 9 -3 4 -7 8 -9 8 -2 0 -6 -4
-9 -8z"/>
<path d="M1730 5779 c0 -5 5 -7 10 -4 6 3 10 8 10 11 0 2 -4 4 -10 4 -5 0 -10
-5 -10 -11z"/>
<path d="M1739 5508 c-5 -18 -6 -59 -2 -54 7 6 13 56 7 56 -2 0 -4 -1 -5 -2z"/>
<path d="M1700 5460 c-9 -6 -10 -10 -3 -10 6 0 15 5 18 10 8 12 4 12 -15 0z"/>
<path d="M1696 5393 c-6 -14 -5 -15 5 -6 7 7 10 15 7 18 -3 3 -9 -2 -12 -12z"/>
<path d="M1725 5399 c-4 -6 -5 -12 -2 -15 2 -3 7 2 10 11 7 17 1 20 -8 4z"/>
<path d="M1590 5340 c0 -5 5 -10 11 -10 5 0 7 5 4 10 -3 6 -8 10 -11 10 -2 0
-4 -4 -4 -10z"/>
<path d="M6595 5209 c-4 -6 -5 -12 -2 -15 2 -3 7 2 10 11 7 17 1 20 -8 4z"/>
<path d="M6655 5101 c-3 -5 -2 -12 3 -15 5 -3 9 1 9 9 0 17 -3 19 -12 6z"/>
<path d="M589 4923 c-13 -16 -12 -17 4 -4 9 7 17 15 17 17 0 8 -8 3 -21 -13z"/>
<path d="M6730 4879 c0 -5 5 -7 10 -4 6 3 10 8 10 11 0 2 -4 4 -10 4 -5 0 -10
-5 -10 -11z"/>
<path d="M6693 4835 c0 -8 4 -12 9 -9 4 3 8 9 8 15 0 5 -4 9 -8 9 -5 0 -9 -7
-9 -15z"/>
<path d="M6730 4781 c0 -6 4 -13 10 -16 6 -3 7 1 4 9 -7 18 -14 21 -14 7z"/>
<path d="M6650 4759 c0 -8 56 -6 64 2 3 3 -10 5 -29 5 -19 0 -35 -3 -35 -7z"/>
<path d="M6630 4716 c0 -2 9 -6 20 -9 11 -3 18 -1 14 4 -5 9 -34 13 -34 5z"/>
<path d="M6621 4644 c0 -11 3 -14 6 -6 3 7 2 16 -1 19 -3 4 -6 -2 -5 -13z"/>
<path d="M6617 4601 c-4 -17 -3 -21 5 -13 5 5 8 16 6 23 -3 8 -7 3 -11 -10z"/>
<path d="M6636 4558 c3 -5 10 -6 15 -3 13 9 11 12 -6 12 -8 0 -12 -4 -9 -9z"/>
<path d="M6616 4534 c-8 -20 -8 -24 2 -24 4 0 8 9 9 20 2 24 -3 26 -11 4z"/>
<path d="M6574 4478 c-4 -5 -3 -12 0 -15 3 -4 6 -1 6 6 0 7 4 10 9 6 5 -3 12
-2 15 3 3 5 -2 9 -10 9 -8 0 -17 -4 -20 -9z"/>
<path d="M6550 4461 c0 -6 4 -13 10 -16 6 -3 7 1 4 9 -7 18 -14 21 -14 7z"/>
<path d="M6600 4460 c-9 -6 -10 -10 -3 -10 6 0 15 5 18 10 8 12 4 12 -15 0z"/>
<path d="M6510 4351 c-7 -15 -7 -19 5 -17 8 1 18 6 22 11 5 4 2 5 -6 0 -11 -6
-13 -4 -8 8 9 23 0 21 -13 -2z"/>
<path d="M6476 4322 c-3 -4 4 -9 15 -9 23 -2 25 3 4 10 -8 4 -16 3 -19 -1z"/>
<path d="M6513 4285 c0 -8 4 -12 9 -9 5 3 6 10 3 15 -9 13 -12 11 -12 -6z"/>
<path d="M6465 4240 c-3 -6 1 -7 9 -4 18 7 21 14 7 14 -6 0 -13 -4 -16 -10z"/>
<path d="M6507 4219 c7 -7 15 -10 18 -7 3 3 -2 9 -12 12 -14 6 -15 5 -6 -5z"/>
<path d="M6461 4208 c-1 -20 14 -24 25 -6 4 6 3 8 -4 4 -5 -3 -13 0 -15 6 -3
8 -6 6 -6 -4z"/>
<path d="M6427 4150 c-3 -11 -3 -20 -1 -20 2 0 8 9 14 20 6 11 7 20 2 20 -6 0
-12 -9 -15 -20z"/>
<path d="M6396 4122 c-3 -4 4 -9 15 -9 23 -2 25 3 4 10 -8 4 -16 3 -19 -1z"/>
<path d="M6436 4102 c-2 -4 -1 -14 4 -22 7 -11 9 -9 7 8 -1 24 -3 26 -11 14z"/>
<path d="M6396 4084 c-4 -10 -2 -22 4 -28 8 -8 9 -5 4 9 -7 18 -6 19 12 5 18
-14 18 -14 4 5 -8 11 -15 21 -16 23 -1 2 -4 -5 -8 -14z"/>
<path d="M6370 4040 c0 -5 5 -10 10 -10 6 0 10 5 10 10 0 6 -4 10 -10 10 -5 0
-10 -4 -10 -10z"/>
<path d="M6450 4019 c0 -5 5 -7 10 -4 6 3 10 8 10 11 0 2 -4 4 -10 4 -5 0 -10
-5 -10 -11z"/>
<path d="M6373 4004 c-3 -8 -2 -19 3 -24 5 -5 9 1 9 16 0 28 -3 30 -12 8z"/>
<path d="M6395 4001 c-6 -11 13 -26 22 -17 4 3 1 6 -6 6 -7 0 -9 5 -6 10 3 6
4 10 1 10 -3 0 -7 -4 -11 -9z"/>
<path d="M6440 3980 c-12 -7 -10 -9 7 -7 12 0 19 5 17 9 -6 10 -6 10 -24 -2z"/>
<path d="M6392 3928 c-7 -7 -12 -8 -12 -4 0 5 -7 3 -15 -4 -8 -7 -15 -18 -15
-24 0 -6 5 -3 11 7 6 9 14 15 18 12 5 -2 14 2 21 10 15 18 9 20 -8 3z"/>
<path d="M6435 3929 c-4 -6 -5 -12 -2 -15 2 -3 7 2 10 11 7 17 1 20 -8 4z"/>
<path d="M6414 3856 c1 -8 5 -18 8 -22 4 -3 5 1 4 10 -1 8 -5 18 -8 22 -4 3
-5 -1 -4 -10z"/>
<path d="M6353 3843 c4 -3 1 -13 -6 -22 -11 -14 -10 -14 6 -2 20 15 22 31 5
31 -6 0 -8 -3 -5 -7z"/>
<path d="M6308 3813 c7 -3 16 -2 19 1 4 3 -2 6 -13 5 -11 0 -14 -3 -6 -6z"/>
<path d="M550 3806 c0 -2 8 -10 18 -17 15 -13 16 -12 3 4 -13 16 -21 21 -21
13z"/>
<path d="M6283 3720 c-11 -16 -10 -18 2 -14 8 4 15 12 15 20 0 19 -3 18 -17
-6z"/>
<path d="M6295 3690 c-4 -6 -16 -8 -28 -4 -12 3 -19 3 -15 -1 14 -14 55 -13
55 1 0 17 -4 18 -12 4z"/>
<path d="M6238 3663 c7 -3 16 -2 19 1 4 3 -2 6 -13 5 -11 0 -14 -3 -6 -6z"/>
<path d="M6336 3658 c3 -4 11 -5 19 -1 21 7 19 12 -4 10 -11 0 -18 -5 -15 -9z"/>
<path d="M6217 3631 c-4 -17 -3 -21 5 -13 5 5 8 16 6 23 -3 8 -7 3 -11 -10z"/>
<path d="M6239 3623 c-5 -36 -5 -62 -1 -58 7 7 12 65 6 65 -2 0 -4 -3 -5 -7z"/>
<path d="M6315 3621 c-3 -5 -2 -12 3 -15 5 -3 9 1 9 9 0 17 -3 19 -12 6z"/>
<path d="M6230 3540 c0 -5 5 -10 11 -10 5 0 7 5 4 10 -3 6 -8 10 -11 10 -2 0
-4 -4 -4 -10z"/>
<path d="M6170 3520 c0 -5 5 -10 10 -10 6 0 10 5 10 10 0 6 -4 10 -10 10 -5 0
-10 -4 -10 -10z"/>
<path d="M6191 3488 c-1 -10 3 -18 8 -18 5 0 15 8 22 18 13 15 12 16 -3 4 -13
-10 -17 -10 -21 0 -4 8 -6 7 -6 -4z"/>
<path d="M6230 3459 c0 -5 5 -7 10 -4 6 3 10 8 10 11 0 2 -4 4 -10 4 -5 0 -10
-5 -10 -11z"/>
<path d="M6155 3419 c-4 -6 -5 -12 -2 -15 2 -3 7 2 10 11 7 17 1 20 -8 4z"/>
<path d="M6206 3418 c3 -5 10 -6 15 -3 13 9 11 12 -6 12 -8 0 -12 -4 -9 -9z"/>
<path d="M6160 3366 c0 -2 8 -10 18 -17 15 -13 16 -12 3 4 -13 16 -21 21 -21
13z"/>
<path d="M6235 3350 c-4 -6 -11 -7 -17 -4 -7 4 -8 2 -4 -5 6 -9 11 -9 22 0 14
11 18 19 10 19 -3 0 -8 -5 -11 -10z"/>
<path d="M6133 3313 c0 -9 4 -10 14 -2 7 6 13 12 13 14 0 1 -6 2 -13 2 -8 0
-14 -6 -14 -14z"/>
<path d="M6170 3299 c0 -5 5 -7 10 -4 6 3 10 8 10 11 0 2 -4 4 -10 4 -5 0 -10
-5 -10 -11z"/>
<path d="M6173 3265 c0 -8 4 -12 9 -9 5 3 6 10 3 15 -9 13 -12 11 -12 -6z"/>
<path d="M6110 3226 c0 -2 7 -7 16 -10 8 -3 12 -2 9 4 -6 10 -25 14 -25 6z"/>
<path d="M6093 3203 c1 -17 4 -19 14 -11 15 12 18 22 4 14 -5 -4 -11 0 -14 6
-3 7 -4 3 -4 -9z"/>
<path d="M765 3200 c-3 -6 1 -7 9 -4 18 7 21 14 7 14 -6 0 -13 -4 -16 -10z"/>
<path d="M6075 3153 c1 -10 -2 -25 -8 -33 -9 -12 -9 -13 3 -3 16 15 24 53 11
53 -5 0 -8 -8 -6 -17z"/>
<path d="M6030 3091 c0 -7 -4 -9 -10 -6 -5 3 -10 1 -10 -4 0 -6 4 -11 9 -11
13 0 25 20 17 27 -3 4 -6 1 -6 -6z"/>
<path d="M6040 3060 c-9 -6 -10 -10 -3 -10 6 0 15 5 18 10 8 12 4 12 -15 0z"/>
<path d="M6074 3056 c1 -8 5 -18 8 -22 4 -3 5 1 4 10 -1 8 -5 18 -8 22 -4 3
-5 -1 -4 -10z"/>
<path d="M839 3033 c-13 -16 -12 -17 4 -4 9 7 17 15 17 17 0 8 -8 3 -21 -13z"/>
<path d="M6033 2993 c0 -9 4 -10 14 -2 7 6 13 12 13 14 0 1 -6 2 -13 2 -8 0
-14 -6 -14 -14z"/>
<path d="M6075 3000 c-3 -5 -1 -10 4 -10 6 0 11 5 11 10 0 6 -2 10 -4 10 -3 0
-8 -4 -11 -10z"/>
<path d="M5975 2980 c3 -5 8 -10 11 -10 2 0 4 5 4 10 0 6 -5 10 -11 10 -5 0
-7 -4 -4 -10z"/>
<path d="M5960 2891 c-7 -15 -7 -22 2 -27 7 -4 10 -4 6 1 -4 4 -3 16 3 26 5
11 7 19 5 19 -3 0 -10 -9 -16 -19z"/>
<path d="M5986 2859 c2 -4 13 -7 24 -6 23 2 17 10 -10 12 -10 1 -17 -2 -14 -6z"/>
<path d="M5939 2828 c0 -2 -2 -13 -3 -24 -2 -19 0 -20 16 -10 16 9 16 12 3 14
-8 2 -13 8 -10 13 4 5 4 9 1 9 -3 0 -6 -1 -7 -2z"/>
<path d="M6016 2802 c-3 -5 1 -9 9 -9 8 0 12 4 9 9 -3 4 -7 8 -9 8 -2 0 -6 -4
-9 -8z"/>
<path d="M5960 2780 c-9 -6 -10 -10 -3 -10 6 0 15 5 18 10 8 12 4 12 -15 0z"/>
<path d="M5913 2750 c5 -29 13 -33 13 -5 0 14 -4 25 -8 25 -4 0 -7 -9 -5 -20z"/>
<path d="M5970 2739 c0 -5 5 -7 10 -4 6 3 10 8 10 11 0 2 -4 4 -10 4 -5 0 -10
-5 -10 -11z"/>
<path d="M5871 2727 c2 -1 12 -9 22 -16 15 -12 17 -12 11 3 -3 9 -13 16 -22
16 -8 0 -13 -1 -11 -3z"/>
<path d="M5860 2706 c0 -2 7 -7 16 -10 8 -3 12 -2 9 4 -6 10 -25 14 -25 6z"/>
<path d="M985 2680 c-3 -6 1 -7 9 -4 18 7 21 14 7 14 -6 0 -13 -4 -16 -10z"/>
<path d="M5860 2638 c0 -4 7 -8 15 -8 8 0 15 4 15 8 0 5 -7 9 -15 9 -8 0 -15
-4 -15 -9z"/>
<path d="M5930 2620 c0 -5 5 -10 11 -10 5 0 7 5 4 10 -3 6 -8 10 -11 10 -2 0
-4 -4 -4 -10z"/>
<path d="M5824 2598 c-5 -7 -2 -9 8 -5 9 3 22 0 29 -6 11 -10 11 -9 0 6 -16
20 -27 22 -37 5z"/>
<path d="M1020 2566 c0 -2 8 -10 18 -17 15 -13 16 -12 3 4 -13 16 -21 21 -21
13z"/>
<path d="M5856 2553 c-6 -14 -5 -15 5 -6 7 7 10 15 7 18 -3 3 -9 -2 -12 -12z"/>
<path d="M5839 2513 c-13 -16 -12 -17 4 -4 9 7 17 15 17 17 0 8 -8 3 -21 -13z"/>
<path d="M5870 2521 c0 -6 4 -13 10 -16 6 -3 7 1 4 9 -7 18 -14 21 -14 7z"/>
<path d="M5900 2526 c0 -2 8 -10 18 -17 15 -13 16 -12 3 4 -13 16 -21 21 -21
13z"/>
<path d="M5816 2478 c3 -5 10 -6 15 -3 13 9 11 12 -6 12 -8 0 -12 -4 -9 -9z"/>
<path d="M5794 2446 c0 -13 4 -22 8 -20 9 6 6 44 -3 44 -4 0 -6 -11 -5 -24z"/>
<path d="M5850 2460 c0 -5 5 -10 11 -10 5 0 7 5 4 10 -3 6 -8 10 -11 10 -2 0
-4 -4 -4 -10z"/>
<path d="M5754 2400 c0 -13 4 -16 10 -10 7 7 7 13 0 20 -6 6 -10 3 -10 -10z"/>
<path d="M1130 2380 c0 -5 5 -10 11 -10 5 0 7 5 4 10 -3 6 -8 10 -11 10 -2 0
-4 -4 -4 -10z"/>
<path d="M5790 2375 c5 -7 7 -14 4 -18 -3 -3 1 -4 10 -3 8 1 19 6 23 10 4 4 1
6 -7 4 -8 -1 -14 2 -13 8 1 6 -5 11 -12 11 -10 0 -12 -4 -5 -12z"/>
<path d="M5856 2378 c3 -5 10 -6 15 -3 13 9 11 12 -6 12 -8 0 -12 -4 -9 -9z"/>
<path d="M5730 2326 c0 -2 7 -7 16 -10 8 -3 12 -2 9 4 -6 10 -25 14 -25 6z"/>
<path d="M5789 2283 c-13 -16 -12 -17 4 -4 9 7 17 15 17 17 0 8 -8 3 -21 -13z"/>
<path d="M5833 2285 c0 -8 4 -12 9 -9 5 3 6 10 3 15 -9 13 -12 11 -12 -6z"/>
<path d="M5716 2274 c-8 -20 -8 -24 2 -24 4 0 8 9 9 20 2 24 -3 26 -11 4z"/>
<path d="M1173 2245 c0 -8 4 -12 9 -9 5 3 6 10 3 15 -9 13 -12 11 -12 -6z"/>
<path d="M5746 2238 c3 -5 10 -6 15 -3 13 9 11 12 -6 12 -8 0 -12 -4 -9 -9z"/>
<path d="M5683 2183 c-18 -7 -16 -16 5 -30 15 -9 19 -8 19 3 0 7 -5 10 -10 7
-6 -4 -8 0 -4 10 3 10 5 17 4 16 -1 0 -8 -3 -14 -6z"/>
<path d="M5655 2140 c3 -5 8 -10 11 -10 2 0 4 5 4 10 0 6 -5 10 -11 10 -5 0
-7 -4 -4 -10z"/>
<path d="M5675 2120 c-3 -5 -1 -10 4 -10 6 0 11 5 11 10 0 6 -2 10 -4 10 -3 0
-8 -4 -11 -10z"/>
<path d="M5706 2118 c3 -5 10 -6 15 -3 13 9 11 12 -6 12 -8 0 -12 -4 -9 -9z"/>
<path d="M5630 2076 c0 -2 9 -6 20 -9 11 -3 18 -1 14 4 -5 9 -34 13 -34 5z"/>
<path d="M5656 2033 c-6 -14 -5 -15 5 -6 7 7 10 15 7 18 -3 3 -9 -2 -12 -12z"/>
<path d="M5611 2033 c-1 -17 16 -25 25 -12 4 7 3 9 -4 5 -5 -3 -13 0 -15 6 -4
9 -6 10 -6 1z"/>
<path d="M5675 2009 c-4 -6 -5 -12 -2 -15 2 -3 7 2 10 11 7 17 1 20 -8 4z"/>
<path d="M5675 1971 c-3 -5 -2 -12 3 -15 5 -3 9 1 9 9 0 17 -3 19 -12 6z"/>
<path d="M5565 1931 c-3 -5 -2 -12 3 -15 5 -3 9 1 9 9 0 17 -3 19 -12 6z"/>
<path d="M5590 1901 c0 -6 4 -12 8 -15 5 -3 9 1 9 9 0 8 -4 15 -9 15 -4 0 -8
-4 -8 -9z"/>
<path d="M5627 1899 c7 -7 15 -10 18 -7 3 3 -2 9 -12 12 -14 6 -15 5 -6 -5z"/>
<path d="M5560 1870 c6 -11 13 -20 16 -20 2 0 0 9 -6 20 -6 11 -13 20 -16 20
-2 0 0 -9 6 -20z"/>
<path d="M5654 1858 c-4 -7 -4 -10 1 -6 4 4 15 2 24 -5 14 -11 14 -10 2 6 -16
20 -18 21 -27 5z"/>
<path d="M5576 1793 c-6 -14 -5 -15 5 -6 7 7 10 15 7 18 -3 3 -9 -2 -12 -12z"/>
<path d="M5535 1761 c-3 -5 -2 -12 3 -15 5 -3 9 1 9 9 0 17 -3 19 -12 6z"/>
<path d="M5500 1736 c0 -2 7 -7 16 -10 8 -3 12 -2 9 4 -6 10 -25 14 -25 6z"/>
<path d="M5516 1694 c-20 -19 -20 -21 -1 -21 8 0 13 3 10 5 -3 3 0 11 6 19 16
18 4 16 -15 -3z"/>
<path d="M5546 1682 c-3 -5 1 -9 9 -9 8 0 12 4 9 9 -3 4 -7 8 -9 8 -2 0 -6 -4
-9 -8z"/>
<path d="M5470 1661 c0 -10 28 -41 37 -41 3 0 -1 8 -10 18 -10 10 -14 22 -10
25 3 4 1 7 -5 7 -7 0 -12 -4 -12 -9z"/>
<path d="M5445 1600 c-3 -6 1 -7 9 -4 18 7 21 14 7 14 -6 0 -13 -4 -16 -10z"/>
<path d="M5485 1600 c3 -5 8 -10 11 -10 2 0 4 5 4 10 0 6 -5 10 -11 10 -5 0
-7 -4 -4 -10z"/>
<path d="M1450 1579 c0 -5 5 -7 10 -4 6 3 10 8 10 11 0 2 -4 4 -10 4 -5 0 -10
-5 -10 -11z"/>
<path d="M5455 1580 c-3 -6 1 -7 9 -4 18 7 21 14 7 14 -6 0 -13 -4 -16 -10z"/>
<path d="M5495 1571 c-3 -5 -2 -12 3 -15 5 -3 9 1 9 9 0 17 -3 19 -12 6z"/>
<path d="M5468 1552 c-3 -11 0 -19 7 -19 7 0 10 8 7 19 -2 10 -6 18 -7 18 -1
0 -5 -8 -7 -18z"/>
<path d="M5486 1502 c-3 -5 1 -9 9 -9 8 0 12 4 9 9 -3 4 -7 8 -9 8 -2 0 -6 -4
-9 -8z"/>
<path d="M5400 1476 c0 -8 4 -17 9 -20 5 -4 7 3 4 14 -6 23 -13 26 -13 6z"/>
<path d="M5496 1458 c3 -5 10 -6 15 -3 13 9 11 12 -6 12 -8 0 -12 -4 -9 -9z"/>
<path d="M5430 1439 c0 -5 5 -7 10 -4 6 3 10 8 10 11 0 2 -4 4 -10 4 -5 0 -10
-5 -10 -11z"/>
<path d="M5375 1430 c-3 -6 1 -7 9 -4 18 7 21 14 7 14 -6 0 -13 -4 -16 -10z"/>
<path d="M5390 1381 c0 -6 4 -12 8 -15 5 -3 9 1 9 9 0 8 -4 15 -9 15 -4 0 -8
-4 -8 -9z"/>
<path d="M5427 1379 c7 -7 15 -10 18 -7 3 3 -2 9 -12 12 -14 6 -15 5 -6 -5z"/>
<path d="M5354 1342 c-1 -15 1 -21 3 -14 3 6 9 9 15 6 6 -4 5 2 -1 15 -15 27
-16 27 -17 -7z"/>
<path d="M5435 1340 c3 -5 8 -10 11 -10 2 0 4 5 4 10 0 6 -5 10 -11 10 -5 0
-7 -4 -4 -10z"/>
<path d="M5357 1293 c-10 -9 -9 -23 1 -23 5 0 9 7 9 15 0 17 -1 18 -10 8z"/>
<path d="M5314 1244 c0 -19 2 -34 6 -34 4 0 7 10 6 23 -1 12 2 25 7 28 5 3 3
9 -5 11 -9 4 -13 -4 -14 -28z"/>
<path d="M5336 1193 c-6 -14 -5 -15 5 -6 7 7 10 15 7 18 -3 3 -9 -2 -12 -12z"/>
<path d="M5273 1145 c0 -8 4 -12 9 -9 5 3 6 10 3 15 -9 13 -12 11 -12 -6z"/>
<path d="M1635 1140 c-3 -5 -1 -10 4 -10 6 0 11 5 11 10 0 6 -2 10 -4 10 -3 0
-8 -4 -11 -10z"/>
<path d="M5308 1143 c7 -3 16 -2 19 1 4 3 -2 6 -13 5 -11 0 -14 -3 -6 -6z"/>
<path d="M3910 1111 c0 -10 19 -25 25 -20 1 2 -3 10 -11 17 -8 7 -14 8 -14 3z"/>
<path d="M3750 1099 c0 -5 5 -7 12 -3 8 5 9 2 5 -10 -4 -10 -3 -15 3 -11 6 3
10 1 10 -6 0 -7 3 -10 6 -7 8 8 -14 48 -26 48 -6 0 -10 -5 -10 -11z"/>
<path d="M3996 1093 c-6 -14 -5 -15 5 -6 7 7 10 15 7 18 -3 3 -9 -2 -12 -12z"/>
<path d="M4036 1095 c-9 -26 -7 -32 5 -12 6 10 9 21 6 23 -2 3 -7 -2 -11 -11z"/>
<path d="M5335 1100 c3 -5 8 -10 11 -10 2 0 4 5 4 10 0 6 -5 10 -11 10 -5 0
-7 -4 -4 -10z"/>
<path d="M4066 1084 c-20 -19 -20 -20 2 -20 10 0 18 8 18 18 0 22 -1 22 -20 2z"/>
<path d="M3710 1080 c-8 -5 -10 -10 -5 -10 6 0 17 5 25 10 8 5 11 10 5 10 -5
0 -17 -5 -25 -10z"/>
<path d="M3890 1082 c0 -5 7 -9 15 -9 8 0 12 4 9 9 -3 4 -9 8 -15 8 -5 0 -9
-4 -9 -8z"/>
<path d="M4252 1076 c7 -8 15 -12 17 -11 5 6 -10 25 -20 25 -5 0 -4 -6 3 -14z"/>
<path d="M5259 1080 c-9 -6 -6 -8 14 -6 32 3 43 11 18 13 -9 1 -24 -2 -32 -7z"/>
<path d="M3815 1070 c-3 -6 1 -7 9 -4 18 7 21 14 7 14 -6 0 -13 -4 -16 -10z"/>
<path d="M4109 1063 c-13 -16 -12 -17 4 -4 16 13 21 21 13 21 -2 0 -10 -8 -17
-17z"/>
<path d="M3986 1058 c3 -4 9 -8 15 -8 5 0 9 4 9 8 0 5 -7 9 -15 9 -8 0 -12 -4
-9 -9z"/>
<path d="M4236 1055 c-3 -9 -11 -13 -17 -9 -8 5 -9 3 -4 -5 6 -10 11 -9 23 3
9 8 13 18 10 21 -3 3 -8 -1 -12 -10z"/>
<path d="M4295 1061 c-6 -11 13 -26 22 -17 4 3 1 6 -6 6 -7 0 -9 5 -6 10 3 6
4 10 1 10 -3 0 -7 -4 -11 -9z"/>
<path d="M3896 1047 c3 -10 9 -15 12 -12 3 3 0 11 -7 18 -10 9 -11 8 -5 -6z"/>
<path d="M4351 1044 c0 -11 3 -14 6 -6 3 7 2 16 -1 19 -3 4 -6 -2 -5 -13z"/>
<path d="M3610 1040 c0 -5 5 -10 10 -10 6 0 10 5 10 10 0 6 -4 10 -10 10 -5 0
-10 -4 -10 -10z"/>
<path d="M3758 1043 c7 -3 16 -2 19 1 4 3 -2 6 -13 5 -11 0 -14 -3 -6 -6z"/>
<path d="M4274 1036 c1 -8 5 -18 8 -22 4 -3 5 1 4 10 -1 8 -5 18 -8 22 -4 3
-5 -1 -4 -10z"/>
<path d="M5211 1047 c2 -1 13 -9 24 -17 19 -14 19 -14 6 3 -7 9 -18 17 -24 17
-6 0 -8 -1 -6 -3z"/>
<path d="M3550 1030 c0 -5 5 -10 11 -10 5 0 7 5 4 10 -3 6 -8 10 -11 10 -2 0
-4 -4 -4 -10z"/>
<path d="M3679 1038 c-6 -23 -7 -48 -1 -48 4 0 8 11 8 25 0 21 -4 33 -7 23z"/>
<path d="M4395 1030 c-3 -6 1 -7 9 -4 18 7 21 14 7 14 -6 0 -13 -4 -16 -10z"/>
<path d="M3990 1021 c0 -6 4 -13 10 -16 6 -3 7 1 4 9 -7 18 -14 21 -14 7z"/>
<path d="M4093 1015 c0 -8 4 -12 9 -9 5 3 6 10 3 15 -9 13 -12 11 -12 -6z"/>
<path d="M4430 1025 c0 -5 5 -17 10 -25 5 -8 10 -10 10 -5 0 6 -5 17 -10 25
-5 8 -10 11 -10 5z"/>
<path d="M4497 1006 c-5 -12 -3 -15 5 -10 7 5 9 2 5 -8 -4 -11 -1 -15 11 -13
9 2 20 4 25 4 4 1 7 6 7 13 0 9 -3 9 -12 0 -10 -10 -15 -8 -24 9 -10 19 -12
19 -17 5z"/>
<path d="M5215 1009 c-4 -6 -5 -12 -2 -15 2 -3 7 2 10 11 7 17 1 20 -8 4z"/>
<path d="M5375 1011 c-3 -5 -2 -12 3 -15 5 -3 9 1 9 9 0 17 -3 19 -12 6z"/>
<path d="M3516 998 c3 -4 0 -8 -7 -8 -7 0 -9 -3 -6 -6 4 -4 13 -2 20 4 8 7 17
9 20 5 4 -3 7 -1 7 5 0 6 -9 10 -19 9 -11 0 -17 -5 -15 -9z"/>
<path d="M3565 999 c-3 -4 2 -6 10 -5 21 3 28 13 10 13 -9 0 -18 -4 -20 -8z"/>
<path d="M4393 991 c0 -11 5 -18 9 -15 4 3 5 11 1 19 -7 21 -12 19 -10 -4z"/>
<path d="M4467 987 c-3 -8 1 -14 8 -14 7 0 11 6 8 14 -3 7 -6 13 -8 13 -2 0
-5 -6 -8 -13z"/>
<path d="M4355 980 c3 -5 8 -10 11 -10 2 0 4 5 4 10 0 6 -5 10 -11 10 -5 0 -7
-4 -4 -10z"/>
<path d="M4564 982 c4 -7 2 -21 -5 -30 -12 -15 -11 -15 6 0 16 15 17 20 6 30
-11 11 -13 10 -7 0z"/>
<path d="M4435 971 c-3 -5 -2 -12 3 -15 5 -3 9 1 9 9 0 17 -3 19 -12 6z"/>
<path d="M3493 953 c0 -9 4 -10 14 -2 7 6 13 12 13 14 0 1 -6 2 -13 2 -8 0
-14 -6 -14 -14z"/>
<path d="M3575 960 c3 -5 8 -10 11 -10 2 0 4 5 4 10 0 6 -5 10 -11 10 -5 0 -7
-4 -4 -10z"/>
<path d="M4625 960 c3 -4 14 -10 25 -13 11 -3 18 -2 15 3 -3 4 -14 10 -25 13
-11 3 -18 2 -15 -3z"/>
<path d="M5116 955 c-11 -8 -15 -15 -9 -15 7 0 15 5 18 10 4 6 11 8 16 5 5 -4
9 -1 9 4 0 15 -11 13 -34 -4z"/>
<path d="M5190 961 c0 -6 4 -13 10 -16 6 -3 7 1 4 9 -7 18 -14 21 -14 7z"/>
<path d="M3530 940 c0 -5 5 -10 11 -10 5 0 7 5 4 10 -3 6 -8 10 -11 10 -2 0
-4 -4 -4 -10z"/>
<path d="M4510 936 c7 -7 13 -7 20 0 6 6 3 10 -10 10 -13 0 -16 -4 -10 -10z"/>
<path d="M4590 946 c0 -2 9 -6 20 -9 11 -3 18 -1 14 4 -5 9 -34 13 -34 5z"/>
<path d="M5155 941 c-3 -5 -2 -12 3 -15 5 -3 9 1 9 9 0 17 -3 19 -12 6z"/>
<path d="M5071 931 c-7 -5 -12 -14 -10 -20 2 -6 10 -2 17 9 14 22 13 23 -7 11z"/>
<path d="M3302 916 c10 -7 16 -15 13 -18 -3 -2 2 -5 10 -5 13 0 13 3 -2 19 -9
10 -21 18 -27 18 -6 0 -3 -7 6 -14z"/>
<path d="M3346 917 c3 -10 9 -15 12 -12 3 3 0 11 -7 18 -10 9 -11 8 -5 -6z"/>
<path d="M4596 913 c-6 -14 -5 -15 5 -6 7 7 10 15 7 18 -3 3 -9 -2 -12 -12z"/>
<path d="M4656 913 c-6 -14 -5 -15 5 -6 7 7 10 15 7 18 -3 3 -9 -2 -12 -12z"/>
<path d="M3226 902 c-3 -5 1 -9 9 -9 8 0 15 4 15 9 0 4 -4 8 -9 8 -6 0 -12 -4
-15 -8z"/>
<path d="M3475 900 c3 -5 8 -10 11 -10 2 0 4 5 4 10 0 6 -5 10 -11 10 -5 0 -7
-4 -4 -10z"/>
<path d="M4535 900 c3 -5 8 -10 11 -10 2 0 4 5 4 10 0 6 -5 10 -11 10 -5 0 -7
-4 -4 -10z"/>
<path d="M4736 897 c3 -10 9 -15 12 -12 3 3 0 11 -7 18 -10 9 -11 8 -5 -6z"/>
<path d="M5106 898 c3 -5 10 -6 15 -3 13 9 11 12 -6 12 -8 0 -12 -4 -9 -9z"/>
<path d="M3430 896 c0 -2 8 -10 18 -17 15 -13 16 -12 3 4 -13 16 -21 21 -21
13z"/>
<path d="M4758 876 c-13 -18 -14 -23 -2 -23 8 0 12 3 9 5 -3 3 0 11 7 19 6 7
9 15 7 17 -2 2 -12 -6 -21 -18z"/>
<path d="M4850 891 c0 -6 4 -13 10 -16 6 -3 7 1 4 9 -7 18 -14 21 -14 7z"/>
<path d="M3184 876 c-13 -10 -14 -15 -4 -21 9 -5 11 -4 6 3 -7 12 5 16 32 13
16 -2 15 6 -2 12 -8 3 -22 0 -32 -7z"/>
<path d="M3270 881 c0 -6 4 -12 8 -15 5 -3 9 1 9 9 0 8 -4 15 -9 15 -4 0 -8
-4 -8 -9z"/>
<path d="M3370 880 c0 -5 5 -10 11 -10 5 0 7 5 4 10 -3 6 -8 10 -11 10 -2 0
-4 -4 -4 -10z"/>
<path d="M4656 878 c3 -5 10 -6 15 -3 13 9 11 12 -6 12 -8 0 -12 -4 -9 -9z"/>
<path d="M4798 883 c7 -3 16 -2 19 1 4 3 -2 6 -13 5 -11 0 -14 -3 -6 -6z"/>
<path d="M4963 878 c-9 -16 -16 -54 -7 -46 3 3 6 12 8 20 1 7 5 19 9 26 5 6 6
12 3 12 -3 0 -8 -6 -13 -12z"/>
<path d="M5010 878 c0 -11 12 -10 30 2 12 7 10 9 -8 7 -12 0 -22 -5 -22 -9z"/>
<path d="M4830 871 c0 -5 7 -12 16 -15 14 -5 15 -4 4 9 -14 17 -20 19 -20 6z"/>
<path d="M4610 859 c0 -5 5 -7 10 -4 6 3 10 8 10 11 0 2 -4 4 -10 4 -5 0 -10
-5 -10 -11z"/>
<path d="M4706 858 c3 -5 10 -6 15 -3 13 9 11 12 -6 12 -8 0 -12 -4 -9 -9z"/>
<path d="M5090 859 c0 -5 5 -7 10 -4 6 3 10 8 10 11 0 2 -4 4 -10 4 -5 0 -10
-5 -10 -11z"/>
<path d="M3167 839 c7 -7 15 -10 18 -7 3 3 -2 9 -12 12 -14 6 -15 5 -6 -5z"/>
<path d="M3270 839 c0 -5 5 -7 10 -4 6 3 10 8 10 11 0 2 -4 4 -10 4 -5 0 -10
-5 -10 -11z"/>
<path d="M3306 842 c-3 -5 1 -9 9 -9 8 0 12 4 9 9 -3 4 -7 8 -9 8 -2 0 -6 -4
-9 -8z"/>
<path d="M5013 830 c1 -21 10 -18 13 5 1 8 -2 15 -6 15 -5 0 -8 -9 -7 -20z"/>
<path d="M3076 821 c-3 -5 0 -14 8 -20 10 -9 15 -8 19 3 4 11 1 13 -10 9 -11
-4 -14 -2 -9 5 4 7 5 12 2 12 -3 0 -7 -4 -10 -9z"/>
<path d="M3140 826 c0 -2 8 -10 18 -17 15 -13 16 -12 3 4 -13 16 -21 21 -21
13z"/>
<path d="M3010 802 c0 -5 7 -9 15 -9 8 0 12 4 9 9 -3 4 -9 8 -15 8 -5 0 -9 -4
-9 -8z"/>
<path d="M2975 780 c-3 -6 1 -13 9 -16 9 -3 14 -10 11 -14 -3 -5 -2 -11 3 -14
4 -2 8 6 8 19 0 16 -4 21 -15 17 -9 -3 -12 -1 -7 6 4 7 5 12 2 12 -3 0 -8 -5
-11 -10z"/>
<path d="M3170 780 c0 -5 5 -10 11 -10 5 0 7 5 4 10 -3 6 -8 10 -11 10 -2 0
-4 -4 -4 -10z"/>
<path d="M3236 762 c-3 -5 1 -9 9 -9 8 0 12 4 9 9 -3 4 -7 8 -9 8 -2 0 -6 -4
-9 -8z"/>
<path d="M2847 744 c7 -3 9 -13 6 -22 -4 -14 -3 -14 5 -2 12 16 7 30 -11 29
-9 0 -9 -2 0 -5z"/>
<path d="M3055 740 c3 -5 8 -10 11 -10 2 0 4 5 4 10 0 6 -5 10 -11 10 -5 0 -7
-4 -4 -10z"/>
<path d="M2921 717 c-13 -21 -12 -21 5 -5 10 10 16 20 13 22 -3 3 -11 -5 -18
-17z"/>
<path d="M2776 701 c-3 -5 1 -14 10 -22 12 -10 17 -10 27 2 7 8 8 11 3 7 -12
-9 -37 2 -30 13 3 5 3 9 0 9 -3 0 -7 -4 -10 -9z"/>
<path d="M2975 700 c-3 -5 -1 -10 4 -10 6 0 11 5 11 10 0 6 -2 10 -4 10 -3 0
-8 -4 -11 -10z"/>
<path d="M2737 681 c-4 -17 -3 -21 5 -13 5 5 8 16 6 23 -3 8 -7 3 -11 -10z"/>
<path d="M2850 696 c0 -2 8 -10 18 -17 15 -13 16 -12 3 4 -13 16 -21 21 -21
13z"/>
<path d="M2690 680 c0 -5 5 -10 10 -10 6 0 10 5 10 10 0 6 -4 10 -10 10 -5 0
-10 -4 -10 -10z"/>
<path d="M2756 653 c-6 -14 -5 -15 5 -6 7 7 10 15 7 18 -3 3 -9 -2 -12 -12z"/>
<path d="M2890 660 c0 -5 5 -10 11 -10 5 0 7 5 4 10 -3 6 -8 10 -11 10 -2 0
-4 -4 -4 -10z"/>
<path d="M2553 608 c1 -15 6 -23 11 -18 4 4 4 16 -2 26 -9 16 -10 14 -9 -8z"/>
<path d="M2614 618 c-4 -7 -4 -10 1 -6 4 4 15 2 24 -5 14 -11 14 -10 2 6 -16
20 -18 21 -27 5z"/>
<path d="M2506 607 c3 -10 9 -15 12 -12 3 3 0 11 -7 18 -10 9 -11 8 -5 -6z"/>
<path d="M2455 580 c3 -5 8 -10 11 -10 2 0 4 5 4 10 0 6 -5 10 -11 10 -5 0 -7
-4 -4 -10z"/>
<path d="M2515 580 c-16 -7 -17 -9 -3 -9 9 -1 20 4 23 9 7 11 7 11 -20 0z"/>
<path d="M2694 582 c4 -3 14 -7 22 -8 9 -1 13 0 10 4 -4 3 -14 7 -22 8 -9 1
-13 0 -10 -4z"/>
<path d="M2442 564 c10 -10 20 -16 22 -13 3 3 -5 11 -17 18 -21 13 -21 12 -5
-5z"/>
<path d="M2296 513 c-6 -14 -5 -15 5 -6 7 7 10 15 7 18 -3 3 -9 -2 -12 -12z"/>
<path d="M2373 513 c0 -9 4 -10 14 -2 7 6 13 12 13 14 0 1 -6 2 -13 2 -8 0
-14 -6 -14 -14z"/>
<path d="M2519 508 c-5 -18 -6 -38 -1 -34 7 8 12 36 6 36 -2 0 -4 -1 -5 -2z"/>
<path d="M2215 480 c3 -5 8 -10 11 -10 2 0 4 5 4 10 0 6 -5 10 -11 10 -5 0 -7
-4 -4 -10z"/>
<path d="M2253 471 c0 -11 5 -18 9 -15 4 3 5 11 1 19 -7 21 -12 19 -10 -4z"/>
</g>
</svg>
